<?xml version="1.0" encoding="UTF-8" standalone="no"?>
<!DOCTYPE svg PUBLIC "-//W3C//DTD SVG 1.1//EN"
 "http://www.w3.org/Graphics/SVG/1.1/DTD/svg11.dtd">
<!-- Generated by graphviz version 2.44.1 (20200629.0846)
 -->
<!-- Title: G Pages: 1 -->
<svg width="312pt" height="221pt"
 viewBox="0.00 0.00 312.00 221.00" xmlns="http://www.w3.org/2000/svg" xmlns:xlink="http://www.w3.org/1999/xlink">
<g id="graph0" class="graph" transform="scale(1 1) rotate(0) translate(4 217)">
<title>G</title>
<polygon fill="white" stroke="transparent" points="-4,4 -4,-217 308,-217 308,4 -4,4"/>
<!-- 2473760809144 -->
<g id="node1" class="node">
<title>2473760809144</title>
<polygon fill="none" stroke="black" points="0,-166.5 0,-212.5 304,-212.5 304,-166.5 0,-166.5"/>
<text text-anchor="middle" x="78.5" y="-185.8" font-family="Times New Roman,serif" font-size="14.00">lstm_2_input: InputLayer</text>
<polyline fill="none" stroke="black" points="157,-166.5 157,-212.5 "/>
<text text-anchor="middle" x="185" y="-197.3" font-family="Times New Roman,serif" font-size="14.00">input:</text>
<polyline fill="none" stroke="black" points="157,-189.5 213,-189.5 "/>
<text text-anchor="middle" x="185" y="-174.3" font-family="Times New Roman,serif" font-size="14.00">output:</text>
<polyline fill="none" stroke="black" points="213,-166.5 213,-212.5 "/>
<text text-anchor="middle" x="258.5" y="-197.3" font-family="Times New Roman,serif" font-size="14.00">(None, 1, 52)</text>
<polyline fill="none" stroke="black" points="213,-189.5 304,-189.5 "/>
<text text-anchor="middle" x="258.5" y="-174.3" font-family="Times New Roman,serif" font-size="14.00">(None, 1, 52)</text>
</g>
<!-- 2473760968152 -->
<g id="node2" class="node">
<title>2473760968152</title>
<polygon fill="none" stroke="black" points="29.5,-83.5 29.5,-129.5 274.5,-129.5 274.5,-83.5 29.5,-83.5"/>
<text text-anchor="middle" x="78.5" y="-102.8" font-family="Times New Roman,serif" font-size="14.00">lstm_2: LSTM</text>
<polyline fill="none" stroke="black" points="127.5,-83.5 127.5,-129.5 "/>
<text text-anchor="middle" x="155.5" y="-114.3" font-family="Times New Roman,serif" font-size="14.00">input:</text>
<polyline fill="none" stroke="black" points="127.5,-106.5 183.5,-106.5 "/>
<text text-anchor="middle" x="155.5" y="-91.3" font-family="Times New Roman,serif" font-size="14.00">output:</text>
<polyline fill="none" stroke="black" points="183.5,-83.5 183.5,-129.5 "/>
<text text-anchor="middle" x="229" y="-114.3" font-family="Times New Roman,serif" font-size="14.00">(None, 1, 52)</text>
<polyline fill="none" stroke="black" points="183.5,-106.5 274.5,-106.5 "/>
<text text-anchor="middle" x="229" y="-91.3" font-family="Times New Roman,serif" font-size="14.00">(None, 64)</text>
</g>
<!-- 2473760809144&#45;&gt;2473760968152 -->
<g id="edge1" class="edge">
<title>2473760809144&#45;&gt;2473760968152</title>
<path fill="none" stroke="black" d="M152,-166.37C152,-158.15 152,-148.66 152,-139.73"/>
<polygon fill="black" stroke="black" points="155.5,-139.61 152,-129.61 148.5,-139.61 155.5,-139.61"/>
</g>
<!-- 2473760968264 -->
<g id="node3" class="node">
<title>2473760968264</title>
<polygon fill="none" stroke="black" points="33.5,-0.5 33.5,-46.5 270.5,-46.5 270.5,-0.5 33.5,-0.5"/>
<text text-anchor="middle" x="85.5" y="-19.8" font-family="Times New Roman,serif" font-size="14.00">dense_1: Dense</text>
<polyline fill="none" stroke="black" points="137.5,-0.5 137.5,-46.5 "/>
<text text-anchor="middle" x="165.5" y="-31.3" font-family="Times New Roman,serif" font-size="14.00">input:</text>
<polyline fill="none" stroke="black" points="137.5,-23.5 193.5,-23.5 "/>
<text text-anchor="middle" x="165.5" y="-8.3" font-family="Times New Roman,serif" font-size="14.00">output:</text>
<polyline fill="none" stroke="black" points="193.5,-0.5 193.5,-46.5 "/>
<text text-anchor="middle" x="232" y="-31.3" font-family="Times New Roman,serif" font-size="14.00">(None, 64)</text>
<polyline fill="none" stroke="black" points="193.5,-23.5 270.5,-23.5 "/>
<text text-anchor="middle" x="232" y="-8.3" font-family="Times New Roman,serif" font-size="14.00">(None, 52)</text>
</g>
<!-- 2473760968152&#45;&gt;2473760968264 -->
<g id="edge2" class="edge">
<title>2473760968152&#45;&gt;2473760968264</title>
<path fill="none" stroke="black" d="M152,-83.37C152,-75.15 152,-65.66 152,-56.73"/>
<polygon fill="black" stroke="black" points="155.5,-56.61 152,-46.61 148.5,-56.61 155.5,-56.61"/>
</g>
</g>
</svg>
