<?xml version="1.0" encoding="UTF-8" standalone="no"?>
<!DOCTYPE svg PUBLIC "-//W3C//DTD SVG 1.1//EN"
 "http://www.w3.org/Graphics/SVG/1.1/DTD/svg11.dtd">
<!-- Generated by graphviz version 2.44.1 (20200629.0846)
 -->
<!-- Title: G Pages: 1 -->
<svg width="312pt" height="636pt"
 viewBox="0.00 0.00 312.00 636.00" xmlns="http://www.w3.org/2000/svg" xmlns:xlink="http://www.w3.org/1999/xlink">
<g id="graph0" class="graph" transform="scale(1 1) rotate(0) translate(4 632)">
<title>G</title>
<polygon fill="white" stroke="transparent" points="-4,4 -4,-632 308,-632 308,4 -4,4"/>
<!-- 2615061801280 -->
<g id="node1" class="node">
<title>2615061801280</title>
<polygon fill="none" stroke="black" points="0,-581.5 0,-627.5 304,-627.5 304,-581.5 0,-581.5"/>
<text text-anchor="middle" x="78.5" y="-600.8" font-family="Times New Roman,serif" font-size="14.00">Conv1_input: InputLayer</text>
<polyline fill="none" stroke="black" points="157,-581.5 157,-627.5 "/>
<text text-anchor="middle" x="185" y="-612.3" font-family="Times New Roman,serif" font-size="14.00">input:</text>
<polyline fill="none" stroke="black" points="157,-604.5 213,-604.5 "/>
<text text-anchor="middle" x="185" y="-589.3" font-family="Times New Roman,serif" font-size="14.00">output:</text>
<polyline fill="none" stroke="black" points="213,-581.5 213,-627.5 "/>
<text text-anchor="middle" x="258.5" y="-612.3" font-family="Times New Roman,serif" font-size="14.00">(None, 52, 1)</text>
<polyline fill="none" stroke="black" points="213,-604.5 304,-604.5 "/>
<text text-anchor="middle" x="258.5" y="-589.3" font-family="Times New Roman,serif" font-size="14.00">(None, 52, 1)</text>
</g>
<!-- 2615061800832 -->
<g id="node2" class="node">
<title>2615061800832</title>
<polygon fill="none" stroke="black" points="21,-498.5 21,-544.5 283,-544.5 283,-498.5 21,-498.5"/>
<text text-anchor="middle" x="75" y="-517.8" font-family="Times New Roman,serif" font-size="14.00">Conv1: Conv1D</text>
<polyline fill="none" stroke="black" points="129,-498.5 129,-544.5 "/>
<text text-anchor="middle" x="157" y="-529.3" font-family="Times New Roman,serif" font-size="14.00">input:</text>
<polyline fill="none" stroke="black" points="129,-521.5 185,-521.5 "/>
<text text-anchor="middle" x="157" y="-506.3" font-family="Times New Roman,serif" font-size="14.00">output:</text>
<polyline fill="none" stroke="black" points="185,-498.5 185,-544.5 "/>
<text text-anchor="middle" x="234" y="-529.3" font-family="Times New Roman,serif" font-size="14.00">(None, 52, 1)</text>
<polyline fill="none" stroke="black" points="185,-521.5 283,-521.5 "/>
<text text-anchor="middle" x="234" y="-506.3" font-family="Times New Roman,serif" font-size="14.00">(None, 21, 32)</text>
</g>
<!-- 2615061801280&#45;&gt;2615061800832 -->
<g id="edge1" class="edge">
<title>2615061801280&#45;&gt;2615061800832</title>
<path fill="none" stroke="black" d="M152,-581.37C152,-573.15 152,-563.66 152,-554.73"/>
<polygon fill="black" stroke="black" points="155.5,-554.61 152,-544.61 148.5,-554.61 155.5,-554.61"/>
</g>
<!-- 2615061800944 -->
<g id="node3" class="node">
<title>2615061800944</title>
<polygon fill="none" stroke="black" points="21,-415.5 21,-461.5 283,-461.5 283,-415.5 21,-415.5"/>
<text text-anchor="middle" x="75" y="-434.8" font-family="Times New Roman,serif" font-size="14.00">Conv2: Conv1D</text>
<polyline fill="none" stroke="black" points="129,-415.5 129,-461.5 "/>
<text text-anchor="middle" x="157" y="-446.3" font-family="Times New Roman,serif" font-size="14.00">input:</text>
<polyline fill="none" stroke="black" points="129,-438.5 185,-438.5 "/>
<text text-anchor="middle" x="157" y="-423.3" font-family="Times New Roman,serif" font-size="14.00">output:</text>
<polyline fill="none" stroke="black" points="185,-415.5 185,-461.5 "/>
<text text-anchor="middle" x="234" y="-446.3" font-family="Times New Roman,serif" font-size="14.00">(None, 21, 32)</text>
<polyline fill="none" stroke="black" points="185,-438.5 283,-438.5 "/>
<text text-anchor="middle" x="234" y="-423.3" font-family="Times New Roman,serif" font-size="14.00">(None, 18, 16)</text>
</g>
<!-- 2615061800832&#45;&gt;2615061800944 -->
<g id="edge2" class="edge">
<title>2615061800832&#45;&gt;2615061800944</title>
<path fill="none" stroke="black" d="M152,-498.37C152,-490.15 152,-480.66 152,-471.73"/>
<polygon fill="black" stroke="black" points="155.5,-471.61 152,-461.61 148.5,-471.61 155.5,-471.61"/>
</g>
<!-- 2615061801392 -->
<g id="node4" class="node">
<title>2615061801392</title>
<polygon fill="none" stroke="black" points="26,-332.5 26,-378.5 278,-378.5 278,-332.5 26,-332.5"/>
<text text-anchor="middle" x="75" y="-351.8" font-family="Times New Roman,serif" font-size="14.00">Flatten: Flatten</text>
<polyline fill="none" stroke="black" points="124,-332.5 124,-378.5 "/>
<text text-anchor="middle" x="152" y="-363.3" font-family="Times New Roman,serif" font-size="14.00">input:</text>
<polyline fill="none" stroke="black" points="124,-355.5 180,-355.5 "/>
<text text-anchor="middle" x="152" y="-340.3" font-family="Times New Roman,serif" font-size="14.00">output:</text>
<polyline fill="none" stroke="black" points="180,-332.5 180,-378.5 "/>
<text text-anchor="middle" x="229" y="-363.3" font-family="Times New Roman,serif" font-size="14.00">(None, 18, 16)</text>
<polyline fill="none" stroke="black" points="180,-355.5 278,-355.5 "/>
<text text-anchor="middle" x="229" y="-340.3" font-family="Times New Roman,serif" font-size="14.00">(None, 288)</text>
</g>
<!-- 2615061800944&#45;&gt;2615061801392 -->
<g id="edge3" class="edge">
<title>2615061800944&#45;&gt;2615061801392</title>
<path fill="none" stroke="black" d="M152,-415.37C152,-407.15 152,-397.66 152,-388.73"/>
<polygon fill="black" stroke="black" points="155.5,-388.61 152,-378.61 148.5,-388.61 155.5,-388.61"/>
</g>
<!-- 2615061801784 -->
<g id="node5" class="node">
<title>2615061801784</title>
<polygon fill="none" stroke="black" points="34.5,-249.5 34.5,-295.5 269.5,-295.5 269.5,-249.5 34.5,-249.5"/>
<text text-anchor="middle" x="82.5" y="-268.8" font-family="Times New Roman,serif" font-size="14.00">Layer1: Dense</text>
<polyline fill="none" stroke="black" points="130.5,-249.5 130.5,-295.5 "/>
<text text-anchor="middle" x="158.5" y="-280.3" font-family="Times New Roman,serif" font-size="14.00">input:</text>
<polyline fill="none" stroke="black" points="130.5,-272.5 186.5,-272.5 "/>
<text text-anchor="middle" x="158.5" y="-257.3" font-family="Times New Roman,serif" font-size="14.00">output:</text>
<polyline fill="none" stroke="black" points="186.5,-249.5 186.5,-295.5 "/>
<text text-anchor="middle" x="228" y="-280.3" font-family="Times New Roman,serif" font-size="14.00">(None, 288)</text>
<polyline fill="none" stroke="black" points="186.5,-272.5 269.5,-272.5 "/>
<text text-anchor="middle" x="228" y="-257.3" font-family="Times New Roman,serif" font-size="14.00">(None, 256)</text>
</g>
<!-- 2615061801392&#45;&gt;2615061801784 -->
<g id="edge4" class="edge">
<title>2615061801392&#45;&gt;2615061801784</title>
<path fill="none" stroke="black" d="M152,-332.37C152,-324.15 152,-314.66 152,-305.73"/>
<polygon fill="black" stroke="black" points="155.5,-305.61 152,-295.61 148.5,-305.61 155.5,-305.61"/>
</g>
<!-- 2615061936784 -->
<g id="node6" class="node">
<title>2615061936784</title>
<polygon fill="none" stroke="black" points="34.5,-166.5 34.5,-212.5 269.5,-212.5 269.5,-166.5 34.5,-166.5"/>
<text text-anchor="middle" x="82.5" y="-185.8" font-family="Times New Roman,serif" font-size="14.00">Layer2: Dense</text>
<polyline fill="none" stroke="black" points="130.5,-166.5 130.5,-212.5 "/>
<text text-anchor="middle" x="158.5" y="-197.3" font-family="Times New Roman,serif" font-size="14.00">input:</text>
<polyline fill="none" stroke="black" points="130.5,-189.5 186.5,-189.5 "/>
<text text-anchor="middle" x="158.5" y="-174.3" font-family="Times New Roman,serif" font-size="14.00">output:</text>
<polyline fill="none" stroke="black" points="186.5,-166.5 186.5,-212.5 "/>
<text text-anchor="middle" x="228" y="-197.3" font-family="Times New Roman,serif" font-size="14.00">(None, 256)</text>
<polyline fill="none" stroke="black" points="186.5,-189.5 269.5,-189.5 "/>
<text text-anchor="middle" x="228" y="-174.3" font-family="Times New Roman,serif" font-size="14.00">(None, 128)</text>
</g>
<!-- 2615061801784&#45;&gt;2615061936784 -->
<g id="edge5" class="edge">
<title>2615061801784&#45;&gt;2615061936784</title>
<path fill="none" stroke="black" d="M152,-249.37C152,-241.15 152,-231.66 152,-222.73"/>
<polygon fill="black" stroke="black" points="155.5,-222.61 152,-212.61 148.5,-222.61 155.5,-222.61"/>
</g>
<!-- 2615063526592 -->
<g id="node7" class="node">
<title>2615063526592</title>
<polygon fill="none" stroke="black" points="34.5,-83.5 34.5,-129.5 269.5,-129.5 269.5,-83.5 34.5,-83.5"/>
<text text-anchor="middle" x="82.5" y="-102.8" font-family="Times New Roman,serif" font-size="14.00">Layer3: Dense</text>
<polyline fill="none" stroke="black" points="130.5,-83.5 130.5,-129.5 "/>
<text text-anchor="middle" x="158.5" y="-114.3" font-family="Times New Roman,serif" font-size="14.00">input:</text>
<polyline fill="none" stroke="black" points="130.5,-106.5 186.5,-106.5 "/>
<text text-anchor="middle" x="158.5" y="-91.3" font-family="Times New Roman,serif" font-size="14.00">output:</text>
<polyline fill="none" stroke="black" points="186.5,-83.5 186.5,-129.5 "/>
<text text-anchor="middle" x="228" y="-114.3" font-family="Times New Roman,serif" font-size="14.00">(None, 128)</text>
<polyline fill="none" stroke="black" points="186.5,-106.5 269.5,-106.5 "/>
<text text-anchor="middle" x="228" y="-91.3" font-family="Times New Roman,serif" font-size="14.00">(None, 64)</text>
</g>
<!-- 2615061936784&#45;&gt;2615063526592 -->
<g id="edge6" class="edge">
<title>2615061936784&#45;&gt;2615063526592</title>
<path fill="none" stroke="black" d="M152,-166.37C152,-158.15 152,-148.66 152,-139.73"/>
<polygon fill="black" stroke="black" points="155.5,-139.61 152,-129.61 148.5,-139.61 155.5,-139.61"/>
</g>
<!-- 2615063643416 -->
<g id="node8" class="node">
<title>2615063643416</title>
<polygon fill="none" stroke="black" points="37,-0.5 37,-46.5 267,-46.5 267,-0.5 37,-0.5"/>
<text text-anchor="middle" x="85.5" y="-19.8" font-family="Times New Roman,serif" font-size="14.00">Output: Dense</text>
<polyline fill="none" stroke="black" points="134,-0.5 134,-46.5 "/>
<text text-anchor="middle" x="162" y="-31.3" font-family="Times New Roman,serif" font-size="14.00">input:</text>
<polyline fill="none" stroke="black" points="134,-23.5 190,-23.5 "/>
<text text-anchor="middle" x="162" y="-8.3" font-family="Times New Roman,serif" font-size="14.00">output:</text>
<polyline fill="none" stroke="black" points="190,-0.5 190,-46.5 "/>
<text text-anchor="middle" x="228.5" y="-31.3" font-family="Times New Roman,serif" font-size="14.00">(None, 64)</text>
<polyline fill="none" stroke="black" points="190,-23.5 267,-23.5 "/>
<text text-anchor="middle" x="228.5" y="-8.3" font-family="Times New Roman,serif" font-size="14.00">(None, 52)</text>
</g>
<!-- 2615063526592&#45;&gt;2615063643416 -->
<g id="edge7" class="edge">
<title>2615063526592&#45;&gt;2615063643416</title>
<path fill="none" stroke="black" d="M152,-83.37C152,-75.15 152,-65.66 152,-56.73"/>
<polygon fill="black" stroke="black" points="155.5,-56.61 152,-46.61 148.5,-56.61 155.5,-56.61"/>
</g>
</g>
</svg>
