<?xml version="1.0" encoding="UTF-8" standalone="no"?>
<!DOCTYPE svg PUBLIC "-//W3C//DTD SVG 1.1//EN"
 "http://www.w3.org/Graphics/SVG/1.1/DTD/svg11.dtd">
<!-- Generated by graphviz version 2.44.1 (20200629.0846)
 -->
<!-- Title: G Pages: 1 -->
<svg width="299pt" height="387pt"
 viewBox="0.00 0.00 299.00 387.00" xmlns="http://www.w3.org/2000/svg" xmlns:xlink="http://www.w3.org/1999/xlink">
<g id="graph0" class="graph" transform="scale(1 1) rotate(0) translate(4 383)">
<title>G</title>
<polygon fill="white" stroke="transparent" points="-4,4 -4,-383 295,-383 295,4 -4,4"/>
<!-- 2614987326016 -->
<g id="node1" class="node">
<title>2614987326016</title>
<polygon fill="none" stroke="black" points="0,-332.5 0,-378.5 291,-378.5 291,-332.5 0,-332.5"/>
<text text-anchor="middle" x="79" y="-351.8" font-family="Times New Roman,serif" font-size="14.00">Layer1_input: InputLayer</text>
<polyline fill="none" stroke="black" points="158,-332.5 158,-378.5 "/>
<text text-anchor="middle" x="186" y="-363.3" font-family="Times New Roman,serif" font-size="14.00">input:</text>
<polyline fill="none" stroke="black" points="158,-355.5 214,-355.5 "/>
<text text-anchor="middle" x="186" y="-340.3" font-family="Times New Roman,serif" font-size="14.00">output:</text>
<polyline fill="none" stroke="black" points="214,-332.5 214,-378.5 "/>
<text text-anchor="middle" x="252.5" y="-363.3" font-family="Times New Roman,serif" font-size="14.00">(None, 52)</text>
<polyline fill="none" stroke="black" points="214,-355.5 291,-355.5 "/>
<text text-anchor="middle" x="252.5" y="-340.3" font-family="Times New Roman,serif" font-size="14.00">(None, 52)</text>
</g>
<!-- 2614987325568 -->
<g id="node2" class="node">
<title>2614987325568</title>
<polygon fill="none" stroke="black" points="28,-249.5 28,-295.5 263,-295.5 263,-249.5 28,-249.5"/>
<text text-anchor="middle" x="76" y="-268.8" font-family="Times New Roman,serif" font-size="14.00">Layer1: Dense</text>
<polyline fill="none" stroke="black" points="124,-249.5 124,-295.5 "/>
<text text-anchor="middle" x="152" y="-280.3" font-family="Times New Roman,serif" font-size="14.00">input:</text>
<polyline fill="none" stroke="black" points="124,-272.5 180,-272.5 "/>
<text text-anchor="middle" x="152" y="-257.3" font-family="Times New Roman,serif" font-size="14.00">output:</text>
<polyline fill="none" stroke="black" points="180,-249.5 180,-295.5 "/>
<text text-anchor="middle" x="221.5" y="-280.3" font-family="Times New Roman,serif" font-size="14.00">(None, 52)</text>
<polyline fill="none" stroke="black" points="180,-272.5 263,-272.5 "/>
<text text-anchor="middle" x="221.5" y="-257.3" font-family="Times New Roman,serif" font-size="14.00">(None, 256)</text>
</g>
<!-- 2614987326016&#45;&gt;2614987325568 -->
<g id="edge1" class="edge">
<title>2614987326016&#45;&gt;2614987325568</title>
<path fill="none" stroke="black" d="M145.5,-332.37C145.5,-324.15 145.5,-314.66 145.5,-305.73"/>
<polygon fill="black" stroke="black" points="149,-305.61 145.5,-295.61 142,-305.61 149,-305.61"/>
</g>
<!-- 2614987325680 -->
<g id="node3" class="node">
<title>2614987325680</title>
<polygon fill="none" stroke="black" points="28,-166.5 28,-212.5 263,-212.5 263,-166.5 28,-166.5"/>
<text text-anchor="middle" x="76" y="-185.8" font-family="Times New Roman,serif" font-size="14.00">Layer2: Dense</text>
<polyline fill="none" stroke="black" points="124,-166.5 124,-212.5 "/>
<text text-anchor="middle" x="152" y="-197.3" font-family="Times New Roman,serif" font-size="14.00">input:</text>
<polyline fill="none" stroke="black" points="124,-189.5 180,-189.5 "/>
<text text-anchor="middle" x="152" y="-174.3" font-family="Times New Roman,serif" font-size="14.00">output:</text>
<polyline fill="none" stroke="black" points="180,-166.5 180,-212.5 "/>
<text text-anchor="middle" x="221.5" y="-197.3" font-family="Times New Roman,serif" font-size="14.00">(None, 256)</text>
<polyline fill="none" stroke="black" points="180,-189.5 263,-189.5 "/>
<text text-anchor="middle" x="221.5" y="-174.3" font-family="Times New Roman,serif" font-size="14.00">(None, 128)</text>
</g>
<!-- 2614987325568&#45;&gt;2614987325680 -->
<g id="edge2" class="edge">
<title>2614987325568&#45;&gt;2614987325680</title>
<path fill="none" stroke="black" d="M145.5,-249.37C145.5,-241.15 145.5,-231.66 145.5,-222.73"/>
<polygon fill="black" stroke="black" points="149,-222.61 145.5,-212.61 142,-222.61 149,-222.61"/>
</g>
<!-- 2614987326296 -->
<g id="node4" class="node">
<title>2614987326296</title>
<polygon fill="none" stroke="black" points="28,-83.5 28,-129.5 263,-129.5 263,-83.5 28,-83.5"/>
<text text-anchor="middle" x="76" y="-102.8" font-family="Times New Roman,serif" font-size="14.00">Layer3: Dense</text>
<polyline fill="none" stroke="black" points="124,-83.5 124,-129.5 "/>
<text text-anchor="middle" x="152" y="-114.3" font-family="Times New Roman,serif" font-size="14.00">input:</text>
<polyline fill="none" stroke="black" points="124,-106.5 180,-106.5 "/>
<text text-anchor="middle" x="152" y="-91.3" font-family="Times New Roman,serif" font-size="14.00">output:</text>
<polyline fill="none" stroke="black" points="180,-83.5 180,-129.5 "/>
<text text-anchor="middle" x="221.5" y="-114.3" font-family="Times New Roman,serif" font-size="14.00">(None, 128)</text>
<polyline fill="none" stroke="black" points="180,-106.5 263,-106.5 "/>
<text text-anchor="middle" x="221.5" y="-91.3" font-family="Times New Roman,serif" font-size="14.00">(None, 64)</text>
</g>
<!-- 2614987325680&#45;&gt;2614987326296 -->
<g id="edge3" class="edge">
<title>2614987325680&#45;&gt;2614987326296</title>
<path fill="none" stroke="black" d="M145.5,-166.37C145.5,-158.15 145.5,-148.66 145.5,-139.73"/>
<polygon fill="black" stroke="black" points="149,-139.61 145.5,-129.61 142,-139.61 149,-139.61"/>
</g>
<!-- 2614987328424 -->
<g id="node5" class="node">
<title>2614987328424</title>
<polygon fill="none" stroke="black" points="30.5,-0.5 30.5,-46.5 260.5,-46.5 260.5,-0.5 30.5,-0.5"/>
<text text-anchor="middle" x="79" y="-19.8" font-family="Times New Roman,serif" font-size="14.00">Output: Dense</text>
<polyline fill="none" stroke="black" points="127.5,-0.5 127.5,-46.5 "/>
<text text-anchor="middle" x="155.5" y="-31.3" font-family="Times New Roman,serif" font-size="14.00">input:</text>
<polyline fill="none" stroke="black" points="127.5,-23.5 183.5,-23.5 "/>
<text text-anchor="middle" x="155.5" y="-8.3" font-family="Times New Roman,serif" font-size="14.00">output:</text>
<polyline fill="none" stroke="black" points="183.5,-0.5 183.5,-46.5 "/>
<text text-anchor="middle" x="222" y="-31.3" font-family="Times New Roman,serif" font-size="14.00">(None, 64)</text>
<polyline fill="none" stroke="black" points="183.5,-23.5 260.5,-23.5 "/>
<text text-anchor="middle" x="222" y="-8.3" font-family="Times New Roman,serif" font-size="14.00">(None, 52)</text>
</g>
<!-- 2614987326296&#45;&gt;2614987328424 -->
<g id="edge4" class="edge">
<title>2614987326296&#45;&gt;2614987328424</title>
<path fill="none" stroke="black" d="M145.5,-83.37C145.5,-75.15 145.5,-65.66 145.5,-56.73"/>
<polygon fill="black" stroke="black" points="149,-56.61 145.5,-46.61 142,-56.61 149,-56.61"/>
</g>
</g>
</svg>
