<?xml version="1.0" encoding="UTF-8" standalone="no"?>
<!DOCTYPE svg PUBLIC "-//W3C//DTD SVG 1.1//EN"
 "http://www.w3.org/Graphics/SVG/1.1/DTD/svg11.dtd">
<!-- Generated by graphviz version 2.44.1 (20200629.0846)
 -->
<!-- Title: G Pages: 1 -->
<svg width="311pt" height="221pt"
 viewBox="0.00 0.00 311.00 221.00" xmlns="http://www.w3.org/2000/svg" xmlns:xlink="http://www.w3.org/1999/xlink">
<g id="graph0" class="graph" transform="scale(1 1) rotate(0) translate(4 217)">
<title>G</title>
<polygon fill="white" stroke="transparent" points="-4,4 -4,-217 307,-217 307,4 -4,4"/>
<!-- 2471847543920 -->
<g id="node1" class="node">
<title>2471847543920</title>
<polygon fill="none" stroke="black" points="0,-166.5 0,-212.5 303,-212.5 303,-166.5 0,-166.5"/>
<text text-anchor="middle" x="78" y="-185.8" font-family="Times New Roman,serif" font-size="14.00">GRU1_input: InputLayer</text>
<polyline fill="none" stroke="black" points="156,-166.5 156,-212.5 "/>
<text text-anchor="middle" x="184" y="-197.3" font-family="Times New Roman,serif" font-size="14.00">input:</text>
<polyline fill="none" stroke="black" points="156,-189.5 212,-189.5 "/>
<text text-anchor="middle" x="184" y="-174.3" font-family="Times New Roman,serif" font-size="14.00">output:</text>
<polyline fill="none" stroke="black" points="212,-166.5 212,-212.5 "/>
<text text-anchor="middle" x="257.5" y="-197.3" font-family="Times New Roman,serif" font-size="14.00">(None, 1, 52)</text>
<polyline fill="none" stroke="black" points="212,-189.5 303,-189.5 "/>
<text text-anchor="middle" x="257.5" y="-174.3" font-family="Times New Roman,serif" font-size="14.00">(None, 1, 52)</text>
</g>
<!-- 2471847543360 -->
<g id="node2" class="node">
<title>2471847543360</title>
<polygon fill="none" stroke="black" points="33,-83.5 33,-129.5 270,-129.5 270,-83.5 33,-83.5"/>
<text text-anchor="middle" x="78" y="-102.8" font-family="Times New Roman,serif" font-size="14.00">GRU1: GRU</text>
<polyline fill="none" stroke="black" points="123,-83.5 123,-129.5 "/>
<text text-anchor="middle" x="151" y="-114.3" font-family="Times New Roman,serif" font-size="14.00">input:</text>
<polyline fill="none" stroke="black" points="123,-106.5 179,-106.5 "/>
<text text-anchor="middle" x="151" y="-91.3" font-family="Times New Roman,serif" font-size="14.00">output:</text>
<polyline fill="none" stroke="black" points="179,-83.5 179,-129.5 "/>
<text text-anchor="middle" x="224.5" y="-114.3" font-family="Times New Roman,serif" font-size="14.00">(None, 1, 52)</text>
<polyline fill="none" stroke="black" points="179,-106.5 270,-106.5 "/>
<text text-anchor="middle" x="224.5" y="-91.3" font-family="Times New Roman,serif" font-size="14.00">(None, 64)</text>
</g>
<!-- 2471847543920&#45;&gt;2471847543360 -->
<g id="edge1" class="edge">
<title>2471847543920&#45;&gt;2471847543360</title>
<path fill="none" stroke="black" d="M151.5,-166.37C151.5,-158.15 151.5,-148.66 151.5,-139.73"/>
<polygon fill="black" stroke="black" points="155,-139.61 151.5,-129.61 148,-139.61 155,-139.61"/>
</g>
<!-- 2471847543472 -->
<g id="node3" class="node">
<title>2471847543472</title>
<polygon fill="none" stroke="black" points="36.5,-0.5 36.5,-46.5 266.5,-46.5 266.5,-0.5 36.5,-0.5"/>
<text text-anchor="middle" x="85" y="-19.8" font-family="Times New Roman,serif" font-size="14.00">Output: Dense</text>
<polyline fill="none" stroke="black" points="133.5,-0.5 133.5,-46.5 "/>
<text text-anchor="middle" x="161.5" y="-31.3" font-family="Times New Roman,serif" font-size="14.00">input:</text>
<polyline fill="none" stroke="black" points="133.5,-23.5 189.5,-23.5 "/>
<text text-anchor="middle" x="161.5" y="-8.3" font-family="Times New Roman,serif" font-size="14.00">output:</text>
<polyline fill="none" stroke="black" points="189.5,-0.5 189.5,-46.5 "/>
<text text-anchor="middle" x="228" y="-31.3" font-family="Times New Roman,serif" font-size="14.00">(None, 64)</text>
<polyline fill="none" stroke="black" points="189.5,-23.5 266.5,-23.5 "/>
<text text-anchor="middle" x="228" y="-8.3" font-family="Times New Roman,serif" font-size="14.00">(None, 52)</text>
</g>
<!-- 2471847543360&#45;&gt;2471847543472 -->
<g id="edge2" class="edge">
<title>2471847543360&#45;&gt;2471847543472</title>
<path fill="none" stroke="black" d="M151.5,-83.37C151.5,-75.15 151.5,-65.66 151.5,-56.73"/>
<polygon fill="black" stroke="black" points="155,-56.61 151.5,-46.61 148,-56.61 155,-56.61"/>
</g>
</g>
</svg>
