<?xml version="1.0" encoding="UTF-8" standalone="no"?>
<!DOCTYPE svg PUBLIC "-//W3C//DTD SVG 1.1//EN"
 "http://www.w3.org/Graphics/SVG/1.1/DTD/svg11.dtd">
<!-- Generated by graphviz version 2.44.1 (20200629.0846)
 -->
<!-- Title: G Pages: 1 -->
<svg width="319pt" height="304pt"
 viewBox="0.00 0.00 319.00 304.00" xmlns="http://www.w3.org/2000/svg" xmlns:xlink="http://www.w3.org/1999/xlink">
<g id="graph0" class="graph" transform="scale(1 1) rotate(0) translate(4 300)">
<title>G</title>
<polygon fill="white" stroke="transparent" points="-4,4 -4,-300 315,-300 315,4 -4,4"/>
<!-- 1828820817400 -->
<g id="node1" class="node">
<title>1828820817400</title>
<polygon fill="none" stroke="black" points="0,-249.5 0,-295.5 311,-295.5 311,-249.5 0,-249.5"/>
<text text-anchor="middle" x="82" y="-268.8" font-family="Times New Roman,serif" font-size="14.00">LSTM1_input: InputLayer</text>
<polyline fill="none" stroke="black" points="164,-249.5 164,-295.5 "/>
<text text-anchor="middle" x="192" y="-280.3" font-family="Times New Roman,serif" font-size="14.00">input:</text>
<polyline fill="none" stroke="black" points="164,-272.5 220,-272.5 "/>
<text text-anchor="middle" x="192" y="-257.3" font-family="Times New Roman,serif" font-size="14.00">output:</text>
<polyline fill="none" stroke="black" points="220,-249.5 220,-295.5 "/>
<text text-anchor="middle" x="265.5" y="-280.3" font-family="Times New Roman,serif" font-size="14.00">(None, 1, 52)</text>
<polyline fill="none" stroke="black" points="220,-272.5 311,-272.5 "/>
<text text-anchor="middle" x="265.5" y="-257.3" font-family="Times New Roman,serif" font-size="14.00">(None, 1, 52)</text>
</g>
<!-- 1828840027976 -->
<g id="node2" class="node">
<title>1828840027976</title>
<polygon fill="none" stroke="black" points="26,-166.5 26,-212.5 285,-212.5 285,-166.5 26,-166.5"/>
<text text-anchor="middle" x="78.5" y="-185.8" font-family="Times New Roman,serif" font-size="14.00">LSTM1: LSTM</text>
<polyline fill="none" stroke="black" points="131,-166.5 131,-212.5 "/>
<text text-anchor="middle" x="159" y="-197.3" font-family="Times New Roman,serif" font-size="14.00">input:</text>
<polyline fill="none" stroke="black" points="131,-189.5 187,-189.5 "/>
<text text-anchor="middle" x="159" y="-174.3" font-family="Times New Roman,serif" font-size="14.00">output:</text>
<polyline fill="none" stroke="black" points="187,-166.5 187,-212.5 "/>
<text text-anchor="middle" x="236" y="-197.3" font-family="Times New Roman,serif" font-size="14.00">(None, 1, 52)</text>
<polyline fill="none" stroke="black" points="187,-189.5 285,-189.5 "/>
<text text-anchor="middle" x="236" y="-174.3" font-family="Times New Roman,serif" font-size="14.00">(None, 1, 128)</text>
</g>
<!-- 1828820817400&#45;&gt;1828840027976 -->
<g id="edge1" class="edge">
<title>1828820817400&#45;&gt;1828840027976</title>
<path fill="none" stroke="black" d="M155.5,-249.37C155.5,-241.15 155.5,-231.66 155.5,-222.73"/>
<polygon fill="black" stroke="black" points="159,-222.61 155.5,-212.61 152,-222.61 159,-222.61"/>
</g>
<!-- 1828746013720 -->
<g id="node3" class="node">
<title>1828746013720</title>
<polygon fill="none" stroke="black" points="26,-83.5 26,-129.5 285,-129.5 285,-83.5 26,-83.5"/>
<text text-anchor="middle" x="78.5" y="-102.8" font-family="Times New Roman,serif" font-size="14.00">LSTM2: LSTM</text>
<polyline fill="none" stroke="black" points="131,-83.5 131,-129.5 "/>
<text text-anchor="middle" x="159" y="-114.3" font-family="Times New Roman,serif" font-size="14.00">input:</text>
<polyline fill="none" stroke="black" points="131,-106.5 187,-106.5 "/>
<text text-anchor="middle" x="159" y="-91.3" font-family="Times New Roman,serif" font-size="14.00">output:</text>
<polyline fill="none" stroke="black" points="187,-83.5 187,-129.5 "/>
<text text-anchor="middle" x="236" y="-114.3" font-family="Times New Roman,serif" font-size="14.00">(None, 1, 128)</text>
<polyline fill="none" stroke="black" points="187,-106.5 285,-106.5 "/>
<text text-anchor="middle" x="236" y="-91.3" font-family="Times New Roman,serif" font-size="14.00">(None, 64)</text>
</g>
<!-- 1828840027976&#45;&gt;1828746013720 -->
<g id="edge2" class="edge">
<title>1828840027976&#45;&gt;1828746013720</title>
<path fill="none" stroke="black" d="M155.5,-166.37C155.5,-158.15 155.5,-148.66 155.5,-139.73"/>
<polygon fill="black" stroke="black" points="159,-139.61 155.5,-129.61 152,-139.61 159,-139.61"/>
</g>
<!-- 1828820817960 -->
<g id="node4" class="node">
<title>1828820817960</title>
<polygon fill="none" stroke="black" points="40.5,-0.5 40.5,-46.5 270.5,-46.5 270.5,-0.5 40.5,-0.5"/>
<text text-anchor="middle" x="89" y="-19.8" font-family="Times New Roman,serif" font-size="14.00">Output: Dense</text>
<polyline fill="none" stroke="black" points="137.5,-0.5 137.5,-46.5 "/>
<text text-anchor="middle" x="165.5" y="-31.3" font-family="Times New Roman,serif" font-size="14.00">input:</text>
<polyline fill="none" stroke="black" points="137.5,-23.5 193.5,-23.5 "/>
<text text-anchor="middle" x="165.5" y="-8.3" font-family="Times New Roman,serif" font-size="14.00">output:</text>
<polyline fill="none" stroke="black" points="193.5,-0.5 193.5,-46.5 "/>
<text text-anchor="middle" x="232" y="-31.3" font-family="Times New Roman,serif" font-size="14.00">(None, 64)</text>
<polyline fill="none" stroke="black" points="193.5,-23.5 270.5,-23.5 "/>
<text text-anchor="middle" x="232" y="-8.3" font-family="Times New Roman,serif" font-size="14.00">(None, 52)</text>
</g>
<!-- 1828746013720&#45;&gt;1828820817960 -->
<g id="edge3" class="edge">
<title>1828746013720&#45;&gt;1828820817960</title>
<path fill="none" stroke="black" d="M155.5,-83.37C155.5,-75.15 155.5,-65.66 155.5,-56.73"/>
<polygon fill="black" stroke="black" points="159,-56.61 155.5,-46.61 152,-56.61 159,-56.61"/>
</g>
</g>
</svg>
