<?xml version="1.0" encoding="UTF-8" standalone="no"?>
<!DOCTYPE svg PUBLIC "-//W3C//DTD SVG 1.1//EN"
 "http://www.w3.org/Graphics/SVG/1.1/DTD/svg11.dtd">
<!-- Generated by graphviz version 2.44.1 (20200629.0846)
 -->
<!-- Title: G Pages: 1 -->
<svg width="319pt" height="221pt"
 viewBox="0.00 0.00 319.00 221.00" xmlns="http://www.w3.org/2000/svg" xmlns:xlink="http://www.w3.org/1999/xlink">
<g id="graph0" class="graph" transform="scale(1 1) rotate(0) translate(4 217)">
<title>G</title>
<polygon fill="white" stroke="transparent" points="-4,4 -4,-217 315,-217 315,4 -4,4"/>
<!-- 2473897817704 -->
<g id="node1" class="node">
<title>2473897817704</title>
<polygon fill="none" stroke="black" points="0,-166.5 0,-212.5 311,-212.5 311,-166.5 0,-166.5"/>
<text text-anchor="middle" x="82" y="-185.8" font-family="Times New Roman,serif" font-size="14.00">LSTM1_input: InputLayer</text>
<polyline fill="none" stroke="black" points="164,-166.5 164,-212.5 "/>
<text text-anchor="middle" x="192" y="-197.3" font-family="Times New Roman,serif" font-size="14.00">input:</text>
<polyline fill="none" stroke="black" points="164,-189.5 220,-189.5 "/>
<text text-anchor="middle" x="192" y="-174.3" font-family="Times New Roman,serif" font-size="14.00">output:</text>
<polyline fill="none" stroke="black" points="220,-166.5 220,-212.5 "/>
<text text-anchor="middle" x="265.5" y="-197.3" font-family="Times New Roman,serif" font-size="14.00">(None, 1, 52)</text>
<polyline fill="none" stroke="black" points="220,-189.5 311,-189.5 "/>
<text text-anchor="middle" x="265.5" y="-174.3" font-family="Times New Roman,serif" font-size="14.00">(None, 1, 52)</text>
</g>
<!-- 2473897817088 -->
<g id="node2" class="node">
<title>2473897817088</title>
<polygon fill="none" stroke="black" points="29.5,-83.5 29.5,-129.5 281.5,-129.5 281.5,-83.5 29.5,-83.5"/>
<text text-anchor="middle" x="82" y="-102.8" font-family="Times New Roman,serif" font-size="14.00">LSTM1: LSTM</text>
<polyline fill="none" stroke="black" points="134.5,-83.5 134.5,-129.5 "/>
<text text-anchor="middle" x="162.5" y="-114.3" font-family="Times New Roman,serif" font-size="14.00">input:</text>
<polyline fill="none" stroke="black" points="134.5,-106.5 190.5,-106.5 "/>
<text text-anchor="middle" x="162.5" y="-91.3" font-family="Times New Roman,serif" font-size="14.00">output:</text>
<polyline fill="none" stroke="black" points="190.5,-83.5 190.5,-129.5 "/>
<text text-anchor="middle" x="236" y="-114.3" font-family="Times New Roman,serif" font-size="14.00">(None, 1, 52)</text>
<polyline fill="none" stroke="black" points="190.5,-106.5 281.5,-106.5 "/>
<text text-anchor="middle" x="236" y="-91.3" font-family="Times New Roman,serif" font-size="14.00">(None, 64)</text>
</g>
<!-- 2473897817704&#45;&gt;2473897817088 -->
<g id="edge1" class="edge">
<title>2473897817704&#45;&gt;2473897817088</title>
<path fill="none" stroke="black" d="M155.5,-166.37C155.5,-158.15 155.5,-148.66 155.5,-139.73"/>
<polygon fill="black" stroke="black" points="159,-139.61 155.5,-129.61 152,-139.61 159,-139.61"/>
</g>
<!-- 2473897817200 -->
<g id="node3" class="node">
<title>2473897817200</title>
<polygon fill="none" stroke="black" points="40.5,-0.5 40.5,-46.5 270.5,-46.5 270.5,-0.5 40.5,-0.5"/>
<text text-anchor="middle" x="89" y="-19.8" font-family="Times New Roman,serif" font-size="14.00">Output: Dense</text>
<polyline fill="none" stroke="black" points="137.5,-0.5 137.5,-46.5 "/>
<text text-anchor="middle" x="165.5" y="-31.3" font-family="Times New Roman,serif" font-size="14.00">input:</text>
<polyline fill="none" stroke="black" points="137.5,-23.5 193.5,-23.5 "/>
<text text-anchor="middle" x="165.5" y="-8.3" font-family="Times New Roman,serif" font-size="14.00">output:</text>
<polyline fill="none" stroke="black" points="193.5,-0.5 193.5,-46.5 "/>
<text text-anchor="middle" x="232" y="-31.3" font-family="Times New Roman,serif" font-size="14.00">(None, 64)</text>
<polyline fill="none" stroke="black" points="193.5,-23.5 270.5,-23.5 "/>
<text text-anchor="middle" x="232" y="-8.3" font-family="Times New Roman,serif" font-size="14.00">(None, 52)</text>
</g>
<!-- 2473897817088&#45;&gt;2473897817200 -->
<g id="edge2" class="edge">
<title>2473897817088&#45;&gt;2473897817200</title>
<path fill="none" stroke="black" d="M155.5,-83.37C155.5,-75.15 155.5,-65.66 155.5,-56.73"/>
<polygon fill="black" stroke="black" points="159,-56.61 155.5,-46.61 152,-56.61 159,-56.61"/>
</g>
</g>
</svg>
