<?xml version="1.0" encoding="UTF-8" standalone="no"?>
<!DOCTYPE svg PUBLIC "-//W3C//DTD SVG 1.1//EN"
 "http://www.w3.org/Graphics/SVG/1.1/DTD/svg11.dtd">
<!-- Generated by graphviz version 2.44.1 (20200629.0846)
 -->
<!-- Title: G Pages: 1 -->
<svg width="310pt" height="221pt"
 viewBox="0.00 0.00 310.00 221.00" xmlns="http://www.w3.org/2000/svg" xmlns:xlink="http://www.w3.org/1999/xlink">
<g id="graph0" class="graph" transform="scale(1 1) rotate(0) translate(4 217)">
<title>G</title>
<polygon fill="white" stroke="transparent" points="-4,4 -4,-217 306,-217 306,4 -4,4"/>
<!-- 1233211061976 -->
<g id="node1" class="node">
<title>1233211061976</title>
<polygon fill="none" stroke="black" points="0,-166.5 0,-212.5 302,-212.5 302,-166.5 0,-166.5"/>
<text text-anchor="middle" x="77.5" y="-185.8" font-family="Times New Roman,serif" font-size="14.00">RNN1_input: InputLayer</text>
<polyline fill="none" stroke="black" points="155,-166.5 155,-212.5 "/>
<text text-anchor="middle" x="183" y="-197.3" font-family="Times New Roman,serif" font-size="14.00">input:</text>
<polyline fill="none" stroke="black" points="155,-189.5 211,-189.5 "/>
<text text-anchor="middle" x="183" y="-174.3" font-family="Times New Roman,serif" font-size="14.00">output:</text>
<polyline fill="none" stroke="black" points="211,-166.5 211,-212.5 "/>
<text text-anchor="middle" x="256.5" y="-197.3" font-family="Times New Roman,serif" font-size="14.00">(None, 1, 52)</text>
<polyline fill="none" stroke="black" points="211,-189.5 302,-189.5 "/>
<text text-anchor="middle" x="256.5" y="-174.3" font-family="Times New Roman,serif" font-size="14.00">(None, 1, 52)</text>
</g>
<!-- 1233211061304 -->
<g id="node2" class="node">
<title>1233211061304</title>
<polygon fill="none" stroke="black" points="14,-83.5 14,-129.5 288,-129.5 288,-83.5 14,-83.5"/>
<text text-anchor="middle" x="77.5" y="-102.8" font-family="Times New Roman,serif" font-size="14.00">RNN1: SimpleRNN</text>
<polyline fill="none" stroke="black" points="141,-83.5 141,-129.5 "/>
<text text-anchor="middle" x="169" y="-114.3" font-family="Times New Roman,serif" font-size="14.00">input:</text>
<polyline fill="none" stroke="black" points="141,-106.5 197,-106.5 "/>
<text text-anchor="middle" x="169" y="-91.3" font-family="Times New Roman,serif" font-size="14.00">output:</text>
<polyline fill="none" stroke="black" points="197,-83.5 197,-129.5 "/>
<text text-anchor="middle" x="242.5" y="-114.3" font-family="Times New Roman,serif" font-size="14.00">(None, 1, 52)</text>
<polyline fill="none" stroke="black" points="197,-106.5 288,-106.5 "/>
<text text-anchor="middle" x="242.5" y="-91.3" font-family="Times New Roman,serif" font-size="14.00">(None, 64)</text>
</g>
<!-- 1233211061976&#45;&gt;1233211061304 -->
<g id="edge1" class="edge">
<title>1233211061976&#45;&gt;1233211061304</title>
<path fill="none" stroke="black" d="M151,-166.37C151,-158.15 151,-148.66 151,-139.73"/>
<polygon fill="black" stroke="black" points="154.5,-139.61 151,-129.61 147.5,-139.61 154.5,-139.61"/>
</g>
<!-- 1233211061416 -->
<g id="node3" class="node">
<title>1233211061416</title>
<polygon fill="none" stroke="black" points="36,-0.5 36,-46.5 266,-46.5 266,-0.5 36,-0.5"/>
<text text-anchor="middle" x="84.5" y="-19.8" font-family="Times New Roman,serif" font-size="14.00">Output: Dense</text>
<polyline fill="none" stroke="black" points="133,-0.5 133,-46.5 "/>
<text text-anchor="middle" x="161" y="-31.3" font-family="Times New Roman,serif" font-size="14.00">input:</text>
<polyline fill="none" stroke="black" points="133,-23.5 189,-23.5 "/>
<text text-anchor="middle" x="161" y="-8.3" font-family="Times New Roman,serif" font-size="14.00">output:</text>
<polyline fill="none" stroke="black" points="189,-0.5 189,-46.5 "/>
<text text-anchor="middle" x="227.5" y="-31.3" font-family="Times New Roman,serif" font-size="14.00">(None, 64)</text>
<polyline fill="none" stroke="black" points="189,-23.5 266,-23.5 "/>
<text text-anchor="middle" x="227.5" y="-8.3" font-family="Times New Roman,serif" font-size="14.00">(None, 52)</text>
</g>
<!-- 1233211061304&#45;&gt;1233211061416 -->
<g id="edge2" class="edge">
<title>1233211061304&#45;&gt;1233211061416</title>
<path fill="none" stroke="black" d="M151,-83.37C151,-75.15 151,-65.66 151,-56.73"/>
<polygon fill="black" stroke="black" points="154.5,-56.61 151,-46.61 147.5,-56.61 154.5,-56.61"/>
</g>
</g>
</svg>
