<?xml version="1.0" encoding="utf-8" standalone="no"?>
<!DOCTYPE svg PUBLIC "-//W3C//DTD SVG 1.1//EN"
  "http://www.w3.org/Graphics/SVG/1.1/DTD/svg11.dtd">
<!-- Created with matplotlib (http://matplotlib.org/) -->
<svg height="432pt" version="1.1" viewBox="0 0 648 432" width="648pt" xmlns="http://www.w3.org/2000/svg" xmlns:xlink="http://www.w3.org/1999/xlink">
 <defs>
  <style type="text/css">
*{stroke-linecap:butt;stroke-linejoin:round;}
  </style>
 </defs>
 <g id="figure_1">
  <g id="patch_1">
   <path d="M 0 432 
L 648 432 
L 648 0 
L 0 0 
z
" style="fill:#ffffff;"/>
  </g>
  <g id="axes_1">
   <g id="patch_2">
    <path d="M 81 378 
L 583.2 378 
L 583.2 51.84 
L 81 51.84 
z
" style="fill:#ffffff;"/>
   </g>
   <g id="matplotlib.axis_1">
    <g id="xtick_1">
     <g id="line2d_1">
      <defs>
       <path d="M 0 0 
L 0 3.5 
" id="m09a51cba17" style="stroke:#000000;stroke-width:0.8;"/>
      </defs>
      <g>
       <use style="stroke:#000000;stroke-width:0.8;" x="103.827273" xlink:href="#m09a51cba17" y="378"/>
      </g>
     </g>
     <g id="text_1">
      <!-- 00:00 -->
      <defs>
       <path d="M 3.125 29.296875 
Q 3.90625 50 6.4375 56.046875 
Q 8.984375 62.109375 13.671875 66.015625 
Q 18.359375 69.921875 25.1875 69.921875 
Q 32.03125 69.921875 37.109375 64.25 
Q 42.1875 58.59375 43.75 50 
Q 45.3125 41.40625 44.71875 30.265625 
Q 44.140625 19.140625 40.8125 12.109375 
Q 37.5 5.078125 30.859375 2.34375 
Q 24.21875 -0.390625 17.578125 2.921875 
Q 10.9375 6.25 8.203125 11.71875 
Q 5.46875 17.1875 4.296875 23.234375 
Q 3.125 29.296875 3.90625 50 
z
M 12.890625 52.734375 
Q 10.546875 31.25 12.5 22.84375 
Q 14.453125 14.453125 18.9375 10.9375 
Q 23.4375 7.421875 28.125 9.5625 
Q 32.8125 11.71875 34.953125 18.15625 
Q 37.109375 24.609375 37.109375 32.21875 
Q 37.109375 39.84375 36.515625 46.09375 
Q 35.9375 52.34375 33 57.421875 
Q 30.078125 62.5 25.1875 62.6875 
Q 20.3125 62.890625 16.59375 57.8125 
Q 12.890625 52.734375 10.546875 31.25 
z
" id="SimHei-30"/>
       <path d="M 28.515625 37.890625 
L 19.53125 37.890625 
L 19.53125 46.484375 
L 28.515625 46.484375 
z
M 28.515625 1.953125 
L 19.53125 1.953125 
L 19.53125 10.546875 
L 28.515625 10.546875 
z
" id="SimHei-3a"/>
      </defs>
      <g transform="translate(87.577273 393.9375)scale(0.13 -0.13)">
       <use xlink:href="#SimHei-30"/>
       <use x="50" xlink:href="#SimHei-30"/>
       <use x="100" xlink:href="#SimHei-3a"/>
       <use x="150" xlink:href="#SimHei-30"/>
       <use x="200" xlink:href="#SimHei-30"/>
      </g>
     </g>
    </g>
    <g id="xtick_2">
     <g id="line2d_2">
      <g>
       <use style="stroke:#000000;stroke-width:0.8;" x="183.364808" xlink:href="#m09a51cba17" y="378"/>
      </g>
     </g>
     <g id="text_2">
      <!-- 04:00 -->
      <defs>
       <path d="M 31.25 17.1875 
L 1.171875 17.1875 
L 1.171875 23.828125 
L 32.8125 69.53125 
L 38.671875 69.53125 
L 38.671875 23.828125 
L 48.046875 23.828125 
L 48.046875 17.1875 
L 38.671875 17.1875 
L 38.671875 2.34375 
L 31.25 2.34375 
z
M 31.25 23.828125 
L 31.25 54.6875 
L 9.375 23.828125 
z
" id="SimHei-34"/>
      </defs>
      <g transform="translate(167.114808 393.9375)scale(0.13 -0.13)">
       <use xlink:href="#SimHei-30"/>
       <use x="50" xlink:href="#SimHei-34"/>
       <use x="100" xlink:href="#SimHei-3a"/>
       <use x="150" xlink:href="#SimHei-30"/>
       <use x="200" xlink:href="#SimHei-30"/>
      </g>
     </g>
    </g>
    <g id="xtick_3">
     <g id="line2d_3">
      <g>
       <use style="stroke:#000000;stroke-width:0.8;" x="262.902344" xlink:href="#m09a51cba17" y="378"/>
      </g>
     </g>
     <g id="text_3">
      <!-- 8:00 -->
      <defs>
       <path d="M 2.734375 16.796875 
Q 2.734375 26.171875 5.078125 30.65625 
Q 7.421875 35.15625 12.890625 37.890625 
Q 8.203125 40.625 6.640625 43.9375 
Q 5.078125 47.265625 4.875 51.5625 
Q 4.6875 55.859375 6.046875 58.984375 
Q 7.421875 62.109375 10.15625 64.84375 
Q 12.890625 67.578125 16.203125 68.546875 
Q 19.53125 69.53125 23.4375 69.53125 
Q 27.34375 69.53125 30.46875 68.75 
Q 33.59375 67.96875 37.109375 65.421875 
Q 40.625 62.890625 42.1875 58.203125 
Q 43.75 53.515625 41.984375 47.265625 
Q 40.234375 41.015625 32.8125 37.5 
Q 39.453125 35.546875 42.1875 31.4375 
Q 44.921875 27.34375 44.921875 21.484375 
Q 44.921875 15.625 43.15625 12.109375 
Q 41.40625 8.59375 39.25 6.25 
Q 37.109375 3.90625 33.390625 2.53125 
Q 29.6875 1.171875 24.015625 1.171875 
Q 18.359375 1.171875 14.25 2.53125 
Q 10.15625 3.90625 7.421875 6.640625 
Q 4.6875 9.375 3.703125 13.078125 
Q 2.734375 16.796875 2.734375 26.171875 
z
M 10.9375 26.5625 
Q 10.546875 17.1875 12.296875 13.671875 
Q 14.0625 10.15625 18.75 9.171875 
Q 23.4375 8.203125 28.515625 9.375 
Q 33.59375 10.546875 35.546875 14.84375 
Q 37.5 19.140625 36.90625 23.4375 
Q 36.328125 27.734375 32.03125 30.65625 
Q 27.734375 33.59375 22.65625 33.203125 
Q 17.578125 32.8125 14.25 29.6875 
Q 10.9375 26.5625 10.546875 17.1875 
z
M 12.109375 56.25 
Q 12.109375 48.4375 14.84375 44.921875 
Q 17.578125 41.40625 23.4375 41.40625 
Q 29.296875 41.40625 32.21875 44.921875 
Q 35.15625 48.4375 34.953125 53.3125 
Q 34.765625 58.203125 31.4375 60.546875 
Q 28.125 62.890625 22.453125 62.5 
Q 16.796875 62.109375 14.453125 59.171875 
Q 12.109375 56.25 12.109375 48.4375 
z
" id="SimHei-38"/>
      </defs>
      <g transform="translate(249.902344 393.9375)scale(0.13 -0.13)">
       <use xlink:href="#SimHei-38"/>
       <use x="50" xlink:href="#SimHei-3a"/>
       <use x="100" xlink:href="#SimHei-30"/>
       <use x="150" xlink:href="#SimHei-30"/>
      </g>
     </g>
    </g>
    <g id="xtick_4">
     <g id="line2d_4">
      <g>
       <use style="stroke:#000000;stroke-width:0.8;" x="342.43988" xlink:href="#m09a51cba17" y="378"/>
      </g>
     </g>
     <g id="text_4">
      <!-- 12:00 -->
      <defs>
       <path d="M 21.875 56.25 
Q 16.796875 51.171875 8.984375 46.484375 
L 8.984375 53.90625 
Q 18.75 60.546875 25 69.53125 
L 29.6875 69.53125 
L 29.6875 2.34375 
L 21.875 2.34375 
z
" id="SimHei-31"/>
       <path d="M 4.6875 3.90625 
Q 5.078125 9.765625 10.15625 14.453125 
Q 15.234375 19.140625 23.046875 29.09375 
Q 30.859375 39.0625 33.203125 44.53125 
Q 35.546875 50 34.953125 53.90625 
Q 34.375 57.8125 31.25 60.34375 
Q 28.125 62.890625 24.015625 62.5 
Q 19.921875 62.109375 16.203125 59.375 
Q 12.5 56.640625 10.546875 51.171875 
L 3.125 52.34375 
Q 6.25 61.328125 11.125 65.421875 
Q 16.015625 69.53125 22.65625 69.921875 
Q 26.5625 70.3125 29.6875 69.71875 
Q 32.8125 69.140625 36.125 66.984375 
Q 39.453125 64.84375 41.59375 60.546875 
Q 43.75 56.25 43.15625 50.1875 
Q 42.578125 44.140625 37.109375 35.734375 
Q 31.640625 27.34375 16.015625 9.375 
L 44.140625 9.375 
L 44.140625 2.34375 
L 4.6875 2.34375 
z
" id="SimHei-32"/>
      </defs>
      <g transform="translate(326.18988 393.9375)scale(0.13 -0.13)">
       <use xlink:href="#SimHei-31"/>
       <use x="50" xlink:href="#SimHei-32"/>
       <use x="100" xlink:href="#SimHei-3a"/>
       <use x="150" xlink:href="#SimHei-30"/>
       <use x="200" xlink:href="#SimHei-30"/>
      </g>
     </g>
    </g>
    <g id="xtick_5">
     <g id="line2d_5">
      <g>
       <use style="stroke:#000000;stroke-width:0.8;" x="421.977415" xlink:href="#m09a51cba17" y="378"/>
      </g>
     </g>
     <g id="text_5">
      <!-- 16:00 -->
      <defs>
       <path d="M 3.515625 19.53125 
Q 4.296875 30.859375 6.046875 34.765625 
Q 7.8125 38.671875 11.328125 44.53125 
L 27.34375 69.53125 
L 36.328125 69.53125 
L 19.921875 43.75 
Q 30.46875 46.484375 36.71875 42.96875 
Q 42.96875 39.453125 45.109375 34.953125 
Q 47.265625 30.46875 47.453125 25.1875 
Q 47.65625 19.921875 45.890625 14.84375 
Q 44.140625 9.765625 39.640625 5.65625 
Q 35.15625 1.5625 27.140625 1.171875 
Q 19.140625 0.78125 13.46875 4.09375 
Q 7.8125 7.421875 5.65625 13.46875 
Q 3.515625 19.53125 4.296875 30.859375 
z
M 12.5 16.015625 
Q 19.53125 8.59375 25.390625 8.203125 
Q 31.25 7.8125 35.15625 12.109375 
Q 39.0625 16.40625 39.0625 24.609375 
Q 39.0625 32.8125 34.171875 35.9375 
Q 29.296875 39.0625 23.234375 38.28125 
Q 17.1875 37.5 14.453125 32.421875 
Q 11.71875 27.34375 12.109375 21.671875 
Q 12.5 16.015625 19.53125 8.59375 
z
" id="SimHei-36"/>
      </defs>
      <g transform="translate(405.727415 393.9375)scale(0.13 -0.13)">
       <use xlink:href="#SimHei-31"/>
       <use x="50" xlink:href="#SimHei-36"/>
       <use x="100" xlink:href="#SimHei-3a"/>
       <use x="150" xlink:href="#SimHei-30"/>
       <use x="200" xlink:href="#SimHei-30"/>
      </g>
     </g>
    </g>
    <g id="xtick_6">
     <g id="line2d_6">
      <g>
       <use style="stroke:#000000;stroke-width:0.8;" x="501.514951" xlink:href="#m09a51cba17" y="378"/>
      </g>
     </g>
     <g id="text_6">
      <!-- 20:00 -->
      <g transform="translate(485.264951 393.9375)scale(0.13 -0.13)">
       <use xlink:href="#SimHei-32"/>
       <use x="50" xlink:href="#SimHei-30"/>
       <use x="100" xlink:href="#SimHei-3a"/>
       <use x="150" xlink:href="#SimHei-30"/>
       <use x="200" xlink:href="#SimHei-30"/>
      </g>
     </g>
    </g>
    <g id="xtick_7">
     <g id="line2d_7">
      <g>
       <use style="stroke:#000000;stroke-width:0.8;" x="581.052487" xlink:href="#m09a51cba17" y="378"/>
      </g>
     </g>
    </g>
    <g id="text_7">
     <!-- 时刻 -->
     <defs>
      <path d="M 39.453125 71.484375 
Q 39.0625 57.421875 39.0625 37.5 
Q 39.0625 17.578125 39.453125 6.25 
L 31.25 6.25 
L 31.25 13.671875 
L 15.625 13.671875 
L 15.625 0.78125 
L 7.421875 0.78125 
Q 7.8125 18.75 7.8125 36.71875 
Q 7.8125 55.078125 7.421875 71.484375 
L 39.453125 71.484375 
z
M 76.171875 59.765625 
Q 76.171875 71.484375 75.78125 81.640625 
L 84.375 81.640625 
Q 83.984375 71.484375 83.984375 59.765625 
Q 89.84375 59.765625 96.484375 60.15625 
L 96.484375 52.734375 
Q 89.84375 53.125 83.984375 53.125 
L 83.984375 0.78125 
Q 83.984375 -5.078125 79.296875 -6.640625 
Q 74.609375 -8.203125 67.1875 -8.984375 
Q 67.1875 -4.296875 62.890625 0 
Q 70.3125 -0.78125 73.234375 -0.390625 
Q 76.171875 0 76.171875 4.6875 
L 76.171875 53.125 
Q 56.640625 53.125 43.359375 52.734375 
L 43.359375 60.15625 
Q 55.859375 59.765625 76.171875 59.765625 
z
M 31.25 20.3125 
L 31.25 39.84375 
L 15.625 39.84375 
L 15.625 20.3125 
z
M 31.25 46.484375 
L 31.25 64.84375 
L 15.625 64.84375 
L 15.625 46.484375 
z
M 55.46875 42.578125 
Q 60.546875 34.375 65.234375 25 
Q 61.328125 23.828125 57.03125 21.484375 
Q 53.90625 30.859375 48.046875 39.0625 
Q 51.5625 40.625 55.46875 42.578125 
z
" id="SimHei-65f6"/>
      <path d="M 45.3125 66.40625 
Q 52.34375 66.40625 58.984375 67.1875 
L 58.984375 59.375 
Q 53.515625 59.765625 45.3125 59.765625 
L 27.34375 59.765625 
Q 30.078125 57.421875 33.984375 55.46875 
Q 30.078125 53.90625 26.359375 49.40625 
Q 22.65625 44.921875 17.578125 40.625 
Q 23.046875 41.015625 26.953125 41.203125 
Q 30.859375 41.40625 35.9375 41.796875 
Q 38.28125 43.75 40.03125 46.28125 
Q 41.796875 48.828125 43.75 52.734375 
Q 47.265625 50 51.953125 47.265625 
Q 48.828125 44.921875 44.921875 40.234375 
Q 41.015625 35.546875 35.734375 30.265625 
Q 30.46875 25 24.40625 19.71875 
Q 18.359375 14.453125 10.15625 8.984375 
Q 7.8125 13.28125 4.296875 16.015625 
Q 11.71875 19.140625 18.546875 24.40625 
Q 25.390625 29.6875 32.03125 35.9375 
Q 22.65625 34.765625 17.96875 33.78125 
Q 13.28125 32.8125 10.9375 31.640625 
Q 8.984375 36.328125 6.25 39.84375 
Q 12.5 43.75 16.984375 49.21875 
Q 21.484375 54.6875 23.828125 59.765625 
L 17.1875 59.765625 
Q 10.15625 59.765625 3.515625 59.375 
L 3.515625 67.1875 
Q 10.15625 66.40625 16.796875 66.40625 
z
M 94.921875 79.6875 
Q 94.140625 74.21875 94.140625 66.40625 
L 94.140625 1.5625 
Q 94.140625 -4.296875 91.203125 -6.046875 
Q 88.28125 -7.8125 77.734375 -9.375 
Q 76.5625 -3.125 74.21875 0.390625 
Q 82.03125 0 83.984375 0.390625 
Q 85.9375 0.78125 85.9375 4.6875 
L 85.9375 66.40625 
Q 85.9375 72.265625 85.546875 79.6875 
L 94.921875 79.6875 
z
M 58.984375 30.46875 
Q 57.03125 28.90625 53.703125 25.1875 
Q 50.390625 21.484375 45.3125 16.015625 
Q 49.609375 13.28125 53.703125 9.765625 
Q 57.8125 6.25 62.5 2.34375 
Q 60.15625 0 55.078125 -3.90625 
Q 51.953125 0 48.625 3.703125 
Q 45.3125 7.421875 40.625 10.9375 
Q 32.03125 3.90625 25.578125 -0.1875 
Q 19.140625 -4.296875 10.546875 -10.15625 
Q 8.59375 -5.078125 5.078125 -2.734375 
Q 15.234375 1.5625 22.84375 6.828125 
Q 30.46875 12.109375 36.125 17.375 
Q 41.796875 22.65625 44.921875 26.953125 
Q 48.046875 31.25 50.390625 35.9375 
L 58.984375 30.46875 
z
M 74.609375 65.625 
Q 74.21875 60.15625 74.21875 53.90625 
L 74.21875 25 
Q 74.21875 18.75 75 12.109375 
L 65.234375 12.109375 
Q 66.015625 17.578125 66.015625 25 
L 66.015625 55.078125 
Q 66.015625 60.546875 65.625 65.625 
L 74.609375 65.625 
z
M 33.203125 82.8125 
Q 34.765625 79.6875 36.125 76.75 
Q 37.5 73.828125 39.0625 70.3125 
Q 35.15625 69.140625 30.46875 67.1875 
Q 29.296875 71.09375 27.921875 73.828125 
Q 26.5625 76.5625 25 79.296875 
Q 29.6875 80.859375 33.203125 82.8125 
z
" id="SimHei-523b"/>
     </defs>
     <g transform="translate(318.1 410.828125)scale(0.14 -0.14)">
      <use xlink:href="#SimHei-65f6"/>
      <use x="100" xlink:href="#SimHei-523b"/>
     </g>
    </g>
   </g>
   <g id="matplotlib.axis_2">
    <g id="ytick_1">
     <g id="line2d_8">
      <defs>
       <path d="M 0 0 
L -3.5 0 
" id="m6b829949e6" style="stroke:#000000;stroke-width:0.8;"/>
      </defs>
      <g>
       <use style="stroke:#000000;stroke-width:0.8;" x="81" xlink:href="#m6b829949e6" y="360.980052"/>
      </g>
     </g>
     <g id="text_8">
      <!-- 0.0 -->
      <defs>
       <path d="M 16.796875 1.953125 
L 7.8125 1.953125 
L 7.8125 10.546875 
L 16.796875 10.546875 
z
" id="SimHei-2e"/>
      </defs>
      <g transform="translate(59 364.417552)scale(0.1 -0.1)">
       <use xlink:href="#SimHei-30"/>
       <use x="50" xlink:href="#SimHei-2e"/>
       <use x="100" xlink:href="#SimHei-30"/>
      </g>
     </g>
    </g>
    <g id="ytick_2">
     <g id="line2d_9">
      <g>
       <use style="stroke:#000000;stroke-width:0.8;" x="81" xlink:href="#m6b829949e6" y="305.745665"/>
      </g>
     </g>
     <g id="text_9">
      <!-- 0.5 -->
      <defs>
       <path d="M 8.59375 20.703125 
Q 11.328125 10.15625 17.96875 8.984375 
Q 24.609375 7.8125 28.703125 10.34375 
Q 32.8125 12.890625 34.5625 16.984375 
Q 36.328125 21.09375 36.125 26.171875 
Q 35.9375 31.25 33.390625 34.765625 
Q 30.859375 38.28125 26.953125 39.453125 
Q 23.046875 40.625 18.15625 39.453125 
Q 13.28125 38.28125 10.15625 33.984375 
L 3.515625 34.765625 
Q 4.296875 37.109375 10.9375 68.359375 
L 41.796875 68.359375 
L 41.796875 61.328125 
L 16.796875 61.328125 
Q 14.84375 50.78125 12.890625 44.53125 
Q 18.75 47.265625 23.828125 47.0625 
Q 28.90625 46.875 33.59375 44.71875 
Q 38.28125 42.578125 40.421875 38.859375 
Q 42.578125 35.15625 43.546875 31.4375 
Q 44.53125 27.734375 44.328125 23.4375 
Q 44.140625 19.140625 42.578125 14.640625 
Q 41.015625 10.15625 37.890625 7.21875 
Q 34.765625 4.296875 30.265625 2.53125 
Q 25.78125 0.78125 19.921875 1.171875 
Q 14.0625 1.5625 8.78125 5.46875 
Q 3.515625 9.375 1.5625 18.75 
z
" id="SimHei-35"/>
      </defs>
      <g transform="translate(59 309.183165)scale(0.1 -0.1)">
       <use xlink:href="#SimHei-30"/>
       <use x="50" xlink:href="#SimHei-2e"/>
       <use x="100" xlink:href="#SimHei-35"/>
      </g>
     </g>
    </g>
    <g id="ytick_3">
     <g id="line2d_10">
      <g>
       <use style="stroke:#000000;stroke-width:0.8;" x="81" xlink:href="#m6b829949e6" y="250.511278"/>
      </g>
     </g>
     <g id="text_10">
      <!-- 1.0 -->
      <g transform="translate(59 253.948778)scale(0.1 -0.1)">
       <use xlink:href="#SimHei-31"/>
       <use x="50" xlink:href="#SimHei-2e"/>
       <use x="100" xlink:href="#SimHei-30"/>
      </g>
     </g>
    </g>
    <g id="ytick_4">
     <g id="line2d_11">
      <g>
       <use style="stroke:#000000;stroke-width:0.8;" x="81" xlink:href="#m6b829949e6" y="195.276891"/>
      </g>
     </g>
     <g id="text_11">
      <!-- 1.5 -->
      <g transform="translate(59 198.714391)scale(0.1 -0.1)">
       <use xlink:href="#SimHei-31"/>
       <use x="50" xlink:href="#SimHei-2e"/>
       <use x="100" xlink:href="#SimHei-35"/>
      </g>
     </g>
    </g>
    <g id="ytick_5">
     <g id="line2d_12">
      <g>
       <use style="stroke:#000000;stroke-width:0.8;" x="81" xlink:href="#m6b829949e6" y="140.042504"/>
      </g>
     </g>
     <g id="text_12">
      <!-- 2.0 -->
      <g transform="translate(59 143.480004)scale(0.1 -0.1)">
       <use xlink:href="#SimHei-32"/>
       <use x="50" xlink:href="#SimHei-2e"/>
       <use x="100" xlink:href="#SimHei-30"/>
      </g>
     </g>
    </g>
    <g id="ytick_6">
     <g id="line2d_13">
      <g>
       <use style="stroke:#000000;stroke-width:0.8;" x="81" xlink:href="#m6b829949e6" y="84.808117"/>
      </g>
     </g>
     <g id="text_13">
      <!-- 2.5 -->
      <g transform="translate(59 88.245617)scale(0.1 -0.1)">
       <use xlink:href="#SimHei-32"/>
       <use x="50" xlink:href="#SimHei-2e"/>
       <use x="100" xlink:href="#SimHei-35"/>
      </g>
     </g>
    </g>
    <g id="text_14">
     <!-- 功率(kW) -->
     <defs>
      <path d="M 88.671875 4.296875 
Q 87.109375 -3.125 81.640625 -4.875 
Q 76.171875 -6.640625 69.53125 -7.421875 
Q 68.75 -2.734375 65.625 1.5625 
Q 73.828125 1.171875 77.140625 2.140625 
Q 80.46875 3.125 80.859375 6.640625 
Q 82.8125 27.734375 83.984375 51.171875 
L 66.40625 51.171875 
Q 66.015625 39.84375 64.453125 30.078125 
Q 62.890625 20.3125 59.171875 13.28125 
Q 55.46875 6.25 50.78125 0.78125 
Q 46.09375 -4.6875 39.84375 -10.15625 
Q 37.109375 -6.25 32.8125 -3.90625 
Q 41.40625 1.5625 45.703125 6.640625 
Q 50 11.71875 53.125 18.15625 
Q 56.25 24.609375 57.421875 32.421875 
Q 58.59375 40.234375 58.984375 51.171875 
L 53.125 51.171875 
Q 48.4375 51.171875 43.75 50.78125 
L 43.75 58.203125 
Q 48.828125 57.8125 53.90625 57.8125 
L 58.984375 57.8125 
L 58.984375 71.484375 
Q 58.984375 76.171875 58.59375 80.859375 
Q 63.671875 79.6875 67.578125 79.296875 
Q 66.796875 76.5625 66.59375 70.703125 
Q 66.40625 64.84375 66.40625 57.8125 
L 92.1875 57.8125 
Q 91.796875 52.34375 91.40625 47.453125 
Q 91.015625 42.578125 88.671875 4.296875 
z
M 45.3125 15.625 
Q 38.671875 14.0625 34.375 13.078125 
Q 30.078125 12.109375 20.890625 9.375 
Q 11.71875 6.640625 7.8125 5.46875 
Q 6.25 10.9375 4.6875 14.0625 
Q 7.03125 14.0625 21.484375 17.1875 
L 21.484375 60.9375 
L 18.359375 60.9375 
Q 13.671875 60.9375 7.03125 60.546875 
L 7.03125 67.96875 
Q 13.28125 67.578125 18.359375 67.578125 
L 32.8125 67.578125 
Q 38.28125 67.578125 42.578125 67.96875 
L 42.578125 60.546875 
Q 37.890625 60.9375 33.203125 60.9375 
L 29.296875 60.9375 
L 29.296875 18.75 
L 37.109375 20.703125 
Q 40.234375 21.484375 44.53125 22.65625 
z
" id="SimHei-529f"/>
      <path d="M 51.953125 80.46875 
Q 53.515625 76.5625 55.46875 70.703125 
L 75 70.703125 
Q 82.03125 70.703125 90.625 71.09375 
L 90.625 64.453125 
Q 82.03125 65.234375 74.609375 65.234375 
L 43.75 65.234375 
Q 46.484375 63.28125 51.5625 60.9375 
Q 48.046875 58.59375 44.921875 55.265625 
Q 41.796875 51.953125 38.671875 48.828125 
L 51.171875 48.828125 
Q 55.859375 53.515625 58.984375 58.984375 
Q 62.5 56.25 66.796875 53.515625 
Q 61.71875 50.78125 56.25 44.921875 
Q 50.78125 39.0625 41.015625 31.25 
L 60.15625 32.8125 
Q 58.203125 35.15625 56.25 37.890625 
Q 58.59375 38.671875 62.5 41.40625 
Q 66.40625 36.71875 73.4375 26.5625 
Q 69.921875 25.390625 66.015625 22.65625 
Q 65.234375 25 62.890625 27.734375 
Q 57.8125 27.34375 53.515625 27.34375 
L 53.515625 16.40625 
L 80.46875 16.40625 
Q 88.671875 16.40625 95.3125 16.796875 
L 95.3125 10.15625 
Q 89.0625 10.546875 80.078125 10.546875 
L 53.515625 10.546875 
L 53.515625 2.734375 
Q 53.515625 -4.6875 53.90625 -9.765625 
L 45.3125 -9.765625 
Q 45.703125 -4.6875 45.703125 2.734375 
L 45.703125 10.546875 
L 20.703125 10.546875 
Q 12.890625 10.546875 5.078125 10.15625 
L 5.078125 16.796875 
Q 12.890625 16.40625 21.09375 16.40625 
L 45.703125 16.40625 
L 45.703125 26.5625 
Q 42.1875 26.171875 38.671875 25.578125 
Q 35.15625 25 31.640625 23.828125 
Q 30.46875 27.734375 28.90625 31.25 
Q 32.421875 31.640625 36.328125 34.375 
Q 40.234375 37.109375 46.484375 43.75 
Q 35.9375 42.578125 31.640625 41.015625 
Q 30.859375 44.921875 28.90625 49.609375 
Q 32.421875 49.609375 36.328125 54.484375 
Q 40.234375 59.375 42.96875 65.234375 
L 26.5625 65.234375 
Q 17.96875 65.234375 10.15625 64.453125 
L 10.15625 71.09375 
Q 17.96875 70.703125 24.21875 70.703125 
L 46.484375 70.703125 
Q 45.3125 75.390625 43.75 78.515625 
Q 47.265625 79.296875 51.953125 80.46875 
z
M 25.390625 40.234375 
Q 26.953125 37.5 28.515625 34.375 
Q 24.609375 32.03125 20.703125 29.09375 
Q 16.796875 26.171875 12.5 22.265625 
Q 9.765625 26.171875 7.421875 29.296875 
Q 12.5 31.640625 17.1875 34.5625 
Q 21.875 37.5 25.390625 40.234375 
z
M 75.78125 41.40625 
Q 80.078125 38.671875 83.390625 36.515625 
Q 86.71875 34.375 91.796875 30.46875 
Q 88.671875 28.125 85.9375 25 
Q 82.8125 27.734375 79.09375 30.859375 
Q 75.390625 33.984375 71.484375 36.328125 
Q 73.828125 38.671875 75.78125 41.40625 
z
M 89.453125 55.078125 
Q 86.71875 53.90625 82.8125 50.96875 
Q 78.90625 48.046875 75 44.140625 
Q 72.265625 47.65625 69.921875 49.609375 
Q 73.4375 51.953125 76.171875 54.484375 
Q 78.90625 57.03125 82.8125 61.328125 
Q 86.328125 57.8125 89.453125 55.078125 
z
M 16.40625 60.15625 
Q 22.265625 56.25 27.734375 51.171875 
Q 24.609375 48.4375 22.265625 45.703125 
Q 16.796875 51.5625 10.546875 55.078125 
Q 13.671875 57.8125 16.40625 60.15625 
z
" id="SimHei-7387"/>
      <path d="M 46.484375 -3.125 
L 42.1875 -7.421875 
Q 32.421875 1.953125 27.53125 12.109375 
Q 22.65625 22.265625 22.65625 35.15625 
Q 22.65625 48.046875 27.53125 58.203125 
Q 32.421875 68.359375 42.1875 78.125 
L 46.484375 73.828125 
Q 37.5 65.234375 33 56.046875 
Q 28.515625 46.875 28.515625 35.15625 
Q 28.515625 23.4375 33 14.25 
Q 37.5 5.078125 46.484375 -3.125 
z
" id="SimHei-28"/>
      <path d="M 45.703125 1.953125 
L 36.71875 1.953125 
L 22.65625 25.78125 
L 13.671875 17.1875 
L 13.671875 1.953125 
L 5.859375 1.953125 
L 5.859375 68.75 
L 13.671875 68.75 
L 13.671875 26.171875 
L 33.203125 45.703125 
L 42.96875 45.703125 
L 27.734375 30.859375 
z
" id="SimHei-6b"/>
      <path d="M 48.046875 68.75 
L 39.453125 1.171875 
L 31.640625 1.171875 
L 24.609375 51.171875 
L 23.828125 51.171875 
L 16.796875 1.171875 
L 8.984375 1.171875 
L 0.390625 68.75 
L 8.984375 68.75 
L 13.28125 26.171875 
L 14.0625 26.171875 
L 19.921875 68.75 
L 28.515625 68.75 
L 34.375 26.171875 
L 35.15625 26.171875 
L 39.453125 68.75 
z
" id="SimHei-57"/>
      <path d="M 26.171875 35.15625 
Q 26.171875 22.265625 21.28125 12.109375 
Q 16.40625 1.953125 6.640625 -7.421875 
L 2.34375 -3.125 
Q 11.328125 5.078125 15.8125 14.25 
Q 20.3125 23.4375 20.3125 35.15625 
Q 20.3125 46.875 15.8125 56.046875 
Q 11.328125 65.234375 2.34375 73.828125 
L 6.640625 78.125 
Q 16.40625 68.359375 21.28125 58.203125 
Q 26.171875 48.046875 26.171875 35.15625 
z
" id="SimHei-29"/>
     </defs>
     <g transform="translate(53.25 242.92)rotate(-90)scale(0.14 -0.14)">
      <use xlink:href="#SimHei-529f"/>
      <use x="100" xlink:href="#SimHei-7387"/>
      <use x="200" xlink:href="#SimHei-28"/>
      <use x="250" xlink:href="#SimHei-6b"/>
      <use x="300" xlink:href="#SimHei-57"/>
      <use x="350" xlink:href="#SimHei-29"/>
     </g>
    </g>
   </g>
   <g id="line2d_14">
    <path clip-path="url(#pcd22a7d400)" d="M 103.827273 360.906406 
L 111.781026 360.921135 
L 118.144029 360.943229 
L 121.325531 360.950593 
L 124.507032 360.884312 
L 134.051536 360.980052 
L 137.233038 360.932182 
L 140.414539 360.921135 
L 145.186791 360.913771 
L 159.503548 360.950593 
L 167.457301 360.921135 
L 172.229553 360.950593 
L 177.001806 360.921135 
L 180.183307 360.957958 
L 221.542825 361.002146 
L 223.133576 353.265647 
L 224.724327 353.748028 
L 226.315078 356.196755 
L 227.905828 354.432937 
L 231.08733 346.423948 
L 232.67808 336.393384 
L 235.859582 306.161768 
L 237.450333 318.560043 
L 239.041083 327.11769 
L 240.631834 323.601105 
L 242.222585 303.930276 
L 243.813335 304.165961 
L 245.404086 287.72084 
L 246.994837 289.086974 
L 248.585588 275.757068 
L 250.176338 250.78376 
L 251.767089 255.931616 
L 253.35784 294.286363 
L 254.94859 298.885554 
L 256.539341 308.459518 
L 258.130092 263.708618 
L 259.720843 194.234784 
L 261.311593 223.251263 
L 262.902344 259.278804 
L 264.493095 276.320467 
L 266.083845 291.104859 
L 267.674596 281.247369 
L 269.265347 309.25121 
L 270.856098 286.686112 
L 272.446848 227.11767 
L 274.037599 257.850094 
L 275.62835 260.851155 
L 277.2191 256.126775 
L 278.809851 215.220194 
L 280.400602 281.265785 
L 281.991353 274.519821 
L 283.582103 257.334558 
L 285.172854 290.858153 
L 286.763605 278.621902 
L 288.354355 314.07133 
L 289.945106 315.032406 
L 291.535857 288.549355 
L 293.126608 288.136937 
L 294.717358 336.964146 
L 296.308109 314.483739 
L 297.89886 315.374863 
L 299.48961 275.156861 
L 301.080361 225.711027 
L 302.671112 216.553188 
L 304.261863 275.053761 
L 305.852613 275.900675 
L 307.443364 226.171328 
L 309.034115 251.722756 
L 310.624865 259.488711 
L 312.215616 270.561349 
L 313.806367 260.829061 
L 315.397118 153.913681 
L 316.987868 260.309852 
L 318.578619 269.62236 
L 320.16937 245.864232 
L 321.76012 260.276718 
L 323.350871 318.744157 
L 324.941622 333.99621 
L 326.532373 313.231766 
L 328.123123 255.416096 
L 329.713874 305.314844 
L 331.304625 290.880258 
L 332.895375 294.396832 
L 334.486126 252.267727 
L 336.076877 297.294797 
L 337.667627 256.715939 
L 339.258378 246.560174 
L 340.849129 185.607184 
L 342.43988 164.157826 
L 344.03063 232.733162 
L 345.621381 255.736462 
L 347.212132 331.742648 
L 348.802882 316.096589 
L 350.393633 227.843074 
L 351.984384 180.985921 
L 353.575135 217.378036 
L 355.165885 203.105437 
L 356.756636 196.009663 
L 358.347387 275.657656 
L 359.938137 266.146288 
L 361.528888 259.761188 
L 363.119639 247.764284 
L 364.71039 299.861369 
L 366.30114 331.591679 
L 367.891891 302.420566 
L 369.482642 303.002361 
L 371.073392 328.922008 
L 372.664143 321.984572 
L 374.254894 261.458739 
L 375.845645 217.333826 
L 377.436395 226.808369 
L 379.027146 237.126152 
L 380.617897 231.889921 
L 382.208647 228.99565 
L 383.799398 157.058363 
L 385.390149 156.432413 
L 386.9809 140.348127 
L 388.57165 110.403699 
L 390.162401 164.117339 
L 391.753152 139.711098 
L 393.343902 92.338409 
L 394.934653 66.665455 
L 396.525404 70.947953 
L 398.116155 144.251386 
L 399.706905 154.252467 
L 401.297656 198.841332 
L 402.888407 191.42891 
L 404.479157 147.668539 
L 406.069908 176.99063 
L 407.660659 251.461309 
L 409.25141 250.525992 
L 410.84216 262.471382 
L 412.432911 278.404643 
L 414.023662 283.651921 
L 415.614412 280.345215 
L 417.205163 288.022789 
L 418.795914 243.916292 
L 420.386665 254.223032 
L 421.977415 278.780237 
L 423.568166 274.803361 
L 425.158917 282.838131 
L 426.749667 297.103322 
L 428.340418 309.369036 
L 429.931169 322.588469 
L 431.52192 334.81368 
L 433.11267 341.49704 
L 434.703421 345.120415 
L 436.294172 350.894256 
L 437.884922 355.997911 
L 439.475673 358.225698 
L 441.066424 360.748067 
L 442.657175 361.083156 
L 444.247925 360.921135 
L 449.020177 360.943229 
L 452.201679 360.935864 
L 464.927685 360.913771 
L 471.290687 360.943229 
L 476.062939 360.950593 
L 482.425942 360.9285 
L 493.561197 360.9285 
L 560.372727 360.957958 
L 560.372727 360.957958 
" style="fill:none;stroke:#000000;stroke-linecap:square;stroke-width:1.5;"/>
   </g>
   <g id="line2d_15">
    <path clip-path="url(#pcd22a7d400)" d="M 103.827273 363.174545 
L 167.457301 363.073679 
L 178.592556 362.85858 
L 189.727811 362.289383 
L 196.090814 361.680677 
L 197.681565 361.493181 
L 205.635318 359.930875 
L 210.40757 358.728021 
L 211.998321 358.334582 
L 218.361324 356.157735 
L 224.724327 353.502651 
L 226.315078 352.761276 
L 231.08733 350.168779 
L 232.67808 349.103868 
L 234.268831 347.457455 
L 235.859582 345.359289 
L 237.450333 343.876663 
L 239.041083 338.194223 
L 240.631834 334.45192 
L 242.222585 317.197209 
L 243.813335 318.252891 
L 245.404086 325.689074 
L 246.994837 319.55351 
L 248.585588 304.383231 
L 250.176338 290.649245 
L 251.767089 259.381318 
L 253.35784 219.014366 
L 254.94859 194.13925 
L 256.539341 218.492014 
L 258.130092 238.424867 
L 259.720843 231.545612 
L 261.311593 202.20188 
L 262.902344 202.306163 
L 264.493095 185.845409 
L 266.083845 188.732654 
L 267.674596 175.482444 
L 269.265347 156.37022 
L 270.856098 162.560105 
L 272.446848 199.888123 
L 274.037599 206.670276 
L 275.62835 223.127814 
L 277.2191 176.71068 
L 278.809851 122.096001 
L 280.400602 147.654068 
L 281.991353 179.754382 
L 283.582103 196.783718 
L 285.172854 212.21625 
L 286.763605 205.046727 
L 288.354355 237.139397 
L 289.945106 213.441746 
L 291.535857 164.868041 
L 293.126608 191.652885 
L 294.717358 197.70621 
L 296.308109 194.75191 
L 297.89886 163.072239 
L 299.48961 221.581373 
L 301.080361 216.52461 
L 302.671112 204.162822 
L 304.261863 236.809151 
L 305.852613 226.872783 
L 307.443364 267.932817 
L 309.034115 267.535168 
L 310.624865 239.007689 
L 312.215616 244.383277 
L 313.806367 301.523464 
L 315.397118 274.697212 
L 316.987868 279.589686 
L 318.578619 236.118997 
L 320.16937 198.560829 
L 321.76012 194.34881 
L 323.350871 241.886925 
L 324.941622 244.38321 
L 326.532373 206.978395 
L 328.123123 229.297992 
L 329.713874 237.564349 
L 331.304625 247.676848 
L 332.895375 244.849344 
L 334.486126 179.174178 
L 336.076877 248.891132 
L 337.667627 257.292013 
L 339.258378 240.362898 
L 340.849129 252.365413 
L 342.43988 300.262536 
L 344.03063 313.700641 
L 345.621381 297.768218 
L 347.212132 254.021379 
L 348.802882 294.10209 
L 350.393633 284.586929 
L 351.984384 288.417533 
L 353.575135 259.092746 
L 355.165885 294.185947 
L 356.756636 265.351178 
L 358.347387 258.465715 
L 359.938137 220.537244 
L 361.528888 207.640921 
L 363.119639 252.238011 
L 364.71039 270.670565 
L 366.30114 326.038564 
L 367.891891 313.235505 
L 369.482642 253.237172 
L 371.073392 230.751309 
L 372.664143 252.091733 
L 374.254894 243.27026 
L 375.845645 240.042351 
L 377.436395 291.45169 
L 379.027146 286.321322 
L 380.617897 282.362474 
L 382.208647 276.669008 
L 383.799398 315.959499 
L 385.390149 336.05785 
L 386.9809 319.481757 
L 388.57165 321.433402 
L 390.162401 337.554935 
L 391.753152 334.260321 
L 393.343902 295.875018 
L 394.934653 268.145382 
L 396.525404 274.553477 
L 398.116155 282.117532 
L 399.706905 279.312851 
L 401.297656 279.033063 
L 402.888407 237.132924 
L 404.479157 238.99102 
L 406.069908 228.897212 
L 407.660659 205.824792 
L 409.25141 252.972511 
L 410.84216 234.822293 
L 412.432911 198.53351 
L 414.023662 177.863367 
L 415.614412 182.04134 
L 417.205163 236.684973 
L 418.795914 243.159062 
L 420.386665 272.687233 
L 421.977415 270.283946 
L 423.568166 248.565205 
L 425.158917 272.70251 
L 426.749667 317.954364 
L 428.340418 316.072812 
L 429.931169 322.249449 
L 431.52192 331.6435 
L 433.11267 336.740456 
L 434.703421 338.415843 
L 436.294172 342.675068 
L 437.884922 328.922607 
L 439.475673 334.37558 
L 441.066424 342.269714 
L 442.657175 341.563375 
L 444.247925 343.034656 
L 445.838676 347.471887 
L 447.429427 351.354259 
L 449.020177 353.971126 
L 450.610928 356.213183 
L 452.201679 357.217004 
L 453.79243 357.804996 
L 455.38318 358.583824 
L 456.973931 359.174671 
L 460.155432 359.755426 
L 469.699937 360.411006 
L 484.016693 360.88968 
L 487.198194 361.086675 
L 509.468704 361.680179 
L 560.372727 362.422051 
L 560.372727 362.422051 
" style="fill:none;stroke:#1f77b4;stroke-dasharray:5.55,2.4;stroke-dashoffset:0;stroke-width:1.5;"/>
   </g>
   <g id="line2d_16">
    <path clip-path="url(#pcd22a7d400)" d="M 103.827273 361.118116 
L 204.044568 360.985654 
L 208.81682 360.686502 
L 211.998321 360.306157 
L 215.179823 359.64736 
L 216.770573 359.165878 
L 218.361324 356.688019 
L 219.952075 355.149855 
L 221.542825 353.231553 
L 223.133576 350.732158 
L 224.724327 347.805714 
L 226.315078 344.337996 
L 229.496579 335.946756 
L 232.67808 326.512117 
L 234.268831 321.344367 
L 235.859582 317.018556 
L 237.450333 310.225265 
L 239.041083 311.331671 
L 240.631834 312.032075 
L 242.222585 304.876656 
L 246.994837 301.539036 
L 248.585588 301.346798 
L 250.176338 298.204039 
L 251.767089 289.629552 
L 254.94859 237.031182 
L 256.539341 257.813204 
L 258.130092 273.788739 
L 259.720843 268.97515 
L 261.311593 239.702704 
L 262.902344 233.160257 
L 264.493095 216.133705 
L 266.083845 219.84318 
L 267.674596 196.947135 
L 269.265347 169.242748 
L 270.856098 176.154083 
L 272.446848 223.827888 
L 274.037599 230.124133 
L 275.62835 239.035008 
L 277.2191 177.072852 
L 278.809851 110.469417 
L 280.400602 138.842636 
L 281.991353 177.986827 
L 283.582103 199.081402 
L 285.172854 215.605874 
L 286.763605 201.844978 
L 288.354355 235.901064 
L 289.945106 207.934226 
L 291.535857 145.878249 
L 293.126608 179.755664 
L 294.717358 181.889037 
L 296.308109 176.081837 
L 297.89886 134.962675 
L 299.48961 198.325122 
L 301.080361 187.954093 
L 302.671112 174.212053 
L 304.261863 212.964345 
L 305.852613 200.963525 
L 307.443364 242.74846 
L 309.034115 245.09179 
L 310.624865 214.461771 
L 312.215616 213.16722 
L 313.806367 277.088397 
L 315.397118 249.895569 
L 316.987868 252.134617 
L 320.16937 158.803957 
L 321.76012 157.190837 
L 323.350871 207.144894 
L 324.941622 208.726122 
L 326.532373 168.310668 
L 328.123123 189.162555 
L 329.713874 198.647227 
L 331.304625 216.490928 
L 332.895375 211.889251 
L 334.486126 140.335412 
L 336.076877 213.100994 
L 337.667627 225.228267 
L 339.258378 203.346016 
L 340.849129 218.323395 
L 342.43988 285.499975 
L 344.03063 303.111703 
L 345.621381 284.056295 
L 347.212132 220.858907 
L 348.802882 278.490489 
L 350.393633 264.735433 
L 351.984384 268.146541 
L 353.575135 224.974499 
L 355.165885 274.960614 
L 356.756636 232.982325 
L 358.347387 224.293293 
L 359.938137 182.321312 
L 361.528888 172.727022 
L 363.119639 216.653869 
L 364.71039 238.3198 
L 366.30114 318.205276 
L 367.891891 309.33347 
L 369.482642 223.41859 
L 371.073392 198.18328 
L 372.664143 223.244315 
L 374.254894 213.58413 
L 375.845645 212.043841 
L 377.436395 272.2112 
L 379.027146 266.636869 
L 380.617897 261.96162 
L 382.208647 256.135624 
L 383.799398 308.428434 
L 385.390149 334.867361 
L 386.9809 317.935077 
L 388.57165 322.176842 
L 390.162401 338.663464 
L 391.753152 335.919181 
L 393.343902 288.803383 
L 394.934653 257.144402 
L 396.525404 264.498956 
L 398.116155 273.347408 
L 399.706905 271.140504 
L 401.297656 272.110287 
L 402.888407 251.569807 
L 404.479157 256.608359 
L 406.069908 250.849136 
L 407.660659 231.080273 
L 409.25141 272.351477 
L 410.84216 259.788626 
L 412.432911 228.023923 
L 414.023662 209.29255 
L 415.614412 217.801905 
L 417.205163 264.106334 
L 418.795914 263.533652 
L 420.386665 282.565162 
L 421.977415 286.053788 
L 423.568166 286.53224 
L 425.158917 307.13342 
L 426.749667 332.532048 
L 428.340418 327.298229 
L 429.931169 331.252621 
L 431.52192 339.701912 
L 433.11267 346.27939 
L 434.703421 351.18174 
L 436.294172 354.599123 
L 437.884922 354.824811 
L 439.475673 356.745336 
L 441.066424 357.671074 
L 442.657175 358.013289 
L 444.247925 357.76933 
L 445.838676 358.826143 
L 449.020177 360.005981 
L 450.610928 360.652438 
L 452.201679 360.891221 
L 456.973931 361.146886 
L 469.699937 361.171577 
L 557.191226 361.132725 
L 560.372727 361.133191 
L 560.372727 361.133191 
" style="fill:none;stroke:#ff7f0e;stroke-dasharray:1.5,2.475;stroke-dashoffset:0;stroke-width:1.5;"/>
   </g>
   <g id="line2d_17">
    <path clip-path="url(#pcd22a7d400)" d="M 103.827273 360.90365 
L 110.190276 360.850847 
L 121.325531 360.767057 
L 122.916281 361.082454 
L 140.414539 360.889499 
L 142.00529 361.133775 
L 169.048052 361.086271 
L 178.592556 361.278382 
L 181.774058 361.194159 
L 194.500063 361.037702 
L 197.681565 360.96522 
L 199.272315 360.518779 
L 202.453817 360.271823 
L 204.044568 360.03314 
L 207.226069 359.826544 
L 210.40757 359.436079 
L 211.998321 359.274468 
L 216.770573 358.109707 
L 218.361324 356.9963 
L 221.542825 355.623682 
L 224.724327 353.780993 
L 226.315078 352.616455 
L 229.496579 349.702389 
L 231.08733 347.898639 
L 232.67808 345.664493 
L 235.859582 338.720348 
L 237.450333 335.235715 
L 239.041083 335.351392 
L 240.631834 335.31792 
L 242.222585 326.155279 
L 243.813335 325.009077 
L 245.404086 324.396638 
L 246.994837 322.390216 
L 248.585588 320.752023 
L 250.176338 316.477841 
L 251.767089 305.562512 
L 253.35784 282.368589 
L 254.94859 261.426838 
L 258.130092 287.764922 
L 259.720843 283.423609 
L 261.311593 259.783121 
L 262.902344 255.301591 
L 264.493095 241.044303 
L 266.083845 243.130528 
L 267.674596 224.635558 
L 269.265347 199.73245 
L 270.856098 205.760643 
L 272.446848 245.941593 
L 275.62835 256.60109 
L 277.2191 201.398209 
L 278.809851 125.521361 
L 280.400602 159.955782 
L 281.991353 202.154036 
L 283.582103 221.760929 
L 285.172854 235.956476 
L 286.763605 225.028385 
L 288.354355 254.809066 
L 289.945106 230.113948 
L 291.535857 169.396918 
L 293.126608 203.482302 
L 294.717358 198.625652 
L 296.308109 192.572958 
L 297.89886 143.385377 
L 299.48961 214.720897 
L 301.080361 203.265882 
L 302.671112 189.785267 
L 304.261863 229.120591 
L 305.852613 217.777955 
L 307.443364 255.452292 
L 309.034115 257.724256 
L 310.624865 230.171745 
L 312.215616 228.2361 
L 313.806367 280.707601 
L 315.397118 258.676699 
L 316.987868 259.506403 
L 318.578619 215.89771 
L 320.16937 163.359336 
L 321.76012 161.680774 
L 323.350871 218.583107 
L 324.941622 219.980018 
L 326.532373 175.702465 
L 328.123123 199.687975 
L 329.713874 210.064385 
L 331.304625 229.364848 
L 332.895375 224.032874 
L 334.486126 138.726246 
L 336.076877 222.766979 
L 337.667627 233.469713 
L 339.258378 214.642708 
L 340.849129 228.305762 
L 342.43988 282.398498 
L 344.03063 296.217383 
L 345.621381 280.202644 
L 347.212132 230.463858 
L 348.802882 274.785097 
L 350.393633 264.152802 
L 351.984384 269.630933 
L 353.575135 234.754697 
L 355.165885 273.582243 
L 356.756636 239.27847 
L 358.347387 233.11069 
L 359.938137 185.477372 
L 361.528888 171.863056 
L 363.119639 221.100878 
L 364.71039 240.558318 
L 366.30114 305.321093 
L 367.891891 298.248812 
L 369.482642 233.078455 
L 371.073392 206.893842 
L 372.664143 231.523065 
L 374.254894 220.842491 
L 375.845645 219.243677 
L 377.436395 276.742574 
L 379.027146 272.106371 
L 380.617897 268.913293 
L 382.208647 262.915496 
L 383.799398 298.956199 
L 385.390149 320.237508 
L 386.9809 304.456417 
L 388.57165 306.871511 
L 390.162401 327.404489 
L 391.753152 324.342788 
L 393.343902 293.247935 
L 394.934653 270.05464 
L 396.525404 275.789881 
L 398.116155 283.586606 
L 399.706905 281.680942 
L 401.297656 282.245411 
L 402.888407 260.252863 
L 404.479157 259.350978 
L 406.069908 251.056635 
L 407.660659 229.534164 
L 409.25141 282.796776 
L 410.84216 273.940357 
L 412.432911 244.638062 
L 414.023662 229.055193 
L 415.614412 241.191745 
L 417.205163 286.77678 
L 418.795914 286.091332 
L 420.386665 299.804511 
L 421.977415 303.015975 
L 423.568166 301.970229 
L 426.749667 328.559532 
L 428.340418 332.611401 
L 429.931169 334.330662 
L 431.52192 339.444382 
L 434.703421 348.247798 
L 436.294172 351.935247 
L 437.884922 352.440467 
L 439.475673 354.866268 
L 441.066424 356.663489 
L 442.657175 356.902023 
L 444.247925 356.340086 
L 445.838676 358.291196 
L 447.429427 359.653454 
L 450.610928 360.899738 
L 452.201679 361.163134 
L 455.38318 361.45655 
L 463.336934 361.140147 
L 474.472189 361.107757 
L 541.283719 361.215697 
L 546.055971 361.179847 
L 560.372727 361.218805 
L 560.372727 361.218805 
" style="fill:none;stroke:#2ca02c;stroke-dasharray:9.6,2.4,1.5,2.4;stroke-dashoffset:0;stroke-width:1.5;"/>
   </g>
   <g id="patch_3">
    <path d="M 81 378 
L 81 51.84 
" style="fill:none;stroke:#000000;stroke-linecap:square;stroke-linejoin:miter;stroke-width:0.8;"/>
   </g>
   <g id="patch_4">
    <path d="M 583.2 378 
L 583.2 51.84 
" style="fill:none;stroke:#000000;stroke-linecap:square;stroke-linejoin:miter;stroke-width:0.8;"/>
   </g>
   <g id="patch_5">
    <path d="M 81 378 
L 583.2 378 
" style="fill:none;stroke:#000000;stroke-linecap:square;stroke-linejoin:miter;stroke-width:0.8;"/>
   </g>
   <g id="patch_6">
    <path d="M 81 51.84 
L 583.2 51.84 
" style="fill:none;stroke:#000000;stroke-linecap:square;stroke-linejoin:miter;stroke-width:0.8;"/>
   </g>
   <g id="legend_1">
    <g id="patch_7">
     <path d="M 485.3 123.2025 
L 575.5 123.2025 
Q 577.7 123.2025 577.7 121.0025 
L 577.7 59.54 
Q 577.7 57.34 575.5 57.34 
L 485.3 57.34 
Q 483.1 57.34 483.1 59.54 
L 483.1 121.0025 
Q 483.1 123.2025 485.3 123.2025 
z
" style="fill:#ffffff;opacity:0.8;stroke:#cccccc;stroke-linejoin:miter;"/>
    </g>
    <g id="line2d_18">
     <path d="M 487.5 66.698594 
L 509.5 66.698594 
" style="fill:none;stroke:#000000;stroke-linecap:square;stroke-width:1.5;"/>
    </g>
    <g id="line2d_19"/>
    <g id="text_15">
     <!-- 真实值 -->
     <defs>
      <path d="M 55.46875 79.6875 
Q 53.90625 76.953125 53.125 72.265625 
L 75.78125 72.265625 
Q 80.859375 72.265625 89.453125 72.65625 
L 89.453125 66.40625 
Q 81.25 66.796875 75.78125 66.796875 
L 52.34375 66.796875 
L 51.5625 60.15625 
L 78.90625 60.15625 
Q 78.515625 55.46875 78.515625 49.21875 
L 78.515625 16.796875 
L 84.375 16.796875 
Q 90.625 16.796875 94.921875 17.1875 
L 94.921875 9.765625 
Q 87.109375 10.15625 76.5625 10.15625 
L 22.65625 10.15625 
Q 12.109375 10.15625 5.46875 9.765625 
L 5.46875 17.1875 
Q 11.328125 16.796875 17.1875 16.796875 
L 22.265625 16.796875 
L 22.265625 48.046875 
Q 22.265625 53.90625 21.875 60.15625 
L 44.140625 60.15625 
L 44.53125 66.796875 
L 21.875 66.796875 
Q 16.40625 66.796875 9.765625 66.40625 
L 9.765625 72.65625 
Q 18.359375 72.265625 21.484375 72.265625 
L 45.703125 72.265625 
Q 46.09375 76.171875 46.09375 80.078125 
Q 51.5625 79.6875 55.46875 79.6875 
z
M 63.671875 8.203125 
Q 70.3125 6.640625 76.953125 3.90625 
Q 83.59375 1.171875 91.015625 -2.34375 
Q 86.71875 -6.640625 85.15625 -8.984375 
Q 78.515625 -4.6875 71.09375 -1.5625 
Q 63.671875 1.5625 59.375 2.734375 
Q 61.328125 5.46875 63.671875 8.203125 
z
M 70.703125 49.21875 
L 70.703125 54.296875 
L 30.078125 54.296875 
L 30.078125 49.21875 
z
M 70.703125 16.796875 
L 70.703125 21.875 
L 30.078125 21.875 
L 30.078125 16.796875 
z
M 43.359375 3.125 
Q 37.109375 -0.390625 29.296875 -3.515625 
Q 21.484375 -6.640625 14.84375 -8.984375 
Q 12.109375 -6.25 9.375 -3.90625 
Q 19.140625 -0.78125 25.390625 2.140625 
Q 31.640625 5.078125 36.71875 8.203125 
Q 39.84375 5.46875 43.359375 3.125 
z
M 70.703125 27.734375 
L 70.703125 32.421875 
L 30.078125 32.421875 
L 30.078125 27.734375 
z
M 70.703125 38.671875 
L 70.703125 43.359375 
L 30.078125 43.359375 
L 30.078125 38.671875 
z
" id="SimHei-771f"/>
      <path d="M 64.453125 54.6875 
Q 63.28125 50 62.5 41.796875 
Q 61.71875 33.59375 60.15625 24.21875 
L 78.515625 24.21875 
Q 85.546875 24.21875 93.359375 24.609375 
L 93.359375 17.1875 
Q 85.15625 17.578125 78.125 17.578125 
L 58.203125 17.578125 
Q 54.6875 9.765625 47.65625 3.90625 
Q 40.625 -1.953125 31.25 -5.265625 
Q 21.875 -8.59375 14.453125 -10.546875 
Q 12.890625 -5.859375 7.8125 -3.125 
Q 19.140625 -1.953125 32.03125 3.3125 
Q 44.921875 8.59375 50 17.578125 
L 22.265625 17.578125 
Q 15.234375 17.578125 6.640625 17.1875 
L 6.640625 24.609375 
Q 15.625 24.21875 22.265625 24.21875 
L 52.734375 24.21875 
Q 53.90625 30.859375 54.484375 38.46875 
Q 55.078125 46.09375 54.6875 57.03125 
Q 59.375 55.46875 64.453125 54.6875 
z
M 50.78125 82.03125 
Q 53.90625 75.78125 56.25 68.359375 
L 90.234375 68.359375 
Q 89.84375 64.0625 89.84375 59.765625 
Q 89.84375 55.859375 90.234375 51.171875 
L 81.25 51.171875 
L 81.25 62.109375 
L 19.140625 62.109375 
L 19.140625 50.390625 
L 10.546875 50.390625 
Q 10.9375 55.078125 10.9375 59.375 
Q 10.9375 64.0625 10.546875 68.359375 
L 46.484375 68.359375 
Q 45.3125 73.046875 42.1875 79.296875 
Q 45.3125 80.46875 50.78125 82.03125 
z
M 62.5 12.890625 
Q 71.09375 8.203125 78.90625 4.09375 
Q 86.71875 0 92.578125 -3.515625 
Q 89.84375 -6.640625 86.71875 -10.15625 
Q 79.6875 -5.078125 71.484375 -0.578125 
Q 63.28125 3.90625 57.421875 6.25 
Q 60.546875 10.15625 62.5 12.890625 
z
M 18.359375 42.96875 
Q 25 39.84375 36.71875 32.03125 
Q 35.15625 29.6875 32.03125 25.78125 
Q 21.09375 33.984375 14.453125 36.71875 
Q 16.796875 39.0625 18.359375 42.96875 
z
M 49.21875 44.140625 
Q 46.484375 41.015625 44.53125 37.890625 
Q 32.03125 46.875 26.171875 48.828125 
Q 28.125 51.5625 30.46875 55.078125 
z
" id="SimHei-5b9e"/>
      <path d="M 57.421875 69.53125 
L 57.421875 79.6875 
Q 62.109375 79.296875 67.96875 78.90625 
Q 66.015625 76.171875 65.625 69.53125 
L 80.078125 69.53125 
Q 86.71875 69.53125 91.796875 69.921875 
L 91.796875 62.890625 
Q 86.328125 63.28125 80.078125 63.28125 
L 65.234375 63.28125 
L 64.453125 54.6875 
L 84.375 54.6875 
Q 83.984375 50 83.984375 42.1875 
L 83.984375 2.34375 
Q 91.796875 2.34375 95.3125 2.734375 
L 95.3125 -4.296875 
Q 90.234375 -3.90625 81.25 -3.90625 
L 44.53125 -3.90625 
Q 35.546875 -3.90625 29.6875 -4.296875 
L 29.6875 2.734375 
Q 33.203125 2.34375 40.625 2.34375 
L 40.625 42.1875 
Q 40.625 49.609375 40.234375 54.6875 
L 56.25 54.6875 
L 57.03125 63.28125 
L 50 63.28125 
Q 40.234375 63.28125 34.765625 62.890625 
L 34.765625 69.921875 
Q 39.84375 69.53125 50 69.53125 
z
M 34.765625 76.5625 
Q 31.640625 73.046875 25.78125 58.59375 
L 25.78125 7.03125 
Q 25.78125 -1.171875 26.171875 -8.59375 
L 17.96875 -8.59375 
Q 18.359375 -1.953125 18.359375 5.859375 
L 18.359375 46.09375 
Q 13.671875 38.28125 9.765625 33.59375 
Q 6.640625 37.890625 3.90625 40.234375 
Q 7.8125 44.140625 14.640625 55.265625 
Q 21.484375 66.40625 25.390625 80.46875 
Q 30.859375 77.734375 34.765625 76.5625 
z
M 76.953125 41.40625 
L 76.953125 49.21875 
L 48.046875 49.21875 
L 48.046875 41.40625 
z
M 76.953125 2.34375 
L 76.953125 9.765625 
L 48.046875 9.765625 
L 48.046875 2.34375 
z
M 76.953125 15.625 
L 76.953125 22.65625 
L 48.046875 22.65625 
L 48.046875 15.625 
z
M 76.953125 28.515625 
L 76.953125 35.546875 
L 48.046875 35.546875 
L 48.046875 28.515625 
z
" id="SimHei-503c"/>
     </defs>
     <g transform="translate(518.3 70.548594)scale(0.11 -0.11)">
      <use xlink:href="#SimHei-771f"/>
      <use x="100" xlink:href="#SimHei-5b9e"/>
      <use x="200" xlink:href="#SimHei-503c"/>
     </g>
    </g>
    <g id="line2d_20">
     <path d="M 487.5 82.253281 
L 509.5 82.253281 
" style="fill:none;stroke:#1f77b4;stroke-dasharray:5.55,2.4;stroke-dashoffset:0;stroke-width:1.5;"/>
    </g>
    <g id="line2d_21"/>
    <g id="text_16">
     <!-- BP模型 -->
     <defs>
      <path d="M 46.09375 21.875 
Q 46.09375 10.546875 39.84375 6.25 
Q 33.59375 1.953125 23.828125 1.953125 
L 4.296875 1.953125 
L 4.296875 68.75 
L 24.609375 68.75 
Q 34.375 68.75 39.25 63.671875 
Q 44.140625 58.59375 44.140625 51.5625 
Q 44.140625 44.53125 40.8125 41.203125 
Q 37.5 37.890625 33.984375 36.71875 
Q 38.671875 35.546875 42.375 31.828125 
Q 46.09375 28.125 46.09375 21.875 
z
M 35.15625 51.5625 
Q 35.15625 56.640625 32.21875 58.984375 
Q 29.296875 61.328125 25 61.328125 
L 13.28125 61.328125 
L 13.28125 40.625 
L 24.609375 40.625 
Q 28.90625 40.625 32.03125 43.15625 
Q 35.15625 45.703125 35.15625 51.5625 
z
M 36.71875 21.875 
Q 36.71875 28.125 32.609375 30.65625 
Q 28.515625 33.203125 23.4375 33.203125 
L 13.28125 33.203125 
L 13.28125 9.375 
L 22.265625 9.375 
Q 29.296875 9.375 33 12.109375 
Q 36.71875 14.84375 36.71875 21.875 
z
" id="SimHei-42"/>
      <path d="M 46.09375 48.4375 
Q 46.09375 39.0625 40.625 33.59375 
Q 35.15625 28.125 25.390625 28.125 
L 14.0625 28.125 
L 14.0625 1.953125 
L 5.078125 1.953125 
L 5.078125 68.75 
L 25.390625 68.75 
Q 35.15625 68.75 40.625 63.28125 
Q 46.09375 57.8125 46.09375 48.4375 
z
M 37.109375 48.4375 
Q 37.109375 55.859375 33.59375 58.59375 
Q 30.078125 61.328125 23.046875 61.328125 
L 14.0625 61.328125 
L 14.0625 35.546875 
L 23.046875 35.546875 
Q 30.078125 35.546875 33.59375 38.28125 
Q 37.109375 41.015625 37.109375 48.4375 
z
" id="SimHei-50"/>
      <path d="M 89.0625 57.421875 
Q 88.671875 53.125 88.671875 42.578125 
Q 88.671875 32.03125 89.0625 26.953125 
L 68.359375 26.953125 
Q 67.96875 22.65625 67.578125 18.75 
L 81.640625 18.75 
Q 89.84375 18.75 94.140625 19.140625 
L 94.140625 12.890625 
Q 89.453125 13.28125 81.640625 13.28125 
L 73.4375 13.28125 
Q 79.296875 5.859375 84.953125 2.140625 
Q 90.625 -1.5625 96.875 -3.125 
Q 93.359375 -5.859375 91.40625 -9.765625 
Q 82.421875 -6.25 75.96875 0.390625 
Q 69.53125 7.03125 67.1875 12.109375 
L 66.015625 12.109375 
Q 62.5 4.296875 55.265625 -0.96875 
Q 48.046875 -6.25 38.671875 -9.765625 
Q 36.71875 -5.859375 33.203125 -3.125 
Q 43.359375 -1.171875 50 3.125 
Q 56.640625 7.421875 58.984375 13.28125 
L 51.953125 13.28125 
Q 43.75 13.28125 37.5 12.890625 
L 37.5 19.140625 
Q 43.75 18.75 52.34375 18.75 
L 60.546875 18.75 
Q 61.328125 23.046875 61.328125 26.953125 
L 42.96875 26.953125 
Q 43.359375 32.421875 43.359375 42.1875 
Q 43.359375 52.34375 42.96875 57.421875 
L 89.0625 57.421875 
z
M 33.984375 25.78125 
Q 31.640625 30.859375 26.171875 39.453125 
L 26.171875 4.6875 
Q 26.171875 -4.6875 26.5625 -8.59375 
L 18.359375 -8.59375 
Q 18.75 -4.296875 18.75 3.90625 
L 18.75 34.765625 
Q 17.578125 31.25 15.03125 26.75 
Q 12.5 22.265625 9.375 16.40625 
Q 7.03125 19.921875 3.125 22.265625 
Q 9.375 28.515625 13.28125 37.890625 
Q 17.1875 47.265625 18.359375 53.515625 
L 14.84375 53.515625 
Q 10.9375 53.515625 6.25 53.125 
L 6.25 59.765625 
Q 10.546875 59.375 12.890625 59.375 
L 18.75 59.375 
L 18.75 67.96875 
Q 18.75 74.609375 18.359375 80.46875 
L 26.5625 80.46875 
Q 26.171875 75.390625 26.171875 69.140625 
L 26.171875 59.375 
Q 32.421875 59.375 37.109375 59.765625 
L 37.109375 53.125 
Q 32.03125 53.515625 26.171875 53.515625 
L 26.171875 40.234375 
Q 28.90625 41.796875 31.25 43.359375 
Q 33.59375 39.453125 35.734375 36.328125 
Q 37.890625 33.203125 39.84375 30.078125 
Q 36.328125 27.734375 33.984375 25.78125 
z
M 52.734375 67.1875 
L 49.609375 67.1875 
Q 42.1875 67.1875 37.890625 66.796875 
L 37.890625 73.046875 
Q 42.1875 72.65625 49.21875 72.65625 
L 52.734375 72.65625 
Q 52.734375 78.125 52.34375 81.640625 
L 59.765625 81.640625 
Q 59.375 78.125 59.375 72.65625 
L 71.09375 72.65625 
Q 71.09375 77.734375 70.703125 81.25 
L 78.515625 81.25 
Q 78.125 76.953125 78.125 72.65625 
L 83.984375 72.65625 
Q 88.28125 72.65625 92.96875 73.046875 
L 92.96875 66.796875 
Q 88.28125 67.1875 83.984375 67.1875 
L 78.125 67.1875 
L 78.125 60.15625 
L 71.09375 60.15625 
L 71.09375 67.1875 
L 59.375 67.1875 
L 59.375 60.546875 
L 52.734375 60.546875 
z
M 82.421875 32.421875 
L 82.421875 39.453125 
L 50 39.453125 
L 50 32.421875 
z
M 82.421875 44.921875 
L 82.421875 51.953125 
L 50 51.953125 
L 50 44.921875 
z
" id="SimHei-6a21"/>
      <path d="M 41.015625 27.734375 
Q 41.40625 36.328125 41.40625 42.1875 
L 41.40625 46.875 
L 28.515625 46.875 
Q 26.953125 37.109375 22.265625 31.25 
Q 17.578125 25.390625 12.109375 22.265625 
Q 10.15625 25.78125 5.859375 29.6875 
Q 13.28125 32.421875 16.59375 36.90625 
Q 19.921875 41.40625 21.09375 46.875 
Q 14.0625 46.875 5.859375 46.484375 
L 5.859375 53.90625 
Q 14.453125 53.515625 21.875 53.515625 
Q 22.265625 61.71875 22.265625 69.921875 
Q 16.796875 69.921875 10.9375 69.53125 
L 10.9375 76.5625 
Q 16.40625 76.171875 23.828125 76.171875 
L 46.875 76.171875 
Q 51.171875 76.171875 57.03125 76.5625 
L 57.03125 69.53125 
Q 51.953125 69.921875 48.828125 69.921875 
L 48.828125 53.515625 
Q 53.90625 53.515625 59.765625 53.90625 
L 59.765625 46.484375 
Q 53.90625 46.875 48.828125 46.875 
L 48.828125 41.796875 
Q 48.828125 34.765625 49.21875 27.734375 
z
M 46.875 18.359375 
Q 46.875 21.484375 46.484375 26.953125 
L 54.6875 26.953125 
Q 54.296875 21.484375 54.296875 18.359375 
L 71.09375 18.359375 
Q 78.90625 18.359375 85.15625 18.75 
L 85.15625 11.328125 
Q 77.734375 11.71875 71.09375 11.71875 
L 54.296875 11.71875 
L 54.296875 -0.78125 
L 82.421875 -0.78125 
Q 89.0625 -0.78125 95.3125 -0.390625 
L 95.3125 -7.8125 
Q 89.453125 -7.421875 82.8125 -7.421875 
L 19.53125 -7.421875 
Q 12.109375 -7.421875 6.25 -7.8125 
L 6.25 -0.390625 
Q 12.109375 -0.78125 19.53125 -0.78125 
L 46.875 -0.78125 
L 46.875 11.71875 
L 31.640625 11.71875 
Q 23.4375 11.71875 15.234375 11.328125 
L 16.40625 18.75 
Q 23.4375 18.359375 31.640625 18.359375 
z
M 90.234375 81.25 
Q 89.84375 74.609375 89.84375 67.578125 
L 89.84375 37.5 
Q 90.234375 30.46875 87.6875 27.734375 
Q 85.15625 25 76.5625 23.828125 
Q 75.390625 27.734375 73.046875 32.8125 
Q 80.859375 32.421875 81.828125 33.59375 
Q 82.8125 34.765625 82.8125 39.453125 
L 82.8125 67.578125 
Q 82.8125 74.609375 82.421875 81.25 
L 90.234375 81.25 
z
M 71.875 74.21875 
Q 71.484375 69.53125 71.484375 62.109375 
L 71.484375 50 
Q 71.484375 44.140625 71.875 37.890625 
L 64.0625 37.890625 
Q 64.453125 44.140625 64.453125 50 
L 64.453125 62.109375 
Q 64.453125 69.53125 64.0625 74.21875 
L 71.875 74.21875 
z
M 41.40625 53.515625 
L 41.40625 69.921875 
L 29.296875 69.921875 
Q 28.90625 58.59375 28.90625 53.515625 
z
" id="SimHei-578b"/>
     </defs>
     <g transform="translate(518.3 86.103281)scale(0.11 -0.11)">
      <use xlink:href="#SimHei-42"/>
      <use x="50" xlink:href="#SimHei-50"/>
      <use x="100" xlink:href="#SimHei-6a21"/>
      <use x="200" xlink:href="#SimHei-578b"/>
     </g>
    </g>
    <g id="line2d_22">
     <path d="M 487.5 97.807969 
L 509.5 97.807969 
" style="fill:none;stroke:#ff7f0e;stroke-dasharray:1.5,2.475;stroke-dashoffset:0;stroke-width:1.5;"/>
    </g>
    <g id="line2d_23"/>
    <g id="text_17">
     <!-- DNN模型 -->
     <defs>
      <path d="M 45.703125 35.15625 
Q 45.703125 17.1875 38.078125 9.5625 
Q 30.46875 1.953125 17.578125 1.953125 
L 4.296875 1.953125 
L 4.296875 68.75 
L 17.578125 68.75 
Q 32.03125 68.75 38.859375 60.9375 
Q 45.703125 53.125 45.703125 35.15625 
z
M 36.328125 35.15625 
Q 36.328125 49.609375 31.640625 55.46875 
Q 26.953125 61.328125 17.578125 61.328125 
L 13.28125 61.328125 
L 13.28125 9.375 
L 17.578125 9.375 
Q 26.953125 9.375 31.640625 15.03125 
Q 36.328125 20.703125 36.328125 35.15625 
z
" id="SimHei-44"/>
      <path d="M 44.53125 1.953125 
L 34.765625 1.953125 
L 13.28125 50.390625 
L 12.890625 50.390625 
L 12.890625 1.953125 
L 3.90625 1.953125 
L 3.90625 68.75 
L 13.671875 68.75 
L 35.15625 20.3125 
L 35.546875 20.3125 
L 35.546875 68.75 
L 44.53125 68.75 
z
" id="SimHei-4e"/>
     </defs>
     <g transform="translate(518.3 101.657969)scale(0.11 -0.11)">
      <use xlink:href="#SimHei-44"/>
      <use x="50" xlink:href="#SimHei-4e"/>
      <use x="100" xlink:href="#SimHei-4e"/>
      <use x="150" xlink:href="#SimHei-6a21"/>
      <use x="250" xlink:href="#SimHei-578b"/>
     </g>
    </g>
    <g id="line2d_24">
     <path d="M 487.5 113.5775 
L 509.5 113.5775 
" style="fill:none;stroke:#2ca02c;stroke-dasharray:9.6,2.4,1.5,2.4;stroke-dashoffset:0;stroke-width:1.5;"/>
    </g>
    <g id="line2d_25"/>
    <g id="text_18">
     <!-- 小波包LSTM -->
     <defs>
      <path d="M 54.6875 80.46875 
Q 54.296875 75 54.296875 65.625 
L 54.296875 2.734375 
Q 54.296875 -4.6875 50.390625 -6.640625 
Q 46.484375 -8.59375 37.109375 -9.375 
Q 36.328125 -4.6875 33.59375 -0.390625 
Q 42.1875 -0.390625 44.328125 0 
Q 46.484375 0.390625 46.484375 4.6875 
L 46.484375 65.625 
Q 46.484375 72.65625 46.09375 80.46875 
L 54.6875 80.46875 
z
M 32.421875 53.125 
Q 28.90625 43.359375 24.21875 30.65625 
Q 19.53125 17.96875 16.015625 11.71875 
Q 12.109375 14.84375 7.8125 15.625 
Q 14.453125 27.34375 18.359375 38.859375 
Q 22.265625 50.390625 23.4375 55.859375 
Q 28.125 53.515625 32.421875 53.125 
z
M 73.046875 56.25 
Q 88.671875 28.125 91.796875 17.96875 
Q 87.890625 17.1875 83.984375 14.453125 
Q 78.125 31.25 66.015625 51.953125 
Q 69.140625 53.515625 73.046875 56.25 
z
" id="SimHei-5c0f"/>
      <path d="M 79.296875 51.171875 
Q 80.859375 56.25 81.640625 60.15625 
L 67.578125 60.15625 
L 67.578125 42.96875 
L 86.71875 42.96875 
Q 84.375 32.8125 80.078125 23.625 
Q 75.78125 14.453125 70.703125 8.59375 
Q 74.609375 5.46875 81.25 2.734375 
Q 87.890625 0 96.484375 -1.5625 
Q 92.1875 -4.6875 90.234375 -9.375 
Q 82.03125 -6.640625 75 -2.734375 
Q 67.96875 1.171875 65.625 3.515625 
Q 61.71875 0.390625 55.265625 -3.3125 
Q 48.828125 -7.03125 39.0625 -10.546875 
Q 37.109375 -7.8125 32.03125 -5.859375 
Q 39.453125 -3.90625 47.84375 0.390625 
Q 56.25 4.6875 60.15625 8.59375 
Q 51.953125 20.3125 48.046875 36.328125 
L 44.140625 36.328125 
Q 43.75 21.875 38.859375 11.328125 
Q 33.984375 0.78125 29.296875 -4.6875 
Q 26.5625 -2.34375 21.484375 -0.78125 
Q 27.34375 5.078125 30.46875 11.125 
Q 33.59375 17.1875 35.34375 23.046875 
Q 37.109375 28.90625 37.296875 44.140625 
Q 37.5 59.375 36.71875 66.796875 
L 60.546875 66.796875 
Q 60.546875 75.78125 60.15625 81.25 
L 67.96875 81.25 
Q 67.578125 76.5625 67.578125 66.796875 
L 91.40625 66.796875 
Q 91.015625 64.453125 89.84375 59.953125 
Q 88.671875 55.46875 87.5 50 
Q 82.8125 50.78125 79.296875 51.171875 
z
M 55.078125 36.328125 
Q 59.375 21.875 65.625 14.453125 
Q 72.65625 23.046875 76.953125 36.328125 
z
M 30.46875 26.5625 
Q 26.5625 21.484375 19.71875 11.125 
Q 12.890625 0.78125 10.546875 -3.125 
Q 7.421875 0.78125 3.515625 4.296875 
Q 8.203125 8.203125 14.640625 17.1875 
Q 21.09375 26.171875 24.21875 32.8125 
L 30.46875 26.5625 
z
M 60.546875 42.96875 
L 60.546875 60.15625 
L 44.53125 60.15625 
L 44.53125 42.96875 
z
M 14.453125 76.953125 
Q 25 70.703125 31.25 66.40625 
Q 28.125 62.890625 26.171875 59.375 
Q 19.53125 64.84375 9.765625 70.3125 
Q 12.109375 73.4375 14.453125 76.953125 
z
M 9.375 55.078125 
Q 17.578125 50.78125 26.953125 44.53125 
Q 23.828125 41.796875 21.875 37.890625 
Q 14.453125 44.140625 5.46875 48.4375 
Q 7.03125 51.171875 9.375 55.078125 
z
" id="SimHei-6ce2"/>
      <path d="M 39.84375 78.515625 
Q 37.109375 76.171875 33.203125 68.75 
L 84.375 68.75 
Q 84.375 64.0625 83.984375 55.46875 
L 82.8125 21.484375 
Q 82.421875 15.234375 78.3125 13.078125 
Q 74.21875 10.9375 64.0625 9.765625 
Q 62.890625 14.84375 60.546875 18.359375 
Q 71.09375 18.75 72.84375 19.53125 
Q 74.609375 20.3125 75.390625 26.171875 
Q 76.171875 43.75 76.171875 62.5 
L 29.296875 62.5 
Q 25.390625 56.640625 20.703125 50.390625 
L 61.71875 50.390625 
Q 61.328125 45.3125 61.328125 36.328125 
Q 61.328125 27.34375 61.71875 22.265625 
L 27.34375 22.265625 
L 27.34375 7.421875 
Q 27.34375 0.78125 34.375 0.390625 
Q 57.03125 -1.171875 76.953125 0 
Q 81.640625 0.78125 83.59375 2.921875 
Q 85.546875 5.078125 87.5 14.0625 
Q 91.015625 10.9375 96.484375 10.15625 
Q 92.96875 -1.5625 90.03125 -3.90625 
Q 87.109375 -6.25 79.296875 -6.25 
Q 54.6875 -7.421875 32.03125 -6.25 
Q 19.53125 -6.25 19.53125 5.46875 
L 19.53125 49.21875 
Q 16.796875 46.09375 9.765625 39.84375 
Q 7.03125 42.96875 3.125 45.3125 
Q 13.28125 53.515625 19.71875 62.6875 
Q 26.171875 71.875 30.46875 82.8125 
Q 35.546875 79.6875 39.84375 78.515625 
z
M 53.515625 28.90625 
L 53.515625 43.75 
L 27.34375 43.75 
L 27.34375 28.90625 
z
" id="SimHei-5305"/>
      <path d="M 45.3125 1.953125 
L 4.6875 1.953125 
L 4.6875 68.75 
L 13.671875 68.75 
L 13.671875 9.375 
L 45.3125 9.375 
z
" id="SimHei-4c"/>
      <path d="M 45.3125 20.703125 
Q 45.3125 11.71875 39.640625 6.4375 
Q 33.984375 1.171875 24.21875 1.171875 
Q 14.453125 1.171875 8.984375 6.640625 
Q 3.515625 12.109375 3.515625 20.3125 
L 3.515625 23.046875 
L 12.5 23.046875 
L 12.5 20.703125 
Q 12.5 14.84375 16.015625 11.71875 
Q 19.53125 8.59375 24.21875 8.59375 
Q 30.46875 8.59375 33.390625 11.90625 
Q 36.328125 15.234375 36.328125 19.921875 
Q 36.328125 23.828125 32.8125 27.140625 
Q 29.296875 30.46875 22.65625 33.203125 
Q 13.28125 36.71875 9.171875 41.015625 
Q 5.078125 45.3125 5.078125 51.171875 
Q 5.078125 59.375 10.734375 64.453125 
Q 16.40625 69.53125 24.21875 69.53125 
Q 34.375 69.53125 38.859375 63.46875 
Q 43.359375 57.421875 43.359375 50.390625 
L 34.375 50.390625 
Q 34.765625 54.6875 32.03125 58.203125 
Q 29.296875 61.71875 24.21875 61.71875 
Q 19.53125 61.71875 16.796875 59.171875 
Q 14.0625 56.640625 14.0625 52.34375 
Q 14.0625 48.828125 16.203125 46.28125 
Q 18.359375 43.75 27.34375 40.234375 
Q 35.9375 36.71875 40.625 31.828125 
Q 45.3125 26.953125 45.3125 20.703125 
z
" id="SimHei-53"/>
      <path d="M 44.53125 61.328125 
L 28.90625 61.328125 
L 28.90625 1.953125 
L 19.921875 1.953125 
L 19.921875 61.328125 
L 4.296875 61.328125 
L 4.296875 68.75 
L 44.53125 68.75 
z
" id="SimHei-54"/>
      <path d="M 45.703125 1.953125 
L 37.890625 1.953125 
L 37.890625 49.609375 
L 37.109375 49.609375 
L 27.734375 1.953125 
L 21.484375 1.953125 
L 12.109375 49.609375 
L 11.328125 49.609375 
L 11.328125 1.953125 
L 3.515625 1.953125 
L 3.515625 68.75 
L 15.625 68.75 
L 24.21875 24.609375 
L 25 24.609375 
L 33.59375 68.75 
L 45.703125 68.75 
z
" id="SimHei-4d"/>
     </defs>
     <g transform="translate(518.3 117.4275)scale(0.11 -0.11)">
      <use xlink:href="#SimHei-5c0f"/>
      <use x="100" xlink:href="#SimHei-6ce2"/>
      <use x="200" xlink:href="#SimHei-5305"/>
      <use x="300" xlink:href="#SimHei-4c"/>
      <use x="350" xlink:href="#SimHei-53"/>
      <use x="400" xlink:href="#SimHei-54"/>
      <use x="450" xlink:href="#SimHei-4d"/>
     </g>
    </g>
   </g>
  </g>
 </g>
 <defs>
  <clipPath id="pcd22a7d400">
   <rect height="326.16" width="502.2" x="81" y="51.84"/>
  </clipPath>
 </defs>
</svg>
