<?xml version="1.0" encoding="utf-8" standalone="no"?>
<!DOCTYPE svg PUBLIC "-//W3C//DTD SVG 1.1//EN"
  "http://www.w3.org/Graphics/SVG/1.1/DTD/svg11.dtd">
<!-- Created with matplotlib (http://matplotlib.org/) -->
<svg height="432pt" version="1.1" viewBox="0 0 648 432" width="648pt" xmlns="http://www.w3.org/2000/svg" xmlns:xlink="http://www.w3.org/1999/xlink">
 <defs>
  <style type="text/css">
*{stroke-linecap:butt;stroke-linejoin:round;}
  </style>
 </defs>
 <g id="figure_1">
  <g id="patch_1">
   <path d="M 0 432 
L 648 432 
L 648 0 
L 0 0 
z
" style="fill:#ffffff;"/>
  </g>
  <g id="axes_1">
   <g id="patch_2">
    <path d="M 81 378 
L 583.2 378 
L 583.2 51.84 
L 81 51.84 
z
" style="fill:#ffffff;"/>
   </g>
   <g id="matplotlib.axis_1">
    <g id="xtick_1">
     <g id="line2d_1">
      <defs>
       <path d="M 0 0 
L 0 3.5 
" id="m0acb232d52" style="stroke:#000000;stroke-width:0.8;"/>
      </defs>
      <g>
       <use style="stroke:#000000;stroke-width:0.8;" x="103.827273" xlink:href="#m0acb232d52" y="378"/>
      </g>
     </g>
     <g id="text_1">
      <!-- 00:00 -->
      <defs>
       <path d="M 3.125 29.296875 
Q 3.90625 50 6.4375 56.046875 
Q 8.984375 62.109375 13.671875 66.015625 
Q 18.359375 69.921875 25.1875 69.921875 
Q 32.03125 69.921875 37.109375 64.25 
Q 42.1875 58.59375 43.75 50 
Q 45.3125 41.40625 44.71875 30.265625 
Q 44.140625 19.140625 40.8125 12.109375 
Q 37.5 5.078125 30.859375 2.34375 
Q 24.21875 -0.390625 17.578125 2.921875 
Q 10.9375 6.25 8.203125 11.71875 
Q 5.46875 17.1875 4.296875 23.234375 
Q 3.125 29.296875 3.90625 50 
z
M 12.890625 52.734375 
Q 10.546875 31.25 12.5 22.84375 
Q 14.453125 14.453125 18.9375 10.9375 
Q 23.4375 7.421875 28.125 9.5625 
Q 32.8125 11.71875 34.953125 18.15625 
Q 37.109375 24.609375 37.109375 32.21875 
Q 37.109375 39.84375 36.515625 46.09375 
Q 35.9375 52.34375 33 57.421875 
Q 30.078125 62.5 25.1875 62.6875 
Q 20.3125 62.890625 16.59375 57.8125 
Q 12.890625 52.734375 10.546875 31.25 
z
" id="SimHei-30"/>
       <path d="M 28.515625 37.890625 
L 19.53125 37.890625 
L 19.53125 46.484375 
L 28.515625 46.484375 
z
M 28.515625 1.953125 
L 19.53125 1.953125 
L 19.53125 10.546875 
L 28.515625 10.546875 
z
" id="SimHei-3a"/>
      </defs>
      <g transform="translate(87.577273 393.9375)scale(0.13 -0.13)">
       <use xlink:href="#SimHei-30"/>
       <use x="50" xlink:href="#SimHei-30"/>
       <use x="100" xlink:href="#SimHei-3a"/>
       <use x="150" xlink:href="#SimHei-30"/>
       <use x="200" xlink:href="#SimHei-30"/>
      </g>
     </g>
    </g>
    <g id="xtick_2">
     <g id="line2d_2">
      <g>
       <use style="stroke:#000000;stroke-width:0.8;" x="183.364808" xlink:href="#m0acb232d52" y="378"/>
      </g>
     </g>
     <g id="text_2">
      <!-- 04:00 -->
      <defs>
       <path d="M 31.25 17.1875 
L 1.171875 17.1875 
L 1.171875 23.828125 
L 32.8125 69.53125 
L 38.671875 69.53125 
L 38.671875 23.828125 
L 48.046875 23.828125 
L 48.046875 17.1875 
L 38.671875 17.1875 
L 38.671875 2.34375 
L 31.25 2.34375 
z
M 31.25 23.828125 
L 31.25 54.6875 
L 9.375 23.828125 
z
" id="SimHei-34"/>
      </defs>
      <g transform="translate(167.114808 393.9375)scale(0.13 -0.13)">
       <use xlink:href="#SimHei-30"/>
       <use x="50" xlink:href="#SimHei-34"/>
       <use x="100" xlink:href="#SimHei-3a"/>
       <use x="150" xlink:href="#SimHei-30"/>
       <use x="200" xlink:href="#SimHei-30"/>
      </g>
     </g>
    </g>
    <g id="xtick_3">
     <g id="line2d_3">
      <g>
       <use style="stroke:#000000;stroke-width:0.8;" x="262.902344" xlink:href="#m0acb232d52" y="378"/>
      </g>
     </g>
     <g id="text_3">
      <!-- 8:00 -->
      <defs>
       <path d="M 2.734375 16.796875 
Q 2.734375 26.171875 5.078125 30.65625 
Q 7.421875 35.15625 12.890625 37.890625 
Q 8.203125 40.625 6.640625 43.9375 
Q 5.078125 47.265625 4.875 51.5625 
Q 4.6875 55.859375 6.046875 58.984375 
Q 7.421875 62.109375 10.15625 64.84375 
Q 12.890625 67.578125 16.203125 68.546875 
Q 19.53125 69.53125 23.4375 69.53125 
Q 27.34375 69.53125 30.46875 68.75 
Q 33.59375 67.96875 37.109375 65.421875 
Q 40.625 62.890625 42.1875 58.203125 
Q 43.75 53.515625 41.984375 47.265625 
Q 40.234375 41.015625 32.8125 37.5 
Q 39.453125 35.546875 42.1875 31.4375 
Q 44.921875 27.34375 44.921875 21.484375 
Q 44.921875 15.625 43.15625 12.109375 
Q 41.40625 8.59375 39.25 6.25 
Q 37.109375 3.90625 33.390625 2.53125 
Q 29.6875 1.171875 24.015625 1.171875 
Q 18.359375 1.171875 14.25 2.53125 
Q 10.15625 3.90625 7.421875 6.640625 
Q 4.6875 9.375 3.703125 13.078125 
Q 2.734375 16.796875 2.734375 26.171875 
z
M 10.9375 26.5625 
Q 10.546875 17.1875 12.296875 13.671875 
Q 14.0625 10.15625 18.75 9.171875 
Q 23.4375 8.203125 28.515625 9.375 
Q 33.59375 10.546875 35.546875 14.84375 
Q 37.5 19.140625 36.90625 23.4375 
Q 36.328125 27.734375 32.03125 30.65625 
Q 27.734375 33.59375 22.65625 33.203125 
Q 17.578125 32.8125 14.25 29.6875 
Q 10.9375 26.5625 10.546875 17.1875 
z
M 12.109375 56.25 
Q 12.109375 48.4375 14.84375 44.921875 
Q 17.578125 41.40625 23.4375 41.40625 
Q 29.296875 41.40625 32.21875 44.921875 
Q 35.15625 48.4375 34.953125 53.3125 
Q 34.765625 58.203125 31.4375 60.546875 
Q 28.125 62.890625 22.453125 62.5 
Q 16.796875 62.109375 14.453125 59.171875 
Q 12.109375 56.25 12.109375 48.4375 
z
" id="SimHei-38"/>
      </defs>
      <g transform="translate(249.902344 393.9375)scale(0.13 -0.13)">
       <use xlink:href="#SimHei-38"/>
       <use x="50" xlink:href="#SimHei-3a"/>
       <use x="100" xlink:href="#SimHei-30"/>
       <use x="150" xlink:href="#SimHei-30"/>
      </g>
     </g>
    </g>
    <g id="xtick_4">
     <g id="line2d_4">
      <g>
       <use style="stroke:#000000;stroke-width:0.8;" x="342.43988" xlink:href="#m0acb232d52" y="378"/>
      </g>
     </g>
     <g id="text_4">
      <!-- 12:00 -->
      <defs>
       <path d="M 21.875 56.25 
Q 16.796875 51.171875 8.984375 46.484375 
L 8.984375 53.90625 
Q 18.75 60.546875 25 69.53125 
L 29.6875 69.53125 
L 29.6875 2.34375 
L 21.875 2.34375 
z
" id="SimHei-31"/>
       <path d="M 4.6875 3.90625 
Q 5.078125 9.765625 10.15625 14.453125 
Q 15.234375 19.140625 23.046875 29.09375 
Q 30.859375 39.0625 33.203125 44.53125 
Q 35.546875 50 34.953125 53.90625 
Q 34.375 57.8125 31.25 60.34375 
Q 28.125 62.890625 24.015625 62.5 
Q 19.921875 62.109375 16.203125 59.375 
Q 12.5 56.640625 10.546875 51.171875 
L 3.125 52.34375 
Q 6.25 61.328125 11.125 65.421875 
Q 16.015625 69.53125 22.65625 69.921875 
Q 26.5625 70.3125 29.6875 69.71875 
Q 32.8125 69.140625 36.125 66.984375 
Q 39.453125 64.84375 41.59375 60.546875 
Q 43.75 56.25 43.15625 50.1875 
Q 42.578125 44.140625 37.109375 35.734375 
Q 31.640625 27.34375 16.015625 9.375 
L 44.140625 9.375 
L 44.140625 2.34375 
L 4.6875 2.34375 
z
" id="SimHei-32"/>
      </defs>
      <g transform="translate(326.18988 393.9375)scale(0.13 -0.13)">
       <use xlink:href="#SimHei-31"/>
       <use x="50" xlink:href="#SimHei-32"/>
       <use x="100" xlink:href="#SimHei-3a"/>
       <use x="150" xlink:href="#SimHei-30"/>
       <use x="200" xlink:href="#SimHei-30"/>
      </g>
     </g>
    </g>
    <g id="xtick_5">
     <g id="line2d_5">
      <g>
       <use style="stroke:#000000;stroke-width:0.8;" x="421.977415" xlink:href="#m0acb232d52" y="378"/>
      </g>
     </g>
     <g id="text_5">
      <!-- 16:00 -->
      <defs>
       <path d="M 3.515625 19.53125 
Q 4.296875 30.859375 6.046875 34.765625 
Q 7.8125 38.671875 11.328125 44.53125 
L 27.34375 69.53125 
L 36.328125 69.53125 
L 19.921875 43.75 
Q 30.46875 46.484375 36.71875 42.96875 
Q 42.96875 39.453125 45.109375 34.953125 
Q 47.265625 30.46875 47.453125 25.1875 
Q 47.65625 19.921875 45.890625 14.84375 
Q 44.140625 9.765625 39.640625 5.65625 
Q 35.15625 1.5625 27.140625 1.171875 
Q 19.140625 0.78125 13.46875 4.09375 
Q 7.8125 7.421875 5.65625 13.46875 
Q 3.515625 19.53125 4.296875 30.859375 
z
M 12.5 16.015625 
Q 19.53125 8.59375 25.390625 8.203125 
Q 31.25 7.8125 35.15625 12.109375 
Q 39.0625 16.40625 39.0625 24.609375 
Q 39.0625 32.8125 34.171875 35.9375 
Q 29.296875 39.0625 23.234375 38.28125 
Q 17.1875 37.5 14.453125 32.421875 
Q 11.71875 27.34375 12.109375 21.671875 
Q 12.5 16.015625 19.53125 8.59375 
z
" id="SimHei-36"/>
      </defs>
      <g transform="translate(405.727415 393.9375)scale(0.13 -0.13)">
       <use xlink:href="#SimHei-31"/>
       <use x="50" xlink:href="#SimHei-36"/>
       <use x="100" xlink:href="#SimHei-3a"/>
       <use x="150" xlink:href="#SimHei-30"/>
       <use x="200" xlink:href="#SimHei-30"/>
      </g>
     </g>
    </g>
    <g id="xtick_6">
     <g id="line2d_6">
      <g>
       <use style="stroke:#000000;stroke-width:0.8;" x="501.514951" xlink:href="#m0acb232d52" y="378"/>
      </g>
     </g>
     <g id="text_6">
      <!-- 20:00 -->
      <g transform="translate(485.264951 393.9375)scale(0.13 -0.13)">
       <use xlink:href="#SimHei-32"/>
       <use x="50" xlink:href="#SimHei-30"/>
       <use x="100" xlink:href="#SimHei-3a"/>
       <use x="150" xlink:href="#SimHei-30"/>
       <use x="200" xlink:href="#SimHei-30"/>
      </g>
     </g>
    </g>
    <g id="xtick_7">
     <g id="line2d_7">
      <g>
       <use style="stroke:#000000;stroke-width:0.8;" x="581.052487" xlink:href="#m0acb232d52" y="378"/>
      </g>
     </g>
    </g>
    <g id="text_7">
     <!-- 时刻 -->
     <defs>
      <path d="M 39.453125 71.484375 
Q 39.0625 57.421875 39.0625 37.5 
Q 39.0625 17.578125 39.453125 6.25 
L 31.25 6.25 
L 31.25 13.671875 
L 15.625 13.671875 
L 15.625 0.78125 
L 7.421875 0.78125 
Q 7.8125 18.75 7.8125 36.71875 
Q 7.8125 55.078125 7.421875 71.484375 
L 39.453125 71.484375 
z
M 76.171875 59.765625 
Q 76.171875 71.484375 75.78125 81.640625 
L 84.375 81.640625 
Q 83.984375 71.484375 83.984375 59.765625 
Q 89.84375 59.765625 96.484375 60.15625 
L 96.484375 52.734375 
Q 89.84375 53.125 83.984375 53.125 
L 83.984375 0.78125 
Q 83.984375 -5.078125 79.296875 -6.640625 
Q 74.609375 -8.203125 67.1875 -8.984375 
Q 67.1875 -4.296875 62.890625 0 
Q 70.3125 -0.78125 73.234375 -0.390625 
Q 76.171875 0 76.171875 4.6875 
L 76.171875 53.125 
Q 56.640625 53.125 43.359375 52.734375 
L 43.359375 60.15625 
Q 55.859375 59.765625 76.171875 59.765625 
z
M 31.25 20.3125 
L 31.25 39.84375 
L 15.625 39.84375 
L 15.625 20.3125 
z
M 31.25 46.484375 
L 31.25 64.84375 
L 15.625 64.84375 
L 15.625 46.484375 
z
M 55.46875 42.578125 
Q 60.546875 34.375 65.234375 25 
Q 61.328125 23.828125 57.03125 21.484375 
Q 53.90625 30.859375 48.046875 39.0625 
Q 51.5625 40.625 55.46875 42.578125 
z
" id="SimHei-65f6"/>
      <path d="M 45.3125 66.40625 
Q 52.34375 66.40625 58.984375 67.1875 
L 58.984375 59.375 
Q 53.515625 59.765625 45.3125 59.765625 
L 27.34375 59.765625 
Q 30.078125 57.421875 33.984375 55.46875 
Q 30.078125 53.90625 26.359375 49.40625 
Q 22.65625 44.921875 17.578125 40.625 
Q 23.046875 41.015625 26.953125 41.203125 
Q 30.859375 41.40625 35.9375 41.796875 
Q 38.28125 43.75 40.03125 46.28125 
Q 41.796875 48.828125 43.75 52.734375 
Q 47.265625 50 51.953125 47.265625 
Q 48.828125 44.921875 44.921875 40.234375 
Q 41.015625 35.546875 35.734375 30.265625 
Q 30.46875 25 24.40625 19.71875 
Q 18.359375 14.453125 10.15625 8.984375 
Q 7.8125 13.28125 4.296875 16.015625 
Q 11.71875 19.140625 18.546875 24.40625 
Q 25.390625 29.6875 32.03125 35.9375 
Q 22.65625 34.765625 17.96875 33.78125 
Q 13.28125 32.8125 10.9375 31.640625 
Q 8.984375 36.328125 6.25 39.84375 
Q 12.5 43.75 16.984375 49.21875 
Q 21.484375 54.6875 23.828125 59.765625 
L 17.1875 59.765625 
Q 10.15625 59.765625 3.515625 59.375 
L 3.515625 67.1875 
Q 10.15625 66.40625 16.796875 66.40625 
z
M 94.921875 79.6875 
Q 94.140625 74.21875 94.140625 66.40625 
L 94.140625 1.5625 
Q 94.140625 -4.296875 91.203125 -6.046875 
Q 88.28125 -7.8125 77.734375 -9.375 
Q 76.5625 -3.125 74.21875 0.390625 
Q 82.03125 0 83.984375 0.390625 
Q 85.9375 0.78125 85.9375 4.6875 
L 85.9375 66.40625 
Q 85.9375 72.265625 85.546875 79.6875 
L 94.921875 79.6875 
z
M 58.984375 30.46875 
Q 57.03125 28.90625 53.703125 25.1875 
Q 50.390625 21.484375 45.3125 16.015625 
Q 49.609375 13.28125 53.703125 9.765625 
Q 57.8125 6.25 62.5 2.34375 
Q 60.15625 0 55.078125 -3.90625 
Q 51.953125 0 48.625 3.703125 
Q 45.3125 7.421875 40.625 10.9375 
Q 32.03125 3.90625 25.578125 -0.1875 
Q 19.140625 -4.296875 10.546875 -10.15625 
Q 8.59375 -5.078125 5.078125 -2.734375 
Q 15.234375 1.5625 22.84375 6.828125 
Q 30.46875 12.109375 36.125 17.375 
Q 41.796875 22.65625 44.921875 26.953125 
Q 48.046875 31.25 50.390625 35.9375 
L 58.984375 30.46875 
z
M 74.609375 65.625 
Q 74.21875 60.15625 74.21875 53.90625 
L 74.21875 25 
Q 74.21875 18.75 75 12.109375 
L 65.234375 12.109375 
Q 66.015625 17.578125 66.015625 25 
L 66.015625 55.078125 
Q 66.015625 60.546875 65.625 65.625 
L 74.609375 65.625 
z
M 33.203125 82.8125 
Q 34.765625 79.6875 36.125 76.75 
Q 37.5 73.828125 39.0625 70.3125 
Q 35.15625 69.140625 30.46875 67.1875 
Q 29.296875 71.09375 27.921875 73.828125 
Q 26.5625 76.5625 25 79.296875 
Q 29.6875 80.859375 33.203125 82.8125 
z
" id="SimHei-523b"/>
     </defs>
     <g transform="translate(318.1 410.828125)scale(0.14 -0.14)">
      <use xlink:href="#SimHei-65f6"/>
      <use x="100" xlink:href="#SimHei-523b"/>
     </g>
    </g>
   </g>
   <g id="matplotlib.axis_2">
    <g id="ytick_1">
     <g id="line2d_8">
      <defs>
       <path d="M 0 0 
L -3.5 0 
" id="m59a7fe8cd6" style="stroke:#000000;stroke-width:0.8;"/>
      </defs>
      <g>
       <use style="stroke:#000000;stroke-width:0.8;" x="81" xlink:href="#m59a7fe8cd6" y="361.73737"/>
      </g>
     </g>
     <g id="text_8">
      <!-- 0 -->
      <g transform="translate(69 365.17487)scale(0.1 -0.1)">
       <use xlink:href="#SimHei-30"/>
      </g>
     </g>
    </g>
    <g id="ytick_2">
     <g id="line2d_9">
      <g>
       <use style="stroke:#000000;stroke-width:0.8;" x="81" xlink:href="#m59a7fe8cd6" y="289.390988"/>
      </g>
     </g>
     <g id="text_9">
      <!-- 1 -->
      <g transform="translate(69 292.828488)scale(0.1 -0.1)">
       <use xlink:href="#SimHei-31"/>
      </g>
     </g>
    </g>
    <g id="ytick_3">
     <g id="line2d_10">
      <g>
       <use style="stroke:#000000;stroke-width:0.8;" x="81" xlink:href="#m59a7fe8cd6" y="217.044607"/>
      </g>
     </g>
     <g id="text_10">
      <!-- 2 -->
      <g transform="translate(69 220.482107)scale(0.1 -0.1)">
       <use xlink:href="#SimHei-32"/>
      </g>
     </g>
    </g>
    <g id="ytick_4">
     <g id="line2d_11">
      <g>
       <use style="stroke:#000000;stroke-width:0.8;" x="81" xlink:href="#m59a7fe8cd6" y="144.698225"/>
      </g>
     </g>
     <g id="text_11">
      <!-- 3 -->
      <defs>
       <path d="M 3.90625 19.140625 
L 10.9375 20.3125 
Q 12.5 15.234375 16.015625 11.90625 
Q 19.53125 8.59375 24.796875 8.78125 
Q 30.078125 8.984375 33.203125 13.078125 
Q 36.328125 17.1875 35.9375 22.453125 
Q 35.546875 27.734375 31.828125 30.65625 
Q 28.125 33.59375 19.921875 34.765625 
L 19.921875 39.84375 
Q 28.125 40.625 31.828125 44.140625 
Q 35.546875 47.65625 35.15625 53.3125 
Q 34.765625 58.984375 30.078125 61.515625 
Q 25.390625 64.0625 20.109375 62.109375 
Q 14.84375 60.15625 11.71875 51.171875 
L 4.6875 52.34375 
Q 7.03125 59.375 11.125 64.0625 
Q 15.234375 68.75 22.265625 69.53125 
Q 29.296875 70.3125 34.5625 67.765625 
Q 39.84375 65.234375 41.984375 59.953125 
Q 44.140625 54.6875 42.578125 48.4375 
Q 41.015625 42.1875 33.59375 37.5 
Q 39.0625 35.15625 41.984375 30.46875 
Q 44.921875 25.78125 43.9375 18.15625 
Q 42.96875 10.546875 37.109375 5.859375 
Q 31.25 1.171875 23.828125 1.359375 
Q 16.40625 1.5625 10.9375 6.046875 
Q 5.46875 10.546875 3.90625 19.140625 
z
" id="SimHei-33"/>
      </defs>
      <g transform="translate(69 148.135725)scale(0.1 -0.1)">
       <use xlink:href="#SimHei-33"/>
      </g>
     </g>
    </g>
    <g id="ytick_5">
     <g id="line2d_12">
      <g>
       <use style="stroke:#000000;stroke-width:0.8;" x="81" xlink:href="#m59a7fe8cd6" y="72.351844"/>
      </g>
     </g>
     <g id="text_12">
      <!-- 4 -->
      <g transform="translate(69 75.789344)scale(0.1 -0.1)">
       <use xlink:href="#SimHei-34"/>
      </g>
     </g>
    </g>
    <g id="text_13">
     <!-- 功率(kW) -->
     <defs>
      <path d="M 88.671875 4.296875 
Q 87.109375 -3.125 81.640625 -4.875 
Q 76.171875 -6.640625 69.53125 -7.421875 
Q 68.75 -2.734375 65.625 1.5625 
Q 73.828125 1.171875 77.140625 2.140625 
Q 80.46875 3.125 80.859375 6.640625 
Q 82.8125 27.734375 83.984375 51.171875 
L 66.40625 51.171875 
Q 66.015625 39.84375 64.453125 30.078125 
Q 62.890625 20.3125 59.171875 13.28125 
Q 55.46875 6.25 50.78125 0.78125 
Q 46.09375 -4.6875 39.84375 -10.15625 
Q 37.109375 -6.25 32.8125 -3.90625 
Q 41.40625 1.5625 45.703125 6.640625 
Q 50 11.71875 53.125 18.15625 
Q 56.25 24.609375 57.421875 32.421875 
Q 58.59375 40.234375 58.984375 51.171875 
L 53.125 51.171875 
Q 48.4375 51.171875 43.75 50.78125 
L 43.75 58.203125 
Q 48.828125 57.8125 53.90625 57.8125 
L 58.984375 57.8125 
L 58.984375 71.484375 
Q 58.984375 76.171875 58.59375 80.859375 
Q 63.671875 79.6875 67.578125 79.296875 
Q 66.796875 76.5625 66.59375 70.703125 
Q 66.40625 64.84375 66.40625 57.8125 
L 92.1875 57.8125 
Q 91.796875 52.34375 91.40625 47.453125 
Q 91.015625 42.578125 88.671875 4.296875 
z
M 45.3125 15.625 
Q 38.671875 14.0625 34.375 13.078125 
Q 30.078125 12.109375 20.890625 9.375 
Q 11.71875 6.640625 7.8125 5.46875 
Q 6.25 10.9375 4.6875 14.0625 
Q 7.03125 14.0625 21.484375 17.1875 
L 21.484375 60.9375 
L 18.359375 60.9375 
Q 13.671875 60.9375 7.03125 60.546875 
L 7.03125 67.96875 
Q 13.28125 67.578125 18.359375 67.578125 
L 32.8125 67.578125 
Q 38.28125 67.578125 42.578125 67.96875 
L 42.578125 60.546875 
Q 37.890625 60.9375 33.203125 60.9375 
L 29.296875 60.9375 
L 29.296875 18.75 
L 37.109375 20.703125 
Q 40.234375 21.484375 44.53125 22.65625 
z
" id="SimHei-529f"/>
      <path d="M 51.953125 80.46875 
Q 53.515625 76.5625 55.46875 70.703125 
L 75 70.703125 
Q 82.03125 70.703125 90.625 71.09375 
L 90.625 64.453125 
Q 82.03125 65.234375 74.609375 65.234375 
L 43.75 65.234375 
Q 46.484375 63.28125 51.5625 60.9375 
Q 48.046875 58.59375 44.921875 55.265625 
Q 41.796875 51.953125 38.671875 48.828125 
L 51.171875 48.828125 
Q 55.859375 53.515625 58.984375 58.984375 
Q 62.5 56.25 66.796875 53.515625 
Q 61.71875 50.78125 56.25 44.921875 
Q 50.78125 39.0625 41.015625 31.25 
L 60.15625 32.8125 
Q 58.203125 35.15625 56.25 37.890625 
Q 58.59375 38.671875 62.5 41.40625 
Q 66.40625 36.71875 73.4375 26.5625 
Q 69.921875 25.390625 66.015625 22.65625 
Q 65.234375 25 62.890625 27.734375 
Q 57.8125 27.34375 53.515625 27.34375 
L 53.515625 16.40625 
L 80.46875 16.40625 
Q 88.671875 16.40625 95.3125 16.796875 
L 95.3125 10.15625 
Q 89.0625 10.546875 80.078125 10.546875 
L 53.515625 10.546875 
L 53.515625 2.734375 
Q 53.515625 -4.6875 53.90625 -9.765625 
L 45.3125 -9.765625 
Q 45.703125 -4.6875 45.703125 2.734375 
L 45.703125 10.546875 
L 20.703125 10.546875 
Q 12.890625 10.546875 5.078125 10.15625 
L 5.078125 16.796875 
Q 12.890625 16.40625 21.09375 16.40625 
L 45.703125 16.40625 
L 45.703125 26.5625 
Q 42.1875 26.171875 38.671875 25.578125 
Q 35.15625 25 31.640625 23.828125 
Q 30.46875 27.734375 28.90625 31.25 
Q 32.421875 31.640625 36.328125 34.375 
Q 40.234375 37.109375 46.484375 43.75 
Q 35.9375 42.578125 31.640625 41.015625 
Q 30.859375 44.921875 28.90625 49.609375 
Q 32.421875 49.609375 36.328125 54.484375 
Q 40.234375 59.375 42.96875 65.234375 
L 26.5625 65.234375 
Q 17.96875 65.234375 10.15625 64.453125 
L 10.15625 71.09375 
Q 17.96875 70.703125 24.21875 70.703125 
L 46.484375 70.703125 
Q 45.3125 75.390625 43.75 78.515625 
Q 47.265625 79.296875 51.953125 80.46875 
z
M 25.390625 40.234375 
Q 26.953125 37.5 28.515625 34.375 
Q 24.609375 32.03125 20.703125 29.09375 
Q 16.796875 26.171875 12.5 22.265625 
Q 9.765625 26.171875 7.421875 29.296875 
Q 12.5 31.640625 17.1875 34.5625 
Q 21.875 37.5 25.390625 40.234375 
z
M 75.78125 41.40625 
Q 80.078125 38.671875 83.390625 36.515625 
Q 86.71875 34.375 91.796875 30.46875 
Q 88.671875 28.125 85.9375 25 
Q 82.8125 27.734375 79.09375 30.859375 
Q 75.390625 33.984375 71.484375 36.328125 
Q 73.828125 38.671875 75.78125 41.40625 
z
M 89.453125 55.078125 
Q 86.71875 53.90625 82.8125 50.96875 
Q 78.90625 48.046875 75 44.140625 
Q 72.265625 47.65625 69.921875 49.609375 
Q 73.4375 51.953125 76.171875 54.484375 
Q 78.90625 57.03125 82.8125 61.328125 
Q 86.328125 57.8125 89.453125 55.078125 
z
M 16.40625 60.15625 
Q 22.265625 56.25 27.734375 51.171875 
Q 24.609375 48.4375 22.265625 45.703125 
Q 16.796875 51.5625 10.546875 55.078125 
Q 13.671875 57.8125 16.40625 60.15625 
z
" id="SimHei-7387"/>
      <path d="M 46.484375 -3.125 
L 42.1875 -7.421875 
Q 32.421875 1.953125 27.53125 12.109375 
Q 22.65625 22.265625 22.65625 35.15625 
Q 22.65625 48.046875 27.53125 58.203125 
Q 32.421875 68.359375 42.1875 78.125 
L 46.484375 73.828125 
Q 37.5 65.234375 33 56.046875 
Q 28.515625 46.875 28.515625 35.15625 
Q 28.515625 23.4375 33 14.25 
Q 37.5 5.078125 46.484375 -3.125 
z
" id="SimHei-28"/>
      <path d="M 45.703125 1.953125 
L 36.71875 1.953125 
L 22.65625 25.78125 
L 13.671875 17.1875 
L 13.671875 1.953125 
L 5.859375 1.953125 
L 5.859375 68.75 
L 13.671875 68.75 
L 13.671875 26.171875 
L 33.203125 45.703125 
L 42.96875 45.703125 
L 27.734375 30.859375 
z
" id="SimHei-6b"/>
      <path d="M 48.046875 68.75 
L 39.453125 1.171875 
L 31.640625 1.171875 
L 24.609375 51.171875 
L 23.828125 51.171875 
L 16.796875 1.171875 
L 8.984375 1.171875 
L 0.390625 68.75 
L 8.984375 68.75 
L 13.28125 26.171875 
L 14.0625 26.171875 
L 19.921875 68.75 
L 28.515625 68.75 
L 34.375 26.171875 
L 35.15625 26.171875 
L 39.453125 68.75 
z
" id="SimHei-57"/>
      <path d="M 26.171875 35.15625 
Q 26.171875 22.265625 21.28125 12.109375 
Q 16.40625 1.953125 6.640625 -7.421875 
L 2.34375 -3.125 
Q 11.328125 5.078125 15.8125 14.25 
Q 20.3125 23.4375 20.3125 35.15625 
Q 20.3125 46.875 15.8125 56.046875 
Q 11.328125 65.234375 2.34375 73.828125 
L 6.640625 78.125 
Q 16.40625 68.359375 21.28125 58.203125 
Q 26.171875 48.046875 26.171875 35.15625 
z
" id="SimHei-29"/>
     </defs>
     <g transform="translate(63.25 242.92)rotate(-90)scale(0.14 -0.14)">
      <use xlink:href="#SimHei-529f"/>
      <use x="100" xlink:href="#SimHei-7387"/>
      <use x="200" xlink:href="#SimHei-28"/>
      <use x="250" xlink:href="#SimHei-6b"/>
      <use x="300" xlink:href="#SimHei-57"/>
      <use x="350" xlink:href="#SimHei-29"/>
     </g>
    </g>
   </g>
   <g id="line2d_13">
    <path clip-path="url(#p4294805f8f)" d="M 103.827273 361.703608 
L 145.186791 361.7229 
L 162.685049 361.708431 
L 170.638803 361.718077 
L 180.183307 361.73737 
L 218.361324 361.698785 
L 219.952075 361.732544 
L 221.542825 360.034819 
L 223.133576 356.20046 
L 224.724327 349.824332 
L 226.315078 347.461017 
L 227.905828 347.055876 
L 229.496579 340.829263 
L 231.08733 339.025429 
L 232.67808 337.867888 
L 234.268831 334.583365 
L 235.859582 333.146081 
L 237.450333 329.306901 
L 239.041083 325.130098 
L 242.222585 318.416361 
L 243.813335 314.94373 
L 245.404086 308.273401 
L 246.994837 302.659317 
L 248.585588 302.095008 
L 250.176338 296.842673 
L 251.767089 287.582322 
L 253.35784 263.143714 
L 254.94859 233.703562 
L 256.539341 225.948037 
L 258.130092 238.309625 
L 259.720843 239.481643 
L 261.311593 240.991259 
L 264.493095 235.261426 
L 266.083845 230.814547 
L 269.265347 198.514311 
L 270.856098 181.493581 
L 272.446848 170.63682 
L 274.037599 163.373228 
L 278.809851 144.162862 
L 280.400602 138.172582 
L 281.991353 132.987734 
L 283.582103 125.222558 
L 288.354355 108.650433 
L 289.945106 104.092611 
L 291.535857 99.896499 
L 293.126608 96.317769 
L 294.717358 94.682748 
L 296.308109 90.375737 
L 297.89886 87.129786 
L 299.48961 84.226309 
L 301.080361 81.790638 
L 302.671112 80.980329 
L 304.261863 78.163631 
L 305.852613 77.083268 
L 307.443364 77.71028 
L 309.034115 75.660497 
L 312.215616 72.038331 
L 313.806367 70.731328 
L 315.397118 70.355084 
L 316.987868 70.403361 
L 318.578619 68.830934 
L 320.16937 68.98043 
L 321.76012 68.435488 
L 324.941622 66.665455 
L 326.532373 68.507791 
L 328.123123 69.602681 
L 329.713874 70.273115 
L 331.304625 69.501397 
L 332.895375 70.167019 
L 334.486126 71.305259 
L 336.076877 69.429014 
L 337.667627 68.879196 
L 339.258378 70.142892 
L 340.849129 69.949922 
L 342.43988 74.830901 
L 344.03063 76.248919 
L 345.621381 76.031858 
L 347.212132 75.597809 
L 348.802882 77.787466 
L 350.393633 79.34287 
L 351.984384 82.318773 
L 353.575135 87.899118 
L 355.165885 88.868523 
L 356.756636 91.72135 
L 358.347387 91.957655 
L 359.938137 93.486631 
L 361.528888 96.187589 
L 364.71039 104.027513 
L 366.30114 105.341816 
L 367.891891 110.439812 
L 369.482642 112.183389 
L 371.073392 115.455796 
L 372.664143 119.991936 
L 374.254894 121.933207 
L 375.845645 126.852782 
L 377.436395 131.196003 
L 379.027146 136.089006 
L 380.617897 139.609873 
L 382.208647 143.540683 
L 383.799398 149.755209 
L 386.9809 160.284067 
L 391.753152 173.750145 
L 393.343902 180.495215 
L 394.934653 186.533743 
L 396.525404 193.124477 
L 398.116155 198.936308 
L 399.706905 205.732035 
L 401.297656 211.249662 
L 402.888407 218.657931 
L 406.069908 232.81852 
L 409.25141 247.483131 
L 410.84216 254.201708 
L 414.023662 269.449916 
L 417.205163 284.288152 
L 418.795914 292.226967 
L 421.977415 310.718702 
L 423.568166 321.893808 
L 425.158917 334.448312 
L 426.749667 342.0061 
L 428.340418 346.749611 
L 429.931169 352.771242 
L 431.52192 355.578283 
L 433.11267 356.740646 
L 434.703421 358.064586 
L 436.294172 359.005089 
L 437.884922 360.398962 
L 439.475673 361.517919 
L 441.066424 361.886886 
L 444.247925 361.73737 
L 453.79243 361.6602 
L 461.746183 361.747016 
L 464.927685 361.698785 
L 468.109186 361.751839 
L 474.472189 361.703608 
L 503.105702 361.693962 
L 504.696452 361.650554 
L 507.877954 361.732544 
L 515.831707 361.698785 
L 520.603959 361.698785 
L 560.372727 361.684316 
L 560.372727 361.684316 
" style="fill:none;stroke:#000000;stroke-linecap:square;stroke-width:1.5;"/>
   </g>
   <g id="line2d_14">
    <path clip-path="url(#p4294805f8f)" d="M 103.827273 363.174545 
L 165.866551 363.067482 
L 177.001806 362.821354 
L 183.364808 362.52431 
L 191.318562 361.934378 
L 196.090814 361.460878 
L 199.272315 360.921243 
L 204.044568 360.043125 
L 210.40757 358.535978 
L 211.998321 358.046173 
L 213.589072 357.672769 
L 215.179823 357.031123 
L 216.770573 356.572325 
L 218.361324 355.882071 
L 219.952075 355.37152 
L 224.724327 353.457801 
L 227.905828 352.06977 
L 232.67808 349.640894 
L 234.268831 348.271316 
L 235.859582 346.475192 
L 237.450333 343.83128 
L 239.041083 341.853109 
L 240.631834 335.676529 
L 242.222585 323.174792 
L 243.813335 295.780483 
L 245.404086 292.232482 
L 246.994837 292.336966 
L 248.585588 266.804614 
L 250.176338 262.55056 
L 251.767089 254.715071 
L 253.35784 248.063248 
L 254.94859 245.961224 
L 256.539341 239.760191 
L 258.130092 234.265903 
L 259.720843 229.325318 
L 261.311593 224.993998 
L 262.902344 221.469825 
L 264.493095 215.074564 
L 266.083845 210.306583 
L 267.674596 210.458945 
L 269.265347 207.261669 
L 270.856098 200.668548 
L 272.446848 180.599755 
L 274.037599 163.477704 
L 275.62835 160.776435 
L 277.2191 164.714371 
L 280.400602 167.516057 
L 281.991353 165.752563 
L 283.582103 164.158143 
L 285.172854 161.607904 
L 288.354355 140.758748 
L 289.945106 130.965508 
L 291.535857 125.435734 
L 296.308109 115.651732 
L 297.89886 113.411215 
L 299.48961 110.899284 
L 301.080361 109.112661 
L 302.671112 106.084704 
L 307.443364 101.155977 
L 309.034115 100.348866 
L 310.624865 98.840054 
L 312.215616 97.67752 
L 315.397118 95.880949 
L 316.987868 94.995176 
L 318.578619 94.390635 
L 320.16937 94.252128 
L 321.76012 94.696198 
L 323.350871 94.192189 
L 324.941622 94.384963 
L 326.532373 95.21992 
L 328.123123 95.429218 
L 329.713874 95.793547 
L 331.304625 95.787478 
L 332.895375 95.512684 
L 334.486126 95.878721 
L 336.076877 96.56693 
L 337.667627 96.688841 
L 339.258378 97.567488 
L 342.43988 98.769089 
L 344.03063 99.515335 
L 345.621381 101.160318 
L 348.802882 103.512711 
L 350.393633 103.898672 
L 351.984384 104.485365 
L 353.575135 106.104629 
L 355.165885 105.970267 
L 356.756636 106.689788 
L 358.347387 108.206175 
L 359.938137 109.123151 
L 361.528888 112.470083 
L 363.119639 113.837762 
L 364.71039 114.708256 
L 366.30114 115.301778 
L 369.482642 119.147024 
L 371.073392 121.863349 
L 372.664143 125.991882 
L 374.254894 128.05735 
L 375.845645 131.014211 
L 377.436395 132.394349 
L 379.027146 134.220748 
L 380.617897 137.70908 
L 383.799398 146.203971 
L 385.390149 148.441131 
L 386.9809 154.036458 
L 388.57165 156.978575 
L 390.162401 161.468536 
L 391.753152 166.76262 
L 393.343902 169.820904 
L 398.116155 188.056512 
L 401.297656 198.733665 
L 402.888407 206.082423 
L 407.660659 225.537631 
L 409.25141 233.385441 
L 410.84216 239.967883 
L 412.432911 248.996227 
L 414.023662 256.440981 
L 415.614412 266.049615 
L 417.205163 272.566743 
L 418.795914 281.093285 
L 420.386665 287.591206 
L 421.977415 296.364051 
L 428.340418 325.642454 
L 429.931169 330.424556 
L 431.52192 336.085207 
L 433.11267 340.452033 
L 434.703421 344.201231 
L 436.294172 347.264326 
L 439.475673 352.628952 
L 441.066424 354.829293 
L 442.657175 356.599391 
L 444.247925 358.037373 
L 445.838676 358.890053 
L 447.429427 359.59373 
L 449.020177 360.100162 
L 450.610928 360.442937 
L 455.38318 360.869568 
L 461.746183 361.22316 
L 477.65369 361.652125 
L 515.831707 362.275938 
L 560.372727 362.677534 
L 560.372727 362.677534 
" style="fill:none;stroke:#1f77b4;stroke-dasharray:5.55,2.4;stroke-dashoffset:0;stroke-width:1.5;"/>
   </g>
   <g id="line2d_15">
    <path clip-path="url(#p4294805f8f)" d="M 103.827273 361.831185 
L 205.635318 361.672198 
L 210.40757 361.378068 
L 213.589072 360.999184 
L 216.770573 360.290307 
L 218.361324 358.383294 
L 219.952075 357.205107 
L 221.542825 355.560912 
L 223.133576 353.568835 
L 224.724327 351.168444 
L 226.315078 348.389774 
L 227.905828 345.204248 
L 231.08733 338.315029 
L 232.67808 334.941898 
L 234.268831 331.280712 
L 235.859582 328.280359 
L 237.450333 324.094448 
L 239.041083 323.465678 
L 240.631834 321.200088 
L 242.222585 316.757548 
L 243.813335 303.53574 
L 245.404086 299.353136 
L 246.994837 298.599496 
L 248.585588 273.699362 
L 250.176338 266.952548 
L 251.767089 257.428567 
L 253.35784 249.388272 
L 254.94859 246.401835 
L 256.539341 240.022244 
L 258.130092 232.862637 
L 259.720843 226.665366 
L 261.311593 221.231097 
L 262.902344 217.212212 
L 264.493095 211.511614 
L 266.083845 206.794224 
L 267.674596 205.479336 
L 269.265347 202.707196 
L 270.856098 197.190901 
L 272.446848 181.341827 
L 274.037599 168.176073 
L 275.62835 166.64845 
L 277.2191 168.834584 
L 280.400602 169.842529 
L 283.582103 166.414417 
L 285.172854 164.038178 
L 286.763605 155.249923 
L 288.354355 145.758317 
L 289.945106 135.329391 
L 291.535857 128.57964 
L 293.126608 124.357498 
L 294.717358 120.55843 
L 296.308109 116.026609 
L 299.48961 108.708491 
L 301.080361 105.746456 
L 302.671112 101.042523 
L 305.852613 95.504097 
L 307.443364 92.699249 
L 309.034115 91.000317 
L 310.624865 88.646231 
L 312.215616 86.73824 
L 313.806367 85.996806 
L 315.397118 84.081891 
L 316.987868 82.544494 
L 320.16937 80.775083 
L 321.76012 80.962235 
L 323.350871 80.144229 
L 324.941622 80.235096 
L 326.532373 81.20822 
L 328.123123 81.105467 
L 331.304625 80.576723 
L 332.895375 80.505542 
L 334.486126 80.938846 
L 336.076877 81.7342 
L 337.667627 81.803226 
L 339.258378 82.75822 
L 344.03063 84.267626 
L 345.621381 86.36986 
L 347.212132 87.980326 
L 348.802882 89.392253 
L 350.393633 89.773482 
L 351.984384 91.162815 
L 353.575135 93.099158 
L 355.165885 92.897949 
L 356.756636 93.680027 
L 358.347387 95.462577 
L 359.938137 96.425558 
L 361.528888 100.811594 
L 363.119639 103.019728 
L 364.71039 104.128321 
L 366.30114 104.956513 
L 369.482642 110.037508 
L 371.073392 113.911708 
L 372.664143 119.478906 
L 374.254894 122.140139 
L 375.845645 125.984098 
L 377.436395 127.238396 
L 379.027146 129.616826 
L 380.617897 133.607467 
L 382.208647 138.359561 
L 383.799398 143.879069 
L 385.390149 147.113032 
L 386.9809 153.585023 
L 388.57165 157.13697 
L 390.162401 161.839261 
L 391.753152 167.574361 
L 393.343902 171.626923 
L 394.934653 178.300891 
L 396.525404 184.450507 
L 398.116155 191.74575 
L 401.297656 204.01689 
L 407.660659 236.170841 
L 409.25141 242.834146 
L 410.84216 250.427434 
L 417.205163 294.541569 
L 418.795914 307.486342 
L 420.386665 318.055768 
L 421.977415 329.646382 
L 423.568166 338.528088 
L 425.158917 345.980127 
L 426.749667 351.283146 
L 428.340418 354.230919 
L 429.931169 356.88013 
L 431.52192 358.696687 
L 433.11267 359.745978 
L 434.703421 360.442129 
L 437.884922 361.167425 
L 441.066424 361.539087 
L 445.838676 361.761355 
L 453.79243 361.846184 
L 560.372727 361.839923 
L 560.372727 361.839923 
" style="fill:none;stroke:#ff7f0e;stroke-dasharray:1.5,2.475;stroke-dashoffset:0;stroke-width:1.5;"/>
   </g>
   <g id="line2d_16">
    <path clip-path="url(#p4294805f8f)" d="M 103.827273 361.765049 
L 121.325531 361.671612 
L 122.916281 361.861456 
L 156.322046 361.825417 
L 178.592556 362.014937 
L 181.774058 361.897629 
L 197.681565 361.851555 
L 200.863066 361.628082 
L 205.635318 361.491223 
L 207.226069 361.3432 
L 208.81682 361.333166 
L 210.40757 361.193323 
L 211.998321 360.894935 
L 213.589072 360.725808 
L 215.179823 360.085702 
L 216.770573 359.715892 
L 218.361324 358.906143 
L 219.952075 358.436103 
L 224.724327 355.546661 
L 226.315078 354.355427 
L 227.905828 352.789008 
L 231.08733 349.122433 
L 232.67808 346.997415 
L 235.859582 340.23948 
L 237.450333 337.627514 
L 239.041083 336.974726 
L 240.631834 334.033021 
L 242.222585 328.724738 
L 243.813335 317.661268 
L 245.404086 313.765812 
L 246.994837 313.045028 
L 248.585588 292.828476 
L 250.176338 286.364327 
L 251.767089 276.230328 
L 253.35784 267.006389 
L 254.94859 262.997451 
L 256.539341 250.570007 
L 258.130092 241.215822 
L 259.720843 232.65888 
L 261.311593 225.099595 
L 262.902344 219.380324 
L 264.493095 211.803994 
L 266.083845 205.541098 
L 267.674596 203.442503 
L 269.265347 200.067205 
L 270.856098 194.678238 
L 272.446848 179.199491 
L 274.037599 166.742891 
L 275.62835 161.904148 
L 277.2191 162.959863 
L 278.809851 163.175231 
L 280.400602 163.231126 
L 283.582103 158.979582 
L 285.172854 156.442937 
L 288.354355 141.542433 
L 289.945106 134.437917 
L 291.535857 129.923112 
L 293.126608 126.948012 
L 294.717358 121.686361 
L 297.89886 116.428833 
L 301.080361 112.083391 
L 302.671112 109.478661 
L 305.852613 105.713025 
L 307.443364 104.587511 
L 309.034115 102.804548 
L 312.215616 99.968411 
L 313.806367 99.412465 
L 315.397118 97.041696 
L 320.16937 93.669356 
L 321.76012 93.57391 
L 323.350871 92.386062 
L 324.941622 92.502597 
L 326.532373 93.435178 
L 331.304625 92.021197 
L 332.895375 91.172581 
L 336.076877 92.351509 
L 337.667627 92.496853 
L 339.258378 93.300086 
L 340.849129 93.812805 
L 342.43988 93.968892 
L 344.03063 94.469088 
L 345.621381 96.643342 
L 347.212132 98.57761 
L 348.802882 100.104603 
L 350.393633 100.88632 
L 351.984384 101.909067 
L 353.575135 103.822686 
L 355.165885 104.211939 
L 356.756636 105.329379 
L 358.347387 107.415668 
L 359.938137 108.824418 
L 361.528888 113.213862 
L 363.119639 116.000659 
L 364.71039 117.639304 
L 366.30114 119.089292 
L 369.482642 124.705231 
L 371.073392 127.942456 
L 372.664143 133.186563 
L 374.254894 136.112034 
L 375.845645 139.845556 
L 377.436395 141.196805 
L 379.027146 143.897763 
L 380.617897 147.505988 
L 382.208647 151.90721 
L 383.799398 157.454274 
L 385.390149 161.003682 
L 386.9809 166.742421 
L 388.57165 170.30085 
L 390.162401 174.319388 
L 391.753152 179.615758 
L 393.343902 184.142811 
L 396.525404 196.099823 
L 398.116155 203.03868 
L 399.706905 208.768137 
L 401.297656 215.060609 
L 402.888407 222.244004 
L 406.069908 238.050675 
L 410.84216 257.692675 
L 414.023662 276.280898 
L 417.205163 294.285623 
L 418.795914 304.346194 
L 420.386665 313.036933 
L 421.977415 323.632741 
L 423.568166 332.779479 
L 425.158917 341.24842 
L 426.749667 348.268499 
L 428.340418 351.992121 
L 429.931169 354.69285 
L 433.11267 357.118126 
L 434.703421 358.312294 
L 437.884922 360.092152 
L 441.066424 361.568288 
L 442.657175 361.92212 
L 447.429427 362.129064 
L 458.564682 361.877039 
L 471.290687 361.832075 
L 560.372727 361.814065 
L 560.372727 361.814065 
" style="fill:none;stroke:#2ca02c;stroke-dasharray:9.6,2.4,1.5,2.4;stroke-dashoffset:0;stroke-width:1.5;"/>
   </g>
   <g id="patch_3">
    <path d="M 81 378 
L 81 51.84 
" style="fill:none;stroke:#000000;stroke-linecap:square;stroke-linejoin:miter;stroke-width:0.8;"/>
   </g>
   <g id="patch_4">
    <path d="M 583.2 378 
L 583.2 51.84 
" style="fill:none;stroke:#000000;stroke-linecap:square;stroke-linejoin:miter;stroke-width:0.8;"/>
   </g>
   <g id="patch_5">
    <path d="M 81 378 
L 583.2 378 
" style="fill:none;stroke:#000000;stroke-linecap:square;stroke-linejoin:miter;stroke-width:0.8;"/>
   </g>
   <g id="patch_6">
    <path d="M 81 51.84 
L 583.2 51.84 
" style="fill:none;stroke:#000000;stroke-linecap:square;stroke-linejoin:miter;stroke-width:0.8;"/>
   </g>
   <g id="legend_1">
    <g id="patch_7">
     <path d="M 485.3 123.2025 
L 575.5 123.2025 
Q 577.7 123.2025 577.7 121.0025 
L 577.7 59.54 
Q 577.7 57.34 575.5 57.34 
L 485.3 57.34 
Q 483.1 57.34 483.1 59.54 
L 483.1 121.0025 
Q 483.1 123.2025 485.3 123.2025 
z
" style="fill:#ffffff;opacity:0.8;stroke:#cccccc;stroke-linejoin:miter;"/>
    </g>
    <g id="line2d_17">
     <path d="M 487.5 66.698594 
L 509.5 66.698594 
" style="fill:none;stroke:#000000;stroke-linecap:square;stroke-width:1.5;"/>
    </g>
    <g id="line2d_18"/>
    <g id="text_14">
     <!-- 真实值 -->
     <defs>
      <path d="M 55.46875 79.6875 
Q 53.90625 76.953125 53.125 72.265625 
L 75.78125 72.265625 
Q 80.859375 72.265625 89.453125 72.65625 
L 89.453125 66.40625 
Q 81.25 66.796875 75.78125 66.796875 
L 52.34375 66.796875 
L 51.5625 60.15625 
L 78.90625 60.15625 
Q 78.515625 55.46875 78.515625 49.21875 
L 78.515625 16.796875 
L 84.375 16.796875 
Q 90.625 16.796875 94.921875 17.1875 
L 94.921875 9.765625 
Q 87.109375 10.15625 76.5625 10.15625 
L 22.65625 10.15625 
Q 12.109375 10.15625 5.46875 9.765625 
L 5.46875 17.1875 
Q 11.328125 16.796875 17.1875 16.796875 
L 22.265625 16.796875 
L 22.265625 48.046875 
Q 22.265625 53.90625 21.875 60.15625 
L 44.140625 60.15625 
L 44.53125 66.796875 
L 21.875 66.796875 
Q 16.40625 66.796875 9.765625 66.40625 
L 9.765625 72.65625 
Q 18.359375 72.265625 21.484375 72.265625 
L 45.703125 72.265625 
Q 46.09375 76.171875 46.09375 80.078125 
Q 51.5625 79.6875 55.46875 79.6875 
z
M 63.671875 8.203125 
Q 70.3125 6.640625 76.953125 3.90625 
Q 83.59375 1.171875 91.015625 -2.34375 
Q 86.71875 -6.640625 85.15625 -8.984375 
Q 78.515625 -4.6875 71.09375 -1.5625 
Q 63.671875 1.5625 59.375 2.734375 
Q 61.328125 5.46875 63.671875 8.203125 
z
M 70.703125 49.21875 
L 70.703125 54.296875 
L 30.078125 54.296875 
L 30.078125 49.21875 
z
M 70.703125 16.796875 
L 70.703125 21.875 
L 30.078125 21.875 
L 30.078125 16.796875 
z
M 43.359375 3.125 
Q 37.109375 -0.390625 29.296875 -3.515625 
Q 21.484375 -6.640625 14.84375 -8.984375 
Q 12.109375 -6.25 9.375 -3.90625 
Q 19.140625 -0.78125 25.390625 2.140625 
Q 31.640625 5.078125 36.71875 8.203125 
Q 39.84375 5.46875 43.359375 3.125 
z
M 70.703125 27.734375 
L 70.703125 32.421875 
L 30.078125 32.421875 
L 30.078125 27.734375 
z
M 70.703125 38.671875 
L 70.703125 43.359375 
L 30.078125 43.359375 
L 30.078125 38.671875 
z
" id="SimHei-771f"/>
      <path d="M 64.453125 54.6875 
Q 63.28125 50 62.5 41.796875 
Q 61.71875 33.59375 60.15625 24.21875 
L 78.515625 24.21875 
Q 85.546875 24.21875 93.359375 24.609375 
L 93.359375 17.1875 
Q 85.15625 17.578125 78.125 17.578125 
L 58.203125 17.578125 
Q 54.6875 9.765625 47.65625 3.90625 
Q 40.625 -1.953125 31.25 -5.265625 
Q 21.875 -8.59375 14.453125 -10.546875 
Q 12.890625 -5.859375 7.8125 -3.125 
Q 19.140625 -1.953125 32.03125 3.3125 
Q 44.921875 8.59375 50 17.578125 
L 22.265625 17.578125 
Q 15.234375 17.578125 6.640625 17.1875 
L 6.640625 24.609375 
Q 15.625 24.21875 22.265625 24.21875 
L 52.734375 24.21875 
Q 53.90625 30.859375 54.484375 38.46875 
Q 55.078125 46.09375 54.6875 57.03125 
Q 59.375 55.46875 64.453125 54.6875 
z
M 50.78125 82.03125 
Q 53.90625 75.78125 56.25 68.359375 
L 90.234375 68.359375 
Q 89.84375 64.0625 89.84375 59.765625 
Q 89.84375 55.859375 90.234375 51.171875 
L 81.25 51.171875 
L 81.25 62.109375 
L 19.140625 62.109375 
L 19.140625 50.390625 
L 10.546875 50.390625 
Q 10.9375 55.078125 10.9375 59.375 
Q 10.9375 64.0625 10.546875 68.359375 
L 46.484375 68.359375 
Q 45.3125 73.046875 42.1875 79.296875 
Q 45.3125 80.46875 50.78125 82.03125 
z
M 62.5 12.890625 
Q 71.09375 8.203125 78.90625 4.09375 
Q 86.71875 0 92.578125 -3.515625 
Q 89.84375 -6.640625 86.71875 -10.15625 
Q 79.6875 -5.078125 71.484375 -0.578125 
Q 63.28125 3.90625 57.421875 6.25 
Q 60.546875 10.15625 62.5 12.890625 
z
M 18.359375 42.96875 
Q 25 39.84375 36.71875 32.03125 
Q 35.15625 29.6875 32.03125 25.78125 
Q 21.09375 33.984375 14.453125 36.71875 
Q 16.796875 39.0625 18.359375 42.96875 
z
M 49.21875 44.140625 
Q 46.484375 41.015625 44.53125 37.890625 
Q 32.03125 46.875 26.171875 48.828125 
Q 28.125 51.5625 30.46875 55.078125 
z
" id="SimHei-5b9e"/>
      <path d="M 57.421875 69.53125 
L 57.421875 79.6875 
Q 62.109375 79.296875 67.96875 78.90625 
Q 66.015625 76.171875 65.625 69.53125 
L 80.078125 69.53125 
Q 86.71875 69.53125 91.796875 69.921875 
L 91.796875 62.890625 
Q 86.328125 63.28125 80.078125 63.28125 
L 65.234375 63.28125 
L 64.453125 54.6875 
L 84.375 54.6875 
Q 83.984375 50 83.984375 42.1875 
L 83.984375 2.34375 
Q 91.796875 2.34375 95.3125 2.734375 
L 95.3125 -4.296875 
Q 90.234375 -3.90625 81.25 -3.90625 
L 44.53125 -3.90625 
Q 35.546875 -3.90625 29.6875 -4.296875 
L 29.6875 2.734375 
Q 33.203125 2.34375 40.625 2.34375 
L 40.625 42.1875 
Q 40.625 49.609375 40.234375 54.6875 
L 56.25 54.6875 
L 57.03125 63.28125 
L 50 63.28125 
Q 40.234375 63.28125 34.765625 62.890625 
L 34.765625 69.921875 
Q 39.84375 69.53125 50 69.53125 
z
M 34.765625 76.5625 
Q 31.640625 73.046875 25.78125 58.59375 
L 25.78125 7.03125 
Q 25.78125 -1.171875 26.171875 -8.59375 
L 17.96875 -8.59375 
Q 18.359375 -1.953125 18.359375 5.859375 
L 18.359375 46.09375 
Q 13.671875 38.28125 9.765625 33.59375 
Q 6.640625 37.890625 3.90625 40.234375 
Q 7.8125 44.140625 14.640625 55.265625 
Q 21.484375 66.40625 25.390625 80.46875 
Q 30.859375 77.734375 34.765625 76.5625 
z
M 76.953125 41.40625 
L 76.953125 49.21875 
L 48.046875 49.21875 
L 48.046875 41.40625 
z
M 76.953125 2.34375 
L 76.953125 9.765625 
L 48.046875 9.765625 
L 48.046875 2.34375 
z
M 76.953125 15.625 
L 76.953125 22.65625 
L 48.046875 22.65625 
L 48.046875 15.625 
z
M 76.953125 28.515625 
L 76.953125 35.546875 
L 48.046875 35.546875 
L 48.046875 28.515625 
z
" id="SimHei-503c"/>
     </defs>
     <g transform="translate(518.3 70.548594)scale(0.11 -0.11)">
      <use xlink:href="#SimHei-771f"/>
      <use x="100" xlink:href="#SimHei-5b9e"/>
      <use x="200" xlink:href="#SimHei-503c"/>
     </g>
    </g>
    <g id="line2d_19">
     <path d="M 487.5 82.253281 
L 509.5 82.253281 
" style="fill:none;stroke:#1f77b4;stroke-dasharray:5.55,2.4;stroke-dashoffset:0;stroke-width:1.5;"/>
    </g>
    <g id="line2d_20"/>
    <g id="text_15">
     <!-- BP模型 -->
     <defs>
      <path d="M 46.09375 21.875 
Q 46.09375 10.546875 39.84375 6.25 
Q 33.59375 1.953125 23.828125 1.953125 
L 4.296875 1.953125 
L 4.296875 68.75 
L 24.609375 68.75 
Q 34.375 68.75 39.25 63.671875 
Q 44.140625 58.59375 44.140625 51.5625 
Q 44.140625 44.53125 40.8125 41.203125 
Q 37.5 37.890625 33.984375 36.71875 
Q 38.671875 35.546875 42.375 31.828125 
Q 46.09375 28.125 46.09375 21.875 
z
M 35.15625 51.5625 
Q 35.15625 56.640625 32.21875 58.984375 
Q 29.296875 61.328125 25 61.328125 
L 13.28125 61.328125 
L 13.28125 40.625 
L 24.609375 40.625 
Q 28.90625 40.625 32.03125 43.15625 
Q 35.15625 45.703125 35.15625 51.5625 
z
M 36.71875 21.875 
Q 36.71875 28.125 32.609375 30.65625 
Q 28.515625 33.203125 23.4375 33.203125 
L 13.28125 33.203125 
L 13.28125 9.375 
L 22.265625 9.375 
Q 29.296875 9.375 33 12.109375 
Q 36.71875 14.84375 36.71875 21.875 
z
" id="SimHei-42"/>
      <path d="M 46.09375 48.4375 
Q 46.09375 39.0625 40.625 33.59375 
Q 35.15625 28.125 25.390625 28.125 
L 14.0625 28.125 
L 14.0625 1.953125 
L 5.078125 1.953125 
L 5.078125 68.75 
L 25.390625 68.75 
Q 35.15625 68.75 40.625 63.28125 
Q 46.09375 57.8125 46.09375 48.4375 
z
M 37.109375 48.4375 
Q 37.109375 55.859375 33.59375 58.59375 
Q 30.078125 61.328125 23.046875 61.328125 
L 14.0625 61.328125 
L 14.0625 35.546875 
L 23.046875 35.546875 
Q 30.078125 35.546875 33.59375 38.28125 
Q 37.109375 41.015625 37.109375 48.4375 
z
" id="SimHei-50"/>
      <path d="M 89.0625 57.421875 
Q 88.671875 53.125 88.671875 42.578125 
Q 88.671875 32.03125 89.0625 26.953125 
L 68.359375 26.953125 
Q 67.96875 22.65625 67.578125 18.75 
L 81.640625 18.75 
Q 89.84375 18.75 94.140625 19.140625 
L 94.140625 12.890625 
Q 89.453125 13.28125 81.640625 13.28125 
L 73.4375 13.28125 
Q 79.296875 5.859375 84.953125 2.140625 
Q 90.625 -1.5625 96.875 -3.125 
Q 93.359375 -5.859375 91.40625 -9.765625 
Q 82.421875 -6.25 75.96875 0.390625 
Q 69.53125 7.03125 67.1875 12.109375 
L 66.015625 12.109375 
Q 62.5 4.296875 55.265625 -0.96875 
Q 48.046875 -6.25 38.671875 -9.765625 
Q 36.71875 -5.859375 33.203125 -3.125 
Q 43.359375 -1.171875 50 3.125 
Q 56.640625 7.421875 58.984375 13.28125 
L 51.953125 13.28125 
Q 43.75 13.28125 37.5 12.890625 
L 37.5 19.140625 
Q 43.75 18.75 52.34375 18.75 
L 60.546875 18.75 
Q 61.328125 23.046875 61.328125 26.953125 
L 42.96875 26.953125 
Q 43.359375 32.421875 43.359375 42.1875 
Q 43.359375 52.34375 42.96875 57.421875 
L 89.0625 57.421875 
z
M 33.984375 25.78125 
Q 31.640625 30.859375 26.171875 39.453125 
L 26.171875 4.6875 
Q 26.171875 -4.6875 26.5625 -8.59375 
L 18.359375 -8.59375 
Q 18.75 -4.296875 18.75 3.90625 
L 18.75 34.765625 
Q 17.578125 31.25 15.03125 26.75 
Q 12.5 22.265625 9.375 16.40625 
Q 7.03125 19.921875 3.125 22.265625 
Q 9.375 28.515625 13.28125 37.890625 
Q 17.1875 47.265625 18.359375 53.515625 
L 14.84375 53.515625 
Q 10.9375 53.515625 6.25 53.125 
L 6.25 59.765625 
Q 10.546875 59.375 12.890625 59.375 
L 18.75 59.375 
L 18.75 67.96875 
Q 18.75 74.609375 18.359375 80.46875 
L 26.5625 80.46875 
Q 26.171875 75.390625 26.171875 69.140625 
L 26.171875 59.375 
Q 32.421875 59.375 37.109375 59.765625 
L 37.109375 53.125 
Q 32.03125 53.515625 26.171875 53.515625 
L 26.171875 40.234375 
Q 28.90625 41.796875 31.25 43.359375 
Q 33.59375 39.453125 35.734375 36.328125 
Q 37.890625 33.203125 39.84375 30.078125 
Q 36.328125 27.734375 33.984375 25.78125 
z
M 52.734375 67.1875 
L 49.609375 67.1875 
Q 42.1875 67.1875 37.890625 66.796875 
L 37.890625 73.046875 
Q 42.1875 72.65625 49.21875 72.65625 
L 52.734375 72.65625 
Q 52.734375 78.125 52.34375 81.640625 
L 59.765625 81.640625 
Q 59.375 78.125 59.375 72.65625 
L 71.09375 72.65625 
Q 71.09375 77.734375 70.703125 81.25 
L 78.515625 81.25 
Q 78.125 76.953125 78.125 72.65625 
L 83.984375 72.65625 
Q 88.28125 72.65625 92.96875 73.046875 
L 92.96875 66.796875 
Q 88.28125 67.1875 83.984375 67.1875 
L 78.125 67.1875 
L 78.125 60.15625 
L 71.09375 60.15625 
L 71.09375 67.1875 
L 59.375 67.1875 
L 59.375 60.546875 
L 52.734375 60.546875 
z
M 82.421875 32.421875 
L 82.421875 39.453125 
L 50 39.453125 
L 50 32.421875 
z
M 82.421875 44.921875 
L 82.421875 51.953125 
L 50 51.953125 
L 50 44.921875 
z
" id="SimHei-6a21"/>
      <path d="M 41.015625 27.734375 
Q 41.40625 36.328125 41.40625 42.1875 
L 41.40625 46.875 
L 28.515625 46.875 
Q 26.953125 37.109375 22.265625 31.25 
Q 17.578125 25.390625 12.109375 22.265625 
Q 10.15625 25.78125 5.859375 29.6875 
Q 13.28125 32.421875 16.59375 36.90625 
Q 19.921875 41.40625 21.09375 46.875 
Q 14.0625 46.875 5.859375 46.484375 
L 5.859375 53.90625 
Q 14.453125 53.515625 21.875 53.515625 
Q 22.265625 61.71875 22.265625 69.921875 
Q 16.796875 69.921875 10.9375 69.53125 
L 10.9375 76.5625 
Q 16.40625 76.171875 23.828125 76.171875 
L 46.875 76.171875 
Q 51.171875 76.171875 57.03125 76.5625 
L 57.03125 69.53125 
Q 51.953125 69.921875 48.828125 69.921875 
L 48.828125 53.515625 
Q 53.90625 53.515625 59.765625 53.90625 
L 59.765625 46.484375 
Q 53.90625 46.875 48.828125 46.875 
L 48.828125 41.796875 
Q 48.828125 34.765625 49.21875 27.734375 
z
M 46.875 18.359375 
Q 46.875 21.484375 46.484375 26.953125 
L 54.6875 26.953125 
Q 54.296875 21.484375 54.296875 18.359375 
L 71.09375 18.359375 
Q 78.90625 18.359375 85.15625 18.75 
L 85.15625 11.328125 
Q 77.734375 11.71875 71.09375 11.71875 
L 54.296875 11.71875 
L 54.296875 -0.78125 
L 82.421875 -0.78125 
Q 89.0625 -0.78125 95.3125 -0.390625 
L 95.3125 -7.8125 
Q 89.453125 -7.421875 82.8125 -7.421875 
L 19.53125 -7.421875 
Q 12.109375 -7.421875 6.25 -7.8125 
L 6.25 -0.390625 
Q 12.109375 -0.78125 19.53125 -0.78125 
L 46.875 -0.78125 
L 46.875 11.71875 
L 31.640625 11.71875 
Q 23.4375 11.71875 15.234375 11.328125 
L 16.40625 18.75 
Q 23.4375 18.359375 31.640625 18.359375 
z
M 90.234375 81.25 
Q 89.84375 74.609375 89.84375 67.578125 
L 89.84375 37.5 
Q 90.234375 30.46875 87.6875 27.734375 
Q 85.15625 25 76.5625 23.828125 
Q 75.390625 27.734375 73.046875 32.8125 
Q 80.859375 32.421875 81.828125 33.59375 
Q 82.8125 34.765625 82.8125 39.453125 
L 82.8125 67.578125 
Q 82.8125 74.609375 82.421875 81.25 
L 90.234375 81.25 
z
M 71.875 74.21875 
Q 71.484375 69.53125 71.484375 62.109375 
L 71.484375 50 
Q 71.484375 44.140625 71.875 37.890625 
L 64.0625 37.890625 
Q 64.453125 44.140625 64.453125 50 
L 64.453125 62.109375 
Q 64.453125 69.53125 64.0625 74.21875 
L 71.875 74.21875 
z
M 41.40625 53.515625 
L 41.40625 69.921875 
L 29.296875 69.921875 
Q 28.90625 58.59375 28.90625 53.515625 
z
" id="SimHei-578b"/>
     </defs>
     <g transform="translate(518.3 86.103281)scale(0.11 -0.11)">
      <use xlink:href="#SimHei-42"/>
      <use x="50" xlink:href="#SimHei-50"/>
      <use x="100" xlink:href="#SimHei-6a21"/>
      <use x="200" xlink:href="#SimHei-578b"/>
     </g>
    </g>
    <g id="line2d_21">
     <path d="M 487.5 97.807969 
L 509.5 97.807969 
" style="fill:none;stroke:#ff7f0e;stroke-dasharray:1.5,2.475;stroke-dashoffset:0;stroke-width:1.5;"/>
    </g>
    <g id="line2d_22"/>
    <g id="text_16">
     <!-- DNN模型 -->
     <defs>
      <path d="M 45.703125 35.15625 
Q 45.703125 17.1875 38.078125 9.5625 
Q 30.46875 1.953125 17.578125 1.953125 
L 4.296875 1.953125 
L 4.296875 68.75 
L 17.578125 68.75 
Q 32.03125 68.75 38.859375 60.9375 
Q 45.703125 53.125 45.703125 35.15625 
z
M 36.328125 35.15625 
Q 36.328125 49.609375 31.640625 55.46875 
Q 26.953125 61.328125 17.578125 61.328125 
L 13.28125 61.328125 
L 13.28125 9.375 
L 17.578125 9.375 
Q 26.953125 9.375 31.640625 15.03125 
Q 36.328125 20.703125 36.328125 35.15625 
z
" id="SimHei-44"/>
      <path d="M 44.53125 1.953125 
L 34.765625 1.953125 
L 13.28125 50.390625 
L 12.890625 50.390625 
L 12.890625 1.953125 
L 3.90625 1.953125 
L 3.90625 68.75 
L 13.671875 68.75 
L 35.15625 20.3125 
L 35.546875 20.3125 
L 35.546875 68.75 
L 44.53125 68.75 
z
" id="SimHei-4e"/>
     </defs>
     <g transform="translate(518.3 101.657969)scale(0.11 -0.11)">
      <use xlink:href="#SimHei-44"/>
      <use x="50" xlink:href="#SimHei-4e"/>
      <use x="100" xlink:href="#SimHei-4e"/>
      <use x="150" xlink:href="#SimHei-6a21"/>
      <use x="250" xlink:href="#SimHei-578b"/>
     </g>
    </g>
    <g id="line2d_23">
     <path d="M 487.5 113.5775 
L 509.5 113.5775 
" style="fill:none;stroke:#2ca02c;stroke-dasharray:9.6,2.4,1.5,2.4;stroke-dashoffset:0;stroke-width:1.5;"/>
    </g>
    <g id="line2d_24"/>
    <g id="text_17">
     <!-- 小波包LSTM -->
     <defs>
      <path d="M 54.6875 80.46875 
Q 54.296875 75 54.296875 65.625 
L 54.296875 2.734375 
Q 54.296875 -4.6875 50.390625 -6.640625 
Q 46.484375 -8.59375 37.109375 -9.375 
Q 36.328125 -4.6875 33.59375 -0.390625 
Q 42.1875 -0.390625 44.328125 0 
Q 46.484375 0.390625 46.484375 4.6875 
L 46.484375 65.625 
Q 46.484375 72.65625 46.09375 80.46875 
L 54.6875 80.46875 
z
M 32.421875 53.125 
Q 28.90625 43.359375 24.21875 30.65625 
Q 19.53125 17.96875 16.015625 11.71875 
Q 12.109375 14.84375 7.8125 15.625 
Q 14.453125 27.34375 18.359375 38.859375 
Q 22.265625 50.390625 23.4375 55.859375 
Q 28.125 53.515625 32.421875 53.125 
z
M 73.046875 56.25 
Q 88.671875 28.125 91.796875 17.96875 
Q 87.890625 17.1875 83.984375 14.453125 
Q 78.125 31.25 66.015625 51.953125 
Q 69.140625 53.515625 73.046875 56.25 
z
" id="SimHei-5c0f"/>
      <path d="M 79.296875 51.171875 
Q 80.859375 56.25 81.640625 60.15625 
L 67.578125 60.15625 
L 67.578125 42.96875 
L 86.71875 42.96875 
Q 84.375 32.8125 80.078125 23.625 
Q 75.78125 14.453125 70.703125 8.59375 
Q 74.609375 5.46875 81.25 2.734375 
Q 87.890625 0 96.484375 -1.5625 
Q 92.1875 -4.6875 90.234375 -9.375 
Q 82.03125 -6.640625 75 -2.734375 
Q 67.96875 1.171875 65.625 3.515625 
Q 61.71875 0.390625 55.265625 -3.3125 
Q 48.828125 -7.03125 39.0625 -10.546875 
Q 37.109375 -7.8125 32.03125 -5.859375 
Q 39.453125 -3.90625 47.84375 0.390625 
Q 56.25 4.6875 60.15625 8.59375 
Q 51.953125 20.3125 48.046875 36.328125 
L 44.140625 36.328125 
Q 43.75 21.875 38.859375 11.328125 
Q 33.984375 0.78125 29.296875 -4.6875 
Q 26.5625 -2.34375 21.484375 -0.78125 
Q 27.34375 5.078125 30.46875 11.125 
Q 33.59375 17.1875 35.34375 23.046875 
Q 37.109375 28.90625 37.296875 44.140625 
Q 37.5 59.375 36.71875 66.796875 
L 60.546875 66.796875 
Q 60.546875 75.78125 60.15625 81.25 
L 67.96875 81.25 
Q 67.578125 76.5625 67.578125 66.796875 
L 91.40625 66.796875 
Q 91.015625 64.453125 89.84375 59.953125 
Q 88.671875 55.46875 87.5 50 
Q 82.8125 50.78125 79.296875 51.171875 
z
M 55.078125 36.328125 
Q 59.375 21.875 65.625 14.453125 
Q 72.65625 23.046875 76.953125 36.328125 
z
M 30.46875 26.5625 
Q 26.5625 21.484375 19.71875 11.125 
Q 12.890625 0.78125 10.546875 -3.125 
Q 7.421875 0.78125 3.515625 4.296875 
Q 8.203125 8.203125 14.640625 17.1875 
Q 21.09375 26.171875 24.21875 32.8125 
L 30.46875 26.5625 
z
M 60.546875 42.96875 
L 60.546875 60.15625 
L 44.53125 60.15625 
L 44.53125 42.96875 
z
M 14.453125 76.953125 
Q 25 70.703125 31.25 66.40625 
Q 28.125 62.890625 26.171875 59.375 
Q 19.53125 64.84375 9.765625 70.3125 
Q 12.109375 73.4375 14.453125 76.953125 
z
M 9.375 55.078125 
Q 17.578125 50.78125 26.953125 44.53125 
Q 23.828125 41.796875 21.875 37.890625 
Q 14.453125 44.140625 5.46875 48.4375 
Q 7.03125 51.171875 9.375 55.078125 
z
" id="SimHei-6ce2"/>
      <path d="M 39.84375 78.515625 
Q 37.109375 76.171875 33.203125 68.75 
L 84.375 68.75 
Q 84.375 64.0625 83.984375 55.46875 
L 82.8125 21.484375 
Q 82.421875 15.234375 78.3125 13.078125 
Q 74.21875 10.9375 64.0625 9.765625 
Q 62.890625 14.84375 60.546875 18.359375 
Q 71.09375 18.75 72.84375 19.53125 
Q 74.609375 20.3125 75.390625 26.171875 
Q 76.171875 43.75 76.171875 62.5 
L 29.296875 62.5 
Q 25.390625 56.640625 20.703125 50.390625 
L 61.71875 50.390625 
Q 61.328125 45.3125 61.328125 36.328125 
Q 61.328125 27.34375 61.71875 22.265625 
L 27.34375 22.265625 
L 27.34375 7.421875 
Q 27.34375 0.78125 34.375 0.390625 
Q 57.03125 -1.171875 76.953125 0 
Q 81.640625 0.78125 83.59375 2.921875 
Q 85.546875 5.078125 87.5 14.0625 
Q 91.015625 10.9375 96.484375 10.15625 
Q 92.96875 -1.5625 90.03125 -3.90625 
Q 87.109375 -6.25 79.296875 -6.25 
Q 54.6875 -7.421875 32.03125 -6.25 
Q 19.53125 -6.25 19.53125 5.46875 
L 19.53125 49.21875 
Q 16.796875 46.09375 9.765625 39.84375 
Q 7.03125 42.96875 3.125 45.3125 
Q 13.28125 53.515625 19.71875 62.6875 
Q 26.171875 71.875 30.46875 82.8125 
Q 35.546875 79.6875 39.84375 78.515625 
z
M 53.515625 28.90625 
L 53.515625 43.75 
L 27.34375 43.75 
L 27.34375 28.90625 
z
" id="SimHei-5305"/>
      <path d="M 45.3125 1.953125 
L 4.6875 1.953125 
L 4.6875 68.75 
L 13.671875 68.75 
L 13.671875 9.375 
L 45.3125 9.375 
z
" id="SimHei-4c"/>
      <path d="M 45.3125 20.703125 
Q 45.3125 11.71875 39.640625 6.4375 
Q 33.984375 1.171875 24.21875 1.171875 
Q 14.453125 1.171875 8.984375 6.640625 
Q 3.515625 12.109375 3.515625 20.3125 
L 3.515625 23.046875 
L 12.5 23.046875 
L 12.5 20.703125 
Q 12.5 14.84375 16.015625 11.71875 
Q 19.53125 8.59375 24.21875 8.59375 
Q 30.46875 8.59375 33.390625 11.90625 
Q 36.328125 15.234375 36.328125 19.921875 
Q 36.328125 23.828125 32.8125 27.140625 
Q 29.296875 30.46875 22.65625 33.203125 
Q 13.28125 36.71875 9.171875 41.015625 
Q 5.078125 45.3125 5.078125 51.171875 
Q 5.078125 59.375 10.734375 64.453125 
Q 16.40625 69.53125 24.21875 69.53125 
Q 34.375 69.53125 38.859375 63.46875 
Q 43.359375 57.421875 43.359375 50.390625 
L 34.375 50.390625 
Q 34.765625 54.6875 32.03125 58.203125 
Q 29.296875 61.71875 24.21875 61.71875 
Q 19.53125 61.71875 16.796875 59.171875 
Q 14.0625 56.640625 14.0625 52.34375 
Q 14.0625 48.828125 16.203125 46.28125 
Q 18.359375 43.75 27.34375 40.234375 
Q 35.9375 36.71875 40.625 31.828125 
Q 45.3125 26.953125 45.3125 20.703125 
z
" id="SimHei-53"/>
      <path d="M 44.53125 61.328125 
L 28.90625 61.328125 
L 28.90625 1.953125 
L 19.921875 1.953125 
L 19.921875 61.328125 
L 4.296875 61.328125 
L 4.296875 68.75 
L 44.53125 68.75 
z
" id="SimHei-54"/>
      <path d="M 45.703125 1.953125 
L 37.890625 1.953125 
L 37.890625 49.609375 
L 37.109375 49.609375 
L 27.734375 1.953125 
L 21.484375 1.953125 
L 12.109375 49.609375 
L 11.328125 49.609375 
L 11.328125 1.953125 
L 3.515625 1.953125 
L 3.515625 68.75 
L 15.625 68.75 
L 24.21875 24.609375 
L 25 24.609375 
L 33.59375 68.75 
L 45.703125 68.75 
z
" id="SimHei-4d"/>
     </defs>
     <g transform="translate(518.3 117.4275)scale(0.11 -0.11)">
      <use xlink:href="#SimHei-5c0f"/>
      <use x="100" xlink:href="#SimHei-6ce2"/>
      <use x="200" xlink:href="#SimHei-5305"/>
      <use x="300" xlink:href="#SimHei-4c"/>
      <use x="350" xlink:href="#SimHei-53"/>
      <use x="400" xlink:href="#SimHei-54"/>
      <use x="450" xlink:href="#SimHei-4d"/>
     </g>
    </g>
   </g>
  </g>
 </g>
 <defs>
  <clipPath id="p4294805f8f">
   <rect height="326.16" width="502.2" x="81" y="51.84"/>
  </clipPath>
 </defs>
</svg>
