<?xml version="1.0" encoding="utf-8" standalone="no"?>
<!DOCTYPE svg PUBLIC "-//W3C//DTD SVG 1.1//EN"
  "http://www.w3.org/Graphics/SVG/1.1/DTD/svg11.dtd">
<!-- Created with matplotlib (http://matplotlib.org/) -->
<svg height="432pt" version="1.1" viewBox="0 0 576 432" width="576pt" xmlns="http://www.w3.org/2000/svg" xmlns:xlink="http://www.w3.org/1999/xlink">
 <defs>
  <style type="text/css">
*{stroke-linecap:butt;stroke-linejoin:round;}
  </style>
 </defs>
 <g id="figure_1">
  <g id="patch_1">
   <path d="M 0 432 
L 576 432 
L 576 0 
L 0 0 
z
" style="fill:#ffffff;"/>
  </g>
  <g id="axes_1">
   <g id="patch_2">
    <path d="M 72 378 
L 518.4 378 
L 518.4 51.84 
L 72 51.84 
z
" style="fill:#ffffff;"/>
   </g>
   <g id="matplotlib.axis_1">
    <g id="xtick_1">
     <g id="line2d_1">
      <defs>
       <path d="M 0 0 
L 0 3.5 
" id="md49f8ad455" style="stroke:#000000;stroke-width:0.8;"/>
      </defs>
      <g>
       <use style="stroke:#000000;stroke-width:0.8;" x="92.290909" xlink:href="#md49f8ad455" y="378"/>
      </g>
     </g>
     <g id="text_1">
      <!-- 00:00 -->
      <defs>
       <path d="M 3.125 29.296875 
Q 3.90625 50 6.4375 56.046875 
Q 8.984375 62.109375 13.671875 66.015625 
Q 18.359375 69.921875 25.1875 69.921875 
Q 32.03125 69.921875 37.109375 64.25 
Q 42.1875 58.59375 43.75 50 
Q 45.3125 41.40625 44.71875 30.265625 
Q 44.140625 19.140625 40.8125 12.109375 
Q 37.5 5.078125 30.859375 2.34375 
Q 24.21875 -0.390625 17.578125 2.921875 
Q 10.9375 6.25 8.203125 11.71875 
Q 5.46875 17.1875 4.296875 23.234375 
Q 3.125 29.296875 3.90625 50 
z
M 12.890625 52.734375 
Q 10.546875 31.25 12.5 22.84375 
Q 14.453125 14.453125 18.9375 10.9375 
Q 23.4375 7.421875 28.125 9.5625 
Q 32.8125 11.71875 34.953125 18.15625 
Q 37.109375 24.609375 37.109375 32.21875 
Q 37.109375 39.84375 36.515625 46.09375 
Q 35.9375 52.34375 33 57.421875 
Q 30.078125 62.5 25.1875 62.6875 
Q 20.3125 62.890625 16.59375 57.8125 
Q 12.890625 52.734375 10.546875 31.25 
z
" id="SimHei-30"/>
       <path d="M 28.515625 37.890625 
L 19.53125 37.890625 
L 19.53125 46.484375 
L 28.515625 46.484375 
z
M 28.515625 1.953125 
L 19.53125 1.953125 
L 19.53125 10.546875 
L 28.515625 10.546875 
z
" id="SimHei-3a"/>
      </defs>
      <g transform="translate(76.040909 393.9375)scale(0.13 -0.13)">
       <use xlink:href="#SimHei-30"/>
       <use x="50" xlink:href="#SimHei-30"/>
       <use x="100" xlink:href="#SimHei-3a"/>
       <use x="150" xlink:href="#SimHei-30"/>
       <use x="200" xlink:href="#SimHei-30"/>
      </g>
     </g>
    </g>
    <g id="xtick_2">
     <g id="line2d_2">
      <g>
       <use style="stroke:#000000;stroke-width:0.8;" x="162.990941" xlink:href="#md49f8ad455" y="378"/>
      </g>
     </g>
     <g id="text_2">
      <!-- 04:00 -->
      <defs>
       <path d="M 31.25 17.1875 
L 1.171875 17.1875 
L 1.171875 23.828125 
L 32.8125 69.53125 
L 38.671875 69.53125 
L 38.671875 23.828125 
L 48.046875 23.828125 
L 48.046875 17.1875 
L 38.671875 17.1875 
L 38.671875 2.34375 
L 31.25 2.34375 
z
M 31.25 23.828125 
L 31.25 54.6875 
L 9.375 23.828125 
z
" id="SimHei-34"/>
      </defs>
      <g transform="translate(146.740941 393.9375)scale(0.13 -0.13)">
       <use xlink:href="#SimHei-30"/>
       <use x="50" xlink:href="#SimHei-34"/>
       <use x="100" xlink:href="#SimHei-3a"/>
       <use x="150" xlink:href="#SimHei-30"/>
       <use x="200" xlink:href="#SimHei-30"/>
      </g>
     </g>
    </g>
    <g id="xtick_3">
     <g id="line2d_3">
      <g>
       <use style="stroke:#000000;stroke-width:0.8;" x="233.690972" xlink:href="#md49f8ad455" y="378"/>
      </g>
     </g>
     <g id="text_3">
      <!-- 8:00 -->
      <defs>
       <path d="M 2.734375 16.796875 
Q 2.734375 26.171875 5.078125 30.65625 
Q 7.421875 35.15625 12.890625 37.890625 
Q 8.203125 40.625 6.640625 43.9375 
Q 5.078125 47.265625 4.875 51.5625 
Q 4.6875 55.859375 6.046875 58.984375 
Q 7.421875 62.109375 10.15625 64.84375 
Q 12.890625 67.578125 16.203125 68.546875 
Q 19.53125 69.53125 23.4375 69.53125 
Q 27.34375 69.53125 30.46875 68.75 
Q 33.59375 67.96875 37.109375 65.421875 
Q 40.625 62.890625 42.1875 58.203125 
Q 43.75 53.515625 41.984375 47.265625 
Q 40.234375 41.015625 32.8125 37.5 
Q 39.453125 35.546875 42.1875 31.4375 
Q 44.921875 27.34375 44.921875 21.484375 
Q 44.921875 15.625 43.15625 12.109375 
Q 41.40625 8.59375 39.25 6.25 
Q 37.109375 3.90625 33.390625 2.53125 
Q 29.6875 1.171875 24.015625 1.171875 
Q 18.359375 1.171875 14.25 2.53125 
Q 10.15625 3.90625 7.421875 6.640625 
Q 4.6875 9.375 3.703125 13.078125 
Q 2.734375 16.796875 2.734375 26.171875 
z
M 10.9375 26.5625 
Q 10.546875 17.1875 12.296875 13.671875 
Q 14.0625 10.15625 18.75 9.171875 
Q 23.4375 8.203125 28.515625 9.375 
Q 33.59375 10.546875 35.546875 14.84375 
Q 37.5 19.140625 36.90625 23.4375 
Q 36.328125 27.734375 32.03125 30.65625 
Q 27.734375 33.59375 22.65625 33.203125 
Q 17.578125 32.8125 14.25 29.6875 
Q 10.9375 26.5625 10.546875 17.1875 
z
M 12.109375 56.25 
Q 12.109375 48.4375 14.84375 44.921875 
Q 17.578125 41.40625 23.4375 41.40625 
Q 29.296875 41.40625 32.21875 44.921875 
Q 35.15625 48.4375 34.953125 53.3125 
Q 34.765625 58.203125 31.4375 60.546875 
Q 28.125 62.890625 22.453125 62.5 
Q 16.796875 62.109375 14.453125 59.171875 
Q 12.109375 56.25 12.109375 48.4375 
z
" id="SimHei-38"/>
      </defs>
      <g transform="translate(220.690972 393.9375)scale(0.13 -0.13)">
       <use xlink:href="#SimHei-38"/>
       <use x="50" xlink:href="#SimHei-3a"/>
       <use x="100" xlink:href="#SimHei-30"/>
       <use x="150" xlink:href="#SimHei-30"/>
      </g>
     </g>
    </g>
    <g id="xtick_4">
     <g id="line2d_4">
      <g>
       <use style="stroke:#000000;stroke-width:0.8;" x="304.391004" xlink:href="#md49f8ad455" y="378"/>
      </g>
     </g>
     <g id="text_4">
      <!-- 12:00 -->
      <defs>
       <path d="M 21.875 56.25 
Q 16.796875 51.171875 8.984375 46.484375 
L 8.984375 53.90625 
Q 18.75 60.546875 25 69.53125 
L 29.6875 69.53125 
L 29.6875 2.34375 
L 21.875 2.34375 
z
" id="SimHei-31"/>
       <path d="M 4.6875 3.90625 
Q 5.078125 9.765625 10.15625 14.453125 
Q 15.234375 19.140625 23.046875 29.09375 
Q 30.859375 39.0625 33.203125 44.53125 
Q 35.546875 50 34.953125 53.90625 
Q 34.375 57.8125 31.25 60.34375 
Q 28.125 62.890625 24.015625 62.5 
Q 19.921875 62.109375 16.203125 59.375 
Q 12.5 56.640625 10.546875 51.171875 
L 3.125 52.34375 
Q 6.25 61.328125 11.125 65.421875 
Q 16.015625 69.53125 22.65625 69.921875 
Q 26.5625 70.3125 29.6875 69.71875 
Q 32.8125 69.140625 36.125 66.984375 
Q 39.453125 64.84375 41.59375 60.546875 
Q 43.75 56.25 43.15625 50.1875 
Q 42.578125 44.140625 37.109375 35.734375 
Q 31.640625 27.34375 16.015625 9.375 
L 44.140625 9.375 
L 44.140625 2.34375 
L 4.6875 2.34375 
z
" id="SimHei-32"/>
      </defs>
      <g transform="translate(288.141004 393.9375)scale(0.13 -0.13)">
       <use xlink:href="#SimHei-31"/>
       <use x="50" xlink:href="#SimHei-32"/>
       <use x="100" xlink:href="#SimHei-3a"/>
       <use x="150" xlink:href="#SimHei-30"/>
       <use x="200" xlink:href="#SimHei-30"/>
      </g>
     </g>
    </g>
    <g id="xtick_5">
     <g id="line2d_5">
      <g>
       <use style="stroke:#000000;stroke-width:0.8;" x="375.091036" xlink:href="#md49f8ad455" y="378"/>
      </g>
     </g>
     <g id="text_5">
      <!-- 16:00 -->
      <defs>
       <path d="M 3.515625 19.53125 
Q 4.296875 30.859375 6.046875 34.765625 
Q 7.8125 38.671875 11.328125 44.53125 
L 27.34375 69.53125 
L 36.328125 69.53125 
L 19.921875 43.75 
Q 30.46875 46.484375 36.71875 42.96875 
Q 42.96875 39.453125 45.109375 34.953125 
Q 47.265625 30.46875 47.453125 25.1875 
Q 47.65625 19.921875 45.890625 14.84375 
Q 44.140625 9.765625 39.640625 5.65625 
Q 35.15625 1.5625 27.140625 1.171875 
Q 19.140625 0.78125 13.46875 4.09375 
Q 7.8125 7.421875 5.65625 13.46875 
Q 3.515625 19.53125 4.296875 30.859375 
z
M 12.5 16.015625 
Q 19.53125 8.59375 25.390625 8.203125 
Q 31.25 7.8125 35.15625 12.109375 
Q 39.0625 16.40625 39.0625 24.609375 
Q 39.0625 32.8125 34.171875 35.9375 
Q 29.296875 39.0625 23.234375 38.28125 
Q 17.1875 37.5 14.453125 32.421875 
Q 11.71875 27.34375 12.109375 21.671875 
Q 12.5 16.015625 19.53125 8.59375 
z
" id="SimHei-36"/>
      </defs>
      <g transform="translate(358.841036 393.9375)scale(0.13 -0.13)">
       <use xlink:href="#SimHei-31"/>
       <use x="50" xlink:href="#SimHei-36"/>
       <use x="100" xlink:href="#SimHei-3a"/>
       <use x="150" xlink:href="#SimHei-30"/>
       <use x="200" xlink:href="#SimHei-30"/>
      </g>
     </g>
    </g>
    <g id="xtick_6">
     <g id="line2d_6">
      <g>
       <use style="stroke:#000000;stroke-width:0.8;" x="445.791067" xlink:href="#md49f8ad455" y="378"/>
      </g>
     </g>
     <g id="text_6">
      <!-- 20:00 -->
      <g transform="translate(429.541067 393.9375)scale(0.13 -0.13)">
       <use xlink:href="#SimHei-32"/>
       <use x="50" xlink:href="#SimHei-30"/>
       <use x="100" xlink:href="#SimHei-3a"/>
       <use x="150" xlink:href="#SimHei-30"/>
       <use x="200" xlink:href="#SimHei-30"/>
      </g>
     </g>
    </g>
    <g id="xtick_7">
     <g id="line2d_7">
      <g>
       <use style="stroke:#000000;stroke-width:0.8;" x="516.491099" xlink:href="#md49f8ad455" y="378"/>
      </g>
     </g>
    </g>
    <g id="text_7">
     <!-- 时间 -->
     <defs>
      <path d="M 39.453125 71.484375 
Q 39.0625 57.421875 39.0625 37.5 
Q 39.0625 17.578125 39.453125 6.25 
L 31.25 6.25 
L 31.25 13.671875 
L 15.625 13.671875 
L 15.625 0.78125 
L 7.421875 0.78125 
Q 7.8125 18.75 7.8125 36.71875 
Q 7.8125 55.078125 7.421875 71.484375 
L 39.453125 71.484375 
z
M 76.171875 59.765625 
Q 76.171875 71.484375 75.78125 81.640625 
L 84.375 81.640625 
Q 83.984375 71.484375 83.984375 59.765625 
Q 89.84375 59.765625 96.484375 60.15625 
L 96.484375 52.734375 
Q 89.84375 53.125 83.984375 53.125 
L 83.984375 0.78125 
Q 83.984375 -5.078125 79.296875 -6.640625 
Q 74.609375 -8.203125 67.1875 -8.984375 
Q 67.1875 -4.296875 62.890625 0 
Q 70.3125 -0.78125 73.234375 -0.390625 
Q 76.171875 0 76.171875 4.6875 
L 76.171875 53.125 
Q 56.640625 53.125 43.359375 52.734375 
L 43.359375 60.15625 
Q 55.859375 59.765625 76.171875 59.765625 
z
M 31.25 20.3125 
L 31.25 39.84375 
L 15.625 39.84375 
L 15.625 20.3125 
z
M 31.25 46.484375 
L 31.25 64.84375 
L 15.625 64.84375 
L 15.625 46.484375 
z
M 55.46875 42.578125 
Q 60.546875 34.375 65.234375 25 
Q 61.328125 23.828125 57.03125 21.484375 
Q 53.90625 30.859375 48.046875 39.0625 
Q 51.5625 40.625 55.46875 42.578125 
z
" id="SimHei-65f6"/>
      <path d="M 69.53125 55.46875 
Q 69.140625 48.046875 69.140625 42.578125 
L 69.140625 21.875 
Q 69.140625 16.796875 69.53125 9.765625 
L 30.078125 9.765625 
Q 30.46875 16.796875 30.46875 22.265625 
L 30.46875 42.578125 
Q 30.46875 48.046875 30.078125 55.46875 
L 69.53125 55.46875 
z
M 90.625 76.171875 
Q 90.234375 68.75 90.234375 61.328125 
L 90.234375 3.90625 
Q 90.625 -5.078125 85.34375 -7.03125 
Q 80.078125 -8.984375 73.828125 -9.765625 
Q 73.4375 -5.078125 70.703125 -0.390625 
Q 78.125 -0.78125 80.265625 0.390625 
Q 82.421875 1.5625 82.421875 5.46875 
L 82.421875 69.53125 
L 58.984375 69.53125 
Q 49.609375 69.53125 41.40625 69.140625 
L 41.40625 76.5625 
Q 49.609375 76.171875 58.984375 76.171875 
z
M 8.59375 -8.203125 
Q 9.375 -0.390625 9.375 8.203125 
L 9.375 49.21875 
Q 9.375 57.421875 8.59375 62.890625 
L 17.578125 62.890625 
Q 17.1875 57.03125 17.1875 51.5625 
L 17.1875 7.8125 
Q 17.1875 0 17.578125 -8.203125 
z
M 61.71875 16.015625 
L 61.71875 30.46875 
L 37.890625 30.46875 
L 37.890625 16.015625 
z
M 61.71875 36.71875 
L 61.71875 49.21875 
L 37.890625 49.21875 
L 37.890625 36.71875 
z
M 23.828125 82.8125 
Q 27.34375 78.125 34.765625 67.96875 
Q 30.46875 66.015625 26.5625 63.671875 
Q 22.65625 71.484375 16.796875 78.515625 
Q 21.09375 81.640625 23.828125 82.8125 
z
" id="SimHei-95f4"/>
     </defs>
     <g transform="translate(282.2 409.972656)scale(0.13 -0.13)">
      <use xlink:href="#SimHei-65f6"/>
      <use x="100" xlink:href="#SimHei-95f4"/>
     </g>
    </g>
   </g>
   <g id="matplotlib.axis_2">
    <g id="ytick_1">
     <g id="line2d_8">
      <defs>
       <path d="M 0 0 
L -3.5 0 
" id="mec6d98aad8" style="stroke:#000000;stroke-width:0.8;"/>
      </defs>
      <g>
       <use style="stroke:#000000;stroke-width:0.8;" x="72" xlink:href="#mec6d98aad8" y="362.69527"/>
      </g>
     </g>
     <g id="text_8">
      <!-- 0.0 -->
      <defs>
       <path d="M 16.796875 1.953125 
L 7.8125 1.953125 
L 7.8125 10.546875 
L 16.796875 10.546875 
z
" id="SimHei-2e"/>
      </defs>
      <g transform="translate(45.5 367.16402)scale(0.13 -0.13)">
       <use xlink:href="#SimHei-30"/>
       <use x="50" xlink:href="#SimHei-2e"/>
       <use x="100" xlink:href="#SimHei-30"/>
      </g>
     </g>
    </g>
    <g id="ytick_2">
     <g id="line2d_9">
      <g>
       <use style="stroke:#000000;stroke-width:0.8;" x="72" xlink:href="#mec6d98aad8" y="307.138986"/>
      </g>
     </g>
     <g id="text_9">
      <!-- 0.5 -->
      <defs>
       <path d="M 8.59375 20.703125 
Q 11.328125 10.15625 17.96875 8.984375 
Q 24.609375 7.8125 28.703125 10.34375 
Q 32.8125 12.890625 34.5625 16.984375 
Q 36.328125 21.09375 36.125 26.171875 
Q 35.9375 31.25 33.390625 34.765625 
Q 30.859375 38.28125 26.953125 39.453125 
Q 23.046875 40.625 18.15625 39.453125 
Q 13.28125 38.28125 10.15625 33.984375 
L 3.515625 34.765625 
Q 4.296875 37.109375 10.9375 68.359375 
L 41.796875 68.359375 
L 41.796875 61.328125 
L 16.796875 61.328125 
Q 14.84375 50.78125 12.890625 44.53125 
Q 18.75 47.265625 23.828125 47.0625 
Q 28.90625 46.875 33.59375 44.71875 
Q 38.28125 42.578125 40.421875 38.859375 
Q 42.578125 35.15625 43.546875 31.4375 
Q 44.53125 27.734375 44.328125 23.4375 
Q 44.140625 19.140625 42.578125 14.640625 
Q 41.015625 10.15625 37.890625 7.21875 
Q 34.765625 4.296875 30.265625 2.53125 
Q 25.78125 0.78125 19.921875 1.171875 
Q 14.0625 1.5625 8.78125 5.46875 
Q 3.515625 9.375 1.5625 18.75 
z
" id="SimHei-35"/>
      </defs>
      <g transform="translate(45.5 311.607736)scale(0.13 -0.13)">
       <use xlink:href="#SimHei-30"/>
       <use x="50" xlink:href="#SimHei-2e"/>
       <use x="100" xlink:href="#SimHei-35"/>
      </g>
     </g>
    </g>
    <g id="ytick_3">
     <g id="line2d_10">
      <g>
       <use style="stroke:#000000;stroke-width:0.8;" x="72" xlink:href="#mec6d98aad8" y="251.582702"/>
      </g>
     </g>
     <g id="text_10">
      <!-- 1.0 -->
      <g transform="translate(45.5 256.051452)scale(0.13 -0.13)">
       <use xlink:href="#SimHei-31"/>
       <use x="50" xlink:href="#SimHei-2e"/>
       <use x="100" xlink:href="#SimHei-30"/>
      </g>
     </g>
    </g>
    <g id="ytick_4">
     <g id="line2d_11">
      <g>
       <use style="stroke:#000000;stroke-width:0.8;" x="72" xlink:href="#mec6d98aad8" y="196.026418"/>
      </g>
     </g>
     <g id="text_11">
      <!-- 1.5 -->
      <g transform="translate(45.5 200.495168)scale(0.13 -0.13)">
       <use xlink:href="#SimHei-31"/>
       <use x="50" xlink:href="#SimHei-2e"/>
       <use x="100" xlink:href="#SimHei-35"/>
      </g>
     </g>
    </g>
    <g id="ytick_5">
     <g id="line2d_12">
      <g>
       <use style="stroke:#000000;stroke-width:0.8;" x="72" xlink:href="#mec6d98aad8" y="140.470134"/>
      </g>
     </g>
     <g id="text_12">
      <!-- 2.0 -->
      <g transform="translate(45.5 144.938884)scale(0.13 -0.13)">
       <use xlink:href="#SimHei-32"/>
       <use x="50" xlink:href="#SimHei-2e"/>
       <use x="100" xlink:href="#SimHei-30"/>
      </g>
     </g>
    </g>
    <g id="ytick_6">
     <g id="line2d_13">
      <g>
       <use style="stroke:#000000;stroke-width:0.8;" x="72" xlink:href="#mec6d98aad8" y="84.913849"/>
      </g>
     </g>
     <g id="text_13">
      <!-- 2.5 -->
      <g transform="translate(45.5 89.382599)scale(0.13 -0.13)">
       <use xlink:href="#SimHei-32"/>
       <use x="50" xlink:href="#SimHei-2e"/>
       <use x="100" xlink:href="#SimHei-35"/>
      </g>
     </g>
    </g>
    <g id="text_14">
     <!-- 功率(千瓦) -->
     <defs>
      <path d="M 88.671875 4.296875 
Q 87.109375 -3.125 81.640625 -4.875 
Q 76.171875 -6.640625 69.53125 -7.421875 
Q 68.75 -2.734375 65.625 1.5625 
Q 73.828125 1.171875 77.140625 2.140625 
Q 80.46875 3.125 80.859375 6.640625 
Q 82.8125 27.734375 83.984375 51.171875 
L 66.40625 51.171875 
Q 66.015625 39.84375 64.453125 30.078125 
Q 62.890625 20.3125 59.171875 13.28125 
Q 55.46875 6.25 50.78125 0.78125 
Q 46.09375 -4.6875 39.84375 -10.15625 
Q 37.109375 -6.25 32.8125 -3.90625 
Q 41.40625 1.5625 45.703125 6.640625 
Q 50 11.71875 53.125 18.15625 
Q 56.25 24.609375 57.421875 32.421875 
Q 58.59375 40.234375 58.984375 51.171875 
L 53.125 51.171875 
Q 48.4375 51.171875 43.75 50.78125 
L 43.75 58.203125 
Q 48.828125 57.8125 53.90625 57.8125 
L 58.984375 57.8125 
L 58.984375 71.484375 
Q 58.984375 76.171875 58.59375 80.859375 
Q 63.671875 79.6875 67.578125 79.296875 
Q 66.796875 76.5625 66.59375 70.703125 
Q 66.40625 64.84375 66.40625 57.8125 
L 92.1875 57.8125 
Q 91.796875 52.34375 91.40625 47.453125 
Q 91.015625 42.578125 88.671875 4.296875 
z
M 45.3125 15.625 
Q 38.671875 14.0625 34.375 13.078125 
Q 30.078125 12.109375 20.890625 9.375 
Q 11.71875 6.640625 7.8125 5.46875 
Q 6.25 10.9375 4.6875 14.0625 
Q 7.03125 14.0625 21.484375 17.1875 
L 21.484375 60.9375 
L 18.359375 60.9375 
Q 13.671875 60.9375 7.03125 60.546875 
L 7.03125 67.96875 
Q 13.28125 67.578125 18.359375 67.578125 
L 32.8125 67.578125 
Q 38.28125 67.578125 42.578125 67.96875 
L 42.578125 60.546875 
Q 37.890625 60.9375 33.203125 60.9375 
L 29.296875 60.9375 
L 29.296875 18.75 
L 37.109375 20.703125 
Q 40.234375 21.484375 44.53125 22.65625 
z
" id="SimHei-529f"/>
      <path d="M 51.953125 80.46875 
Q 53.515625 76.5625 55.46875 70.703125 
L 75 70.703125 
Q 82.03125 70.703125 90.625 71.09375 
L 90.625 64.453125 
Q 82.03125 65.234375 74.609375 65.234375 
L 43.75 65.234375 
Q 46.484375 63.28125 51.5625 60.9375 
Q 48.046875 58.59375 44.921875 55.265625 
Q 41.796875 51.953125 38.671875 48.828125 
L 51.171875 48.828125 
Q 55.859375 53.515625 58.984375 58.984375 
Q 62.5 56.25 66.796875 53.515625 
Q 61.71875 50.78125 56.25 44.921875 
Q 50.78125 39.0625 41.015625 31.25 
L 60.15625 32.8125 
Q 58.203125 35.15625 56.25 37.890625 
Q 58.59375 38.671875 62.5 41.40625 
Q 66.40625 36.71875 73.4375 26.5625 
Q 69.921875 25.390625 66.015625 22.65625 
Q 65.234375 25 62.890625 27.734375 
Q 57.8125 27.34375 53.515625 27.34375 
L 53.515625 16.40625 
L 80.46875 16.40625 
Q 88.671875 16.40625 95.3125 16.796875 
L 95.3125 10.15625 
Q 89.0625 10.546875 80.078125 10.546875 
L 53.515625 10.546875 
L 53.515625 2.734375 
Q 53.515625 -4.6875 53.90625 -9.765625 
L 45.3125 -9.765625 
Q 45.703125 -4.6875 45.703125 2.734375 
L 45.703125 10.546875 
L 20.703125 10.546875 
Q 12.890625 10.546875 5.078125 10.15625 
L 5.078125 16.796875 
Q 12.890625 16.40625 21.09375 16.40625 
L 45.703125 16.40625 
L 45.703125 26.5625 
Q 42.1875 26.171875 38.671875 25.578125 
Q 35.15625 25 31.640625 23.828125 
Q 30.46875 27.734375 28.90625 31.25 
Q 32.421875 31.640625 36.328125 34.375 
Q 40.234375 37.109375 46.484375 43.75 
Q 35.9375 42.578125 31.640625 41.015625 
Q 30.859375 44.921875 28.90625 49.609375 
Q 32.421875 49.609375 36.328125 54.484375 
Q 40.234375 59.375 42.96875 65.234375 
L 26.5625 65.234375 
Q 17.96875 65.234375 10.15625 64.453125 
L 10.15625 71.09375 
Q 17.96875 70.703125 24.21875 70.703125 
L 46.484375 70.703125 
Q 45.3125 75.390625 43.75 78.515625 
Q 47.265625 79.296875 51.953125 80.46875 
z
M 25.390625 40.234375 
Q 26.953125 37.5 28.515625 34.375 
Q 24.609375 32.03125 20.703125 29.09375 
Q 16.796875 26.171875 12.5 22.265625 
Q 9.765625 26.171875 7.421875 29.296875 
Q 12.5 31.640625 17.1875 34.5625 
Q 21.875 37.5 25.390625 40.234375 
z
M 75.78125 41.40625 
Q 80.078125 38.671875 83.390625 36.515625 
Q 86.71875 34.375 91.796875 30.46875 
Q 88.671875 28.125 85.9375 25 
Q 82.8125 27.734375 79.09375 30.859375 
Q 75.390625 33.984375 71.484375 36.328125 
Q 73.828125 38.671875 75.78125 41.40625 
z
M 89.453125 55.078125 
Q 86.71875 53.90625 82.8125 50.96875 
Q 78.90625 48.046875 75 44.140625 
Q 72.265625 47.65625 69.921875 49.609375 
Q 73.4375 51.953125 76.171875 54.484375 
Q 78.90625 57.03125 82.8125 61.328125 
Q 86.328125 57.8125 89.453125 55.078125 
z
M 16.40625 60.15625 
Q 22.265625 56.25 27.734375 51.171875 
Q 24.609375 48.4375 22.265625 45.703125 
Q 16.796875 51.5625 10.546875 55.078125 
Q 13.671875 57.8125 16.40625 60.15625 
z
" id="SimHei-7387"/>
      <path d="M 46.484375 -3.125 
L 42.1875 -7.421875 
Q 32.421875 1.953125 27.53125 12.109375 
Q 22.65625 22.265625 22.65625 35.15625 
Q 22.65625 48.046875 27.53125 58.203125 
Q 32.421875 68.359375 42.1875 78.125 
L 46.484375 73.828125 
Q 37.5 65.234375 33 56.046875 
Q 28.515625 46.875 28.515625 35.15625 
Q 28.515625 23.4375 33 14.25 
Q 37.5 5.078125 46.484375 -3.125 
z
" id="SimHei-28"/>
      <path d="M 11.71875 70.703125 
Q 33.59375 71.875 49.796875 74.21875 
Q 66.015625 76.5625 76.171875 81.640625 
Q 78.515625 76.171875 82.03125 72.265625 
Q 77.34375 72.265625 69.140625 70.890625 
Q 60.9375 69.53125 53.515625 68.359375 
L 53.515625 40.234375 
L 79.6875 40.234375 
Q 86.328125 40.234375 93.75 40.625 
L 93.75 33.203125 
Q 85.9375 33.59375 79.6875 33.59375 
L 53.515625 33.59375 
L 53.515625 6.640625 
Q 53.515625 -1.171875 53.90625 -9.765625 
L 45.3125 -9.765625 
Q 45.703125 -1.171875 45.703125 6.25 
L 45.703125 33.59375 
L 19.921875 33.59375 
Q 12.890625 33.59375 5.859375 33.203125 
L 5.859375 40.625 
Q 13.671875 40.234375 19.921875 40.234375 
L 45.703125 40.234375 
L 45.703125 66.796875 
Q 40.234375 66.015625 32.609375 65.234375 
Q 25 64.453125 16.015625 63.28125 
Q 14.84375 67.96875 11.71875 70.703125 
z
" id="SimHei-5343"/>
      <path d="M 75.78125 73.046875 
Q 82.8125 73.046875 91.015625 73.4375 
L 91.015625 66.015625 
Q 82.8125 66.40625 76.953125 66.40625 
L 36.71875 66.40625 
L 34.765625 51.953125 
L 72.65625 51.953125 
Q 72.265625 46.875 71.484375 36.328125 
L 69.921875 7.421875 
Q 68.75 1.953125 73.828125 -0.78125 
L 80.46875 -0.78125 
Q 84.375 -0.78125 85.15625 1.171875 
Q 85.9375 3.125 86.71875 12.109375 
Q 91.015625 9.375 95.703125 8.203125 
Q 93.359375 -0.390625 91.59375 -3.90625 
Q 89.84375 -7.421875 83.59375 -7.421875 
L 71.875 -7.421875 
Q 61.328125 -7.8125 62.109375 3.90625 
L 64.453125 45.3125 
L 33.984375 45.3125 
L 27.34375 4.296875 
Q 32.03125 5.859375 37.109375 7.421875 
L 53.125 12.109375 
Q 52.34375 9.375 53.125 4.296875 
Q 37.890625 0.390625 30.265625 -2.140625 
Q 22.65625 -4.6875 20.3125 -6.25 
Q 18.359375 -0.390625 16.015625 2.34375 
Q 20.703125 6.640625 21.09375 12.109375 
L 28.515625 66.40625 
L 22.265625 66.40625 
Q 15.234375 66.40625 7.03125 66.015625 
L 7.03125 73.4375 
Q 15.234375 73.046875 22.265625 73.046875 
z
M 42.1875 36.328125 
Q 48.4375 30.859375 56.640625 21.09375 
Q 53.515625 18.359375 50.78125 16.015625 
Q 45.703125 23.046875 37.109375 31.25 
Q 39.84375 33.59375 42.1875 36.328125 
z
" id="SimHei-74e6"/>
      <path d="M 26.171875 35.15625 
Q 26.171875 22.265625 21.28125 12.109375 
Q 16.40625 1.953125 6.640625 -7.421875 
L 2.34375 -3.125 
Q 11.328125 5.078125 15.8125 14.25 
Q 20.3125 23.4375 20.3125 35.15625 
Q 20.3125 46.875 15.8125 56.046875 
Q 11.328125 65.234375 2.34375 73.828125 
L 6.640625 78.125 
Q 16.40625 68.359375 21.28125 58.203125 
Q 26.171875 48.046875 26.171875 35.15625 
z
" id="SimHei-29"/>
     </defs>
     <g transform="translate(39.875 247.42)rotate(-90)scale(0.13 -0.13)">
      <use xlink:href="#SimHei-529f"/>
      <use x="100" xlink:href="#SimHei-7387"/>
      <use x="200" xlink:href="#SimHei-28"/>
      <use x="250" xlink:href="#SimHei-5343"/>
      <use x="350" xlink:href="#SimHei-74e6"/>
      <use x="450" xlink:href="#SimHei-29"/>
     </g>
    </g>
   </g>
   <g id="line2d_14">
    <path clip-path="url(#p25dc299157)" d="M 92.290909 362.621195 
L 99.360912 362.63601 
L 105.016915 362.658233 
L 107.844916 362.66564 
L 110.672917 362.598973 
L 119.156921 362.69527 
L 121.984922 362.647122 
L 124.812924 362.63601 
L 129.054926 362.628603 
L 141.780931 362.66564 
L 148.850934 362.63601 
L 153.092936 362.66564 
L 157.334938 362.63601 
L 160.162939 362.673048 
L 196.926956 362.717493 
L 198.340957 354.935908 
L 199.754957 355.421099 
L 201.168958 357.884097 
L 202.582959 356.11 
L 205.41096 348.054336 
L 206.82496 337.965315 
L 209.652962 307.557514 
L 211.066962 320.028044 
L 212.480963 328.635564 
L 213.894964 325.098485 
L 215.308964 305.313018 
L 216.722965 305.550077 
L 218.136965 289.009115 
L 219.550966 290.383211 
L 220.964967 276.975621 
L 222.378967 251.856772 
L 223.792968 257.034629 
L 225.206969 295.612902 
L 226.620969 300.238896 
L 228.03497 309.868655 
L 229.448971 264.856954 
L 230.862971 194.978237 
L 232.276972 224.16382 
L 233.690972 260.401324 
L 235.104973 277.542303 
L 236.518974 292.412856 
L 237.932974 282.497919 
L 239.346975 310.664961 
L 240.760976 287.968357 
L 242.174976 228.05276 
L 243.588977 258.964288 
L 245.002978 261.982838 
L 246.416978 257.230925 
L 247.830979 216.085948 
L 249.244979 282.516441 
L 250.65898 275.731163 
L 252.072981 258.445748 
L 253.486981 292.164712 
L 254.900982 279.857151 
L 256.314983 315.513172 
L 257.728983 316.479849 
L 259.142984 289.842459 
L 260.556984 289.427637 
L 261.970985 338.539404 
L 263.384986 315.927985 
L 264.798986 316.824302 
L 266.212987 276.371916 
L 267.626988 226.637919 
L 269.040988 217.42671 
L 270.454989 276.268215 
L 271.86899 277.120065 
L 273.28299 227.100903 
L 274.696991 252.80124 
L 276.110991 260.612454 
L 277.524992 271.749622 
L 278.938993 261.960616 
L 280.352993 154.42215 
L 281.766994 261.43838 
L 283.180995 270.805161 
L 284.594995 246.908574 
L 286.008996 261.405053 
L 287.422997 320.213231 
L 288.836997 335.554171 
L 290.250998 314.668715 
L 291.664998 256.516105 
L 293.078999 306.705655 
L 294.493 292.186946 
L 295.907 295.724014 
L 297.321001 253.349387 
L 298.735002 298.638868 
L 300.149002 257.823523 
L 301.563003 247.608572 
L 302.977003 186.300357 
L 304.391004 164.725996 
L 305.805005 233.700979 
L 307.219005 256.838338 
L 308.633006 333.287476 
L 310.047007 317.550234 
L 311.461007 228.782392 
L 312.875008 181.652163 
L 314.289009 218.256365 
L 315.703009 203.900588 
L 317.11701 196.763461 
L 318.53101 276.875629 
L 319.945011 267.308831 
L 321.359012 260.88652 
L 322.773012 248.819699 
L 324.187013 301.220397 
L 325.601014 333.135627 
L 327.015014 303.794509 
L 328.429015 304.379694 
L 329.843016 330.450398 
L 331.257016 323.472532 
L 332.671017 262.593963 
L 334.085017 218.211898 
L 335.499018 227.741656 
L 336.913019 238.11957 
L 338.327019 232.852823 
L 339.74102 229.941685 
L 341.155021 157.585158 
L 342.569021 156.955561 
L 343.983022 140.777538 
L 345.397022 110.658598 
L 346.811023 164.685273 
L 348.225024 140.136796 
L 349.639024 92.488027 
L 351.053025 66.665455 
L 352.467026 70.972911 
L 353.881026 144.703545 
L 355.295027 154.76291 
L 356.709028 199.611632 
L 358.123028 192.156012 
L 359.537029 148.140612 
L 360.951029 177.633588 
L 362.36503 252.53827 
L 363.779031 251.597502 
L 365.193031 263.612508 
L 366.607032 279.638626 
L 368.021033 284.916484 
L 369.435033 281.590507 
L 370.849034 289.312825 
L 372.263035 244.949282 
L 373.677035 255.316088 
L 375.091036 280.016408 
L 376.505036 276.016356 
L 377.919037 284.097951 
L 379.333038 298.446277 
L 383.57504 336.376405 
L 384.98904 343.098715 
L 386.403041 346.743206 
L 387.817041 352.550696 
L 389.231042 357.684094 
L 390.645043 359.924864 
L 392.059043 362.461934 
L 393.473044 362.798975 
L 394.887045 362.63601 
L 399.129047 362.658233 
L 401.957048 362.650825 
L 413.269053 362.628603 
L 418.925055 362.658233 
L 423.167057 362.66564 
L 428.82306 362.643418 
L 438.721064 362.643418 
L 498.109091 362.673048 
L 498.109091 362.673048 
" style="fill:none;stroke:#000000;stroke-linecap:square;stroke-width:1.5;"/>
   </g>
   <g id="line2d_15">
    <path clip-path="url(#p25dc299157)" d="M 92.290909 362.618424 
L 97.946912 362.565313 
L 107.844916 362.481034 
L 109.258917 362.798269 
L 124.812924 362.60419 
L 126.226924 362.849889 
L 150.264935 362.802109 
L 158.748939 362.995339 
L 161.57694 362.910626 
L 172.888945 362.753256 
L 175.716946 362.680352 
L 177.130947 362.23131 
L 179.958948 361.982915 
L 181.372949 361.74284 
L 184.20095 361.53504 
L 187.028952 361.142299 
L 188.442952 360.979747 
L 192.684954 359.808198 
L 194.098955 358.688302 
L 196.926956 357.307685 
L 199.754957 355.454257 
L 201.168958 354.282932 
L 203.996959 351.351883 
L 205.41096 349.537621 
L 206.82496 347.290455 
L 209.652962 340.30584 
L 211.066962 336.8009 
L 212.480963 336.917251 
L 213.894964 336.883584 
L 215.308964 327.667544 
L 216.722965 326.514663 
L 218.136965 325.898654 
L 219.550966 323.880539 
L 220.964967 322.232799 
L 222.378967 317.933708 
L 223.792968 306.954766 
L 225.206969 283.625672 
L 226.620969 262.561876 
L 229.448971 289.053455 
L 230.862971 284.686841 
L 232.276972 260.90858 
L 233.690972 256.400932 
L 235.104973 242.060555 
L 236.518974 244.158938 
L 237.932974 225.556183 
L 239.346975 200.507943 
L 240.760976 206.571267 
L 242.174976 246.986386 
L 245.002978 257.708005 
L 246.416978 202.18341 
L 247.830979 125.864364 
L 249.244979 160.499463 
L 250.65898 202.943642 
L 252.072981 222.664801 
L 253.486981 236.943077 
L 254.900982 225.951299 
L 256.314983 255.905537 
L 257.728983 231.0665 
L 259.142984 169.995621 
L 260.556984 204.279648 
L 261.970985 199.394695 
L 263.384986 193.306727 
L 264.798986 143.832489 
L 266.212987 215.583741 
L 267.626988 204.061968 
L 269.040988 190.50279 
L 270.454989 230.067353 
L 271.86899 218.658615 
L 273.28299 256.552512 
L 274.696991 258.837716 
L 276.110991 231.124634 
L 277.524992 229.177708 
L 278.938993 281.955005 
L 280.352993 259.79571 
L 281.766994 260.63025 
L 283.180995 216.767412 
L 284.594995 163.922852 
L 286.008996 162.234508 
L 287.422997 219.468459 
L 288.836997 220.87351 
L 290.250998 176.337915 
L 291.664998 200.463209 
L 293.078999 210.900091 
L 294.493 230.313034 
L 295.907 224.949986 
L 297.321001 139.146205 
L 298.735002 223.676714 
L 300.149002 234.441822 
L 301.563003 215.505096 
L 302.977003 229.247776 
L 304.391004 283.655756 
L 305.805005 297.555175 
L 307.219005 281.447105 
L 308.633006 231.418449 
L 310.047007 275.997986 
L 311.461007 265.303726 
L 312.875008 270.813783 
L 314.289009 235.734294 
L 315.703009 274.788121 
L 317.11701 240.284432 
L 318.53101 234.080706 
L 319.945011 186.169789 
L 321.359012 172.476131 
L 322.773012 222.000903 
L 324.187013 241.571737 
L 325.601014 306.71194 
L 327.015014 299.598443 
L 328.429015 234.048283 
L 329.843016 207.711071 
L 331.257016 232.483829 
L 332.671017 221.741011 
L 334.085017 220.132878 
L 335.499018 277.96687 
L 336.913019 273.303648 
L 338.327019 270.091961 
L 339.74102 264.05921 
L 341.155021 300.309952 
L 342.569021 321.715285 
L 343.983022 305.842225 
L 345.397022 308.271393 
L 346.811023 328.924034 
L 348.225024 325.84449 
L 349.639024 294.568421 
L 351.053025 271.23996 
L 352.467026 277.008624 
L 353.881026 284.850788 
L 355.295027 282.934018 
L 356.709028 283.501776 
L 358.123028 261.381059 
L 359.537029 260.473919 
L 360.951029 252.131237 
L 362.36503 230.483336 
L 363.779031 284.056355 
L 365.193031 275.148322 
L 366.607032 245.675258 
L 368.021033 230.001575 
L 369.435033 242.208857 
L 370.849034 288.059554 
L 372.263035 287.370111 
L 373.677035 301.163208 
L 375.091036 304.393388 
L 376.505036 303.341548 
L 379.333038 330.085809 
L 380.747038 334.161292 
L 382.161039 335.890572 
L 383.57504 341.034094 
L 386.403041 349.888815 
L 387.817041 353.597754 
L 389.231042 354.105918 
L 390.645043 356.545856 
L 392.059043 358.353551 
L 393.473044 358.593476 
L 394.887045 358.028264 
L 396.301045 359.990744 
L 397.715046 361.360941 
L 400.543047 362.614488 
L 401.957048 362.87942 
L 404.785049 363.174545 
L 411.855052 362.856299 
L 421.753057 362.82372 
L 481.141083 362.932289 
L 485.383085 362.89623 
L 498.109091 362.935415 
L 498.109091 362.935415 
" style="fill:none;stroke:#000000;stroke-dasharray:5.55,2.4;stroke-dashoffset:0;stroke-width:1.5;"/>
   </g>
   <g id="line2d_16">
    <path clip-path="url(#p25dc299157)" d="M 92.290909 362.845105 
L 185.614951 362.800762 
L 188.442952 362.633697 
L 191.270953 362.264463 
L 192.684954 361.959529 
L 195.512955 360.554635 
L 196.926956 359.604894 
L 198.340957 358.357529 
L 199.754957 356.834936 
L 201.168958 354.953433 
L 203.996959 350.053551 
L 205.41096 347.069957 
L 206.82496 343.629289 
L 209.652962 334.056443 
L 211.066962 330.86247 
L 212.480963 330.405816 
L 213.894964 327.973639 
L 215.308964 320.792965 
L 218.136965 318.416836 
L 219.550966 316.097907 
L 220.964967 316.144693 
L 222.378967 309.452372 
L 223.792968 301.579758 
L 225.206969 281.493798 
L 226.620969 256.516778 
L 228.03497 270.18535 
L 229.448971 293.46934 
L 230.862971 282.386799 
L 232.276972 264.424632 
L 233.690972 248.678542 
L 235.104973 244.231839 
L 236.518974 230.869208 
L 237.932974 207.682282 
L 239.346975 198.493517 
L 240.760976 195.527267 
L 242.174976 227.738167 
L 243.588977 275.528268 
L 245.002978 235.298688 
L 246.416978 172.981238 
L 247.830979 137.395927 
L 249.244979 140.27932 
L 250.65898 174.449324 
L 252.072981 230.059064 
L 253.486981 237.497462 
L 254.900982 239.297974 
L 256.314983 230.434958 
L 257.728983 210.770978 
L 259.142984 188.540786 
L 260.556984 190.141096 
L 261.970985 182.115491 
L 263.384986 174.883118 
L 264.798986 166.231338 
L 266.212987 202.376723 
L 267.626988 197.553427 
L 269.040988 195.827649 
L 270.454989 217.133084 
L 271.86899 232.83899 
L 274.696991 256.175518 
L 276.110991 253.267085 
L 277.524992 238.924747 
L 278.938993 264.371476 
L 280.352993 284.297987 
L 281.766994 256.790637 
L 283.180995 212.274998 
L 284.594995 185.524513 
L 286.008996 177.053891 
L 287.422997 191.752017 
L 288.836997 217.771536 
L 290.250998 205.584599 
L 291.664998 189.576344 
L 293.078999 207.636426 
L 294.493 241.795651 
L 295.907 211.734591 
L 297.321001 164.605228 
L 298.735002 190.287298 
L 300.149002 238.773056 
L 302.977003 232.666176 
L 304.391004 277.336723 
L 305.805005 314.840187 
L 307.219005 294.355274 
L 308.633006 242.520561 
L 310.047007 267.598923 
L 311.461007 283.084409 
L 312.875008 275.09995 
L 314.289009 251.670587 
L 315.703009 264.793464 
L 317.11701 257.571381 
L 318.53101 224.355289 
L 319.945011 184.974528 
L 321.359012 190.75746 
L 322.773012 212.518567 
L 324.187013 252.908875 
L 325.601014 328.615659 
L 327.015014 304.601453 
L 328.429015 224.547281 
L 329.843016 224.794151 
L 331.257016 222.543977 
L 332.671017 222.890059 
L 334.085017 231.409526 
L 335.499018 258.107443 
L 336.913019 280.845158 
L 338.327019 276.799677 
L 339.74102 266.644855 
L 341.155021 308.712318 
L 342.569021 342.299913 
L 343.983022 332.35688 
L 345.397022 330.719807 
L 346.811023 345.446644 
L 348.225024 344.765535 
L 351.053025 262.682625 
L 352.467026 268.483124 
L 353.881026 282.708732 
L 355.295027 275.631346 
L 356.709028 269.831658 
L 358.123028 272.905037 
L 359.537029 260.628076 
L 362.36503 255.784635 
L 363.779031 264.702657 
L 365.193031 271.91561 
L 366.607032 247.624561 
L 368.021033 210.7437 
L 369.435033 236.533182 
L 370.849034 269.61865 
L 372.263035 276.8292 
L 373.677035 289.992539 
L 375.091036 289.426062 
L 376.505036 290.611936 
L 377.919037 314.075766 
L 379.333038 334.364781 
L 380.747038 332.626889 
L 382.161039 335.166212 
L 383.57504 342.824616 
L 384.98904 349.090092 
L 386.403041 352.706248 
L 387.817041 354.346089 
L 389.231042 355.735414 
L 390.645043 355.96787 
L 392.059043 356.714485 
L 393.473044 358.235072 
L 394.887045 358.16898 
L 396.301045 359.41014 
L 397.715046 360.458115 
L 400.543047 361.993808 
L 401.957048 362.311168 
L 406.19905 362.73329 
L 413.269053 362.855192 
L 434.479062 362.891268 
L 498.109091 362.841994 
L 498.109091 362.841994 
" style="fill:none;stroke:#000000;stroke-dasharray:9.6,2.4,1.5,2.4;stroke-dashoffset:0;stroke-width:1.5;"/>
   </g>
   <g id="line2d_17">
    <path clip-path="url(#p25dc299157)" d="M 92.290909 362.834139 
L 181.372949 362.700905 
L 185.614951 362.40001 
L 188.442952 362.017448 
L 191.270953 361.354812 
L 192.684954 360.870524 
L 194.098955 358.378224 
L 195.512955 356.831096 
L 196.926956 354.901615 
L 198.340957 352.387653 
L 199.754957 349.444154 
L 201.168958 345.956228 
L 203.996959 337.516085 
L 206.82496 328.026462 
L 208.238961 322.828595 
L 209.652962 318.477574 
L 211.066962 311.644693 
L 212.480963 312.757547 
L 213.894964 313.462032 
L 215.308964 306.264913 
L 219.550966 302.907842 
L 220.964967 302.714484 
L 222.378967 299.553409 
L 223.792968 290.928951 
L 226.620969 238.024046 
L 228.03497 258.927183 
L 229.448971 274.99582 
L 230.862971 270.154179 
L 232.276972 240.711137 
L 233.690972 234.130562 
L 235.104973 217.004782 
L 236.518974 220.735875 
L 237.932974 197.706395 
L 239.346975 169.840552 
L 240.760976 176.792166 
L 242.174976 224.743806 
L 243.588977 231.076744 
L 245.002978 240.039551 
L 247.830979 110.724699 
L 249.244979 139.263273 
L 250.65898 178.63559 
L 252.072981 199.853101 
L 253.486981 216.473875 
L 254.900982 202.632782 
L 256.314983 236.887343 
L 257.728983 208.757518 
L 259.142984 146.339888 
L 260.556984 180.414735 
L 261.970985 182.560541 
L 263.384986 176.719498 
L 264.798986 135.3607 
L 266.212987 199.092414 
L 267.626988 188.660943 
L 269.040988 174.838818 
L 270.454989 213.816951 
L 271.86899 201.746193 
L 273.28299 243.774644 
L 274.696991 246.131631 
L 276.110991 215.323104 
L 277.524992 214.021009 
L 278.938993 278.314708 
L 280.352993 250.963405 
L 281.766994 253.215501 
L 284.594995 159.340926 
L 286.008996 157.718404 
L 287.422997 207.963586 
L 288.836997 209.554029 
L 290.250998 168.90304 
L 291.664998 189.876448 
L 293.078999 199.416396 
L 294.493 217.364087 
L 295.907 212.735593 
L 297.321001 140.764749 
L 298.735002 213.954397 
L 300.149002 226.152346 
L 301.563003 204.142569 
L 302.977003 219.207233 
L 304.391004 286.775308 
L 305.805005 304.489674 
L 307.219005 285.323215 
L 308.633006 221.757522 
L 310.047007 279.724971 
L 311.461007 265.889753 
L 312.875008 269.32074 
L 314.289009 225.897098 
L 315.703009 276.174525 
L 317.11701 233.951593 
L 318.53101 225.211923 
L 319.945011 182.995336 
L 321.359012 173.345131 
L 322.773012 217.527978 
L 324.187013 239.320175 
L 325.601014 319.671209 
L 327.015014 310.7477 
L 328.429015 224.332122 
L 329.843016 198.949745 
L 331.257016 224.156831 
L 332.671017 214.440348 
L 334.085017 212.891083 
L 335.499018 273.409088 
L 336.913019 267.80227 
L 338.327019 263.099775 
L 339.74102 257.239826 
L 341.155021 309.837391 
L 342.569021 336.430399 
L 343.983022 319.399436 
L 345.397022 323.665922 
L 346.811023 340.248625 
L 348.225024 337.488349 
L 349.639024 290.097967 
L 351.053025 258.254483 
L 352.467026 265.651898 
L 353.881026 274.551918 
L 355.295027 272.332152 
L 356.709028 273.307587 
L 358.123028 252.6474 
L 359.537029 257.715316 
L 360.951029 251.922529 
L 362.36503 232.038457 
L 363.779031 273.550182 
L 365.193031 260.914117 
L 366.607032 228.964294 
L 368.021033 210.123758 
L 369.435033 218.682704 
L 370.849034 265.256988 
L 372.263035 264.680968 
L 373.677035 283.823392 
L 375.091036 287.332349 
L 376.505036 287.813588 
L 377.919037 308.534829 
L 379.333038 334.081476 
L 380.747038 328.817155 
L 382.161039 332.794593 
L 383.57504 341.293125 
L 384.98904 347.908935 
L 386.403041 352.839855 
L 387.817041 356.277154 
L 389.231042 356.504157 
L 390.645043 358.435875 
L 392.059043 359.367009 
L 393.473044 359.711218 
L 394.887045 359.465837 
L 396.301045 360.528809 
L 399.129047 361.715523 
L 400.543047 362.365747 
L 401.957048 362.605921 
L 406.19905 362.863077 
L 417.511055 362.887912 
L 493.867089 362.848604 
L 498.109091 362.849302 
L 498.109091 362.849302 
" style="fill:none;stroke:#000000;stroke-dasharray:1.5,2.475;stroke-dashoffset:0;stroke-width:1.5;"/>
   </g>
   <g id="patch_3">
    <path d="M 72 378 
L 72 51.84 
" style="fill:none;stroke:#000000;stroke-linecap:square;stroke-linejoin:miter;stroke-width:0.8;"/>
   </g>
   <g id="patch_4">
    <path d="M 518.4 378 
L 518.4 51.84 
" style="fill:none;stroke:#000000;stroke-linecap:square;stroke-linejoin:miter;stroke-width:0.8;"/>
   </g>
   <g id="patch_5">
    <path d="M 72 378 
L 518.4 378 
" style="fill:none;stroke:#000000;stroke-linecap:square;stroke-linejoin:miter;stroke-width:0.8;"/>
   </g>
   <g id="patch_6">
    <path d="M 72 51.84 
L 518.4 51.84 
" style="fill:none;stroke:#000000;stroke-linecap:square;stroke-linejoin:miter;stroke-width:0.8;"/>
   </g>
   <g id="legend_1">
    <g id="patch_7">
     <path d="M 408.935625 129.3075 
L 510 129.3075 
Q 512.4 129.3075 512.4 126.9075 
L 512.4 60.24 
Q 512.4 57.84 510 57.84 
L 408.935625 57.84 
Q 406.535625 57.84 406.535625 60.24 
L 406.535625 126.9075 
Q 406.535625 129.3075 408.935625 129.3075 
z
" style="fill:#ffffff;opacity:0.8;stroke:#cccccc;stroke-linejoin:miter;"/>
    </g>
    <g id="line2d_18">
     <path d="M 411.335625 66.84 
L 435.335625 66.84 
" style="fill:none;stroke:#000000;stroke-linecap:square;stroke-width:1.5;"/>
    </g>
    <g id="line2d_19"/>
    <g id="text_15">
     <!-- Real -->
     <defs>
      <path d="M 67.578125 0 
L 49.90625 0 
L 27.484375 30.953125 
Q 25 30.859375 23.4375 30.859375 
Q 22.796875 30.859375 22.0625 30.875 
Q 21.34375 30.90625 20.5625 30.953125 
L 20.5625 11.71875 
Q 20.5625 5.46875 21.921875 3.953125 
Q 23.78125 1.8125 27.484375 1.8125 
L 30.078125 1.8125 
L 30.078125 0 
L 1.703125 0 
L 1.703125 1.8125 
L 4.203125 1.8125 
Q 8.40625 1.8125 10.203125 4.546875 
Q 11.234375 6.0625 11.234375 11.71875 
L 11.234375 54.5 
Q 11.234375 60.75 9.859375 62.25 
Q 7.953125 64.40625 4.203125 64.40625 
L 1.703125 64.40625 
L 1.703125 66.21875 
L 25.828125 66.21875 
Q 36.375 66.21875 41.375 64.671875 
Q 46.390625 63.140625 49.875 59.015625 
Q 53.375 54.890625 53.375 49.171875 
Q 53.375 43.0625 49.390625 38.5625 
Q 45.40625 34.078125 37.0625 32.234375 
L 50.734375 13.234375 
Q 55.421875 6.6875 58.78125 4.53125 
Q 62.15625 2.390625 67.578125 1.8125 
z
M 20.5625 34.03125 
Q 21.484375 34.03125 22.171875 34 
Q 22.859375 33.984375 23.296875 33.984375 
Q 32.765625 33.984375 37.578125 38.078125 
Q 42.390625 42.1875 42.390625 48.53125 
Q 42.390625 54.734375 38.5 58.609375 
Q 34.625 62.5 28.21875 62.5 
Q 25.390625 62.5 20.5625 61.578125 
z
" id="TimesNewRomanPSMT-52"/>
      <path d="M 10.640625 27.875 
Q 10.59375 17.921875 15.484375 12.25 
Q 20.359375 6.59375 26.953125 6.59375 
Q 31.34375 6.59375 34.59375 9 
Q 37.84375 11.421875 40.046875 17.28125 
L 41.546875 16.3125 
Q 40.53125 9.625 35.59375 4.125 
Q 30.671875 -1.375 23.25 -1.375 
Q 15.1875 -1.375 9.453125 4.90625 
Q 3.71875 11.1875 3.71875 21.78125 
Q 3.71875 33.25 9.59375 39.671875 
Q 15.484375 46.09375 24.359375 46.09375 
Q 31.890625 46.09375 36.71875 41.140625 
Q 41.546875 36.1875 41.546875 27.875 
z
M 10.640625 30.71875 
L 31.34375 30.71875 
Q 31.109375 35.015625 30.328125 36.765625 
Q 29.109375 39.5 26.6875 41.0625 
Q 24.265625 42.625 21.625 42.625 
Q 17.578125 42.625 14.375 39.46875 
Q 11.1875 36.328125 10.640625 30.71875 
z
" id="TimesNewRomanPSMT-65"/>
      <path d="M 28.46875 6.453125 
Q 21.578125 1.125 19.828125 0.296875 
Q 17.1875 -0.921875 14.203125 -0.921875 
Q 9.578125 -0.921875 6.5625 2.25 
Q 3.5625 5.421875 3.5625 10.59375 
Q 3.5625 13.875 5.03125 16.265625 
Q 7.03125 19.578125 11.984375 22.5 
Q 16.9375 25.4375 28.46875 29.640625 
L 28.46875 31.390625 
Q 28.46875 38.09375 26.34375 40.578125 
Q 24.21875 43.0625 20.171875 43.0625 
Q 17.09375 43.0625 15.28125 41.40625 
Q 13.421875 39.75 13.421875 37.59375 
L 13.53125 34.765625 
Q 13.53125 32.515625 12.375 31.296875 
Q 11.234375 30.078125 9.375 30.078125 
Q 7.5625 30.078125 6.421875 31.34375 
Q 5.28125 32.625 5.28125 34.8125 
Q 5.28125 39.015625 9.578125 42.53125 
Q 13.875 46.046875 21.625 46.046875 
Q 27.59375 46.046875 31.390625 44.046875 
Q 34.28125 42.53125 35.640625 39.3125 
Q 36.53125 37.203125 36.53125 30.71875 
L 36.53125 15.53125 
Q 36.53125 9.125 36.765625 7.6875 
Q 37.015625 6.25 37.578125 5.765625 
Q 38.140625 5.28125 38.875 5.28125 
Q 39.65625 5.28125 40.234375 5.609375 
Q 41.265625 6.25 44.1875 9.1875 
L 44.1875 6.453125 
Q 38.71875 -0.875 33.734375 -0.875 
Q 31.34375 -0.875 29.921875 0.78125 
Q 28.515625 2.4375 28.46875 6.453125 
z
M 28.46875 9.625 
L 28.46875 26.65625 
Q 21.09375 23.734375 18.953125 22.515625 
Q 15.09375 20.359375 13.421875 18.015625 
Q 11.765625 15.671875 11.765625 12.890625 
Q 11.765625 9.375 13.859375 7.046875 
Q 15.96875 4.734375 18.703125 4.734375 
Q 22.40625 4.734375 28.46875 9.625 
z
" id="TimesNewRomanPSMT-61"/>
      <path d="M 18.5 69.4375 
L 18.5 10.109375 
Q 18.5 5.90625 19.109375 4.53125 
Q 19.734375 3.171875 21 2.46875 
Q 22.265625 1.765625 25.734375 1.765625 
L 25.734375 0 
L 3.8125 0 
L 3.8125 1.765625 
Q 6.890625 1.765625 8 2.390625 
Q 9.125 3.03125 9.765625 4.484375 
Q 10.40625 5.953125 10.40625 10.109375 
L 10.40625 50.734375 
Q 10.40625 58.296875 10.0625 60.03125 
Q 9.71875 61.765625 8.953125 62.390625 
Q 8.203125 63.03125 7.03125 63.03125 
Q 5.765625 63.03125 3.8125 62.25 
L 2.984375 63.96875 
L 16.3125 69.4375 
z
" id="TimesNewRomanPSMT-6c"/>
     </defs>
     <g transform="translate(444.935625 71.04)scale(0.12 -0.12)">
      <use xlink:href="#TimesNewRomanPSMT-52"/>
      <use x="66.699219" xlink:href="#TimesNewRomanPSMT-65"/>
      <use x="111.083984" xlink:href="#TimesNewRomanPSMT-61"/>
      <use x="155.46875" xlink:href="#TimesNewRomanPSMT-6c"/>
     </g>
    </g>
    <g id="line2d_20">
     <path d="M 411.335625 83.806875 
L 435.335625 83.806875 
" style="fill:none;stroke:#000000;stroke-dasharray:5.55,2.4;stroke-dashoffset:0;stroke-width:1.5;"/>
    </g>
    <g id="line2d_21"/>
    <g id="text_16">
     <!-- DNN -->
     <defs>
      <path d="M 1.703125 0 
L 1.703125 1.8125 
L 4.203125 1.8125 
Q 8.40625 1.8125 10.15625 4.5 
Q 11.234375 6.109375 11.234375 11.71875 
L 11.234375 54.5 
Q 11.234375 60.6875 9.859375 62.25 
Q 7.953125 64.40625 4.203125 64.40625 
L 1.703125 64.40625 
L 1.703125 66.21875 
L 28.65625 66.21875 
Q 43.5 66.21875 51.234375 62.84375 
Q 58.984375 59.46875 63.6875 51.609375 
Q 68.40625 43.75 68.40625 33.453125 
Q 68.40625 19.625 60.015625 10.359375 
Q 50.59375 0 31.296875 0 
z
M 20.609375 4.78125 
Q 26.8125 3.421875 31 3.421875 
Q 42.328125 3.421875 49.796875 11.375 
Q 57.28125 19.34375 57.28125 32.953125 
Q 57.28125 46.6875 49.796875 54.59375 
Q 42.328125 62.5 30.609375 62.5 
Q 26.21875 62.5 20.609375 61.078125 
z
" id="TimesNewRomanPSMT-44"/>
      <path d="M -1.3125 66.21875 
L 16.65625 66.21875 
L 57.125 16.546875 
L 57.125 54.734375 
Q 57.125 60.84375 55.765625 62.359375 
Q 53.953125 64.40625 50.046875 64.40625 
L 47.75 64.40625 
L 47.75 66.21875 
L 70.796875 66.21875 
L 70.796875 64.40625 
L 68.453125 64.40625 
Q 64.265625 64.40625 62.5 61.859375 
Q 61.421875 60.296875 61.421875 54.734375 
L 61.421875 -1.078125 
L 59.671875 -1.078125 
L 16.015625 52.25 
L 16.015625 11.46875 
Q 16.015625 5.375 17.328125 3.859375 
Q 19.1875 1.8125 23.046875 1.8125 
L 25.390625 1.8125 
L 25.390625 0 
L 2.34375 0 
L 2.34375 1.8125 
L 4.640625 1.8125 
Q 8.890625 1.8125 10.640625 4.34375 
Q 11.71875 5.90625 11.71875 11.46875 
L 11.71875 57.515625 
Q 8.84375 60.890625 7.34375 61.953125 
Q 5.859375 63.03125 2.984375 63.96875 
Q 1.5625 64.40625 -1.3125 64.40625 
z
" id="TimesNewRomanPSMT-4e"/>
     </defs>
     <g transform="translate(444.935625 88.006875)scale(0.12 -0.12)">
      <use xlink:href="#TimesNewRomanPSMT-44"/>
      <use x="72.216797" xlink:href="#TimesNewRomanPSMT-4e"/>
      <use x="144.433594" xlink:href="#TimesNewRomanPSMT-4e"/>
     </g>
    </g>
    <g id="line2d_22">
     <path d="M 411.335625 100.77375 
L 435.335625 100.77375 
" style="fill:none;stroke:#000000;stroke-dasharray:9.6,2.4,1.5,2.4;stroke-dashoffset:0;stroke-width:1.5;"/>
    </g>
    <g id="line2d_23"/>
    <g id="text_17">
     <!-- LSTM -->
     <defs>
      <path d="M 57.328125 18.3125 
L 58.9375 17.96875 
L 53.265625 0 
L 2 0 
L 2 1.8125 
L 4.5 1.8125 
Q 8.6875 1.8125 10.5 4.546875 
Q 11.53125 6.109375 11.53125 11.765625 
L 11.53125 54.5 
Q 11.53125 60.6875 10.15625 62.25 
Q 8.25 64.40625 4.5 64.40625 
L 2 64.40625 
L 2 66.21875 
L 31.984375 66.21875 
L 31.984375 64.40625 
Q 26.703125 64.453125 24.578125 63.421875 
Q 22.46875 62.40625 21.6875 60.84375 
Q 20.90625 59.28125 20.90625 53.375 
L 20.90625 11.765625 
Q 20.90625 7.71875 21.6875 6.203125 
Q 22.265625 5.171875 23.484375 4.6875 
Q 24.703125 4.203125 31.109375 4.203125 
L 35.9375 4.203125 
Q 43.5625 4.203125 46.625 5.328125 
Q 49.703125 6.453125 52.234375 9.296875 
Q 54.78125 12.15625 57.328125 18.3125 
z
" id="TimesNewRomanPSMT-4c"/>
      <path d="M 45.84375 67.71875 
L 45.84375 44.828125 
L 44.046875 44.828125 
Q 43.171875 51.421875 40.890625 55.328125 
Q 38.625 59.234375 34.421875 61.515625 
Q 30.21875 63.8125 25.734375 63.8125 
Q 20.65625 63.8125 17.328125 60.71875 
Q 14.015625 57.625 14.015625 53.65625 
Q 14.015625 50.640625 16.109375 48.140625 
Q 19.140625 44.484375 30.515625 38.375 
Q 39.796875 33.40625 43.1875 30.734375 
Q 46.578125 28.078125 48.40625 24.453125 
Q 50.25 20.84375 50.25 16.890625 
Q 50.25 9.375 44.40625 3.921875 
Q 38.578125 -1.515625 29.390625 -1.515625 
Q 26.515625 -1.515625 23.96875 -1.078125 
Q 22.46875 -0.828125 17.703125 0.703125 
Q 12.9375 2.25 11.671875 2.25 
Q 10.453125 2.25 9.734375 1.515625 
Q 9.03125 0.78125 8.6875 -1.515625 
L 6.890625 -1.515625 
L 6.890625 21.1875 
L 8.6875 21.1875 
Q 9.96875 14.0625 12.109375 10.515625 
Q 14.265625 6.984375 18.671875 4.640625 
Q 23.09375 2.296875 28.375 2.296875 
Q 34.46875 2.296875 38 5.515625 
Q 41.546875 8.734375 41.546875 13.140625 
Q 41.546875 15.578125 40.203125 18.0625 
Q 38.875 20.5625 36.03125 22.703125 
Q 34.125 24.171875 25.625 28.921875 
Q 17.140625 33.6875 13.546875 36.515625 
Q 9.96875 39.359375 8.109375 42.765625 
Q 6.25 46.1875 6.25 50.296875 
Q 6.25 57.421875 11.71875 62.5625 
Q 17.1875 67.71875 25.640625 67.71875 
Q 30.90625 67.71875 36.8125 65.140625 
Q 39.546875 63.921875 40.671875 63.921875 
Q 41.9375 63.921875 42.75 64.671875 
Q 43.5625 65.4375 44.046875 67.71875 
z
" id="TimesNewRomanPSMT-53"/>
      <path d="M 57.859375 66.21875 
L 58.59375 50.6875 
L 56.734375 50.6875 
Q 56.203125 54.78125 55.28125 56.546875 
Q 53.765625 59.375 51.25 60.71875 
Q 48.734375 62.0625 44.625 62.0625 
L 35.296875 62.0625 
L 35.296875 11.46875 
Q 35.296875 5.375 36.625 3.859375 
Q 38.484375 1.8125 42.328125 1.8125 
L 44.625 1.8125 
L 44.625 0 
L 16.546875 0 
L 16.546875 1.8125 
L 18.890625 1.8125 
Q 23.09375 1.8125 24.859375 4.34375 
Q 25.921875 5.90625 25.921875 11.46875 
L 25.921875 62.0625 
L 17.96875 62.0625 
Q 13.328125 62.0625 11.375 61.375 
Q 8.84375 60.453125 7.03125 57.8125 
Q 5.21875 55.171875 4.890625 50.6875 
L 3.03125 50.6875 
L 3.8125 66.21875 
z
" id="TimesNewRomanPSMT-54"/>
      <path d="M 40.921875 0 
L 15.328125 55.71875 
L 15.328125 11.46875 
Q 15.328125 5.375 16.65625 3.859375 
Q 18.453125 1.8125 22.359375 1.8125 
L 24.703125 1.8125 
L 24.703125 0 
L 1.65625 0 
L 1.65625 1.8125 
L 4 1.8125 
Q 8.203125 1.8125 9.96875 4.34375 
Q 11.03125 5.90625 11.03125 11.46875 
L 11.03125 54.734375 
Q 11.03125 59.125 10.0625 61.078125 
Q 9.375 62.5 7.546875 63.453125 
Q 5.71875 64.40625 1.65625 64.40625 
L 1.65625 66.21875 
L 20.40625 66.21875 
L 44.4375 14.40625 
L 68.0625 66.21875 
L 86.8125 66.21875 
L 86.8125 64.40625 
L 84.515625 64.40625 
Q 80.28125 64.40625 78.515625 61.859375 
Q 77.4375 60.296875 77.4375 54.734375 
L 77.4375 11.46875 
Q 77.4375 5.375 78.8125 3.859375 
Q 80.609375 1.8125 84.515625 1.8125 
L 86.8125 1.8125 
L 86.8125 0 
L 58.6875 0 
L 58.6875 1.8125 
L 61.03125 1.8125 
Q 65.28125 1.8125 67 4.34375 
Q 68.0625 5.90625 68.0625 11.46875 
L 68.0625 55.71875 
L 42.53125 0 
z
" id="TimesNewRomanPSMT-4d"/>
     </defs>
     <g transform="translate(444.935625 104.97375)scale(0.12 -0.12)">
      <use xlink:href="#TimesNewRomanPSMT-4c"/>
      <use x="61.083984" xlink:href="#TimesNewRomanPSMT-53"/>
      <use x="116.699219" xlink:href="#TimesNewRomanPSMT-54"/>
      <use x="177.783203" xlink:href="#TimesNewRomanPSMT-4d"/>
     </g>
    </g>
    <g id="line2d_24">
     <path d="M 411.335625 117.740625 
L 435.335625 117.740625 
" style="fill:none;stroke:#000000;stroke-dasharray:1.5,2.475;stroke-dashoffset:0;stroke-width:1.5;"/>
    </g>
    <g id="line2d_25"/>
    <g id="text_18">
     <!-- WPD-LSTM -->
     <defs>
      <path d="M 93.609375 66.21875 
L 93.609375 64.40625 
Q 91.015625 64.40625 89.40625 63.46875 
Q 87.796875 62.546875 86.328125 60.015625 
Q 85.359375 58.296875 83.25 51.859375 
L 64.796875 -1.515625 
L 62.84375 -1.515625 
L 47.75 40.828125 
L 32.765625 -1.515625 
L 31 -1.515625 
L 11.328125 53.46875 
Q 9.125 59.625 8.546875 60.75 
Q 7.5625 62.59375 5.875 63.5 
Q 4.203125 64.40625 1.3125 64.40625 
L 1.3125 66.21875 
L 25.828125 66.21875 
L 25.828125 64.40625 
L 24.65625 64.40625 
Q 22.078125 64.40625 20.703125 63.234375 
Q 19.34375 62.0625 19.34375 60.40625 
Q 19.34375 58.6875 21.484375 52.546875 
L 34.515625 15.375 
L 45.515625 46.96875 
L 43.5625 52.546875 
L 42 56.984375 
Q 40.96875 59.421875 39.703125 61.28125 
Q 39.0625 62.203125 38.140625 62.84375 
Q 36.921875 63.71875 35.6875 64.109375 
Q 34.765625 64.40625 32.765625 64.40625 
L 32.765625 66.21875 
L 58.546875 66.21875 
L 58.546875 64.40625 
L 56.78125 64.40625 
Q 54.046875 64.40625 52.78125 63.234375 
Q 51.515625 62.0625 51.515625 60.0625 
Q 51.515625 57.5625 53.71875 51.375 
L 66.40625 15.375 
L 79 51.859375 
Q 81.15625 57.90625 81.15625 60.25 
Q 81.15625 61.375 80.4375 62.34375 
Q 79.734375 63.328125 78.65625 63.71875 
Q 76.8125 64.40625 73.828125 64.40625 
L 73.828125 66.21875 
z
" id="TimesNewRomanPSMT-57"/>
      <path d="M 20.515625 31 
L 20.515625 11.71875 
Q 20.515625 5.46875 21.875 3.953125 
Q 23.734375 1.8125 27.484375 1.8125 
L 30.03125 1.8125 
L 30.03125 0 
L 1.65625 0 
L 1.65625 1.8125 
L 4.15625 1.8125 
Q 8.34375 1.8125 10.15625 4.546875 
Q 11.140625 6.0625 11.140625 11.71875 
L 11.140625 54.5 
Q 11.140625 60.75 9.8125 62.25 
Q 7.90625 64.40625 4.15625 64.40625 
L 1.65625 64.40625 
L 1.65625 66.21875 
L 25.921875 66.21875 
Q 34.8125 66.21875 39.9375 64.375 
Q 45.0625 62.546875 48.578125 58.203125 
Q 52.09375 53.859375 52.09375 47.90625 
Q 52.09375 39.796875 46.75 34.71875 
Q 41.40625 29.640625 31.640625 29.640625 
Q 29.25 29.640625 26.46875 29.984375 
Q 23.6875 30.328125 20.515625 31 
z
M 20.515625 33.796875 
Q 23.09375 33.296875 25.09375 33.046875 
Q 27.09375 32.8125 28.515625 32.8125 
Q 33.59375 32.8125 37.28125 36.734375 
Q 40.96875 40.671875 40.96875 46.921875 
Q 40.96875 51.21875 39.203125 54.90625 
Q 37.453125 58.59375 34.21875 60.421875 
Q 31 62.25 26.90625 62.25 
Q 24.421875 62.25 20.515625 61.328125 
z
" id="TimesNewRomanPSMT-50"/>
      <path d="M 4.046875 26.125 
L 29.296875 26.125 
L 29.296875 18.75 
L 4.046875 18.75 
z
" id="TimesNewRomanPSMT-2d"/>
     </defs>
     <g transform="translate(444.935625 121.940625)scale(0.12 -0.12)">
      <use xlink:href="#TimesNewRomanPSMT-57"/>
      <use x="94.384766" xlink:href="#TimesNewRomanPSMT-50"/>
      <use x="150" xlink:href="#TimesNewRomanPSMT-44"/>
      <use x="222.216797" xlink:href="#TimesNewRomanPSMT-2d"/>
      <use x="255.517578" xlink:href="#TimesNewRomanPSMT-4c"/>
      <use x="316.601562" xlink:href="#TimesNewRomanPSMT-53"/>
      <use x="372.216797" xlink:href="#TimesNewRomanPSMT-54"/>
      <use x="433.300781" xlink:href="#TimesNewRomanPSMT-4d"/>
     </g>
    </g>
   </g>
  </g>
 </g>
 <defs>
  <clipPath id="p25dc299157">
   <rect height="326.16" width="446.4" x="72" y="51.84"/>
  </clipPath>
 </defs>
</svg>
