<?xml version="1.0" encoding="utf-8" standalone="no"?>
<!DOCTYPE svg PUBLIC "-//W3C//DTD SVG 1.1//EN"
  "http://www.w3.org/Graphics/SVG/1.1/DTD/svg11.dtd">
<!-- Created with matplotlib (http://matplotlib.org/) -->
<svg height="360pt" version="1.1" viewBox="0 0 504 360" width="504pt" xmlns="http://www.w3.org/2000/svg" xmlns:xlink="http://www.w3.org/1999/xlink">
 <defs>
  <style type="text/css">
*{stroke-linecap:butt;stroke-linejoin:round;}
  </style>
 </defs>
 <g id="figure_1">
  <g id="patch_1">
   <path d="M 0 360 
L 504 360 
L 504 0 
L 0 0 
z
" style="fill:#ffffff;"/>
  </g>
  <g id="axes_1">
   <g id="patch_2">
    <path d="M 63 315 
L 453.6 315 
L 453.6 43.2 
L 63 43.2 
z
" style="fill:#ffffff;"/>
   </g>
   <g id="matplotlib.axis_1">
    <g id="xtick_1">
     <g id="line2d_1">
      <defs>
       <path d="M 0 0 
L 0 3.5 
" id="mb853f6e3bb" style="stroke:#000000;stroke-width:0.8;"/>
      </defs>
      <g>
       <use style="stroke:#000000;stroke-width:0.8;" x="80.754545" xlink:href="#mb853f6e3bb" y="315"/>
      </g>
     </g>
     <g id="text_1">
      <!-- 00:00 -->
      <defs>
       <path d="M 3.125 29.296875 
Q 3.90625 50 6.4375 56.046875 
Q 8.984375 62.109375 13.671875 66.015625 
Q 18.359375 69.921875 25.1875 69.921875 
Q 32.03125 69.921875 37.109375 64.25 
Q 42.1875 58.59375 43.75 50 
Q 45.3125 41.40625 44.71875 30.265625 
Q 44.140625 19.140625 40.8125 12.109375 
Q 37.5 5.078125 30.859375 2.34375 
Q 24.21875 -0.390625 17.578125 2.921875 
Q 10.9375 6.25 8.203125 11.71875 
Q 5.46875 17.1875 4.296875 23.234375 
Q 3.125 29.296875 3.90625 50 
z
M 12.890625 52.734375 
Q 10.546875 31.25 12.5 22.84375 
Q 14.453125 14.453125 18.9375 10.9375 
Q 23.4375 7.421875 28.125 9.5625 
Q 32.8125 11.71875 34.953125 18.15625 
Q 37.109375 24.609375 37.109375 32.21875 
Q 37.109375 39.84375 36.515625 46.09375 
Q 35.9375 52.34375 33 57.421875 
Q 30.078125 62.5 25.1875 62.6875 
Q 20.3125 62.890625 16.59375 57.8125 
Q 12.890625 52.734375 10.546875 31.25 
z
" id="SimHei-30"/>
       <path d="M 28.515625 37.890625 
L 19.53125 37.890625 
L 19.53125 46.484375 
L 28.515625 46.484375 
z
M 28.515625 1.953125 
L 19.53125 1.953125 
L 19.53125 10.546875 
L 28.515625 10.546875 
z
" id="SimHei-3a"/>
      </defs>
      <g transform="translate(64.504545 330.9375)scale(0.13 -0.13)">
       <use xlink:href="#SimHei-30"/>
       <use x="50" xlink:href="#SimHei-30"/>
       <use x="100" xlink:href="#SimHei-3a"/>
       <use x="150" xlink:href="#SimHei-30"/>
       <use x="200" xlink:href="#SimHei-30"/>
      </g>
     </g>
    </g>
    <g id="xtick_2">
     <g id="line2d_2">
      <g>
       <use style="stroke:#000000;stroke-width:0.8;" x="142.617073" xlink:href="#mb853f6e3bb" y="315"/>
      </g>
     </g>
     <g id="text_2">
      <!-- 04:00 -->
      <defs>
       <path d="M 31.25 17.1875 
L 1.171875 17.1875 
L 1.171875 23.828125 
L 32.8125 69.53125 
L 38.671875 69.53125 
L 38.671875 23.828125 
L 48.046875 23.828125 
L 48.046875 17.1875 
L 38.671875 17.1875 
L 38.671875 2.34375 
L 31.25 2.34375 
z
M 31.25 23.828125 
L 31.25 54.6875 
L 9.375 23.828125 
z
" id="SimHei-34"/>
      </defs>
      <g transform="translate(126.367073 330.9375)scale(0.13 -0.13)">
       <use xlink:href="#SimHei-30"/>
       <use x="50" xlink:href="#SimHei-34"/>
       <use x="100" xlink:href="#SimHei-3a"/>
       <use x="150" xlink:href="#SimHei-30"/>
       <use x="200" xlink:href="#SimHei-30"/>
      </g>
     </g>
    </g>
    <g id="xtick_3">
     <g id="line2d_3">
      <g>
       <use style="stroke:#000000;stroke-width:0.8;" x="204.479601" xlink:href="#mb853f6e3bb" y="315"/>
      </g>
     </g>
     <g id="text_3">
      <!-- 8:00 -->
      <defs>
       <path d="M 2.734375 16.796875 
Q 2.734375 26.171875 5.078125 30.65625 
Q 7.421875 35.15625 12.890625 37.890625 
Q 8.203125 40.625 6.640625 43.9375 
Q 5.078125 47.265625 4.875 51.5625 
Q 4.6875 55.859375 6.046875 58.984375 
Q 7.421875 62.109375 10.15625 64.84375 
Q 12.890625 67.578125 16.203125 68.546875 
Q 19.53125 69.53125 23.4375 69.53125 
Q 27.34375 69.53125 30.46875 68.75 
Q 33.59375 67.96875 37.109375 65.421875 
Q 40.625 62.890625 42.1875 58.203125 
Q 43.75 53.515625 41.984375 47.265625 
Q 40.234375 41.015625 32.8125 37.5 
Q 39.453125 35.546875 42.1875 31.4375 
Q 44.921875 27.34375 44.921875 21.484375 
Q 44.921875 15.625 43.15625 12.109375 
Q 41.40625 8.59375 39.25 6.25 
Q 37.109375 3.90625 33.390625 2.53125 
Q 29.6875 1.171875 24.015625 1.171875 
Q 18.359375 1.171875 14.25 2.53125 
Q 10.15625 3.90625 7.421875 6.640625 
Q 4.6875 9.375 3.703125 13.078125 
Q 2.734375 16.796875 2.734375 26.171875 
z
M 10.9375 26.5625 
Q 10.546875 17.1875 12.296875 13.671875 
Q 14.0625 10.15625 18.75 9.171875 
Q 23.4375 8.203125 28.515625 9.375 
Q 33.59375 10.546875 35.546875 14.84375 
Q 37.5 19.140625 36.90625 23.4375 
Q 36.328125 27.734375 32.03125 30.65625 
Q 27.734375 33.59375 22.65625 33.203125 
Q 17.578125 32.8125 14.25 29.6875 
Q 10.9375 26.5625 10.546875 17.1875 
z
M 12.109375 56.25 
Q 12.109375 48.4375 14.84375 44.921875 
Q 17.578125 41.40625 23.4375 41.40625 
Q 29.296875 41.40625 32.21875 44.921875 
Q 35.15625 48.4375 34.953125 53.3125 
Q 34.765625 58.203125 31.4375 60.546875 
Q 28.125 62.890625 22.453125 62.5 
Q 16.796875 62.109375 14.453125 59.171875 
Q 12.109375 56.25 12.109375 48.4375 
z
" id="SimHei-38"/>
      </defs>
      <g transform="translate(191.479601 330.9375)scale(0.13 -0.13)">
       <use xlink:href="#SimHei-38"/>
       <use x="50" xlink:href="#SimHei-3a"/>
       <use x="100" xlink:href="#SimHei-30"/>
       <use x="150" xlink:href="#SimHei-30"/>
      </g>
     </g>
    </g>
    <g id="xtick_4">
     <g id="line2d_4">
      <g>
       <use style="stroke:#000000;stroke-width:0.8;" x="266.342129" xlink:href="#mb853f6e3bb" y="315"/>
      </g>
     </g>
     <g id="text_4">
      <!-- 12:00 -->
      <defs>
       <path d="M 21.875 56.25 
Q 16.796875 51.171875 8.984375 46.484375 
L 8.984375 53.90625 
Q 18.75 60.546875 25 69.53125 
L 29.6875 69.53125 
L 29.6875 2.34375 
L 21.875 2.34375 
z
" id="SimHei-31"/>
       <path d="M 4.6875 3.90625 
Q 5.078125 9.765625 10.15625 14.453125 
Q 15.234375 19.140625 23.046875 29.09375 
Q 30.859375 39.0625 33.203125 44.53125 
Q 35.546875 50 34.953125 53.90625 
Q 34.375 57.8125 31.25 60.34375 
Q 28.125 62.890625 24.015625 62.5 
Q 19.921875 62.109375 16.203125 59.375 
Q 12.5 56.640625 10.546875 51.171875 
L 3.125 52.34375 
Q 6.25 61.328125 11.125 65.421875 
Q 16.015625 69.53125 22.65625 69.921875 
Q 26.5625 70.3125 29.6875 69.71875 
Q 32.8125 69.140625 36.125 66.984375 
Q 39.453125 64.84375 41.59375 60.546875 
Q 43.75 56.25 43.15625 50.1875 
Q 42.578125 44.140625 37.109375 35.734375 
Q 31.640625 27.34375 16.015625 9.375 
L 44.140625 9.375 
L 44.140625 2.34375 
L 4.6875 2.34375 
z
" id="SimHei-32"/>
      </defs>
      <g transform="translate(250.092129 330.9375)scale(0.13 -0.13)">
       <use xlink:href="#SimHei-31"/>
       <use x="50" xlink:href="#SimHei-32"/>
       <use x="100" xlink:href="#SimHei-3a"/>
       <use x="150" xlink:href="#SimHei-30"/>
       <use x="200" xlink:href="#SimHei-30"/>
      </g>
     </g>
    </g>
    <g id="xtick_5">
     <g id="line2d_5">
      <g>
       <use style="stroke:#000000;stroke-width:0.8;" x="328.204656" xlink:href="#mb853f6e3bb" y="315"/>
      </g>
     </g>
     <g id="text_5">
      <!-- 16:00 -->
      <defs>
       <path d="M 3.515625 19.53125 
Q 4.296875 30.859375 6.046875 34.765625 
Q 7.8125 38.671875 11.328125 44.53125 
L 27.34375 69.53125 
L 36.328125 69.53125 
L 19.921875 43.75 
Q 30.46875 46.484375 36.71875 42.96875 
Q 42.96875 39.453125 45.109375 34.953125 
Q 47.265625 30.46875 47.453125 25.1875 
Q 47.65625 19.921875 45.890625 14.84375 
Q 44.140625 9.765625 39.640625 5.65625 
Q 35.15625 1.5625 27.140625 1.171875 
Q 19.140625 0.78125 13.46875 4.09375 
Q 7.8125 7.421875 5.65625 13.46875 
Q 3.515625 19.53125 4.296875 30.859375 
z
M 12.5 16.015625 
Q 19.53125 8.59375 25.390625 8.203125 
Q 31.25 7.8125 35.15625 12.109375 
Q 39.0625 16.40625 39.0625 24.609375 
Q 39.0625 32.8125 34.171875 35.9375 
Q 29.296875 39.0625 23.234375 38.28125 
Q 17.1875 37.5 14.453125 32.421875 
Q 11.71875 27.34375 12.109375 21.671875 
Q 12.5 16.015625 19.53125 8.59375 
z
" id="SimHei-36"/>
      </defs>
      <g transform="translate(311.954656 330.9375)scale(0.13 -0.13)">
       <use xlink:href="#SimHei-31"/>
       <use x="50" xlink:href="#SimHei-36"/>
       <use x="100" xlink:href="#SimHei-3a"/>
       <use x="150" xlink:href="#SimHei-30"/>
       <use x="200" xlink:href="#SimHei-30"/>
      </g>
     </g>
    </g>
    <g id="xtick_6">
     <g id="line2d_6">
      <g>
       <use style="stroke:#000000;stroke-width:0.8;" x="390.067184" xlink:href="#mb853f6e3bb" y="315"/>
      </g>
     </g>
     <g id="text_6">
      <!-- 20:00 -->
      <g transform="translate(373.817184 330.9375)scale(0.13 -0.13)">
       <use xlink:href="#SimHei-32"/>
       <use x="50" xlink:href="#SimHei-30"/>
       <use x="100" xlink:href="#SimHei-3a"/>
       <use x="150" xlink:href="#SimHei-30"/>
       <use x="200" xlink:href="#SimHei-30"/>
      </g>
     </g>
    </g>
    <g id="xtick_7">
     <g id="line2d_7">
      <g>
       <use style="stroke:#000000;stroke-width:0.8;" x="451.929712" xlink:href="#mb853f6e3bb" y="315"/>
      </g>
     </g>
    </g>
    <g id="text_7">
     <!-- 时刻 -->
     <defs>
      <path d="M 39.453125 71.484375 
Q 39.0625 57.421875 39.0625 37.5 
Q 39.0625 17.578125 39.453125 6.25 
L 31.25 6.25 
L 31.25 13.671875 
L 15.625 13.671875 
L 15.625 0.78125 
L 7.421875 0.78125 
Q 7.8125 18.75 7.8125 36.71875 
Q 7.8125 55.078125 7.421875 71.484375 
L 39.453125 71.484375 
z
M 76.171875 59.765625 
Q 76.171875 71.484375 75.78125 81.640625 
L 84.375 81.640625 
Q 83.984375 71.484375 83.984375 59.765625 
Q 89.84375 59.765625 96.484375 60.15625 
L 96.484375 52.734375 
Q 89.84375 53.125 83.984375 53.125 
L 83.984375 0.78125 
Q 83.984375 -5.078125 79.296875 -6.640625 
Q 74.609375 -8.203125 67.1875 -8.984375 
Q 67.1875 -4.296875 62.890625 0 
Q 70.3125 -0.78125 73.234375 -0.390625 
Q 76.171875 0 76.171875 4.6875 
L 76.171875 53.125 
Q 56.640625 53.125 43.359375 52.734375 
L 43.359375 60.15625 
Q 55.859375 59.765625 76.171875 59.765625 
z
M 31.25 20.3125 
L 31.25 39.84375 
L 15.625 39.84375 
L 15.625 20.3125 
z
M 31.25 46.484375 
L 31.25 64.84375 
L 15.625 64.84375 
L 15.625 46.484375 
z
M 55.46875 42.578125 
Q 60.546875 34.375 65.234375 25 
Q 61.328125 23.828125 57.03125 21.484375 
Q 53.90625 30.859375 48.046875 39.0625 
Q 51.5625 40.625 55.46875 42.578125 
z
" id="SimHei-65f6"/>
      <path d="M 45.3125 66.40625 
Q 52.34375 66.40625 58.984375 67.1875 
L 58.984375 59.375 
Q 53.515625 59.765625 45.3125 59.765625 
L 27.34375 59.765625 
Q 30.078125 57.421875 33.984375 55.46875 
Q 30.078125 53.90625 26.359375 49.40625 
Q 22.65625 44.921875 17.578125 40.625 
Q 23.046875 41.015625 26.953125 41.203125 
Q 30.859375 41.40625 35.9375 41.796875 
Q 38.28125 43.75 40.03125 46.28125 
Q 41.796875 48.828125 43.75 52.734375 
Q 47.265625 50 51.953125 47.265625 
Q 48.828125 44.921875 44.921875 40.234375 
Q 41.015625 35.546875 35.734375 30.265625 
Q 30.46875 25 24.40625 19.71875 
Q 18.359375 14.453125 10.15625 8.984375 
Q 7.8125 13.28125 4.296875 16.015625 
Q 11.71875 19.140625 18.546875 24.40625 
Q 25.390625 29.6875 32.03125 35.9375 
Q 22.65625 34.765625 17.96875 33.78125 
Q 13.28125 32.8125 10.9375 31.640625 
Q 8.984375 36.328125 6.25 39.84375 
Q 12.5 43.75 16.984375 49.21875 
Q 21.484375 54.6875 23.828125 59.765625 
L 17.1875 59.765625 
Q 10.15625 59.765625 3.515625 59.375 
L 3.515625 67.1875 
Q 10.15625 66.40625 16.796875 66.40625 
z
M 94.921875 79.6875 
Q 94.140625 74.21875 94.140625 66.40625 
L 94.140625 1.5625 
Q 94.140625 -4.296875 91.203125 -6.046875 
Q 88.28125 -7.8125 77.734375 -9.375 
Q 76.5625 -3.125 74.21875 0.390625 
Q 82.03125 0 83.984375 0.390625 
Q 85.9375 0.78125 85.9375 4.6875 
L 85.9375 66.40625 
Q 85.9375 72.265625 85.546875 79.6875 
L 94.921875 79.6875 
z
M 58.984375 30.46875 
Q 57.03125 28.90625 53.703125 25.1875 
Q 50.390625 21.484375 45.3125 16.015625 
Q 49.609375 13.28125 53.703125 9.765625 
Q 57.8125 6.25 62.5 2.34375 
Q 60.15625 0 55.078125 -3.90625 
Q 51.953125 0 48.625 3.703125 
Q 45.3125 7.421875 40.625 10.9375 
Q 32.03125 3.90625 25.578125 -0.1875 
Q 19.140625 -4.296875 10.546875 -10.15625 
Q 8.59375 -5.078125 5.078125 -2.734375 
Q 15.234375 1.5625 22.84375 6.828125 
Q 30.46875 12.109375 36.125 17.375 
Q 41.796875 22.65625 44.921875 26.953125 
Q 48.046875 31.25 50.390625 35.9375 
L 58.984375 30.46875 
z
M 74.609375 65.625 
Q 74.21875 60.15625 74.21875 53.90625 
L 74.21875 25 
Q 74.21875 18.75 75 12.109375 
L 65.234375 12.109375 
Q 66.015625 17.578125 66.015625 25 
L 66.015625 55.078125 
Q 66.015625 60.546875 65.625 65.625 
L 74.609375 65.625 
z
M 33.203125 82.8125 
Q 34.765625 79.6875 36.125 76.75 
Q 37.5 73.828125 39.0625 70.3125 
Q 35.15625 69.140625 30.46875 67.1875 
Q 29.296875 71.09375 27.921875 73.828125 
Q 26.5625 76.5625 25 79.296875 
Q 29.6875 80.859375 33.203125 82.8125 
z
" id="SimHei-523b"/>
     </defs>
     <g transform="translate(245.3 347.023438)scale(0.13 -0.13)">
      <use xlink:href="#SimHei-65f6"/>
      <use x="100" xlink:href="#SimHei-523b"/>
     </g>
    </g>
   </g>
   <g id="matplotlib.axis_2">
    <g id="ytick_1">
     <g id="line2d_8">
      <defs>
       <path d="M 0 0 
L -3.5 0 
" id="m61f95cf953" style="stroke:#000000;stroke-width:0.8;"/>
      </defs>
      <g>
       <use style="stroke:#000000;stroke-width:0.8;" x="63" xlink:href="#m61f95cf953" y="302.317887"/>
      </g>
     </g>
     <g id="text_8">
      <!-- 0.0 -->
      <defs>
       <path d="M 16.796875 1.953125 
L 7.8125 1.953125 
L 7.8125 10.546875 
L 16.796875 10.546875 
z
" id="SimHei-2e"/>
      </defs>
      <g transform="translate(36.5 306.786637)scale(0.13 -0.13)">
       <use xlink:href="#SimHei-30"/>
       <use x="50" xlink:href="#SimHei-2e"/>
       <use x="100" xlink:href="#SimHei-30"/>
      </g>
     </g>
    </g>
    <g id="ytick_2">
     <g id="line2d_9">
      <g>
       <use style="stroke:#000000;stroke-width:0.8;" x="63" xlink:href="#m61f95cf953" y="272.066898"/>
      </g>
     </g>
     <g id="text_9">
      <!-- 0.5 -->
      <defs>
       <path d="M 8.59375 20.703125 
Q 11.328125 10.15625 17.96875 8.984375 
Q 24.609375 7.8125 28.703125 10.34375 
Q 32.8125 12.890625 34.5625 16.984375 
Q 36.328125 21.09375 36.125 26.171875 
Q 35.9375 31.25 33.390625 34.765625 
Q 30.859375 38.28125 26.953125 39.453125 
Q 23.046875 40.625 18.15625 39.453125 
Q 13.28125 38.28125 10.15625 33.984375 
L 3.515625 34.765625 
Q 4.296875 37.109375 10.9375 68.359375 
L 41.796875 68.359375 
L 41.796875 61.328125 
L 16.796875 61.328125 
Q 14.84375 50.78125 12.890625 44.53125 
Q 18.75 47.265625 23.828125 47.0625 
Q 28.90625 46.875 33.59375 44.71875 
Q 38.28125 42.578125 40.421875 38.859375 
Q 42.578125 35.15625 43.546875 31.4375 
Q 44.53125 27.734375 44.328125 23.4375 
Q 44.140625 19.140625 42.578125 14.640625 
Q 41.015625 10.15625 37.890625 7.21875 
Q 34.765625 4.296875 30.265625 2.53125 
Q 25.78125 0.78125 19.921875 1.171875 
Q 14.0625 1.5625 8.78125 5.46875 
Q 3.515625 9.375 1.5625 18.75 
z
" id="SimHei-35"/>
      </defs>
      <g transform="translate(36.5 276.535648)scale(0.13 -0.13)">
       <use xlink:href="#SimHei-30"/>
       <use x="50" xlink:href="#SimHei-2e"/>
       <use x="100" xlink:href="#SimHei-35"/>
      </g>
     </g>
    </g>
    <g id="ytick_3">
     <g id="line2d_10">
      <g>
       <use style="stroke:#000000;stroke-width:0.8;" x="63" xlink:href="#m61f95cf953" y="241.815908"/>
      </g>
     </g>
     <g id="text_10">
      <!-- 1.0 -->
      <g transform="translate(36.5 246.284658)scale(0.13 -0.13)">
       <use xlink:href="#SimHei-31"/>
       <use x="50" xlink:href="#SimHei-2e"/>
       <use x="100" xlink:href="#SimHei-30"/>
      </g>
     </g>
    </g>
    <g id="ytick_4">
     <g id="line2d_11">
      <g>
       <use style="stroke:#000000;stroke-width:0.8;" x="63" xlink:href="#m61f95cf953" y="211.564919"/>
      </g>
     </g>
     <g id="text_11">
      <!-- 1.5 -->
      <g transform="translate(36.5 216.033669)scale(0.13 -0.13)">
       <use xlink:href="#SimHei-31"/>
       <use x="50" xlink:href="#SimHei-2e"/>
       <use x="100" xlink:href="#SimHei-35"/>
      </g>
     </g>
    </g>
    <g id="ytick_5">
     <g id="line2d_12">
      <g>
       <use style="stroke:#000000;stroke-width:0.8;" x="63" xlink:href="#m61f95cf953" y="181.313929"/>
      </g>
     </g>
     <g id="text_12">
      <!-- 2.0 -->
      <g transform="translate(36.5 185.782679)scale(0.13 -0.13)">
       <use xlink:href="#SimHei-32"/>
       <use x="50" xlink:href="#SimHei-2e"/>
       <use x="100" xlink:href="#SimHei-30"/>
      </g>
     </g>
    </g>
    <g id="ytick_6">
     <g id="line2d_13">
      <g>
       <use style="stroke:#000000;stroke-width:0.8;" x="63" xlink:href="#m61f95cf953" y="151.06294"/>
      </g>
     </g>
     <g id="text_13">
      <!-- 2.5 -->
      <g transform="translate(36.5 155.53169)scale(0.13 -0.13)">
       <use xlink:href="#SimHei-32"/>
       <use x="50" xlink:href="#SimHei-2e"/>
       <use x="100" xlink:href="#SimHei-35"/>
      </g>
     </g>
    </g>
    <g id="ytick_7">
     <g id="line2d_14">
      <g>
       <use style="stroke:#000000;stroke-width:0.8;" x="63" xlink:href="#m61f95cf953" y="120.81195"/>
      </g>
     </g>
     <g id="text_14">
      <!-- 3.0 -->
      <defs>
       <path d="M 3.90625 19.140625 
L 10.9375 20.3125 
Q 12.5 15.234375 16.015625 11.90625 
Q 19.53125 8.59375 24.796875 8.78125 
Q 30.078125 8.984375 33.203125 13.078125 
Q 36.328125 17.1875 35.9375 22.453125 
Q 35.546875 27.734375 31.828125 30.65625 
Q 28.125 33.59375 19.921875 34.765625 
L 19.921875 39.84375 
Q 28.125 40.625 31.828125 44.140625 
Q 35.546875 47.65625 35.15625 53.3125 
Q 34.765625 58.984375 30.078125 61.515625 
Q 25.390625 64.0625 20.109375 62.109375 
Q 14.84375 60.15625 11.71875 51.171875 
L 4.6875 52.34375 
Q 7.03125 59.375 11.125 64.0625 
Q 15.234375 68.75 22.265625 69.53125 
Q 29.296875 70.3125 34.5625 67.765625 
Q 39.84375 65.234375 41.984375 59.953125 
Q 44.140625 54.6875 42.578125 48.4375 
Q 41.015625 42.1875 33.59375 37.5 
Q 39.0625 35.15625 41.984375 30.46875 
Q 44.921875 25.78125 43.9375 18.15625 
Q 42.96875 10.546875 37.109375 5.859375 
Q 31.25 1.171875 23.828125 1.359375 
Q 16.40625 1.5625 10.9375 6.046875 
Q 5.46875 10.546875 3.90625 19.140625 
z
" id="SimHei-33"/>
      </defs>
      <g transform="translate(36.5 125.2807)scale(0.13 -0.13)">
       <use xlink:href="#SimHei-33"/>
       <use x="50" xlink:href="#SimHei-2e"/>
       <use x="100" xlink:href="#SimHei-30"/>
      </g>
     </g>
    </g>
    <g id="ytick_8">
     <g id="line2d_15">
      <g>
       <use style="stroke:#000000;stroke-width:0.8;" x="63" xlink:href="#m61f95cf953" y="90.56096"/>
      </g>
     </g>
     <g id="text_15">
      <!-- 3.5 -->
      <g transform="translate(36.5 95.02971)scale(0.13 -0.13)">
       <use xlink:href="#SimHei-33"/>
       <use x="50" xlink:href="#SimHei-2e"/>
       <use x="100" xlink:href="#SimHei-35"/>
      </g>
     </g>
    </g>
    <g id="ytick_9">
     <g id="line2d_16">
      <g>
       <use style="stroke:#000000;stroke-width:0.8;" x="63" xlink:href="#m61f95cf953" y="60.309971"/>
      </g>
     </g>
     <g id="text_16">
      <!-- 4.0 -->
      <g transform="translate(36.5 64.778721)scale(0.13 -0.13)">
       <use xlink:href="#SimHei-34"/>
       <use x="50" xlink:href="#SimHei-2e"/>
       <use x="100" xlink:href="#SimHei-30"/>
      </g>
     </g>
    </g>
    <g id="text_17">
     <!-- 功率(千瓦) -->
     <defs>
      <path d="M 88.671875 4.296875 
Q 87.109375 -3.125 81.640625 -4.875 
Q 76.171875 -6.640625 69.53125 -7.421875 
Q 68.75 -2.734375 65.625 1.5625 
Q 73.828125 1.171875 77.140625 2.140625 
Q 80.46875 3.125 80.859375 6.640625 
Q 82.8125 27.734375 83.984375 51.171875 
L 66.40625 51.171875 
Q 66.015625 39.84375 64.453125 30.078125 
Q 62.890625 20.3125 59.171875 13.28125 
Q 55.46875 6.25 50.78125 0.78125 
Q 46.09375 -4.6875 39.84375 -10.15625 
Q 37.109375 -6.25 32.8125 -3.90625 
Q 41.40625 1.5625 45.703125 6.640625 
Q 50 11.71875 53.125 18.15625 
Q 56.25 24.609375 57.421875 32.421875 
Q 58.59375 40.234375 58.984375 51.171875 
L 53.125 51.171875 
Q 48.4375 51.171875 43.75 50.78125 
L 43.75 58.203125 
Q 48.828125 57.8125 53.90625 57.8125 
L 58.984375 57.8125 
L 58.984375 71.484375 
Q 58.984375 76.171875 58.59375 80.859375 
Q 63.671875 79.6875 67.578125 79.296875 
Q 66.796875 76.5625 66.59375 70.703125 
Q 66.40625 64.84375 66.40625 57.8125 
L 92.1875 57.8125 
Q 91.796875 52.34375 91.40625 47.453125 
Q 91.015625 42.578125 88.671875 4.296875 
z
M 45.3125 15.625 
Q 38.671875 14.0625 34.375 13.078125 
Q 30.078125 12.109375 20.890625 9.375 
Q 11.71875 6.640625 7.8125 5.46875 
Q 6.25 10.9375 4.6875 14.0625 
Q 7.03125 14.0625 21.484375 17.1875 
L 21.484375 60.9375 
L 18.359375 60.9375 
Q 13.671875 60.9375 7.03125 60.546875 
L 7.03125 67.96875 
Q 13.28125 67.578125 18.359375 67.578125 
L 32.8125 67.578125 
Q 38.28125 67.578125 42.578125 67.96875 
L 42.578125 60.546875 
Q 37.890625 60.9375 33.203125 60.9375 
L 29.296875 60.9375 
L 29.296875 18.75 
L 37.109375 20.703125 
Q 40.234375 21.484375 44.53125 22.65625 
z
" id="SimHei-529f"/>
      <path d="M 51.953125 80.46875 
Q 53.515625 76.5625 55.46875 70.703125 
L 75 70.703125 
Q 82.03125 70.703125 90.625 71.09375 
L 90.625 64.453125 
Q 82.03125 65.234375 74.609375 65.234375 
L 43.75 65.234375 
Q 46.484375 63.28125 51.5625 60.9375 
Q 48.046875 58.59375 44.921875 55.265625 
Q 41.796875 51.953125 38.671875 48.828125 
L 51.171875 48.828125 
Q 55.859375 53.515625 58.984375 58.984375 
Q 62.5 56.25 66.796875 53.515625 
Q 61.71875 50.78125 56.25 44.921875 
Q 50.78125 39.0625 41.015625 31.25 
L 60.15625 32.8125 
Q 58.203125 35.15625 56.25 37.890625 
Q 58.59375 38.671875 62.5 41.40625 
Q 66.40625 36.71875 73.4375 26.5625 
Q 69.921875 25.390625 66.015625 22.65625 
Q 65.234375 25 62.890625 27.734375 
Q 57.8125 27.34375 53.515625 27.34375 
L 53.515625 16.40625 
L 80.46875 16.40625 
Q 88.671875 16.40625 95.3125 16.796875 
L 95.3125 10.15625 
Q 89.0625 10.546875 80.078125 10.546875 
L 53.515625 10.546875 
L 53.515625 2.734375 
Q 53.515625 -4.6875 53.90625 -9.765625 
L 45.3125 -9.765625 
Q 45.703125 -4.6875 45.703125 2.734375 
L 45.703125 10.546875 
L 20.703125 10.546875 
Q 12.890625 10.546875 5.078125 10.15625 
L 5.078125 16.796875 
Q 12.890625 16.40625 21.09375 16.40625 
L 45.703125 16.40625 
L 45.703125 26.5625 
Q 42.1875 26.171875 38.671875 25.578125 
Q 35.15625 25 31.640625 23.828125 
Q 30.46875 27.734375 28.90625 31.25 
Q 32.421875 31.640625 36.328125 34.375 
Q 40.234375 37.109375 46.484375 43.75 
Q 35.9375 42.578125 31.640625 41.015625 
Q 30.859375 44.921875 28.90625 49.609375 
Q 32.421875 49.609375 36.328125 54.484375 
Q 40.234375 59.375 42.96875 65.234375 
L 26.5625 65.234375 
Q 17.96875 65.234375 10.15625 64.453125 
L 10.15625 71.09375 
Q 17.96875 70.703125 24.21875 70.703125 
L 46.484375 70.703125 
Q 45.3125 75.390625 43.75 78.515625 
Q 47.265625 79.296875 51.953125 80.46875 
z
M 25.390625 40.234375 
Q 26.953125 37.5 28.515625 34.375 
Q 24.609375 32.03125 20.703125 29.09375 
Q 16.796875 26.171875 12.5 22.265625 
Q 9.765625 26.171875 7.421875 29.296875 
Q 12.5 31.640625 17.1875 34.5625 
Q 21.875 37.5 25.390625 40.234375 
z
M 75.78125 41.40625 
Q 80.078125 38.671875 83.390625 36.515625 
Q 86.71875 34.375 91.796875 30.46875 
Q 88.671875 28.125 85.9375 25 
Q 82.8125 27.734375 79.09375 30.859375 
Q 75.390625 33.984375 71.484375 36.328125 
Q 73.828125 38.671875 75.78125 41.40625 
z
M 89.453125 55.078125 
Q 86.71875 53.90625 82.8125 50.96875 
Q 78.90625 48.046875 75 44.140625 
Q 72.265625 47.65625 69.921875 49.609375 
Q 73.4375 51.953125 76.171875 54.484375 
Q 78.90625 57.03125 82.8125 61.328125 
Q 86.328125 57.8125 89.453125 55.078125 
z
M 16.40625 60.15625 
Q 22.265625 56.25 27.734375 51.171875 
Q 24.609375 48.4375 22.265625 45.703125 
Q 16.796875 51.5625 10.546875 55.078125 
Q 13.671875 57.8125 16.40625 60.15625 
z
" id="SimHei-7387"/>
      <path d="M 46.484375 -3.125 
L 42.1875 -7.421875 
Q 32.421875 1.953125 27.53125 12.109375 
Q 22.65625 22.265625 22.65625 35.15625 
Q 22.65625 48.046875 27.53125 58.203125 
Q 32.421875 68.359375 42.1875 78.125 
L 46.484375 73.828125 
Q 37.5 65.234375 33 56.046875 
Q 28.515625 46.875 28.515625 35.15625 
Q 28.515625 23.4375 33 14.25 
Q 37.5 5.078125 46.484375 -3.125 
z
" id="SimHei-28"/>
      <path d="M 11.71875 70.703125 
Q 33.59375 71.875 49.796875 74.21875 
Q 66.015625 76.5625 76.171875 81.640625 
Q 78.515625 76.171875 82.03125 72.265625 
Q 77.34375 72.265625 69.140625 70.890625 
Q 60.9375 69.53125 53.515625 68.359375 
L 53.515625 40.234375 
L 79.6875 40.234375 
Q 86.328125 40.234375 93.75 40.625 
L 93.75 33.203125 
Q 85.9375 33.59375 79.6875 33.59375 
L 53.515625 33.59375 
L 53.515625 6.640625 
Q 53.515625 -1.171875 53.90625 -9.765625 
L 45.3125 -9.765625 
Q 45.703125 -1.171875 45.703125 6.25 
L 45.703125 33.59375 
L 19.921875 33.59375 
Q 12.890625 33.59375 5.859375 33.203125 
L 5.859375 40.625 
Q 13.671875 40.234375 19.921875 40.234375 
L 45.703125 40.234375 
L 45.703125 66.796875 
Q 40.234375 66.015625 32.609375 65.234375 
Q 25 64.453125 16.015625 63.28125 
Q 14.84375 67.96875 11.71875 70.703125 
z
" id="SimHei-5343"/>
      <path d="M 75.78125 73.046875 
Q 82.8125 73.046875 91.015625 73.4375 
L 91.015625 66.015625 
Q 82.8125 66.40625 76.953125 66.40625 
L 36.71875 66.40625 
L 34.765625 51.953125 
L 72.65625 51.953125 
Q 72.265625 46.875 71.484375 36.328125 
L 69.921875 7.421875 
Q 68.75 1.953125 73.828125 -0.78125 
L 80.46875 -0.78125 
Q 84.375 -0.78125 85.15625 1.171875 
Q 85.9375 3.125 86.71875 12.109375 
Q 91.015625 9.375 95.703125 8.203125 
Q 93.359375 -0.390625 91.59375 -3.90625 
Q 89.84375 -7.421875 83.59375 -7.421875 
L 71.875 -7.421875 
Q 61.328125 -7.8125 62.109375 3.90625 
L 64.453125 45.3125 
L 33.984375 45.3125 
L 27.34375 4.296875 
Q 32.03125 5.859375 37.109375 7.421875 
L 53.125 12.109375 
Q 52.34375 9.375 53.125 4.296875 
Q 37.890625 0.390625 30.265625 -2.140625 
Q 22.65625 -4.6875 20.3125 -6.25 
Q 18.359375 -0.390625 16.015625 2.34375 
Q 20.703125 6.640625 21.09375 12.109375 
L 28.515625 66.40625 
L 22.265625 66.40625 
Q 15.234375 66.40625 7.03125 66.015625 
L 7.03125 73.4375 
Q 15.234375 73.046875 22.265625 73.046875 
z
M 42.1875 36.328125 
Q 48.4375 30.859375 56.640625 21.09375 
Q 53.515625 18.359375 50.78125 16.015625 
Q 45.703125 23.046875 37.109375 31.25 
Q 39.84375 33.59375 42.1875 36.328125 
z
" id="SimHei-74e6"/>
      <path d="M 26.171875 35.15625 
Q 26.171875 22.265625 21.28125 12.109375 
Q 16.40625 1.953125 6.640625 -7.421875 
L 2.34375 -3.125 
Q 11.328125 5.078125 15.8125 14.25 
Q 20.3125 23.4375 20.3125 35.15625 
Q 20.3125 46.875 15.8125 56.046875 
Q 11.328125 65.234375 2.34375 73.828125 
L 6.640625 78.125 
Q 16.40625 68.359375 21.28125 58.203125 
Q 26.171875 48.046875 26.171875 35.15625 
z
" id="SimHei-29"/>
     </defs>
     <g transform="translate(30.875 211.6)rotate(-90)scale(0.13 -0.13)">
      <use xlink:href="#SimHei-529f"/>
      <use x="100" xlink:href="#SimHei-7387"/>
      <use x="200" xlink:href="#SimHei-28"/>
      <use x="250" xlink:href="#SimHei-5343"/>
      <use x="350" xlink:href="#SimHei-74e6"/>
      <use x="450" xlink:href="#SimHei-29"/>
     </g>
    </g>
   </g>
   <g id="line2d_17">
    <path clip-path="url(#p4ba7a1a1d6)" d="M 80.754545 302.289653 
L 114.16031 302.29772 
L 131.481818 302.277553 
L 137.668071 302.29772 
L 147.566075 302.301754 
L 162.413082 302.313852 
L 167.362084 302.28562 
L 171.073836 302.313852 
L 172.311086 300.894075 
L 173.548337 297.687469 
L 174.785588 292.355228 
L 176.022838 290.37883 
L 177.260089 290.040018 
L 178.497339 284.832814 
L 179.73459 283.324299 
L 180.97184 282.356269 
L 182.209091 279.609481 
L 183.446341 278.407507 
L 187.158093 268.985332 
L 189.632594 263.185207 
L 190.869845 257.606931 
L 192.107095 252.911973 
L 193.344346 252.440052 
L 194.581596 248.047618 
L 195.818847 240.303353 
L 197.056098 219.865784 
L 198.293348 195.245514 
L 199.530599 188.759708 
L 200.767849 199.097482 
L 202.0051 200.07762 
L 203.24235 201.340084 
L 205.716851 196.548327 
L 206.954102 192.829483 
L 209.428603 165.817376 
L 210.665854 151.583244 
L 211.903104 142.50393 
L 213.140355 136.429519 
L 216.852106 120.364235 
L 218.089357 115.354671 
L 219.326608 111.018676 
L 220.563858 104.524799 
L 224.27561 90.665828 
L 226.750111 83.345071 
L 227.987361 80.352244 
L 229.224612 78.984905 
L 230.461863 75.383028 
L 231.699113 72.668498 
L 232.936364 70.240372 
L 234.173614 68.203464 
L 235.410865 67.525818 
L 236.648115 65.170264 
L 237.885366 64.266776 
L 239.122616 64.791135 
L 240.359867 63.076938 
L 242.834368 60.047785 
L 244.071619 58.954763 
L 245.308869 58.640116 
L 246.54612 58.680489 
L 247.78337 57.365497 
L 249.020621 57.490518 
L 250.257871 57.034793 
L 252.732373 55.554545 
L 253.969623 57.095259 
L 255.206874 58.010896 
L 256.444124 58.571567 
L 257.681375 57.926193 
L 258.918625 58.482841 
L 260.155876 59.434731 
L 261.393126 57.865661 
L 262.630377 57.405858 
L 263.867627 58.462664 
L 265.104878 58.301287 
L 266.342129 62.383162 
L 267.579379 63.569025 
L 268.81663 63.387501 
L 270.05388 63.024513 
L 271.291131 64.855684 
L 272.528381 66.15644 
L 273.765632 68.645135 
L 275.002882 73.311876 
L 276.240133 74.122573 
L 277.477384 76.508341 
L 278.714634 76.705959 
L 279.951885 77.984614 
L 281.189135 80.243376 
L 283.663636 86.799764 
L 284.900887 87.898891 
L 286.138137 92.162254 
L 287.375388 93.620376 
L 288.612639 96.357032 
L 289.849889 100.150524 
L 291.08714 101.773974 
L 292.32439 105.888126 
L 293.561641 109.520284 
L 294.798891 113.612214 
L 296.036142 116.556652 
L 297.273392 119.843918 
L 298.510643 125.041014 
L 300.985144 133.846109 
L 304.696896 145.107548 
L 305.934146 150.748329 
L 309.645898 166.170284 
L 310.883149 171.853428 
L 312.120399 176.467721 
L 317.069401 200.860104 
L 320.781153 218.964317 
L 325.730155 244.187586 
L 328.204656 259.651892 
L 329.441907 268.997433 
L 330.679157 279.496539 
L 331.916408 285.816981 
L 333.153659 289.783894 
L 334.390909 294.819676 
L 335.62816 297.167153 
L 339.339911 300.03293 
L 340.577162 301.198601 
L 341.814412 302.134365 
L 343.051663 302.442925 
L 345.526164 302.317887 
L 352.949667 302.253352 
L 359.13592 302.325954 
L 361.610421 302.28562 
L 364.084922 302.329988 
L 369.033925 302.289653 
L 391.304435 302.281586 
L 393.778936 302.305787 
L 406.151441 302.28562 
L 419.761197 302.293687 
L 428.421951 302.305787 
L 433.370953 302.261419 
L 435.845455 302.273519 
L 435.845455 302.273519 
" style="fill:none;stroke:#000000;stroke-linecap:square;stroke-width:1.5;"/>
   </g>
   <g id="line2d_18">
    <path clip-path="url(#p4ba7a1a1d6)" d="M 80.754545 302.341035 
L 94.364302 302.262895 
L 95.601552 302.421658 
L 122.821064 302.402551 
L 138.905322 302.550012 
L 141.379823 302.451909 
L 153.752328 302.413378 
L 156.226829 302.226492 
L 159.938581 302.112039 
L 161.175831 301.988251 
L 163.650333 301.862911 
L 166.124834 301.471936 
L 167.362084 300.936627 
L 168.599335 300.627362 
L 169.836585 299.950183 
L 171.073836 299.557097 
L 174.785588 297.140709 
L 176.022838 296.144501 
L 177.260089 294.834533 
L 180.97184 289.991128 
L 183.446341 284.339588 
L 184.683592 282.155248 
L 185.920843 281.609333 
L 187.158093 279.149238 
L 188.395344 274.710016 
L 189.632594 265.457835 
L 190.869845 262.200135 
L 192.107095 261.597357 
L 193.344346 244.690617 
L 194.581596 239.284766 
L 197.056098 223.09607 
L 198.293348 219.743467 
L 199.530599 209.350619 
L 202.0051 194.371866 
L 203.24235 188.050171 
L 204.479601 183.267248 
L 205.716851 176.931299 
L 206.954102 171.693751 
L 208.191353 169.938734 
L 209.428603 167.116033 
L 210.665854 162.609337 
L 211.903104 149.664739 
L 213.140355 139.247508 
L 214.377605 135.200954 
L 215.614856 136.083829 
L 216.852106 136.263938 
L 218.089357 136.310681 
L 220.563858 132.755192 
L 221.801109 130.633841 
L 225.51286 112.231438 
L 226.750111 108.455788 
L 227.987361 105.967765 
L 229.224612 101.567541 
L 231.699113 97.170765 
L 236.648115 89.799458 
L 237.885366 88.209327 
L 239.122616 87.26808 
L 240.359867 85.77702 
L 242.834368 83.40521 
L 244.071619 82.940282 
L 245.308869 80.957651 
L 249.020621 78.137423 
L 250.257871 78.057603 
L 251.495122 77.064227 
L 252.732373 77.161684 
L 253.969623 77.941585 
L 257.681375 76.759098 
L 258.918625 76.049415 
L 261.393126 77.035331 
L 262.630377 77.15688 
L 263.867627 77.828609 
L 265.104878 78.257387 
L 266.342129 78.38792 
L 267.579379 78.806224 
L 268.81663 80.624515 
L 270.05388 82.242108 
L 271.291131 83.519105 
L 272.528381 84.172841 
L 273.765632 85.028145 
L 275.002882 86.628471 
L 276.240133 86.953996 
L 277.477384 87.888491 
L 278.714634 89.633217 
L 279.951885 90.81133 
L 281.189135 94.482142 
L 282.426386 96.81269 
L 284.900887 99.395659 
L 288.612639 106.799401 
L 289.849889 111.184954 
L 291.08714 113.631472 
L 292.32439 116.753749 
L 293.561641 117.883775 
L 294.798891 120.142538 
L 296.036142 123.160032 
L 297.273392 126.840694 
L 298.510643 131.479604 
L 299.747894 134.44791 
L 300.985144 139.247115 
L 302.222395 142.222965 
L 303.459645 145.583596 
L 304.696896 150.012855 
L 305.934146 153.798748 
L 308.408647 163.798183 
L 309.645898 169.601024 
L 310.883149 174.392466 
L 312.120399 179.654747 
L 314.5949 192.21762 
L 315.832151 198.880927 
L 319.543902 215.307178 
L 322.018404 230.852175 
L 324.492905 245.909204 
L 325.730155 254.322678 
L 326.967406 261.590587 
L 328.204656 270.451671 
L 330.679157 285.183347 
L 331.916408 291.054112 
L 333.153659 294.168111 
L 334.390909 296.426682 
L 336.86541 298.454897 
L 338.102661 299.453558 
L 341.814412 301.609141 
L 343.051663 302.176487 
L 344.288914 302.472391 
L 348.000665 302.645455 
L 356.661419 302.43469 
L 369.033925 302.396884 
L 428.421951 302.383367 
L 435.845455 302.382026 
L 435.845455 302.382026 
" style="fill:none;stroke:#000000;stroke-dasharray:5.55,2.4;stroke-dashoffset:0;stroke-width:1.5;"/>
   </g>
   <g id="line2d_19">
    <path clip-path="url(#p4ba7a1a1d6)" d="M 80.754545 302.399254 
L 163.650333 302.338506 
L 166.124834 302.182495 
L 168.599335 301.809528 
L 171.073836 301.013833 
L 173.548337 299.500448 
L 174.785588 298.410595 
L 176.022838 297.169168 
L 177.260089 295.456459 
L 180.97184 289.375642 
L 184.683592 279.458682 
L 185.920843 278.357924 
L 187.158093 274.195569 
L 188.395344 268.993936 
L 189.632594 261.101247 
L 190.869845 256.09563 
L 192.107095 252.221985 
L 193.344346 236.795853 
L 194.581596 230.68888 
L 195.818847 222.103523 
L 197.056098 216.105169 
L 198.293348 212.625337 
L 199.530599 207.140119 
L 200.767849 200.159854 
L 202.0051 194.481562 
L 205.716851 180.069706 
L 206.954102 177.286179 
L 208.191353 175.436718 
L 209.428603 172.332574 
L 210.665854 168.098548 
L 211.903104 154.101833 
L 213.140355 138.344655 
L 214.377605 138.867047 
L 215.614856 142.589395 
L 216.852106 143.350389 
L 218.089357 145.395719 
L 219.326608 144.948398 
L 220.563858 143.98514 
L 221.801109 140.455261 
L 223.038359 133.988494 
L 224.27561 125.8488 
L 225.51286 115.640937 
L 226.750111 110.350069 
L 229.224612 103.121322 
L 231.699113 97.06119 
L 234.173614 91.442692 
L 235.410865 88.178042 
L 237.885366 83.480111 
L 239.122616 81.495307 
L 241.597118 78.225272 
L 242.834368 76.976596 
L 244.071619 76.442085 
L 247.78337 73.246232 
L 249.020621 72.744289 
L 250.257871 72.701865 
L 251.495122 72.358395 
L 252.732373 72.383855 
L 255.206874 73.012446 
L 257.681375 72.351631 
L 258.918625 72.917083 
L 262.630377 73.937812 
L 265.104878 74.908699 
L 267.579379 75.653079 
L 270.05388 78.639517 
L 271.291131 79.48329 
L 272.528381 79.943414 
L 275.002882 82.54656 
L 277.477384 83.105707 
L 279.951885 85.708581 
L 282.426386 90.636055 
L 283.663636 91.568518 
L 284.900887 92.039992 
L 287.375388 96.098192 
L 288.612639 99.581188 
L 289.849889 103.735587 
L 292.32439 108.950888 
L 294.798891 112.236412 
L 296.036142 115.920849 
L 298.510643 124.186327 
L 299.747894 127.775486 
L 300.985144 132.252644 
L 303.459645 140.109117 
L 305.934146 148.846728 
L 308.408647 159.331594 
L 309.645898 165.55631 
L 312.120399 176.128934 
L 313.35765 182.652844 
L 314.5949 190.286469 
L 317.069401 202.993258 
L 318.306652 208.377874 
L 319.543902 214.67924 
L 326.967406 264.208117 
L 328.204656 272.025008 
L 329.441907 278.79181 
L 330.679157 284.78728 
L 331.916408 289.694334 
L 333.153659 293.008449 
L 334.390909 295.863653 
L 335.62816 298.110761 
L 336.86541 299.546351 
L 338.102661 300.536997 
L 339.339911 301.11015 
L 340.577162 301.546935 
L 343.051663 302.073278 
L 345.526164 302.271914 
L 350.475166 302.382191 
L 367.796674 302.420538 
L 435.845455 302.391019 
L 435.845455 302.391019 
" style="fill:none;stroke:#000000;stroke-dasharray:9.6,2.4,1.5,2.4;stroke-dashoffset:0;stroke-width:1.5;"/>
   </g>
   <g id="line2d_20">
    <path clip-path="url(#p4ba7a1a1d6)" d="M 80.754545 302.396344 
L 159.938581 302.263385 
L 163.650333 302.01741 
L 166.124834 301.700556 
L 168.599335 301.107735 
L 169.836585 299.512934 
L 171.073836 298.527638 
L 172.311086 297.152627 
L 173.548337 295.486689 
L 174.785588 293.479285 
L 176.022838 291.155532 
L 177.260089 288.491535 
L 182.209091 276.847531 
L 183.446341 274.33839 
L 184.683592 270.837788 
L 185.920843 270.311959 
L 187.158093 268.417287 
L 188.395344 264.702071 
L 189.632594 253.64491 
L 190.869845 250.147073 
L 192.107095 249.516818 
L 193.344346 228.693283 
L 194.581596 223.051044 
L 195.818847 215.086309 
L 197.056098 208.362355 
L 198.293348 205.864852 
L 199.530599 200.529715 
L 200.767849 194.542263 
L 202.0051 189.359597 
L 203.24235 184.815015 
L 204.479601 181.454094 
L 205.716851 176.686786 
L 206.954102 172.741718 
L 208.191353 171.642101 
L 209.428603 169.32381 
L 210.665854 164.710631 
L 211.903104 151.456336 
L 213.140355 140.446052 
L 214.377605 139.168529 
L 215.614856 140.996753 
L 218.089357 141.839679 
L 220.563858 138.972811 
L 221.801109 136.985605 
L 224.27561 121.698485 
L 225.51286 112.976962 
L 226.750111 107.332266 
L 227.987361 103.801365 
L 229.224612 100.624273 
L 230.461863 96.834392 
L 232.936364 90.714381 
L 234.173614 88.237285 
L 235.410865 84.303471 
L 237.885366 79.671784 
L 239.122616 77.32614 
L 240.359867 75.905354 
L 241.597118 73.936674 
L 242.834368 72.341056 
L 244.071619 71.721007 
L 245.308869 70.119598 
L 246.54612 68.833901 
L 249.020621 67.354174 
L 250.257871 67.510686 
L 251.495122 66.826603 
L 252.732373 66.902593 
L 253.969623 67.716399 
L 255.206874 67.630468 
L 257.681375 67.18829 
L 258.918625 67.128762 
L 260.155876 67.491126 
L 261.393126 68.156267 
L 262.630377 68.213992 
L 263.867627 69.012636 
L 267.579379 70.274925 
L 268.81663 72.032986 
L 270.05388 73.37979 
L 271.291131 74.560559 
L 272.528381 74.879374 
L 273.765632 76.041248 
L 275.002882 77.660577 
L 276.240133 77.492309 
L 277.477384 78.146347 
L 278.714634 79.637062 
L 279.951885 80.442386 
L 281.189135 84.110348 
L 282.426386 85.956971 
L 283.663636 86.884068 
L 284.900887 87.57667 
L 287.375388 91.825815 
L 288.612639 95.065738 
L 289.849889 99.721486 
L 291.08714 101.947027 
L 292.32439 105.161661 
L 293.561641 106.210608 
L 294.798891 108.199647 
L 296.036142 111.536948 
L 297.273392 115.511039 
L 298.510643 120.126904 
L 299.747894 122.831409 
L 300.985144 128.243819 
L 302.222395 131.214249 
L 303.459645 135.14669 
L 304.696896 139.942851 
L 305.934146 143.331936 
L 310.883149 165.17548 
L 312.120399 170.419084 
L 317.069401 197.308856 
L 318.306652 202.881257 
L 319.543902 209.231388 
L 324.492905 246.123246 
L 325.730155 256.948727 
L 326.967406 265.787748 
L 328.204656 275.48077 
L 329.441907 282.908382 
L 330.679157 289.140388 
L 331.916408 293.575208 
L 333.153659 296.040377 
L 334.390909 298.255865 
L 335.62816 299.775019 
L 336.86541 300.652522 
L 338.102661 301.234701 
L 340.577162 301.841253 
L 343.051663 302.152067 
L 346.763415 302.337946 
L 354.186918 302.410165 
L 435.845455 302.403651 
L 435.845455 302.403651 
" style="fill:none;stroke:#000000;stroke-dasharray:1.5,2.475;stroke-dashoffset:0;stroke-width:1.5;"/>
   </g>
   <g id="patch_3">
    <path d="M 63 315 
L 63 43.2 
" style="fill:none;stroke:#000000;stroke-linecap:square;stroke-linejoin:miter;stroke-width:0.8;"/>
   </g>
   <g id="patch_4">
    <path d="M 453.6 315 
L 453.6 43.2 
" style="fill:none;stroke:#000000;stroke-linecap:square;stroke-linejoin:miter;stroke-width:0.8;"/>
   </g>
   <g id="patch_5">
    <path d="M 63 315 
L 453.6 315 
" style="fill:none;stroke:#000000;stroke-linecap:square;stroke-linejoin:miter;stroke-width:0.8;"/>
   </g>
   <g id="patch_6">
    <path d="M 63 43.2 
L 453.6 43.2 
" style="fill:none;stroke:#000000;stroke-linecap:square;stroke-linejoin:miter;stroke-width:0.8;"/>
   </g>
   <g id="legend_1">
    <g id="patch_7">
     <path d="M 344.135625 120.6675 
L 445.2 120.6675 
Q 447.6 120.6675 447.6 118.2675 
L 447.6 51.6 
Q 447.6 49.2 445.2 49.2 
L 344.135625 49.2 
Q 341.735625 49.2 341.735625 51.6 
L 341.735625 118.2675 
Q 341.735625 120.6675 344.135625 120.6675 
z
" style="fill:#ffffff;opacity:0.8;stroke:#cccccc;stroke-linejoin:miter;"/>
    </g>
    <g id="line2d_21">
     <path d="M 346.535625 58.2 
L 370.535625 58.2 
" style="fill:none;stroke:#000000;stroke-linecap:square;stroke-width:1.5;"/>
    </g>
    <g id="line2d_22"/>
    <g id="text_18">
     <!-- Real -->
     <defs>
      <path d="M 67.578125 0 
L 49.90625 0 
L 27.484375 30.953125 
Q 25 30.859375 23.4375 30.859375 
Q 22.796875 30.859375 22.0625 30.875 
Q 21.34375 30.90625 20.5625 30.953125 
L 20.5625 11.71875 
Q 20.5625 5.46875 21.921875 3.953125 
Q 23.78125 1.8125 27.484375 1.8125 
L 30.078125 1.8125 
L 30.078125 0 
L 1.703125 0 
L 1.703125 1.8125 
L 4.203125 1.8125 
Q 8.40625 1.8125 10.203125 4.546875 
Q 11.234375 6.0625 11.234375 11.71875 
L 11.234375 54.5 
Q 11.234375 60.75 9.859375 62.25 
Q 7.953125 64.40625 4.203125 64.40625 
L 1.703125 64.40625 
L 1.703125 66.21875 
L 25.828125 66.21875 
Q 36.375 66.21875 41.375 64.671875 
Q 46.390625 63.140625 49.875 59.015625 
Q 53.375 54.890625 53.375 49.171875 
Q 53.375 43.0625 49.390625 38.5625 
Q 45.40625 34.078125 37.0625 32.234375 
L 50.734375 13.234375 
Q 55.421875 6.6875 58.78125 4.53125 
Q 62.15625 2.390625 67.578125 1.8125 
z
M 20.5625 34.03125 
Q 21.484375 34.03125 22.171875 34 
Q 22.859375 33.984375 23.296875 33.984375 
Q 32.765625 33.984375 37.578125 38.078125 
Q 42.390625 42.1875 42.390625 48.53125 
Q 42.390625 54.734375 38.5 58.609375 
Q 34.625 62.5 28.21875 62.5 
Q 25.390625 62.5 20.5625 61.578125 
z
" id="TimesNewRomanPSMT-52"/>
      <path d="M 10.640625 27.875 
Q 10.59375 17.921875 15.484375 12.25 
Q 20.359375 6.59375 26.953125 6.59375 
Q 31.34375 6.59375 34.59375 9 
Q 37.84375 11.421875 40.046875 17.28125 
L 41.546875 16.3125 
Q 40.53125 9.625 35.59375 4.125 
Q 30.671875 -1.375 23.25 -1.375 
Q 15.1875 -1.375 9.453125 4.90625 
Q 3.71875 11.1875 3.71875 21.78125 
Q 3.71875 33.25 9.59375 39.671875 
Q 15.484375 46.09375 24.359375 46.09375 
Q 31.890625 46.09375 36.71875 41.140625 
Q 41.546875 36.1875 41.546875 27.875 
z
M 10.640625 30.71875 
L 31.34375 30.71875 
Q 31.109375 35.015625 30.328125 36.765625 
Q 29.109375 39.5 26.6875 41.0625 
Q 24.265625 42.625 21.625 42.625 
Q 17.578125 42.625 14.375 39.46875 
Q 11.1875 36.328125 10.640625 30.71875 
z
" id="TimesNewRomanPSMT-65"/>
      <path d="M 28.46875 6.453125 
Q 21.578125 1.125 19.828125 0.296875 
Q 17.1875 -0.921875 14.203125 -0.921875 
Q 9.578125 -0.921875 6.5625 2.25 
Q 3.5625 5.421875 3.5625 10.59375 
Q 3.5625 13.875 5.03125 16.265625 
Q 7.03125 19.578125 11.984375 22.5 
Q 16.9375 25.4375 28.46875 29.640625 
L 28.46875 31.390625 
Q 28.46875 38.09375 26.34375 40.578125 
Q 24.21875 43.0625 20.171875 43.0625 
Q 17.09375 43.0625 15.28125 41.40625 
Q 13.421875 39.75 13.421875 37.59375 
L 13.53125 34.765625 
Q 13.53125 32.515625 12.375 31.296875 
Q 11.234375 30.078125 9.375 30.078125 
Q 7.5625 30.078125 6.421875 31.34375 
Q 5.28125 32.625 5.28125 34.8125 
Q 5.28125 39.015625 9.578125 42.53125 
Q 13.875 46.046875 21.625 46.046875 
Q 27.59375 46.046875 31.390625 44.046875 
Q 34.28125 42.53125 35.640625 39.3125 
Q 36.53125 37.203125 36.53125 30.71875 
L 36.53125 15.53125 
Q 36.53125 9.125 36.765625 7.6875 
Q 37.015625 6.25 37.578125 5.765625 
Q 38.140625 5.28125 38.875 5.28125 
Q 39.65625 5.28125 40.234375 5.609375 
Q 41.265625 6.25 44.1875 9.1875 
L 44.1875 6.453125 
Q 38.71875 -0.875 33.734375 -0.875 
Q 31.34375 -0.875 29.921875 0.78125 
Q 28.515625 2.4375 28.46875 6.453125 
z
M 28.46875 9.625 
L 28.46875 26.65625 
Q 21.09375 23.734375 18.953125 22.515625 
Q 15.09375 20.359375 13.421875 18.015625 
Q 11.765625 15.671875 11.765625 12.890625 
Q 11.765625 9.375 13.859375 7.046875 
Q 15.96875 4.734375 18.703125 4.734375 
Q 22.40625 4.734375 28.46875 9.625 
z
" id="TimesNewRomanPSMT-61"/>
      <path d="M 18.5 69.4375 
L 18.5 10.109375 
Q 18.5 5.90625 19.109375 4.53125 
Q 19.734375 3.171875 21 2.46875 
Q 22.265625 1.765625 25.734375 1.765625 
L 25.734375 0 
L 3.8125 0 
L 3.8125 1.765625 
Q 6.890625 1.765625 8 2.390625 
Q 9.125 3.03125 9.765625 4.484375 
Q 10.40625 5.953125 10.40625 10.109375 
L 10.40625 50.734375 
Q 10.40625 58.296875 10.0625 60.03125 
Q 9.71875 61.765625 8.953125 62.390625 
Q 8.203125 63.03125 7.03125 63.03125 
Q 5.765625 63.03125 3.8125 62.25 
L 2.984375 63.96875 
L 16.3125 69.4375 
z
" id="TimesNewRomanPSMT-6c"/>
     </defs>
     <g transform="translate(380.135625 62.4)scale(0.12 -0.12)">
      <use xlink:href="#TimesNewRomanPSMT-52"/>
      <use x="66.699219" xlink:href="#TimesNewRomanPSMT-65"/>
      <use x="111.083984" xlink:href="#TimesNewRomanPSMT-61"/>
      <use x="155.46875" xlink:href="#TimesNewRomanPSMT-6c"/>
     </g>
    </g>
    <g id="line2d_23">
     <path d="M 346.535625 75.166875 
L 370.535625 75.166875 
" style="fill:none;stroke:#000000;stroke-dasharray:5.55,2.4;stroke-dashoffset:0;stroke-width:1.5;"/>
    </g>
    <g id="line2d_24"/>
    <g id="text_19">
     <!-- DNN -->
     <defs>
      <path d="M 1.703125 0 
L 1.703125 1.8125 
L 4.203125 1.8125 
Q 8.40625 1.8125 10.15625 4.5 
Q 11.234375 6.109375 11.234375 11.71875 
L 11.234375 54.5 
Q 11.234375 60.6875 9.859375 62.25 
Q 7.953125 64.40625 4.203125 64.40625 
L 1.703125 64.40625 
L 1.703125 66.21875 
L 28.65625 66.21875 
Q 43.5 66.21875 51.234375 62.84375 
Q 58.984375 59.46875 63.6875 51.609375 
Q 68.40625 43.75 68.40625 33.453125 
Q 68.40625 19.625 60.015625 10.359375 
Q 50.59375 0 31.296875 0 
z
M 20.609375 4.78125 
Q 26.8125 3.421875 31 3.421875 
Q 42.328125 3.421875 49.796875 11.375 
Q 57.28125 19.34375 57.28125 32.953125 
Q 57.28125 46.6875 49.796875 54.59375 
Q 42.328125 62.5 30.609375 62.5 
Q 26.21875 62.5 20.609375 61.078125 
z
" id="TimesNewRomanPSMT-44"/>
      <path d="M -1.3125 66.21875 
L 16.65625 66.21875 
L 57.125 16.546875 
L 57.125 54.734375 
Q 57.125 60.84375 55.765625 62.359375 
Q 53.953125 64.40625 50.046875 64.40625 
L 47.75 64.40625 
L 47.75 66.21875 
L 70.796875 66.21875 
L 70.796875 64.40625 
L 68.453125 64.40625 
Q 64.265625 64.40625 62.5 61.859375 
Q 61.421875 60.296875 61.421875 54.734375 
L 61.421875 -1.078125 
L 59.671875 -1.078125 
L 16.015625 52.25 
L 16.015625 11.46875 
Q 16.015625 5.375 17.328125 3.859375 
Q 19.1875 1.8125 23.046875 1.8125 
L 25.390625 1.8125 
L 25.390625 0 
L 2.34375 0 
L 2.34375 1.8125 
L 4.640625 1.8125 
Q 8.890625 1.8125 10.640625 4.34375 
Q 11.71875 5.90625 11.71875 11.46875 
L 11.71875 57.515625 
Q 8.84375 60.890625 7.34375 61.953125 
Q 5.859375 63.03125 2.984375 63.96875 
Q 1.5625 64.40625 -1.3125 64.40625 
z
" id="TimesNewRomanPSMT-4e"/>
     </defs>
     <g transform="translate(380.135625 79.366875)scale(0.12 -0.12)">
      <use xlink:href="#TimesNewRomanPSMT-44"/>
      <use x="72.216797" xlink:href="#TimesNewRomanPSMT-4e"/>
      <use x="144.433594" xlink:href="#TimesNewRomanPSMT-4e"/>
     </g>
    </g>
    <g id="line2d_25">
     <path d="M 346.535625 92.13375 
L 370.535625 92.13375 
" style="fill:none;stroke:#000000;stroke-dasharray:9.6,2.4,1.5,2.4;stroke-dashoffset:0;stroke-width:1.5;"/>
    </g>
    <g id="line2d_26"/>
    <g id="text_20">
     <!-- LSTM -->
     <defs>
      <path d="M 57.328125 18.3125 
L 58.9375 17.96875 
L 53.265625 0 
L 2 0 
L 2 1.8125 
L 4.5 1.8125 
Q 8.6875 1.8125 10.5 4.546875 
Q 11.53125 6.109375 11.53125 11.765625 
L 11.53125 54.5 
Q 11.53125 60.6875 10.15625 62.25 
Q 8.25 64.40625 4.5 64.40625 
L 2 64.40625 
L 2 66.21875 
L 31.984375 66.21875 
L 31.984375 64.40625 
Q 26.703125 64.453125 24.578125 63.421875 
Q 22.46875 62.40625 21.6875 60.84375 
Q 20.90625 59.28125 20.90625 53.375 
L 20.90625 11.765625 
Q 20.90625 7.71875 21.6875 6.203125 
Q 22.265625 5.171875 23.484375 4.6875 
Q 24.703125 4.203125 31.109375 4.203125 
L 35.9375 4.203125 
Q 43.5625 4.203125 46.625 5.328125 
Q 49.703125 6.453125 52.234375 9.296875 
Q 54.78125 12.15625 57.328125 18.3125 
z
" id="TimesNewRomanPSMT-4c"/>
      <path d="M 45.84375 67.71875 
L 45.84375 44.828125 
L 44.046875 44.828125 
Q 43.171875 51.421875 40.890625 55.328125 
Q 38.625 59.234375 34.421875 61.515625 
Q 30.21875 63.8125 25.734375 63.8125 
Q 20.65625 63.8125 17.328125 60.71875 
Q 14.015625 57.625 14.015625 53.65625 
Q 14.015625 50.640625 16.109375 48.140625 
Q 19.140625 44.484375 30.515625 38.375 
Q 39.796875 33.40625 43.1875 30.734375 
Q 46.578125 28.078125 48.40625 24.453125 
Q 50.25 20.84375 50.25 16.890625 
Q 50.25 9.375 44.40625 3.921875 
Q 38.578125 -1.515625 29.390625 -1.515625 
Q 26.515625 -1.515625 23.96875 -1.078125 
Q 22.46875 -0.828125 17.703125 0.703125 
Q 12.9375 2.25 11.671875 2.25 
Q 10.453125 2.25 9.734375 1.515625 
Q 9.03125 0.78125 8.6875 -1.515625 
L 6.890625 -1.515625 
L 6.890625 21.1875 
L 8.6875 21.1875 
Q 9.96875 14.0625 12.109375 10.515625 
Q 14.265625 6.984375 18.671875 4.640625 
Q 23.09375 2.296875 28.375 2.296875 
Q 34.46875 2.296875 38 5.515625 
Q 41.546875 8.734375 41.546875 13.140625 
Q 41.546875 15.578125 40.203125 18.0625 
Q 38.875 20.5625 36.03125 22.703125 
Q 34.125 24.171875 25.625 28.921875 
Q 17.140625 33.6875 13.546875 36.515625 
Q 9.96875 39.359375 8.109375 42.765625 
Q 6.25 46.1875 6.25 50.296875 
Q 6.25 57.421875 11.71875 62.5625 
Q 17.1875 67.71875 25.640625 67.71875 
Q 30.90625 67.71875 36.8125 65.140625 
Q 39.546875 63.921875 40.671875 63.921875 
Q 41.9375 63.921875 42.75 64.671875 
Q 43.5625 65.4375 44.046875 67.71875 
z
" id="TimesNewRomanPSMT-53"/>
      <path d="M 57.859375 66.21875 
L 58.59375 50.6875 
L 56.734375 50.6875 
Q 56.203125 54.78125 55.28125 56.546875 
Q 53.765625 59.375 51.25 60.71875 
Q 48.734375 62.0625 44.625 62.0625 
L 35.296875 62.0625 
L 35.296875 11.46875 
Q 35.296875 5.375 36.625 3.859375 
Q 38.484375 1.8125 42.328125 1.8125 
L 44.625 1.8125 
L 44.625 0 
L 16.546875 0 
L 16.546875 1.8125 
L 18.890625 1.8125 
Q 23.09375 1.8125 24.859375 4.34375 
Q 25.921875 5.90625 25.921875 11.46875 
L 25.921875 62.0625 
L 17.96875 62.0625 
Q 13.328125 62.0625 11.375 61.375 
Q 8.84375 60.453125 7.03125 57.8125 
Q 5.21875 55.171875 4.890625 50.6875 
L 3.03125 50.6875 
L 3.8125 66.21875 
z
" id="TimesNewRomanPSMT-54"/>
      <path d="M 40.921875 0 
L 15.328125 55.71875 
L 15.328125 11.46875 
Q 15.328125 5.375 16.65625 3.859375 
Q 18.453125 1.8125 22.359375 1.8125 
L 24.703125 1.8125 
L 24.703125 0 
L 1.65625 0 
L 1.65625 1.8125 
L 4 1.8125 
Q 8.203125 1.8125 9.96875 4.34375 
Q 11.03125 5.90625 11.03125 11.46875 
L 11.03125 54.734375 
Q 11.03125 59.125 10.0625 61.078125 
Q 9.375 62.5 7.546875 63.453125 
Q 5.71875 64.40625 1.65625 64.40625 
L 1.65625 66.21875 
L 20.40625 66.21875 
L 44.4375 14.40625 
L 68.0625 66.21875 
L 86.8125 66.21875 
L 86.8125 64.40625 
L 84.515625 64.40625 
Q 80.28125 64.40625 78.515625 61.859375 
Q 77.4375 60.296875 77.4375 54.734375 
L 77.4375 11.46875 
Q 77.4375 5.375 78.8125 3.859375 
Q 80.609375 1.8125 84.515625 1.8125 
L 86.8125 1.8125 
L 86.8125 0 
L 58.6875 0 
L 58.6875 1.8125 
L 61.03125 1.8125 
Q 65.28125 1.8125 67 4.34375 
Q 68.0625 5.90625 68.0625 11.46875 
L 68.0625 55.71875 
L 42.53125 0 
z
" id="TimesNewRomanPSMT-4d"/>
     </defs>
     <g transform="translate(380.135625 96.33375)scale(0.12 -0.12)">
      <use xlink:href="#TimesNewRomanPSMT-4c"/>
      <use x="61.083984" xlink:href="#TimesNewRomanPSMT-53"/>
      <use x="116.699219" xlink:href="#TimesNewRomanPSMT-54"/>
      <use x="177.783203" xlink:href="#TimesNewRomanPSMT-4d"/>
     </g>
    </g>
    <g id="line2d_27">
     <path d="M 346.535625 109.100625 
L 370.535625 109.100625 
" style="fill:none;stroke:#000000;stroke-dasharray:1.5,2.475;stroke-dashoffset:0;stroke-width:1.5;"/>
    </g>
    <g id="line2d_28"/>
    <g id="text_21">
     <!-- WPD-LSTM -->
     <defs>
      <path d="M 93.609375 66.21875 
L 93.609375 64.40625 
Q 91.015625 64.40625 89.40625 63.46875 
Q 87.796875 62.546875 86.328125 60.015625 
Q 85.359375 58.296875 83.25 51.859375 
L 64.796875 -1.515625 
L 62.84375 -1.515625 
L 47.75 40.828125 
L 32.765625 -1.515625 
L 31 -1.515625 
L 11.328125 53.46875 
Q 9.125 59.625 8.546875 60.75 
Q 7.5625 62.59375 5.875 63.5 
Q 4.203125 64.40625 1.3125 64.40625 
L 1.3125 66.21875 
L 25.828125 66.21875 
L 25.828125 64.40625 
L 24.65625 64.40625 
Q 22.078125 64.40625 20.703125 63.234375 
Q 19.34375 62.0625 19.34375 60.40625 
Q 19.34375 58.6875 21.484375 52.546875 
L 34.515625 15.375 
L 45.515625 46.96875 
L 43.5625 52.546875 
L 42 56.984375 
Q 40.96875 59.421875 39.703125 61.28125 
Q 39.0625 62.203125 38.140625 62.84375 
Q 36.921875 63.71875 35.6875 64.109375 
Q 34.765625 64.40625 32.765625 64.40625 
L 32.765625 66.21875 
L 58.546875 66.21875 
L 58.546875 64.40625 
L 56.78125 64.40625 
Q 54.046875 64.40625 52.78125 63.234375 
Q 51.515625 62.0625 51.515625 60.0625 
Q 51.515625 57.5625 53.71875 51.375 
L 66.40625 15.375 
L 79 51.859375 
Q 81.15625 57.90625 81.15625 60.25 
Q 81.15625 61.375 80.4375 62.34375 
Q 79.734375 63.328125 78.65625 63.71875 
Q 76.8125 64.40625 73.828125 64.40625 
L 73.828125 66.21875 
z
" id="TimesNewRomanPSMT-57"/>
      <path d="M 20.515625 31 
L 20.515625 11.71875 
Q 20.515625 5.46875 21.875 3.953125 
Q 23.734375 1.8125 27.484375 1.8125 
L 30.03125 1.8125 
L 30.03125 0 
L 1.65625 0 
L 1.65625 1.8125 
L 4.15625 1.8125 
Q 8.34375 1.8125 10.15625 4.546875 
Q 11.140625 6.0625 11.140625 11.71875 
L 11.140625 54.5 
Q 11.140625 60.75 9.8125 62.25 
Q 7.90625 64.40625 4.15625 64.40625 
L 1.65625 64.40625 
L 1.65625 66.21875 
L 25.921875 66.21875 
Q 34.8125 66.21875 39.9375 64.375 
Q 45.0625 62.546875 48.578125 58.203125 
Q 52.09375 53.859375 52.09375 47.90625 
Q 52.09375 39.796875 46.75 34.71875 
Q 41.40625 29.640625 31.640625 29.640625 
Q 29.25 29.640625 26.46875 29.984375 
Q 23.6875 30.328125 20.515625 31 
z
M 20.515625 33.796875 
Q 23.09375 33.296875 25.09375 33.046875 
Q 27.09375 32.8125 28.515625 32.8125 
Q 33.59375 32.8125 37.28125 36.734375 
Q 40.96875 40.671875 40.96875 46.921875 
Q 40.96875 51.21875 39.203125 54.90625 
Q 37.453125 58.59375 34.21875 60.421875 
Q 31 62.25 26.90625 62.25 
Q 24.421875 62.25 20.515625 61.328125 
z
" id="TimesNewRomanPSMT-50"/>
      <path d="M 4.046875 26.125 
L 29.296875 26.125 
L 29.296875 18.75 
L 4.046875 18.75 
z
" id="TimesNewRomanPSMT-2d"/>
     </defs>
     <g transform="translate(380.135625 113.300625)scale(0.12 -0.12)">
      <use xlink:href="#TimesNewRomanPSMT-57"/>
      <use x="94.384766" xlink:href="#TimesNewRomanPSMT-50"/>
      <use x="150" xlink:href="#TimesNewRomanPSMT-44"/>
      <use x="222.216797" xlink:href="#TimesNewRomanPSMT-2d"/>
      <use x="255.517578" xlink:href="#TimesNewRomanPSMT-4c"/>
      <use x="316.601562" xlink:href="#TimesNewRomanPSMT-53"/>
      <use x="372.216797" xlink:href="#TimesNewRomanPSMT-54"/>
      <use x="433.300781" xlink:href="#TimesNewRomanPSMT-4d"/>
     </g>
    </g>
   </g>
  </g>
 </g>
 <defs>
  <clipPath id="p4ba7a1a1d6">
   <rect height="271.8" width="390.6" x="63" y="43.2"/>
  </clipPath>
 </defs>
</svg>
