<?xml version="1.0" encoding="utf-8" standalone="no"?>
<!DOCTYPE svg PUBLIC "-//W3C//DTD SVG 1.1//EN"
  "http://www.w3.org/Graphics/SVG/1.1/DTD/svg11.dtd">
<!-- Created with matplotlib (http://matplotlib.org/) -->
<svg height="432pt" version="1.1" viewBox="0 0 576 432" width="576pt" xmlns="http://www.w3.org/2000/svg" xmlns:xlink="http://www.w3.org/1999/xlink">
 <defs>
  <style type="text/css">
*{stroke-linecap:butt;stroke-linejoin:round;}
  </style>
 </defs>
 <g id="figure_1">
  <g id="patch_1">
   <path d="M 0 432 
L 576 432 
L 576 0 
L 0 0 
z
" style="fill:#ffffff;"/>
  </g>
  <g id="axes_1">
   <g id="patch_2">
    <path d="M 72 378 
L 518.4 378 
L 518.4 51.84 
L 72 51.84 
z
" style="fill:#ffffff;"/>
   </g>
   <g id="matplotlib.axis_1">
    <g id="xtick_1">
     <g id="line2d_1">
      <defs>
       <path d="M 0 0 
L 0 3.5 
" id="m59f16a7219" style="stroke:#000000;stroke-width:0.8;"/>
      </defs>
      <g>
       <use style="stroke:#000000;stroke-width:0.8;" x="92.290909" xlink:href="#m59f16a7219" y="378"/>
      </g>
     </g>
     <g id="text_1">
      <!-- 00:00 -->
      <defs>
       <path d="M 3.125 29.296875 
Q 3.90625 50 6.4375 56.046875 
Q 8.984375 62.109375 13.671875 66.015625 
Q 18.359375 69.921875 25.1875 69.921875 
Q 32.03125 69.921875 37.109375 64.25 
Q 42.1875 58.59375 43.75 50 
Q 45.3125 41.40625 44.71875 30.265625 
Q 44.140625 19.140625 40.8125 12.109375 
Q 37.5 5.078125 30.859375 2.34375 
Q 24.21875 -0.390625 17.578125 2.921875 
Q 10.9375 6.25 8.203125 11.71875 
Q 5.46875 17.1875 4.296875 23.234375 
Q 3.125 29.296875 3.90625 50 
z
M 12.890625 52.734375 
Q 10.546875 31.25 12.5 22.84375 
Q 14.453125 14.453125 18.9375 10.9375 
Q 23.4375 7.421875 28.125 9.5625 
Q 32.8125 11.71875 34.953125 18.15625 
Q 37.109375 24.609375 37.109375 32.21875 
Q 37.109375 39.84375 36.515625 46.09375 
Q 35.9375 52.34375 33 57.421875 
Q 30.078125 62.5 25.1875 62.6875 
Q 20.3125 62.890625 16.59375 57.8125 
Q 12.890625 52.734375 10.546875 31.25 
z
" id="SimHei-30"/>
       <path d="M 28.515625 37.890625 
L 19.53125 37.890625 
L 19.53125 46.484375 
L 28.515625 46.484375 
z
M 28.515625 1.953125 
L 19.53125 1.953125 
L 19.53125 10.546875 
L 28.515625 10.546875 
z
" id="SimHei-3a"/>
      </defs>
      <g transform="translate(76.040909 393.9375)scale(0.13 -0.13)">
       <use xlink:href="#SimHei-30"/>
       <use x="50" xlink:href="#SimHei-30"/>
       <use x="100" xlink:href="#SimHei-3a"/>
       <use x="150" xlink:href="#SimHei-30"/>
       <use x="200" xlink:href="#SimHei-30"/>
      </g>
     </g>
    </g>
    <g id="xtick_2">
     <g id="line2d_2">
      <g>
       <use style="stroke:#000000;stroke-width:0.8;" x="162.990941" xlink:href="#m59f16a7219" y="378"/>
      </g>
     </g>
     <g id="text_2">
      <!-- 04:00 -->
      <defs>
       <path d="M 31.25 17.1875 
L 1.171875 17.1875 
L 1.171875 23.828125 
L 32.8125 69.53125 
L 38.671875 69.53125 
L 38.671875 23.828125 
L 48.046875 23.828125 
L 48.046875 17.1875 
L 38.671875 17.1875 
L 38.671875 2.34375 
L 31.25 2.34375 
z
M 31.25 23.828125 
L 31.25 54.6875 
L 9.375 23.828125 
z
" id="SimHei-34"/>
      </defs>
      <g transform="translate(146.740941 393.9375)scale(0.13 -0.13)">
       <use xlink:href="#SimHei-30"/>
       <use x="50" xlink:href="#SimHei-34"/>
       <use x="100" xlink:href="#SimHei-3a"/>
       <use x="150" xlink:href="#SimHei-30"/>
       <use x="200" xlink:href="#SimHei-30"/>
      </g>
     </g>
    </g>
    <g id="xtick_3">
     <g id="line2d_3">
      <g>
       <use style="stroke:#000000;stroke-width:0.8;" x="233.690972" xlink:href="#m59f16a7219" y="378"/>
      </g>
     </g>
     <g id="text_3">
      <!-- 8:00 -->
      <defs>
       <path d="M 2.734375 16.796875 
Q 2.734375 26.171875 5.078125 30.65625 
Q 7.421875 35.15625 12.890625 37.890625 
Q 8.203125 40.625 6.640625 43.9375 
Q 5.078125 47.265625 4.875 51.5625 
Q 4.6875 55.859375 6.046875 58.984375 
Q 7.421875 62.109375 10.15625 64.84375 
Q 12.890625 67.578125 16.203125 68.546875 
Q 19.53125 69.53125 23.4375 69.53125 
Q 27.34375 69.53125 30.46875 68.75 
Q 33.59375 67.96875 37.109375 65.421875 
Q 40.625 62.890625 42.1875 58.203125 
Q 43.75 53.515625 41.984375 47.265625 
Q 40.234375 41.015625 32.8125 37.5 
Q 39.453125 35.546875 42.1875 31.4375 
Q 44.921875 27.34375 44.921875 21.484375 
Q 44.921875 15.625 43.15625 12.109375 
Q 41.40625 8.59375 39.25 6.25 
Q 37.109375 3.90625 33.390625 2.53125 
Q 29.6875 1.171875 24.015625 1.171875 
Q 18.359375 1.171875 14.25 2.53125 
Q 10.15625 3.90625 7.421875 6.640625 
Q 4.6875 9.375 3.703125 13.078125 
Q 2.734375 16.796875 2.734375 26.171875 
z
M 10.9375 26.5625 
Q 10.546875 17.1875 12.296875 13.671875 
Q 14.0625 10.15625 18.75 9.171875 
Q 23.4375 8.203125 28.515625 9.375 
Q 33.59375 10.546875 35.546875 14.84375 
Q 37.5 19.140625 36.90625 23.4375 
Q 36.328125 27.734375 32.03125 30.65625 
Q 27.734375 33.59375 22.65625 33.203125 
Q 17.578125 32.8125 14.25 29.6875 
Q 10.9375 26.5625 10.546875 17.1875 
z
M 12.109375 56.25 
Q 12.109375 48.4375 14.84375 44.921875 
Q 17.578125 41.40625 23.4375 41.40625 
Q 29.296875 41.40625 32.21875 44.921875 
Q 35.15625 48.4375 34.953125 53.3125 
Q 34.765625 58.203125 31.4375 60.546875 
Q 28.125 62.890625 22.453125 62.5 
Q 16.796875 62.109375 14.453125 59.171875 
Q 12.109375 56.25 12.109375 48.4375 
z
" id="SimHei-38"/>
      </defs>
      <g transform="translate(220.690972 393.9375)scale(0.13 -0.13)">
       <use xlink:href="#SimHei-38"/>
       <use x="50" xlink:href="#SimHei-3a"/>
       <use x="100" xlink:href="#SimHei-30"/>
       <use x="150" xlink:href="#SimHei-30"/>
      </g>
     </g>
    </g>
    <g id="xtick_4">
     <g id="line2d_4">
      <g>
       <use style="stroke:#000000;stroke-width:0.8;" x="304.391004" xlink:href="#m59f16a7219" y="378"/>
      </g>
     </g>
     <g id="text_4">
      <!-- 12:00 -->
      <defs>
       <path d="M 21.875 56.25 
Q 16.796875 51.171875 8.984375 46.484375 
L 8.984375 53.90625 
Q 18.75 60.546875 25 69.53125 
L 29.6875 69.53125 
L 29.6875 2.34375 
L 21.875 2.34375 
z
" id="SimHei-31"/>
       <path d="M 4.6875 3.90625 
Q 5.078125 9.765625 10.15625 14.453125 
Q 15.234375 19.140625 23.046875 29.09375 
Q 30.859375 39.0625 33.203125 44.53125 
Q 35.546875 50 34.953125 53.90625 
Q 34.375 57.8125 31.25 60.34375 
Q 28.125 62.890625 24.015625 62.5 
Q 19.921875 62.109375 16.203125 59.375 
Q 12.5 56.640625 10.546875 51.171875 
L 3.125 52.34375 
Q 6.25 61.328125 11.125 65.421875 
Q 16.015625 69.53125 22.65625 69.921875 
Q 26.5625 70.3125 29.6875 69.71875 
Q 32.8125 69.140625 36.125 66.984375 
Q 39.453125 64.84375 41.59375 60.546875 
Q 43.75 56.25 43.15625 50.1875 
Q 42.578125 44.140625 37.109375 35.734375 
Q 31.640625 27.34375 16.015625 9.375 
L 44.140625 9.375 
L 44.140625 2.34375 
L 4.6875 2.34375 
z
" id="SimHei-32"/>
      </defs>
      <g transform="translate(288.141004 393.9375)scale(0.13 -0.13)">
       <use xlink:href="#SimHei-31"/>
       <use x="50" xlink:href="#SimHei-32"/>
       <use x="100" xlink:href="#SimHei-3a"/>
       <use x="150" xlink:href="#SimHei-30"/>
       <use x="200" xlink:href="#SimHei-30"/>
      </g>
     </g>
    </g>
    <g id="xtick_5">
     <g id="line2d_5">
      <g>
       <use style="stroke:#000000;stroke-width:0.8;" x="375.091036" xlink:href="#m59f16a7219" y="378"/>
      </g>
     </g>
     <g id="text_5">
      <!-- 16:00 -->
      <defs>
       <path d="M 3.515625 19.53125 
Q 4.296875 30.859375 6.046875 34.765625 
Q 7.8125 38.671875 11.328125 44.53125 
L 27.34375 69.53125 
L 36.328125 69.53125 
L 19.921875 43.75 
Q 30.46875 46.484375 36.71875 42.96875 
Q 42.96875 39.453125 45.109375 34.953125 
Q 47.265625 30.46875 47.453125 25.1875 
Q 47.65625 19.921875 45.890625 14.84375 
Q 44.140625 9.765625 39.640625 5.65625 
Q 35.15625 1.5625 27.140625 1.171875 
Q 19.140625 0.78125 13.46875 4.09375 
Q 7.8125 7.421875 5.65625 13.46875 
Q 3.515625 19.53125 4.296875 30.859375 
z
M 12.5 16.015625 
Q 19.53125 8.59375 25.390625 8.203125 
Q 31.25 7.8125 35.15625 12.109375 
Q 39.0625 16.40625 39.0625 24.609375 
Q 39.0625 32.8125 34.171875 35.9375 
Q 29.296875 39.0625 23.234375 38.28125 
Q 17.1875 37.5 14.453125 32.421875 
Q 11.71875 27.34375 12.109375 21.671875 
Q 12.5 16.015625 19.53125 8.59375 
z
" id="SimHei-36"/>
      </defs>
      <g transform="translate(358.841036 393.9375)scale(0.13 -0.13)">
       <use xlink:href="#SimHei-31"/>
       <use x="50" xlink:href="#SimHei-36"/>
       <use x="100" xlink:href="#SimHei-3a"/>
       <use x="150" xlink:href="#SimHei-30"/>
       <use x="200" xlink:href="#SimHei-30"/>
      </g>
     </g>
    </g>
    <g id="xtick_6">
     <g id="line2d_6">
      <g>
       <use style="stroke:#000000;stroke-width:0.8;" x="445.791067" xlink:href="#m59f16a7219" y="378"/>
      </g>
     </g>
     <g id="text_6">
      <!-- 20:00 -->
      <g transform="translate(429.541067 393.9375)scale(0.13 -0.13)">
       <use xlink:href="#SimHei-32"/>
       <use x="50" xlink:href="#SimHei-30"/>
       <use x="100" xlink:href="#SimHei-3a"/>
       <use x="150" xlink:href="#SimHei-30"/>
       <use x="200" xlink:href="#SimHei-30"/>
      </g>
     </g>
    </g>
    <g id="xtick_7">
     <g id="line2d_7">
      <g>
       <use style="stroke:#000000;stroke-width:0.8;" x="516.491099" xlink:href="#m59f16a7219" y="378"/>
      </g>
     </g>
    </g>
    <g id="text_7">
     <!-- 时间 -->
     <defs>
      <path d="M 39.453125 71.484375 
Q 39.0625 57.421875 39.0625 37.5 
Q 39.0625 17.578125 39.453125 6.25 
L 31.25 6.25 
L 31.25 13.671875 
L 15.625 13.671875 
L 15.625 0.78125 
L 7.421875 0.78125 
Q 7.8125 18.75 7.8125 36.71875 
Q 7.8125 55.078125 7.421875 71.484375 
L 39.453125 71.484375 
z
M 76.171875 59.765625 
Q 76.171875 71.484375 75.78125 81.640625 
L 84.375 81.640625 
Q 83.984375 71.484375 83.984375 59.765625 
Q 89.84375 59.765625 96.484375 60.15625 
L 96.484375 52.734375 
Q 89.84375 53.125 83.984375 53.125 
L 83.984375 0.78125 
Q 83.984375 -5.078125 79.296875 -6.640625 
Q 74.609375 -8.203125 67.1875 -8.984375 
Q 67.1875 -4.296875 62.890625 0 
Q 70.3125 -0.78125 73.234375 -0.390625 
Q 76.171875 0 76.171875 4.6875 
L 76.171875 53.125 
Q 56.640625 53.125 43.359375 52.734375 
L 43.359375 60.15625 
Q 55.859375 59.765625 76.171875 59.765625 
z
M 31.25 20.3125 
L 31.25 39.84375 
L 15.625 39.84375 
L 15.625 20.3125 
z
M 31.25 46.484375 
L 31.25 64.84375 
L 15.625 64.84375 
L 15.625 46.484375 
z
M 55.46875 42.578125 
Q 60.546875 34.375 65.234375 25 
Q 61.328125 23.828125 57.03125 21.484375 
Q 53.90625 30.859375 48.046875 39.0625 
Q 51.5625 40.625 55.46875 42.578125 
z
" id="SimHei-65f6"/>
      <path d="M 69.53125 55.46875 
Q 69.140625 48.046875 69.140625 42.578125 
L 69.140625 21.875 
Q 69.140625 16.796875 69.53125 9.765625 
L 30.078125 9.765625 
Q 30.46875 16.796875 30.46875 22.265625 
L 30.46875 42.578125 
Q 30.46875 48.046875 30.078125 55.46875 
L 69.53125 55.46875 
z
M 90.625 76.171875 
Q 90.234375 68.75 90.234375 61.328125 
L 90.234375 3.90625 
Q 90.625 -5.078125 85.34375 -7.03125 
Q 80.078125 -8.984375 73.828125 -9.765625 
Q 73.4375 -5.078125 70.703125 -0.390625 
Q 78.125 -0.78125 80.265625 0.390625 
Q 82.421875 1.5625 82.421875 5.46875 
L 82.421875 69.53125 
L 58.984375 69.53125 
Q 49.609375 69.53125 41.40625 69.140625 
L 41.40625 76.5625 
Q 49.609375 76.171875 58.984375 76.171875 
z
M 8.59375 -8.203125 
Q 9.375 -0.390625 9.375 8.203125 
L 9.375 49.21875 
Q 9.375 57.421875 8.59375 62.890625 
L 17.578125 62.890625 
Q 17.1875 57.03125 17.1875 51.5625 
L 17.1875 7.8125 
Q 17.1875 0 17.578125 -8.203125 
z
M 61.71875 16.015625 
L 61.71875 30.46875 
L 37.890625 30.46875 
L 37.890625 16.015625 
z
M 61.71875 36.71875 
L 61.71875 49.21875 
L 37.890625 49.21875 
L 37.890625 36.71875 
z
M 23.828125 82.8125 
Q 27.34375 78.125 34.765625 67.96875 
Q 30.46875 66.015625 26.5625 63.671875 
Q 22.65625 71.484375 16.796875 78.515625 
Q 21.09375 81.640625 23.828125 82.8125 
z
" id="SimHei-95f4"/>
     </defs>
     <g transform="translate(282.2 409.972656)scale(0.13 -0.13)">
      <use xlink:href="#SimHei-65f6"/>
      <use x="100" xlink:href="#SimHei-95f4"/>
     </g>
    </g>
   </g>
   <g id="matplotlib.axis_2">
    <g id="ytick_1">
     <g id="line2d_8">
      <defs>
       <path d="M 0 0 
L -3.5 0 
" id="mea7ca08e35" style="stroke:#000000;stroke-width:0.8;"/>
      </defs>
      <g>
       <use style="stroke:#000000;stroke-width:0.8;" x="72" xlink:href="#mea7ca08e35" y="362.781465"/>
      </g>
     </g>
     <g id="text_8">
      <!-- 0.0 -->
      <defs>
       <path d="M 16.796875 1.953125 
L 7.8125 1.953125 
L 7.8125 10.546875 
L 16.796875 10.546875 
z
" id="SimHei-2e"/>
      </defs>
      <g transform="translate(45.5 367.250215)scale(0.13 -0.13)">
       <use xlink:href="#SimHei-30"/>
       <use x="50" xlink:href="#SimHei-2e"/>
       <use x="100" xlink:href="#SimHei-30"/>
      </g>
     </g>
    </g>
    <g id="ytick_2">
     <g id="line2d_9">
      <g>
       <use style="stroke:#000000;stroke-width:0.8;" x="72" xlink:href="#mea7ca08e35" y="326.480277"/>
      </g>
     </g>
     <g id="text_9">
      <!-- 0.5 -->
      <defs>
       <path d="M 8.59375 20.703125 
Q 11.328125 10.15625 17.96875 8.984375 
Q 24.609375 7.8125 28.703125 10.34375 
Q 32.8125 12.890625 34.5625 16.984375 
Q 36.328125 21.09375 36.125 26.171875 
Q 35.9375 31.25 33.390625 34.765625 
Q 30.859375 38.28125 26.953125 39.453125 
Q 23.046875 40.625 18.15625 39.453125 
Q 13.28125 38.28125 10.15625 33.984375 
L 3.515625 34.765625 
Q 4.296875 37.109375 10.9375 68.359375 
L 41.796875 68.359375 
L 41.796875 61.328125 
L 16.796875 61.328125 
Q 14.84375 50.78125 12.890625 44.53125 
Q 18.75 47.265625 23.828125 47.0625 
Q 28.90625 46.875 33.59375 44.71875 
Q 38.28125 42.578125 40.421875 38.859375 
Q 42.578125 35.15625 43.546875 31.4375 
Q 44.53125 27.734375 44.328125 23.4375 
Q 44.140625 19.140625 42.578125 14.640625 
Q 41.015625 10.15625 37.890625 7.21875 
Q 34.765625 4.296875 30.265625 2.53125 
Q 25.78125 0.78125 19.921875 1.171875 
Q 14.0625 1.5625 8.78125 5.46875 
Q 3.515625 9.375 1.5625 18.75 
z
" id="SimHei-35"/>
      </defs>
      <g transform="translate(45.5 330.949027)scale(0.13 -0.13)">
       <use xlink:href="#SimHei-30"/>
       <use x="50" xlink:href="#SimHei-2e"/>
       <use x="100" xlink:href="#SimHei-35"/>
      </g>
     </g>
    </g>
    <g id="ytick_3">
     <g id="line2d_10">
      <g>
       <use style="stroke:#000000;stroke-width:0.8;" x="72" xlink:href="#mea7ca08e35" y="290.17909"/>
      </g>
     </g>
     <g id="text_10">
      <!-- 1.0 -->
      <g transform="translate(45.5 294.64784)scale(0.13 -0.13)">
       <use xlink:href="#SimHei-31"/>
       <use x="50" xlink:href="#SimHei-2e"/>
       <use x="100" xlink:href="#SimHei-30"/>
      </g>
     </g>
    </g>
    <g id="ytick_4">
     <g id="line2d_11">
      <g>
       <use style="stroke:#000000;stroke-width:0.8;" x="72" xlink:href="#mea7ca08e35" y="253.877902"/>
      </g>
     </g>
     <g id="text_11">
      <!-- 1.5 -->
      <g transform="translate(45.5 258.346652)scale(0.13 -0.13)">
       <use xlink:href="#SimHei-31"/>
       <use x="50" xlink:href="#SimHei-2e"/>
       <use x="100" xlink:href="#SimHei-35"/>
      </g>
     </g>
    </g>
    <g id="ytick_5">
     <g id="line2d_12">
      <g>
       <use style="stroke:#000000;stroke-width:0.8;" x="72" xlink:href="#mea7ca08e35" y="217.576715"/>
      </g>
     </g>
     <g id="text_12">
      <!-- 2.0 -->
      <g transform="translate(45.5 222.045465)scale(0.13 -0.13)">
       <use xlink:href="#SimHei-32"/>
       <use x="50" xlink:href="#SimHei-2e"/>
       <use x="100" xlink:href="#SimHei-30"/>
      </g>
     </g>
    </g>
    <g id="ytick_6">
     <g id="line2d_13">
      <g>
       <use style="stroke:#000000;stroke-width:0.8;" x="72" xlink:href="#mea7ca08e35" y="181.275527"/>
      </g>
     </g>
     <g id="text_13">
      <!-- 2.5 -->
      <g transform="translate(45.5 185.744277)scale(0.13 -0.13)">
       <use xlink:href="#SimHei-32"/>
       <use x="50" xlink:href="#SimHei-2e"/>
       <use x="100" xlink:href="#SimHei-35"/>
      </g>
     </g>
    </g>
    <g id="ytick_7">
     <g id="line2d_14">
      <g>
       <use style="stroke:#000000;stroke-width:0.8;" x="72" xlink:href="#mea7ca08e35" y="144.97434"/>
      </g>
     </g>
     <g id="text_14">
      <!-- 3.0 -->
      <defs>
       <path d="M 3.90625 19.140625 
L 10.9375 20.3125 
Q 12.5 15.234375 16.015625 11.90625 
Q 19.53125 8.59375 24.796875 8.78125 
Q 30.078125 8.984375 33.203125 13.078125 
Q 36.328125 17.1875 35.9375 22.453125 
Q 35.546875 27.734375 31.828125 30.65625 
Q 28.125 33.59375 19.921875 34.765625 
L 19.921875 39.84375 
Q 28.125 40.625 31.828125 44.140625 
Q 35.546875 47.65625 35.15625 53.3125 
Q 34.765625 58.984375 30.078125 61.515625 
Q 25.390625 64.0625 20.109375 62.109375 
Q 14.84375 60.15625 11.71875 51.171875 
L 4.6875 52.34375 
Q 7.03125 59.375 11.125 64.0625 
Q 15.234375 68.75 22.265625 69.53125 
Q 29.296875 70.3125 34.5625 67.765625 
Q 39.84375 65.234375 41.984375 59.953125 
Q 44.140625 54.6875 42.578125 48.4375 
Q 41.015625 42.1875 33.59375 37.5 
Q 39.0625 35.15625 41.984375 30.46875 
Q 44.921875 25.78125 43.9375 18.15625 
Q 42.96875 10.546875 37.109375 5.859375 
Q 31.25 1.171875 23.828125 1.359375 
Q 16.40625 1.5625 10.9375 6.046875 
Q 5.46875 10.546875 3.90625 19.140625 
z
" id="SimHei-33"/>
      </defs>
      <g transform="translate(45.5 149.44309)scale(0.13 -0.13)">
       <use xlink:href="#SimHei-33"/>
       <use x="50" xlink:href="#SimHei-2e"/>
       <use x="100" xlink:href="#SimHei-30"/>
      </g>
     </g>
    </g>
    <g id="ytick_8">
     <g id="line2d_15">
      <g>
       <use style="stroke:#000000;stroke-width:0.8;" x="72" xlink:href="#mea7ca08e35" y="108.673152"/>
      </g>
     </g>
     <g id="text_15">
      <!-- 3.5 -->
      <g transform="translate(45.5 113.141902)scale(0.13 -0.13)">
       <use xlink:href="#SimHei-33"/>
       <use x="50" xlink:href="#SimHei-2e"/>
       <use x="100" xlink:href="#SimHei-35"/>
      </g>
     </g>
    </g>
    <g id="ytick_9">
     <g id="line2d_16">
      <g>
       <use style="stroke:#000000;stroke-width:0.8;" x="72" xlink:href="#mea7ca08e35" y="72.371965"/>
      </g>
     </g>
     <g id="text_16">
      <!-- 4.0 -->
      <g transform="translate(45.5 76.840715)scale(0.13 -0.13)">
       <use xlink:href="#SimHei-34"/>
       <use x="50" xlink:href="#SimHei-2e"/>
       <use x="100" xlink:href="#SimHei-30"/>
      </g>
     </g>
    </g>
    <g id="text_17">
     <!-- 功率(千瓦) -->
     <defs>
      <path d="M 88.671875 4.296875 
Q 87.109375 -3.125 81.640625 -4.875 
Q 76.171875 -6.640625 69.53125 -7.421875 
Q 68.75 -2.734375 65.625 1.5625 
Q 73.828125 1.171875 77.140625 2.140625 
Q 80.46875 3.125 80.859375 6.640625 
Q 82.8125 27.734375 83.984375 51.171875 
L 66.40625 51.171875 
Q 66.015625 39.84375 64.453125 30.078125 
Q 62.890625 20.3125 59.171875 13.28125 
Q 55.46875 6.25 50.78125 0.78125 
Q 46.09375 -4.6875 39.84375 -10.15625 
Q 37.109375 -6.25 32.8125 -3.90625 
Q 41.40625 1.5625 45.703125 6.640625 
Q 50 11.71875 53.125 18.15625 
Q 56.25 24.609375 57.421875 32.421875 
Q 58.59375 40.234375 58.984375 51.171875 
L 53.125 51.171875 
Q 48.4375 51.171875 43.75 50.78125 
L 43.75 58.203125 
Q 48.828125 57.8125 53.90625 57.8125 
L 58.984375 57.8125 
L 58.984375 71.484375 
Q 58.984375 76.171875 58.59375 80.859375 
Q 63.671875 79.6875 67.578125 79.296875 
Q 66.796875 76.5625 66.59375 70.703125 
Q 66.40625 64.84375 66.40625 57.8125 
L 92.1875 57.8125 
Q 91.796875 52.34375 91.40625 47.453125 
Q 91.015625 42.578125 88.671875 4.296875 
z
M 45.3125 15.625 
Q 38.671875 14.0625 34.375 13.078125 
Q 30.078125 12.109375 20.890625 9.375 
Q 11.71875 6.640625 7.8125 5.46875 
Q 6.25 10.9375 4.6875 14.0625 
Q 7.03125 14.0625 21.484375 17.1875 
L 21.484375 60.9375 
L 18.359375 60.9375 
Q 13.671875 60.9375 7.03125 60.546875 
L 7.03125 67.96875 
Q 13.28125 67.578125 18.359375 67.578125 
L 32.8125 67.578125 
Q 38.28125 67.578125 42.578125 67.96875 
L 42.578125 60.546875 
Q 37.890625 60.9375 33.203125 60.9375 
L 29.296875 60.9375 
L 29.296875 18.75 
L 37.109375 20.703125 
Q 40.234375 21.484375 44.53125 22.65625 
z
" id="SimHei-529f"/>
      <path d="M 51.953125 80.46875 
Q 53.515625 76.5625 55.46875 70.703125 
L 75 70.703125 
Q 82.03125 70.703125 90.625 71.09375 
L 90.625 64.453125 
Q 82.03125 65.234375 74.609375 65.234375 
L 43.75 65.234375 
Q 46.484375 63.28125 51.5625 60.9375 
Q 48.046875 58.59375 44.921875 55.265625 
Q 41.796875 51.953125 38.671875 48.828125 
L 51.171875 48.828125 
Q 55.859375 53.515625 58.984375 58.984375 
Q 62.5 56.25 66.796875 53.515625 
Q 61.71875 50.78125 56.25 44.921875 
Q 50.78125 39.0625 41.015625 31.25 
L 60.15625 32.8125 
Q 58.203125 35.15625 56.25 37.890625 
Q 58.59375 38.671875 62.5 41.40625 
Q 66.40625 36.71875 73.4375 26.5625 
Q 69.921875 25.390625 66.015625 22.65625 
Q 65.234375 25 62.890625 27.734375 
Q 57.8125 27.34375 53.515625 27.34375 
L 53.515625 16.40625 
L 80.46875 16.40625 
Q 88.671875 16.40625 95.3125 16.796875 
L 95.3125 10.15625 
Q 89.0625 10.546875 80.078125 10.546875 
L 53.515625 10.546875 
L 53.515625 2.734375 
Q 53.515625 -4.6875 53.90625 -9.765625 
L 45.3125 -9.765625 
Q 45.703125 -4.6875 45.703125 2.734375 
L 45.703125 10.546875 
L 20.703125 10.546875 
Q 12.890625 10.546875 5.078125 10.15625 
L 5.078125 16.796875 
Q 12.890625 16.40625 21.09375 16.40625 
L 45.703125 16.40625 
L 45.703125 26.5625 
Q 42.1875 26.171875 38.671875 25.578125 
Q 35.15625 25 31.640625 23.828125 
Q 30.46875 27.734375 28.90625 31.25 
Q 32.421875 31.640625 36.328125 34.375 
Q 40.234375 37.109375 46.484375 43.75 
Q 35.9375 42.578125 31.640625 41.015625 
Q 30.859375 44.921875 28.90625 49.609375 
Q 32.421875 49.609375 36.328125 54.484375 
Q 40.234375 59.375 42.96875 65.234375 
L 26.5625 65.234375 
Q 17.96875 65.234375 10.15625 64.453125 
L 10.15625 71.09375 
Q 17.96875 70.703125 24.21875 70.703125 
L 46.484375 70.703125 
Q 45.3125 75.390625 43.75 78.515625 
Q 47.265625 79.296875 51.953125 80.46875 
z
M 25.390625 40.234375 
Q 26.953125 37.5 28.515625 34.375 
Q 24.609375 32.03125 20.703125 29.09375 
Q 16.796875 26.171875 12.5 22.265625 
Q 9.765625 26.171875 7.421875 29.296875 
Q 12.5 31.640625 17.1875 34.5625 
Q 21.875 37.5 25.390625 40.234375 
z
M 75.78125 41.40625 
Q 80.078125 38.671875 83.390625 36.515625 
Q 86.71875 34.375 91.796875 30.46875 
Q 88.671875 28.125 85.9375 25 
Q 82.8125 27.734375 79.09375 30.859375 
Q 75.390625 33.984375 71.484375 36.328125 
Q 73.828125 38.671875 75.78125 41.40625 
z
M 89.453125 55.078125 
Q 86.71875 53.90625 82.8125 50.96875 
Q 78.90625 48.046875 75 44.140625 
Q 72.265625 47.65625 69.921875 49.609375 
Q 73.4375 51.953125 76.171875 54.484375 
Q 78.90625 57.03125 82.8125 61.328125 
Q 86.328125 57.8125 89.453125 55.078125 
z
M 16.40625 60.15625 
Q 22.265625 56.25 27.734375 51.171875 
Q 24.609375 48.4375 22.265625 45.703125 
Q 16.796875 51.5625 10.546875 55.078125 
Q 13.671875 57.8125 16.40625 60.15625 
z
" id="SimHei-7387"/>
      <path d="M 46.484375 -3.125 
L 42.1875 -7.421875 
Q 32.421875 1.953125 27.53125 12.109375 
Q 22.65625 22.265625 22.65625 35.15625 
Q 22.65625 48.046875 27.53125 58.203125 
Q 32.421875 68.359375 42.1875 78.125 
L 46.484375 73.828125 
Q 37.5 65.234375 33 56.046875 
Q 28.515625 46.875 28.515625 35.15625 
Q 28.515625 23.4375 33 14.25 
Q 37.5 5.078125 46.484375 -3.125 
z
" id="SimHei-28"/>
      <path d="M 11.71875 70.703125 
Q 33.59375 71.875 49.796875 74.21875 
Q 66.015625 76.5625 76.171875 81.640625 
Q 78.515625 76.171875 82.03125 72.265625 
Q 77.34375 72.265625 69.140625 70.890625 
Q 60.9375 69.53125 53.515625 68.359375 
L 53.515625 40.234375 
L 79.6875 40.234375 
Q 86.328125 40.234375 93.75 40.625 
L 93.75 33.203125 
Q 85.9375 33.59375 79.6875 33.59375 
L 53.515625 33.59375 
L 53.515625 6.640625 
Q 53.515625 -1.171875 53.90625 -9.765625 
L 45.3125 -9.765625 
Q 45.703125 -1.171875 45.703125 6.25 
L 45.703125 33.59375 
L 19.921875 33.59375 
Q 12.890625 33.59375 5.859375 33.203125 
L 5.859375 40.625 
Q 13.671875 40.234375 19.921875 40.234375 
L 45.703125 40.234375 
L 45.703125 66.796875 
Q 40.234375 66.015625 32.609375 65.234375 
Q 25 64.453125 16.015625 63.28125 
Q 14.84375 67.96875 11.71875 70.703125 
z
" id="SimHei-5343"/>
      <path d="M 75.78125 73.046875 
Q 82.8125 73.046875 91.015625 73.4375 
L 91.015625 66.015625 
Q 82.8125 66.40625 76.953125 66.40625 
L 36.71875 66.40625 
L 34.765625 51.953125 
L 72.65625 51.953125 
Q 72.265625 46.875 71.484375 36.328125 
L 69.921875 7.421875 
Q 68.75 1.953125 73.828125 -0.78125 
L 80.46875 -0.78125 
Q 84.375 -0.78125 85.15625 1.171875 
Q 85.9375 3.125 86.71875 12.109375 
Q 91.015625 9.375 95.703125 8.203125 
Q 93.359375 -0.390625 91.59375 -3.90625 
Q 89.84375 -7.421875 83.59375 -7.421875 
L 71.875 -7.421875 
Q 61.328125 -7.8125 62.109375 3.90625 
L 64.453125 45.3125 
L 33.984375 45.3125 
L 27.34375 4.296875 
Q 32.03125 5.859375 37.109375 7.421875 
L 53.125 12.109375 
Q 52.34375 9.375 53.125 4.296875 
Q 37.890625 0.390625 30.265625 -2.140625 
Q 22.65625 -4.6875 20.3125 -6.25 
Q 18.359375 -0.390625 16.015625 2.34375 
Q 20.703125 6.640625 21.09375 12.109375 
L 28.515625 66.40625 
L 22.265625 66.40625 
Q 15.234375 66.40625 7.03125 66.015625 
L 7.03125 73.4375 
Q 15.234375 73.046875 22.265625 73.046875 
z
M 42.1875 36.328125 
Q 48.4375 30.859375 56.640625 21.09375 
Q 53.515625 18.359375 50.78125 16.015625 
Q 45.703125 23.046875 37.109375 31.25 
Q 39.84375 33.59375 42.1875 36.328125 
z
" id="SimHei-74e6"/>
      <path d="M 26.171875 35.15625 
Q 26.171875 22.265625 21.28125 12.109375 
Q 16.40625 1.953125 6.640625 -7.421875 
L 2.34375 -3.125 
Q 11.328125 5.078125 15.8125 14.25 
Q 20.3125 23.4375 20.3125 35.15625 
Q 20.3125 46.875 15.8125 56.046875 
Q 11.328125 65.234375 2.34375 73.828125 
L 6.640625 78.125 
Q 16.40625 68.359375 21.28125 58.203125 
Q 26.171875 48.046875 26.171875 35.15625 
z
" id="SimHei-29"/>
     </defs>
     <g transform="translate(39.875 247.42)rotate(-90)scale(0.13 -0.13)">
      <use xlink:href="#SimHei-529f"/>
      <use x="100" xlink:href="#SimHei-7387"/>
      <use x="200" xlink:href="#SimHei-28"/>
      <use x="250" xlink:href="#SimHei-5343"/>
      <use x="350" xlink:href="#SimHei-74e6"/>
      <use x="450" xlink:href="#SimHei-29"/>
     </g>
    </g>
   </g>
   <g id="line2d_17">
    <path clip-path="url(#pad7360c98f)" d="M 92.290909 362.747584 
L 129.054926 362.766944 
L 144.608933 362.752424 
L 151.678936 362.762104 
L 160.162939 362.781465 
L 191.270953 362.742744 
L 195.512955 362.776622 
L 196.926956 361.07289 
L 198.340957 357.224963 
L 199.754957 350.826274 
L 201.168958 348.454596 
L 202.582959 348.048021 
L 203.996959 341.799376 
L 205.41096 339.989159 
L 206.82496 338.827522 
L 208.238961 335.531377 
L 209.652962 334.089008 
L 211.066962 330.236243 
L 212.480963 326.04466 
L 215.308964 319.307167 
L 216.722965 315.822249 
L 218.136965 309.128317 
L 219.550966 303.494368 
L 220.964967 302.928062 
L 222.378967 297.657142 
L 223.792968 288.364023 
L 225.206969 263.838941 
L 226.620969 234.294617 
L 228.03497 226.51165 
L 229.448971 238.916978 
L 230.862971 240.093144 
L 232.276972 241.608101 
L 235.104973 235.857993 
L 236.518974 231.395379 
L 239.346975 198.980851 
L 240.760976 181.899893 
L 242.174976 171.004716 
L 243.588977 163.715423 
L 247.830979 144.437082 
L 249.244979 138.425606 
L 250.65898 133.222411 
L 252.072981 125.429759 
L 256.314983 108.798994 
L 259.142984 100.014085 
L 260.556984 96.422692 
L 261.970985 94.781886 
L 263.384986 90.459634 
L 264.798986 87.202198 
L 266.212987 84.288447 
L 267.626988 81.844157 
L 269.040988 81.030982 
L 270.454989 78.204317 
L 271.86899 77.120131 
L 273.28299 77.749361 
L 274.696991 75.692326 
L 277.524992 72.057343 
L 278.938993 70.745715 
L 280.352993 70.368139 
L 281.766994 70.416587 
L 283.180995 68.838596 
L 284.594995 68.988622 
L 286.008996 68.441752 
L 288.836997 66.665455 
L 290.250998 68.51431 
L 291.664998 69.613075 
L 293.078999 70.285881 
L 294.493 69.511431 
L 295.907 70.179409 
L 297.321001 71.321677 
L 298.735002 69.438793 
L 300.149002 68.887029 
L 301.563003 70.155197 
L 302.977003 69.961544 
L 304.391004 74.859794 
L 305.805005 76.28283 
L 307.219005 76.065001 
L 308.633006 75.629416 
L 310.047007 77.826821 
L 311.461007 79.387728 
L 312.875008 82.374162 
L 314.289009 87.974252 
L 315.703009 88.947087 
L 317.11701 91.810009 
L 318.53101 92.04715 
L 319.945011 93.581536 
L 321.359012 96.292052 
L 324.187013 104.159717 
L 325.601014 105.47867 
L 327.015014 110.594705 
L 328.429015 112.344451 
L 329.843016 115.628438 
L 331.257016 120.180629 
L 332.671017 122.128768 
L 334.085017 127.065752 
L 335.499018 131.424341 
L 336.913019 136.334657 
L 338.327019 139.867983 
L 339.74102 143.812702 
L 341.155021 150.049217 
L 343.983022 160.615331 
L 348.225024 174.129058 
L 349.639024 180.897995 
L 351.053025 186.95789 
L 352.467026 193.571945 
L 353.881026 199.40434 
L 355.295027 206.224114 
L 356.709028 211.761265 
L 359.537029 226.056687 
L 363.779031 248.122945 
L 365.193031 254.865295 
L 368.021033 270.167458 
L 370.849034 285.058198 
L 372.263035 293.025103 
L 375.091036 311.58227 
L 376.505036 322.796919 
L 377.919037 335.395846 
L 379.333038 342.980377 
L 380.747038 347.740673 
L 382.161039 353.783611 
L 383.57504 356.600584 
L 384.98904 357.767061 
L 386.403041 359.095685 
L 387.817041 360.039516 
L 389.231042 361.438322 
L 390.645043 362.561238 
L 392.059043 362.93151 
L 394.887045 362.781465 
L 403.371048 362.704022 
L 410.441052 362.791145 
L 413.269053 362.742744 
L 416.097054 362.795986 
L 421.753057 362.747584 
L 447.205068 362.737904 
L 448.619069 362.694342 
L 451.44707 362.776622 
L 458.517073 362.742744 
L 462.759075 362.742744 
L 498.109091 362.728223 
L 498.109091 362.728223 
" style="fill:none;stroke:#000000;stroke-linecap:square;stroke-width:1.5;"/>
   </g>
   <g id="line2d_18">
    <path clip-path="url(#pad7360c98f)" d="M 92.290909 362.809242 
L 107.844916 362.715474 
L 109.258917 362.90599 
L 138.95293 362.869823 
L 158.748939 363.060014 
L 161.57694 362.942291 
L 175.716946 362.896054 
L 178.544948 362.671791 
L 182.78695 362.534447 
L 184.20095 362.385901 
L 185.614951 362.375831 
L 187.028952 362.235493 
L 188.442952 361.936049 
L 189.856953 361.766324 
L 191.270953 361.123953 
L 192.684954 360.752834 
L 194.098955 359.94022 
L 195.512955 359.468517 
L 199.754957 356.568851 
L 201.168958 355.373402 
L 202.582959 353.80144 
L 205.41096 350.121891 
L 206.82496 347.989353 
L 209.652962 341.207506 
L 211.066962 338.586298 
L 212.480963 337.9312 
L 213.894964 334.979086 
L 215.308964 329.65202 
L 216.722965 318.549402 
L 218.136965 314.640162 
L 219.550966 313.916829 
L 220.964967 293.628741 
L 222.378967 287.141719 
L 223.792968 276.971861 
L 225.206969 267.715283 
L 226.620969 263.692161 
L 228.03497 251.220743 
L 229.448971 241.833459 
L 230.862971 233.246239 
L 232.276972 225.660205 
L 233.690972 219.920697 
L 235.104973 212.317559 
L 236.518974 206.032502 
L 237.932974 203.926481 
L 239.346975 200.539239 
L 240.760976 195.131204 
L 242.174976 179.597687 
L 243.588977 167.09701 
L 245.002978 162.241145 
L 246.416978 163.300595 
L 247.830979 163.516725 
L 249.244979 163.572818 
L 252.072981 159.30623 
L 253.486981 156.760609 
L 257.728983 134.677726 
L 259.142984 130.146946 
L 260.556984 127.161318 
L 261.970985 121.881049 
L 264.798986 116.604918 
L 267.626988 112.2441 
L 269.040988 109.630153 
L 271.86899 105.851192 
L 273.28299 104.721696 
L 274.696991 102.932425 
L 277.524992 100.086252 
L 278.938993 99.528339 
L 280.352993 97.149181 
L 284.594995 93.764908 
L 286.008996 93.669124 
L 287.422997 92.477073 
L 288.836997 92.594021 
L 290.250998 93.529902 
L 294.493 92.110917 
L 295.907 91.259299 
L 298.735002 92.442398 
L 300.149002 92.588256 
L 301.563003 93.394331 
L 302.977003 93.908864 
L 304.391004 94.065504 
L 305.805005 94.567469 
L 307.219005 96.749418 
L 308.633006 98.690529 
L 310.047007 100.222926 
L 311.461007 101.007409 
L 312.875008 102.033774 
L 314.289009 103.954165 
L 315.703009 104.344795 
L 317.11701 105.466189 
L 318.53101 107.55986 
L 319.945011 108.973596 
L 321.359012 113.37857 
L 322.773012 116.175228 
L 324.187013 117.819672 
L 325.601014 119.274791 
L 329.843016 128.159281 
L 331.257016 133.421944 
L 332.671017 136.357767 
L 334.085017 140.104499 
L 335.499018 141.46053 
L 336.913019 144.171045 
L 338.327019 147.792038 
L 339.74102 152.208833 
L 341.155021 157.775525 
L 342.569021 161.337492 
L 343.983022 167.096538 
L 345.397022 170.667558 
L 346.811023 174.700315 
L 348.225024 180.015426 
L 349.639024 184.558498 
L 352.467026 196.557819 
L 353.881026 203.521229 
L 355.295027 209.27096 
L 356.709028 215.585696 
L 358.123028 222.79451 
L 360.951029 238.657112 
L 365.193031 258.368613 
L 368.021033 277.02261 
L 370.849034 295.091044 
L 372.263035 305.187213 
L 373.677035 313.908704 
L 375.091036 324.542005 
L 377.919037 342.220016 
L 379.333038 349.264935 
L 380.747038 353.001733 
L 382.161039 355.712019 
L 384.98904 358.145876 
L 386.403041 359.34427 
L 389.231042 361.130426 
L 392.059043 362.611784 
L 393.473044 362.966869 
L 397.715046 363.174545 
L 407.61305 362.921628 
L 418.925055 362.876505 
L 498.109091 362.858431 
L 498.109091 362.858431 
" style="fill:none;stroke:#000000;stroke-dasharray:5.55,2.4;stroke-dashoffset:0;stroke-width:1.5;"/>
   </g>
   <g id="line2d_19">
    <path clip-path="url(#pad7360c98f)" d="M 92.290909 362.879105 
L 187.028952 362.806207 
L 189.856953 362.618994 
L 192.684954 362.171433 
L 195.512955 361.2166 
L 198.340957 359.400537 
L 199.754957 358.092714 
L 201.168958 356.603001 
L 202.582959 354.547751 
L 206.82496 347.25077 
L 211.066962 335.350419 
L 212.480963 334.029509 
L 213.894964 329.034683 
L 215.308964 322.792723 
L 216.722965 313.321496 
L 218.136965 307.314756 
L 219.550966 302.666382 
L 220.964967 284.155024 
L 222.378967 276.826656 
L 223.792968 266.524227 
L 225.206969 259.326202 
L 226.620969 255.150404 
L 228.03497 248.568142 
L 229.448971 240.191825 
L 230.862971 233.377874 
L 235.104973 216.083647 
L 236.518974 212.743415 
L 237.932974 210.524062 
L 239.346975 206.799088 
L 240.760976 201.718258 
L 242.174976 184.9222 
L 243.588977 166.013586 
L 245.002978 166.640457 
L 246.416978 171.107274 
L 247.830979 172.020467 
L 249.244979 174.474863 
L 250.65898 173.938077 
L 252.072981 172.782168 
L 253.486981 168.546313 
L 254.900982 160.786193 
L 256.314983 151.01856 
L 257.728983 138.769124 
L 259.142984 132.420082 
L 261.970985 123.745587 
L 264.798986 116.473428 
L 267.626988 109.73123 
L 269.040988 105.81365 
L 271.86899 100.176133 
L 273.28299 97.794369 
L 276.110991 93.870327 
L 277.524992 92.371915 
L 278.938993 91.730502 
L 283.180995 87.895478 
L 284.594995 87.293147 
L 286.008996 87.242238 
L 287.422997 86.830074 
L 288.836997 86.860626 
L 291.664998 87.614935 
L 294.493 86.821958 
L 295.907 87.500499 
L 300.149002 88.725374 
L 302.977003 89.890439 
L 305.805005 90.783695 
L 308.633006 94.367421 
L 310.047007 95.379948 
L 311.461007 95.932096 
L 314.289009 99.055872 
L 317.11701 99.726848 
L 319.945011 102.850297 
L 322.773012 108.763266 
L 324.187013 109.882222 
L 325.601014 110.44799 
L 327.015014 112.762285 
L 328.429015 115.317831 
L 329.843016 119.497426 
L 331.257016 124.482704 
L 334.085017 130.741065 
L 336.913019 134.683694 
L 338.327019 139.105019 
L 341.155021 149.023592 
L 342.569021 153.330583 
L 343.983022 158.703173 
L 345.397022 163.22315 
L 348.225024 173.41799 
L 349.639024 178.616073 
L 352.467026 191.197913 
L 353.881026 198.667572 
L 356.709028 211.35472 
L 358.123028 219.183413 
L 359.537029 228.343763 
L 362.36503 243.59191 
L 363.779031 250.053449 
L 365.193031 257.615088 
L 373.677035 317.049741 
L 375.091036 326.43001 
L 376.505036 334.550172 
L 377.919037 341.744736 
L 379.333038 347.633201 
L 380.747038 351.610138 
L 382.161039 355.036384 
L 383.57504 357.732913 
L 384.98904 359.455621 
L 386.403041 360.644396 
L 387.817041 361.33218 
L 389.231042 361.856322 
L 392.059043 362.487933 
L 394.887045 362.726296 
L 400.543047 362.858629 
L 417.511055 362.904444 
L 498.109091 362.869223 
L 498.109091 362.869223 
" style="fill:none;stroke:#000000;stroke-dasharray:9.6,2.4,1.5,2.4;stroke-dashoffset:0;stroke-width:1.5;"/>
   </g>
   <g id="line2d_20">
    <path clip-path="url(#pad7360c98f)" d="M 92.290909 362.875613 
L 182.78695 362.716062 
L 187.028952 362.420892 
L 189.856953 362.040667 
L 192.684954 361.329282 
L 194.098955 359.415521 
L 195.512955 358.233165 
L 196.926956 356.583152 
L 198.340957 354.584027 
L 199.754957 352.175142 
L 201.168958 349.386639 
L 202.582959 346.189842 
L 205.41096 339.276246 
L 206.82496 335.891179 
L 208.238961 332.217038 
L 209.652962 329.206068 
L 211.066962 325.005346 
L 212.480963 324.374351 
L 213.894964 322.100745 
L 215.308964 317.642485 
L 216.722965 304.373892 
L 218.136965 300.176488 
L 219.550966 299.420182 
L 220.964967 274.43194 
L 222.378967 267.661253 
L 223.792968 258.103571 
L 225.206969 250.034826 
L 226.620969 247.037822 
L 228.03497 240.635658 
L 229.448971 233.450716 
L 230.862971 227.231517 
L 232.276972 221.778018 
L 233.690972 217.744913 
L 235.104973 212.024143 
L 236.518974 207.290062 
L 237.932974 205.970521 
L 239.346975 203.188572 
L 240.760976 197.652757 
L 242.174976 181.747603 
L 243.588977 168.535263 
L 245.002978 167.002234 
L 246.416978 169.196104 
L 249.244979 170.207615 
L 252.072981 166.767373 
L 253.486981 164.382726 
L 254.900982 155.563375 
L 256.314983 146.038183 
L 257.728983 135.572354 
L 259.142984 128.79872 
L 260.556984 124.561638 
L 261.970985 120.749127 
L 263.384986 116.201271 
L 266.212987 108.857258 
L 267.626988 105.884742 
L 269.040988 101.164165 
L 271.86899 95.606141 
L 273.28299 92.791368 
L 274.696991 91.086425 
L 276.110991 88.724009 
L 277.524992 86.809267 
L 278.938993 86.065208 
L 280.352993 84.143518 
L 281.766994 82.600681 
L 284.594995 80.825009 
L 286.008996 81.012824 
L 287.422997 80.191923 
L 288.836997 80.283112 
L 290.250998 81.259679 
L 291.664998 81.156562 
L 294.493 80.625947 
L 295.907 80.554514 
L 297.321001 80.989351 
L 298.735002 81.78752 
L 300.149002 81.85679 
L 301.563003 82.815163 
L 305.805005 84.32991 
L 307.219005 86.439583 
L 308.633006 88.055748 
L 310.047007 89.47267 
L 311.461007 89.855248 
L 312.875008 91.249497 
L 314.289009 93.192693 
L 315.703009 92.990771 
L 317.11701 93.775617 
L 318.53101 95.564474 
L 319.945011 96.530863 
L 321.359012 100.932418 
L 322.773012 103.148366 
L 324.187013 104.260881 
L 325.601014 105.092004 
L 328.429015 110.190978 
L 329.843016 114.078886 
L 331.257016 119.665784 
L 332.671017 122.336433 
L 334.085017 126.193993 
L 335.499018 127.45273 
L 336.913019 129.839576 
L 338.327019 133.844338 
L 339.74102 138.613247 
L 341.155021 144.152285 
L 342.569021 147.397691 
L 343.983022 153.892583 
L 345.397022 157.457099 
L 346.811023 162.176028 
L 348.225024 167.931421 
L 349.639024 171.998323 
L 353.881026 192.18834 
L 356.709028 204.5029 
L 362.36503 236.770627 
L 363.779031 243.457509 
L 365.193031 251.077665 
L 370.849034 295.347896 
L 372.263035 308.338473 
L 373.677035 318.945298 
L 375.091036 330.576925 
L 376.505036 339.490058 
L 377.919037 346.968466 
L 379.333038 352.29025 
L 380.747038 355.248453 
L 382.161039 357.907039 
L 383.57504 359.730023 
L 384.98904 360.783027 
L 386.403041 361.481641 
L 389.231042 362.209503 
L 392.059043 362.58248 
L 396.301045 362.805535 
L 403.371048 362.890664 
L 498.109091 362.884381 
L 498.109091 362.884381 
" style="fill:none;stroke:#000000;stroke-dasharray:1.5,2.475;stroke-dashoffset:0;stroke-width:1.5;"/>
   </g>
   <g id="patch_3">
    <path d="M 72 378 
L 72 51.84 
" style="fill:none;stroke:#000000;stroke-linecap:square;stroke-linejoin:miter;stroke-width:0.8;"/>
   </g>
   <g id="patch_4">
    <path d="M 518.4 378 
L 518.4 51.84 
" style="fill:none;stroke:#000000;stroke-linecap:square;stroke-linejoin:miter;stroke-width:0.8;"/>
   </g>
   <g id="patch_5">
    <path d="M 72 378 
L 518.4 378 
" style="fill:none;stroke:#000000;stroke-linecap:square;stroke-linejoin:miter;stroke-width:0.8;"/>
   </g>
   <g id="patch_6">
    <path d="M 72 51.84 
L 518.4 51.84 
" style="fill:none;stroke:#000000;stroke-linecap:square;stroke-linejoin:miter;stroke-width:0.8;"/>
   </g>
   <g id="legend_1">
    <g id="patch_7">
     <path d="M 408.935625 129.3075 
L 510 129.3075 
Q 512.4 129.3075 512.4 126.9075 
L 512.4 60.24 
Q 512.4 57.84 510 57.84 
L 408.935625 57.84 
Q 406.535625 57.84 406.535625 60.24 
L 406.535625 126.9075 
Q 406.535625 129.3075 408.935625 129.3075 
z
" style="fill:#ffffff;opacity:0.8;stroke:#cccccc;stroke-linejoin:miter;"/>
    </g>
    <g id="line2d_21">
     <path d="M 411.335625 66.84 
L 435.335625 66.84 
" style="fill:none;stroke:#000000;stroke-linecap:square;stroke-width:1.5;"/>
    </g>
    <g id="line2d_22"/>
    <g id="text_18">
     <!-- Real -->
     <defs>
      <path d="M 67.578125 0 
L 49.90625 0 
L 27.484375 30.953125 
Q 25 30.859375 23.4375 30.859375 
Q 22.796875 30.859375 22.0625 30.875 
Q 21.34375 30.90625 20.5625 30.953125 
L 20.5625 11.71875 
Q 20.5625 5.46875 21.921875 3.953125 
Q 23.78125 1.8125 27.484375 1.8125 
L 30.078125 1.8125 
L 30.078125 0 
L 1.703125 0 
L 1.703125 1.8125 
L 4.203125 1.8125 
Q 8.40625 1.8125 10.203125 4.546875 
Q 11.234375 6.0625 11.234375 11.71875 
L 11.234375 54.5 
Q 11.234375 60.75 9.859375 62.25 
Q 7.953125 64.40625 4.203125 64.40625 
L 1.703125 64.40625 
L 1.703125 66.21875 
L 25.828125 66.21875 
Q 36.375 66.21875 41.375 64.671875 
Q 46.390625 63.140625 49.875 59.015625 
Q 53.375 54.890625 53.375 49.171875 
Q 53.375 43.0625 49.390625 38.5625 
Q 45.40625 34.078125 37.0625 32.234375 
L 50.734375 13.234375 
Q 55.421875 6.6875 58.78125 4.53125 
Q 62.15625 2.390625 67.578125 1.8125 
z
M 20.5625 34.03125 
Q 21.484375 34.03125 22.171875 34 
Q 22.859375 33.984375 23.296875 33.984375 
Q 32.765625 33.984375 37.578125 38.078125 
Q 42.390625 42.1875 42.390625 48.53125 
Q 42.390625 54.734375 38.5 58.609375 
Q 34.625 62.5 28.21875 62.5 
Q 25.390625 62.5 20.5625 61.578125 
z
" id="TimesNewRomanPSMT-52"/>
      <path d="M 10.640625 27.875 
Q 10.59375 17.921875 15.484375 12.25 
Q 20.359375 6.59375 26.953125 6.59375 
Q 31.34375 6.59375 34.59375 9 
Q 37.84375 11.421875 40.046875 17.28125 
L 41.546875 16.3125 
Q 40.53125 9.625 35.59375 4.125 
Q 30.671875 -1.375 23.25 -1.375 
Q 15.1875 -1.375 9.453125 4.90625 
Q 3.71875 11.1875 3.71875 21.78125 
Q 3.71875 33.25 9.59375 39.671875 
Q 15.484375 46.09375 24.359375 46.09375 
Q 31.890625 46.09375 36.71875 41.140625 
Q 41.546875 36.1875 41.546875 27.875 
z
M 10.640625 30.71875 
L 31.34375 30.71875 
Q 31.109375 35.015625 30.328125 36.765625 
Q 29.109375 39.5 26.6875 41.0625 
Q 24.265625 42.625 21.625 42.625 
Q 17.578125 42.625 14.375 39.46875 
Q 11.1875 36.328125 10.640625 30.71875 
z
" id="TimesNewRomanPSMT-65"/>
      <path d="M 28.46875 6.453125 
Q 21.578125 1.125 19.828125 0.296875 
Q 17.1875 -0.921875 14.203125 -0.921875 
Q 9.578125 -0.921875 6.5625 2.25 
Q 3.5625 5.421875 3.5625 10.59375 
Q 3.5625 13.875 5.03125 16.265625 
Q 7.03125 19.578125 11.984375 22.5 
Q 16.9375 25.4375 28.46875 29.640625 
L 28.46875 31.390625 
Q 28.46875 38.09375 26.34375 40.578125 
Q 24.21875 43.0625 20.171875 43.0625 
Q 17.09375 43.0625 15.28125 41.40625 
Q 13.421875 39.75 13.421875 37.59375 
L 13.53125 34.765625 
Q 13.53125 32.515625 12.375 31.296875 
Q 11.234375 30.078125 9.375 30.078125 
Q 7.5625 30.078125 6.421875 31.34375 
Q 5.28125 32.625 5.28125 34.8125 
Q 5.28125 39.015625 9.578125 42.53125 
Q 13.875 46.046875 21.625 46.046875 
Q 27.59375 46.046875 31.390625 44.046875 
Q 34.28125 42.53125 35.640625 39.3125 
Q 36.53125 37.203125 36.53125 30.71875 
L 36.53125 15.53125 
Q 36.53125 9.125 36.765625 7.6875 
Q 37.015625 6.25 37.578125 5.765625 
Q 38.140625 5.28125 38.875 5.28125 
Q 39.65625 5.28125 40.234375 5.609375 
Q 41.265625 6.25 44.1875 9.1875 
L 44.1875 6.453125 
Q 38.71875 -0.875 33.734375 -0.875 
Q 31.34375 -0.875 29.921875 0.78125 
Q 28.515625 2.4375 28.46875 6.453125 
z
M 28.46875 9.625 
L 28.46875 26.65625 
Q 21.09375 23.734375 18.953125 22.515625 
Q 15.09375 20.359375 13.421875 18.015625 
Q 11.765625 15.671875 11.765625 12.890625 
Q 11.765625 9.375 13.859375 7.046875 
Q 15.96875 4.734375 18.703125 4.734375 
Q 22.40625 4.734375 28.46875 9.625 
z
" id="TimesNewRomanPSMT-61"/>
      <path d="M 18.5 69.4375 
L 18.5 10.109375 
Q 18.5 5.90625 19.109375 4.53125 
Q 19.734375 3.171875 21 2.46875 
Q 22.265625 1.765625 25.734375 1.765625 
L 25.734375 0 
L 3.8125 0 
L 3.8125 1.765625 
Q 6.890625 1.765625 8 2.390625 
Q 9.125 3.03125 9.765625 4.484375 
Q 10.40625 5.953125 10.40625 10.109375 
L 10.40625 50.734375 
Q 10.40625 58.296875 10.0625 60.03125 
Q 9.71875 61.765625 8.953125 62.390625 
Q 8.203125 63.03125 7.03125 63.03125 
Q 5.765625 63.03125 3.8125 62.25 
L 2.984375 63.96875 
L 16.3125 69.4375 
z
" id="TimesNewRomanPSMT-6c"/>
     </defs>
     <g transform="translate(444.935625 71.04)scale(0.12 -0.12)">
      <use xlink:href="#TimesNewRomanPSMT-52"/>
      <use x="66.699219" xlink:href="#TimesNewRomanPSMT-65"/>
      <use x="111.083984" xlink:href="#TimesNewRomanPSMT-61"/>
      <use x="155.46875" xlink:href="#TimesNewRomanPSMT-6c"/>
     </g>
    </g>
    <g id="line2d_23">
     <path d="M 411.335625 83.806875 
L 435.335625 83.806875 
" style="fill:none;stroke:#000000;stroke-dasharray:5.55,2.4;stroke-dashoffset:0;stroke-width:1.5;"/>
    </g>
    <g id="line2d_24"/>
    <g id="text_19">
     <!-- DNN -->
     <defs>
      <path d="M 1.703125 0 
L 1.703125 1.8125 
L 4.203125 1.8125 
Q 8.40625 1.8125 10.15625 4.5 
Q 11.234375 6.109375 11.234375 11.71875 
L 11.234375 54.5 
Q 11.234375 60.6875 9.859375 62.25 
Q 7.953125 64.40625 4.203125 64.40625 
L 1.703125 64.40625 
L 1.703125 66.21875 
L 28.65625 66.21875 
Q 43.5 66.21875 51.234375 62.84375 
Q 58.984375 59.46875 63.6875 51.609375 
Q 68.40625 43.75 68.40625 33.453125 
Q 68.40625 19.625 60.015625 10.359375 
Q 50.59375 0 31.296875 0 
z
M 20.609375 4.78125 
Q 26.8125 3.421875 31 3.421875 
Q 42.328125 3.421875 49.796875 11.375 
Q 57.28125 19.34375 57.28125 32.953125 
Q 57.28125 46.6875 49.796875 54.59375 
Q 42.328125 62.5 30.609375 62.5 
Q 26.21875 62.5 20.609375 61.078125 
z
" id="TimesNewRomanPSMT-44"/>
      <path d="M -1.3125 66.21875 
L 16.65625 66.21875 
L 57.125 16.546875 
L 57.125 54.734375 
Q 57.125 60.84375 55.765625 62.359375 
Q 53.953125 64.40625 50.046875 64.40625 
L 47.75 64.40625 
L 47.75 66.21875 
L 70.796875 66.21875 
L 70.796875 64.40625 
L 68.453125 64.40625 
Q 64.265625 64.40625 62.5 61.859375 
Q 61.421875 60.296875 61.421875 54.734375 
L 61.421875 -1.078125 
L 59.671875 -1.078125 
L 16.015625 52.25 
L 16.015625 11.46875 
Q 16.015625 5.375 17.328125 3.859375 
Q 19.1875 1.8125 23.046875 1.8125 
L 25.390625 1.8125 
L 25.390625 0 
L 2.34375 0 
L 2.34375 1.8125 
L 4.640625 1.8125 
Q 8.890625 1.8125 10.640625 4.34375 
Q 11.71875 5.90625 11.71875 11.46875 
L 11.71875 57.515625 
Q 8.84375 60.890625 7.34375 61.953125 
Q 5.859375 63.03125 2.984375 63.96875 
Q 1.5625 64.40625 -1.3125 64.40625 
z
" id="TimesNewRomanPSMT-4e"/>
     </defs>
     <g transform="translate(444.935625 88.006875)scale(0.12 -0.12)">
      <use xlink:href="#TimesNewRomanPSMT-44"/>
      <use x="72.216797" xlink:href="#TimesNewRomanPSMT-4e"/>
      <use x="144.433594" xlink:href="#TimesNewRomanPSMT-4e"/>
     </g>
    </g>
    <g id="line2d_25">
     <path d="M 411.335625 100.77375 
L 435.335625 100.77375 
" style="fill:none;stroke:#000000;stroke-dasharray:9.6,2.4,1.5,2.4;stroke-dashoffset:0;stroke-width:1.5;"/>
    </g>
    <g id="line2d_26"/>
    <g id="text_20">
     <!-- LSTM -->
     <defs>
      <path d="M 57.328125 18.3125 
L 58.9375 17.96875 
L 53.265625 0 
L 2 0 
L 2 1.8125 
L 4.5 1.8125 
Q 8.6875 1.8125 10.5 4.546875 
Q 11.53125 6.109375 11.53125 11.765625 
L 11.53125 54.5 
Q 11.53125 60.6875 10.15625 62.25 
Q 8.25 64.40625 4.5 64.40625 
L 2 64.40625 
L 2 66.21875 
L 31.984375 66.21875 
L 31.984375 64.40625 
Q 26.703125 64.453125 24.578125 63.421875 
Q 22.46875 62.40625 21.6875 60.84375 
Q 20.90625 59.28125 20.90625 53.375 
L 20.90625 11.765625 
Q 20.90625 7.71875 21.6875 6.203125 
Q 22.265625 5.171875 23.484375 4.6875 
Q 24.703125 4.203125 31.109375 4.203125 
L 35.9375 4.203125 
Q 43.5625 4.203125 46.625 5.328125 
Q 49.703125 6.453125 52.234375 9.296875 
Q 54.78125 12.15625 57.328125 18.3125 
z
" id="TimesNewRomanPSMT-4c"/>
      <path d="M 45.84375 67.71875 
L 45.84375 44.828125 
L 44.046875 44.828125 
Q 43.171875 51.421875 40.890625 55.328125 
Q 38.625 59.234375 34.421875 61.515625 
Q 30.21875 63.8125 25.734375 63.8125 
Q 20.65625 63.8125 17.328125 60.71875 
Q 14.015625 57.625 14.015625 53.65625 
Q 14.015625 50.640625 16.109375 48.140625 
Q 19.140625 44.484375 30.515625 38.375 
Q 39.796875 33.40625 43.1875 30.734375 
Q 46.578125 28.078125 48.40625 24.453125 
Q 50.25 20.84375 50.25 16.890625 
Q 50.25 9.375 44.40625 3.921875 
Q 38.578125 -1.515625 29.390625 -1.515625 
Q 26.515625 -1.515625 23.96875 -1.078125 
Q 22.46875 -0.828125 17.703125 0.703125 
Q 12.9375 2.25 11.671875 2.25 
Q 10.453125 2.25 9.734375 1.515625 
Q 9.03125 0.78125 8.6875 -1.515625 
L 6.890625 -1.515625 
L 6.890625 21.1875 
L 8.6875 21.1875 
Q 9.96875 14.0625 12.109375 10.515625 
Q 14.265625 6.984375 18.671875 4.640625 
Q 23.09375 2.296875 28.375 2.296875 
Q 34.46875 2.296875 38 5.515625 
Q 41.546875 8.734375 41.546875 13.140625 
Q 41.546875 15.578125 40.203125 18.0625 
Q 38.875 20.5625 36.03125 22.703125 
Q 34.125 24.171875 25.625 28.921875 
Q 17.140625 33.6875 13.546875 36.515625 
Q 9.96875 39.359375 8.109375 42.765625 
Q 6.25 46.1875 6.25 50.296875 
Q 6.25 57.421875 11.71875 62.5625 
Q 17.1875 67.71875 25.640625 67.71875 
Q 30.90625 67.71875 36.8125 65.140625 
Q 39.546875 63.921875 40.671875 63.921875 
Q 41.9375 63.921875 42.75 64.671875 
Q 43.5625 65.4375 44.046875 67.71875 
z
" id="TimesNewRomanPSMT-53"/>
      <path d="M 57.859375 66.21875 
L 58.59375 50.6875 
L 56.734375 50.6875 
Q 56.203125 54.78125 55.28125 56.546875 
Q 53.765625 59.375 51.25 60.71875 
Q 48.734375 62.0625 44.625 62.0625 
L 35.296875 62.0625 
L 35.296875 11.46875 
Q 35.296875 5.375 36.625 3.859375 
Q 38.484375 1.8125 42.328125 1.8125 
L 44.625 1.8125 
L 44.625 0 
L 16.546875 0 
L 16.546875 1.8125 
L 18.890625 1.8125 
Q 23.09375 1.8125 24.859375 4.34375 
Q 25.921875 5.90625 25.921875 11.46875 
L 25.921875 62.0625 
L 17.96875 62.0625 
Q 13.328125 62.0625 11.375 61.375 
Q 8.84375 60.453125 7.03125 57.8125 
Q 5.21875 55.171875 4.890625 50.6875 
L 3.03125 50.6875 
L 3.8125 66.21875 
z
" id="TimesNewRomanPSMT-54"/>
      <path d="M 40.921875 0 
L 15.328125 55.71875 
L 15.328125 11.46875 
Q 15.328125 5.375 16.65625 3.859375 
Q 18.453125 1.8125 22.359375 1.8125 
L 24.703125 1.8125 
L 24.703125 0 
L 1.65625 0 
L 1.65625 1.8125 
L 4 1.8125 
Q 8.203125 1.8125 9.96875 4.34375 
Q 11.03125 5.90625 11.03125 11.46875 
L 11.03125 54.734375 
Q 11.03125 59.125 10.0625 61.078125 
Q 9.375 62.5 7.546875 63.453125 
Q 5.71875 64.40625 1.65625 64.40625 
L 1.65625 66.21875 
L 20.40625 66.21875 
L 44.4375 14.40625 
L 68.0625 66.21875 
L 86.8125 66.21875 
L 86.8125 64.40625 
L 84.515625 64.40625 
Q 80.28125 64.40625 78.515625 61.859375 
Q 77.4375 60.296875 77.4375 54.734375 
L 77.4375 11.46875 
Q 77.4375 5.375 78.8125 3.859375 
Q 80.609375 1.8125 84.515625 1.8125 
L 86.8125 1.8125 
L 86.8125 0 
L 58.6875 0 
L 58.6875 1.8125 
L 61.03125 1.8125 
Q 65.28125 1.8125 67 4.34375 
Q 68.0625 5.90625 68.0625 11.46875 
L 68.0625 55.71875 
L 42.53125 0 
z
" id="TimesNewRomanPSMT-4d"/>
     </defs>
     <g transform="translate(444.935625 104.97375)scale(0.12 -0.12)">
      <use xlink:href="#TimesNewRomanPSMT-4c"/>
      <use x="61.083984" xlink:href="#TimesNewRomanPSMT-53"/>
      <use x="116.699219" xlink:href="#TimesNewRomanPSMT-54"/>
      <use x="177.783203" xlink:href="#TimesNewRomanPSMT-4d"/>
     </g>
    </g>
    <g id="line2d_27">
     <path d="M 411.335625 117.740625 
L 435.335625 117.740625 
" style="fill:none;stroke:#000000;stroke-dasharray:1.5,2.475;stroke-dashoffset:0;stroke-width:1.5;"/>
    </g>
    <g id="line2d_28"/>
    <g id="text_21">
     <!-- WPD-LSTM -->
     <defs>
      <path d="M 93.609375 66.21875 
L 93.609375 64.40625 
Q 91.015625 64.40625 89.40625 63.46875 
Q 87.796875 62.546875 86.328125 60.015625 
Q 85.359375 58.296875 83.25 51.859375 
L 64.796875 -1.515625 
L 62.84375 -1.515625 
L 47.75 40.828125 
L 32.765625 -1.515625 
L 31 -1.515625 
L 11.328125 53.46875 
Q 9.125 59.625 8.546875 60.75 
Q 7.5625 62.59375 5.875 63.5 
Q 4.203125 64.40625 1.3125 64.40625 
L 1.3125 66.21875 
L 25.828125 66.21875 
L 25.828125 64.40625 
L 24.65625 64.40625 
Q 22.078125 64.40625 20.703125 63.234375 
Q 19.34375 62.0625 19.34375 60.40625 
Q 19.34375 58.6875 21.484375 52.546875 
L 34.515625 15.375 
L 45.515625 46.96875 
L 43.5625 52.546875 
L 42 56.984375 
Q 40.96875 59.421875 39.703125 61.28125 
Q 39.0625 62.203125 38.140625 62.84375 
Q 36.921875 63.71875 35.6875 64.109375 
Q 34.765625 64.40625 32.765625 64.40625 
L 32.765625 66.21875 
L 58.546875 66.21875 
L 58.546875 64.40625 
L 56.78125 64.40625 
Q 54.046875 64.40625 52.78125 63.234375 
Q 51.515625 62.0625 51.515625 60.0625 
Q 51.515625 57.5625 53.71875 51.375 
L 66.40625 15.375 
L 79 51.859375 
Q 81.15625 57.90625 81.15625 60.25 
Q 81.15625 61.375 80.4375 62.34375 
Q 79.734375 63.328125 78.65625 63.71875 
Q 76.8125 64.40625 73.828125 64.40625 
L 73.828125 66.21875 
z
" id="TimesNewRomanPSMT-57"/>
      <path d="M 20.515625 31 
L 20.515625 11.71875 
Q 20.515625 5.46875 21.875 3.953125 
Q 23.734375 1.8125 27.484375 1.8125 
L 30.03125 1.8125 
L 30.03125 0 
L 1.65625 0 
L 1.65625 1.8125 
L 4.15625 1.8125 
Q 8.34375 1.8125 10.15625 4.546875 
Q 11.140625 6.0625 11.140625 11.71875 
L 11.140625 54.5 
Q 11.140625 60.75 9.8125 62.25 
Q 7.90625 64.40625 4.15625 64.40625 
L 1.65625 64.40625 
L 1.65625 66.21875 
L 25.921875 66.21875 
Q 34.8125 66.21875 39.9375 64.375 
Q 45.0625 62.546875 48.578125 58.203125 
Q 52.09375 53.859375 52.09375 47.90625 
Q 52.09375 39.796875 46.75 34.71875 
Q 41.40625 29.640625 31.640625 29.640625 
Q 29.25 29.640625 26.46875 29.984375 
Q 23.6875 30.328125 20.515625 31 
z
M 20.515625 33.796875 
Q 23.09375 33.296875 25.09375 33.046875 
Q 27.09375 32.8125 28.515625 32.8125 
Q 33.59375 32.8125 37.28125 36.734375 
Q 40.96875 40.671875 40.96875 46.921875 
Q 40.96875 51.21875 39.203125 54.90625 
Q 37.453125 58.59375 34.21875 60.421875 
Q 31 62.25 26.90625 62.25 
Q 24.421875 62.25 20.515625 61.328125 
z
" id="TimesNewRomanPSMT-50"/>
      <path d="M 4.046875 26.125 
L 29.296875 26.125 
L 29.296875 18.75 
L 4.046875 18.75 
z
" id="TimesNewRomanPSMT-2d"/>
     </defs>
     <g transform="translate(444.935625 121.940625)scale(0.12 -0.12)">
      <use xlink:href="#TimesNewRomanPSMT-57"/>
      <use x="94.384766" xlink:href="#TimesNewRomanPSMT-50"/>
      <use x="150" xlink:href="#TimesNewRomanPSMT-44"/>
      <use x="222.216797" xlink:href="#TimesNewRomanPSMT-2d"/>
      <use x="255.517578" xlink:href="#TimesNewRomanPSMT-4c"/>
      <use x="316.601562" xlink:href="#TimesNewRomanPSMT-53"/>
      <use x="372.216797" xlink:href="#TimesNewRomanPSMT-54"/>
      <use x="433.300781" xlink:href="#TimesNewRomanPSMT-4d"/>
     </g>
    </g>
   </g>
  </g>
 </g>
 <defs>
  <clipPath id="pad7360c98f">
   <rect height="326.16" width="446.4" x="72" y="51.84"/>
  </clipPath>
 </defs>
</svg>
