<?xml version="1.0" encoding="utf-8" standalone="no"?>
<!DOCTYPE svg PUBLIC "-//W3C//DTD SVG 1.1//EN"
  "http://www.w3.org/Graphics/SVG/1.1/DTD/svg11.dtd">
<!-- Created with matplotlib (http://matplotlib.org/) -->
<svg height="324pt" version="1.1" viewBox="0 0 432 324" width="432pt" xmlns="http://www.w3.org/2000/svg" xmlns:xlink="http://www.w3.org/1999/xlink">
 <defs>
  <style type="text/css">
*{stroke-linecap:butt;stroke-linejoin:round;}
  </style>
 </defs>
 <g id="figure_1">
  <g id="patch_1">
   <path d="M 0 324 
L 432 324 
L 432 0 
L 0 0 
z
" style="fill:#ffffff;"/>
  </g>
  <g id="axes_1">
   <g id="patch_2">
    <path d="M 54 283.5 
L 388.8 283.5 
L 388.8 38.88 
L 54 38.88 
z
" style="fill:#ffffff;"/>
   </g>
   <g id="matplotlib.axis_1">
    <g id="xtick_1">
     <g id="line2d_1">
      <defs>
       <path d="M 0 0 
L 0 3.5 
" id="m76e7e3a2d8" style="stroke:#000000;stroke-width:0.8;"/>
      </defs>
      <g>
       <use style="stroke:#000000;stroke-width:0.8;" x="69.218182" xlink:href="#m76e7e3a2d8" y="283.5"/>
      </g>
     </g>
     <g id="text_1">
      <!-- 00:00 -->
      <defs>
       <path d="M 3.125 29.296875 
Q 3.90625 50 6.4375 56.046875 
Q 8.984375 62.109375 13.671875 66.015625 
Q 18.359375 69.921875 25.1875 69.921875 
Q 32.03125 69.921875 37.109375 64.25 
Q 42.1875 58.59375 43.75 50 
Q 45.3125 41.40625 44.71875 30.265625 
Q 44.140625 19.140625 40.8125 12.109375 
Q 37.5 5.078125 30.859375 2.34375 
Q 24.21875 -0.390625 17.578125 2.921875 
Q 10.9375 6.25 8.203125 11.71875 
Q 5.46875 17.1875 4.296875 23.234375 
Q 3.125 29.296875 3.90625 50 
z
M 12.890625 52.734375 
Q 10.546875 31.25 12.5 22.84375 
Q 14.453125 14.453125 18.9375 10.9375 
Q 23.4375 7.421875 28.125 9.5625 
Q 32.8125 11.71875 34.953125 18.15625 
Q 37.109375 24.609375 37.109375 32.21875 
Q 37.109375 39.84375 36.515625 46.09375 
Q 35.9375 52.34375 33 57.421875 
Q 30.078125 62.5 25.1875 62.6875 
Q 20.3125 62.890625 16.59375 57.8125 
Q 12.890625 52.734375 10.546875 31.25 
z
" id="SimHei-30"/>
       <path d="M 28.515625 37.890625 
L 19.53125 37.890625 
L 19.53125 46.484375 
L 28.515625 46.484375 
z
M 28.515625 1.953125 
L 19.53125 1.953125 
L 19.53125 10.546875 
L 28.515625 10.546875 
z
" id="SimHei-3a"/>
      </defs>
      <g transform="translate(52.968182 299.4375)scale(0.13 -0.13)">
       <use xlink:href="#SimHei-30"/>
       <use x="50" xlink:href="#SimHei-30"/>
       <use x="100" xlink:href="#SimHei-3a"/>
       <use x="150" xlink:href="#SimHei-30"/>
       <use x="200" xlink:href="#SimHei-30"/>
      </g>
     </g>
    </g>
    <g id="xtick_2">
     <g id="line2d_2">
      <g>
       <use style="stroke:#000000;stroke-width:0.8;" x="122.243206" xlink:href="#m76e7e3a2d8" y="283.5"/>
      </g>
     </g>
     <g id="text_2">
      <!-- 04:00 -->
      <defs>
       <path d="M 31.25 17.1875 
L 1.171875 17.1875 
L 1.171875 23.828125 
L 32.8125 69.53125 
L 38.671875 69.53125 
L 38.671875 23.828125 
L 48.046875 23.828125 
L 48.046875 17.1875 
L 38.671875 17.1875 
L 38.671875 2.34375 
L 31.25 2.34375 
z
M 31.25 23.828125 
L 31.25 54.6875 
L 9.375 23.828125 
z
" id="SimHei-34"/>
      </defs>
      <g transform="translate(105.993206 299.4375)scale(0.13 -0.13)">
       <use xlink:href="#SimHei-30"/>
       <use x="50" xlink:href="#SimHei-34"/>
       <use x="100" xlink:href="#SimHei-3a"/>
       <use x="150" xlink:href="#SimHei-30"/>
       <use x="200" xlink:href="#SimHei-30"/>
      </g>
     </g>
    </g>
    <g id="xtick_3">
     <g id="line2d_3">
      <g>
       <use style="stroke:#000000;stroke-width:0.8;" x="175.268229" xlink:href="#m76e7e3a2d8" y="283.5"/>
      </g>
     </g>
     <g id="text_3">
      <!-- 8:00 -->
      <defs>
       <path d="M 2.734375 16.796875 
Q 2.734375 26.171875 5.078125 30.65625 
Q 7.421875 35.15625 12.890625 37.890625 
Q 8.203125 40.625 6.640625 43.9375 
Q 5.078125 47.265625 4.875 51.5625 
Q 4.6875 55.859375 6.046875 58.984375 
Q 7.421875 62.109375 10.15625 64.84375 
Q 12.890625 67.578125 16.203125 68.546875 
Q 19.53125 69.53125 23.4375 69.53125 
Q 27.34375 69.53125 30.46875 68.75 
Q 33.59375 67.96875 37.109375 65.421875 
Q 40.625 62.890625 42.1875 58.203125 
Q 43.75 53.515625 41.984375 47.265625 
Q 40.234375 41.015625 32.8125 37.5 
Q 39.453125 35.546875 42.1875 31.4375 
Q 44.921875 27.34375 44.921875 21.484375 
Q 44.921875 15.625 43.15625 12.109375 
Q 41.40625 8.59375 39.25 6.25 
Q 37.109375 3.90625 33.390625 2.53125 
Q 29.6875 1.171875 24.015625 1.171875 
Q 18.359375 1.171875 14.25 2.53125 
Q 10.15625 3.90625 7.421875 6.640625 
Q 4.6875 9.375 3.703125 13.078125 
Q 2.734375 16.796875 2.734375 26.171875 
z
M 10.9375 26.5625 
Q 10.546875 17.1875 12.296875 13.671875 
Q 14.0625 10.15625 18.75 9.171875 
Q 23.4375 8.203125 28.515625 9.375 
Q 33.59375 10.546875 35.546875 14.84375 
Q 37.5 19.140625 36.90625 23.4375 
Q 36.328125 27.734375 32.03125 30.65625 
Q 27.734375 33.59375 22.65625 33.203125 
Q 17.578125 32.8125 14.25 29.6875 
Q 10.9375 26.5625 10.546875 17.1875 
z
M 12.109375 56.25 
Q 12.109375 48.4375 14.84375 44.921875 
Q 17.578125 41.40625 23.4375 41.40625 
Q 29.296875 41.40625 32.21875 44.921875 
Q 35.15625 48.4375 34.953125 53.3125 
Q 34.765625 58.203125 31.4375 60.546875 
Q 28.125 62.890625 22.453125 62.5 
Q 16.796875 62.109375 14.453125 59.171875 
Q 12.109375 56.25 12.109375 48.4375 
z
" id="SimHei-38"/>
      </defs>
      <g transform="translate(162.268229 299.4375)scale(0.13 -0.13)">
       <use xlink:href="#SimHei-38"/>
       <use x="50" xlink:href="#SimHei-3a"/>
       <use x="100" xlink:href="#SimHei-30"/>
       <use x="150" xlink:href="#SimHei-30"/>
      </g>
     </g>
    </g>
    <g id="xtick_4">
     <g id="line2d_4">
      <g>
       <use style="stroke:#000000;stroke-width:0.8;" x="228.293253" xlink:href="#m76e7e3a2d8" y="283.5"/>
      </g>
     </g>
     <g id="text_4">
      <!-- 12:00 -->
      <defs>
       <path d="M 21.875 56.25 
Q 16.796875 51.171875 8.984375 46.484375 
L 8.984375 53.90625 
Q 18.75 60.546875 25 69.53125 
L 29.6875 69.53125 
L 29.6875 2.34375 
L 21.875 2.34375 
z
" id="SimHei-31"/>
       <path d="M 4.6875 3.90625 
Q 5.078125 9.765625 10.15625 14.453125 
Q 15.234375 19.140625 23.046875 29.09375 
Q 30.859375 39.0625 33.203125 44.53125 
Q 35.546875 50 34.953125 53.90625 
Q 34.375 57.8125 31.25 60.34375 
Q 28.125 62.890625 24.015625 62.5 
Q 19.921875 62.109375 16.203125 59.375 
Q 12.5 56.640625 10.546875 51.171875 
L 3.125 52.34375 
Q 6.25 61.328125 11.125 65.421875 
Q 16.015625 69.53125 22.65625 69.921875 
Q 26.5625 70.3125 29.6875 69.71875 
Q 32.8125 69.140625 36.125 66.984375 
Q 39.453125 64.84375 41.59375 60.546875 
Q 43.75 56.25 43.15625 50.1875 
Q 42.578125 44.140625 37.109375 35.734375 
Q 31.640625 27.34375 16.015625 9.375 
L 44.140625 9.375 
L 44.140625 2.34375 
L 4.6875 2.34375 
z
" id="SimHei-32"/>
      </defs>
      <g transform="translate(212.043253 299.4375)scale(0.13 -0.13)">
       <use xlink:href="#SimHei-31"/>
       <use x="50" xlink:href="#SimHei-32"/>
       <use x="100" xlink:href="#SimHei-3a"/>
       <use x="150" xlink:href="#SimHei-30"/>
       <use x="200" xlink:href="#SimHei-30"/>
      </g>
     </g>
    </g>
    <g id="xtick_5">
     <g id="line2d_5">
      <g>
       <use style="stroke:#000000;stroke-width:0.8;" x="281.318277" xlink:href="#m76e7e3a2d8" y="283.5"/>
      </g>
     </g>
     <g id="text_5">
      <!-- 16:00 -->
      <defs>
       <path d="M 3.515625 19.53125 
Q 4.296875 30.859375 6.046875 34.765625 
Q 7.8125 38.671875 11.328125 44.53125 
L 27.34375 69.53125 
L 36.328125 69.53125 
L 19.921875 43.75 
Q 30.46875 46.484375 36.71875 42.96875 
Q 42.96875 39.453125 45.109375 34.953125 
Q 47.265625 30.46875 47.453125 25.1875 
Q 47.65625 19.921875 45.890625 14.84375 
Q 44.140625 9.765625 39.640625 5.65625 
Q 35.15625 1.5625 27.140625 1.171875 
Q 19.140625 0.78125 13.46875 4.09375 
Q 7.8125 7.421875 5.65625 13.46875 
Q 3.515625 19.53125 4.296875 30.859375 
z
M 12.5 16.015625 
Q 19.53125 8.59375 25.390625 8.203125 
Q 31.25 7.8125 35.15625 12.109375 
Q 39.0625 16.40625 39.0625 24.609375 
Q 39.0625 32.8125 34.171875 35.9375 
Q 29.296875 39.0625 23.234375 38.28125 
Q 17.1875 37.5 14.453125 32.421875 
Q 11.71875 27.34375 12.109375 21.671875 
Q 12.5 16.015625 19.53125 8.59375 
z
" id="SimHei-36"/>
      </defs>
      <g transform="translate(265.068277 299.4375)scale(0.13 -0.13)">
       <use xlink:href="#SimHei-31"/>
       <use x="50" xlink:href="#SimHei-36"/>
       <use x="100" xlink:href="#SimHei-3a"/>
       <use x="150" xlink:href="#SimHei-30"/>
       <use x="200" xlink:href="#SimHei-30"/>
      </g>
     </g>
    </g>
    <g id="xtick_6">
     <g id="line2d_6">
      <g>
       <use style="stroke:#000000;stroke-width:0.8;" x="334.343301" xlink:href="#m76e7e3a2d8" y="283.5"/>
      </g>
     </g>
     <g id="text_6">
      <!-- 20:00 -->
      <g transform="translate(318.093301 299.4375)scale(0.13 -0.13)">
       <use xlink:href="#SimHei-32"/>
       <use x="50" xlink:href="#SimHei-30"/>
       <use x="100" xlink:href="#SimHei-3a"/>
       <use x="150" xlink:href="#SimHei-30"/>
       <use x="200" xlink:href="#SimHei-30"/>
      </g>
     </g>
    </g>
    <g id="xtick_7">
     <g id="line2d_7">
      <g>
       <use style="stroke:#000000;stroke-width:0.8;" x="387.368324" xlink:href="#m76e7e3a2d8" y="283.5"/>
      </g>
     </g>
    </g>
    <g id="text_7">
     <!-- 时刻 -->
     <defs>
      <path d="M 39.453125 71.484375 
Q 39.0625 57.421875 39.0625 37.5 
Q 39.0625 17.578125 39.453125 6.25 
L 31.25 6.25 
L 31.25 13.671875 
L 15.625 13.671875 
L 15.625 0.78125 
L 7.421875 0.78125 
Q 7.8125 18.75 7.8125 36.71875 
Q 7.8125 55.078125 7.421875 71.484375 
L 39.453125 71.484375 
z
M 76.171875 59.765625 
Q 76.171875 71.484375 75.78125 81.640625 
L 84.375 81.640625 
Q 83.984375 71.484375 83.984375 59.765625 
Q 89.84375 59.765625 96.484375 60.15625 
L 96.484375 52.734375 
Q 89.84375 53.125 83.984375 53.125 
L 83.984375 0.78125 
Q 83.984375 -5.078125 79.296875 -6.640625 
Q 74.609375 -8.203125 67.1875 -8.984375 
Q 67.1875 -4.296875 62.890625 0 
Q 70.3125 -0.78125 73.234375 -0.390625 
Q 76.171875 0 76.171875 4.6875 
L 76.171875 53.125 
Q 56.640625 53.125 43.359375 52.734375 
L 43.359375 60.15625 
Q 55.859375 59.765625 76.171875 59.765625 
z
M 31.25 20.3125 
L 31.25 39.84375 
L 15.625 39.84375 
L 15.625 20.3125 
z
M 31.25 46.484375 
L 31.25 64.84375 
L 15.625 64.84375 
L 15.625 46.484375 
z
M 55.46875 42.578125 
Q 60.546875 34.375 65.234375 25 
Q 61.328125 23.828125 57.03125 21.484375 
Q 53.90625 30.859375 48.046875 39.0625 
Q 51.5625 40.625 55.46875 42.578125 
z
" id="SimHei-65f6"/>
      <path d="M 45.3125 66.40625 
Q 52.34375 66.40625 58.984375 67.1875 
L 58.984375 59.375 
Q 53.515625 59.765625 45.3125 59.765625 
L 27.34375 59.765625 
Q 30.078125 57.421875 33.984375 55.46875 
Q 30.078125 53.90625 26.359375 49.40625 
Q 22.65625 44.921875 17.578125 40.625 
Q 23.046875 41.015625 26.953125 41.203125 
Q 30.859375 41.40625 35.9375 41.796875 
Q 38.28125 43.75 40.03125 46.28125 
Q 41.796875 48.828125 43.75 52.734375 
Q 47.265625 50 51.953125 47.265625 
Q 48.828125 44.921875 44.921875 40.234375 
Q 41.015625 35.546875 35.734375 30.265625 
Q 30.46875 25 24.40625 19.71875 
Q 18.359375 14.453125 10.15625 8.984375 
Q 7.8125 13.28125 4.296875 16.015625 
Q 11.71875 19.140625 18.546875 24.40625 
Q 25.390625 29.6875 32.03125 35.9375 
Q 22.65625 34.765625 17.96875 33.78125 
Q 13.28125 32.8125 10.9375 31.640625 
Q 8.984375 36.328125 6.25 39.84375 
Q 12.5 43.75 16.984375 49.21875 
Q 21.484375 54.6875 23.828125 59.765625 
L 17.1875 59.765625 
Q 10.15625 59.765625 3.515625 59.375 
L 3.515625 67.1875 
Q 10.15625 66.40625 16.796875 66.40625 
z
M 94.921875 79.6875 
Q 94.140625 74.21875 94.140625 66.40625 
L 94.140625 1.5625 
Q 94.140625 -4.296875 91.203125 -6.046875 
Q 88.28125 -7.8125 77.734375 -9.375 
Q 76.5625 -3.125 74.21875 0.390625 
Q 82.03125 0 83.984375 0.390625 
Q 85.9375 0.78125 85.9375 4.6875 
L 85.9375 66.40625 
Q 85.9375 72.265625 85.546875 79.6875 
L 94.921875 79.6875 
z
M 58.984375 30.46875 
Q 57.03125 28.90625 53.703125 25.1875 
Q 50.390625 21.484375 45.3125 16.015625 
Q 49.609375 13.28125 53.703125 9.765625 
Q 57.8125 6.25 62.5 2.34375 
Q 60.15625 0 55.078125 -3.90625 
Q 51.953125 0 48.625 3.703125 
Q 45.3125 7.421875 40.625 10.9375 
Q 32.03125 3.90625 25.578125 -0.1875 
Q 19.140625 -4.296875 10.546875 -10.15625 
Q 8.59375 -5.078125 5.078125 -2.734375 
Q 15.234375 1.5625 22.84375 6.828125 
Q 30.46875 12.109375 36.125 17.375 
Q 41.796875 22.65625 44.921875 26.953125 
Q 48.046875 31.25 50.390625 35.9375 
L 58.984375 30.46875 
z
M 74.609375 65.625 
Q 74.21875 60.15625 74.21875 53.90625 
L 74.21875 25 
Q 74.21875 18.75 75 12.109375 
L 65.234375 12.109375 
Q 66.015625 17.578125 66.015625 25 
L 66.015625 55.078125 
Q 66.015625 60.546875 65.625 65.625 
L 74.609375 65.625 
z
M 33.203125 82.8125 
Q 34.765625 79.6875 36.125 76.75 
Q 37.5 73.828125 39.0625 70.3125 
Q 35.15625 69.140625 30.46875 67.1875 
Q 29.296875 71.09375 27.921875 73.828125 
Q 26.5625 76.5625 25 79.296875 
Q 29.6875 80.859375 33.203125 82.8125 
z
" id="SimHei-523b"/>
     </defs>
     <g transform="translate(208.4 315.523438)scale(0.13 -0.13)">
      <use xlink:href="#SimHei-65f6"/>
      <use x="100" xlink:href="#SimHei-523b"/>
     </g>
    </g>
   </g>
   <g id="matplotlib.axis_2">
    <g id="ytick_1">
     <g id="line2d_8">
      <defs>
       <path d="M 0 0 
L -3.5 0 
" id="m5f7163b511" style="stroke:#000000;stroke-width:0.8;"/>
      </defs>
      <g>
       <use style="stroke:#000000;stroke-width:0.8;" x="54" xlink:href="#m5f7163b511" y="272.021453"/>
      </g>
     </g>
     <g id="text_8">
      <!-- 0.0 -->
      <defs>
       <path d="M 16.796875 1.953125 
L 7.8125 1.953125 
L 7.8125 10.546875 
L 16.796875 10.546875 
z
" id="SimHei-2e"/>
      </defs>
      <g transform="translate(27.5 276.490203)scale(0.13 -0.13)">
       <use xlink:href="#SimHei-30"/>
       <use x="50" xlink:href="#SimHei-2e"/>
       <use x="100" xlink:href="#SimHei-30"/>
      </g>
     </g>
    </g>
    <g id="ytick_2">
     <g id="line2d_9">
      <g>
       <use style="stroke:#000000;stroke-width:0.8;" x="54" xlink:href="#m5f7163b511" y="230.35424"/>
      </g>
     </g>
     <g id="text_9">
      <!-- 0.5 -->
      <defs>
       <path d="M 8.59375 20.703125 
Q 11.328125 10.15625 17.96875 8.984375 
Q 24.609375 7.8125 28.703125 10.34375 
Q 32.8125 12.890625 34.5625 16.984375 
Q 36.328125 21.09375 36.125 26.171875 
Q 35.9375 31.25 33.390625 34.765625 
Q 30.859375 38.28125 26.953125 39.453125 
Q 23.046875 40.625 18.15625 39.453125 
Q 13.28125 38.28125 10.15625 33.984375 
L 3.515625 34.765625 
Q 4.296875 37.109375 10.9375 68.359375 
L 41.796875 68.359375 
L 41.796875 61.328125 
L 16.796875 61.328125 
Q 14.84375 50.78125 12.890625 44.53125 
Q 18.75 47.265625 23.828125 47.0625 
Q 28.90625 46.875 33.59375 44.71875 
Q 38.28125 42.578125 40.421875 38.859375 
Q 42.578125 35.15625 43.546875 31.4375 
Q 44.53125 27.734375 44.328125 23.4375 
Q 44.140625 19.140625 42.578125 14.640625 
Q 41.015625 10.15625 37.890625 7.21875 
Q 34.765625 4.296875 30.265625 2.53125 
Q 25.78125 0.78125 19.921875 1.171875 
Q 14.0625 1.5625 8.78125 5.46875 
Q 3.515625 9.375 1.5625 18.75 
z
" id="SimHei-35"/>
      </defs>
      <g transform="translate(27.5 234.82299)scale(0.13 -0.13)">
       <use xlink:href="#SimHei-30"/>
       <use x="50" xlink:href="#SimHei-2e"/>
       <use x="100" xlink:href="#SimHei-35"/>
      </g>
     </g>
    </g>
    <g id="ytick_3">
     <g id="line2d_10">
      <g>
       <use style="stroke:#000000;stroke-width:0.8;" x="54" xlink:href="#m5f7163b511" y="188.687027"/>
      </g>
     </g>
     <g id="text_10">
      <!-- 1.0 -->
      <g transform="translate(27.5 193.155777)scale(0.13 -0.13)">
       <use xlink:href="#SimHei-31"/>
       <use x="50" xlink:href="#SimHei-2e"/>
       <use x="100" xlink:href="#SimHei-30"/>
      </g>
     </g>
    </g>
    <g id="ytick_4">
     <g id="line2d_11">
      <g>
       <use style="stroke:#000000;stroke-width:0.8;" x="54" xlink:href="#m5f7163b511" y="147.019813"/>
      </g>
     </g>
     <g id="text_11">
      <!-- 1.5 -->
      <g transform="translate(27.5 151.488563)scale(0.13 -0.13)">
       <use xlink:href="#SimHei-31"/>
       <use x="50" xlink:href="#SimHei-2e"/>
       <use x="100" xlink:href="#SimHei-35"/>
      </g>
     </g>
    </g>
    <g id="ytick_5">
     <g id="line2d_12">
      <g>
       <use style="stroke:#000000;stroke-width:0.8;" x="54" xlink:href="#m5f7163b511" y="105.3526"/>
      </g>
     </g>
     <g id="text_12">
      <!-- 2.0 -->
      <g transform="translate(27.5 109.82135)scale(0.13 -0.13)">
       <use xlink:href="#SimHei-32"/>
       <use x="50" xlink:href="#SimHei-2e"/>
       <use x="100" xlink:href="#SimHei-30"/>
      </g>
     </g>
    </g>
    <g id="ytick_6">
     <g id="line2d_13">
      <g>
       <use style="stroke:#000000;stroke-width:0.8;" x="54" xlink:href="#m5f7163b511" y="63.685387"/>
      </g>
     </g>
     <g id="text_13">
      <!-- 2.5 -->
      <g transform="translate(27.5 68.154137)scale(0.13 -0.13)">
       <use xlink:href="#SimHei-32"/>
       <use x="50" xlink:href="#SimHei-2e"/>
       <use x="100" xlink:href="#SimHei-35"/>
      </g>
     </g>
    </g>
    <g id="text_14">
     <!-- 功率(千瓦) -->
     <defs>
      <path d="M 88.671875 4.296875 
Q 87.109375 -3.125 81.640625 -4.875 
Q 76.171875 -6.640625 69.53125 -7.421875 
Q 68.75 -2.734375 65.625 1.5625 
Q 73.828125 1.171875 77.140625 2.140625 
Q 80.46875 3.125 80.859375 6.640625 
Q 82.8125 27.734375 83.984375 51.171875 
L 66.40625 51.171875 
Q 66.015625 39.84375 64.453125 30.078125 
Q 62.890625 20.3125 59.171875 13.28125 
Q 55.46875 6.25 50.78125 0.78125 
Q 46.09375 -4.6875 39.84375 -10.15625 
Q 37.109375 -6.25 32.8125 -3.90625 
Q 41.40625 1.5625 45.703125 6.640625 
Q 50 11.71875 53.125 18.15625 
Q 56.25 24.609375 57.421875 32.421875 
Q 58.59375 40.234375 58.984375 51.171875 
L 53.125 51.171875 
Q 48.4375 51.171875 43.75 50.78125 
L 43.75 58.203125 
Q 48.828125 57.8125 53.90625 57.8125 
L 58.984375 57.8125 
L 58.984375 71.484375 
Q 58.984375 76.171875 58.59375 80.859375 
Q 63.671875 79.6875 67.578125 79.296875 
Q 66.796875 76.5625 66.59375 70.703125 
Q 66.40625 64.84375 66.40625 57.8125 
L 92.1875 57.8125 
Q 91.796875 52.34375 91.40625 47.453125 
Q 91.015625 42.578125 88.671875 4.296875 
z
M 45.3125 15.625 
Q 38.671875 14.0625 34.375 13.078125 
Q 30.078125 12.109375 20.890625 9.375 
Q 11.71875 6.640625 7.8125 5.46875 
Q 6.25 10.9375 4.6875 14.0625 
Q 7.03125 14.0625 21.484375 17.1875 
L 21.484375 60.9375 
L 18.359375 60.9375 
Q 13.671875 60.9375 7.03125 60.546875 
L 7.03125 67.96875 
Q 13.28125 67.578125 18.359375 67.578125 
L 32.8125 67.578125 
Q 38.28125 67.578125 42.578125 67.96875 
L 42.578125 60.546875 
Q 37.890625 60.9375 33.203125 60.9375 
L 29.296875 60.9375 
L 29.296875 18.75 
L 37.109375 20.703125 
Q 40.234375 21.484375 44.53125 22.65625 
z
" id="SimHei-529f"/>
      <path d="M 51.953125 80.46875 
Q 53.515625 76.5625 55.46875 70.703125 
L 75 70.703125 
Q 82.03125 70.703125 90.625 71.09375 
L 90.625 64.453125 
Q 82.03125 65.234375 74.609375 65.234375 
L 43.75 65.234375 
Q 46.484375 63.28125 51.5625 60.9375 
Q 48.046875 58.59375 44.921875 55.265625 
Q 41.796875 51.953125 38.671875 48.828125 
L 51.171875 48.828125 
Q 55.859375 53.515625 58.984375 58.984375 
Q 62.5 56.25 66.796875 53.515625 
Q 61.71875 50.78125 56.25 44.921875 
Q 50.78125 39.0625 41.015625 31.25 
L 60.15625 32.8125 
Q 58.203125 35.15625 56.25 37.890625 
Q 58.59375 38.671875 62.5 41.40625 
Q 66.40625 36.71875 73.4375 26.5625 
Q 69.921875 25.390625 66.015625 22.65625 
Q 65.234375 25 62.890625 27.734375 
Q 57.8125 27.34375 53.515625 27.34375 
L 53.515625 16.40625 
L 80.46875 16.40625 
Q 88.671875 16.40625 95.3125 16.796875 
L 95.3125 10.15625 
Q 89.0625 10.546875 80.078125 10.546875 
L 53.515625 10.546875 
L 53.515625 2.734375 
Q 53.515625 -4.6875 53.90625 -9.765625 
L 45.3125 -9.765625 
Q 45.703125 -4.6875 45.703125 2.734375 
L 45.703125 10.546875 
L 20.703125 10.546875 
Q 12.890625 10.546875 5.078125 10.15625 
L 5.078125 16.796875 
Q 12.890625 16.40625 21.09375 16.40625 
L 45.703125 16.40625 
L 45.703125 26.5625 
Q 42.1875 26.171875 38.671875 25.578125 
Q 35.15625 25 31.640625 23.828125 
Q 30.46875 27.734375 28.90625 31.25 
Q 32.421875 31.640625 36.328125 34.375 
Q 40.234375 37.109375 46.484375 43.75 
Q 35.9375 42.578125 31.640625 41.015625 
Q 30.859375 44.921875 28.90625 49.609375 
Q 32.421875 49.609375 36.328125 54.484375 
Q 40.234375 59.375 42.96875 65.234375 
L 26.5625 65.234375 
Q 17.96875 65.234375 10.15625 64.453125 
L 10.15625 71.09375 
Q 17.96875 70.703125 24.21875 70.703125 
L 46.484375 70.703125 
Q 45.3125 75.390625 43.75 78.515625 
Q 47.265625 79.296875 51.953125 80.46875 
z
M 25.390625 40.234375 
Q 26.953125 37.5 28.515625 34.375 
Q 24.609375 32.03125 20.703125 29.09375 
Q 16.796875 26.171875 12.5 22.265625 
Q 9.765625 26.171875 7.421875 29.296875 
Q 12.5 31.640625 17.1875 34.5625 
Q 21.875 37.5 25.390625 40.234375 
z
M 75.78125 41.40625 
Q 80.078125 38.671875 83.390625 36.515625 
Q 86.71875 34.375 91.796875 30.46875 
Q 88.671875 28.125 85.9375 25 
Q 82.8125 27.734375 79.09375 30.859375 
Q 75.390625 33.984375 71.484375 36.328125 
Q 73.828125 38.671875 75.78125 41.40625 
z
M 89.453125 55.078125 
Q 86.71875 53.90625 82.8125 50.96875 
Q 78.90625 48.046875 75 44.140625 
Q 72.265625 47.65625 69.921875 49.609375 
Q 73.4375 51.953125 76.171875 54.484375 
Q 78.90625 57.03125 82.8125 61.328125 
Q 86.328125 57.8125 89.453125 55.078125 
z
M 16.40625 60.15625 
Q 22.265625 56.25 27.734375 51.171875 
Q 24.609375 48.4375 22.265625 45.703125 
Q 16.796875 51.5625 10.546875 55.078125 
Q 13.671875 57.8125 16.40625 60.15625 
z
" id="SimHei-7387"/>
      <path d="M 46.484375 -3.125 
L 42.1875 -7.421875 
Q 32.421875 1.953125 27.53125 12.109375 
Q 22.65625 22.265625 22.65625 35.15625 
Q 22.65625 48.046875 27.53125 58.203125 
Q 32.421875 68.359375 42.1875 78.125 
L 46.484375 73.828125 
Q 37.5 65.234375 33 56.046875 
Q 28.515625 46.875 28.515625 35.15625 
Q 28.515625 23.4375 33 14.25 
Q 37.5 5.078125 46.484375 -3.125 
z
" id="SimHei-28"/>
      <path d="M 11.71875 70.703125 
Q 33.59375 71.875 49.796875 74.21875 
Q 66.015625 76.5625 76.171875 81.640625 
Q 78.515625 76.171875 82.03125 72.265625 
Q 77.34375 72.265625 69.140625 70.890625 
Q 60.9375 69.53125 53.515625 68.359375 
L 53.515625 40.234375 
L 79.6875 40.234375 
Q 86.328125 40.234375 93.75 40.625 
L 93.75 33.203125 
Q 85.9375 33.59375 79.6875 33.59375 
L 53.515625 33.59375 
L 53.515625 6.640625 
Q 53.515625 -1.171875 53.90625 -9.765625 
L 45.3125 -9.765625 
Q 45.703125 -1.171875 45.703125 6.25 
L 45.703125 33.59375 
L 19.921875 33.59375 
Q 12.890625 33.59375 5.859375 33.203125 
L 5.859375 40.625 
Q 13.671875 40.234375 19.921875 40.234375 
L 45.703125 40.234375 
L 45.703125 66.796875 
Q 40.234375 66.015625 32.609375 65.234375 
Q 25 64.453125 16.015625 63.28125 
Q 14.84375 67.96875 11.71875 70.703125 
z
" id="SimHei-5343"/>
      <path d="M 75.78125 73.046875 
Q 82.8125 73.046875 91.015625 73.4375 
L 91.015625 66.015625 
Q 82.8125 66.40625 76.953125 66.40625 
L 36.71875 66.40625 
L 34.765625 51.953125 
L 72.65625 51.953125 
Q 72.265625 46.875 71.484375 36.328125 
L 69.921875 7.421875 
Q 68.75 1.953125 73.828125 -0.78125 
L 80.46875 -0.78125 
Q 84.375 -0.78125 85.15625 1.171875 
Q 85.9375 3.125 86.71875 12.109375 
Q 91.015625 9.375 95.703125 8.203125 
Q 93.359375 -0.390625 91.59375 -3.90625 
Q 89.84375 -7.421875 83.59375 -7.421875 
L 71.875 -7.421875 
Q 61.328125 -7.8125 62.109375 3.90625 
L 64.453125 45.3125 
L 33.984375 45.3125 
L 27.34375 4.296875 
Q 32.03125 5.859375 37.109375 7.421875 
L 53.125 12.109375 
Q 52.34375 9.375 53.125 4.296875 
Q 37.890625 0.390625 30.265625 -2.140625 
Q 22.65625 -4.6875 20.3125 -6.25 
Q 18.359375 -0.390625 16.015625 2.34375 
Q 20.703125 6.640625 21.09375 12.109375 
L 28.515625 66.40625 
L 22.265625 66.40625 
Q 15.234375 66.40625 7.03125 66.015625 
L 7.03125 73.4375 
Q 15.234375 73.046875 22.265625 73.046875 
z
M 42.1875 36.328125 
Q 48.4375 30.859375 56.640625 21.09375 
Q 53.515625 18.359375 50.78125 16.015625 
Q 45.703125 23.046875 37.109375 31.25 
Q 39.84375 33.59375 42.1875 36.328125 
z
" id="SimHei-74e6"/>
      <path d="M 26.171875 35.15625 
Q 26.171875 22.265625 21.28125 12.109375 
Q 16.40625 1.953125 6.640625 -7.421875 
L 2.34375 -3.125 
Q 11.328125 5.078125 15.8125 14.25 
Q 20.3125 23.4375 20.3125 35.15625 
Q 20.3125 46.875 15.8125 56.046875 
Q 11.328125 65.234375 2.34375 73.828125 
L 6.640625 78.125 
Q 16.40625 68.359375 21.28125 58.203125 
Q 26.171875 48.046875 26.171875 35.15625 
z
" id="SimHei-29"/>
     </defs>
     <g transform="translate(21.875 193.69)rotate(-90)scale(0.13 -0.13)">
      <use xlink:href="#SimHei-529f"/>
      <use x="100" xlink:href="#SimHei-7387"/>
      <use x="200" xlink:href="#SimHei-28"/>
      <use x="250" xlink:href="#SimHei-5343"/>
      <use x="350" xlink:href="#SimHei-74e6"/>
      <use x="450" xlink:href="#SimHei-29"/>
     </g>
    </g>
   </g>
   <g id="line2d_14">
    <path clip-path="url(#pea50ac4f51)" d="M 69.218182 271.965897 
L 77.702186 271.988119 
L 93.609693 271.977008 
L 98.912195 271.971452 
L 104.214697 271.982563 
L 122.243206 271.99923 
L 125.424707 271.971452 
L 141.332214 271.990897 
L 147.695217 272.03812 
L 148.755717 266.201931 
L 149.816218 266.565825 
L 150.876718 268.413073 
L 151.937219 267.0825 
L 154.05822 261.040752 
L 155.11872 253.473986 
L 157.239721 230.668135 
L 158.300222 240.021033 
L 159.360722 246.476673 
L 160.421223 243.823864 
L 161.481723 228.984763 
L 162.542224 229.162557 
L 163.602724 216.756836 
L 164.663225 217.787408 
L 165.723725 207.731715 
L 166.784226 188.892579 
L 167.844726 192.775972 
L 168.905226 221.709676 
L 169.965727 225.179172 
L 171.026227 232.401492 
L 172.086728 198.642715 
L 173.147228 146.233678 
L 174.207729 168.122865 
L 175.268229 195.300993 
L 176.32873 208.156727 
L 177.38923 219.309642 
L 178.449731 211.873439 
L 179.510231 232.998721 
L 180.570732 215.976268 
L 181.631232 171.03957 
L 182.691733 194.223216 
L 183.752233 196.487129 
L 184.812734 192.923194 
L 185.873234 162.064461 
L 186.933735 211.887331 
L 187.994235 206.798372 
L 189.054736 193.834311 
L 190.115236 219.123534 
L 191.175736 209.892863 
L 192.236237 236.634879 
L 193.296737 237.359887 
L 194.357238 217.381845 
L 195.417738 217.070728 
L 196.478239 253.904553 
L 197.538739 236.945989 
L 198.59924 237.618227 
L 199.65974 207.278937 
L 200.720241 169.978439 
L 201.780741 163.070032 
L 202.841242 207.201161 
L 203.901742 207.840049 
L 204.962243 170.325677 
L 206.022743 189.60093 
L 207.083244 195.45934 
L 208.143744 203.812217 
L 209.204245 196.470462 
L 210.264745 115.816612 
L 211.325245 196.078785 
L 212.385746 203.103871 
L 213.446246 185.181431 
L 214.506747 196.05379 
L 215.567247 240.159923 
L 216.627748 251.665628 
L 217.688248 236.001536 
L 218.748749 192.387078 
L 219.809249 230.029241 
L 220.86975 219.140209 
L 221.93025 221.793011 
L 222.990751 190.012041 
L 224.051251 223.979151 
L 225.111752 193.367642 
L 226.172252 185.706429 
L 227.232753 139.725268 
L 228.293253 123.544497 
L 229.353754 175.275734 
L 230.414254 192.628753 
L 231.474755 249.965607 
L 232.535255 238.162675 
L 233.595755 171.586794 
L 234.656256 136.239122 
L 235.716756 163.692274 
L 236.777257 152.925441 
L 237.837757 147.572596 
L 238.898258 207.656722 
L 239.958758 200.481623 
L 241.019259 195.66489 
L 242.079759 186.614774 
L 243.14026 225.915298 
L 244.20076 249.85172 
L 245.261261 227.845882 
L 246.321761 228.284771 
L 247.382262 247.837798 
L 248.442762 242.604399 
L 249.503263 196.945472 
L 250.563763 163.658923 
L 252.684764 178.589677 
L 253.745264 174.639617 
L 254.805765 172.456264 
L 255.866265 118.188869 
L 256.926766 117.716671 
L 257.987266 105.583153 
L 259.047767 82.993949 
L 260.108267 123.513955 
L 261.168768 105.102597 
L 262.229268 69.36602 
L 263.289769 49.999091 
L 264.350269 53.229683 
L 265.41077 108.527659 
L 266.47127 116.072182 
L 267.531771 149.708724 
L 268.592271 144.117009 
L 269.652772 111.105459 
L 270.713272 133.225191 
L 271.773773 189.403703 
L 272.834273 188.698127 
L 273.894774 197.709381 
L 274.955274 209.728969 
L 276.015774 213.687363 
L 277.076275 211.19288 
L 278.136775 216.984618 
L 279.197276 183.711961 
L 280.257776 191.487066 
L 281.318277 210.012306 
L 282.378777 207.012267 
L 283.439278 213.073463 
L 284.499778 223.834708 
L 287.68128 252.282304 
L 288.74178 257.324036 
L 289.802281 260.057404 
L 290.862781 264.413022 
L 291.923282 268.263071 
L 292.983782 269.943648 
L 294.044283 271.84645 
L 295.104783 272.099232 
L 297.225784 271.965897 
L 300.407285 272.021453 
L 304.649287 271.993675 
L 322.677795 271.993675 
L 330.101299 271.982563 
L 333.2828 271.993675 
L 335.403801 271.977008 
L 339.645803 272.027011 
L 342.827304 272.015894 
L 352.371809 271.940896 
L 354.49281 272.010342 
L 369.339816 272.004786 
L 371.460817 271.94923 
L 373.581818 272.004786 
L 373.581818 272.004786 
" style="fill:none;stroke:#000000;stroke-linecap:square;stroke-width:1.5;"/>
   </g>
   <g id="line2d_15">
    <path clip-path="url(#pea50ac4f51)" d="M 69.218182 271.963818 
L 75.581185 271.916207 
L 80.883687 271.860775 
L 81.944188 272.098702 
L 93.609693 271.953143 
L 94.670193 272.137417 
L 112.698701 272.101582 
L 119.061704 272.246504 
L 122.243206 272.176059 
L 131.78771 272.010264 
L 132.84821 271.673482 
L 134.969211 271.487186 
L 136.029712 271.30713 
L 138.150713 271.15128 
L 141.332214 270.73481 
L 144.513716 269.856148 
L 145.574216 269.016226 
L 147.695217 267.980763 
L 149.816218 266.590692 
L 150.876718 265.712199 
L 154.05822 262.153216 
L 155.11872 260.467841 
L 158.300222 252.600675 
L 159.360722 252.687938 
L 160.421223 252.662688 
L 161.481723 245.750658 
L 162.542224 244.885997 
L 163.602724 244.423991 
L 164.663225 242.910404 
L 165.723725 241.674599 
L 166.784226 238.450281 
L 167.844726 230.216075 
L 169.965727 196.921407 
L 172.086728 216.790091 
L 173.147228 213.51513 
L 174.207729 195.681435 
L 175.268229 192.300699 
L 176.32873 181.545416 
L 177.38923 183.119204 
L 178.449731 169.167137 
L 179.510231 150.380957 
L 180.570732 154.92845 
L 181.631232 185.23979 
L 183.752233 193.281003 
L 184.812734 151.637557 
L 185.873234 94.398273 
L 186.933735 120.374597 
L 187.994235 152.207731 
L 189.054736 166.9986 
L 190.115236 177.707308 
L 191.175736 169.463474 
L 192.236237 191.929152 
L 193.296737 173.299875 
L 194.357238 127.496716 
L 195.417738 153.209736 
L 196.478239 149.546022 
L 197.538739 144.980045 
L 198.59924 107.874367 
L 199.65974 161.687806 
L 200.720241 153.046476 
L 201.780741 142.877092 
L 202.841242 172.550515 
L 203.901742 163.993961 
L 204.962243 192.414384 
L 206.022743 194.128287 
L 207.083244 173.343475 
L 208.143744 171.883281 
L 209.204245 211.466254 
L 210.264745 194.846782 
L 211.325245 195.472687 
L 212.385746 162.575559 
L 213.446246 122.942139 
L 214.506747 121.675881 
L 215.567247 164.601344 
L 216.627748 165.655133 
L 217.688248 132.253436 
L 218.748749 150.347407 
L 219.809249 158.175068 
L 220.86975 172.734776 
L 221.93025 168.71249 
L 222.990751 104.359654 
L 224.051251 167.757535 
L 225.111752 175.831366 
L 226.172252 161.628822 
L 227.232753 171.935832 
L 228.293253 212.741817 
L 229.353754 223.166381 
L 230.414254 211.085329 
L 231.474755 173.563837 
L 232.535255 206.998489 
L 233.595755 198.977795 
L 234.656256 203.110337 
L 235.716756 176.800721 
L 236.777257 206.091091 
L 237.837757 180.213324 
L 238.898258 175.560529 
L 239.958758 139.627341 
L 241.019259 129.357098 
L 242.079759 166.500677 
L 243.14026 181.178803 
L 244.20076 230.033955 
L 245.261261 224.698832 
L 246.321761 175.536212 
L 247.382262 155.783303 
L 248.442762 174.362872 
L 249.503263 166.305758 
L 250.563763 165.099659 
L 251.624264 208.475153 
L 252.684764 204.977736 
L 253.745264 202.568971 
L 254.805765 198.044408 
L 255.866265 225.232464 
L 256.926766 241.286464 
L 257.987266 229.381669 
L 259.047767 231.203545 
L 260.108267 246.693026 
L 261.168768 244.383368 
L 262.229268 220.926316 
L 263.289769 203.42997 
L 264.350269 207.756468 
L 265.41077 213.638091 
L 266.47127 212.200513 
L 267.531771 212.626332 
L 268.592271 196.035795 
L 269.652772 195.355439 
L 270.713272 189.098428 
L 271.773773 172.862502 
L 272.834273 213.042266 
L 273.894774 206.361242 
L 274.955274 184.256443 
L 276.015774 172.501181 
L 277.076275 181.656643 
L 278.136775 216.044665 
L 279.197276 215.527584 
L 280.257776 225.872406 
L 281.318277 228.295041 
L 282.378777 227.506161 
L 284.499778 247.564357 
L 285.560279 250.620969 
L 286.620779 251.917929 
L 288.74178 259.219151 
L 289.802281 262.416611 
L 290.862781 265.198315 
L 291.923282 265.579438 
L 292.983782 267.409392 
L 294.044283 268.765163 
L 295.104783 268.945107 
L 296.165283 268.521198 
L 297.225784 269.993058 
L 298.286284 271.020706 
L 300.407285 271.960866 
L 302.528286 272.265934 
L 303.588787 272.380909 
L 309.95179 272.128245 
L 314.193792 272.109628 
L 373.581818 272.201561 
L 373.581818 272.201561 
" style="fill:none;stroke:#000000;stroke-dasharray:5.55,2.4;stroke-dashoffset:0;stroke-width:1.5;"/>
   </g>
   <g id="line2d_16">
    <path clip-path="url(#pea50ac4f51)" d="M 69.218182 272.133829 
L 140.271714 272.050277 
L 142.392715 271.859151 
L 144.513716 271.469647 
L 146.634717 270.415976 
L 147.695217 269.703671 
L 148.755717 268.768147 
L 149.816218 267.626202 
L 150.876718 266.215075 
L 152.997719 262.540163 
L 154.05822 260.302467 
L 155.11872 257.721967 
L 157.239721 250.542332 
L 158.300222 248.146852 
L 159.360722 247.804362 
L 160.421223 245.98023 
L 161.481723 240.594724 
L 163.602724 238.812627 
L 164.663225 237.07343 
L 165.723725 237.10852 
L 166.784226 232.089279 
L 167.844726 226.184818 
L 168.905226 211.120348 
L 169.965727 192.387583 
L 171.026227 202.639013 
L 172.086728 220.102005 
L 173.147228 211.7901 
L 174.207729 198.318474 
L 175.268229 186.508906 
L 176.32873 183.173879 
L 177.38923 173.151906 
L 178.449731 155.761711 
L 179.510231 148.870138 
L 180.570732 146.64545 
L 181.631232 170.803625 
L 182.691733 206.646201 
L 183.752233 176.474016 
L 184.812734 129.735928 
L 185.873234 103.046945 
L 186.933735 105.20949 
L 187.994235 130.836993 
L 189.054736 172.544298 
L 190.115236 178.123096 
L 191.175736 179.473481 
L 192.236237 172.826219 
L 193.296737 158.078233 
L 194.357238 141.40559 
L 195.417738 142.605822 
L 198.59924 124.673504 
L 199.65974 151.782543 
L 200.720241 148.16507 
L 201.780741 146.870736 
L 202.841242 162.849813 
L 203.901742 174.629242 
L 206.022743 192.131638 
L 207.083244 189.950314 
L 208.143744 179.19356 
L 209.204245 198.278607 
L 210.264745 213.22349 
L 211.325245 192.592978 
L 212.385746 159.206248 
L 213.446246 139.143385 
L 214.506747 132.790418 
L 215.567247 143.814013 
L 216.627748 163.328652 
L 217.688248 154.188449 
L 218.748749 142.182258 
L 219.809249 155.727319 
L 220.86975 181.346739 
L 221.93025 158.800943 
L 222.990751 123.453921 
L 224.051251 142.715474 
L 225.111752 179.079792 
L 227.232753 174.499632 
L 228.293253 208.002542 
L 229.353754 236.13014 
L 230.414254 220.766456 
L 231.474755 181.890421 
L 232.535255 200.699192 
L 233.595755 212.313306 
L 234.656256 206.324963 
L 235.716756 188.75294 
L 236.777257 198.595098 
L 237.837757 193.178535 
L 238.898258 168.266467 
L 239.958758 138.730896 
L 241.019259 143.068095 
L 242.079759 159.388926 
L 243.14026 189.681656 
L 244.20076 246.461744 
L 245.261261 228.45109 
L 246.321761 168.410461 
L 247.382262 168.595613 
L 248.442762 166.907983 
L 249.503263 167.167544 
L 250.563763 173.557145 
L 251.624264 193.580582 
L 252.684764 210.633869 
L 253.745264 207.599758 
L 254.805765 199.983641 
L 255.866265 231.534238 
L 256.926766 256.724935 
L 257.987266 249.26766 
L 259.047767 248.039855 
L 260.108267 259.084983 
L 261.168768 258.574151 
L 263.289769 197.011969 
L 264.350269 201.362343 
L 265.41077 212.031549 
L 266.47127 206.72351 
L 267.531771 202.373744 
L 268.592271 204.678778 
L 269.652772 195.471057 
L 271.773773 191.838476 
L 272.834273 198.526993 
L 273.894774 203.936707 
L 274.955274 185.718421 
L 276.015774 158.057775 
L 277.076275 177.399887 
L 278.136775 202.213987 
L 279.197276 207.6219 
L 280.257776 217.494404 
L 281.318277 217.069546 
L 282.378777 217.958952 
L 283.439278 235.556825 
L 284.499778 250.773586 
L 285.560279 249.470167 
L 286.620779 251.374659 
L 287.68128 257.118462 
L 288.74178 261.817569 
L 289.802281 264.529686 
L 290.862781 265.759567 
L 291.923282 266.80156 
L 292.983782 266.975902 
L 294.044283 267.535864 
L 295.104783 268.676304 
L 296.165283 268.626735 
L 298.286284 270.343586 
L 300.407285 271.495356 
L 302.528286 271.860875 
L 304.649287 272.049968 
L 311.01229 272.148503 
L 338.585303 272.159118 
L 373.581818 272.131496 
L 373.581818 272.131496 
" style="fill:none;stroke:#000000;stroke-dasharray:9.6,2.4,1.5,2.4;stroke-dashoffset:0;stroke-width:1.5;"/>
   </g>
   <g id="line2d_17">
    <path clip-path="url(#pea50ac4f51)" d="M 69.218182 272.125605 
L 136.029712 272.025679 
L 139.211213 271.800007 
L 141.332214 271.513086 
L 143.453215 271.016109 
L 144.513716 270.652893 
L 145.574216 268.783668 
L 146.634717 267.623322 
L 147.695217 266.176211 
L 148.755717 264.29074 
L 149.816218 262.083116 
L 150.876718 259.467171 
L 152.997719 253.137063 
L 155.11872 246.019847 
L 156.179221 242.121447 
L 157.239721 238.85818 
L 158.300222 233.73352 
L 159.360722 234.56816 
L 160.421223 235.096524 
L 161.481723 229.698684 
L 164.663225 227.180881 
L 165.723725 227.035863 
L 166.784226 224.665057 
L 167.844726 218.196714 
L 169.965727 178.518035 
L 171.026227 194.195387 
L 172.086728 206.246865 
L 173.147228 202.615634 
L 174.207729 180.533353 
L 175.268229 175.597922 
L 176.32873 162.753586 
L 177.38923 165.551906 
L 178.449731 148.279797 
L 179.510231 127.380414 
L 180.570732 132.594124 
L 181.631232 168.557854 
L 182.691733 173.307558 
L 183.752233 180.029663 
L 185.873234 83.043524 
L 186.933735 104.447455 
L 187.994235 133.976692 
L 189.054736 149.889826 
L 190.115236 162.355406 
L 191.175736 151.974587 
L 192.236237 177.665507 
L 193.296737 156.568139 
L 194.357238 109.754916 
L 195.417738 135.311051 
L 196.478239 136.920406 
L 197.538739 132.539623 
L 198.59924 101.520525 
L 199.65974 149.31931 
L 200.720241 141.495708 
L 201.780741 131.129113 
L 202.841242 160.362713 
L 203.901742 151.309645 
L 204.962243 182.830983 
L 206.022743 184.598723 
L 207.083244 161.492328 
L 208.143744 160.515757 
L 209.204245 208.736031 
L 210.264745 188.222554 
L 211.325245 189.911626 
L 213.446246 119.505694 
L 214.506747 118.288803 
L 215.567247 155.972689 
L 216.627748 157.165521 
L 217.688248 126.67728 
L 218.748749 142.407336 
L 219.809249 149.562297 
L 220.86975 163.023065 
L 221.93025 159.551694 
L 222.990751 105.573561 
L 224.051251 160.465798 
L 225.111752 169.61426 
L 226.172252 153.106927 
L 227.232753 164.405425 
L 228.293253 215.081481 
L 229.353754 228.367255 
L 230.414254 213.992411 
L 231.474755 166.318141 
L 232.535255 209.793728 
L 233.595755 199.417315 
L 234.656256 201.990555 
L 235.716756 169.422824 
L 236.777257 207.130893 
L 237.837757 175.463695 
L 238.898258 168.908942 
L 239.958758 137.246502 
L 241.019259 130.008849 
L 242.079759 163.145983 
L 243.14026 179.490131 
L 244.20076 239.753407 
L 245.261261 233.060775 
L 246.321761 168.249092 
L 247.382262 149.212309 
L 248.442762 168.117623 
L 249.503263 160.830261 
L 250.563763 159.668313 
L 251.624264 205.056816 
L 252.684764 200.851703 
L 253.745264 197.324831 
L 254.805765 192.92987 
L 255.866265 232.378043 
L 256.926766 252.322799 
L 257.987266 239.549577 
L 259.047767 242.749441 
L 260.108267 255.186469 
L 261.168768 253.116262 
L 262.229268 217.573475 
L 263.289769 193.690862 
L 264.350269 199.238923 
L 265.41077 205.913938 
L 266.47127 204.249114 
L 267.531771 204.98069 
L 268.592271 189.48555 
L 269.652772 193.286487 
L 270.713272 188.941897 
L 271.773773 174.028843 
L 272.834273 205.162637 
L 273.894774 195.685587 
L 274.955274 171.723221 
L 276.015774 157.592819 
L 277.076275 164.012028 
L 278.136775 198.942741 
L 279.197276 198.510726 
L 280.257776 212.867544 
L 281.318277 215.499262 
L 282.378777 215.860191 
L 283.439278 231.401122 
L 284.499778 250.561107 
L 285.560279 246.612866 
L 286.620779 249.595945 
L 287.68128 255.969844 
L 288.74178 260.931702 
L 289.802281 264.629891 
L 290.862781 267.207866 
L 291.923282 267.378118 
L 292.983782 268.826906 
L 294.044283 269.525256 
L 295.104783 269.783413 
L 296.165283 269.599378 
L 297.225784 270.396607 
L 299.346785 271.286642 
L 300.407285 271.77431 
L 302.528286 272.043121 
L 305.709788 272.159192 
L 320.556794 272.151573 
L 373.581818 272.136976 
L 373.581818 272.136976 
" style="fill:none;stroke:#000000;stroke-dasharray:1.5,2.475;stroke-dashoffset:0;stroke-width:1.5;"/>
   </g>
   <g id="patch_3">
    <path d="M 54 283.5 
L 54 38.88 
" style="fill:none;stroke:#000000;stroke-linecap:square;stroke-linejoin:miter;stroke-width:0.8;"/>
   </g>
   <g id="patch_4">
    <path d="M 388.8 283.5 
L 388.8 38.88 
" style="fill:none;stroke:#000000;stroke-linecap:square;stroke-linejoin:miter;stroke-width:0.8;"/>
   </g>
   <g id="patch_5">
    <path d="M 54 283.5 
L 388.8 283.5 
" style="fill:none;stroke:#000000;stroke-linecap:square;stroke-linejoin:miter;stroke-width:0.8;"/>
   </g>
   <g id="patch_6">
    <path d="M 54 38.88 
L 388.8 38.88 
" style="fill:none;stroke:#000000;stroke-linecap:square;stroke-linejoin:miter;stroke-width:0.8;"/>
   </g>
   <g id="legend_1">
    <g id="patch_7">
     <path d="M 279.335625 116.3475 
L 380.4 116.3475 
Q 382.8 116.3475 382.8 113.9475 
L 382.8 47.28 
Q 382.8 44.88 380.4 44.88 
L 279.335625 44.88 
Q 276.935625 44.88 276.935625 47.28 
L 276.935625 113.9475 
Q 276.935625 116.3475 279.335625 116.3475 
z
" style="fill:#ffffff;opacity:0.8;stroke:#cccccc;stroke-linejoin:miter;"/>
    </g>
    <g id="line2d_18">
     <path d="M 281.735625 53.88 
L 305.735625 53.88 
" style="fill:none;stroke:#000000;stroke-linecap:square;stroke-width:1.5;"/>
    </g>
    <g id="line2d_19"/>
    <g id="text_15">
     <!-- Real -->
     <defs>
      <path d="M 67.578125 0 
L 49.90625 0 
L 27.484375 30.953125 
Q 25 30.859375 23.4375 30.859375 
Q 22.796875 30.859375 22.0625 30.875 
Q 21.34375 30.90625 20.5625 30.953125 
L 20.5625 11.71875 
Q 20.5625 5.46875 21.921875 3.953125 
Q 23.78125 1.8125 27.484375 1.8125 
L 30.078125 1.8125 
L 30.078125 0 
L 1.703125 0 
L 1.703125 1.8125 
L 4.203125 1.8125 
Q 8.40625 1.8125 10.203125 4.546875 
Q 11.234375 6.0625 11.234375 11.71875 
L 11.234375 54.5 
Q 11.234375 60.75 9.859375 62.25 
Q 7.953125 64.40625 4.203125 64.40625 
L 1.703125 64.40625 
L 1.703125 66.21875 
L 25.828125 66.21875 
Q 36.375 66.21875 41.375 64.671875 
Q 46.390625 63.140625 49.875 59.015625 
Q 53.375 54.890625 53.375 49.171875 
Q 53.375 43.0625 49.390625 38.5625 
Q 45.40625 34.078125 37.0625 32.234375 
L 50.734375 13.234375 
Q 55.421875 6.6875 58.78125 4.53125 
Q 62.15625 2.390625 67.578125 1.8125 
z
M 20.5625 34.03125 
Q 21.484375 34.03125 22.171875 34 
Q 22.859375 33.984375 23.296875 33.984375 
Q 32.765625 33.984375 37.578125 38.078125 
Q 42.390625 42.1875 42.390625 48.53125 
Q 42.390625 54.734375 38.5 58.609375 
Q 34.625 62.5 28.21875 62.5 
Q 25.390625 62.5 20.5625 61.578125 
z
" id="TimesNewRomanPSMT-52"/>
      <path d="M 10.640625 27.875 
Q 10.59375 17.921875 15.484375 12.25 
Q 20.359375 6.59375 26.953125 6.59375 
Q 31.34375 6.59375 34.59375 9 
Q 37.84375 11.421875 40.046875 17.28125 
L 41.546875 16.3125 
Q 40.53125 9.625 35.59375 4.125 
Q 30.671875 -1.375 23.25 -1.375 
Q 15.1875 -1.375 9.453125 4.90625 
Q 3.71875 11.1875 3.71875 21.78125 
Q 3.71875 33.25 9.59375 39.671875 
Q 15.484375 46.09375 24.359375 46.09375 
Q 31.890625 46.09375 36.71875 41.140625 
Q 41.546875 36.1875 41.546875 27.875 
z
M 10.640625 30.71875 
L 31.34375 30.71875 
Q 31.109375 35.015625 30.328125 36.765625 
Q 29.109375 39.5 26.6875 41.0625 
Q 24.265625 42.625 21.625 42.625 
Q 17.578125 42.625 14.375 39.46875 
Q 11.1875 36.328125 10.640625 30.71875 
z
" id="TimesNewRomanPSMT-65"/>
      <path d="M 28.46875 6.453125 
Q 21.578125 1.125 19.828125 0.296875 
Q 17.1875 -0.921875 14.203125 -0.921875 
Q 9.578125 -0.921875 6.5625 2.25 
Q 3.5625 5.421875 3.5625 10.59375 
Q 3.5625 13.875 5.03125 16.265625 
Q 7.03125 19.578125 11.984375 22.5 
Q 16.9375 25.4375 28.46875 29.640625 
L 28.46875 31.390625 
Q 28.46875 38.09375 26.34375 40.578125 
Q 24.21875 43.0625 20.171875 43.0625 
Q 17.09375 43.0625 15.28125 41.40625 
Q 13.421875 39.75 13.421875 37.59375 
L 13.53125 34.765625 
Q 13.53125 32.515625 12.375 31.296875 
Q 11.234375 30.078125 9.375 30.078125 
Q 7.5625 30.078125 6.421875 31.34375 
Q 5.28125 32.625 5.28125 34.8125 
Q 5.28125 39.015625 9.578125 42.53125 
Q 13.875 46.046875 21.625 46.046875 
Q 27.59375 46.046875 31.390625 44.046875 
Q 34.28125 42.53125 35.640625 39.3125 
Q 36.53125 37.203125 36.53125 30.71875 
L 36.53125 15.53125 
Q 36.53125 9.125 36.765625 7.6875 
Q 37.015625 6.25 37.578125 5.765625 
Q 38.140625 5.28125 38.875 5.28125 
Q 39.65625 5.28125 40.234375 5.609375 
Q 41.265625 6.25 44.1875 9.1875 
L 44.1875 6.453125 
Q 38.71875 -0.875 33.734375 -0.875 
Q 31.34375 -0.875 29.921875 0.78125 
Q 28.515625 2.4375 28.46875 6.453125 
z
M 28.46875 9.625 
L 28.46875 26.65625 
Q 21.09375 23.734375 18.953125 22.515625 
Q 15.09375 20.359375 13.421875 18.015625 
Q 11.765625 15.671875 11.765625 12.890625 
Q 11.765625 9.375 13.859375 7.046875 
Q 15.96875 4.734375 18.703125 4.734375 
Q 22.40625 4.734375 28.46875 9.625 
z
" id="TimesNewRomanPSMT-61"/>
      <path d="M 18.5 69.4375 
L 18.5 10.109375 
Q 18.5 5.90625 19.109375 4.53125 
Q 19.734375 3.171875 21 2.46875 
Q 22.265625 1.765625 25.734375 1.765625 
L 25.734375 0 
L 3.8125 0 
L 3.8125 1.765625 
Q 6.890625 1.765625 8 2.390625 
Q 9.125 3.03125 9.765625 4.484375 
Q 10.40625 5.953125 10.40625 10.109375 
L 10.40625 50.734375 
Q 10.40625 58.296875 10.0625 60.03125 
Q 9.71875 61.765625 8.953125 62.390625 
Q 8.203125 63.03125 7.03125 63.03125 
Q 5.765625 63.03125 3.8125 62.25 
L 2.984375 63.96875 
L 16.3125 69.4375 
z
" id="TimesNewRomanPSMT-6c"/>
     </defs>
     <g transform="translate(315.335625 58.08)scale(0.12 -0.12)">
      <use xlink:href="#TimesNewRomanPSMT-52"/>
      <use x="66.699219" xlink:href="#TimesNewRomanPSMT-65"/>
      <use x="111.083984" xlink:href="#TimesNewRomanPSMT-61"/>
      <use x="155.46875" xlink:href="#TimesNewRomanPSMT-6c"/>
     </g>
    </g>
    <g id="line2d_20">
     <path d="M 281.735625 70.846875 
L 305.735625 70.846875 
" style="fill:none;stroke:#000000;stroke-dasharray:5.55,2.4;stroke-dashoffset:0;stroke-width:1.5;"/>
    </g>
    <g id="line2d_21"/>
    <g id="text_16">
     <!-- DNN -->
     <defs>
      <path d="M 1.703125 0 
L 1.703125 1.8125 
L 4.203125 1.8125 
Q 8.40625 1.8125 10.15625 4.5 
Q 11.234375 6.109375 11.234375 11.71875 
L 11.234375 54.5 
Q 11.234375 60.6875 9.859375 62.25 
Q 7.953125 64.40625 4.203125 64.40625 
L 1.703125 64.40625 
L 1.703125 66.21875 
L 28.65625 66.21875 
Q 43.5 66.21875 51.234375 62.84375 
Q 58.984375 59.46875 63.6875 51.609375 
Q 68.40625 43.75 68.40625 33.453125 
Q 68.40625 19.625 60.015625 10.359375 
Q 50.59375 0 31.296875 0 
z
M 20.609375 4.78125 
Q 26.8125 3.421875 31 3.421875 
Q 42.328125 3.421875 49.796875 11.375 
Q 57.28125 19.34375 57.28125 32.953125 
Q 57.28125 46.6875 49.796875 54.59375 
Q 42.328125 62.5 30.609375 62.5 
Q 26.21875 62.5 20.609375 61.078125 
z
" id="TimesNewRomanPSMT-44"/>
      <path d="M -1.3125 66.21875 
L 16.65625 66.21875 
L 57.125 16.546875 
L 57.125 54.734375 
Q 57.125 60.84375 55.765625 62.359375 
Q 53.953125 64.40625 50.046875 64.40625 
L 47.75 64.40625 
L 47.75 66.21875 
L 70.796875 66.21875 
L 70.796875 64.40625 
L 68.453125 64.40625 
Q 64.265625 64.40625 62.5 61.859375 
Q 61.421875 60.296875 61.421875 54.734375 
L 61.421875 -1.078125 
L 59.671875 -1.078125 
L 16.015625 52.25 
L 16.015625 11.46875 
Q 16.015625 5.375 17.328125 3.859375 
Q 19.1875 1.8125 23.046875 1.8125 
L 25.390625 1.8125 
L 25.390625 0 
L 2.34375 0 
L 2.34375 1.8125 
L 4.640625 1.8125 
Q 8.890625 1.8125 10.640625 4.34375 
Q 11.71875 5.90625 11.71875 11.46875 
L 11.71875 57.515625 
Q 8.84375 60.890625 7.34375 61.953125 
Q 5.859375 63.03125 2.984375 63.96875 
Q 1.5625 64.40625 -1.3125 64.40625 
z
" id="TimesNewRomanPSMT-4e"/>
     </defs>
     <g transform="translate(315.335625 75.046875)scale(0.12 -0.12)">
      <use xlink:href="#TimesNewRomanPSMT-44"/>
      <use x="72.216797" xlink:href="#TimesNewRomanPSMT-4e"/>
      <use x="144.433594" xlink:href="#TimesNewRomanPSMT-4e"/>
     </g>
    </g>
    <g id="line2d_22">
     <path d="M 281.735625 87.81375 
L 305.735625 87.81375 
" style="fill:none;stroke:#000000;stroke-dasharray:9.6,2.4,1.5,2.4;stroke-dashoffset:0;stroke-width:1.5;"/>
    </g>
    <g id="line2d_23"/>
    <g id="text_17">
     <!-- LSTM -->
     <defs>
      <path d="M 57.328125 18.3125 
L 58.9375 17.96875 
L 53.265625 0 
L 2 0 
L 2 1.8125 
L 4.5 1.8125 
Q 8.6875 1.8125 10.5 4.546875 
Q 11.53125 6.109375 11.53125 11.765625 
L 11.53125 54.5 
Q 11.53125 60.6875 10.15625 62.25 
Q 8.25 64.40625 4.5 64.40625 
L 2 64.40625 
L 2 66.21875 
L 31.984375 66.21875 
L 31.984375 64.40625 
Q 26.703125 64.453125 24.578125 63.421875 
Q 22.46875 62.40625 21.6875 60.84375 
Q 20.90625 59.28125 20.90625 53.375 
L 20.90625 11.765625 
Q 20.90625 7.71875 21.6875 6.203125 
Q 22.265625 5.171875 23.484375 4.6875 
Q 24.703125 4.203125 31.109375 4.203125 
L 35.9375 4.203125 
Q 43.5625 4.203125 46.625 5.328125 
Q 49.703125 6.453125 52.234375 9.296875 
Q 54.78125 12.15625 57.328125 18.3125 
z
" id="TimesNewRomanPSMT-4c"/>
      <path d="M 45.84375 67.71875 
L 45.84375 44.828125 
L 44.046875 44.828125 
Q 43.171875 51.421875 40.890625 55.328125 
Q 38.625 59.234375 34.421875 61.515625 
Q 30.21875 63.8125 25.734375 63.8125 
Q 20.65625 63.8125 17.328125 60.71875 
Q 14.015625 57.625 14.015625 53.65625 
Q 14.015625 50.640625 16.109375 48.140625 
Q 19.140625 44.484375 30.515625 38.375 
Q 39.796875 33.40625 43.1875 30.734375 
Q 46.578125 28.078125 48.40625 24.453125 
Q 50.25 20.84375 50.25 16.890625 
Q 50.25 9.375 44.40625 3.921875 
Q 38.578125 -1.515625 29.390625 -1.515625 
Q 26.515625 -1.515625 23.96875 -1.078125 
Q 22.46875 -0.828125 17.703125 0.703125 
Q 12.9375 2.25 11.671875 2.25 
Q 10.453125 2.25 9.734375 1.515625 
Q 9.03125 0.78125 8.6875 -1.515625 
L 6.890625 -1.515625 
L 6.890625 21.1875 
L 8.6875 21.1875 
Q 9.96875 14.0625 12.109375 10.515625 
Q 14.265625 6.984375 18.671875 4.640625 
Q 23.09375 2.296875 28.375 2.296875 
Q 34.46875 2.296875 38 5.515625 
Q 41.546875 8.734375 41.546875 13.140625 
Q 41.546875 15.578125 40.203125 18.0625 
Q 38.875 20.5625 36.03125 22.703125 
Q 34.125 24.171875 25.625 28.921875 
Q 17.140625 33.6875 13.546875 36.515625 
Q 9.96875 39.359375 8.109375 42.765625 
Q 6.25 46.1875 6.25 50.296875 
Q 6.25 57.421875 11.71875 62.5625 
Q 17.1875 67.71875 25.640625 67.71875 
Q 30.90625 67.71875 36.8125 65.140625 
Q 39.546875 63.921875 40.671875 63.921875 
Q 41.9375 63.921875 42.75 64.671875 
Q 43.5625 65.4375 44.046875 67.71875 
z
" id="TimesNewRomanPSMT-53"/>
      <path d="M 57.859375 66.21875 
L 58.59375 50.6875 
L 56.734375 50.6875 
Q 56.203125 54.78125 55.28125 56.546875 
Q 53.765625 59.375 51.25 60.71875 
Q 48.734375 62.0625 44.625 62.0625 
L 35.296875 62.0625 
L 35.296875 11.46875 
Q 35.296875 5.375 36.625 3.859375 
Q 38.484375 1.8125 42.328125 1.8125 
L 44.625 1.8125 
L 44.625 0 
L 16.546875 0 
L 16.546875 1.8125 
L 18.890625 1.8125 
Q 23.09375 1.8125 24.859375 4.34375 
Q 25.921875 5.90625 25.921875 11.46875 
L 25.921875 62.0625 
L 17.96875 62.0625 
Q 13.328125 62.0625 11.375 61.375 
Q 8.84375 60.453125 7.03125 57.8125 
Q 5.21875 55.171875 4.890625 50.6875 
L 3.03125 50.6875 
L 3.8125 66.21875 
z
" id="TimesNewRomanPSMT-54"/>
      <path d="M 40.921875 0 
L 15.328125 55.71875 
L 15.328125 11.46875 
Q 15.328125 5.375 16.65625 3.859375 
Q 18.453125 1.8125 22.359375 1.8125 
L 24.703125 1.8125 
L 24.703125 0 
L 1.65625 0 
L 1.65625 1.8125 
L 4 1.8125 
Q 8.203125 1.8125 9.96875 4.34375 
Q 11.03125 5.90625 11.03125 11.46875 
L 11.03125 54.734375 
Q 11.03125 59.125 10.0625 61.078125 
Q 9.375 62.5 7.546875 63.453125 
Q 5.71875 64.40625 1.65625 64.40625 
L 1.65625 66.21875 
L 20.40625 66.21875 
L 44.4375 14.40625 
L 68.0625 66.21875 
L 86.8125 66.21875 
L 86.8125 64.40625 
L 84.515625 64.40625 
Q 80.28125 64.40625 78.515625 61.859375 
Q 77.4375 60.296875 77.4375 54.734375 
L 77.4375 11.46875 
Q 77.4375 5.375 78.8125 3.859375 
Q 80.609375 1.8125 84.515625 1.8125 
L 86.8125 1.8125 
L 86.8125 0 
L 58.6875 0 
L 58.6875 1.8125 
L 61.03125 1.8125 
Q 65.28125 1.8125 67 4.34375 
Q 68.0625 5.90625 68.0625 11.46875 
L 68.0625 55.71875 
L 42.53125 0 
z
" id="TimesNewRomanPSMT-4d"/>
     </defs>
     <g transform="translate(315.335625 92.01375)scale(0.12 -0.12)">
      <use xlink:href="#TimesNewRomanPSMT-4c"/>
      <use x="61.083984" xlink:href="#TimesNewRomanPSMT-53"/>
      <use x="116.699219" xlink:href="#TimesNewRomanPSMT-54"/>
      <use x="177.783203" xlink:href="#TimesNewRomanPSMT-4d"/>
     </g>
    </g>
    <g id="line2d_24">
     <path d="M 281.735625 104.780625 
L 305.735625 104.780625 
" style="fill:none;stroke:#000000;stroke-dasharray:1.5,2.475;stroke-dashoffset:0;stroke-width:1.5;"/>
    </g>
    <g id="line2d_25"/>
    <g id="text_18">
     <!-- WPD-LSTM -->
     <defs>
      <path d="M 93.609375 66.21875 
L 93.609375 64.40625 
Q 91.015625 64.40625 89.40625 63.46875 
Q 87.796875 62.546875 86.328125 60.015625 
Q 85.359375 58.296875 83.25 51.859375 
L 64.796875 -1.515625 
L 62.84375 -1.515625 
L 47.75 40.828125 
L 32.765625 -1.515625 
L 31 -1.515625 
L 11.328125 53.46875 
Q 9.125 59.625 8.546875 60.75 
Q 7.5625 62.59375 5.875 63.5 
Q 4.203125 64.40625 1.3125 64.40625 
L 1.3125 66.21875 
L 25.828125 66.21875 
L 25.828125 64.40625 
L 24.65625 64.40625 
Q 22.078125 64.40625 20.703125 63.234375 
Q 19.34375 62.0625 19.34375 60.40625 
Q 19.34375 58.6875 21.484375 52.546875 
L 34.515625 15.375 
L 45.515625 46.96875 
L 43.5625 52.546875 
L 42 56.984375 
Q 40.96875 59.421875 39.703125 61.28125 
Q 39.0625 62.203125 38.140625 62.84375 
Q 36.921875 63.71875 35.6875 64.109375 
Q 34.765625 64.40625 32.765625 64.40625 
L 32.765625 66.21875 
L 58.546875 66.21875 
L 58.546875 64.40625 
L 56.78125 64.40625 
Q 54.046875 64.40625 52.78125 63.234375 
Q 51.515625 62.0625 51.515625 60.0625 
Q 51.515625 57.5625 53.71875 51.375 
L 66.40625 15.375 
L 79 51.859375 
Q 81.15625 57.90625 81.15625 60.25 
Q 81.15625 61.375 80.4375 62.34375 
Q 79.734375 63.328125 78.65625 63.71875 
Q 76.8125 64.40625 73.828125 64.40625 
L 73.828125 66.21875 
z
" id="TimesNewRomanPSMT-57"/>
      <path d="M 20.515625 31 
L 20.515625 11.71875 
Q 20.515625 5.46875 21.875 3.953125 
Q 23.734375 1.8125 27.484375 1.8125 
L 30.03125 1.8125 
L 30.03125 0 
L 1.65625 0 
L 1.65625 1.8125 
L 4.15625 1.8125 
Q 8.34375 1.8125 10.15625 4.546875 
Q 11.140625 6.0625 11.140625 11.71875 
L 11.140625 54.5 
Q 11.140625 60.75 9.8125 62.25 
Q 7.90625 64.40625 4.15625 64.40625 
L 1.65625 64.40625 
L 1.65625 66.21875 
L 25.921875 66.21875 
Q 34.8125 66.21875 39.9375 64.375 
Q 45.0625 62.546875 48.578125 58.203125 
Q 52.09375 53.859375 52.09375 47.90625 
Q 52.09375 39.796875 46.75 34.71875 
Q 41.40625 29.640625 31.640625 29.640625 
Q 29.25 29.640625 26.46875 29.984375 
Q 23.6875 30.328125 20.515625 31 
z
M 20.515625 33.796875 
Q 23.09375 33.296875 25.09375 33.046875 
Q 27.09375 32.8125 28.515625 32.8125 
Q 33.59375 32.8125 37.28125 36.734375 
Q 40.96875 40.671875 40.96875 46.921875 
Q 40.96875 51.21875 39.203125 54.90625 
Q 37.453125 58.59375 34.21875 60.421875 
Q 31 62.25 26.90625 62.25 
Q 24.421875 62.25 20.515625 61.328125 
z
" id="TimesNewRomanPSMT-50"/>
      <path d="M 4.046875 26.125 
L 29.296875 26.125 
L 29.296875 18.75 
L 4.046875 18.75 
z
" id="TimesNewRomanPSMT-2d"/>
     </defs>
     <g transform="translate(315.335625 108.980625)scale(0.12 -0.12)">
      <use xlink:href="#TimesNewRomanPSMT-57"/>
      <use x="94.384766" xlink:href="#TimesNewRomanPSMT-50"/>
      <use x="150" xlink:href="#TimesNewRomanPSMT-44"/>
      <use x="222.216797" xlink:href="#TimesNewRomanPSMT-2d"/>
      <use x="255.517578" xlink:href="#TimesNewRomanPSMT-4c"/>
      <use x="316.601562" xlink:href="#TimesNewRomanPSMT-53"/>
      <use x="372.216797" xlink:href="#TimesNewRomanPSMT-54"/>
      <use x="433.300781" xlink:href="#TimesNewRomanPSMT-4d"/>
     </g>
    </g>
   </g>
  </g>
 </g>
 <defs>
  <clipPath id="pea50ac4f51">
   <rect height="244.62" width="334.8" x="54" y="38.88"/>
  </clipPath>
 </defs>
</svg>
