<?xml version="1.0" encoding="utf-8" standalone="no"?>
<!DOCTYPE svg PUBLIC "-//W3C//DTD SVG 1.1//EN"
  "http://www.w3.org/Graphics/SVG/1.1/DTD/svg11.dtd">
<!-- Created with matplotlib (http://matplotlib.org/) -->
<svg height="288pt" version="1.1" viewBox="0 0 504 288" width="504pt" xmlns="http://www.w3.org/2000/svg" xmlns:xlink="http://www.w3.org/1999/xlink">
 <defs>
  <style type="text/css">
*{stroke-linecap:butt;stroke-linejoin:round;}
  </style>
 </defs>
 <g id="figure_1">
  <g id="patch_1">
   <path d="M 0 288 
L 504 288 
L 504 0 
L 0 0 
z
" style="fill:#ffffff;"/>
  </g>
  <g id="axes_1">
   <g id="patch_2">
    <path d="M 63 252 
L 453.6 252 
L 453.6 34.56 
L 63 34.56 
z
" style="fill:#ffffff;"/>
   </g>
   <g id="matplotlib.axis_1">
    <g id="xtick_1">
     <g id="line2d_1">
      <defs>
       <path d="M 0 0 
L 0 3.5 
" id="m1068538070" style="stroke:#000000;stroke-width:0.8;"/>
      </defs>
      <g>
       <use style="stroke:#000000;stroke-width:0.8;" x="110.345455" xlink:href="#m1068538070" y="252"/>
      </g>
     </g>
     <g id="text_1">
      <!-- 2.5 -->
      <defs>
       <path d="M 35.9375 50.390625 
Q 35.9375 57.421875 32.8125 61.125 
Q 29.6875 64.84375 23.4375 64.84375 
Q 18.75 64.84375 15.421875 62.296875 
Q 12.109375 59.765625 12.109375 55.859375 
Q 12.109375 53.515625 13.46875 51.953125 
Q 14.84375 50.390625 14.84375 48.828125 
Q 14.84375 46.875 13.859375 45.890625 
Q 12.890625 44.921875 10.9375 44.921875 
Q 8.59375 44.921875 7.21875 46.28125 
Q 5.859375 47.65625 5.859375 50.78125 
Q 5.859375 58.984375 11.71875 63.28125 
Q 17.578125 67.578125 24.21875 67.578125 
Q 33.59375 67.578125 38.078125 62.890625 
Q 42.578125 58.203125 42.578125 51.171875 
Q 42.578125 46.484375 40.421875 41.796875 
Q 38.28125 37.109375 33.59375 32.8125 
Q 22.265625 21.875 16.203125 15.03125 
Q 10.15625 8.203125 8.984375 5.859375 
L 32.03125 5.859375 
Q 35.546875 5.859375 37.890625 8.59375 
Q 40.234375 11.328125 41.015625 16.796875 
L 43.359375 16.796875 
L 41.015625 0 
L 4.6875 0 
L 4.6875 5.078125 
Q 6.640625 8.59375 11.125 14.0625 
Q 15.625 19.53125 23.046875 26.953125 
Q 29.6875 33.59375 32.8125 39.453125 
Q 35.9375 45.3125 35.9375 50.390625 
z
" id="FangSong-32"/>
       <path d="M 17.578125 4.296875 
Q 17.578125 1.953125 16.015625 0.390625 
Q 14.453125 -1.171875 12.109375 -1.171875 
Q 9.765625 -1.171875 8.203125 0.390625 
Q 6.640625 1.953125 6.640625 4.296875 
Q 6.640625 6.640625 8.203125 8.203125 
Q 9.765625 9.765625 12.109375 9.765625 
Q 14.453125 9.765625 16.015625 8.203125 
Q 17.578125 6.640625 17.578125 4.296875 
z
" id="FangSong-2e"/>
       <path d="M 26.5625 42.96875 
Q 33.984375 42.96875 38.671875 37.296875 
Q 43.359375 31.640625 43.359375 22.265625 
Q 43.359375 11.71875 38.46875 5.46875 
Q 33.59375 -0.78125 23.4375 -0.78125 
Q 16.40625 -0.78125 10.9375 3.3125 
Q 5.46875 7.421875 5.46875 13.28125 
Q 5.46875 15.625 6.828125 17.375 
Q 8.203125 19.140625 10.546875 19.140625 
Q 12.890625 19.140625 13.671875 17.578125 
Q 14.453125 16.015625 14.453125 14.84375 
Q 14.453125 12.5 13.28125 11.125 
Q 12.109375 9.765625 12.109375 8.203125 
Q 12.109375 5.078125 15.8125 3.515625 
Q 19.53125 1.953125 23.828125 1.953125 
Q 30.078125 1.953125 33.390625 7.03125 
Q 36.71875 12.109375 36.71875 21.484375 
Q 36.71875 29.296875 33.78125 34.171875 
Q 30.859375 39.0625 25 39.0625 
Q 20.703125 39.0625 17.578125 37.5 
Q 14.453125 35.9375 11.71875 30.859375 
L 8.203125 31.25 
L 10.15625 66.796875 
L 42.1875 66.796875 
L 41.015625 60.9375 
L 12.890625 60.9375 
L 11.328125 35.15625 
Q 15.234375 40.625 18.9375 41.796875 
Q 22.65625 42.96875 26.5625 42.96875 
z
" id="FangSong-35"/>
      </defs>
      <g transform="translate(101.345455 267.390625)scale(0.12 -0.12)">
       <use xlink:href="#FangSong-32"/>
       <use x="50" xlink:href="#FangSong-2e"/>
       <use x="100" xlink:href="#FangSong-35"/>
      </g>
     </g>
    </g>
    <g id="xtick_2">
     <g id="line2d_2">
      <g>
       <use style="stroke:#000000;stroke-width:0.8;" x="159.663636" xlink:href="#m1068538070" y="252"/>
      </g>
     </g>
     <g id="text_2">
      <!-- 5.0 -->
      <defs>
       <path d="M 24.609375 64.453125 
Q 19.140625 64.453125 15.421875 56.046875 
Q 11.71875 47.65625 11.71875 33.59375 
Q 11.71875 18.75 15.421875 10.546875 
Q 19.140625 2.34375 24.609375 2.34375 
Q 30.46875 2.34375 33.78125 10.546875 
Q 37.109375 18.75 37.109375 33.59375 
Q 37.109375 47.65625 33.984375 56.046875 
Q 30.859375 64.453125 24.609375 64.453125 
z
M 24.609375 -0.78125 
Q 16.015625 -0.78125 10.15625 8.203125 
Q 4.296875 17.1875 4.296875 33.59375 
Q 4.296875 48.828125 9.953125 58.203125 
Q 15.625 67.578125 24.609375 67.578125 
Q 33.203125 67.578125 38.859375 58.59375 
Q 44.53125 49.609375 44.53125 33.59375 
Q 44.53125 17.578125 38.859375 8.390625 
Q 33.203125 -0.78125 24.609375 -0.78125 
z
" id="FangSong-30"/>
      </defs>
      <g transform="translate(150.663636 267.390625)scale(0.12 -0.12)">
       <use xlink:href="#FangSong-35"/>
       <use x="50" xlink:href="#FangSong-2e"/>
       <use x="100" xlink:href="#FangSong-30"/>
      </g>
     </g>
    </g>
    <g id="xtick_3">
     <g id="line2d_3">
      <g>
       <use style="stroke:#000000;stroke-width:0.8;" x="208.981818" xlink:href="#m1068538070" y="252"/>
      </g>
     </g>
     <g id="text_3">
      <!-- 7.5 -->
      <defs>
       <path d="M 43.75 64.0625 
Q 35.546875 50.78125 30.65625 38.078125 
Q 25.78125 25.390625 25.78125 16.015625 
Q 25.78125 14.453125 25.96875 11.515625 
Q 26.171875 8.59375 26.171875 4.6875 
Q 26.171875 1.5625 25.1875 0.390625 
Q 24.21875 -0.78125 21.875 -0.78125 
Q 19.921875 -0.78125 18.546875 0.578125 
Q 17.1875 1.953125 17.1875 5.46875 
Q 17.1875 12.890625 20.5 23.828125 
Q 23.828125 34.765625 38.28125 60.9375 
L 18.75 60.9375 
Q 14.453125 60.9375 11.90625 58.203125 
Q 9.375 55.46875 8.203125 50 
L 5.859375 50.390625 
L 8.59375 66.796875 
L 43.75 66.796875 
z
" id="FangSong-37"/>
      </defs>
      <g transform="translate(199.981818 267.390625)scale(0.12 -0.12)">
       <use xlink:href="#FangSong-37"/>
       <use x="50" xlink:href="#FangSong-2e"/>
       <use x="100" xlink:href="#FangSong-35"/>
      </g>
     </g>
    </g>
    <g id="xtick_4">
     <g id="line2d_4">
      <g>
       <use style="stroke:#000000;stroke-width:0.8;" x="258.3" xlink:href="#m1068538070" y="252"/>
      </g>
     </g>
     <g id="text_4">
      <!-- 10.0 -->
      <defs>
       <path d="M 28.125 67.96875 
L 28.125 8.59375 
Q 28.125 5.46875 30.078125 3.90625 
Q 32.03125 2.34375 35.546875 2.34375 
L 39.453125 2.34375 
L 39.453125 0 
L 10.9375 0 
L 10.9375 2.34375 
L 14.453125 2.34375 
Q 18.359375 2.34375 20.109375 3.90625 
Q 21.875 5.46875 21.875 8.59375 
L 21.875 55.859375 
Q 21.875 57.421875 20.890625 58.390625 
Q 19.921875 59.375 17.96875 59.375 
L 10.9375 59.375 
L 10.9375 61.71875 
L 14.453125 61.71875 
Q 19.140625 61.71875 22.0625 63.28125 
Q 25 64.84375 26.5625 67.96875 
z
" id="FangSong-31"/>
      </defs>
      <g transform="translate(246.3 267.390625)scale(0.12 -0.12)">
       <use xlink:href="#FangSong-31"/>
       <use x="50" xlink:href="#FangSong-30"/>
       <use x="100" xlink:href="#FangSong-2e"/>
       <use x="150" xlink:href="#FangSong-30"/>
      </g>
     </g>
    </g>
    <g id="xtick_5">
     <g id="line2d_5">
      <g>
       <use style="stroke:#000000;stroke-width:0.8;" x="307.618182" xlink:href="#m1068538070" y="252"/>
      </g>
     </g>
     <g id="text_5">
      <!-- 12.5 -->
      <g transform="translate(295.618182 267.390625)scale(0.12 -0.12)">
       <use xlink:href="#FangSong-31"/>
       <use x="50" xlink:href="#FangSong-32"/>
       <use x="100" xlink:href="#FangSong-2e"/>
       <use x="150" xlink:href="#FangSong-35"/>
      </g>
     </g>
    </g>
    <g id="xtick_6">
     <g id="line2d_6">
      <g>
       <use style="stroke:#000000;stroke-width:0.8;" x="356.936364" xlink:href="#m1068538070" y="252"/>
      </g>
     </g>
     <g id="text_6">
      <!-- 15.0 -->
      <g transform="translate(344.936364 267.390625)scale(0.12 -0.12)">
       <use xlink:href="#FangSong-31"/>
       <use x="50" xlink:href="#FangSong-35"/>
       <use x="100" xlink:href="#FangSong-2e"/>
       <use x="150" xlink:href="#FangSong-30"/>
      </g>
     </g>
    </g>
    <g id="xtick_7">
     <g id="line2d_7">
      <g>
       <use style="stroke:#000000;stroke-width:0.8;" x="406.254545" xlink:href="#m1068538070" y="252"/>
      </g>
     </g>
     <g id="text_7">
      <!-- 17.5 -->
      <g transform="translate(394.254545 267.390625)scale(0.12 -0.12)">
       <use xlink:href="#FangSong-31"/>
       <use x="50" xlink:href="#FangSong-37"/>
       <use x="100" xlink:href="#FangSong-2e"/>
       <use x="150" xlink:href="#FangSong-35"/>
      </g>
     </g>
    </g>
    <g id="text_8">
     <!-- 聚类集群数 -->
     <defs>
      <path d="M 64.453125 14.84375 
Q 70.3125 9.765625 73.625 7.21875 
Q 76.953125 4.6875 80.078125 3.703125 
Q 83.203125 2.734375 92.96875 2.34375 
L 92.96875 0.390625 
Q 82.421875 -0.390625 75.390625 -1.171875 
Q 74.21875 1.5625 68.359375 7.03125 
L 50.78125 23.4375 
L 50.390625 -4.296875 
Q 50.78125 -10.9375 49.21875 -9.765625 
L 45.3125 -3.90625 
Q 47.265625 -1.171875 46.875 5.46875 
L 47.265625 30.859375 
Q 42.1875 29.296875 35.546875 28.125 
L 37.109375 22.265625 
Q 35.9375 21.875 29.6875 17.578125 
Q 23.4375 13.28125 14.453125 8.984375 
L 13.28125 10.546875 
Q 19.921875 14.0625 26.359375 19.140625 
Q 32.8125 24.21875 33.984375 27.734375 
Q 27.34375 26.5625 21.875 25.78125 
L 21.484375 28.125 
Q 33.203125 30.46875 45.703125 33.59375 
L 41.796875 38.28125 
Q 43.359375 39.84375 42.96875 44.140625 
Q 20.703125 36.71875 18.359375 35.15625 
L 12.109375 38.671875 
Q 17.578125 39.453125 25 41.40625 
L 25 71.09375 
L 16.796875 69.921875 
L 12.109375 73.4375 
Q 19.140625 73.828125 32.8125 75.1875 
Q 46.484375 76.5625 50.78125 77.734375 
L 55.46875 74.21875 
Q 49.609375 73.4375 46.484375 73.046875 
L 46.484375 47.65625 
L 52.734375 49.609375 
L 53.515625 48.046875 
L 46.484375 45.3125 
L 46.484375 39.453125 
Q 46.484375 36.328125 46.09375 33.59375 
Q 54.6875 36.328125 58.984375 38.28125 
Q 63.28125 40.234375 64.453125 41.40625 
L 65.625 41.40625 
L 69.53125 36.71875 
Q 66.796875 36.328125 62.890625 35.34375 
Q 58.984375 34.375 50.78125 31.640625 
L 50.78125 26.5625 
Q 57.421875 20.703125 62.890625 16.015625 
Q 68.359375 21.09375 71.09375 24.609375 
Q 73.828125 28.125 73.046875 30.078125 
L 74.609375 30.46875 
L 76.953125 22.265625 
Q 75 22.65625 71.484375 20.109375 
Q 67.96875 17.578125 64.453125 14.84375 
z
M 55.078125 62.5 
L 66.796875 57.03125 
Q 70.703125 62.109375 74.609375 70.3125 
Q 58.203125 67.1875 56.25 66.796875 
L 51.171875 70.3125 
Q 57.421875 70.703125 74.609375 73.4375 
L 76.953125 76.5625 
L 81.640625 72.65625 
L 78.90625 70.703125 
Q 75 62.109375 69.53125 54.6875 
Q 78.515625 49.21875 85.546875 44.921875 
Q 85.9375 42.578125 85.546875 37.5 
Q 76.5625 46.09375 67.578125 51.953125 
Q 61.71875 46.484375 50 39.0625 
L 48.828125 40.625 
Q 57.8125 46.875 64.453125 53.90625 
Q 60.15625 57.421875 53.90625 60.9375 
z
M 42.96875 72.65625 
L 28.515625 71.09375 
L 28.515625 63.671875 
Q 34.765625 64.453125 37.5 65.234375 
L 41.015625 61.71875 
Q 35.15625 61.328125 28.515625 60.15625 
L 28.515625 53.90625 
Q 34.765625 54.6875 37.109375 55.859375 
L 40.625 51.953125 
Q 36.328125 51.5625 28.515625 50.390625 
L 28.515625 42.578125 
L 42.96875 46.484375 
z
M 8.59375 -4.6875 
Q 22.265625 2.734375 30.65625 9.375 
Q 39.0625 16.015625 39.84375 20.3125 
L 41.40625 20.3125 
L 42.96875 13.28125 
Q 41.796875 13.28125 33 7.03125 
Q 24.21875 0.78125 9.375 -6.25 
z
" id="FangSong-805a"/>
      <path d="M 42.96875 22.65625 
Q 46.484375 32.03125 44.53125 34.375 
L 45.703125 35.15625 
L 50.78125 29.296875 
Q 49.609375 29.6875 46.875 23.046875 
Q 80.078125 25 83.59375 26.171875 
L 88.671875 21.484375 
Q 82.03125 22.265625 57.8125 19.921875 
Q 64.0625 11.71875 68.9375 6.046875 
Q 73.828125 0.390625 76.75 -1.359375 
Q 79.6875 -3.125 92.578125 -3.515625 
L 92.578125 -5.46875 
Q 78.90625 -6.640625 73.046875 -7.03125 
Q 73.4375 -5.859375 68.75 0.78125 
Q 64.0625 7.421875 55.078125 19.921875 
L 46.09375 19.53125 
Q 34.375 -1.171875 8.203125 -9.765625 
L 7.8125 -8.203125 
Q 30.46875 1.171875 41.796875 19.140625 
Q 18.75 17.578125 15.625 16.796875 
L 11.328125 21.09375 
Q 18.359375 20.703125 42.96875 22.65625 
z
M 46.09375 39.453125 
Q 48.4375 41.40625 48.046875 47.265625 
L 48.046875 51.5625 
Q 31.640625 35.15625 14.0625 27.34375 
L 12.890625 28.515625 
Q 31.25 39.0625 42.578125 51.953125 
Q 21.875 50 19.53125 49.21875 
L 14.84375 53.515625 
Q 21.484375 53.515625 48.046875 55.46875 
L 48.4375 70.703125 
Q 48.828125 77.34375 46.484375 80.46875 
L 46.875 81.640625 
L 53.90625 77.34375 
Q 51.5625 76.171875 51.953125 70.3125 
L 51.5625 55.859375 
Q 80.46875 58.203125 82.8125 59.765625 
L 87.109375 55.078125 
Q 78.515625 55.078125 51.5625 52.34375 
L 51.5625 37.890625 
Q 51.171875 32.8125 49.609375 33.59375 
L 46.09375 39.453125 
z
M 81.640625 38.28125 
Q 81.25 35.9375 81.25 32.03125 
Q 73.4375 37.109375 55.46875 46.875 
L 56.25 48.046875 
Q 71.09375 42.1875 81.640625 38.28125 
z
M 58.59375 61.328125 
Q 64.453125 67.578125 68.15625 72.265625 
Q 71.875 76.953125 70.703125 79.6875 
L 71.875 80.078125 
L 75.390625 72.65625 
Q 74.21875 73.046875 70.3125 69.53125 
Q 66.40625 66.015625 59.765625 60.15625 
z
M 38.28125 64.453125 
Q 37.5 61.328125 36.328125 58.203125 
Q 33.59375 62.5 24.21875 72.65625 
L 25 73.828125 
Q 34.375 67.578125 38.28125 64.453125 
z
" id="FangSong-7c7b"/>
      <path d="M 27.734375 61.328125 
Q 21.875 55.078125 13.28125 48.046875 
L 12.109375 49.609375 
Q 20.3125 56.640625 27.53125 66.984375 
Q 34.765625 77.34375 33.984375 80.859375 
L 35.15625 80.859375 
L 38.671875 74.609375 
Q 36.328125 72.65625 35.734375 71.671875 
Q 35.15625 70.703125 31.25 65.625 
L 31.25 62.890625 
Q 35.9375 62.890625 54.484375 65.03125 
Q 73.046875 67.1875 75 67.578125 
L 79.296875 64.453125 
Q 75.78125 64.0625 55.078125 61.71875 
L 55.078125 55.46875 
Q 68.359375 57.03125 68.75 57.421875 
L 74.21875 53.90625 
Q 69.53125 53.90625 55.078125 51.953125 
L 55.078125 45.703125 
Q 68.75 47.265625 70.703125 48.046875 
L 75.390625 44.921875 
Q 71.09375 44.53125 55.078125 42.578125 
L 55.078125 36.328125 
Q 73.046875 37.890625 76.5625 38.28125 
L 81.640625 35.15625 
Q 73.4375 34.765625 48.828125 32.421875 
L 52.734375 29.6875 
Q 51.171875 28.125 51.171875 25.78125 
L 51.171875 22.65625 
Q 81.25 25.78125 83.984375 26.5625 
L 89.0625 22.65625 
Q 82.8125 22.65625 54.296875 19.921875 
Q 61.71875 14.0625 67.578125 9.953125 
Q 73.4375 5.859375 76.75 4.484375 
Q 80.078125 3.125 92.1875 2.734375 
L 92.1875 1.171875 
Q 79.296875 -0.390625 75 -1.5625 
Q 72.65625 1.953125 51.171875 19.140625 
L 50.78125 -7.03125 
Q 50.78125 -11.328125 49.21875 -8.984375 
L 45.703125 -3.125 
Q 47.265625 -2.734375 47.265625 2.34375 
L 47.65625 17.1875 
Q 30.46875 3.125 8.203125 -4.6875 
L 7.03125 -3.125 
Q 26.953125 5.078125 43.359375 18.75 
Q 20.3125 16.796875 17.1875 16.40625 
L 11.71875 19.921875 
Q 19.140625 19.921875 47.65625 22.265625 
L 47.65625 26.5625 
Q 47.65625 30.078125 47.265625 32.421875 
Q 37.109375 31.640625 34.375 30.859375 
L 31.25 32.8125 
Q 31.25 25.390625 30.078125 26.171875 
Q 28.90625 26.953125 26.171875 32.421875 
Q 27.734375 33.59375 27.734375 37.5 
z
M 31.25 34.375 
Q 34.375 34.375 51.5625 35.9375 
L 51.5625 42.1875 
Q 40.234375 41.015625 38.28125 40.625 
L 33.203125 43.75 
Q 38.28125 43.75 51.5625 45.3125 
L 51.5625 51.5625 
Q 41.015625 50.390625 38.671875 50 
L 33.59375 53.515625 
Q 39.0625 53.515625 51.5625 55.078125 
L 51.5625 61.328125 
Q 37.890625 59.765625 35.546875 58.984375 
L 31.25 61.328125 
z
M 55.078125 66.796875 
Q 52.34375 72.65625 48.4375 78.90625 
L 49.21875 80.46875 
Q 55.46875 75.390625 57.8125 71.484375 
Q 56.640625 68.75 55.078125 66.796875 
z
" id="FangSong-96c6"/>
      <path d="M 28.125 29.296875 
L 42.1875 31.25 
L 44.140625 34.375 
L 48.4375 31.25 
L 46.09375 28.125 
L 44.921875 12.5 
L 47.265625 8.984375 
L 28.90625 6.640625 
Q 29.296875 -2.34375 27.734375 -1.5625 
L 23.4375 4.6875 
Q 25.390625 6.25 25.390625 9.765625 
L 24.609375 23.828125 
Q 24.609375 28.90625 23.828125 31.640625 
Q 17.578125 19.53125 7.421875 8.59375 
L 6.25 9.765625 
Q 16.796875 22.265625 23.828125 39.0625 
Q 16.796875 38.28125 16.40625 37.890625 
L 11.71875 41.40625 
Q 16.40625 41.796875 25.390625 42.578125 
Q 27.34375 49.609375 28.125 53.515625 
Q 17.578125 52.34375 14.84375 51.5625 
L 10.15625 55.078125 
Q 15.234375 55.46875 28.515625 57.03125 
Q 29.296875 61.71875 30.078125 68.359375 
Q 26.171875 67.96875 22.65625 67.1875 
L 18.75 70.703125 
Q 23.046875 70.703125 44.921875 73.4375 
L 46.875 76.171875 
L 50.78125 72.65625 
L 48.4375 70.3125 
L 46.875 59.375 
Q 52.34375 60.15625 53.125 60.546875 
L 56.640625 57.421875 
L 46.484375 55.859375 
L 45.3125 45.703125 
L 48.828125 41.796875 
L 27.734375 39.453125 
Q 26.171875 35.9375 25 33.59375 
z
M 72.65625 59.375 
Q 83.59375 61.71875 85.15625 62.5 
L 89.453125 58.59375 
Q 83.59375 57.8125 70.3125 55.078125 
L 70.3125 42.96875 
Q 76.953125 44.140625 81.25 45.703125 
L 85.546875 41.796875 
Q 79.6875 41.40625 70.3125 39.453125 
L 70.3125 28.90625 
Q 87.5 31.25 89.0625 32.03125 
L 93.75 28.125 
Q 87.890625 27.734375 70.3125 25 
L 70.3125 -7.03125 
Q 70.3125 -10.9375 68.75 -8.984375 
L 65.234375 -2.734375 
Q 67.1875 -0.78125 66.796875 5.46875 
L 66.796875 24.609375 
Q 56.25 23.4375 53.90625 22.65625 
L 49.21875 26.171875 
Q 54.6875 26.5625 66.796875 28.515625 
L 66.796875 39.0625 
Q 60.546875 37.890625 58.59375 37.5 
L 53.515625 40.625 
Q 58.59375 41.015625 66.796875 42.578125 
L 66.796875 54.6875 
Q 61.71875 53.90625 59.765625 53.125 
L 55.46875 56.25 
Q 59.375 56.640625 70.3125 58.984375 
Q 73.828125 69.140625 75 73.046875 
Q 76.171875 76.953125 75.78125 81.640625 
L 76.953125 82.03125 
L 80.859375 75 
Q 80.078125 74.609375 78.125 70.703125 
Q 76.171875 66.796875 72.65625 59.375 
z
M 28.90625 10.15625 
L 41.40625 12.109375 
L 42.578125 27.734375 
L 28.515625 25.390625 
z
M 31.640625 53.90625 
Q 30.46875 48.828125 28.90625 42.96875 
L 41.796875 44.921875 
L 42.96875 55.46875 
L 31.640625 53.90625 
z
M 33.59375 68.75 
Q 32.8125 62.109375 32.03125 57.421875 
L 43.359375 58.984375 
L 44.921875 69.921875 
z
M 63.28125 59.375 
Q 60.9375 66.40625 55.46875 76.953125 
L 56.640625 77.734375 
Q 62.5 70.3125 66.015625 65.625 
Q 65.234375 62.890625 63.28125 59.375 
z
" id="FangSong-7fa4"/>
      <path d="M 77.34375 42.96875 
Q 76.171875 41.796875 74.015625 35.34375 
Q 71.875 28.90625 68.359375 20.3125 
Q 76.171875 4.6875 79.484375 0.578125 
Q 82.8125 -3.515625 93.75 -3.515625 
L 93.75 -5.46875 
L 76.953125 -6.640625 
Q 77.34375 -5.078125 74.796875 0.578125 
Q 72.265625 6.25 66.40625 17.1875 
Q 56.25 0.78125 40.234375 -10.546875 
L 39.0625 -8.984375 
Q 53.125 1.5625 64.0625 20.3125 
Q 57.8125 33.59375 55.46875 36.71875 
Q 53.125 32.03125 50.78125 28.515625 
L 49.21875 29.296875 
Q 53.125 37.890625 55.859375 45.890625 
Q 58.59375 53.90625 61.71875 66.015625 
Q 64.84375 78.125 62.890625 79.6875 
L 64.0625 80.46875 
L 69.140625 75 
Q 67.96875 74.21875 66.984375 70.3125 
Q 66.015625 66.40625 60.9375 50 
Q 83.203125 52.734375 85.546875 54.296875 
L 90.234375 50 
Q 84.765625 49.609375 73.4375 48.046875 
z
M 46.484375 7.03125 
Q 46.875 3.515625 46.875 0.390625 
Q 42.1875 3.125 35.546875 6.25 
Q 25.78125 -3.90625 8.59375 -9.765625 
L 7.8125 -8.203125 
Q 23.046875 -1.171875 31.640625 7.421875 
Q 26.171875 8.984375 19.921875 10.9375 
L 25 21.484375 
Q 15.625 20.3125 12.890625 19.53125 
L 8.203125 23.828125 
Q 12.890625 23.828125 26.5625 25.390625 
Q 28.125 29.296875 28.515625 31.828125 
Q 28.90625 34.375 28.515625 36.71875 
L 29.296875 37.109375 
L 33.59375 31.25 
Q 32.421875 30.859375 30.46875 25.78125 
L 42.578125 26.953125 
Q 43.359375 28.90625 42.96875 32.421875 
L 44.140625 32.8125 
L 48.828125 26.5625 
Q 47.65625 26.5625 45.3125 21.671875 
Q 42.96875 16.796875 38.28125 8.984375 
Q 41.40625 8.203125 46.484375 7.03125 
z
M 36.71875 56.25 
L 41.40625 56.640625 
Q 45.3125 64.84375 46.671875 69.328125 
Q 48.046875 73.828125 47.65625 77.34375 
L 48.828125 78.125 
L 53.125 71.484375 
Q 51.953125 71.09375 50.1875 67.765625 
Q 48.4375 64.453125 43.75 56.640625 
Q 51.171875 58.203125 51.5625 58.59375 
L 55.078125 54.296875 
Q 50.78125 54.296875 36.71875 52.734375 
L 36.71875 50.390625 
Q 43.75 47.265625 50.390625 44.53125 
Q 50.390625 41.40625 50 37.5 
Q 44.53125 42.96875 36.71875 48.046875 
L 36.71875 37.109375 
Q 36.71875 32.03125 35.15625 34.375 
L 31.640625 39.0625 
Q 33.59375 41.015625 33.203125 44.53125 
L 33.203125 50 
Q 21.09375 35.9375 7.421875 27.734375 
L 6.25 29.296875 
Q 18.75 37.890625 29.6875 51.953125 
Q 16.40625 50.390625 15.625 49.609375 
L 10.546875 54.296875 
Q 16.40625 53.90625 33.203125 55.859375 
L 33.203125 69.921875 
Q 33.203125 77.734375 31.25 80.859375 
L 32.421875 81.640625 
L 38.28125 76.953125 
Q 36.71875 75.78125 36.71875 68.75 
z
M 59.375 38.28125 
Q 59.765625 35.9375 61.71875 31.640625 
L 65.625 24.21875 
Q 67.578125 28.125 70.109375 37.109375 
Q 72.65625 46.09375 71.875 47.65625 
L 59.375 46.09375 
Q 57.8125 42.1875 56.25 38.671875 
z
M 33.984375 10.15625 
Q 39.0625 16.796875 41.796875 23.828125 
L 29.296875 21.875 
L 24.609375 12.5 
z
M 25.390625 57.03125 
Q 23.046875 62.5 17.1875 70.703125 
L 18.359375 71.875 
Q 23.046875 67.96875 28.515625 62.890625 
Q 26.953125 59.765625 25.390625 57.03125 
z
" id="FangSong-6570"/>
     </defs>
     <g transform="translate(223.3 284.171875)scale(0.14 -0.14)">
      <use xlink:href="#FangSong-805a"/>
      <use x="100" xlink:href="#FangSong-7c7b"/>
      <use x="200" xlink:href="#FangSong-96c6"/>
      <use x="300" xlink:href="#FangSong-7fa4"/>
      <use x="400" xlink:href="#FangSong-6570"/>
     </g>
    </g>
   </g>
   <g id="matplotlib.axis_2">
    <g id="ytick_1">
     <g id="line2d_8">
      <defs>
       <path d="M 0 0 
L -3.5 0 
" id="m7e1ae7de0b" style="stroke:#000000;stroke-width:0.8;"/>
      </defs>
      <g>
       <use style="stroke:#000000;stroke-width:0.8;" x="63" xlink:href="#m7e1ae7de0b" y="240.783153"/>
      </g>
     </g>
     <g id="text_9">
      <!-- -3.5 -->
      <defs>
       <path d="M 2.734375 33.203125 
L 2.734375 36.71875 
L 46.09375 36.71875 
L 46.09375 33.203125 
z
" id="FangSong-2d"/>
       <path d="M 43.359375 17.96875 
Q 43.359375 10.546875 37.890625 4.875 
Q 32.421875 -0.78125 22.65625 -0.78125 
Q 15.625 -0.78125 10.546875 3.125 
Q 5.46875 7.03125 5.46875 12.109375 
Q 5.46875 14.453125 7.03125 16.203125 
Q 8.59375 17.96875 10.15625 17.96875 
Q 12.5 17.96875 13.46875 16.203125 
Q 14.453125 14.453125 14.453125 13.28125 
Q 14.453125 11.328125 13.671875 9.953125 
Q 12.890625 8.59375 12.890625 7.421875 
Q 12.890625 5.078125 15.8125 3.515625 
Q 18.75 1.953125 22.265625 1.953125 
Q 29.296875 1.953125 32.8125 6.046875 
Q 36.328125 10.15625 36.328125 18.75 
Q 36.328125 25.78125 32.609375 30.078125 
Q 28.90625 34.375 18.75 34.375 
L 18.75 37.109375 
Q 26.5625 37.109375 30.265625 40.8125 
Q 33.984375 44.53125 33.984375 51.171875 
Q 33.984375 56.640625 31.046875 60.734375 
Q 28.125 64.84375 21.875 64.84375 
Q 19.140625 64.84375 16.015625 63.46875 
Q 12.890625 62.109375 12.890625 58.984375 
Q 12.890625 55.859375 13.671875 55.078125 
Q 14.453125 54.296875 14.453125 53.125 
Q 14.453125 51.171875 13.671875 50 
Q 12.890625 48.828125 10.9375 48.828125 
Q 9.375 48.828125 8 50 
Q 6.640625 51.171875 6.640625 54.296875 
Q 6.640625 60.15625 11.71875 63.859375 
Q 16.796875 67.578125 23.4375 67.578125 
Q 31.25 67.578125 35.9375 62.6875 
Q 40.625 57.8125 40.625 52.34375 
Q 40.625 46.484375 37.6875 42.375 
Q 34.765625 38.28125 28.515625 36.328125 
Q 37.109375 33.203125 40.234375 28.125 
Q 43.359375 23.046875 43.359375 17.96875 
z
" id="FangSong-33"/>
      </defs>
      <g transform="translate(32 244.978466)scale(0.12 -0.12)">
       <use xlink:href="#FangSong-2d"/>
       <use x="50" xlink:href="#FangSong-33"/>
       <use x="100" xlink:href="#FangSong-2e"/>
       <use x="150" xlink:href="#FangSong-35"/>
      </g>
     </g>
    </g>
    <g id="ytick_2">
     <g id="line2d_9">
      <g>
       <use style="stroke:#000000;stroke-width:0.8;" x="63" xlink:href="#m7e1ae7de0b" y="212.003782"/>
      </g>
     </g>
     <g id="text_10">
      <!-- -3.0 -->
      <g transform="translate(32 216.199094)scale(0.12 -0.12)">
       <use xlink:href="#FangSong-2d"/>
       <use x="50" xlink:href="#FangSong-33"/>
       <use x="100" xlink:href="#FangSong-2e"/>
       <use x="150" xlink:href="#FangSong-30"/>
      </g>
     </g>
    </g>
    <g id="ytick_3">
     <g id="line2d_10">
      <g>
       <use style="stroke:#000000;stroke-width:0.8;" x="63" xlink:href="#m7e1ae7de0b" y="183.22441"/>
      </g>
     </g>
     <g id="text_11">
      <!-- -2.5 -->
      <g transform="translate(32 187.419723)scale(0.12 -0.12)">
       <use xlink:href="#FangSong-2d"/>
       <use x="50" xlink:href="#FangSong-32"/>
       <use x="100" xlink:href="#FangSong-2e"/>
       <use x="150" xlink:href="#FangSong-35"/>
      </g>
     </g>
    </g>
    <g id="ytick_4">
     <g id="line2d_11">
      <g>
       <use style="stroke:#000000;stroke-width:0.8;" x="63" xlink:href="#m7e1ae7de0b" y="154.445038"/>
      </g>
     </g>
     <g id="text_12">
      <!-- -2.0 -->
      <g transform="translate(32 158.640351)scale(0.12 -0.12)">
       <use xlink:href="#FangSong-2d"/>
       <use x="50" xlink:href="#FangSong-32"/>
       <use x="100" xlink:href="#FangSong-2e"/>
       <use x="150" xlink:href="#FangSong-30"/>
      </g>
     </g>
    </g>
    <g id="ytick_5">
     <g id="line2d_12">
      <g>
       <use style="stroke:#000000;stroke-width:0.8;" x="63" xlink:href="#m7e1ae7de0b" y="125.665667"/>
      </g>
     </g>
     <g id="text_13">
      <!-- -1.5 -->
      <g transform="translate(32 129.860979)scale(0.12 -0.12)">
       <use xlink:href="#FangSong-2d"/>
       <use x="50" xlink:href="#FangSong-31"/>
       <use x="100" xlink:href="#FangSong-2e"/>
       <use x="150" xlink:href="#FangSong-35"/>
      </g>
     </g>
    </g>
    <g id="ytick_6">
     <g id="line2d_13">
      <g>
       <use style="stroke:#000000;stroke-width:0.8;" x="63" xlink:href="#m7e1ae7de0b" y="96.886295"/>
      </g>
     </g>
     <g id="text_14">
      <!-- -1.0 -->
      <g transform="translate(32 101.081607)scale(0.12 -0.12)">
       <use xlink:href="#FangSong-2d"/>
       <use x="50" xlink:href="#FangSong-31"/>
       <use x="100" xlink:href="#FangSong-2e"/>
       <use x="150" xlink:href="#FangSong-30"/>
      </g>
     </g>
    </g>
    <g id="ytick_7">
     <g id="line2d_14">
      <g>
       <use style="stroke:#000000;stroke-width:0.8;" x="63" xlink:href="#m7e1ae7de0b" y="68.106923"/>
      </g>
     </g>
     <g id="text_15">
      <!-- -0.5 -->
      <g transform="translate(32 72.302236)scale(0.12 -0.12)">
       <use xlink:href="#FangSong-2d"/>
       <use x="50" xlink:href="#FangSong-30"/>
       <use x="100" xlink:href="#FangSong-2e"/>
       <use x="150" xlink:href="#FangSong-35"/>
      </g>
     </g>
    </g>
    <g id="ytick_8">
     <g id="line2d_15">
      <g>
       <use style="stroke:#000000;stroke-width:0.8;" x="63" xlink:href="#m7e1ae7de0b" y="39.327552"/>
      </g>
     </g>
     <g id="text_16">
      <!-- 0.0 -->
      <g transform="translate(38 43.522864)scale(0.12 -0.12)">
       <use xlink:href="#FangSong-30"/>
       <use x="50" xlink:href="#FangSong-2e"/>
       <use x="100" xlink:href="#FangSong-30"/>
      </g>
     </g>
    </g>
    <g id="text_17">
     <!-- 分数 -->
     <defs>
      <path d="M 54.296875 -2.734375 
Q 57.421875 1.953125 63.28125 37.109375 
L 45.3125 35.546875 
Q 41.015625 17.96875 33 7.8125 
Q 25 -2.34375 9.375 -9.375 
L 8.59375 -7.8125 
Q 21.875 -1.171875 29.875 9.375 
Q 37.890625 19.921875 41.015625 35.15625 
Q 31.640625 34.375 29.6875 33.203125 
L 25.78125 37.890625 
Q 31.25 37.5 63.28125 41.015625 
L 66.015625 44.140625 
L 70.3125 39.0625 
L 67.1875 37.5 
Q 64.453125 19.921875 61.71875 7.8125 
Q 58.984375 -4.296875 55.078125 -10.15625 
Q 50 -3.515625 40.625 4.296875 
L 41.40625 5.46875 
L 54.296875 -2.734375 
z
M 76.953125 33.984375 
Q 76.953125 35.9375 70.703125 46.28125 
Q 64.453125 56.640625 57.8125 68.15625 
Q 51.171875 79.6875 48.4375 80.078125 
L 48.828125 81.640625 
L 53.90625 81.25 
Q 53.90625 80.46875 54.296875 79.09375 
Q 54.6875 77.734375 60.15625 68.75 
Q 65.625 59.765625 71.28125 51.171875 
Q 76.953125 42.578125 80.46875 40.234375 
Q 83.984375 37.890625 93.359375 37.5 
L 93.75 35.546875 
L 76.953125 33.984375 
z
M 7.8125 26.953125 
Q 15.625 33.59375 22.265625 42.578125 
Q 28.90625 51.5625 33.390625 60.734375 
Q 37.890625 69.921875 36.328125 73.046875 
L 37.890625 73.4375 
L 41.796875 65.625 
Q 41.015625 66.40625 35.9375 57.421875 
Q 30.46875 47.65625 24.796875 40.625 
Q 19.140625 33.59375 8.984375 25.390625 
z
" id="FangSong-5206"/>
     </defs>
     <g transform="translate(25.976562 157.28)rotate(-90)scale(0.14 -0.14)">
      <use xlink:href="#FangSong-5206"/>
      <use x="100" xlink:href="#FangSong-6570"/>
     </g>
    </g>
    <g id="text_18">
     <!-- 1e9 -->
     <defs>
      <path d="M 37.109375 24.21875 
Q 37.5 32.8125 34.171875 37.296875 
Q 30.859375 41.796875 25.390625 41.796875 
Q 19.53125 41.796875 15.8125 37.109375 
Q 12.109375 32.421875 12.109375 24.21875 
z
M 12.109375 21.875 
Q 12.109375 11.328125 16.203125 6.828125 
Q 20.3125 2.34375 26.953125 2.34375 
Q 32.03125 2.34375 35.546875 5.265625 
Q 39.0625 8.203125 40.625 12.5 
L 42.578125 11.71875 
Q 41.40625 7.421875 37.296875 3.3125 
Q 33.203125 -0.78125 26.171875 -0.78125 
Q 17.1875 -0.78125 11.515625 5.078125 
Q 5.859375 10.9375 5.859375 21.875 
Q 5.859375 31.640625 11.515625 38.078125 
Q 17.1875 44.53125 25.390625 44.53125 
Q 32.8125 44.53125 38.28125 39.453125 
Q 43.75 34.375 43.75 21.875 
z
" id="FangSong-65"/>
      <path d="M 10.546875 46.09375 
Q 10.546875 37.5 13.859375 33 
Q 17.1875 28.515625 22.265625 28.515625 
Q 28.125 28.515625 32.421875 33.984375 
Q 36.71875 39.453125 36.71875 44.140625 
Q 36.71875 53.515625 33.59375 59.171875 
Q 30.46875 64.84375 23.4375 64.84375 
Q 16.796875 64.84375 13.671875 59.5625 
Q 10.546875 54.296875 10.546875 46.09375 
z
M 21.09375 25 
Q 13.28125 25 8.59375 29.875 
Q 3.90625 34.765625 3.90625 45.703125 
Q 3.90625 55.078125 8.984375 61.328125 
Q 14.0625 67.578125 23.4375 67.578125 
Q 33.203125 67.578125 38.671875 59.765625 
Q 44.140625 51.953125 44.140625 37.109375 
Q 44.140625 20.703125 37.6875 9.953125 
Q 31.25 -0.78125 19.921875 -0.78125 
Q 14.84375 -0.78125 11.125 1.5625 
Q 7.421875 3.90625 7.421875 7.8125 
Q 7.421875 9.375 8.390625 10.9375 
Q 9.375 12.5 11.71875 12.5 
Q 14.0625 12.5 14.84375 10.734375 
Q 15.625 8.984375 15.625 6.640625 
Q 15.625 5.078125 16.015625 4.09375 
Q 16.40625 3.125 16.796875 2.734375 
Q 17.1875 2.34375 18.15625 2.140625 
Q 19.140625 1.953125 20.3125 1.953125 
Q 27.34375 1.953125 31.640625 9.765625 
Q 35.9375 17.578125 36.71875 35.9375 
Q 34.765625 31.25 30.859375 28.125 
Q 26.953125 25 21.09375 25 
z
" id="FangSong-39"/>
     </defs>
     <g transform="translate(63 31.56)scale(0.12 -0.12)">
      <use xlink:href="#FangSong-31"/>
      <use x="50" xlink:href="#FangSong-65"/>
      <use x="100" xlink:href="#FangSong-39"/>
     </g>
    </g>
   </g>
   <g id="line2d_16">
    <path clip-path="url(#pce872c7b0a)" d="M 80.754545 242.116364 
L 100.481818 168.232301 
L 120.209091 125.039287 
L 139.936364 101.480575 
L 159.663636 86.048261 
L 179.390909 76.555616 
L 199.118182 68.893353 
L 218.845455 62.614512 
L 238.572727 57.514875 
L 258.3 53.50721 
L 278.027273 50.630966 
L 297.754545 49.232319 
L 317.481818 47.854064 
L 337.209091 46.741162 
L 356.936364 46.188774 
L 376.663636 45.636655 
L 396.390909 45.143577 
L 416.118182 44.82102 
L 435.845455 44.443636 
" style="fill:none;stroke:#1f77b4;stroke-linecap:square;stroke-width:1.5;"/>
   </g>
   <g id="patch_3">
    <path d="M 63 252 
L 63 34.56 
" style="fill:none;stroke:#000000;stroke-linecap:square;stroke-linejoin:miter;stroke-width:0.8;"/>
   </g>
   <g id="patch_4">
    <path d="M 453.6 252 
L 453.6 34.56 
" style="fill:none;stroke:#000000;stroke-linecap:square;stroke-linejoin:miter;stroke-width:0.8;"/>
   </g>
   <g id="patch_5">
    <path d="M 63 252 
L 453.6 252 
" style="fill:none;stroke:#000000;stroke-linecap:square;stroke-linejoin:miter;stroke-width:0.8;"/>
   </g>
   <g id="patch_6">
    <path d="M 63 34.56 
L 453.6 34.56 
" style="fill:none;stroke:#000000;stroke-linecap:square;stroke-linejoin:miter;stroke-width:0.8;"/>
   </g>
   <g id="text_19">
    <!-- Elbow 曲线 -->
    <defs>
     <path d="M 2.734375 64.453125 
L 2.734375 66.796875 
L 41.015625 66.796875 
L 45.3125 53.515625 
L 43.359375 52.734375 
Q 40.234375 58.59375 36.71875 61.515625 
Q 33.203125 64.453125 28.90625 64.453125 
L 17.96875 64.453125 
Q 16.40625 64.453125 15.421875 63.671875 
Q 14.453125 62.890625 14.453125 61.328125 
L 14.453125 37.109375 
L 25.78125 37.109375 
Q 29.6875 37.109375 31.4375 39.0625 
Q 33.203125 41.015625 33.203125 44.921875 
L 33.203125 47.265625 
L 35.546875 47.265625 
L 35.546875 24.21875 
L 33.203125 24.21875 
L 33.203125 25.78125 
Q 33.203125 30.078125 31.4375 32.421875 
Q 29.6875 34.765625 25.78125 34.765625 
L 14.453125 34.765625 
L 14.453125 5.46875 
Q 14.453125 3.90625 15.421875 3.125 
Q 16.40625 2.34375 17.96875 2.34375 
L 28.125 2.34375 
Q 33.984375 2.34375 38.078125 5.65625 
Q 42.1875 8.984375 44.53125 16.015625 
L 46.484375 15.234375 
L 42.1875 0 
L 2.34375 0 
L 2.34375 2.34375 
L 4.6875 2.34375 
Q 6.640625 2.34375 7.421875 3.125 
Q 8.203125 3.90625 8.203125 5.46875 
L 8.203125 61.328125 
Q 8.203125 62.890625 7.421875 63.671875 
Q 6.640625 64.453125 4.6875 64.453125 
z
" id="FangSong-45"/>
     <path d="M 14.0625 66.796875 
Q 17.578125 66.796875 20.703125 67.578125 
Q 23.828125 68.359375 26.5625 69.921875 
L 27.34375 69.921875 
L 27.34375 5.46875 
Q 27.34375 3.90625 28.3125 3.125 
Q 29.296875 2.34375 30.859375 2.34375 
L 39.84375 2.34375 
L 39.84375 0 
L 9.375 0 
L 9.375 2.34375 
L 18.359375 2.34375 
Q 20.3125 2.34375 21.09375 3.125 
Q 21.875 3.90625 21.875 5.46875 
L 21.875 61.328125 
Q 21.875 62.890625 21.09375 63.671875 
Q 20.3125 64.453125 18.359375 64.453125 
L 9.765625 64.453125 
L 9.765625 66.796875 
z
" id="FangSong-6c"/>
     <path d="M 13.28125 34.765625 
Q 15.234375 39.0625 19.53125 41.59375 
Q 23.828125 44.140625 27.734375 44.140625 
Q 35.9375 44.140625 40.03125 38.46875 
Q 44.140625 32.8125 44.140625 21.875 
Q 44.140625 10.9375 38.859375 5.265625 
Q 33.59375 -0.390625 25.78125 -0.390625 
Q 21.875 -0.390625 18.546875 0.96875 
Q 15.234375 2.34375 12.890625 4.6875 
L 9.375 0 
L 7.8125 0 
L 7.8125 61.328125 
Q 7.8125 62.890625 7.03125 63.671875 
Q 6.25 64.453125 4.296875 64.453125 
L 1.953125 64.453125 
L 1.953125 66.796875 
L 5.46875 66.796875 
Q 7.421875 66.796875 9.375 67.578125 
Q 11.328125 68.359375 13.28125 69.921875 
z
M 13.28125 12.890625 
Q 13.28125 8.59375 16.203125 5.46875 
Q 19.140625 2.34375 25 2.34375 
Q 32.03125 2.34375 34.953125 7.21875 
Q 37.890625 12.109375 37.890625 21.875 
Q 37.890625 31.25 35.34375 36.125 
Q 32.8125 41.015625 27.34375 41.015625 
Q 22.65625 41.015625 19.140625 38.28125 
Q 15.625 35.546875 13.28125 28.515625 
z
" id="FangSong-62"/>
     <path d="M 44.921875 21.875 
Q 44.921875 12.109375 39.0625 5.65625 
Q 33.203125 -0.78125 24.609375 -0.78125 
Q 15.625 -0.78125 9.953125 5.859375 
Q 4.296875 12.5 4.296875 21.875 
Q 4.296875 30.46875 9.953125 37.5 
Q 15.625 44.53125 24.609375 44.53125 
Q 33.984375 44.53125 39.453125 37.5 
Q 44.921875 30.46875 44.921875 21.875 
z
M 10.546875 21.484375 
Q 10.546875 11.328125 14.640625 6.4375 
Q 18.75 1.5625 24.609375 1.5625 
Q 31.25 1.5625 34.953125 6.828125 
Q 38.671875 12.109375 38.671875 21.484375 
Q 38.671875 31.640625 34.5625 36.90625 
Q 30.46875 42.1875 24.609375 42.1875 
Q 19.140625 42.1875 14.84375 36.90625 
Q 10.546875 31.640625 10.546875 21.484375 
z
" id="FangSong-6f"/>
     <path d="M 35.9375 43.75 
L 49.21875 43.75 
L 49.21875 41.40625 
L 47.65625 41.40625 
Q 46.09375 41.40625 44.921875 40.234375 
Q 43.75 39.0625 42.96875 36.328125 
L 33.59375 -0.390625 
L 31.25 -0.390625 
L 24.21875 29.296875 
L 16.796875 -0.390625 
L 14.453125 -0.390625 
L 5.46875 35.546875 
Q 5.078125 38.28125 3.90625 39.84375 
Q 2.734375 41.40625 1.5625 41.40625 
L 0 41.40625 
L 0 43.75 
L 14.0625 43.75 
L 14.0625 41.40625 
L 12.5 41.40625 
Q 10.9375 41.40625 10.546875 40.03125 
Q 10.15625 38.671875 10.546875 36.328125 
L 16.40625 10.9375 
L 17.1875 10.9375 
L 23.046875 34.375 
Q 22.65625 37.890625 21.484375 39.640625 
Q 20.3125 41.40625 18.75 41.40625 
L 17.578125 41.40625 
L 17.578125 43.75 
L 30.859375 43.75 
L 30.859375 41.40625 
L 29.6875 41.40625 
Q 28.125 41.40625 27.734375 40.03125 
Q 27.34375 38.671875 27.734375 36.328125 
L 33.59375 10.9375 
L 33.984375 10.9375 
L 40.625 38.28125 
Q 41.015625 39.84375 40.234375 40.625 
Q 39.453125 41.40625 37.890625 41.40625 
L 35.9375 41.40625 
z
" id="FangSong-77"/>
     <path id="FangSong-20"/>
     <path d="M 82.03125 55.46875 
L 86.71875 51.171875 
L 83.59375 48.4375 
Q 78.90625 7.03125 77.34375 0.390625 
Q 75.78125 -6.25 75.1875 -4.875 
Q 74.609375 -3.515625 73.828125 2.34375 
L 25.390625 -1.171875 
Q 25.78125 -6.640625 24.609375 -5.859375 
L 19.921875 0 
Q 21.875 3.125 21.484375 6.25 
L 19.53125 40.234375 
Q 19.53125 47.265625 17.578125 53.125 
L 19.140625 53.515625 
L 22.65625 46.875 
L 40.234375 48.4375 
L 40.234375 66.40625 
Q 40.625 73.4375 37.890625 76.953125 
L 39.0625 77.734375 
L 45.3125 71.484375 
Q 43.359375 70.703125 43.75 66.015625 
L 43.75 48.828125 
L 57.421875 50 
L 57.421875 70.703125 
Q 57.421875 78.90625 54.6875 80.859375 
L 55.46875 82.03125 
L 63.28125 76.171875 
Q 60.546875 75.390625 60.9375 69.53125 
L 60.9375 50.390625 
L 79.296875 52.34375 
z
M 60.9375 30.078125 
Q 70.3125 31.25 69.921875 32.03125 
L 73.4375 27.34375 
Q 68.75 27.34375 60.9375 26.5625 
L 60.9375 5.078125 
Q 71.09375 5.859375 71.09375 6.640625 
L 73.828125 2.734375 
Q 75.78125 7.421875 79.296875 48.046875 
L 60.9375 46.875 
L 60.9375 30.078125 
z
M 40.234375 24.21875 
Q 32.421875 23.4375 31.25 22.65625 
L 26.5625 26.953125 
Q 30.859375 26.953125 40.234375 27.734375 
L 40.234375 44.921875 
L 23.4375 43.359375 
L 25.390625 2.734375 
L 40.234375 3.515625 
z
M 43.75 3.90625 
L 57.421875 4.6875 
L 57.421875 26.171875 
L 43.75 24.609375 
z
M 57.421875 29.6875 
L 57.421875 46.484375 
L 43.75 45.3125 
L 43.75 28.125 
z
" id="FangSong-66f2"/>
     <path d="M 64.0625 17.578125 
Q 69.53125 22.65625 72.453125 26.5625 
Q 75.390625 30.46875 75 33.59375 
L 76.171875 33.984375 
L 78.90625 25.390625 
Q 77.34375 25.78125 74.609375 23.046875 
Q 71.875 20.3125 65.625 13.671875 
Q 75 0 84.765625 -3.125 
L 85.546875 12.5 
L 87.109375 12.5 
Q 88.28125 -5.46875 89.453125 -9.765625 
Q 73.4375 -5.46875 62.890625 11.328125 
Q 53.515625 2.34375 36.328125 -5.46875 
L 35.546875 -3.90625 
Q 49.21875 2.734375 61.328125 14.84375 
Q 58.59375 21.09375 55.859375 32.03125 
Q 46.484375 29.296875 45.3125 28.515625 
L 39.84375 30.859375 
Q 44.921875 32.03125 55.46875 35.15625 
Q 54.6875 40.234375 53.515625 47.265625 
Q 48.046875 46.09375 46.09375 44.921875 
L 41.40625 47.265625 
Q 44.53125 48.046875 53.515625 50.390625 
Q 51.953125 62.890625 51.5625 69.71875 
Q 51.171875 76.5625 48.828125 80.078125 
L 50 81.25 
L 57.03125 75.390625 
Q 55.46875 72.65625 55.65625 67.578125 
Q 55.859375 62.5 56.640625 51.953125 
Q 71.09375 56.25 71.875 57.421875 
L 77.34375 54.296875 
Q 71.875 53.125 57.03125 48.4375 
Q 57.8125 40.625 58.984375 35.9375 
Q 78.125 42.578125 78.90625 43.75 
L 84.375 40.625 
Q 81.640625 40.234375 59.375 33.203125 
Q 61.328125 23.4375 64.0625 17.578125 
z
M 39.453125 26.953125 
Q 21.484375 21.09375 18.359375 19.140625 
L 14.84375 23.4375 
L 19.140625 24.609375 
L 30.46875 42.578125 
Q 18.359375 40.234375 15.234375 38.28125 
L 12.109375 42.96875 
L 16.40625 44.921875 
Q 24.21875 59.375 27.140625 66.40625 
Q 30.078125 73.4375 28.90625 76.5625 
L 30.078125 77.34375 
L 34.765625 69.921875 
Q 33.203125 70.703125 28.3125 61.515625 
Q 23.4375 52.34375 19.140625 43.75 
L 32.421875 45.703125 
Q 38.28125 54.6875 37.109375 58.59375 
L 38.28125 59.375 
L 42.1875 51.953125 
Q 40.625 51.953125 36.515625 45.703125 
Q 32.421875 39.453125 23.046875 25.390625 
L 39.0625 28.515625 
z
M 44.140625 12.890625 
Q 17.1875 0.78125 15.625 -0.390625 
L 9.765625 3.125 
Q 15.625 3.90625 43.359375 14.84375 
z
M 73.4375 60.9375 
Q 69.53125 65.234375 61.328125 72.65625 
L 62.109375 74.21875 
Q 70.703125 69.921875 73.4375 68.75 
z
" id="FangSong-7ebf"/>
    </defs>
    <g transform="translate(223.3 28.56)scale(0.14 -0.14)">
     <use xlink:href="#FangSong-45"/>
     <use x="50" xlink:href="#FangSong-6c"/>
     <use x="100" xlink:href="#FangSong-62"/>
     <use x="150" xlink:href="#FangSong-6f"/>
     <use x="200" xlink:href="#FangSong-77"/>
     <use x="250" xlink:href="#FangSong-20"/>
     <use x="300" xlink:href="#FangSong-66f2"/>
     <use x="400" xlink:href="#FangSong-7ebf"/>
    </g>
   </g>
  </g>
 </g>
 <defs>
  <clipPath id="pce872c7b0a">
   <rect height="217.44" width="390.6" x="63" y="34.56"/>
  </clipPath>
 </defs>
</svg>
