<?xml version="1.0" encoding="utf-8" standalone="no"?>
<!DOCTYPE svg PUBLIC "-//W3C//DTD SVG 1.1//EN"
  "http://www.w3.org/Graphics/SVG/1.1/DTD/svg11.dtd">
<!-- Created with matplotlib (http://matplotlib.org/) -->
<svg height="288pt" version="1.1" viewBox="0 0 720 288" width="720pt" xmlns="http://www.w3.org/2000/svg" xmlns:xlink="http://www.w3.org/1999/xlink">
 <defs>
  <style type="text/css">
*{stroke-linecap:butt;stroke-linejoin:round;}
  </style>
 </defs>
 <g id="figure_1">
  <g id="patch_1">
   <path d="M 0 288 
L 720 288 
L 720 0 
L 0 0 
z
" style="fill:#ffffff;"/>
  </g>
  <g id="axes_1">
   <g id="patch_2">
    <path d="M 90 252 
L 648 252 
L 648 34.56 
L 90 34.56 
z
" style="fill:#ffffff;"/>
   </g>
   <g id="matplotlib.axis_1">
    <g id="xtick_1">
     <g id="line2d_1">
      <defs>
       <path d="M 0 0 
L 0 3.5 
" id="m14f7fe5f73" style="stroke:#000000;stroke-width:0.8;"/>
      </defs>
      <g>
       <use style="stroke:#000000;stroke-width:0.8;" x="115.363636" xlink:href="#m14f7fe5f73" y="252"/>
      </g>
     </g>
     <g id="text_1">
      <!-- 0 -->
      <defs>
       <path d="M 24.609375 64.453125 
Q 19.140625 64.453125 15.421875 56.046875 
Q 11.71875 47.65625 11.71875 33.59375 
Q 11.71875 18.75 15.421875 10.546875 
Q 19.140625 2.34375 24.609375 2.34375 
Q 30.46875 2.34375 33.78125 10.546875 
Q 37.109375 18.75 37.109375 33.59375 
Q 37.109375 47.65625 33.984375 56.046875 
Q 30.859375 64.453125 24.609375 64.453125 
z
M 24.609375 -0.78125 
Q 16.015625 -0.78125 10.15625 8.203125 
Q 4.296875 17.1875 4.296875 33.59375 
Q 4.296875 48.828125 9.953125 58.203125 
Q 15.625 67.578125 24.609375 67.578125 
Q 33.203125 67.578125 38.859375 58.59375 
Q 44.53125 49.609375 44.53125 33.59375 
Q 44.53125 17.578125 38.859375 8.390625 
Q 33.203125 -0.78125 24.609375 -0.78125 
z
" id="FangSong-30"/>
      </defs>
      <g transform="translate(112.863636 265.992188)scale(0.1 -0.1)">
       <use xlink:href="#FangSong-30"/>
      </g>
     </g>
    </g>
    <g id="xtick_2">
     <g id="line2d_2">
      <g>
       <use style="stroke:#000000;stroke-width:0.8;" x="193.646465" xlink:href="#m14f7fe5f73" y="252"/>
      </g>
     </g>
     <g id="text_2">
      <!-- 100 -->
      <defs>
       <path d="M 28.125 67.96875 
L 28.125 8.59375 
Q 28.125 5.46875 30.078125 3.90625 
Q 32.03125 2.34375 35.546875 2.34375 
L 39.453125 2.34375 
L 39.453125 0 
L 10.9375 0 
L 10.9375 2.34375 
L 14.453125 2.34375 
Q 18.359375 2.34375 20.109375 3.90625 
Q 21.875 5.46875 21.875 8.59375 
L 21.875 55.859375 
Q 21.875 57.421875 20.890625 58.390625 
Q 19.921875 59.375 17.96875 59.375 
L 10.9375 59.375 
L 10.9375 61.71875 
L 14.453125 61.71875 
Q 19.140625 61.71875 22.0625 63.28125 
Q 25 64.84375 26.5625 67.96875 
z
" id="FangSong-31"/>
      </defs>
      <g transform="translate(186.146465 265.992188)scale(0.1 -0.1)">
       <use xlink:href="#FangSong-31"/>
       <use x="50" xlink:href="#FangSong-30"/>
       <use x="100" xlink:href="#FangSong-30"/>
      </g>
     </g>
    </g>
    <g id="xtick_3">
     <g id="line2d_3">
      <g>
       <use style="stroke:#000000;stroke-width:0.8;" x="271.929293" xlink:href="#m14f7fe5f73" y="252"/>
      </g>
     </g>
     <g id="text_3">
      <!-- 200 -->
      <defs>
       <path d="M 35.9375 50.390625 
Q 35.9375 57.421875 32.8125 61.125 
Q 29.6875 64.84375 23.4375 64.84375 
Q 18.75 64.84375 15.421875 62.296875 
Q 12.109375 59.765625 12.109375 55.859375 
Q 12.109375 53.515625 13.46875 51.953125 
Q 14.84375 50.390625 14.84375 48.828125 
Q 14.84375 46.875 13.859375 45.890625 
Q 12.890625 44.921875 10.9375 44.921875 
Q 8.59375 44.921875 7.21875 46.28125 
Q 5.859375 47.65625 5.859375 50.78125 
Q 5.859375 58.984375 11.71875 63.28125 
Q 17.578125 67.578125 24.21875 67.578125 
Q 33.59375 67.578125 38.078125 62.890625 
Q 42.578125 58.203125 42.578125 51.171875 
Q 42.578125 46.484375 40.421875 41.796875 
Q 38.28125 37.109375 33.59375 32.8125 
Q 22.265625 21.875 16.203125 15.03125 
Q 10.15625 8.203125 8.984375 5.859375 
L 32.03125 5.859375 
Q 35.546875 5.859375 37.890625 8.59375 
Q 40.234375 11.328125 41.015625 16.796875 
L 43.359375 16.796875 
L 41.015625 0 
L 4.6875 0 
L 4.6875 5.078125 
Q 6.640625 8.59375 11.125 14.0625 
Q 15.625 19.53125 23.046875 26.953125 
Q 29.6875 33.59375 32.8125 39.453125 
Q 35.9375 45.3125 35.9375 50.390625 
z
" id="FangSong-32"/>
      </defs>
      <g transform="translate(264.429293 265.992188)scale(0.1 -0.1)">
       <use xlink:href="#FangSong-32"/>
       <use x="50" xlink:href="#FangSong-30"/>
       <use x="100" xlink:href="#FangSong-30"/>
      </g>
     </g>
    </g>
    <g id="xtick_4">
     <g id="line2d_4">
      <g>
       <use style="stroke:#000000;stroke-width:0.8;" x="350.212121" xlink:href="#m14f7fe5f73" y="252"/>
      </g>
     </g>
     <g id="text_4">
      <!-- 300 -->
      <defs>
       <path d="M 43.359375 17.96875 
Q 43.359375 10.546875 37.890625 4.875 
Q 32.421875 -0.78125 22.65625 -0.78125 
Q 15.625 -0.78125 10.546875 3.125 
Q 5.46875 7.03125 5.46875 12.109375 
Q 5.46875 14.453125 7.03125 16.203125 
Q 8.59375 17.96875 10.15625 17.96875 
Q 12.5 17.96875 13.46875 16.203125 
Q 14.453125 14.453125 14.453125 13.28125 
Q 14.453125 11.328125 13.671875 9.953125 
Q 12.890625 8.59375 12.890625 7.421875 
Q 12.890625 5.078125 15.8125 3.515625 
Q 18.75 1.953125 22.265625 1.953125 
Q 29.296875 1.953125 32.8125 6.046875 
Q 36.328125 10.15625 36.328125 18.75 
Q 36.328125 25.78125 32.609375 30.078125 
Q 28.90625 34.375 18.75 34.375 
L 18.75 37.109375 
Q 26.5625 37.109375 30.265625 40.8125 
Q 33.984375 44.53125 33.984375 51.171875 
Q 33.984375 56.640625 31.046875 60.734375 
Q 28.125 64.84375 21.875 64.84375 
Q 19.140625 64.84375 16.015625 63.46875 
Q 12.890625 62.109375 12.890625 58.984375 
Q 12.890625 55.859375 13.671875 55.078125 
Q 14.453125 54.296875 14.453125 53.125 
Q 14.453125 51.171875 13.671875 50 
Q 12.890625 48.828125 10.9375 48.828125 
Q 9.375 48.828125 8 50 
Q 6.640625 51.171875 6.640625 54.296875 
Q 6.640625 60.15625 11.71875 63.859375 
Q 16.796875 67.578125 23.4375 67.578125 
Q 31.25 67.578125 35.9375 62.6875 
Q 40.625 57.8125 40.625 52.34375 
Q 40.625 46.484375 37.6875 42.375 
Q 34.765625 38.28125 28.515625 36.328125 
Q 37.109375 33.203125 40.234375 28.125 
Q 43.359375 23.046875 43.359375 17.96875 
z
" id="FangSong-33"/>
      </defs>
      <g transform="translate(342.712121 265.992188)scale(0.1 -0.1)">
       <use xlink:href="#FangSong-33"/>
       <use x="50" xlink:href="#FangSong-30"/>
       <use x="100" xlink:href="#FangSong-30"/>
      </g>
     </g>
    </g>
    <g id="xtick_5">
     <g id="line2d_5">
      <g>
       <use style="stroke:#000000;stroke-width:0.8;" x="428.494949" xlink:href="#m14f7fe5f73" y="252"/>
      </g>
     </g>
     <g id="text_5">
      <!-- 400 -->
      <defs>
       <path d="M 35.546875 7.421875 
Q 35.546875 4.6875 37.109375 3.515625 
Q 38.671875 2.34375 41.40625 2.34375 
L 44.921875 2.34375 
L 44.921875 0 
L 19.140625 0 
L 19.140625 2.34375 
L 23.4375 2.34375 
Q 26.5625 2.34375 27.921875 3.515625 
Q 29.296875 4.6875 29.296875 7.421875 
L 29.296875 20.3125 
L 3.125 20.3125 
L 3.125 22.265625 
L 31.640625 67.578125 
L 35.546875 67.578125 
L 35.546875 22.65625 
L 46.09375 22.65625 
L 46.09375 20.3125 
L 35.546875 20.3125 
z
M 28.90625 57.8125 
L 6.640625 22.65625 
L 29.296875 22.65625 
L 29.296875 57.8125 
z
" id="FangSong-34"/>
      </defs>
      <g transform="translate(420.994949 265.992188)scale(0.1 -0.1)">
       <use xlink:href="#FangSong-34"/>
       <use x="50" xlink:href="#FangSong-30"/>
       <use x="100" xlink:href="#FangSong-30"/>
      </g>
     </g>
    </g>
    <g id="xtick_6">
     <g id="line2d_6">
      <g>
       <use style="stroke:#000000;stroke-width:0.8;" x="506.777778" xlink:href="#m14f7fe5f73" y="252"/>
      </g>
     </g>
     <g id="text_6">
      <!-- 500 -->
      <defs>
       <path d="M 26.5625 42.96875 
Q 33.984375 42.96875 38.671875 37.296875 
Q 43.359375 31.640625 43.359375 22.265625 
Q 43.359375 11.71875 38.46875 5.46875 
Q 33.59375 -0.78125 23.4375 -0.78125 
Q 16.40625 -0.78125 10.9375 3.3125 
Q 5.46875 7.421875 5.46875 13.28125 
Q 5.46875 15.625 6.828125 17.375 
Q 8.203125 19.140625 10.546875 19.140625 
Q 12.890625 19.140625 13.671875 17.578125 
Q 14.453125 16.015625 14.453125 14.84375 
Q 14.453125 12.5 13.28125 11.125 
Q 12.109375 9.765625 12.109375 8.203125 
Q 12.109375 5.078125 15.8125 3.515625 
Q 19.53125 1.953125 23.828125 1.953125 
Q 30.078125 1.953125 33.390625 7.03125 
Q 36.71875 12.109375 36.71875 21.484375 
Q 36.71875 29.296875 33.78125 34.171875 
Q 30.859375 39.0625 25 39.0625 
Q 20.703125 39.0625 17.578125 37.5 
Q 14.453125 35.9375 11.71875 30.859375 
L 8.203125 31.25 
L 10.15625 66.796875 
L 42.1875 66.796875 
L 41.015625 60.9375 
L 12.890625 60.9375 
L 11.328125 35.15625 
Q 15.234375 40.625 18.9375 41.796875 
Q 22.65625 42.96875 26.5625 42.96875 
z
" id="FangSong-35"/>
      </defs>
      <g transform="translate(499.277778 265.992188)scale(0.1 -0.1)">
       <use xlink:href="#FangSong-35"/>
       <use x="50" xlink:href="#FangSong-30"/>
       <use x="100" xlink:href="#FangSong-30"/>
      </g>
     </g>
    </g>
    <g id="xtick_7">
     <g id="line2d_7">
      <g>
       <use style="stroke:#000000;stroke-width:0.8;" x="585.060606" xlink:href="#m14f7fe5f73" y="252"/>
      </g>
     </g>
     <g id="text_7">
      <!-- 600 -->
      <defs>
       <path d="M 11.71875 26.5625 
Q 11.71875 14.84375 15.8125 8.390625 
Q 19.921875 1.953125 25.78125 1.953125 
Q 31.640625 1.953125 34.765625 6.25 
Q 37.890625 10.546875 37.890625 22.265625 
Q 37.890625 30.078125 34.5625 34.375 
Q 31.25 38.671875 26.5625 38.671875 
Q 22.265625 38.671875 18.546875 36.125 
Q 14.84375 33.59375 11.71875 26.5625 
z
M 26.953125 42.578125 
Q 36.328125 42.578125 40.421875 36.328125 
Q 44.53125 30.078125 44.53125 22.265625 
Q 44.53125 10.546875 38.859375 4.875 
Q 33.203125 -0.78125 25.78125 -0.78125 
Q 15.234375 -0.78125 9.765625 7.21875 
Q 4.296875 15.234375 4.296875 30.46875 
Q 4.296875 48.4375 10.9375 58 
Q 17.578125 67.578125 28.90625 67.578125 
Q 34.375 67.578125 37.6875 64.453125 
Q 41.015625 61.328125 41.015625 58.984375 
Q 41.015625 56.640625 40.03125 55.46875 
Q 39.0625 54.296875 36.71875 54.296875 
Q 34.765625 54.296875 33.78125 55.265625 
Q 32.8125 56.25 32.8125 58.203125 
Q 32.8125 58.984375 33 59.765625 
Q 33.203125 60.546875 33.203125 61.328125 
Q 33.203125 62.890625 32.03125 63.859375 
Q 30.859375 64.84375 27.734375 64.84375 
Q 21.09375 64.84375 16.40625 58.78125 
Q 11.71875 52.734375 11.71875 32.421875 
Q 14.0625 37.5 18.15625 40.03125 
Q 22.265625 42.578125 26.953125 42.578125 
z
" id="FangSong-36"/>
      </defs>
      <g transform="translate(577.560606 265.992188)scale(0.1 -0.1)">
       <use xlink:href="#FangSong-36"/>
       <use x="50" xlink:href="#FangSong-30"/>
       <use x="100" xlink:href="#FangSong-30"/>
      </g>
     </g>
    </g>
    <g id="text_8">
     <!-- 时间序列 -->
     <defs>
      <path d="M 18.75 11.328125 
Q 19.140625 -0.78125 17.1875 1.953125 
L 13.671875 8.59375 
Q 15.625 11.328125 15.234375 17.578125 
L 15.234375 52.34375 
Q 15.234375 60.15625 14.0625 68.359375 
L 15.234375 68.75 
L 17.96875 61.328125 
L 35.546875 64.0625 
L 37.5 67.578125 
L 42.1875 64.0625 
L 39.453125 60.546875 
Q 39.453125 22.265625 38.46875 13.078125 
Q 37.5 3.90625 36.328125 5.265625 
Q 35.15625 6.640625 34.375 13.28125 
L 18.75 11.328125 
z
M 18.75 15.234375 
Q 30.078125 16.40625 30.859375 17.1875 
L 34.765625 13.28125 
Q 35.546875 25.390625 35.546875 33.984375 
L 35.546875 59.765625 
L 18.75 57.421875 
L 18.75 39.453125 
Q 29.296875 40.625 31.640625 42.1875 
L 35.15625 37.5 
Q 29.6875 37.109375 18.75 35.546875 
z
M 67.578125 82.03125 
L 74.609375 76.171875 
Q 72.265625 74.609375 72.65625 67.1875 
L 72.65625 48.4375 
Q 88.28125 50.390625 88.28125 51.953125 
L 93.75 47.265625 
Q 87.890625 46.875 72.65625 44.921875 
L 72.65625 6.640625 
Q 73.046875 -5.46875 69.921875 -10.546875 
Q 66.015625 -5.078125 53.125 4.296875 
L 53.90625 5.859375 
L 68.359375 -2.34375 
Q 69.140625 2.34375 69.140625 6.640625 
L 69.140625 44.53125 
Q 48.4375 41.796875 45.3125 40.625 
L 39.84375 45.3125 
Q 46.875 45.3125 69.140625 48.046875 
L 69.140625 68.75 
Q 69.53125 76.953125 66.40625 80.859375 
z
M 55.078125 19.921875 
Q 51.953125 28.90625 47.65625 38.28125 
L 48.828125 39.0625 
Q 53.515625 32.8125 58.203125 26.171875 
Q 57.03125 23.4375 55.078125 19.921875 
z
" id="FangSong-65f6"/>
      <path d="M 64.84375 22.65625 
L 39.453125 20.3125 
Q 39.84375 12.5 38.28125 14.0625 
L 34.765625 19.921875 
Q 35.9375 21.875 35.9375 25.78125 
L 35.9375 44.921875 
Q 36.328125 50.390625 34.375 55.078125 
L 35.546875 55.859375 
L 39.0625 50.390625 
L 58.59375 53.125 
L 60.9375 56.25 
L 65.625 51.953125 
L 62.890625 49.21875 
L 62.109375 25.78125 
z
M 78.125 76.953125 
L 83.203125 73.046875 
L 80.859375 69.921875 
L 80.859375 7.03125 
Q 80.859375 -5.078125 77.734375 -10.15625 
Q 73.4375 -3.515625 62.109375 7.8125 
L 63.28125 8.984375 
L 76.171875 -1.171875 
Q 76.953125 -1.171875 77.34375 6.640625 
L 77.34375 69.921875 
Q 48.046875 66.796875 45.703125 66.40625 
L 39.84375 69.921875 
Q 45.703125 69.53125 76.171875 73.4375 
z
M 58.984375 49.21875 
L 39.453125 46.875 
L 39.453125 37.109375 
Q 50.390625 38.671875 51.5625 39.84375 
L 55.46875 35.9375 
Q 51.5625 35.9375 39.453125 33.984375 
L 39.453125 23.828125 
L 58.203125 25.78125 
z
M 21.875 -3.515625 
Q 22.265625 -10.546875 20.703125 -8.59375 
L 16.796875 -2.734375 
Q 18.359375 -0.390625 18.359375 5.46875 
L 18.359375 54.296875 
Q 18.359375 60.9375 16.015625 66.015625 
L 17.1875 66.796875 
L 23.046875 60.546875 
Q 21.875 58.203125 21.875 52.734375 
z
M 22.265625 80.859375 
Q 30.46875 73.828125 34.375 70.703125 
Q 33.203125 66.796875 32.03125 63.671875 
Q 29.296875 69.140625 21.09375 79.6875 
z
" id="FangSong-95f4"/>
      <path d="M 85.546875 39.453125 
L 90.234375 35.546875 
Q 86.71875 33.59375 77.34375 21.484375 
L 75.390625 22.265625 
L 81.640625 32.421875 
L 57.8125 30.078125 
L 62.890625 26.953125 
Q 60.9375 25 61.71875 21.875 
L 61.71875 0.78125 
Q 61.71875 -6.25 58.59375 -10.9375 
Q 55.46875 -6.25 43.75 2.34375 
L 44.53125 3.515625 
L 57.421875 -3.125 
Q 58.203125 0.390625 58.203125 5.078125 
L 58.203125 21.484375 
Q 57.8125 27.34375 57.03125 30.078125 
Q 36.71875 27.34375 35.15625 26.5625 
L 29.6875 30.859375 
Q 35.9375 30.859375 61.328125 33.984375 
Q 58.203125 37.109375 48.4375 44.140625 
L 49.21875 45.703125 
L 58.984375 41.015625 
L 67.96875 51.953125 
Q 44.921875 49.21875 42.1875 48.828125 
L 37.5 52.734375 
Q 42.96875 52.34375 70.703125 55.859375 
L 72.65625 59.375 
L 78.125 54.6875 
Q 75 53.125 70.3125 49.015625 
Q 65.625 44.921875 60.9375 39.84375 
L 64.0625 38.671875 
Q 63.671875 36.328125 62.5 33.984375 
L 82.8125 36.328125 
z
M 58.203125 67.1875 
Q 57.03125 69.53125 46.875 80.078125 
L 47.65625 81.640625 
Q 55.859375 76.5625 60.15625 73.828125 
Q 59.375 70.703125 58.59375 67.1875 
Q 82.8125 69.53125 84.765625 70.703125 
L 89.84375 66.015625 
Q 85.546875 66.015625 28.515625 60.9375 
Q 28.125 43.75 27.140625 34.171875 
Q 26.171875 24.609375 21.875 14.0625 
Q 17.578125 3.515625 7.8125 -7.03125 
L 6.640625 -5.859375 
Q 15.234375 5.46875 18.546875 15.234375 
Q 21.875 25 23.046875 32.21875 
Q 24.21875 39.453125 24.609375 53.125 
Q 25 66.796875 23.4375 72.65625 
L 25 73.046875 
L 28.515625 64.84375 
z
" id="FangSong-5e8f"/>
      <path d="M 84.375 5.859375 
Q 84.765625 -3.90625 81.25 -10.15625 
Q 75.78125 -3.125 64.453125 5.859375 
L 65.234375 6.640625 
L 79.6875 -1.5625 
Q 80.859375 3.90625 80.859375 8.59375 
L 80.859375 66.796875 
Q 81.25 77.34375 77.34375 80.859375 
L 78.515625 81.640625 
L 85.546875 76.171875 
Q 83.984375 75 84.375 67.578125 
z
M 48.046875 50.78125 
L 50.390625 54.6875 
L 55.46875 49.609375 
L 52.34375 47.65625 
Q 46.484375 28.125 36.328125 14.25 
Q 26.171875 0.390625 9.765625 -9.375 
L 9.375 -7.421875 
Q 23.828125 1.953125 33.390625 16.015625 
Q 42.96875 30.078125 48.046875 46.875 
Q 34.375 44.921875 33.203125 43.75 
L 28.90625 46.484375 
Q 26.171875 42.1875 23.4375 37.5 
Q 31.25 33.203125 34.375 30.859375 
Q 33.984375 27.34375 32.421875 23.4375 
Q 28.90625 30.078125 22.265625 35.9375 
Q 18.359375 29.296875 10.9375 21.484375 
L 9.765625 22.265625 
Q 19.140625 35.15625 25 47.65625 
Q 30.859375 60.15625 31.640625 66.015625 
Q 20.3125 64.453125 17.578125 63.671875 
L 12.890625 67.96875 
Q 19.140625 67.96875 35.34375 69.921875 
Q 51.5625 71.875 54.6875 73.046875 
L 58.59375 68.359375 
Q 50.78125 68.359375 33.984375 66.015625 
L 36.71875 61.71875 
Q 35.15625 62.5 29.296875 48.4375 
z
M 67.1875 28.515625 
Q 67.578125 18.359375 65.625 20.3125 
L 61.71875 26.953125 
Q 63.671875 28.515625 63.671875 33.203125 
L 63.671875 52.734375 
Q 63.671875 58.984375 61.328125 62.5 
L 62.5 63.28125 
L 68.75 57.421875 
Q 66.796875 56.640625 67.1875 50.390625 
z
" id="FangSong-5217"/>
     </defs>
     <g transform="translate(341 282.429688)scale(0.14 -0.14)">
      <use xlink:href="#FangSong-65f6"/>
      <use x="100" xlink:href="#FangSong-95f4"/>
      <use x="200" xlink:href="#FangSong-5e8f"/>
      <use x="300" xlink:href="#FangSong-5217"/>
     </g>
    </g>
   </g>
   <g id="matplotlib.axis_2">
    <g id="ytick_1">
     <g id="line2d_8">
      <defs>
       <path d="M 0 0 
L -3.5 0 
" id="m60b85b8770" style="stroke:#000000;stroke-width:0.8;"/>
      </defs>
      <g>
       <use style="stroke:#000000;stroke-width:0.8;" x="90" xlink:href="#m60b85b8770" y="242.116364"/>
      </g>
     </g>
     <g id="text_9">
      <!-- 0.0 -->
      <defs>
       <path d="M 17.578125 4.296875 
Q 17.578125 1.953125 16.015625 0.390625 
Q 14.453125 -1.171875 12.109375 -1.171875 
Q 9.765625 -1.171875 8.203125 0.390625 
Q 6.640625 1.953125 6.640625 4.296875 
Q 6.640625 6.640625 8.203125 8.203125 
Q 9.765625 9.765625 12.109375 9.765625 
Q 14.453125 9.765625 16.015625 8.203125 
Q 17.578125 6.640625 17.578125 4.296875 
z
" id="FangSong-2e"/>
      </defs>
      <g transform="translate(68 245.612457)scale(0.1 -0.1)">
       <use xlink:href="#FangSong-30"/>
       <use x="50" xlink:href="#FangSong-2e"/>
       <use x="100" xlink:href="#FangSong-30"/>
      </g>
     </g>
    </g>
    <g id="ytick_2">
     <g id="line2d_9">
      <g>
       <use style="stroke:#000000;stroke-width:0.8;" x="90" xlink:href="#m60b85b8770" y="217.039884"/>
      </g>
     </g>
     <g id="text_10">
      <!-- 0.1 -->
      <g transform="translate(68 220.535978)scale(0.1 -0.1)">
       <use xlink:href="#FangSong-30"/>
       <use x="50" xlink:href="#FangSong-2e"/>
       <use x="100" xlink:href="#FangSong-31"/>
      </g>
     </g>
    </g>
    <g id="ytick_3">
     <g id="line2d_10">
      <g>
       <use style="stroke:#000000;stroke-width:0.8;" x="90" xlink:href="#m60b85b8770" y="191.963405"/>
      </g>
     </g>
     <g id="text_11">
      <!-- 0.2 -->
      <g transform="translate(68 195.459499)scale(0.1 -0.1)">
       <use xlink:href="#FangSong-30"/>
       <use x="50" xlink:href="#FangSong-2e"/>
       <use x="100" xlink:href="#FangSong-32"/>
      </g>
     </g>
    </g>
    <g id="ytick_4">
     <g id="line2d_11">
      <g>
       <use style="stroke:#000000;stroke-width:0.8;" x="90" xlink:href="#m60b85b8770" y="166.886926"/>
      </g>
     </g>
     <g id="text_12">
      <!-- 0.3 -->
      <g transform="translate(68 170.383019)scale(0.1 -0.1)">
       <use xlink:href="#FangSong-30"/>
       <use x="50" xlink:href="#FangSong-2e"/>
       <use x="100" xlink:href="#FangSong-33"/>
      </g>
     </g>
    </g>
    <g id="ytick_5">
     <g id="line2d_12">
      <g>
       <use style="stroke:#000000;stroke-width:0.8;" x="90" xlink:href="#m60b85b8770" y="141.810446"/>
      </g>
     </g>
     <g id="text_13">
      <!-- 0.4 -->
      <g transform="translate(68 145.30654)scale(0.1 -0.1)">
       <use xlink:href="#FangSong-30"/>
       <use x="50" xlink:href="#FangSong-2e"/>
       <use x="100" xlink:href="#FangSong-34"/>
      </g>
     </g>
    </g>
    <g id="ytick_6">
     <g id="line2d_13">
      <g>
       <use style="stroke:#000000;stroke-width:0.8;" x="90" xlink:href="#m60b85b8770" y="116.733967"/>
      </g>
     </g>
     <g id="text_14">
      <!-- 0.5 -->
      <g transform="translate(68 120.230061)scale(0.1 -0.1)">
       <use xlink:href="#FangSong-30"/>
       <use x="50" xlink:href="#FangSong-2e"/>
       <use x="100" xlink:href="#FangSong-35"/>
      </g>
     </g>
    </g>
    <g id="ytick_7">
     <g id="line2d_14">
      <g>
       <use style="stroke:#000000;stroke-width:0.8;" x="90" xlink:href="#m60b85b8770" y="91.657487"/>
      </g>
     </g>
     <g id="text_15">
      <!-- 0.6 -->
      <g transform="translate(68 95.153581)scale(0.1 -0.1)">
       <use xlink:href="#FangSong-30"/>
       <use x="50" xlink:href="#FangSong-2e"/>
       <use x="100" xlink:href="#FangSong-36"/>
      </g>
     </g>
    </g>
    <g id="ytick_8">
     <g id="line2d_15">
      <g>
       <use style="stroke:#000000;stroke-width:0.8;" x="90" xlink:href="#m60b85b8770" y="66.581008"/>
      </g>
     </g>
     <g id="text_16">
      <!-- 0.7 -->
      <defs>
       <path d="M 43.75 64.0625 
Q 35.546875 50.78125 30.65625 38.078125 
Q 25.78125 25.390625 25.78125 16.015625 
Q 25.78125 14.453125 25.96875 11.515625 
Q 26.171875 8.59375 26.171875 4.6875 
Q 26.171875 1.5625 25.1875 0.390625 
Q 24.21875 -0.78125 21.875 -0.78125 
Q 19.921875 -0.78125 18.546875 0.578125 
Q 17.1875 1.953125 17.1875 5.46875 
Q 17.1875 12.890625 20.5 23.828125 
Q 23.828125 34.765625 38.28125 60.9375 
L 18.75 60.9375 
Q 14.453125 60.9375 11.90625 58.203125 
Q 9.375 55.46875 8.203125 50 
L 5.859375 50.390625 
L 8.59375 66.796875 
L 43.75 66.796875 
z
" id="FangSong-37"/>
      </defs>
      <g transform="translate(68 70.077102)scale(0.1 -0.1)">
       <use xlink:href="#FangSong-30"/>
       <use x="50" xlink:href="#FangSong-2e"/>
       <use x="100" xlink:href="#FangSong-37"/>
      </g>
     </g>
    </g>
    <g id="ytick_9">
     <g id="line2d_16">
      <g>
       <use style="stroke:#000000;stroke-width:0.8;" x="90" xlink:href="#m60b85b8770" y="41.504529"/>
      </g>
     </g>
     <g id="text_17">
      <!-- 0.8 -->
      <defs>
       <path d="M 9.375 16.015625 
Q 9.375 9.765625 13.46875 5.859375 
Q 17.578125 1.953125 23.828125 1.953125 
Q 31.25 1.953125 34.5625 5.859375 
Q 37.890625 9.765625 37.890625 15.625 
Q 37.890625 20.703125 33.203125 25.390625 
Q 28.515625 30.078125 19.140625 33.984375 
Q 14.453125 30.859375 11.90625 26.171875 
Q 9.375 21.484375 9.375 16.015625 
z
M 43.75 16.796875 
Q 43.75 9.375 38.28125 4.296875 
Q 32.8125 -0.78125 23.828125 -0.78125 
Q 15.625 -0.78125 9.765625 4.296875 
Q 3.90625 9.375 3.90625 16.015625 
Q 3.90625 22.65625 7.21875 27.34375 
Q 10.546875 32.03125 16.796875 35.546875 
Q 11.328125 38.28125 8.390625 42.375 
Q 5.46875 46.484375 5.46875 51.5625 
Q 5.46875 58.203125 10.546875 62.890625 
Q 15.625 67.578125 24.609375 67.578125 
Q 32.8125 67.578125 37.890625 62.890625 
Q 42.96875 58.203125 42.96875 51.5625 
Q 42.96875 46.875 40.03125 42.765625 
Q 37.109375 38.671875 30.859375 35.546875 
Q 37.5 31.640625 40.625 26.953125 
Q 43.75 22.265625 43.75 16.796875 
z
M 37.5 51.171875 
Q 37.5 56.640625 34.375 60.734375 
Q 31.25 64.84375 24.609375 64.84375 
Q 17.1875 64.84375 14.0625 60.9375 
Q 10.9375 57.03125 10.9375 52.734375 
Q 10.9375 48.4375 15.421875 44.328125 
Q 19.921875 40.234375 28.125 37.109375 
Q 32.8125 39.453125 35.15625 42.96875 
Q 37.5 46.484375 37.5 51.171875 
z
" id="FangSong-38"/>
      </defs>
      <g transform="translate(68 45.000622)scale(0.1 -0.1)">
       <use xlink:href="#FangSong-30"/>
       <use x="50" xlink:href="#FangSong-2e"/>
       <use x="100" xlink:href="#FangSong-38"/>
      </g>
     </g>
    </g>
    <g id="text_18">
     <!-- 归一化数值 -->
     <defs>
      <path d="M 46.09375 62.890625 
Q 54.6875 62.890625 82.03125 66.40625 
L 84.375 69.53125 
L 89.0625 66.015625 
L 86.71875 62.890625 
L 80.46875 12.890625 
L 84.765625 8.984375 
Q 53.515625 6.640625 47.65625 5.46875 
L 41.796875 9.375 
Q 51.953125 9.375 76.171875 12.5 
L 82.421875 62.5 
Q 57.03125 59.765625 51.5625 58.59375 
z
M 42.578125 75.78125 
Q 41.015625 75 41.015625 71.875 
Q 41.015625 68.75 40.8125 53.90625 
Q 40.625 39.0625 38.859375 29.09375 
Q 37.109375 19.140625 31.640625 9.5625 
Q 26.171875 0 12.890625 -10.546875 
L 12.109375 -8.984375 
Q 25 2.34375 30.265625 13.859375 
Q 35.546875 25.390625 36.328125 40.421875 
Q 37.109375 55.46875 37.109375 66.015625 
Q 37.109375 76.953125 34.765625 79.6875 
L 35.9375 80.859375 
L 42.578125 75.78125 
z
M 22.265625 61.328125 
Q 19.921875 60.15625 20.703125 53.90625 
L 20.703125 21.875 
Q 21.09375 13.671875 18.75 16.015625 
L 15.234375 22.265625 
Q 17.1875 24.21875 17.1875 29.296875 
L 17.1875 56.25 
Q 17.1875 63.28125 15.234375 66.796875 
L 16.40625 67.578125 
L 22.265625 61.328125 
z
M 76.953125 37.109375 
Q 70.3125 37.109375 62.6875 36.125 
Q 55.078125 35.15625 51.5625 34.375 
L 46.09375 38.28125 
Q 52.34375 38.28125 61.328125 39.453125 
Q 70.3125 40.625 72.65625 41.796875 
z
" id="FangSong-5f52"/>
      <path d="M 91.796875 40.234375 
Q 82.421875 39.84375 52.53125 37.5 
Q 22.65625 35.15625 15.625 34.375 
L 8.203125 38.28125 
Q 23.046875 38.671875 51.171875 41.015625 
Q 79.296875 43.359375 84.375 44.921875 
z
" id="FangSong-4e00"/>
      <path d="M 57.8125 7.8125 
Q 57.8125 0.390625 68.359375 0 
L 79.296875 0 
Q 85.15625 0 86.125 2.53125 
Q 87.109375 5.078125 87.109375 21.09375 
L 89.0625 21.09375 
Q 89.0625 15.625 89.640625 8.78125 
Q 90.234375 1.953125 92.578125 -2.34375 
Q 87.890625 -3.90625 79.296875 -3.90625 
L 68.359375 -3.90625 
Q 54.296875 -3.90625 54.296875 6.25 
L 54.296875 30.46875 
Q 46.484375 24.21875 35.546875 18.75 
L 34.765625 20.703125 
Q 45.3125 26.5625 54.296875 34.375 
L 54.296875 66.796875 
Q 54.296875 76.171875 51.953125 80.078125 
L 52.734375 80.859375 
L 60.15625 73.828125 
Q 57.421875 72.65625 57.8125 66.015625 
L 57.8125 36.71875 
Q 66.015625 42.96875 73.046875 50.390625 
Q 80.078125 57.8125 79.296875 61.71875 
L 80.46875 61.71875 
L 83.203125 53.125 
Q 82.421875 53.90625 74.609375 46.671875 
Q 66.796875 39.453125 57.8125 32.8125 
z
M 32.03125 -4.6875 
Q 32.03125 -10.9375 30.46875 -8.59375 
L 26.5625 -1.171875 
Q 28.90625 -0.390625 28.515625 4.6875 
L 28.90625 52.34375 
Q 21.875 42.96875 7.8125 31.25 
L 7.03125 32.8125 
Q 21.875 47.65625 31.640625 62.5 
Q 41.40625 77.34375 39.453125 80.46875 
L 40.625 80.859375 
L 44.921875 72.65625 
Q 43.359375 73.4375 40.03125 68.75 
Q 36.71875 64.0625 32.421875 57.421875 
z
" id="FangSong-5316"/>
      <path d="M 77.34375 42.96875 
Q 76.171875 41.796875 74.015625 35.34375 
Q 71.875 28.90625 68.359375 20.3125 
Q 76.171875 4.6875 79.484375 0.578125 
Q 82.8125 -3.515625 93.75 -3.515625 
L 93.75 -5.46875 
L 76.953125 -6.640625 
Q 77.34375 -5.078125 74.796875 0.578125 
Q 72.265625 6.25 66.40625 17.1875 
Q 56.25 0.78125 40.234375 -10.546875 
L 39.0625 -8.984375 
Q 53.125 1.5625 64.0625 20.3125 
Q 57.8125 33.59375 55.46875 36.71875 
Q 53.125 32.03125 50.78125 28.515625 
L 49.21875 29.296875 
Q 53.125 37.890625 55.859375 45.890625 
Q 58.59375 53.90625 61.71875 66.015625 
Q 64.84375 78.125 62.890625 79.6875 
L 64.0625 80.46875 
L 69.140625 75 
Q 67.96875 74.21875 66.984375 70.3125 
Q 66.015625 66.40625 60.9375 50 
Q 83.203125 52.734375 85.546875 54.296875 
L 90.234375 50 
Q 84.765625 49.609375 73.4375 48.046875 
z
M 46.484375 7.03125 
Q 46.875 3.515625 46.875 0.390625 
Q 42.1875 3.125 35.546875 6.25 
Q 25.78125 -3.90625 8.59375 -9.765625 
L 7.8125 -8.203125 
Q 23.046875 -1.171875 31.640625 7.421875 
Q 26.171875 8.984375 19.921875 10.9375 
L 25 21.484375 
Q 15.625 20.3125 12.890625 19.53125 
L 8.203125 23.828125 
Q 12.890625 23.828125 26.5625 25.390625 
Q 28.125 29.296875 28.515625 31.828125 
Q 28.90625 34.375 28.515625 36.71875 
L 29.296875 37.109375 
L 33.59375 31.25 
Q 32.421875 30.859375 30.46875 25.78125 
L 42.578125 26.953125 
Q 43.359375 28.90625 42.96875 32.421875 
L 44.140625 32.8125 
L 48.828125 26.5625 
Q 47.65625 26.5625 45.3125 21.671875 
Q 42.96875 16.796875 38.28125 8.984375 
Q 41.40625 8.203125 46.484375 7.03125 
z
M 36.71875 56.25 
L 41.40625 56.640625 
Q 45.3125 64.84375 46.671875 69.328125 
Q 48.046875 73.828125 47.65625 77.34375 
L 48.828125 78.125 
L 53.125 71.484375 
Q 51.953125 71.09375 50.1875 67.765625 
Q 48.4375 64.453125 43.75 56.640625 
Q 51.171875 58.203125 51.5625 58.59375 
L 55.078125 54.296875 
Q 50.78125 54.296875 36.71875 52.734375 
L 36.71875 50.390625 
Q 43.75 47.265625 50.390625 44.53125 
Q 50.390625 41.40625 50 37.5 
Q 44.53125 42.96875 36.71875 48.046875 
L 36.71875 37.109375 
Q 36.71875 32.03125 35.15625 34.375 
L 31.640625 39.0625 
Q 33.59375 41.015625 33.203125 44.53125 
L 33.203125 50 
Q 21.09375 35.9375 7.421875 27.734375 
L 6.25 29.296875 
Q 18.75 37.890625 29.6875 51.953125 
Q 16.40625 50.390625 15.625 49.609375 
L 10.546875 54.296875 
Q 16.40625 53.90625 33.203125 55.859375 
L 33.203125 69.921875 
Q 33.203125 77.734375 31.25 80.859375 
L 32.421875 81.640625 
L 38.28125 76.953125 
Q 36.71875 75.78125 36.71875 68.75 
z
M 59.375 38.28125 
Q 59.765625 35.9375 61.71875 31.640625 
L 65.625 24.21875 
Q 67.578125 28.125 70.109375 37.109375 
Q 72.65625 46.09375 71.875 47.65625 
L 59.375 46.09375 
Q 57.8125 42.1875 56.25 38.671875 
z
M 33.984375 10.15625 
Q 39.0625 16.796875 41.796875 23.828125 
L 29.296875 21.875 
L 24.609375 12.5 
z
M 25.390625 57.03125 
Q 23.046875 62.5 17.1875 70.703125 
L 18.359375 71.875 
Q 23.046875 67.96875 28.515625 62.890625 
Q 26.953125 59.765625 25.390625 57.03125 
z
" id="FangSong-6570"/>
      <path d="M 74.21875 55.078125 
L 78.90625 50.390625 
L 76.171875 47.65625 
L 75.390625 3.125 
Q 87.109375 3.90625 89.0625 5.078125 
L 92.96875 0.390625 
Q 87.109375 0.78125 62.6875 -1.359375 
Q 38.28125 -3.515625 34.375 -4.296875 
L 30.078125 0 
Q 35.9375 0 44.921875 0.78125 
L 44.140625 43.359375 
Q 44.140625 48.4375 42.1875 52.734375 
L 43.359375 53.515625 
L 47.65625 47.65625 
L 56.640625 48.828125 
L 57.03125 59.765625 
Q 41.40625 57.8125 38.28125 57.03125 
L 33.984375 60.9375 
Q 40.234375 60.9375 57.421875 63.671875 
L 57.8125 70.3125 
Q 58.203125 76.953125 55.859375 80.46875 
L 57.03125 81.640625 
L 63.671875 75.390625 
Q 61.328125 75.390625 61.328125 69.53125 
L 60.9375 64.0625 
Q 79.6875 66.796875 82.8125 67.96875 
L 87.5 63.671875 
Q 82.8125 63.671875 60.546875 60.15625 
L 60.15625 49.21875 
L 72.265625 50.78125 
z
M 47.65625 36.71875 
Q 62.109375 38.671875 66.796875 40.234375 
L 69.53125 35.9375 
Q 64.0625 35.546875 48.046875 33.203125 
L 48.046875 25.390625 
Q 64.453125 27.34375 66.015625 28.125 
L 69.921875 24.609375 
Q 64.453125 24.21875 48.046875 21.875 
L 48.4375 14.453125 
Q 65.234375 15.625 67.1875 16.796875 
L 69.921875 12.890625 
Q 64.84375 12.890625 48.4375 10.9375 
L 48.4375 0.78125 
L 71.875 2.734375 
L 72.65625 47.265625 
L 47.65625 44.140625 
z
M 27.34375 -3.515625 
Q 27.34375 -10.546875 25.78125 -7.03125 
L 22.265625 -0.78125 
Q 24.21875 1.953125 23.828125 4.6875 
L 24.609375 53.90625 
Q 16.796875 42.96875 7.421875 34.765625 
L 6.25 35.9375 
Q 17.1875 47.265625 25.578125 60.9375 
Q 33.984375 74.609375 33.203125 79.296875 
L 34.375 79.296875 
L 38.671875 73.046875 
Q 37.109375 72.265625 34.765625 69.140625 
Q 32.03125 65.234375 28.125 58.984375 
L 27.34375 -3.515625 
z
" id="FangSong-503c"/>
     </defs>
     <g transform="translate(61.976562 178.28)rotate(-90)scale(0.14 -0.14)">
      <use xlink:href="#FangSong-5f52"/>
      <use x="100" xlink:href="#FangSong-4e00"/>
      <use x="200" xlink:href="#FangSong-5316"/>
      <use x="300" xlink:href="#FangSong-6570"/>
      <use x="400" xlink:href="#FangSong-503c"/>
     </g>
    </g>
   </g>
   <g id="line2d_17">
    <path clip-path="url(#pb1109a3273)" d="M 115.363636 241.7757 
L 116.146465 195.639216 
L 116.929293 187.771063 
L 117.712121 187.82637 
L 118.494949 180.692731 
L 119.277778 178.619272 
L 120.060606 168.632207 
L 120.843434 163.053136 
L 121.626263 155.990876 
L 123.191919 148.017428 
L 124.757576 140.499886 
L 126.323232 129.734544 
L 127.106061 126.290648 
L 127.888889 120.906204 
L 128.671717 117.379866 
L 129.454545 117.247067 
L 130.237374 110.341103 
L 132.585859 99.979789 
L 133.368687 97.244656 
L 134.151515 94.987247 
L 134.934343 92.221765 
L 135.717172 104.501725 
L 136.5 113.534525 
L 137.282828 110.215679 
L 138.065657 89.487811 
L 138.848485 82.472113 
L 139.631313 79.81693 
L 140.414141 78.484969 
L 141.19697 76.918757 
L 141.979798 75.739089 
L 143.545455 72.558075 
L 146.676768 66.040898 
L 148.242424 64.269802 
L 149.025253 63.00417 
L 149.808081 62.253904 
L 152.156566 58.811811 
L 152.939394 58.260914 
L 153.722222 58.286512 
L 154.505051 57.942376 
L 155.287879 59.709801 
L 156.070707 55.170864 
L 156.853535 56.270714 
L 157.636364 65.067443 
L 158.419192 60.088007 
L 159.20202 52.590365 
L 159.984848 52.879634 
L 162.333333 54.40995 
L 163.116162 54.656727 
L 163.89899 56.454402 
L 164.681818 55.837757 
L 165.464646 54.950149 
L 166.247475 57.24211 
L 167.030303 62.369519 
L 167.813131 62.980748 
L 168.59596 55.975166 
L 169.378788 57.285266 
L 172.510101 61.168406 
L 173.292929 61.736014 
L 174.075758 62.612924 
L 174.858586 63.758672 
L 175.641414 65.223622 
L 176.424242 67.721878 
L 177.207071 69.764603 
L 177.989899 70.982244 
L 178.772727 71.032759 
L 179.555556 72.898889 
L 180.338384 75.564172 
L 181.121212 76.635368 
L 181.90404 78.034006 
L 183.469697 82.927943 
L 184.252525 84.447545 
L 185.818182 88.212014 
L 186.60101 91.302994 
L 189.732323 100.736501 
L 190.515152 103.586584 
L 191.29798 105.701094 
L 196.777778 126.777708 
L 199.126263 137.706422 
L 201.474747 151.666681 
L 203.040404 159.862887 
L 204.606061 169.495762 
L 206.954545 184.600498 
L 211.651515 220.782388 
L 213.217172 230.206618 
L 215.565657 240.824442 
L 216.348485 241.679726 
L 217.131313 241.861767 
L 217.914141 241.734816 
L 218.69697 195.737077 
L 219.479798 186.952338 
L 220.262626 181.195447 
L 221.045455 176.811452 
L 221.828283 175.253669 
L 222.611111 165.729465 
L 224.959596 150.83909 
L 225.742424 144.50379 
L 226.525253 139.255808 
L 227.308081 152.632562 
L 228.090909 144.714762 
L 228.873737 131.442518 
L 229.656566 135.120408 
L 230.439394 126.372367 
L 231.222222 126.923422 
L 232.005051 114.362009 
L 232.787879 126.710964 
L 233.570707 117.12563 
L 234.353535 128.958107 
L 235.136364 117.50436 
L 235.919192 103.809233 
L 236.70202 120.371478 
L 237.484848 123.278522 
L 238.267677 95.090619 
L 239.050505 88.340536 
L 239.833333 92.072513 
L 240.616162 97.153361 
L 241.39899 84.81492 
L 242.181818 86.347462 
L 242.964646 83.709787 
L 243.747475 76.950501 
L 244.530303 99.072929 
L 245.313131 126.763148 
L 246.878788 72.574138 
L 247.661616 86.794472 
L 248.444444 87.374505 
L 249.227273 74.889786 
L 250.010101 65.54045 
L 250.792929 75.355069 
L 251.575758 108.623403 
L 252.358586 122.679153 
L 253.141414 72.70359 
L 253.924242 56.115349 
L 254.707071 48.394733 
L 255.489899 62.019602 
L 256.272727 99.680105 
L 257.055556 99.231583 
L 257.838384 77.686614 
L 258.621212 128.150399 
L 259.40404 73.929321 
L 260.186869 51.196827 
L 260.969697 45.992607 
L 261.752525 67.346214 
L 262.535354 61.251844 
L 263.318182 62.509303 
L 264.10101 76.502527 
L 264.883838 87.874356 
L 265.666667 88.159904 
L 266.449495 102.080247 
L 267.232323 118.720988 
L 268.015152 83.054771 
L 268.79798 61.973522 
L 269.580808 81.016415 
L 270.363636 83.119754 
L 271.146465 60.082642 
L 271.929293 95.786217 
L 272.712121 44.443636 
L 273.494949 54.150515 
L 274.277778 54.892375 
L 275.060606 58.042259 
L 275.843434 60.725665 
L 276.626263 66.09726 
L 277.409091 64.413888 
L 278.191919 70.181364 
L 278.974747 69.177676 
L 279.757576 69.629802 
L 280.540404 73.116298 
L 281.323232 91.24331 
L 282.106061 73.998092 
L 282.888889 75.004072 
L 283.671717 76.917029 
L 284.454545 79.589737 
L 285.237374 81.520418 
L 287.585859 88.963526 
L 289.934343 96.976998 
L 291.5 99.578809 
L 295.414141 113.417765 
L 296.979798 120.401553 
L 297.762626 146.517104 
L 298.545455 134.311413 
L 299.328283 136.61555 
L 300.111111 153.552936 
L 300.893939 153.985054 
L 302.459596 184.480099 
L 303.242424 141.775526 
L 304.025253 145.830808 
L 305.590909 156.111557 
L 307.939394 175.17369 
L 309.505051 186.225697 
L 311.853535 203.681895 
L 312.636364 211.156888 
L 313.419192 226.301995 
L 314.20202 225.798706 
L 314.984848 234.219184 
L 315.767677 239.694606 
L 316.550505 238.315407 
L 317.333333 239.365513 
L 318.116162 241.150574 
L 318.89899 241.626028 
L 319.681818 241.765317 
L 320.464646 241.747293 
L 321.247475 198.626886 
L 322.030303 190.257392 
L 322.813131 184.36171 
L 325.161616 168.909192 
L 325.944444 162.322613 
L 327.510101 151.090086 
L 329.075758 144.718607 
L 329.858586 160.327123 
L 330.641414 139.630044 
L 331.424242 141.340393 
L 332.989899 128.374079 
L 333.772727 124.63618 
L 334.555556 121.862782 
L 336.121212 115.583072 
L 337.686869 110.424525 
L 339.252525 104.171061 
L 340.035354 101.379823 
L 340.818182 97.823327 
L 341.60101 105.095363 
L 342.383838 93.565669 
L 343.166667 115.809567 
L 343.949495 92.356815 
L 344.732323 88.501183 
L 345.515152 82.331963 
L 346.29798 82.614904 
L 347.080808 96.286699 
L 347.863636 95.287679 
L 348.646465 77.250767 
L 349.429293 82.275219 
L 350.212121 82.986266 
L 350.994949 76.006398 
L 351.777778 76.513823 
L 352.560606 79.559588 
L 353.343434 74.026447 
L 354.126263 73.221314 
L 354.909091 71.538075 
L 355.691919 69.537477 
L 356.474747 67.99947 
L 357.257576 67.640915 
L 358.040404 66.595284 
L 359.606061 65.692327 
L 360.388889 65.659652 
L 361.171717 66.229486 
L 361.954545 65.75241 
L 362.737374 65.908373 
L 363.520202 65.818024 
L 364.30303 63.920549 
L 365.085859 62.836064 
L 365.868687 70.108457 
L 366.651515 58.142243 
L 367.434343 60.969319 
L 368.217172 62.913605 
L 369 64.02623 
L 369.782828 64.266313 
L 370.565657 65.758373 
L 371.348485 65.046745 
L 372.131313 65.124154 
L 372.914141 64.180167 
L 373.69697 65.141114 
L 374.479798 65.50123 
L 375.262626 66.071313 
L 376.045455 66.146446 
L 376.828283 67.067211 
L 377.611111 69.43035 
L 378.393939 72.156663 
L 379.176768 72.659437 
L 379.959596 72.074869 
L 380.742424 72.342477 
L 381.525253 74.15874 
L 382.308081 76.895983 
L 383.090909 78.216232 
L 383.873737 79.860252 
L 384.656566 80.614422 
L 386.222222 86.923226 
L 387.787879 89.398193 
L 388.570707 89.986831 
L 389.353535 92.02326 
L 390.136364 94.97258 
L 390.919192 96.841085 
L 391.70202 97.794224 
L 392.484848 99.430985 
L 393.267677 101.413062 
L 394.833333 107.692947 
L 395.616162 109.949093 
L 396.39899 113.108877 
L 397.964646 118.380672 
L 398.747475 121.645531 
L 400.313131 126.279328 
L 403.444444 139.600044 
L 409.707071 174.47298 
L 411.272727 183.850419 
L 414.40404 206.414352 
L 415.969697 218.200909 
L 416.752525 223.447263 
L 418.318182 232.345632 
L 419.10101 235.885077 
L 419.883838 238.863945 
L 420.666667 240.713467 
L 421.449495 241.517567 
L 422.232323 241.87307 
L 423.015152 241.871946 
L 423.79798 192.871375 
L 424.580808 186.590128 
L 428.494949 160.459373 
L 429.277778 156.06968 
L 430.060606 152.635909 
L 430.843434 147.912055 
L 433.191919 136.587369 
L 435.540404 126.556794 
L 436.323232 125.067891 
L 437.106061 122.799186 
L 437.888889 116.892574 
L 438.671717 114.068927 
L 441.020202 107.58327 
L 441.80303 104.643577 
L 442.585859 102.284532 
L 443.368687 100.880952 
L 444.151515 98.526816 
L 444.934343 95.388061 
L 446.5 91.047164 
L 447.282828 89.295037 
L 450.414141 80.489986 
L 451.19697 78.721016 
L 452.762626 76.366198 
L 454.328283 74.249288 
L 455.111111 72.752477 
L 455.893939 72.077344 
L 456.676768 71.018125 
L 458.242424 69.598639 
L 459.025253 69.185317 
L 459.808081 69.074254 
L 460.590909 68.212161 
L 462.156566 67.832991 
L 463.722222 66.502875 
L 464.505051 66.847842 
L 465.287879 67.674204 
L 466.070707 66.694171 
L 466.853535 66.18643 
L 467.636364 67.354054 
L 468.419192 67.705566 
L 469.20202 67.869071 
L 469.984848 68.299304 
L 470.767677 68.40653 
L 471.550505 67.669802 
L 472.333333 67.949237 
L 473.116162 68.729237 
L 473.89899 70.913457 
L 474.681818 70.743822 
L 475.464646 70.087792 
L 477.030303 71.259969 
L 478.59596 73.465168 
L 479.378788 73.60859 
L 480.161616 74.352726 
L 480.944444 75.761813 
L 481.727273 76.842561 
L 482.510101 78.758973 
L 483.292929 81.419123 
L 484.075758 81.400103 
L 484.858586 80.01399 
L 485.641414 79.962445 
L 486.424242 80.977262 
L 487.207071 82.864189 
L 487.989899 85.728658 
L 488.772727 87.590618 
L 489.555556 88.818393 
L 491.121212 92.680004 
L 491.90404 96.243095 
L 492.686869 98.345902 
L 493.469697 99.717547 
L 494.252525 102.029806 
L 495.035354 104.977489 
L 495.818182 108.688163 
L 496.60101 111.541817 
L 497.383838 113.48406 
L 498.166667 114.734393 
L 498.949495 116.874584 
L 499.732323 119.447973 
L 501.29798 126.387127 
L 502.080808 130.113448 
L 502.863636 132.931122 
L 504.429293 166.36356 
L 505.212121 169.436567 
L 505.994949 155.299007 
L 506.777778 174.662299 
L 507.560606 159.880727 
L 509.909091 172.826285 
L 510.691919 176.672826 
L 511.474747 182.397237 
L 512.257576 186.978484 
L 513.823232 195.151745 
L 514.606061 203.922905 
L 515.388889 205.831273 
L 516.954545 217.064042 
L 517.737374 227.994609 
L 518.520202 226.303961 
L 519.30303 235.888299 
L 520.085859 236.253766 
L 520.868687 239.823641 
L 522.434343 241.231732 
L 523.217172 241.635771 
L 524 241.789072 
L 524.782828 241.713188 
L 525.565657 201.50082 
L 526.348485 204.569009 
L 527.131313 193.591495 
L 527.914141 195.837746 
L 528.69697 207.710548 
L 529.479798 191.300071 
L 530.262626 204.037585 
L 531.045455 205.340322 
L 531.828283 202.547618 
L 532.611111 204.782925 
L 533.393939 194.935702 
L 534.176768 195.783609 
L 534.959596 180.133873 
L 535.742424 185.551166 
L 536.525253 197.365429 
L 537.308081 195.298958 
L 538.090909 180.888902 
L 538.873737 128.013439 
L 539.656566 112.358454 
L 540.439394 88.370934 
L 541.222222 91.791848 
L 542.005051 109.161884 
L 542.787879 105.907274 
L 543.570707 118.490622 
L 544.353535 134.876845 
L 545.136364 137.16398 
L 545.919192 133.697642 
L 546.70202 117.00431 
L 547.484848 96.269723 
L 548.267677 92.650071 
L 549.050505 96.618909 
L 549.833333 82.958957 
L 550.616162 127.961388 
L 551.39899 138.525816 
L 552.181818 74.461231 
L 552.964646 87.243143 
L 553.747475 69.807958 
L 554.530303 93.88125 
L 555.313131 109.92391 
L 556.09596 166.011849 
L 556.878788 148.546606 
L 557.661616 146.669953 
L 558.444444 158.566142 
L 559.227273 154.235411 
L 560.010101 116.594451 
L 560.792929 120.494476 
L 561.575758 107.233669 
L 562.358586 122.30946 
L 563.141414 125.630656 
L 563.924242 135.264196 
L 564.707071 127.6877 
L 565.489899 108.615131 
L 566.272727 101.538527 
L 567.055556 102.198004 
L 567.838384 96.874457 
L 568.621212 148.818251 
L 569.40404 157.610544 
L 570.186869 159.220901 
L 570.969697 162.32101 
L 571.752525 156.99968 
L 572.535354 157.385586 
L 573.318182 145.008516 
L 574.10101 155.840494 
L 574.883838 164.963751 
L 575.666667 159.23419 
L 576.449495 157.203451 
L 577.232323 160.052505 
L 578.015152 158.870536 
L 578.79798 159.536109 
L 579.580808 169.364898 
L 580.363636 161.222106 
L 581.146465 162.138709 
L 581.929293 171.336389 
L 582.712121 167.707854 
L 583.494949 157.976026 
L 584.277778 156.241931 
L 585.060606 157.601782 
L 585.843434 122.775224 
L 586.626263 178.100626 
L 587.409091 192.051807 
L 588.191919 191.439556 
L 588.974747 186.728816 
L 589.757576 184.308745 
L 591.323232 176.204168 
L 592.106061 176.432548 
L 592.888889 185.659464 
L 593.671717 178.538022 
L 594.454545 177.287457 
L 595.237374 162.82351 
L 596.020202 154.098982 
L 596.80303 175.479911 
L 597.585859 164.902173 
L 598.368687 163.21488 
L 599.934343 190.065855 
L 600.717172 190.813335 
L 601.5 196.697148 
L 602.282828 200.90714 
L 603.065657 200.23371 
L 603.848485 198.831471 
L 604.631313 198.62824 
L 605.414141 201.885707 
L 606.19697 203.049242 
L 606.979798 199.471679 
L 607.762626 204.71994 
L 608.545455 212.672034 
L 610.893939 222.747695 
L 611.676768 224.072939 
L 612.459596 224.111932 
L 613.242424 224.746658 
L 614.025253 226.00486 
L 614.808081 229.674769 
L 616.373737 231.708578 
L 617.156566 234.715699 
L 617.939394 236.893184 
L 618.722222 237.372619 
L 619.505051 238.328247 
L 620.287879 240.088793 
L 621.070707 240.808037 
L 621.853535 241.182552 
L 622.636364 241.347406 
L 622.636364 241.347406 
" style="fill:none;stroke:#000000;stroke-linecap:square;stroke-width:1.5;"/>
   </g>
   <g id="line2d_18">
    <path clip-path="url(#pb1109a3273)" d="M 115.363636 242.116364 
L 622.636364 242.116364 
L 622.636364 242.116364 
" style="fill:none;stroke:#000000;stroke-dasharray:1.5,2.475;stroke-dashoffset:0;stroke-width:1.5;"/>
   </g>
   <g id="patch_3">
    <path d="M 90 252 
L 90 34.56 
" style="fill:none;stroke:#000000;stroke-linecap:square;stroke-linejoin:miter;stroke-width:0.8;"/>
   </g>
   <g id="patch_4">
    <path d="M 648 252 
L 648 34.56 
" style="fill:none;stroke:#000000;stroke-linecap:square;stroke-linejoin:miter;stroke-width:0.8;"/>
   </g>
   <g id="patch_5">
    <path d="M 90 252 
L 648 252 
" style="fill:none;stroke:#000000;stroke-linecap:square;stroke-linejoin:miter;stroke-width:0.8;"/>
   </g>
   <g id="patch_6">
    <path d="M 90 34.56 
L 648 34.56 
" style="fill:none;stroke:#000000;stroke-linecap:square;stroke-linejoin:miter;stroke-width:0.8;"/>
   </g>
   <g id="legend_1">
    <g id="patch_7">
     <path d="M 509.4 85.736562 
L 638.2 85.736562 
Q 641 85.736562 641 82.936562 
L 641 44.36 
Q 641 41.56 638.2 41.56 
L 509.4 41.56 
Q 506.6 41.56 506.6 44.36 
L 506.6 82.936562 
Q 506.6 85.736562 509.4 85.736562 
z
" style="fill:#ffffff;opacity:0.8;stroke:#cccccc;stroke-linejoin:miter;"/>
    </g>
    <g id="line2d_19">
     <path d="M 512.2 53.252187 
L 540.2 53.252187 
" style="fill:none;stroke:#000000;stroke-linecap:square;stroke-width:1.5;"/>
    </g>
    <g id="line2d_20"/>
    <g id="text_19">
     <!-- 光伏出力功率 -->
     <defs>
      <path d="M 52.34375 41.40625 
Q 82.421875 43.75 84.375 45.3125 
L 90.234375 40.234375 
Q 81.25 40.234375 54.6875 37.890625 
L 59.375 34.765625 
Q 57.421875 33.984375 57.8125 28.515625 
L 57.8125 5.46875 
Q 57.421875 -1.5625 66.796875 -1.953125 
L 75.78125 -1.953125 
Q 84.765625 -1.953125 85.34375 0 
Q 85.9375 1.953125 85.9375 15.234375 
L 87.5 15.234375 
Q 87.890625 9.765625 88.671875 4.875 
Q 89.453125 0 91.40625 -3.90625 
Q 86.71875 -5.46875 75.78125 -5.859375 
L 66.796875 -5.859375 
Q 53.90625 -6.25 54.296875 5.078125 
L 54.296875 30.859375 
Q 54.6875 36.71875 53.515625 37.5 
L 41.796875 36.71875 
L 45.703125 33.59375 
Q 44.53125 33.59375 42.96875 28.3125 
Q 41.40625 23.046875 38.859375 17.375 
Q 36.328125 11.71875 29.484375 4.484375 
Q 22.65625 -2.734375 9.375 -9.375 
L 8.984375 -7.421875 
Q 36.328125 5.859375 40.625 37.109375 
Q 21.484375 35.15625 18.359375 34.375 
L 12.890625 38.671875 
Q 20.3125 38.671875 48.828125 41.015625 
L 49.21875 69.53125 
Q 50 76.5625 46.875 80.859375 
L 48.046875 81.640625 
L 55.078125 75.390625 
Q 52.34375 73.828125 52.734375 68.359375 
z
M 60.15625 46.875 
Q 65.234375 55.078125 68.75 62.6875 
Q 72.265625 70.3125 71.484375 72.65625 
L 72.65625 73.046875 
L 77.34375 65.625 
Q 75.78125 66.015625 71.484375 59.765625 
Q 67.1875 53.515625 61.71875 46.484375 
z
M 37.890625 46.09375 
Q 35.15625 52.34375 25 65.625 
L 26.171875 67.1875 
Q 35.9375 57.8125 40.625 53.125 
Q 39.453125 49.609375 37.890625 46.09375 
z
" id="FangSong-5149"/>
      <path d="M 73.828125 -5.859375 
Q 73.828125 -0.390625 70.109375 10.546875 
Q 66.40625 21.484375 59.765625 42.96875 
L 56.25 42.578125 
Q 49.609375 7.03125 28.125 -9.765625 
L 27.34375 -8.59375 
Q 47.65625 11.71875 52.34375 42.1875 
Q 39.453125 40.625 39.453125 39.84375 
L 33.984375 44.53125 
Q 38.28125 44.140625 53.125 46.09375 
Q 54.296875 58.59375 55.078125 67.96875 
Q 55.859375 77.34375 53.125 80.46875 
L 54.296875 81.25 
L 60.9375 75 
Q 58.984375 75 58.390625 66.40625 
Q 57.8125 57.8125 56.640625 46.484375 
Q 79.6875 48.828125 83.59375 50 
L 87.109375 45.703125 
Q 82.03125 45.703125 62.5 43.359375 
Q 69.53125 21.484375 73.046875 12.5 
Q 76.5625 3.515625 78.703125 0.578125 
Q 80.859375 -2.34375 92.1875 -3.125 
L 92.1875 -5.078125 
L 73.828125 -5.859375 
z
M 24.609375 48.4375 
Q 17.578125 38.671875 8.203125 29.296875 
L 7.03125 30.859375 
Q 17.1875 42.96875 27.140625 60.15625 
Q 37.109375 77.34375 34.375 80.078125 
L 35.9375 80.859375 
L 40.625 72.65625 
Q 39.453125 73.046875 35.546875 67.1875 
Q 31.640625 60.546875 28.125 54.6875 
L 26.953125 -5.078125 
Q 27.34375 -10.546875 25.78125 -8.984375 
L 21.875 -0.78125 
Q 24.21875 0.390625 23.4375 7.421875 
z
M 67.1875 71.484375 
Q 74.609375 65.234375 78.90625 62.109375 
Q 77.734375 58.203125 76.171875 55.078125 
Q 72.65625 61.71875 66.015625 69.921875 
z
" id="FangSong-4f0f"/>
      <path d="M 79.296875 28.90625 
L 85.546875 23.4375 
Q 83.984375 24.21875 83.203125 18.15625 
Q 82.421875 12.109375 81.4375 5.65625 
Q 80.46875 -0.78125 79.6875 -4.09375 
Q 78.90625 -7.421875 77.734375 -7.8125 
Q 76.5625 -8.203125 76.5625 -0.78125 
L 23.4375 -4.296875 
L 20.703125 -7.03125 
L 16.796875 -1.953125 
L 19.921875 -0.78125 
L 19.53125 16.40625 
Q 19.140625 21.875 16.796875 24.21875 
L 17.578125 25.390625 
L 24.609375 20.3125 
Q 22.65625 18.75 23.046875 12.890625 
L 23.4375 -0.78125 
L 48.4375 0.78125 
L 48.828125 34.765625 
L 28.125 32.8125 
L 25.390625 30.46875 
L 21.484375 35.15625 
L 24.21875 36.71875 
L 23.828125 53.515625 
Q 24.21875 59.765625 21.09375 63.28125 
L 21.875 64.453125 
L 28.90625 59.375 
Q 27.34375 58.59375 27.34375 53.515625 
L 27.734375 36.328125 
L 48.828125 38.28125 
L 49.21875 67.1875 
Q 49.609375 76.953125 46.484375 79.6875 
L 47.65625 80.859375 
L 55.078125 74.21875 
Q 52.34375 72.65625 52.734375 66.796875 
L 52.34375 38.671875 
L 74.609375 40.625 
Q 76.171875 51.171875 77.140625 57.8125 
Q 78.125 64.453125 76.171875 66.015625 
L 77.34375 66.796875 
L 82.421875 61.71875 
Q 81.25 60.9375 80.46875 55.46875 
Q 79.6875 50 78.703125 43.359375 
Q 77.734375 36.71875 76.953125 33.984375 
Q 76.171875 31.25 75.390625 31.4375 
Q 74.609375 31.640625 74.21875 37.109375 
L 52.34375 35.15625 
L 51.953125 1.171875 
L 76.953125 2.734375 
Q 78.90625 13.671875 79.6875 19.921875 
Q 80.46875 26.171875 78.515625 28.125 
z
" id="FangSong-51fa"/>
      <path d="M 48.4375 82.421875 
L 56.25 76.171875 
Q 54.296875 76.171875 53.703125 71.671875 
Q 53.125 67.1875 50.78125 52.34375 
L 76.171875 54.6875 
L 78.90625 58.59375 
L 83.59375 53.515625 
L 80.46875 51.171875 
Q 73.4375 0.390625 65.234375 -10.15625 
Q 59.375 -1.171875 49.609375 9.765625 
L 50.78125 10.9375 
L 64.84375 -2.34375 
Q 70.3125 8.203125 76.171875 50.78125 
L 50.390625 48.4375 
Q 39.0625 8.59375 9.375 -8.984375 
L 8.203125 -7.421875 
Q 36.71875 12.109375 46.09375 48.046875 
Q 26.5625 46.09375 23.046875 44.921875 
L 17.578125 50 
Q 25.390625 49.609375 46.484375 51.953125 
Q 48.828125 64.84375 49.40625 71.28125 
Q 50 77.734375 47.265625 81.640625 
z
" id="FangSong-529b"/>
      <path d="M 59.765625 6.25 
L 71.875 -2.34375 
Q 76.953125 10.15625 81.640625 48.4375 
L 63.671875 46.09375 
Q 60.15625 25.390625 53.515625 12.5 
Q 46.875 -0.390625 31.640625 -9.765625 
L 30.46875 -8.203125 
Q 42.96875 0.78125 49.796875 12.6875 
Q 56.640625 24.609375 59.765625 45.703125 
Q 50.78125 44.53125 49.21875 42.96875 
L 43.75 47.65625 
Q 48.4375 47.265625 60.546875 49.21875 
Q 62.109375 60.9375 62.6875 70.3125 
Q 63.28125 79.6875 60.546875 81.25 
L 61.71875 82.421875 
L 69.140625 76.953125 
Q 67.1875 76.953125 66.59375 69.140625 
Q 66.015625 61.328125 64.0625 49.609375 
L 80.859375 51.953125 
L 83.59375 56.25 
L 88.28125 51.953125 
L 85.546875 49.21875 
Q 82.8125 28.90625 79.875 13.078125 
Q 76.953125 -2.734375 72.265625 -10.15625 
Q 66.015625 -0.78125 58.59375 5.078125 
z
M 46.875 56.25 
Q 42.1875 56.25 28.90625 53.90625 
L 33.984375 50.78125 
Q 32.03125 49.21875 32.421875 43.75 
L 32.03125 21.875 
L 49.609375 28.125 
L 50 26.171875 
Q 17.578125 12.890625 13.28125 10.546875 
L 8.59375 15.234375 
Q 13.671875 14.84375 28.125 20.703125 
L 28.515625 46.875 
Q 28.515625 51.171875 27.734375 53.515625 
Q 19.53125 52.34375 17.1875 50.78125 
L 11.328125 55.078125 
Q 16.015625 55.078125 27.921875 57.03125 
Q 39.84375 58.984375 42.578125 60.546875 
z
" id="FangSong-529f"/>
      <path d="M 58.59375 32.8125 
L 46.484375 30.46875 
L 53.515625 26.953125 
Q 51.5625 25.78125 51.5625 23.046875 
L 51.5625 21.484375 
Q 83.59375 23.828125 86.71875 24.609375 
L 91.015625 20.3125 
Q 83.984375 20.3125 51.5625 17.96875 
L 51.171875 -5.859375 
Q 51.171875 -10.546875 50 -10.15625 
L 45.3125 -3.515625 
Q 47.65625 -1.5625 47.65625 2.34375 
L 48.046875 17.578125 
Q 17.96875 15.234375 15.234375 14.84375 
L 9.765625 19.140625 
Q 17.578125 18.359375 48.046875 21.09375 
L 48.046875 23.4375 
Q 48.046875 27.34375 46.484375 30.078125 
Q 37.890625 28.515625 35.9375 27.34375 
L 32.03125 32.03125 
L 37.109375 33.203125 
Q 39.84375 36.328125 49.21875 46.484375 
Q 38.671875 44.140625 36.328125 42.578125 
L 32.8125 48.046875 
L 36.328125 48.046875 
Q 39.84375 52.34375 46.09375 62.890625 
Q 25 60.546875 22.65625 59.765625 
L 16.796875 64.453125 
Q 25.78125 64.0625 51.359375 66.59375 
Q 76.953125 69.140625 78.515625 70.3125 
L 83.59375 65.625 
Q 76.953125 66.015625 46.875 62.5 
L 51.171875 59.765625 
Q 49.609375 59.375 46.671875 55.859375 
Q 43.75 52.34375 39.84375 48.046875 
L 51.171875 49.21875 
Q 53.90625 51.953125 54.6875 53.515625 
Q 55.46875 55.078125 55.46875 57.421875 
L 57.03125 57.8125 
L 59.375 50.78125 
Q 57.8125 50.78125 52.53125 45.109375 
Q 47.265625 39.453125 41.015625 32.8125 
L 57.421875 35.15625 
L 53.515625 41.015625 
L 54.6875 42.1875 
Q 60.546875 37.109375 64.453125 33.203125 
Q 63.671875 30.46875 61.71875 26.953125 
z
M 80.46875 37.109375 
Q 80.46875 33.203125 79.296875 30.46875 
Q 75.390625 35.15625 61.328125 45.703125 
Q 64.84375 48.828125 69.71875 54.09375 
Q 74.609375 59.375 74.21875 62.890625 
L 75.78125 62.890625 
L 78.125 55.46875 
Q 76.5625 55.46875 73.046875 52.734375 
Q 69.53125 50 64.453125 45.703125 
Q 75.390625 39.453125 80.46875 37.109375 
z
M 32.8125 41.015625 
Q 18.75 30.078125 17.96875 28.125 
L 11.328125 31.25 
Q 15.625 32.421875 32.03125 42.578125 
z
M 26.171875 44.140625 
Q 23.4375 48.046875 15.234375 55.46875 
L 16.015625 57.03125 
Q 23.828125 53.125 27.34375 51.171875 
Q 27.34375 48.4375 26.171875 44.140625 
z
M 49.609375 67.1875 
Q 48.046875 72.265625 42.1875 80.859375 
L 43.359375 82.03125 
Q 50 76.171875 52.34375 73.4375 
Q 51.5625 70.703125 49.609375 67.1875 
z
" id="FangSong-7387"/>
     </defs>
     <g transform="translate(551.4 58.152187)scale(0.14 -0.14)">
      <use xlink:href="#FangSong-5149"/>
      <use x="100" xlink:href="#FangSong-4f0f"/>
      <use x="200" xlink:href="#FangSong-51fa"/>
      <use x="300" xlink:href="#FangSong-529b"/>
      <use x="400" xlink:href="#FangSong-529f"/>
      <use x="500" xlink:href="#FangSong-7387"/>
     </g>
    </g>
    <g id="line2d_21">
     <path d="M 512.2 73.213125 
L 540.2 73.213125 
" style="fill:none;stroke:#000000;stroke-dasharray:1.5,2.475;stroke-dashoffset:0;stroke-width:1.5;"/>
    </g>
    <g id="line2d_22"/>
    <g id="text_20">
     <!-- 日降水量 -->
     <defs>
      <path d="M 75.390625 76.5625 
L 80.46875 72.265625 
L 77.34375 69.140625 
Q 75 8.203125 73.625 0.578125 
Q 72.265625 -7.03125 71.28125 -5.078125 
Q 70.3125 -3.125 69.53125 4.6875 
L 33.203125 2.34375 
Q 33.59375 -8.203125 31.640625 -5.078125 
L 27.734375 1.5625 
Q 30.078125 3.90625 29.6875 10.546875 
L 29.296875 63.671875 
Q 29.296875 69.140625 27.734375 76.171875 
L 28.90625 76.5625 
L 32.421875 68.75 
L 72.65625 72.265625 
z
M 32.8125 39.84375 
Q 61.71875 42.1875 63.671875 43.75 
L 67.96875 39.453125 
Q 60.546875 39.0625 32.8125 35.9375 
L 33.203125 5.859375 
Q 62.109375 7.421875 65.625 8.59375 
L 69.921875 4.6875 
Q 71.484375 7.8125 73.828125 68.75 
L 32.421875 64.84375 
L 32.8125 39.84375 
z
" id="FangSong-65e5"/>
      <path d="M 11.71875 -2.734375 
Q 13.671875 0 13.28125 4.296875 
L 13.671875 62.890625 
Q 14.0625 67.96875 12.5 75 
L 13.671875 75.390625 
L 17.1875 69.140625 
L 31.25 71.484375 
L 33.203125 75.390625 
L 38.28125 71.484375 
L 35.15625 68.359375 
L 26.953125 50 
Q 34.375 42.578125 34.375 34.375 
Q 46.875 41.015625 58.203125 51.171875 
Q 55.46875 53.125 52.734375 54.6875 
Q 50 56.25 46.484375 56.640625 
L 46.484375 57.8125 
L 51.953125 59.375 
Q 51.5625 58.59375 53.703125 57.03125 
Q 55.859375 55.46875 60.546875 53.125 
Q 65.234375 57.8125 71.09375 66.796875 
Q 57.421875 65.234375 54.296875 64.0625 
L 51.5625 67.1875 
Q 45.703125 57.03125 37.890625 48.4375 
L 36.71875 49.609375 
Q 44.53125 60.15625 49.21875 69.921875 
Q 53.90625 79.6875 52.34375 81.640625 
L 53.125 82.03125 
L 57.8125 75.78125 
Q 56.640625 76.171875 55.265625 74.015625 
Q 53.90625 71.875 51.953125 67.96875 
Q 57.8125 68.75 72.265625 70.3125 
L 74.609375 73.046875 
L 79.296875 68.359375 
L 76.171875 66.796875 
Q 68.359375 56.25 63.28125 51.171875 
Q 72.65625 44.921875 76.171875 43.546875 
Q 79.6875 42.1875 82.609375 41.59375 
Q 85.546875 41.015625 92.1875 41.796875 
L 92.578125 39.84375 
Q 84.765625 38.28125 78.90625 35.9375 
Q 78.515625 37.890625 74.21875 40.8125 
Q 69.921875 43.75 60.9375 49.21875 
Q 47.65625 38.28125 34.765625 32.8125 
L 34.375 33.203125 
Q 34.375 26.5625 29.296875 19.921875 
Q 27.734375 23.4375 18.75 31.25 
L 19.53125 32.8125 
L 28.90625 26.5625 
Q 34.375 36.71875 24.609375 50 
L 30.859375 67.96875 
L 17.1875 65.625 
L 16.796875 -5.078125 
Q 17.1875 -10.15625 15.625 -9.375 
L 11.71875 -2.734375 
z
M 55.859375 -3.90625 
Q 57.8125 -2.34375 57.421875 1.953125 
L 57.8125 13.671875 
L 43.359375 12.109375 
L 40.625 10.15625 
L 37.5 15.234375 
L 39.453125 15.625 
Q 42.578125 23.046875 41.015625 26.5625 
L 42.1875 26.953125 
L 46.09375 23.046875 
Q 44.921875 22.265625 43.359375 16.015625 
L 57.8125 17.1875 
L 57.8125 28.90625 
Q 46.484375 28.125 44.140625 26.953125 
L 39.0625 31.25 
Q 42.1875 30.859375 57.8125 32.421875 
L 57.8125 35.15625 
Q 58.203125 40.625 56.25 43.359375 
L 57.03125 44.140625 
L 62.890625 39.84375 
Q 60.9375 38.671875 61.328125 34.375 
L 61.328125 32.421875 
Q 76.5625 33.984375 76.953125 34.765625 
L 80.859375 30.46875 
Q 76.171875 30.46875 61.328125 28.90625 
L 61.328125 17.578125 
Q 77.34375 18.75 81.25 19.921875 
L 85.546875 15.625 
Q 81.25 15.625 61.328125 14.0625 
L 60.9375 -5.078125 
Q 61.71875 -9.765625 59.765625 -9.765625 
L 55.859375 -3.90625 
z
" id="FangSong-964d"/>
      <path d="M 76.5625 5.078125 
Q 77.734375 6.25 71.28125 17.375 
Q 64.84375 28.515625 52.34375 50.390625 
L 52.34375 1.5625 
Q 52.34375 -6.640625 49.21875 -10.546875 
Q 44.921875 -4.296875 33.984375 5.078125 
L 34.765625 6.25 
L 48.046875 -1.953125 
Q 49.21875 2.34375 48.828125 7.03125 
L 48.828125 68.359375 
Q 49.21875 76.953125 46.875 80.859375 
L 48.046875 81.640625 
L 54.296875 75.78125 
Q 51.953125 75 52.34375 68.359375 
L 52.34375 56.25 
Q 57.8125 46.09375 61.328125 40.625 
Q 69.921875 48.046875 73.828125 52.53125 
Q 77.734375 57.03125 77.34375 59.765625 
L 78.515625 59.765625 
L 80.859375 51.5625 
Q 80.078125 52.34375 75.390625 48.4375 
Q 70.3125 44.140625 62.890625 37.890625 
Q 73.046875 20.703125 75.578125 16.984375 
Q 78.125 13.28125 80.265625 11.125 
Q 82.421875 8.984375 93.359375 8.203125 
L 93.359375 6.25 
L 76.5625 5.078125 
z
M 42.1875 51.953125 
L 47.265625 47.65625 
L 43.75 44.140625 
Q 30.859375 14.0625 7.421875 -2.34375 
L 6.25 -1.171875 
Q 28.90625 18.75 39.453125 44.140625 
Q 21.484375 41.40625 19.53125 40.625 
L 14.0625 44.53125 
Q 20.703125 44.53125 40.234375 48.4375 
z
" id="FangSong-6c34"/>
      <path d="M 68.359375 38.28125 
L 71.09375 41.40625 
L 75.78125 36.71875 
L 72.265625 34.375 
L 69.921875 19.140625 
L 72.65625 16.015625 
L 51.5625 14.453125 
L 51.5625 7.03125 
Q 70.3125 8.59375 72.65625 9.375 
L 76.953125 5.859375 
Q 70.703125 5.46875 51.5625 3.90625 
L 51.5625 -3.515625 
Q 78.125 -1.953125 82.03125 -1.171875 
L 87.5 -4.6875 
Q 76.171875 -5.078125 49.796875 -6.640625 
Q 23.4375 -8.203125 19.53125 -8.59375 
L 14.453125 -5.078125 
Q 24.21875 -5.078125 48.046875 -3.515625 
L 48.046875 3.515625 
Q 32.8125 2.734375 30.078125 1.953125 
L 25.78125 5.46875 
Q 32.8125 5.46875 48.046875 6.640625 
L 48.046875 14.453125 
L 32.421875 13.28125 
Q 32.421875 10.15625 31.640625 10.546875 
Q 30.859375 10.9375 27.734375 15.625 
Q 28.90625 17.578125 28.90625 20.3125 
L 28.515625 31.25 
Q 28.515625 35.15625 27.734375 38.28125 
L 28.515625 39.0625 
L 31.640625 35.15625 
z
M 68.359375 75.78125 
L 71.09375 79.6875 
L 75.78125 75.390625 
L 72.65625 72.265625 
L 70.3125 57.421875 
L 73.4375 54.296875 
L 33.59375 51.953125 
Q 33.59375 47.265625 32.609375 48.046875 
Q 31.640625 48.828125 28.515625 53.515625 
Q 30.078125 54.6875 30.078125 57.421875 
L 30.078125 67.578125 
Q 30.46875 73.046875 29.296875 78.125 
L 30.46875 78.515625 
L 33.59375 73.4375 
z
M 33.59375 64.0625 
Q 58.59375 65.625 60.9375 66.40625 
L 65.234375 62.5 
Q 57.8125 62.890625 33.59375 60.9375 
L 33.59375 55.46875 
L 66.40625 57.421875 
L 68.75 72.265625 
L 33.59375 69.921875 
L 33.59375 64.0625 
z
M 91.015625 45.3125 
Q 82.421875 45.3125 50.1875 43.15625 
Q 17.96875 41.015625 12.890625 40.234375 
L 8.203125 44.140625 
Q 16.796875 44.140625 48.046875 46.09375 
Q 79.296875 48.046875 85.9375 49.609375 
z
M 51.5625 27.34375 
Q 57.421875 27.734375 61.328125 28.515625 
L 65.625 25 
Q 60.15625 25 51.5625 23.828125 
L 51.5625 17.96875 
L 66.40625 19.53125 
L 68.75 34.765625 
L 51.5625 33.59375 
L 51.5625 27.34375 
z
M 48.046875 17.96875 
L 48.046875 23.828125 
Q 40.625 23.046875 39.0625 22.265625 
L 34.765625 26.171875 
Q 39.453125 26.171875 48.046875 26.953125 
L 48.046875 33.203125 
L 32.03125 31.640625 
L 32.421875 16.796875 
z
" id="FangSong-91cf"/>
     </defs>
     <g transform="translate(551.4 78.113125)scale(0.14 -0.14)">
      <use xlink:href="#FangSong-65e5"/>
      <use x="100" xlink:href="#FangSong-964d"/>
      <use x="200" xlink:href="#FangSong-6c34"/>
      <use x="300" xlink:href="#FangSong-91cf"/>
     </g>
    </g>
   </g>
  </g>
 </g>
 <defs>
  <clipPath id="pb1109a3273">
   <rect height="217.44" width="558" x="90" y="34.56"/>
  </clipPath>
 </defs>
</svg>
