<?xml version="1.0" encoding="utf-8" standalone="no"?>
<!DOCTYPE svg PUBLIC "-//W3C//DTD SVG 1.1//EN"
  "http://www.w3.org/Graphics/SVG/1.1/DTD/svg11.dtd">
<!-- Created with matplotlib (http://matplotlib.org/) -->
<svg height="288pt" version="1.1" viewBox="0 0 720 288" width="720pt" xmlns="http://www.w3.org/2000/svg" xmlns:xlink="http://www.w3.org/1999/xlink">
 <defs>
  <style type="text/css">
*{stroke-linecap:butt;stroke-linejoin:round;}
  </style>
 </defs>
 <g id="figure_1">
  <g id="patch_1">
   <path d="M 0 288 
L 720 288 
L 720 0 
L 0 0 
z
" style="fill:#ffffff;"/>
  </g>
  <g id="axes_1">
   <g id="patch_2">
    <path d="M 90 252 
L 648 252 
L 648 34.56 
L 90 34.56 
z
" style="fill:#ffffff;"/>
   </g>
   <g id="matplotlib.axis_1">
    <g id="xtick_1">
     <g id="line2d_1">
      <defs>
       <path d="M 0 0 
L 0 3.5 
" id="m218f936688" style="stroke:#000000;stroke-width:0.8;"/>
      </defs>
      <g>
       <use style="stroke:#000000;stroke-width:0.8;" x="115.363636" xlink:href="#m218f936688" y="252"/>
      </g>
     </g>
     <g id="text_1">
      <!-- 0 -->
      <defs>
       <path d="M 24.609375 64.453125 
Q 19.140625 64.453125 15.421875 56.046875 
Q 11.71875 47.65625 11.71875 33.59375 
Q 11.71875 18.75 15.421875 10.546875 
Q 19.140625 2.34375 24.609375 2.34375 
Q 30.46875 2.34375 33.78125 10.546875 
Q 37.109375 18.75 37.109375 33.59375 
Q 37.109375 47.65625 33.984375 56.046875 
Q 30.859375 64.453125 24.609375 64.453125 
z
M 24.609375 -0.78125 
Q 16.015625 -0.78125 10.15625 8.203125 
Q 4.296875 17.1875 4.296875 33.59375 
Q 4.296875 48.828125 9.953125 58.203125 
Q 15.625 67.578125 24.609375 67.578125 
Q 33.203125 67.578125 38.859375 58.59375 
Q 44.53125 49.609375 44.53125 33.59375 
Q 44.53125 17.578125 38.859375 8.390625 
Q 33.203125 -0.78125 24.609375 -0.78125 
z
" id="FangSong-30"/>
      </defs>
      <g transform="translate(112.863636 265.992188)scale(0.1 -0.1)">
       <use xlink:href="#FangSong-30"/>
      </g>
     </g>
    </g>
    <g id="xtick_2">
     <g id="line2d_2">
      <g>
       <use style="stroke:#000000;stroke-width:0.8;" x="193.646465" xlink:href="#m218f936688" y="252"/>
      </g>
     </g>
     <g id="text_2">
      <!-- 100 -->
      <defs>
       <path d="M 28.125 67.96875 
L 28.125 8.59375 
Q 28.125 5.46875 30.078125 3.90625 
Q 32.03125 2.34375 35.546875 2.34375 
L 39.453125 2.34375 
L 39.453125 0 
L 10.9375 0 
L 10.9375 2.34375 
L 14.453125 2.34375 
Q 18.359375 2.34375 20.109375 3.90625 
Q 21.875 5.46875 21.875 8.59375 
L 21.875 55.859375 
Q 21.875 57.421875 20.890625 58.390625 
Q 19.921875 59.375 17.96875 59.375 
L 10.9375 59.375 
L 10.9375 61.71875 
L 14.453125 61.71875 
Q 19.140625 61.71875 22.0625 63.28125 
Q 25 64.84375 26.5625 67.96875 
z
" id="FangSong-31"/>
      </defs>
      <g transform="translate(186.146465 265.992188)scale(0.1 -0.1)">
       <use xlink:href="#FangSong-31"/>
       <use x="50" xlink:href="#FangSong-30"/>
       <use x="100" xlink:href="#FangSong-30"/>
      </g>
     </g>
    </g>
    <g id="xtick_3">
     <g id="line2d_3">
      <g>
       <use style="stroke:#000000;stroke-width:0.8;" x="271.929293" xlink:href="#m218f936688" y="252"/>
      </g>
     </g>
     <g id="text_3">
      <!-- 200 -->
      <defs>
       <path d="M 35.9375 50.390625 
Q 35.9375 57.421875 32.8125 61.125 
Q 29.6875 64.84375 23.4375 64.84375 
Q 18.75 64.84375 15.421875 62.296875 
Q 12.109375 59.765625 12.109375 55.859375 
Q 12.109375 53.515625 13.46875 51.953125 
Q 14.84375 50.390625 14.84375 48.828125 
Q 14.84375 46.875 13.859375 45.890625 
Q 12.890625 44.921875 10.9375 44.921875 
Q 8.59375 44.921875 7.21875 46.28125 
Q 5.859375 47.65625 5.859375 50.78125 
Q 5.859375 58.984375 11.71875 63.28125 
Q 17.578125 67.578125 24.21875 67.578125 
Q 33.59375 67.578125 38.078125 62.890625 
Q 42.578125 58.203125 42.578125 51.171875 
Q 42.578125 46.484375 40.421875 41.796875 
Q 38.28125 37.109375 33.59375 32.8125 
Q 22.265625 21.875 16.203125 15.03125 
Q 10.15625 8.203125 8.984375 5.859375 
L 32.03125 5.859375 
Q 35.546875 5.859375 37.890625 8.59375 
Q 40.234375 11.328125 41.015625 16.796875 
L 43.359375 16.796875 
L 41.015625 0 
L 4.6875 0 
L 4.6875 5.078125 
Q 6.640625 8.59375 11.125 14.0625 
Q 15.625 19.53125 23.046875 26.953125 
Q 29.6875 33.59375 32.8125 39.453125 
Q 35.9375 45.3125 35.9375 50.390625 
z
" id="FangSong-32"/>
      </defs>
      <g transform="translate(264.429293 265.992188)scale(0.1 -0.1)">
       <use xlink:href="#FangSong-32"/>
       <use x="50" xlink:href="#FangSong-30"/>
       <use x="100" xlink:href="#FangSong-30"/>
      </g>
     </g>
    </g>
    <g id="xtick_4">
     <g id="line2d_4">
      <g>
       <use style="stroke:#000000;stroke-width:0.8;" x="350.212121" xlink:href="#m218f936688" y="252"/>
      </g>
     </g>
     <g id="text_4">
      <!-- 300 -->
      <defs>
       <path d="M 43.359375 17.96875 
Q 43.359375 10.546875 37.890625 4.875 
Q 32.421875 -0.78125 22.65625 -0.78125 
Q 15.625 -0.78125 10.546875 3.125 
Q 5.46875 7.03125 5.46875 12.109375 
Q 5.46875 14.453125 7.03125 16.203125 
Q 8.59375 17.96875 10.15625 17.96875 
Q 12.5 17.96875 13.46875 16.203125 
Q 14.453125 14.453125 14.453125 13.28125 
Q 14.453125 11.328125 13.671875 9.953125 
Q 12.890625 8.59375 12.890625 7.421875 
Q 12.890625 5.078125 15.8125 3.515625 
Q 18.75 1.953125 22.265625 1.953125 
Q 29.296875 1.953125 32.8125 6.046875 
Q 36.328125 10.15625 36.328125 18.75 
Q 36.328125 25.78125 32.609375 30.078125 
Q 28.90625 34.375 18.75 34.375 
L 18.75 37.109375 
Q 26.5625 37.109375 30.265625 40.8125 
Q 33.984375 44.53125 33.984375 51.171875 
Q 33.984375 56.640625 31.046875 60.734375 
Q 28.125 64.84375 21.875 64.84375 
Q 19.140625 64.84375 16.015625 63.46875 
Q 12.890625 62.109375 12.890625 58.984375 
Q 12.890625 55.859375 13.671875 55.078125 
Q 14.453125 54.296875 14.453125 53.125 
Q 14.453125 51.171875 13.671875 50 
Q 12.890625 48.828125 10.9375 48.828125 
Q 9.375 48.828125 8 50 
Q 6.640625 51.171875 6.640625 54.296875 
Q 6.640625 60.15625 11.71875 63.859375 
Q 16.796875 67.578125 23.4375 67.578125 
Q 31.25 67.578125 35.9375 62.6875 
Q 40.625 57.8125 40.625 52.34375 
Q 40.625 46.484375 37.6875 42.375 
Q 34.765625 38.28125 28.515625 36.328125 
Q 37.109375 33.203125 40.234375 28.125 
Q 43.359375 23.046875 43.359375 17.96875 
z
" id="FangSong-33"/>
      </defs>
      <g transform="translate(342.712121 265.992188)scale(0.1 -0.1)">
       <use xlink:href="#FangSong-33"/>
       <use x="50" xlink:href="#FangSong-30"/>
       <use x="100" xlink:href="#FangSong-30"/>
      </g>
     </g>
    </g>
    <g id="xtick_5">
     <g id="line2d_5">
      <g>
       <use style="stroke:#000000;stroke-width:0.8;" x="428.494949" xlink:href="#m218f936688" y="252"/>
      </g>
     </g>
     <g id="text_5">
      <!-- 400 -->
      <defs>
       <path d="M 35.546875 7.421875 
Q 35.546875 4.6875 37.109375 3.515625 
Q 38.671875 2.34375 41.40625 2.34375 
L 44.921875 2.34375 
L 44.921875 0 
L 19.140625 0 
L 19.140625 2.34375 
L 23.4375 2.34375 
Q 26.5625 2.34375 27.921875 3.515625 
Q 29.296875 4.6875 29.296875 7.421875 
L 29.296875 20.3125 
L 3.125 20.3125 
L 3.125 22.265625 
L 31.640625 67.578125 
L 35.546875 67.578125 
L 35.546875 22.65625 
L 46.09375 22.65625 
L 46.09375 20.3125 
L 35.546875 20.3125 
z
M 28.90625 57.8125 
L 6.640625 22.65625 
L 29.296875 22.65625 
L 29.296875 57.8125 
z
" id="FangSong-34"/>
      </defs>
      <g transform="translate(420.994949 265.992188)scale(0.1 -0.1)">
       <use xlink:href="#FangSong-34"/>
       <use x="50" xlink:href="#FangSong-30"/>
       <use x="100" xlink:href="#FangSong-30"/>
      </g>
     </g>
    </g>
    <g id="xtick_6">
     <g id="line2d_6">
      <g>
       <use style="stroke:#000000;stroke-width:0.8;" x="506.777778" xlink:href="#m218f936688" y="252"/>
      </g>
     </g>
     <g id="text_6">
      <!-- 500 -->
      <defs>
       <path d="M 26.5625 42.96875 
Q 33.984375 42.96875 38.671875 37.296875 
Q 43.359375 31.640625 43.359375 22.265625 
Q 43.359375 11.71875 38.46875 5.46875 
Q 33.59375 -0.78125 23.4375 -0.78125 
Q 16.40625 -0.78125 10.9375 3.3125 
Q 5.46875 7.421875 5.46875 13.28125 
Q 5.46875 15.625 6.828125 17.375 
Q 8.203125 19.140625 10.546875 19.140625 
Q 12.890625 19.140625 13.671875 17.578125 
Q 14.453125 16.015625 14.453125 14.84375 
Q 14.453125 12.5 13.28125 11.125 
Q 12.109375 9.765625 12.109375 8.203125 
Q 12.109375 5.078125 15.8125 3.515625 
Q 19.53125 1.953125 23.828125 1.953125 
Q 30.078125 1.953125 33.390625 7.03125 
Q 36.71875 12.109375 36.71875 21.484375 
Q 36.71875 29.296875 33.78125 34.171875 
Q 30.859375 39.0625 25 39.0625 
Q 20.703125 39.0625 17.578125 37.5 
Q 14.453125 35.9375 11.71875 30.859375 
L 8.203125 31.25 
L 10.15625 66.796875 
L 42.1875 66.796875 
L 41.015625 60.9375 
L 12.890625 60.9375 
L 11.328125 35.15625 
Q 15.234375 40.625 18.9375 41.796875 
Q 22.65625 42.96875 26.5625 42.96875 
z
" id="FangSong-35"/>
      </defs>
      <g transform="translate(499.277778 265.992188)scale(0.1 -0.1)">
       <use xlink:href="#FangSong-35"/>
       <use x="50" xlink:href="#FangSong-30"/>
       <use x="100" xlink:href="#FangSong-30"/>
      </g>
     </g>
    </g>
    <g id="xtick_7">
     <g id="line2d_7">
      <g>
       <use style="stroke:#000000;stroke-width:0.8;" x="585.060606" xlink:href="#m218f936688" y="252"/>
      </g>
     </g>
     <g id="text_7">
      <!-- 600 -->
      <defs>
       <path d="M 11.71875 26.5625 
Q 11.71875 14.84375 15.8125 8.390625 
Q 19.921875 1.953125 25.78125 1.953125 
Q 31.640625 1.953125 34.765625 6.25 
Q 37.890625 10.546875 37.890625 22.265625 
Q 37.890625 30.078125 34.5625 34.375 
Q 31.25 38.671875 26.5625 38.671875 
Q 22.265625 38.671875 18.546875 36.125 
Q 14.84375 33.59375 11.71875 26.5625 
z
M 26.953125 42.578125 
Q 36.328125 42.578125 40.421875 36.328125 
Q 44.53125 30.078125 44.53125 22.265625 
Q 44.53125 10.546875 38.859375 4.875 
Q 33.203125 -0.78125 25.78125 -0.78125 
Q 15.234375 -0.78125 9.765625 7.21875 
Q 4.296875 15.234375 4.296875 30.46875 
Q 4.296875 48.4375 10.9375 58 
Q 17.578125 67.578125 28.90625 67.578125 
Q 34.375 67.578125 37.6875 64.453125 
Q 41.015625 61.328125 41.015625 58.984375 
Q 41.015625 56.640625 40.03125 55.46875 
Q 39.0625 54.296875 36.71875 54.296875 
Q 34.765625 54.296875 33.78125 55.265625 
Q 32.8125 56.25 32.8125 58.203125 
Q 32.8125 58.984375 33 59.765625 
Q 33.203125 60.546875 33.203125 61.328125 
Q 33.203125 62.890625 32.03125 63.859375 
Q 30.859375 64.84375 27.734375 64.84375 
Q 21.09375 64.84375 16.40625 58.78125 
Q 11.71875 52.734375 11.71875 32.421875 
Q 14.0625 37.5 18.15625 40.03125 
Q 22.265625 42.578125 26.953125 42.578125 
z
" id="FangSong-36"/>
      </defs>
      <g transform="translate(577.560606 265.992188)scale(0.1 -0.1)">
       <use xlink:href="#FangSong-36"/>
       <use x="50" xlink:href="#FangSong-30"/>
       <use x="100" xlink:href="#FangSong-30"/>
      </g>
     </g>
    </g>
    <g id="text_8">
     <!-- 时间序列 -->
     <defs>
      <path d="M 18.75 11.328125 
Q 19.140625 -0.78125 17.1875 1.953125 
L 13.671875 8.59375 
Q 15.625 11.328125 15.234375 17.578125 
L 15.234375 52.34375 
Q 15.234375 60.15625 14.0625 68.359375 
L 15.234375 68.75 
L 17.96875 61.328125 
L 35.546875 64.0625 
L 37.5 67.578125 
L 42.1875 64.0625 
L 39.453125 60.546875 
Q 39.453125 22.265625 38.46875 13.078125 
Q 37.5 3.90625 36.328125 5.265625 
Q 35.15625 6.640625 34.375 13.28125 
L 18.75 11.328125 
z
M 18.75 15.234375 
Q 30.078125 16.40625 30.859375 17.1875 
L 34.765625 13.28125 
Q 35.546875 25.390625 35.546875 33.984375 
L 35.546875 59.765625 
L 18.75 57.421875 
L 18.75 39.453125 
Q 29.296875 40.625 31.640625 42.1875 
L 35.15625 37.5 
Q 29.6875 37.109375 18.75 35.546875 
z
M 67.578125 82.03125 
L 74.609375 76.171875 
Q 72.265625 74.609375 72.65625 67.1875 
L 72.65625 48.4375 
Q 88.28125 50.390625 88.28125 51.953125 
L 93.75 47.265625 
Q 87.890625 46.875 72.65625 44.921875 
L 72.65625 6.640625 
Q 73.046875 -5.46875 69.921875 -10.546875 
Q 66.015625 -5.078125 53.125 4.296875 
L 53.90625 5.859375 
L 68.359375 -2.34375 
Q 69.140625 2.34375 69.140625 6.640625 
L 69.140625 44.53125 
Q 48.4375 41.796875 45.3125 40.625 
L 39.84375 45.3125 
Q 46.875 45.3125 69.140625 48.046875 
L 69.140625 68.75 
Q 69.53125 76.953125 66.40625 80.859375 
z
M 55.078125 19.921875 
Q 51.953125 28.90625 47.65625 38.28125 
L 48.828125 39.0625 
Q 53.515625 32.8125 58.203125 26.171875 
Q 57.03125 23.4375 55.078125 19.921875 
z
" id="FangSong-65f6"/>
      <path d="M 64.84375 22.65625 
L 39.453125 20.3125 
Q 39.84375 12.5 38.28125 14.0625 
L 34.765625 19.921875 
Q 35.9375 21.875 35.9375 25.78125 
L 35.9375 44.921875 
Q 36.328125 50.390625 34.375 55.078125 
L 35.546875 55.859375 
L 39.0625 50.390625 
L 58.59375 53.125 
L 60.9375 56.25 
L 65.625 51.953125 
L 62.890625 49.21875 
L 62.109375 25.78125 
z
M 78.125 76.953125 
L 83.203125 73.046875 
L 80.859375 69.921875 
L 80.859375 7.03125 
Q 80.859375 -5.078125 77.734375 -10.15625 
Q 73.4375 -3.515625 62.109375 7.8125 
L 63.28125 8.984375 
L 76.171875 -1.171875 
Q 76.953125 -1.171875 77.34375 6.640625 
L 77.34375 69.921875 
Q 48.046875 66.796875 45.703125 66.40625 
L 39.84375 69.921875 
Q 45.703125 69.53125 76.171875 73.4375 
z
M 58.984375 49.21875 
L 39.453125 46.875 
L 39.453125 37.109375 
Q 50.390625 38.671875 51.5625 39.84375 
L 55.46875 35.9375 
Q 51.5625 35.9375 39.453125 33.984375 
L 39.453125 23.828125 
L 58.203125 25.78125 
z
M 21.875 -3.515625 
Q 22.265625 -10.546875 20.703125 -8.59375 
L 16.796875 -2.734375 
Q 18.359375 -0.390625 18.359375 5.46875 
L 18.359375 54.296875 
Q 18.359375 60.9375 16.015625 66.015625 
L 17.1875 66.796875 
L 23.046875 60.546875 
Q 21.875 58.203125 21.875 52.734375 
z
M 22.265625 80.859375 
Q 30.46875 73.828125 34.375 70.703125 
Q 33.203125 66.796875 32.03125 63.671875 
Q 29.296875 69.140625 21.09375 79.6875 
z
" id="FangSong-95f4"/>
      <path d="M 85.546875 39.453125 
L 90.234375 35.546875 
Q 86.71875 33.59375 77.34375 21.484375 
L 75.390625 22.265625 
L 81.640625 32.421875 
L 57.8125 30.078125 
L 62.890625 26.953125 
Q 60.9375 25 61.71875 21.875 
L 61.71875 0.78125 
Q 61.71875 -6.25 58.59375 -10.9375 
Q 55.46875 -6.25 43.75 2.34375 
L 44.53125 3.515625 
L 57.421875 -3.125 
Q 58.203125 0.390625 58.203125 5.078125 
L 58.203125 21.484375 
Q 57.8125 27.34375 57.03125 30.078125 
Q 36.71875 27.34375 35.15625 26.5625 
L 29.6875 30.859375 
Q 35.9375 30.859375 61.328125 33.984375 
Q 58.203125 37.109375 48.4375 44.140625 
L 49.21875 45.703125 
L 58.984375 41.015625 
L 67.96875 51.953125 
Q 44.921875 49.21875 42.1875 48.828125 
L 37.5 52.734375 
Q 42.96875 52.34375 70.703125 55.859375 
L 72.65625 59.375 
L 78.125 54.6875 
Q 75 53.125 70.3125 49.015625 
Q 65.625 44.921875 60.9375 39.84375 
L 64.0625 38.671875 
Q 63.671875 36.328125 62.5 33.984375 
L 82.8125 36.328125 
z
M 58.203125 67.1875 
Q 57.03125 69.53125 46.875 80.078125 
L 47.65625 81.640625 
Q 55.859375 76.5625 60.15625 73.828125 
Q 59.375 70.703125 58.59375 67.1875 
Q 82.8125 69.53125 84.765625 70.703125 
L 89.84375 66.015625 
Q 85.546875 66.015625 28.515625 60.9375 
Q 28.125 43.75 27.140625 34.171875 
Q 26.171875 24.609375 21.875 14.0625 
Q 17.578125 3.515625 7.8125 -7.03125 
L 6.640625 -5.859375 
Q 15.234375 5.46875 18.546875 15.234375 
Q 21.875 25 23.046875 32.21875 
Q 24.21875 39.453125 24.609375 53.125 
Q 25 66.796875 23.4375 72.65625 
L 25 73.046875 
L 28.515625 64.84375 
z
" id="FangSong-5e8f"/>
      <path d="M 84.375 5.859375 
Q 84.765625 -3.90625 81.25 -10.15625 
Q 75.78125 -3.125 64.453125 5.859375 
L 65.234375 6.640625 
L 79.6875 -1.5625 
Q 80.859375 3.90625 80.859375 8.59375 
L 80.859375 66.796875 
Q 81.25 77.34375 77.34375 80.859375 
L 78.515625 81.640625 
L 85.546875 76.171875 
Q 83.984375 75 84.375 67.578125 
z
M 48.046875 50.78125 
L 50.390625 54.6875 
L 55.46875 49.609375 
L 52.34375 47.65625 
Q 46.484375 28.125 36.328125 14.25 
Q 26.171875 0.390625 9.765625 -9.375 
L 9.375 -7.421875 
Q 23.828125 1.953125 33.390625 16.015625 
Q 42.96875 30.078125 48.046875 46.875 
Q 34.375 44.921875 33.203125 43.75 
L 28.90625 46.484375 
Q 26.171875 42.1875 23.4375 37.5 
Q 31.25 33.203125 34.375 30.859375 
Q 33.984375 27.34375 32.421875 23.4375 
Q 28.90625 30.078125 22.265625 35.9375 
Q 18.359375 29.296875 10.9375 21.484375 
L 9.765625 22.265625 
Q 19.140625 35.15625 25 47.65625 
Q 30.859375 60.15625 31.640625 66.015625 
Q 20.3125 64.453125 17.578125 63.671875 
L 12.890625 67.96875 
Q 19.140625 67.96875 35.34375 69.921875 
Q 51.5625 71.875 54.6875 73.046875 
L 58.59375 68.359375 
Q 50.78125 68.359375 33.984375 66.015625 
L 36.71875 61.71875 
Q 35.15625 62.5 29.296875 48.4375 
z
M 67.1875 28.515625 
Q 67.578125 18.359375 65.625 20.3125 
L 61.71875 26.953125 
Q 63.671875 28.515625 63.671875 33.203125 
L 63.671875 52.734375 
Q 63.671875 58.984375 61.328125 62.5 
L 62.5 63.28125 
L 68.75 57.421875 
Q 66.796875 56.640625 67.1875 50.390625 
z
" id="FangSong-5217"/>
     </defs>
     <g transform="translate(341 282.429688)scale(0.14 -0.14)">
      <use xlink:href="#FangSong-65f6"/>
      <use x="100" xlink:href="#FangSong-95f4"/>
      <use x="200" xlink:href="#FangSong-5e8f"/>
      <use x="300" xlink:href="#FangSong-5217"/>
     </g>
    </g>
   </g>
   <g id="matplotlib.axis_2">
    <g id="ytick_1">
     <g id="line2d_8">
      <defs>
       <path d="M 0 0 
L -3.5 0 
" id="m80f05a756c" style="stroke:#000000;stroke-width:0.8;"/>
      </defs>
      <g>
       <use style="stroke:#000000;stroke-width:0.8;" x="90" xlink:href="#m80f05a756c" y="242.337544"/>
      </g>
     </g>
     <g id="text_9">
      <!-- 0.0 -->
      <defs>
       <path d="M 17.578125 4.296875 
Q 17.578125 1.953125 16.015625 0.390625 
Q 14.453125 -1.171875 12.109375 -1.171875 
Q 9.765625 -1.171875 8.203125 0.390625 
Q 6.640625 1.953125 6.640625 4.296875 
Q 6.640625 6.640625 8.203125 8.203125 
Q 9.765625 9.765625 12.109375 9.765625 
Q 14.453125 9.765625 16.015625 8.203125 
Q 17.578125 6.640625 17.578125 4.296875 
z
" id="FangSong-2e"/>
      </defs>
      <g transform="translate(68 245.833638)scale(0.1 -0.1)">
       <use xlink:href="#FangSong-30"/>
       <use x="50" xlink:href="#FangSong-2e"/>
       <use x="100" xlink:href="#FangSong-30"/>
      </g>
     </g>
    </g>
    <g id="ytick_2">
     <g id="line2d_9">
      <g>
       <use style="stroke:#000000;stroke-width:0.8;" x="90" xlink:href="#m80f05a756c" y="196.743093"/>
      </g>
     </g>
     <g id="text_10">
      <!-- 0.2 -->
      <g transform="translate(68 200.239187)scale(0.1 -0.1)">
       <use xlink:href="#FangSong-30"/>
       <use x="50" xlink:href="#FangSong-2e"/>
       <use x="100" xlink:href="#FangSong-32"/>
      </g>
     </g>
    </g>
    <g id="ytick_3">
     <g id="line2d_10">
      <g>
       <use style="stroke:#000000;stroke-width:0.8;" x="90" xlink:href="#m80f05a756c" y="151.148642"/>
      </g>
     </g>
     <g id="text_11">
      <!-- 0.4 -->
      <g transform="translate(68 154.644736)scale(0.1 -0.1)">
       <use xlink:href="#FangSong-30"/>
       <use x="50" xlink:href="#FangSong-2e"/>
       <use x="100" xlink:href="#FangSong-34"/>
      </g>
     </g>
    </g>
    <g id="ytick_4">
     <g id="line2d_11">
      <g>
       <use style="stroke:#000000;stroke-width:0.8;" x="90" xlink:href="#m80f05a756c" y="105.554192"/>
      </g>
     </g>
     <g id="text_12">
      <!-- 0.6 -->
      <g transform="translate(68 109.050285)scale(0.1 -0.1)">
       <use xlink:href="#FangSong-30"/>
       <use x="50" xlink:href="#FangSong-2e"/>
       <use x="100" xlink:href="#FangSong-36"/>
      </g>
     </g>
    </g>
    <g id="ytick_5">
     <g id="line2d_12">
      <g>
       <use style="stroke:#000000;stroke-width:0.8;" x="90" xlink:href="#m80f05a756c" y="59.959741"/>
      </g>
     </g>
     <g id="text_13">
      <!-- 0.8 -->
      <defs>
       <path d="M 9.375 16.015625 
Q 9.375 9.765625 13.46875 5.859375 
Q 17.578125 1.953125 23.828125 1.953125 
Q 31.25 1.953125 34.5625 5.859375 
Q 37.890625 9.765625 37.890625 15.625 
Q 37.890625 20.703125 33.203125 25.390625 
Q 28.515625 30.078125 19.140625 33.984375 
Q 14.453125 30.859375 11.90625 26.171875 
Q 9.375 21.484375 9.375 16.015625 
z
M 43.75 16.796875 
Q 43.75 9.375 38.28125 4.296875 
Q 32.8125 -0.78125 23.828125 -0.78125 
Q 15.625 -0.78125 9.765625 4.296875 
Q 3.90625 9.375 3.90625 16.015625 
Q 3.90625 22.65625 7.21875 27.34375 
Q 10.546875 32.03125 16.796875 35.546875 
Q 11.328125 38.28125 8.390625 42.375 
Q 5.46875 46.484375 5.46875 51.5625 
Q 5.46875 58.203125 10.546875 62.890625 
Q 15.625 67.578125 24.609375 67.578125 
Q 32.8125 67.578125 37.890625 62.890625 
Q 42.96875 58.203125 42.96875 51.5625 
Q 42.96875 46.875 40.03125 42.765625 
Q 37.109375 38.671875 30.859375 35.546875 
Q 37.5 31.640625 40.625 26.953125 
Q 43.75 22.265625 43.75 16.796875 
z
M 37.5 51.171875 
Q 37.5 56.640625 34.375 60.734375 
Q 31.25 64.84375 24.609375 64.84375 
Q 17.1875 64.84375 14.0625 60.9375 
Q 10.9375 57.03125 10.9375 52.734375 
Q 10.9375 48.4375 15.421875 44.328125 
Q 19.921875 40.234375 28.125 37.109375 
Q 32.8125 39.453125 35.15625 42.96875 
Q 37.5 46.484375 37.5 51.171875 
z
" id="FangSong-38"/>
      </defs>
      <g transform="translate(68 63.455834)scale(0.1 -0.1)">
       <use xlink:href="#FangSong-30"/>
       <use x="50" xlink:href="#FangSong-2e"/>
       <use x="100" xlink:href="#FangSong-38"/>
      </g>
     </g>
    </g>
    <g id="text_14">
     <!-- 归一化数值 -->
     <defs>
      <path d="M 46.09375 62.890625 
Q 54.6875 62.890625 82.03125 66.40625 
L 84.375 69.53125 
L 89.0625 66.015625 
L 86.71875 62.890625 
L 80.46875 12.890625 
L 84.765625 8.984375 
Q 53.515625 6.640625 47.65625 5.46875 
L 41.796875 9.375 
Q 51.953125 9.375 76.171875 12.5 
L 82.421875 62.5 
Q 57.03125 59.765625 51.5625 58.59375 
z
M 42.578125 75.78125 
Q 41.015625 75 41.015625 71.875 
Q 41.015625 68.75 40.8125 53.90625 
Q 40.625 39.0625 38.859375 29.09375 
Q 37.109375 19.140625 31.640625 9.5625 
Q 26.171875 0 12.890625 -10.546875 
L 12.109375 -8.984375 
Q 25 2.34375 30.265625 13.859375 
Q 35.546875 25.390625 36.328125 40.421875 
Q 37.109375 55.46875 37.109375 66.015625 
Q 37.109375 76.953125 34.765625 79.6875 
L 35.9375 80.859375 
L 42.578125 75.78125 
z
M 22.265625 61.328125 
Q 19.921875 60.15625 20.703125 53.90625 
L 20.703125 21.875 
Q 21.09375 13.671875 18.75 16.015625 
L 15.234375 22.265625 
Q 17.1875 24.21875 17.1875 29.296875 
L 17.1875 56.25 
Q 17.1875 63.28125 15.234375 66.796875 
L 16.40625 67.578125 
L 22.265625 61.328125 
z
M 76.953125 37.109375 
Q 70.3125 37.109375 62.6875 36.125 
Q 55.078125 35.15625 51.5625 34.375 
L 46.09375 38.28125 
Q 52.34375 38.28125 61.328125 39.453125 
Q 70.3125 40.625 72.65625 41.796875 
z
" id="FangSong-5f52"/>
      <path d="M 91.796875 40.234375 
Q 82.421875 39.84375 52.53125 37.5 
Q 22.65625 35.15625 15.625 34.375 
L 8.203125 38.28125 
Q 23.046875 38.671875 51.171875 41.015625 
Q 79.296875 43.359375 84.375 44.921875 
z
" id="FangSong-4e00"/>
      <path d="M 57.8125 7.8125 
Q 57.8125 0.390625 68.359375 0 
L 79.296875 0 
Q 85.15625 0 86.125 2.53125 
Q 87.109375 5.078125 87.109375 21.09375 
L 89.0625 21.09375 
Q 89.0625 15.625 89.640625 8.78125 
Q 90.234375 1.953125 92.578125 -2.34375 
Q 87.890625 -3.90625 79.296875 -3.90625 
L 68.359375 -3.90625 
Q 54.296875 -3.90625 54.296875 6.25 
L 54.296875 30.46875 
Q 46.484375 24.21875 35.546875 18.75 
L 34.765625 20.703125 
Q 45.3125 26.5625 54.296875 34.375 
L 54.296875 66.796875 
Q 54.296875 76.171875 51.953125 80.078125 
L 52.734375 80.859375 
L 60.15625 73.828125 
Q 57.421875 72.65625 57.8125 66.015625 
L 57.8125 36.71875 
Q 66.015625 42.96875 73.046875 50.390625 
Q 80.078125 57.8125 79.296875 61.71875 
L 80.46875 61.71875 
L 83.203125 53.125 
Q 82.421875 53.90625 74.609375 46.671875 
Q 66.796875 39.453125 57.8125 32.8125 
z
M 32.03125 -4.6875 
Q 32.03125 -10.9375 30.46875 -8.59375 
L 26.5625 -1.171875 
Q 28.90625 -0.390625 28.515625 4.6875 
L 28.90625 52.34375 
Q 21.875 42.96875 7.8125 31.25 
L 7.03125 32.8125 
Q 21.875 47.65625 31.640625 62.5 
Q 41.40625 77.34375 39.453125 80.46875 
L 40.625 80.859375 
L 44.921875 72.65625 
Q 43.359375 73.4375 40.03125 68.75 
Q 36.71875 64.0625 32.421875 57.421875 
z
" id="FangSong-5316"/>
      <path d="M 77.34375 42.96875 
Q 76.171875 41.796875 74.015625 35.34375 
Q 71.875 28.90625 68.359375 20.3125 
Q 76.171875 4.6875 79.484375 0.578125 
Q 82.8125 -3.515625 93.75 -3.515625 
L 93.75 -5.46875 
L 76.953125 -6.640625 
Q 77.34375 -5.078125 74.796875 0.578125 
Q 72.265625 6.25 66.40625 17.1875 
Q 56.25 0.78125 40.234375 -10.546875 
L 39.0625 -8.984375 
Q 53.125 1.5625 64.0625 20.3125 
Q 57.8125 33.59375 55.46875 36.71875 
Q 53.125 32.03125 50.78125 28.515625 
L 49.21875 29.296875 
Q 53.125 37.890625 55.859375 45.890625 
Q 58.59375 53.90625 61.71875 66.015625 
Q 64.84375 78.125 62.890625 79.6875 
L 64.0625 80.46875 
L 69.140625 75 
Q 67.96875 74.21875 66.984375 70.3125 
Q 66.015625 66.40625 60.9375 50 
Q 83.203125 52.734375 85.546875 54.296875 
L 90.234375 50 
Q 84.765625 49.609375 73.4375 48.046875 
z
M 46.484375 7.03125 
Q 46.875 3.515625 46.875 0.390625 
Q 42.1875 3.125 35.546875 6.25 
Q 25.78125 -3.90625 8.59375 -9.765625 
L 7.8125 -8.203125 
Q 23.046875 -1.171875 31.640625 7.421875 
Q 26.171875 8.984375 19.921875 10.9375 
L 25 21.484375 
Q 15.625 20.3125 12.890625 19.53125 
L 8.203125 23.828125 
Q 12.890625 23.828125 26.5625 25.390625 
Q 28.125 29.296875 28.515625 31.828125 
Q 28.90625 34.375 28.515625 36.71875 
L 29.296875 37.109375 
L 33.59375 31.25 
Q 32.421875 30.859375 30.46875 25.78125 
L 42.578125 26.953125 
Q 43.359375 28.90625 42.96875 32.421875 
L 44.140625 32.8125 
L 48.828125 26.5625 
Q 47.65625 26.5625 45.3125 21.671875 
Q 42.96875 16.796875 38.28125 8.984375 
Q 41.40625 8.203125 46.484375 7.03125 
z
M 36.71875 56.25 
L 41.40625 56.640625 
Q 45.3125 64.84375 46.671875 69.328125 
Q 48.046875 73.828125 47.65625 77.34375 
L 48.828125 78.125 
L 53.125 71.484375 
Q 51.953125 71.09375 50.1875 67.765625 
Q 48.4375 64.453125 43.75 56.640625 
Q 51.171875 58.203125 51.5625 58.59375 
L 55.078125 54.296875 
Q 50.78125 54.296875 36.71875 52.734375 
L 36.71875 50.390625 
Q 43.75 47.265625 50.390625 44.53125 
Q 50.390625 41.40625 50 37.5 
Q 44.53125 42.96875 36.71875 48.046875 
L 36.71875 37.109375 
Q 36.71875 32.03125 35.15625 34.375 
L 31.640625 39.0625 
Q 33.59375 41.015625 33.203125 44.53125 
L 33.203125 50 
Q 21.09375 35.9375 7.421875 27.734375 
L 6.25 29.296875 
Q 18.75 37.890625 29.6875 51.953125 
Q 16.40625 50.390625 15.625 49.609375 
L 10.546875 54.296875 
Q 16.40625 53.90625 33.203125 55.859375 
L 33.203125 69.921875 
Q 33.203125 77.734375 31.25 80.859375 
L 32.421875 81.640625 
L 38.28125 76.953125 
Q 36.71875 75.78125 36.71875 68.75 
z
M 59.375 38.28125 
Q 59.765625 35.9375 61.71875 31.640625 
L 65.625 24.21875 
Q 67.578125 28.125 70.109375 37.109375 
Q 72.65625 46.09375 71.875 47.65625 
L 59.375 46.09375 
Q 57.8125 42.1875 56.25 38.671875 
z
M 33.984375 10.15625 
Q 39.0625 16.796875 41.796875 23.828125 
L 29.296875 21.875 
L 24.609375 12.5 
z
M 25.390625 57.03125 
Q 23.046875 62.5 17.1875 70.703125 
L 18.359375 71.875 
Q 23.046875 67.96875 28.515625 62.890625 
Q 26.953125 59.765625 25.390625 57.03125 
z
" id="FangSong-6570"/>
      <path d="M 74.21875 55.078125 
L 78.90625 50.390625 
L 76.171875 47.65625 
L 75.390625 3.125 
Q 87.109375 3.90625 89.0625 5.078125 
L 92.96875 0.390625 
Q 87.109375 0.78125 62.6875 -1.359375 
Q 38.28125 -3.515625 34.375 -4.296875 
L 30.078125 0 
Q 35.9375 0 44.921875 0.78125 
L 44.140625 43.359375 
Q 44.140625 48.4375 42.1875 52.734375 
L 43.359375 53.515625 
L 47.65625 47.65625 
L 56.640625 48.828125 
L 57.03125 59.765625 
Q 41.40625 57.8125 38.28125 57.03125 
L 33.984375 60.9375 
Q 40.234375 60.9375 57.421875 63.671875 
L 57.8125 70.3125 
Q 58.203125 76.953125 55.859375 80.46875 
L 57.03125 81.640625 
L 63.671875 75.390625 
Q 61.328125 75.390625 61.328125 69.53125 
L 60.9375 64.0625 
Q 79.6875 66.796875 82.8125 67.96875 
L 87.5 63.671875 
Q 82.8125 63.671875 60.546875 60.15625 
L 60.15625 49.21875 
L 72.265625 50.78125 
z
M 47.65625 36.71875 
Q 62.109375 38.671875 66.796875 40.234375 
L 69.53125 35.9375 
Q 64.0625 35.546875 48.046875 33.203125 
L 48.046875 25.390625 
Q 64.453125 27.34375 66.015625 28.125 
L 69.921875 24.609375 
Q 64.453125 24.21875 48.046875 21.875 
L 48.4375 14.453125 
Q 65.234375 15.625 67.1875 16.796875 
L 69.921875 12.890625 
Q 64.84375 12.890625 48.4375 10.9375 
L 48.4375 0.78125 
L 71.875 2.734375 
L 72.65625 47.265625 
L 47.65625 44.140625 
z
M 27.34375 -3.515625 
Q 27.34375 -10.546875 25.78125 -7.03125 
L 22.265625 -0.78125 
Q 24.21875 1.953125 23.828125 4.6875 
L 24.609375 53.90625 
Q 16.796875 42.96875 7.421875 34.765625 
L 6.25 35.9375 
Q 17.1875 47.265625 25.578125 60.9375 
Q 33.984375 74.609375 33.203125 79.296875 
L 34.375 79.296875 
L 38.671875 73.046875 
Q 37.109375 72.265625 34.765625 69.140625 
Q 32.03125 65.234375 28.125 58.984375 
L 27.34375 -3.515625 
z
" id="FangSong-503c"/>
     </defs>
     <g transform="translate(61.976562 178.28)rotate(-90)scale(0.14 -0.14)">
      <use xlink:href="#FangSong-5f52"/>
      <use x="100" xlink:href="#FangSong-4e00"/>
      <use x="200" xlink:href="#FangSong-5316"/>
      <use x="300" xlink:href="#FangSong-6570"/>
      <use x="400" xlink:href="#FangSong-503c"/>
     </g>
    </g>
   </g>
   <g id="line2d_13">
    <path clip-path="url(#pe27875b3f4)" d="M 115.363636 242.027844 
L 116.146465 200.084802 
L 116.929293 192.931802 
L 117.712121 192.982082 
L 118.494949 186.496835 
L 119.277778 184.611836 
L 120.060606 175.532517 
L 120.843434 170.46054 
L 121.626263 164.040183 
L 123.191919 156.791459 
L 124.757576 149.957202 
L 126.323232 140.170344 
L 127.106061 137.039471 
L 127.888889 132.144431 
L 128.671717 128.938609 
L 129.454545 128.817881 
L 130.237374 122.539614 
L 132.585859 113.120062 
L 133.368687 110.633531 
L 134.151515 108.581303 
L 134.934343 106.067181 
L 135.717172 117.23099 
L 136.5 125.442779 
L 137.282828 122.42559 
L 138.065657 103.581722 
L 138.848485 97.203695 
L 139.631313 94.789847 
L 140.414141 93.578951 
L 141.19697 92.155095 
L 141.979798 91.08265 
L 143.545455 88.190765 
L 146.676768 82.265948 
L 148.242424 80.65583 
L 149.025253 79.505235 
L 149.808081 78.823162 
L 152.156566 75.693928 
L 152.939394 75.193103 
L 153.722222 75.216374 
L 154.505051 74.903517 
L 155.287879 76.510298 
L 156.070707 72.383914 
L 156.853535 73.383797 
L 157.636364 81.380972 
L 158.419192 76.854128 
L 159.20202 70.037962 
L 159.984848 70.300939 
L 162.333333 71.692161 
L 163.116162 71.916508 
L 163.89899 73.550789 
L 164.681818 72.990192 
L 165.464646 72.183261 
L 166.247475 74.2669 
L 167.030303 78.928268 
L 167.813131 79.483942 
L 168.59596 73.115111 
L 169.378788 74.306133 
L 172.510101 77.836327 
L 173.292929 78.352344 
L 174.075758 79.14955 
L 174.858586 80.191158 
L 175.641414 81.522956 
L 176.424242 83.79414 
L 177.207071 85.651197 
L 177.989899 86.758165 
L 178.772727 86.804088 
L 179.555556 88.500602 
L 180.338384 90.923631 
L 181.121212 91.897464 
L 181.90404 93.168977 
L 183.469697 97.618094 
L 184.252525 98.999576 
L 185.818182 102.421884 
L 186.60101 105.231919 
L 189.732323 113.807994 
L 190.515152 116.399027 
L 191.29798 118.321345 
L 196.777778 137.482261 
L 199.126263 147.417642 
L 201.474747 160.109023 
L 203.040404 167.560258 
L 204.606061 176.317581 
L 206.954545 190.049416 
L 211.651515 222.942658 
L 213.217172 231.510301 
L 215.565657 241.163047 
L 216.348485 241.940593 
L 217.131313 242.106088 
L 217.914141 241.990676 
L 218.69697 200.173768 
L 219.479798 192.187492 
L 220.262626 186.953858 
L 221.045455 182.968333 
L 221.828283 181.552141 
L 222.611111 172.893612 
L 224.959596 159.356654 
L 225.742424 153.597182 
L 226.525253 148.8262 
L 227.308081 160.987113 
L 228.090909 153.788979 
L 228.873737 141.723077 
L 229.656566 145.066676 
L 230.439394 137.113763 
L 231.222222 137.614731 
L 232.005051 126.195051 
L 232.787879 137.421584 
L 233.570707 128.707481 
L 234.353535 139.464479 
L 235.136364 129.051787 
L 235.919192 116.60144 
L 236.70202 131.658307 
L 237.484848 134.301123 
L 238.267677 108.675279 
L 239.050505 102.538724 
L 239.833333 105.931494 
L 240.616162 110.550533 
L 241.39899 99.33356 
L 242.181818 100.726806 
L 242.964646 98.328875 
L 243.747475 92.183954 
L 244.530303 112.295628 
L 245.313131 137.469025 
L 246.878788 88.205368 
L 247.661616 101.133186 
L 248.444444 101.660499 
L 249.227273 90.310542 
L 250.010101 81.810986 
L 250.792929 90.733534 
L 251.575758 120.97804 
L 252.358586 133.756232 
L 253.141414 88.323054 
L 253.924242 73.242553 
L 254.707071 66.22368 
L 255.489899 78.610156 
L 256.272727 112.847617 
L 257.055556 112.439862 
L 257.838384 92.85316 
L 258.621212 138.730186 
L 259.40404 89.437376 
L 260.186869 68.771085 
L 260.969697 64.039888 
L 261.752525 83.452621 
L 262.535354 77.912181 
L 263.318182 79.055347 
L 264.10101 91.776698 
L 264.883838 102.114917 
L 265.666667 102.374511 
L 266.449495 115.029604 
L 267.232323 130.157833 
L 268.015152 97.733394 
L 268.79798 78.568264 
L 269.580808 95.880309 
L 270.363636 97.792471 
L 271.146465 76.84925 
L 271.929293 109.307653 
L 272.712121 62.631707 
L 273.494949 71.456306 
L 274.277778 72.130738 
L 275.060606 74.994322 
L 275.843434 77.433827 
L 276.626263 82.317187 
L 277.409091 80.78682 
L 278.191919 86.030078 
L 278.974747 85.117617 
L 279.757576 85.528649 
L 280.540404 88.69825 
L 281.323232 105.17766 
L 282.106061 89.499896 
L 282.888889 90.41444 
L 283.671717 92.153524 
L 284.454545 94.583304 
L 285.237374 96.338502 
L 287.585859 103.10509 
L 289.934343 110.390201 
L 291.5 112.755528 
L 295.414141 125.336631 
L 296.979798 131.685648 
L 297.762626 155.427502 
L 298.545455 144.331212 
L 299.328283 146.425921 
L 300.111111 161.823832 
L 300.893939 162.216674 
L 302.459596 189.939961 
L 303.242424 151.116896 
L 304.025253 154.803585 
L 305.590909 164.149895 
L 307.939394 181.479431 
L 309.505051 191.526898 
L 311.853535 207.396465 
L 312.636364 214.19204 
L 313.419192 227.960576 
L 314.20202 227.503032 
L 314.984848 235.158155 
L 315.767677 240.135905 
L 316.550505 238.882064 
L 317.333333 239.836724 
L 318.116162 241.459537 
L 318.89899 241.891776 
L 319.681818 242.018405 
L 320.464646 242.002019 
L 321.247475 202.800917 
L 322.030303 195.192143 
L 322.813131 189.832333 
L 325.161616 175.784326 
L 325.944444 169.796415 
L 327.510101 159.584837 
L 329.075758 153.792475 
L 329.858586 167.982299 
L 330.641414 149.166421 
L 331.424242 150.721313 
L 332.989899 138.933535 
L 333.772727 135.535381 
L 334.555556 133.014064 
L 336.121212 127.305129 
L 337.686869 122.615454 
L 339.252525 116.93038 
L 340.035354 114.392843 
L 340.818182 111.159605 
L 341.60101 117.77067 
L 342.383838 107.288934 
L 343.166667 127.511038 
L 343.949495 106.189956 
L 344.732323 102.684771 
L 345.515152 97.076284 
L 346.29798 97.333507 
L 347.080808 109.762645 
L 347.863636 108.854428 
L 348.646465 92.456928 
L 349.429293 97.024697 
L 350.212121 97.671115 
L 350.994949 91.325662 
L 351.777778 91.786967 
L 352.560606 94.555895 
L 353.343434 89.525674 
L 354.126263 88.793721 
L 354.909091 87.263475 
L 355.691919 85.444715 
L 356.474747 84.046501 
L 357.257576 83.720536 
L 358.040404 82.769944 
L 359.606061 81.949059 
L 360.388889 81.919354 
L 361.171717 82.437395 
L 361.954545 82.003681 
L 362.737374 82.145468 
L 363.520202 82.063332 
L 364.30303 80.338322 
L 365.085859 79.352408 
L 365.868687 85.963798 
L 366.651515 75.085218 
L 367.434343 77.655336 
L 368.217172 79.422901 
L 369 80.434397 
L 369.782828 80.652659 
L 370.565657 82.009102 
L 371.348485 81.362156 
L 372.131313 81.432528 
L 372.914141 80.574343 
L 373.69697 81.447947 
L 374.479798 81.775332 
L 375.262626 82.293599 
L 376.045455 82.361903 
L 376.828283 83.198977 
L 377.611111 85.347326 
L 378.393939 87.825838 
L 379.176768 88.282914 
L 379.959596 87.751478 
L 380.742424 87.994763 
L 381.525253 89.645942 
L 382.308081 92.134391 
L 383.090909 93.33464 
L 383.873737 94.829232 
L 384.656566 95.514853 
L 386.222222 101.250237 
L 387.787879 103.50025 
L 388.570707 104.035385 
L 389.353535 105.886718 
L 390.136364 108.567968 
L 390.919192 110.266641 
L 391.70202 111.133148 
L 392.484848 112.62114 
L 393.267677 114.423061 
L 394.833333 120.132154 
L 395.616162 122.183235 
L 396.39899 125.05582 
L 397.964646 129.84845 
L 398.747475 132.816559 
L 400.313131 137.02918 
L 403.444444 149.139148 
L 409.707071 180.84241 
L 411.272727 189.367513 
L 414.40404 209.880563 
L 415.969697 220.595815 
L 416.752525 225.365317 
L 418.318182 233.454895 
L 419.10101 236.672632 
L 419.883838 239.380744 
L 420.666667 241.062159 
L 421.449495 241.793173 
L 422.232323 242.116364 
L 423.015152 242.115342 
L 423.79798 197.568536 
L 424.580808 191.858205 
L 428.494949 168.102529 
L 429.277778 164.111825 
L 430.060606 160.990156 
L 430.843434 156.695663 
L 433.191919 146.400301 
L 435.540404 137.281427 
L 436.323232 135.927853 
L 437.106061 133.865356 
L 437.888889 128.495608 
L 438.671717 125.928609 
L 441.020202 120.032447 
L 441.80303 117.359948 
L 442.585859 115.215322 
L 443.368687 113.939316 
L 444.151515 111.799152 
L 444.934343 108.945686 
L 446.5 104.999341 
L 447.282828 103.406469 
L 450.414141 95.401728 
L 451.19697 93.793543 
L 452.762626 91.65276 
L 454.328283 89.72826 
L 455.111111 88.367497 
L 455.893939 87.753729 
L 456.676768 86.790784 
L 458.242424 85.500319 
L 459.025253 85.124564 
L 459.808081 85.023596 
L 460.590909 84.23986 
L 462.156566 83.895154 
L 463.722222 82.685935 
L 464.505051 82.999547 
L 465.287879 83.750799 
L 466.070707 82.859843 
L 466.853535 82.398252 
L 467.636364 83.459749 
L 468.419192 83.779311 
L 469.20202 83.927954 
L 469.984848 84.319082 
L 470.767677 84.416562 
L 471.550505 83.746797 
L 472.333333 84.000834 
L 473.116162 84.709938 
L 473.89899 86.69563 
L 474.681818 86.541413 
L 475.464646 85.945011 
L 477.030303 87.010646 
L 478.59596 89.01541 
L 479.378788 89.145796 
L 480.161616 89.822297 
L 480.944444 91.103308 
L 481.727273 92.085825 
L 482.510101 93.82805 
L 483.292929 96.246413 
L 484.075758 96.229122 
L 484.858586 94.968996 
L 485.641414 94.922136 
L 486.424242 95.844714 
L 487.207071 97.560135 
L 487.989899 100.164246 
L 488.772727 101.856969 
L 489.555556 102.973148 
L 491.121212 106.48377 
L 491.90404 109.723003 
L 492.686869 111.634682 
L 493.469697 112.881655 
L 494.252525 114.983749 
L 495.035354 117.66351 
L 495.818182 121.036913 
L 496.60101 123.631193 
L 497.383838 125.396901 
L 498.166667 126.533588 
L 498.949495 128.479253 
L 499.732323 130.818741 
L 501.29798 137.127181 
L 502.080808 140.514809 
L 502.863636 143.076379 
L 504.429293 173.470072 
L 505.212121 176.263767 
L 505.994949 163.4112 
L 506.777778 181.014521 
L 507.560606 167.576477 
L 509.909091 179.345387 
L 510.691919 182.842308 
L 511.474747 188.046415 
L 512.257576 192.211262 
L 513.823232 199.641638 
L 514.606061 207.615569 
L 515.388889 209.350481 
L 516.954545 219.562281 
L 517.737374 229.499345 
L 518.520202 227.962364 
L 519.30303 236.675561 
L 520.085859 237.00781 
L 520.868687 240.253212 
L 522.434343 241.533318 
L 523.217172 241.900633 
L 524 242.040001 
L 524.782828 241.971014 
L 525.565657 205.413632 
L 526.348485 208.202948 
L 527.131313 198.223203 
L 527.914141 200.265287 
L 528.69697 211.058946 
L 529.479798 196.140051 
L 530.262626 207.719825 
L 531.045455 208.904154 
L 531.828283 206.365285 
L 532.611111 208.39742 
L 533.393939 199.445232 
L 534.176768 200.216071 
L 534.959596 185.988773 
L 535.742424 190.913676 
L 536.525253 201.654116 
L 537.308081 199.775471 
L 538.090909 186.675176 
L 538.873737 138.605674 
L 539.656566 124.373603 
L 540.439394 102.56636 
L 541.222222 105.67634 
L 542.005051 121.467576 
L 542.787879 118.508785 
L 543.570707 129.948406 
L 544.353535 144.845251 
L 545.136364 146.924503 
L 545.919192 143.773228 
L 546.70202 128.597188 
L 547.484848 109.747211 
L 548.267677 106.456557 
L 549.050505 110.064659 
L 549.833333 97.646289 
L 550.616162 138.558354 
L 551.39899 148.162559 
L 552.181818 89.920939 
L 552.964646 101.541076 
L 553.747475 85.690612 
L 554.530303 107.575832 
L 555.313131 122.160341 
L 556.09596 173.150329 
L 556.878788 157.272539 
L 557.661616 155.566458 
L 558.444444 166.381378 
L 559.227273 162.444276 
L 560.010101 128.224582 
L 560.792929 131.770126 
L 561.575758 119.714621 
L 562.358586 133.420142 
L 563.141414 136.439468 
L 563.924242 145.197394 
L 564.707071 138.309542 
L 565.489899 120.970519 
L 566.272727 114.537123 
L 567.055556 115.136658 
L 567.838384 110.29698 
L 568.621212 157.519493 
L 569.40404 165.512636 
L 570.186869 166.976625 
L 570.969697 169.794958 
L 571.752525 164.957295 
L 572.535354 165.308125 
L 573.318182 154.056033 
L 574.10101 163.90347 
L 574.883838 172.197495 
L 575.666667 166.988706 
L 576.449495 165.142545 
L 577.232323 167.732642 
L 578.015152 166.658105 
L 578.79798 167.263183 
L 579.580808 176.198612 
L 580.363636 168.795936 
L 581.146465 169.629227 
L 581.929293 177.99091 
L 582.712121 174.692181 
L 583.494949 165.844899 
L 584.277778 164.268419 
L 585.060606 165.50467 
L 585.843434 133.843572 
L 586.626263 184.140331 
L 587.409091 196.82346 
L 588.191919 196.266858 
L 588.974747 191.984287 
L 589.757576 189.784182 
L 591.323232 182.416246 
L 592.106061 182.623869 
L 592.888889 191.01213 
L 593.671717 184.537971 
L 594.454545 183.401073 
L 595.237374 170.251785 
L 596.020202 162.320248 
L 596.80303 181.757819 
L 597.585859 172.141513 
L 598.368687 170.607583 
L 599.934343 195.018016 
L 600.717172 195.697555 
L 601.5 201.046576 
L 602.282828 204.873913 
L 603.065657 204.261693 
L 603.848485 202.986906 
L 604.631313 202.802148 
L 605.414141 205.763537 
L 606.19697 206.821315 
L 606.979798 203.568924 
L 607.762626 208.34016 
L 608.545455 215.569471 
L 610.893939 224.729334 
L 611.676768 225.934124 
L 612.459596 225.969573 
L 613.242424 226.546608 
L 614.025253 227.690449 
L 614.808081 231.026792 
L 616.373737 232.875744 
L 617.156566 235.609541 
L 617.939394 237.58911 
L 618.722222 238.024969 
L 619.505051 238.893737 
L 620.287879 240.494264 
L 621.070707 241.148134 
L 621.853535 241.488609 
L 622.636364 241.638479 
L 622.636364 241.638479 
" style="fill:none;stroke:#000000;stroke-linecap:square;stroke-width:1.5;"/>
   </g>
   <g id="line2d_14">
    <path clip-path="url(#pe27875b3f4)" d="M 115.363636 66.222774 
L 116.146465 98.094952 
L 116.929293 94.586063 
L 117.712121 92.422428 
L 118.494949 91.276842 
L 119.277778 89.242735 
L 120.060606 89.448526 
L 120.843434 89.173906 
L 123.191919 85.010669 
L 123.974747 82.737562 
L 124.757576 81.969534 
L 125.540404 81.768466 
L 126.323232 80.903155 
L 127.106061 79.707511 
L 127.888889 79.823411 
L 128.671717 79.52507 
L 129.454545 78.062088 
L 130.237374 77.7364 
L 131.020202 76.56613 
L 132.585859 75.847775 
L 134.151515 74.209799 
L 134.934343 73.039025 
L 135.717172 72.201896 
L 136.5 73.252039 
L 137.282828 73.484777 
L 138.065657 73.119819 
L 138.848485 72.052726 
L 139.631313 71.204466 
L 141.19697 70.433631 
L 141.979798 69.46806 
L 142.762626 68.85036 
L 144.328283 68.569822 
L 145.111111 69.250285 
L 146.676768 66.874955 
L 147.459596 66.828509 
L 148.242424 67.581789 
L 149.808081 65.760706 
L 150.590909 65.838269 
L 151.373737 65.153084 
L 152.939394 64.58499 
L 153.722222 64.014608 
L 154.505051 63.010125 
L 155.287879 62.748653 
L 156.070707 63.116766 
L 158.419192 62.627445 
L 159.20202 61.929603 
L 159.984848 61.450423 
L 160.767677 61.622495 
L 161.550505 59.669596 
L 162.333333 59.284729 
L 163.116162 60.969947 
L 163.89899 60.21609 
L 164.681818 59.820482 
L 165.464646 60.176777 
L 166.247475 60.380709 
L 167.030303 60.81726 
L 167.813131 60.000235 
L 168.59596 59.95833 
L 169.378788 60.95974 
L 170.944444 59.493627 
L 171.727273 59.135959 
L 172.510101 58.92345 
L 173.292929 59.462586 
L 174.075758 59.234552 
L 174.858586 58.798601 
L 175.641414 59.077929 
L 176.424242 59.073163 
L 177.207071 57.94012 
L 178.772727 59.801297 
L 179.555556 60.070627 
L 180.338384 58.87798 
L 181.121212 58.270549 
L 181.90404 57.494448 
L 182.686869 58.895202 
L 183.469697 58.331182 
L 184.252525 58.510077 
L 185.035354 58.439848 
L 185.818182 58.856518 
L 186.60101 57.967177 
L 187.383838 58.771316 
L 188.166667 58.837438 
L 188.949495 59.016 
L 189.732323 58.934324 
L 190.515152 57.790502 
L 191.29798 59.077576 
L 192.863636 59.584118 
L 193.646465 59.501089 
L 194.429293 59.709843 
L 195.212121 59.621992 
L 195.994949 60.140943 
L 197.560606 59.717706 
L 198.343434 60.232997 
L 199.126263 60.31959 
L 199.909091 60.777156 
L 200.691919 60.72774 
L 201.474747 60.804756 
L 202.257576 61.089439 
L 203.040404 61.505423 
L 203.823232 61.529326 
L 204.606061 61.990322 
L 206.171717 62.562495 
L 206.954545 62.519613 
L 208.520202 63.212389 
L 209.30303 63.826249 
L 210.085859 64.153423 
L 212.434343 64.755984 
L 214 65.883996 
L 215.565657 66.706977 
L 216.348485 67.366906 
L 217.131313 68.265249 
L 217.914141 68.739388 
L 218.69697 97.879059 
L 219.479798 96.382873 
L 221.045455 92.545409 
L 221.828283 89.703984 
L 222.611111 89.546413 
L 223.393939 88.552632 
L 224.176768 87.143483 
L 225.742424 83.543017 
L 227.308081 82.896577 
L 228.873737 80.992208 
L 229.656566 81.233261 
L 230.439394 80.023092 
L 231.222222 79.482984 
L 232.005051 79.100028 
L 232.787879 78.289541 
L 233.570707 77.813506 
L 234.353535 76.643208 
L 235.136364 76.75398 
L 237.484848 75.804807 
L 239.050505 73.615549 
L 239.833333 73.06956 
L 240.616162 73.835883 
L 241.39899 72.838071 
L 242.181818 72.136727 
L 242.964646 71.981762 
L 243.747475 70.89862 
L 244.530303 70.872287 
L 245.313131 71.150752 
L 246.878788 71.050525 
L 247.661616 69.934465 
L 248.444444 69.353347 
L 249.227273 69.213946 
L 250.010101 68.941376 
L 250.792929 67.661711 
L 251.575758 68.309346 
L 252.358586 68.754036 
L 253.141414 68.590427 
L 253.924242 67.202492 
L 254.707071 67.523515 
L 255.489899 66.463031 
L 256.272727 67.00811 
L 257.055556 67.979394 
L 257.838384 67.046322 
L 258.621212 64.84862 
L 259.40404 65.540653 
L 260.186869 65.016503 
L 260.969697 64.747164 
L 261.752525 64.61471 
L 262.535354 64.955723 
L 263.318182 62.89585 
L 264.10101 63.414348 
L 264.883838 63.400968 
L 265.666667 64.475361 
L 266.449495 63.144447 
L 267.232323 63.568932 
L 268.015152 63.346873 
L 268.79798 62.768824 
L 269.580808 63.453375 
L 270.363636 62.969206 
L 271.146465 62.626001 
L 271.929293 61.917662 
L 272.712121 61.707954 
L 273.494949 60.889062 
L 274.277778 61.329863 
L 275.060606 61.185944 
L 275.843434 61.315815 
L 276.626263 61.633865 
L 277.409091 61.25321 
L 278.191919 61.19618 
L 278.974747 61.698262 
L 279.757576 59.001066 
L 280.540404 59.767131 
L 281.323232 60.980583 
L 282.888889 61.102648 
L 283.671717 60.499944 
L 284.454545 59.083409 
L 285.237374 59.134196 
L 286.020202 58.755581 
L 286.80303 59.318991 
L 287.585859 59.257425 
L 288.368687 59.655834 
L 289.151515 59.361097 
L 289.934343 59.344638 
L 290.717172 59.973331 
L 291.5 60.834824 
L 292.282828 60.591865 
L 293.065657 60.762851 
L 293.848485 60.290513 
L 295.414141 60.620685 
L 296.19697 60.628567 
L 297.762626 60.390964 
L 298.545455 59.584623 
L 299.328283 60.875414 
L 300.111111 60.902052 
L 300.893939 61.387751 
L 301.676768 61.48601 
L 302.459596 62.295896 
L 303.242424 62.15861 
L 304.025253 61.398072 
L 306.373737 61.496913 
L 307.156566 62.003035 
L 308.722222 62.429817 
L 310.287879 62.886696 
L 312.636364 64.262794 
L 314.20202 65.327414 
L 314.984848 65.611855 
L 315.767677 66.435479 
L 316.550505 67.453486 
L 317.333333 67.917188 
L 318.89899 69.33077 
L 319.681818 70.06608 
L 320.464646 70.33054 
L 321.247475 95.68596 
L 322.030303 90.958512 
L 322.813131 87.420103 
L 323.59596 87.195242 
L 324.378788 87.296646 
L 325.944444 84.776268 
L 327.510101 81.91705 
L 329.075758 77.70422 
L 329.858586 76.274461 
L 330.641414 75.435989 
L 331.424242 74.047287 
L 332.207071 73.904154 
L 332.989899 74.21527 
L 335.338384 68.543652 
L 336.121212 69.388238 
L 338.469697 66.61346 
L 339.252525 66.528505 
L 340.035354 64.948399 
L 340.818182 64.561597 
L 342.383838 65.216256 
L 343.166667 62.867331 
L 344.732323 62.050535 
L 345.515152 62.720734 
L 346.29798 61.66298 
L 347.080808 59.797199 
L 347.863636 60.689638 
L 348.646465 60.094577 
L 349.429293 59.899642 
L 350.212121 61.312994 
L 350.994949 60.544814 
L 351.777778 59.034079 
L 352.560606 58.637823 
L 353.343434 58.446404 
L 354.126263 59.251306 
L 354.909091 59.175997 
L 355.691919 58.035348 
L 356.474747 59.539716 
L 357.257576 57.818178 
L 358.040404 56.767915 
L 358.823232 57.436284 
L 359.606061 56.871721 
L 360.388889 56.136229 
L 361.171717 54.767803 
L 361.954545 54.999326 
L 362.737374 53.692485 
L 363.520202 54.312773 
L 364.30303 56.611998 
L 365.085859 56.473587 
L 365.868687 55.071948 
L 366.651515 55.211769 
L 367.434343 54.845371 
L 368.217172 56.299362 
L 369 55.329746 
L 369.782828 55.389768 
L 370.565657 54.674967 
L 371.348485 55.489075 
L 372.131313 54.872714 
L 372.914141 55.022895 
L 373.69697 54.895625 
L 374.479798 54.489067 
L 375.262626 54.420476 
L 376.045455 54.991301 
L 378.393939 52.453225 
L 379.176768 51.005563 
L 379.959596 51.469151 
L 380.742424 52.155695 
L 381.525253 53.763811 
L 382.308081 52.191844 
L 383.090909 52.726481 
L 383.873737 52.005 
L 384.656566 53.322285 
L 385.439394 52.522778 
L 386.222222 50.492407 
L 387.005051 51.697805 
L 387.787879 50.2431 
L 388.570707 51.279448 
L 389.353535 52.048039 
L 390.136364 52.280753 
L 390.919192 51.09127 
L 391.70202 52.65467 
L 392.484848 52.952543 
L 393.267677 52.733143 
L 394.050505 53.027843 
L 394.833333 52.528658 
L 395.616162 52.965199 
L 396.39899 52.027091 
L 397.181818 53.060752 
L 397.964646 53.582285 
L 398.747475 52.299013 
L 399.530303 52.318627 
L 400.313131 52.786285 
L 401.09596 52.773438 
L 401.878788 53.554523 
L 403.444444 54.151013 
L 405.010101 55.119895 
L 405.792929 55.082326 
L 406.575758 54.599639 
L 407.358586 54.59475 
L 408.141414 53.941468 
L 408.924242 53.763344 
L 409.707071 54.938712 
L 410.489899 55.574954 
L 411.272727 55.88393 
L 412.055556 55.915285 
L 412.838384 56.2929 
L 413.621212 56.466115 
L 414.40404 57.02334 
L 415.969697 57.640026 
L 417.535354 58.011884 
L 419.10101 59.468085 
L 420.666667 61.715512 
L 421.449495 62.48741 
L 422.232323 64.048798 
L 423.015152 66.094028 
L 423.79798 75.033738 
L 424.580808 74.477409 
L 426.146465 73.85259 
L 426.929293 72.960751 
L 427.712121 72.314279 
L 428.494949 72.61931 
L 429.277778 71.550444 
L 430.843434 70.605574 
L 431.626263 70.28528 
L 432.409091 69.609873 
L 433.974747 66.16673 
L 434.757576 65.755369 
L 435.540404 64.06856 
L 436.323232 64.477577 
L 437.106061 64.119176 
L 437.888889 62.911471 
L 439.454545 61.682279 
L 440.237374 60.823131 
L 441.020202 60.477653 
L 441.80303 60.411902 
L 443.368687 57.820046 
L 444.151515 57.582538 
L 444.934343 56.143434 
L 445.717172 55.201295 
L 446.5 55.484463 
L 447.282828 54.797672 
L 448.065657 54.734723 
L 448.848485 53.489649 
L 449.631313 52.935569 
L 450.414141 53.074656 
L 451.19697 53.429989 
L 451.979798 52.04578 
L 452.762626 51.819156 
L 453.545455 52.107642 
L 455.111111 52.136596 
L 455.893939 51.265134 
L 456.676768 51.055655 
L 457.459596 50.720432 
L 458.242424 49.838019 
L 459.025253 49.171995 
L 459.808081 48.736864 
L 460.590909 49.330705 
L 461.373737 47.845417 
L 462.156566 48.017012 
L 462.939394 47.871768 
L 463.722222 46.251463 
L 464.505051 46.87155 
L 465.287879 48.126498 
L 466.070707 47.20745 
L 466.853535 47.715136 
L 467.636364 46.632746 
L 468.419192 46.617574 
L 469.20202 48.678767 
L 469.984848 47.3345 
L 470.767677 46.693903 
L 471.550505 48.33326 
L 472.333333 47.126632 
L 473.116162 46.393542 
L 473.89899 46.236586 
L 474.681818 46.520573 
L 475.464646 48.089196 
L 476.247475 47.74367 
L 477.030303 45.423316 
L 477.813131 45.975176 
L 478.59596 44.964569 
L 479.378788 45.696944 
L 480.944444 44.918633 
L 482.510101 47.49951 
L 483.292929 46.232716 
L 484.075758 46.103722 
L 484.858586 46.857178 
L 485.641414 44.878986 
L 486.424242 46.445731 
L 487.207071 46.522032 
L 487.989899 44.443636 
L 488.772727 44.798892 
L 490.338384 46.683992 
L 491.90404 46.840033 
L 492.686869 47.019062 
L 493.469697 45.871132 
L 494.252525 46.693665 
L 495.035354 47.232887 
L 495.818182 47.178144 
L 497.383838 47.661203 
L 498.166667 47.274201 
L 498.949495 48.332841 
L 499.732323 48.551107 
L 500.515152 48.513004 
L 501.29798 48.698409 
L 502.080808 47.713602 
L 502.863636 47.698782 
L 503.646465 47.106228 
L 505.212121 48.914769 
L 505.994949 49.447577 
L 506.777778 49.383561 
L 508.343434 49.964049 
L 509.909091 49.802614 
L 510.691919 50.904636 
L 513.040404 51.763356 
L 513.823232 52.205434 
L 516.171717 52.77176 
L 516.954545 53.155236 
L 518.520202 54.184579 
L 519.30303 54.606977 
L 521.651515 56.702594 
L 522.434343 57.689098 
L 523.217172 58.466828 
L 524 59.558005 
L 524.782828 59.952955 
L 525.565657 88.546976 
L 526.348485 88.187017 
L 527.131313 87.245787 
L 527.914141 85.683641 
L 528.69697 85.456812 
L 529.479798 85.777734 
L 530.262626 85.261729 
L 531.045455 85.604195 
L 534.176768 84.704413 
L 534.959596 84.506509 
L 535.742424 84.091111 
L 536.525253 83.842072 
L 537.308081 84.141708 
L 538.090909 83.922976 
L 538.873737 83.063155 
L 539.656566 81.398795 
L 540.439394 80.873444 
L 541.222222 79.661179 
L 542.005051 79.193097 
L 542.787879 79.185754 
L 543.570707 78.116726 
L 544.353535 78.595658 
L 545.136364 79.561443 
L 545.919192 79.311713 
L 547.484848 78.291871 
L 549.050505 76.647759 
L 549.833333 76.304001 
L 550.616162 75.239047 
L 551.39899 76.16408 
L 552.181818 76.087898 
L 552.964646 73.837889 
L 553.747475 74.303126 
L 554.530303 73.431593 
L 556.09596 74.627108 
L 556.878788 74.472854 
L 557.661616 74.073538 
L 558.444444 74.555096 
L 559.227273 74.557112 
L 560.010101 73.968256 
L 560.792929 72.343747 
L 561.575758 72.797281 
L 562.358586 72.222711 
L 563.924242 72.67573 
L 564.707071 71.649108 
L 565.489899 71.542839 
L 566.272727 71.189422 
L 567.055556 70.037975 
L 567.838384 69.57067 
L 568.621212 70.339213 
L 569.40404 70.314543 
L 570.186869 69.94755 
L 570.969697 70.039867 
L 571.752525 69.351665 
L 573.318182 69.534325 
L 574.10101 69.178602 
L 574.883838 69.090408 
L 577.232323 69.798046 
L 578.015152 69.478825 
L 578.79798 68.44374 
L 579.580808 69.038281 
L 580.363636 68.746655 
L 581.146465 68.828492 
L 582.712121 67.991335 
L 583.494949 68.467671 
L 584.277778 68.425718 
L 585.843434 67.370814 
L 586.626263 67.506499 
L 587.409091 67.953914 
L 588.191919 68.737196 
L 589.757576 68.878094 
L 590.540404 69.080911 
L 591.323232 67.998359 
L 592.106061 68.079596 
L 593.671717 68.499779 
L 594.454545 68.363651 
L 595.237374 67.787713 
L 596.80303 67.281986 
L 597.585859 67.381826 
L 598.368687 67.869836 
L 599.934343 67.86084 
L 600.717172 68.403979 
L 601.5 68.424379 
L 602.282828 68.920385 
L 603.065657 69.123878 
L 605.414141 69.323793 
L 606.19697 69.789345 
L 606.979798 70.430333 
L 608.545455 70.829791 
L 610.111111 71.602652 
L 610.893939 72.075356 
L 611.676768 71.917332 
L 612.459596 72.150437 
L 613.242424 72.625905 
L 615.590909 73.387824 
L 616.373737 73.922243 
L 617.939394 76.154507 
L 618.722222 76.608612 
L 620.287879 77.162816 
L 621.070707 77.216696 
L 621.853535 77.589589 
L 622.636364 78.220407 
L 622.636364 78.220407 
" style="fill:none;stroke:#000000;stroke-dasharray:1.5,2.475;stroke-dashoffset:0;stroke-width:1.5;"/>
   </g>
   <g id="patch_3">
    <path d="M 90 252 
L 90 34.56 
" style="fill:none;stroke:#000000;stroke-linecap:square;stroke-linejoin:miter;stroke-width:0.8;"/>
   </g>
   <g id="patch_4">
    <path d="M 648 252 
L 648 34.56 
" style="fill:none;stroke:#000000;stroke-linecap:square;stroke-linejoin:miter;stroke-width:0.8;"/>
   </g>
   <g id="patch_5">
    <path d="M 90 252 
L 648 252 
" style="fill:none;stroke:#000000;stroke-linecap:square;stroke-linejoin:miter;stroke-width:0.8;"/>
   </g>
   <g id="patch_6">
    <path d="M 90 34.56 
L 648 34.56 
" style="fill:none;stroke:#000000;stroke-linecap:square;stroke-linejoin:miter;stroke-width:0.8;"/>
   </g>
   <g id="legend_1">
    <g id="patch_7">
     <path d="M 509.4 85.845937 
L 638.2 85.845937 
Q 641 85.845937 641 83.045937 
L 641 44.36 
Q 641 41.56 638.2 41.56 
L 509.4 41.56 
Q 506.6 41.56 506.6 44.36 
L 506.6 83.045937 
Q 506.6 85.845937 509.4 85.845937 
z
" style="fill:#ffffff;opacity:0.8;stroke:#cccccc;stroke-linejoin:miter;"/>
    </g>
    <g id="line2d_15">
     <path d="M 512.2 53.252187 
L 540.2 53.252187 
" style="fill:none;stroke:#000000;stroke-linecap:square;stroke-width:1.5;"/>
    </g>
    <g id="line2d_16"/>
    <g id="text_15">
     <!-- 光伏出力功率 -->
     <defs>
      <path d="M 52.34375 41.40625 
Q 82.421875 43.75 84.375 45.3125 
L 90.234375 40.234375 
Q 81.25 40.234375 54.6875 37.890625 
L 59.375 34.765625 
Q 57.421875 33.984375 57.8125 28.515625 
L 57.8125 5.46875 
Q 57.421875 -1.5625 66.796875 -1.953125 
L 75.78125 -1.953125 
Q 84.765625 -1.953125 85.34375 0 
Q 85.9375 1.953125 85.9375 15.234375 
L 87.5 15.234375 
Q 87.890625 9.765625 88.671875 4.875 
Q 89.453125 0 91.40625 -3.90625 
Q 86.71875 -5.46875 75.78125 -5.859375 
L 66.796875 -5.859375 
Q 53.90625 -6.25 54.296875 5.078125 
L 54.296875 30.859375 
Q 54.6875 36.71875 53.515625 37.5 
L 41.796875 36.71875 
L 45.703125 33.59375 
Q 44.53125 33.59375 42.96875 28.3125 
Q 41.40625 23.046875 38.859375 17.375 
Q 36.328125 11.71875 29.484375 4.484375 
Q 22.65625 -2.734375 9.375 -9.375 
L 8.984375 -7.421875 
Q 36.328125 5.859375 40.625 37.109375 
Q 21.484375 35.15625 18.359375 34.375 
L 12.890625 38.671875 
Q 20.3125 38.671875 48.828125 41.015625 
L 49.21875 69.53125 
Q 50 76.5625 46.875 80.859375 
L 48.046875 81.640625 
L 55.078125 75.390625 
Q 52.34375 73.828125 52.734375 68.359375 
z
M 60.15625 46.875 
Q 65.234375 55.078125 68.75 62.6875 
Q 72.265625 70.3125 71.484375 72.65625 
L 72.65625 73.046875 
L 77.34375 65.625 
Q 75.78125 66.015625 71.484375 59.765625 
Q 67.1875 53.515625 61.71875 46.484375 
z
M 37.890625 46.09375 
Q 35.15625 52.34375 25 65.625 
L 26.171875 67.1875 
Q 35.9375 57.8125 40.625 53.125 
Q 39.453125 49.609375 37.890625 46.09375 
z
" id="FangSong-5149"/>
      <path d="M 73.828125 -5.859375 
Q 73.828125 -0.390625 70.109375 10.546875 
Q 66.40625 21.484375 59.765625 42.96875 
L 56.25 42.578125 
Q 49.609375 7.03125 28.125 -9.765625 
L 27.34375 -8.59375 
Q 47.65625 11.71875 52.34375 42.1875 
Q 39.453125 40.625 39.453125 39.84375 
L 33.984375 44.53125 
Q 38.28125 44.140625 53.125 46.09375 
Q 54.296875 58.59375 55.078125 67.96875 
Q 55.859375 77.34375 53.125 80.46875 
L 54.296875 81.25 
L 60.9375 75 
Q 58.984375 75 58.390625 66.40625 
Q 57.8125 57.8125 56.640625 46.484375 
Q 79.6875 48.828125 83.59375 50 
L 87.109375 45.703125 
Q 82.03125 45.703125 62.5 43.359375 
Q 69.53125 21.484375 73.046875 12.5 
Q 76.5625 3.515625 78.703125 0.578125 
Q 80.859375 -2.34375 92.1875 -3.125 
L 92.1875 -5.078125 
L 73.828125 -5.859375 
z
M 24.609375 48.4375 
Q 17.578125 38.671875 8.203125 29.296875 
L 7.03125 30.859375 
Q 17.1875 42.96875 27.140625 60.15625 
Q 37.109375 77.34375 34.375 80.078125 
L 35.9375 80.859375 
L 40.625 72.65625 
Q 39.453125 73.046875 35.546875 67.1875 
Q 31.640625 60.546875 28.125 54.6875 
L 26.953125 -5.078125 
Q 27.34375 -10.546875 25.78125 -8.984375 
L 21.875 -0.78125 
Q 24.21875 0.390625 23.4375 7.421875 
z
M 67.1875 71.484375 
Q 74.609375 65.234375 78.90625 62.109375 
Q 77.734375 58.203125 76.171875 55.078125 
Q 72.65625 61.71875 66.015625 69.921875 
z
" id="FangSong-4f0f"/>
      <path d="M 79.296875 28.90625 
L 85.546875 23.4375 
Q 83.984375 24.21875 83.203125 18.15625 
Q 82.421875 12.109375 81.4375 5.65625 
Q 80.46875 -0.78125 79.6875 -4.09375 
Q 78.90625 -7.421875 77.734375 -7.8125 
Q 76.5625 -8.203125 76.5625 -0.78125 
L 23.4375 -4.296875 
L 20.703125 -7.03125 
L 16.796875 -1.953125 
L 19.921875 -0.78125 
L 19.53125 16.40625 
Q 19.140625 21.875 16.796875 24.21875 
L 17.578125 25.390625 
L 24.609375 20.3125 
Q 22.65625 18.75 23.046875 12.890625 
L 23.4375 -0.78125 
L 48.4375 0.78125 
L 48.828125 34.765625 
L 28.125 32.8125 
L 25.390625 30.46875 
L 21.484375 35.15625 
L 24.21875 36.71875 
L 23.828125 53.515625 
Q 24.21875 59.765625 21.09375 63.28125 
L 21.875 64.453125 
L 28.90625 59.375 
Q 27.34375 58.59375 27.34375 53.515625 
L 27.734375 36.328125 
L 48.828125 38.28125 
L 49.21875 67.1875 
Q 49.609375 76.953125 46.484375 79.6875 
L 47.65625 80.859375 
L 55.078125 74.21875 
Q 52.34375 72.65625 52.734375 66.796875 
L 52.34375 38.671875 
L 74.609375 40.625 
Q 76.171875 51.171875 77.140625 57.8125 
Q 78.125 64.453125 76.171875 66.015625 
L 77.34375 66.796875 
L 82.421875 61.71875 
Q 81.25 60.9375 80.46875 55.46875 
Q 79.6875 50 78.703125 43.359375 
Q 77.734375 36.71875 76.953125 33.984375 
Q 76.171875 31.25 75.390625 31.4375 
Q 74.609375 31.640625 74.21875 37.109375 
L 52.34375 35.15625 
L 51.953125 1.171875 
L 76.953125 2.734375 
Q 78.90625 13.671875 79.6875 19.921875 
Q 80.46875 26.171875 78.515625 28.125 
z
" id="FangSong-51fa"/>
      <path d="M 48.4375 82.421875 
L 56.25 76.171875 
Q 54.296875 76.171875 53.703125 71.671875 
Q 53.125 67.1875 50.78125 52.34375 
L 76.171875 54.6875 
L 78.90625 58.59375 
L 83.59375 53.515625 
L 80.46875 51.171875 
Q 73.4375 0.390625 65.234375 -10.15625 
Q 59.375 -1.171875 49.609375 9.765625 
L 50.78125 10.9375 
L 64.84375 -2.34375 
Q 70.3125 8.203125 76.171875 50.78125 
L 50.390625 48.4375 
Q 39.0625 8.59375 9.375 -8.984375 
L 8.203125 -7.421875 
Q 36.71875 12.109375 46.09375 48.046875 
Q 26.5625 46.09375 23.046875 44.921875 
L 17.578125 50 
Q 25.390625 49.609375 46.484375 51.953125 
Q 48.828125 64.84375 49.40625 71.28125 
Q 50 77.734375 47.265625 81.640625 
z
" id="FangSong-529b"/>
      <path d="M 59.765625 6.25 
L 71.875 -2.34375 
Q 76.953125 10.15625 81.640625 48.4375 
L 63.671875 46.09375 
Q 60.15625 25.390625 53.515625 12.5 
Q 46.875 -0.390625 31.640625 -9.765625 
L 30.46875 -8.203125 
Q 42.96875 0.78125 49.796875 12.6875 
Q 56.640625 24.609375 59.765625 45.703125 
Q 50.78125 44.53125 49.21875 42.96875 
L 43.75 47.65625 
Q 48.4375 47.265625 60.546875 49.21875 
Q 62.109375 60.9375 62.6875 70.3125 
Q 63.28125 79.6875 60.546875 81.25 
L 61.71875 82.421875 
L 69.140625 76.953125 
Q 67.1875 76.953125 66.59375 69.140625 
Q 66.015625 61.328125 64.0625 49.609375 
L 80.859375 51.953125 
L 83.59375 56.25 
L 88.28125 51.953125 
L 85.546875 49.21875 
Q 82.8125 28.90625 79.875 13.078125 
Q 76.953125 -2.734375 72.265625 -10.15625 
Q 66.015625 -0.78125 58.59375 5.078125 
z
M 46.875 56.25 
Q 42.1875 56.25 28.90625 53.90625 
L 33.984375 50.78125 
Q 32.03125 49.21875 32.421875 43.75 
L 32.03125 21.875 
L 49.609375 28.125 
L 50 26.171875 
Q 17.578125 12.890625 13.28125 10.546875 
L 8.59375 15.234375 
Q 13.671875 14.84375 28.125 20.703125 
L 28.515625 46.875 
Q 28.515625 51.171875 27.734375 53.515625 
Q 19.53125 52.34375 17.1875 50.78125 
L 11.328125 55.078125 
Q 16.015625 55.078125 27.921875 57.03125 
Q 39.84375 58.984375 42.578125 60.546875 
z
" id="FangSong-529f"/>
      <path d="M 58.59375 32.8125 
L 46.484375 30.46875 
L 53.515625 26.953125 
Q 51.5625 25.78125 51.5625 23.046875 
L 51.5625 21.484375 
Q 83.59375 23.828125 86.71875 24.609375 
L 91.015625 20.3125 
Q 83.984375 20.3125 51.5625 17.96875 
L 51.171875 -5.859375 
Q 51.171875 -10.546875 50 -10.15625 
L 45.3125 -3.515625 
Q 47.65625 -1.5625 47.65625 2.34375 
L 48.046875 17.578125 
Q 17.96875 15.234375 15.234375 14.84375 
L 9.765625 19.140625 
Q 17.578125 18.359375 48.046875 21.09375 
L 48.046875 23.4375 
Q 48.046875 27.34375 46.484375 30.078125 
Q 37.890625 28.515625 35.9375 27.34375 
L 32.03125 32.03125 
L 37.109375 33.203125 
Q 39.84375 36.328125 49.21875 46.484375 
Q 38.671875 44.140625 36.328125 42.578125 
L 32.8125 48.046875 
L 36.328125 48.046875 
Q 39.84375 52.34375 46.09375 62.890625 
Q 25 60.546875 22.65625 59.765625 
L 16.796875 64.453125 
Q 25.78125 64.0625 51.359375 66.59375 
Q 76.953125 69.140625 78.515625 70.3125 
L 83.59375 65.625 
Q 76.953125 66.015625 46.875 62.5 
L 51.171875 59.765625 
Q 49.609375 59.375 46.671875 55.859375 
Q 43.75 52.34375 39.84375 48.046875 
L 51.171875 49.21875 
Q 53.90625 51.953125 54.6875 53.515625 
Q 55.46875 55.078125 55.46875 57.421875 
L 57.03125 57.8125 
L 59.375 50.78125 
Q 57.8125 50.78125 52.53125 45.109375 
Q 47.265625 39.453125 41.015625 32.8125 
L 57.421875 35.15625 
L 53.515625 41.015625 
L 54.6875 42.1875 
Q 60.546875 37.109375 64.453125 33.203125 
Q 63.671875 30.46875 61.71875 26.953125 
z
M 80.46875 37.109375 
Q 80.46875 33.203125 79.296875 30.46875 
Q 75.390625 35.15625 61.328125 45.703125 
Q 64.84375 48.828125 69.71875 54.09375 
Q 74.609375 59.375 74.21875 62.890625 
L 75.78125 62.890625 
L 78.125 55.46875 
Q 76.5625 55.46875 73.046875 52.734375 
Q 69.53125 50 64.453125 45.703125 
Q 75.390625 39.453125 80.46875 37.109375 
z
M 32.8125 41.015625 
Q 18.75 30.078125 17.96875 28.125 
L 11.328125 31.25 
Q 15.625 32.421875 32.03125 42.578125 
z
M 26.171875 44.140625 
Q 23.4375 48.046875 15.234375 55.46875 
L 16.015625 57.03125 
Q 23.828125 53.125 27.34375 51.171875 
Q 27.34375 48.4375 26.171875 44.140625 
z
M 49.609375 67.1875 
Q 48.046875 72.265625 42.1875 80.859375 
L 43.359375 82.03125 
Q 50 76.171875 52.34375 73.4375 
Q 51.5625 70.703125 49.609375 67.1875 
z
" id="FangSong-7387"/>
     </defs>
     <g transform="translate(551.4 58.152187)scale(0.14 -0.14)">
      <use xlink:href="#FangSong-5149"/>
      <use x="100" xlink:href="#FangSong-4f0f"/>
      <use x="200" xlink:href="#FangSong-51fa"/>
      <use x="300" xlink:href="#FangSong-529b"/>
      <use x="400" xlink:href="#FangSong-529f"/>
      <use x="500" xlink:href="#FangSong-7387"/>
     </g>
    </g>
    <g id="line2d_17">
     <path d="M 512.2 73.3225 
L 540.2 73.3225 
" style="fill:none;stroke:#000000;stroke-dasharray:1.5,2.475;stroke-dashoffset:0;stroke-width:1.5;"/>
    </g>
    <g id="line2d_18"/>
    <g id="text_16">
     <!-- 环境温度 -->
     <defs>
      <path d="M 89.453125 68.359375 
Q 85.546875 68.75 64.84375 66.40625 
L 68.359375 62.890625 
Q 66.796875 62.109375 65.8125 59.953125 
Q 64.84375 57.8125 62.109375 52.34375 
L 66.40625 48.4375 
Q 64.0625 48.828125 64.453125 41.015625 
L 64.453125 -1.171875 
Q 64.84375 -10.9375 62.5 -8.203125 
L 58.984375 -0.78125 
Q 61.328125 0.78125 60.9375 8.59375 
L 60.9375 48.046875 
Q 55.46875 39.0625 49.796875 30.65625 
Q 44.140625 22.265625 30.46875 10.15625 
L 29.296875 12.109375 
Q 42.1875 23.828125 50.1875 37.296875 
Q 58.203125 50.78125 63.671875 66.40625 
Q 48.4375 64.453125 46.484375 63.671875 
L 41.796875 67.578125 
Q 48.4375 67.96875 66.015625 70.109375 
Q 83.59375 72.265625 84.375 73.4375 
z
M 41.015625 26.5625 
Q 13.671875 12.5 11.328125 10.15625 
L 6.640625 14.84375 
Q 10.546875 15.234375 25 21.484375 
L 25.390625 43.75 
Q 17.1875 42.578125 15.625 41.796875 
L 10.9375 46.09375 
Q 15.625 46.09375 25.390625 47.65625 
L 25.78125 65.625 
Q 16.015625 64.453125 14.0625 63.28125 
L 9.375 67.578125 
Q 16.015625 67.96875 26.5625 69.53125 
Q 37.109375 71.09375 40.625 72.65625 
L 45.703125 68.359375 
Q 39.84375 67.96875 29.296875 66.40625 
L 28.90625 48.4375 
Q 38.28125 50 39.84375 50.78125 
L 44.53125 46.484375 
Q 39.84375 46.484375 28.90625 44.53125 
L 28.515625 23.046875 
L 40.234375 27.734375 
z
M 70.3125 43.359375 
Q 83.984375 31.25 90.625 25 
Q 90.234375 21.484375 89.453125 16.796875 
Q 82.421875 27.734375 69.140625 42.1875 
z
" id="FangSong-73af"/>
      <path d="M 78.515625 47.65625 
L 82.8125 43.75 
L 80.078125 40.625 
L 77.734375 26.5625 
L 80.46875 23.4375 
L 64.453125 21.875 
L 69.921875 17.578125 
Q 67.578125 18.359375 67.96875 12.109375 
L 67.96875 2.734375 
Q 68.359375 -3.515625 74.21875 -3.125 
L 79.6875 -3.125 
Q 87.5 -3.515625 88.078125 1.171875 
Q 88.671875 5.859375 88.671875 14.84375 
L 90.625 14.84375 
Q 90.625 8.203125 91.203125 2.921875 
Q 91.796875 -2.34375 93.75 -4.296875 
Q 89.0625 -6.25 83.984375 -6.640625 
L 73.828125 -6.640625 
Q 64.84375 -6.640625 64.453125 0 
L 64.453125 15.625 
Q 64.84375 18.75 63.28125 21.875 
L 55.46875 21.09375 
L 58.984375 17.1875 
Q 57.8125 17.578125 54.875 10.9375 
Q 51.953125 4.296875 44.53125 -1.359375 
Q 37.109375 -7.03125 25 -10.546875 
L 24.609375 -8.984375 
Q 35.9375 -4.6875 43.75 2.140625 
Q 51.5625 8.984375 54.296875 21.09375 
L 48.4375 19.921875 
Q 48.4375 16.40625 47.265625 16.796875 
L 43.75 21.484375 
Q 44.53125 23.4375 44.53125 25.78125 
L 44.140625 37.109375 
Q 44.140625 43.359375 42.96875 46.484375 
L 44.53125 46.875 
L 47.65625 42.1875 
L 76.5625 44.921875 
z
M 67.578125 54.6875 
Q 85.546875 56.640625 88.28125 57.421875 
L 92.96875 53.515625 
Q 86.71875 53.515625 65.625 50.96875 
Q 44.53125 48.4375 42.578125 47.65625 
L 36.71875 51.953125 
Q 41.40625 51.171875 54.6875 53.125 
Q 53.125 58.203125 50.390625 64.0625 
Q 45.3125 63.671875 43.359375 62.890625 
L 38.28125 66.796875 
Q 45.703125 66.796875 62.890625 68.9375 
Q 80.078125 71.09375 82.421875 72.65625 
L 86.71875 67.96875 
Q 80.46875 67.96875 70.3125 66.796875 
L 73.828125 62.890625 
Q 73.046875 63.671875 71.09375 60.734375 
Q 69.140625 57.8125 67.578125 54.6875 
z
M 24.21875 80.46875 
L 30.859375 74.609375 
Q 28.515625 73.4375 28.90625 66.40625 
L 28.515625 48.4375 
Q 34.765625 49.609375 35.15625 50.390625 
L 39.453125 46.484375 
Q 36.71875 46.484375 28.515625 44.921875 
L 28.125 23.828125 
L 40.625 30.078125 
L 41.40625 28.515625 
Q 16.015625 13.28125 14.0625 10.546875 
L 7.8125 14.0625 
Q 12.5 15.234375 24.609375 22.265625 
L 25 44.53125 
Q 15.625 42.578125 14.84375 41.796875 
L 9.765625 46.484375 
Q 15.234375 46.09375 25 48.046875 
L 25.390625 67.1875 
Q 25.78125 76.5625 23.4375 79.296875 
z
M 48.046875 33.203125 
Q 67.578125 35.15625 69.53125 35.9375 
L 73.828125 32.421875 
Q 67.96875 32.421875 48.046875 29.296875 
L 48.4375 23.828125 
L 74.21875 26.5625 
L 76.5625 41.40625 
L 47.65625 38.28125 
z
M 64.453125 54.296875 
Q 65.625 56.25 67.578125 60.734375 
Q 69.53125 65.234375 69.140625 66.40625 
L 51.953125 64.453125 
Q 54.6875 61.328125 57.8125 58.59375 
Q 56.640625 55.46875 55.078125 53.125 
L 64.453125 54.296875 
z
M 57.03125 81.640625 
Q 63.671875 77.34375 66.015625 75.390625 
Q 65.234375 73.046875 63.28125 69.921875 
Q 60.15625 75.390625 56.25 80.859375 
z
" id="FangSong-5883"/>
      <path d="M 37.109375 20.703125 
Q 37.109375 29.296875 35.9375 33.984375 
L 37.109375 34.765625 
L 40.234375 28.90625 
L 77.734375 32.03125 
L 80.46875 35.9375 
L 85.15625 31.640625 
L 82.03125 28.90625 
L 79.6875 1.5625 
Q 89.0625 2.34375 90.234375 3.125 
L 93.75 -1.5625 
Q 88.28125 -1.5625 58.984375 -3.3125 
Q 29.6875 -5.078125 28.125 -5.859375 
L 23.046875 -1.171875 
Q 27.734375 -1.5625 37.109375 -1.171875 
L 37.109375 20.703125 
z
M 48.046875 41.796875 
Q 48.046875 37.890625 46.875 37.890625 
L 43.359375 43.75 
Q 44.53125 44.53125 44.53125 48.828125 
L 44.53125 68.75 
Q 44.53125 75.78125 42.96875 79.6875 
L 44.140625 80.078125 
L 48.046875 73.4375 
L 72.65625 75.390625 
L 75.390625 79.296875 
L 79.6875 75 
L 76.5625 71.484375 
L 74.21875 47.65625 
L 76.953125 44.140625 
L 48.046875 41.796875 
z
M 72.65625 71.484375 
L 48.046875 69.53125 
L 48.046875 60.15625 
Q 62.890625 61.328125 66.796875 62.5 
L 70.3125 58.203125 
Q 66.40625 57.8125 48.046875 55.859375 
L 48.046875 46.09375 
L 70.703125 48.046875 
z
M 78.125 28.125 
L 63.671875 26.953125 
L 67.578125 24.609375 
Q 66.40625 23.4375 66.015625 18.9375 
Q 65.625 14.453125 65.234375 0.78125 
L 75.78125 1.5625 
z
M 54.296875 22.65625 
Q 52.734375 21.09375 53.125 16.015625 
L 53.125 0.390625 
L 61.71875 0.78125 
L 62.5 21.09375 
Q 62.5 24.609375 62.109375 26.953125 
L 49.609375 25.390625 
z
M 40.625 -0.78125 
L 49.609375 0 
L 49.609375 16.796875 
Q 50 22.265625 48.4375 25.390625 
L 40.625 24.609375 
z
M 32.421875 53.90625 
L 34.375 53.515625 
Q 23.828125 17.1875 19.140625 -4.6875 
Q 16.796875 -1.171875 7.8125 9.375 
L 8.59375 10.546875 
L 17.1875 5.078125 
z
M 30.859375 69.53125 
Q 30.859375 66.015625 29.6875 61.71875 
Q 26.5625 67.1875 18.359375 76.5625 
L 19.140625 77.734375 
Q 25.390625 73.828125 30.859375 69.53125 
z
M 21.875 43.359375 
Q 21.875 39.84375 21.09375 35.9375 
Q 17.96875 41.015625 8.59375 50 
L 9.375 50.78125 
Q 16.015625 47.265625 21.875 43.359375 
z
" id="FangSong-6e29"/>
      <path d="M 62.109375 50.78125 
Q 63.28125 58.203125 62.5 61.71875 
L 63.28125 62.5 
L 68.359375 58.59375 
Q 66.796875 57.03125 66.015625 51.171875 
Q 77.734375 52.34375 80.859375 53.125 
L 85.15625 49.21875 
Q 80.859375 49.21875 65.234375 47.265625 
L 64.0625 38.28125 
L 66.40625 34.765625 
L 46.09375 32.8125 
Q 46.09375 28.90625 44.53125 29.6875 
L 41.015625 33.984375 
Q 42.1875 35.546875 42.578125 37.890625 
L 42.578125 44.921875 
Q 35.15625 44.140625 31.640625 42.96875 
L 28.125 45.703125 
Q 27.34375 28.515625 21.875 14.640625 
Q 16.40625 0.78125 8.203125 -8.59375 
L 6.640625 -7.421875 
Q 14.0625 3.515625 17.765625 12.890625 
Q 21.484375 22.265625 22.84375 30.65625 
Q 24.21875 39.0625 24.609375 52.140625 
Q 25 65.234375 23.828125 71.875 
L 25.390625 71.875 
L 28.125 63.671875 
Q 79.6875 67.96875 80.859375 69.53125 
L 85.546875 64.84375 
Q 81.640625 65.625 43.359375 61.328125 
L 47.265625 57.421875 
Q 46.484375 55.46875 46.09375 53.125 
L 46.09375 49.21875 
L 62.109375 50.78125 
z
M 74.21875 -10.546875 
Q 71.875 -8.203125 67.96875 -4.6875 
Q 64.0625 -1.171875 54.296875 6.25 
Q 39.0625 -5.859375 20.3125 -9.375 
L 19.921875 -7.8125 
Q 41.40625 -0.390625 51.171875 8.59375 
Q 47.265625 12.5 43.9375 14.84375 
Q 40.625 17.1875 38.671875 16.796875 
L 38.28125 17.96875 
L 44.140625 19.921875 
Q 44.140625 18.359375 47.265625 15.8125 
Q 50.390625 13.28125 53.90625 10.546875 
Q 61.328125 18.359375 64.0625 23.4375 
Q 41.796875 21.484375 38.671875 20.3125 
L 34.765625 24.609375 
Q 41.796875 24.609375 66.015625 27.34375 
L 67.96875 29.6875 
L 73.046875 25.78125 
L 69.921875 23.4375 
Q 64.0625 16.015625 57.03125 8.203125 
Q 65.625 1.171875 69.53125 -1.5625 
Q 73.4375 -4.296875 76.953125 -5.078125 
Q 80.46875 -5.859375 91.40625 -5.46875 
L 91.40625 -7.03125 
L 74.21875 -10.546875 
z
M 28.125 47.265625 
Q 33.203125 47.65625 42.578125 48.4375 
L 42.578125 54.296875 
Q 42.1875 58.203125 41.40625 61.328125 
L 28.515625 60.15625 
L 28.125 47.265625 
z
M 60.15625 38.28125 
L 61.328125 46.875 
L 46.09375 45.3125 
L 46.09375 36.71875 
z
M 55.078125 67.96875 
Q 51.171875 74.21875 46.09375 81.25 
L 47.265625 82.421875 
Q 52.734375 78.125 57.8125 74.21875 
Q 57.03125 71.09375 55.078125 67.96875 
z
" id="FangSong-5ea6"/>
     </defs>
     <g transform="translate(551.4 78.2225)scale(0.14 -0.14)">
      <use xlink:href="#FangSong-73af"/>
      <use x="100" xlink:href="#FangSong-5883"/>
      <use x="200" xlink:href="#FangSong-6e29"/>
      <use x="300" xlink:href="#FangSong-5ea6"/>
     </g>
    </g>
   </g>
  </g>
 </g>
 <defs>
  <clipPath id="pe27875b3f4">
   <rect height="217.44" width="558" x="90" y="34.56"/>
  </clipPath>
 </defs>
</svg>
