<?xml version="1.0" encoding="utf-8" standalone="no"?>
<!DOCTYPE svg PUBLIC "-//W3C//DTD SVG 1.1//EN"
  "http://www.w3.org/Graphics/SVG/1.1/DTD/svg11.dtd">
<!-- Created with matplotlib (http://matplotlib.org/) -->
<svg height="288pt" version="1.1" viewBox="0 0 720 288" width="720pt" xmlns="http://www.w3.org/2000/svg" xmlns:xlink="http://www.w3.org/1999/xlink">
 <defs>
  <style type="text/css">
*{stroke-linecap:butt;stroke-linejoin:round;}
  </style>
 </defs>
 <g id="figure_1">
  <g id="patch_1">
   <path d="M 0 288 
L 720 288 
L 720 0 
L 0 0 
z
" style="fill:#ffffff;"/>
  </g>
  <g id="axes_1">
   <g id="patch_2">
    <path d="M 90 252 
L 648 252 
L 648 34.56 
L 90 34.56 
z
" style="fill:#ffffff;"/>
   </g>
   <g id="matplotlib.axis_1">
    <g id="xtick_1">
     <g id="line2d_1">
      <defs>
       <path d="M 0 0 
L 0 3.5 
" id="mbd8d7c98f5" style="stroke:#000000;stroke-width:0.8;"/>
      </defs>
      <g>
       <use style="stroke:#000000;stroke-width:0.8;" x="115.363636" xlink:href="#mbd8d7c98f5" y="252"/>
      </g>
     </g>
     <g id="text_1">
      <!-- 0 -->
      <defs>
       <path d="M 24.609375 64.453125 
Q 19.140625 64.453125 15.421875 56.046875 
Q 11.71875 47.65625 11.71875 33.59375 
Q 11.71875 18.75 15.421875 10.546875 
Q 19.140625 2.34375 24.609375 2.34375 
Q 30.46875 2.34375 33.78125 10.546875 
Q 37.109375 18.75 37.109375 33.59375 
Q 37.109375 47.65625 33.984375 56.046875 
Q 30.859375 64.453125 24.609375 64.453125 
z
M 24.609375 -0.78125 
Q 16.015625 -0.78125 10.15625 8.203125 
Q 4.296875 17.1875 4.296875 33.59375 
Q 4.296875 48.828125 9.953125 58.203125 
Q 15.625 67.578125 24.609375 67.578125 
Q 33.203125 67.578125 38.859375 58.59375 
Q 44.53125 49.609375 44.53125 33.59375 
Q 44.53125 17.578125 38.859375 8.390625 
Q 33.203125 -0.78125 24.609375 -0.78125 
z
" id="FangSong-30"/>
      </defs>
      <g transform="translate(112.863636 265.992188)scale(0.1 -0.1)">
       <use xlink:href="#FangSong-30"/>
      </g>
     </g>
    </g>
    <g id="xtick_2">
     <g id="line2d_2">
      <g>
       <use style="stroke:#000000;stroke-width:0.8;" x="193.646465" xlink:href="#mbd8d7c98f5" y="252"/>
      </g>
     </g>
     <g id="text_2">
      <!-- 100 -->
      <defs>
       <path d="M 28.125 67.96875 
L 28.125 8.59375 
Q 28.125 5.46875 30.078125 3.90625 
Q 32.03125 2.34375 35.546875 2.34375 
L 39.453125 2.34375 
L 39.453125 0 
L 10.9375 0 
L 10.9375 2.34375 
L 14.453125 2.34375 
Q 18.359375 2.34375 20.109375 3.90625 
Q 21.875 5.46875 21.875 8.59375 
L 21.875 55.859375 
Q 21.875 57.421875 20.890625 58.390625 
Q 19.921875 59.375 17.96875 59.375 
L 10.9375 59.375 
L 10.9375 61.71875 
L 14.453125 61.71875 
Q 19.140625 61.71875 22.0625 63.28125 
Q 25 64.84375 26.5625 67.96875 
z
" id="FangSong-31"/>
      </defs>
      <g transform="translate(186.146465 265.992188)scale(0.1 -0.1)">
       <use xlink:href="#FangSong-31"/>
       <use x="50" xlink:href="#FangSong-30"/>
       <use x="100" xlink:href="#FangSong-30"/>
      </g>
     </g>
    </g>
    <g id="xtick_3">
     <g id="line2d_3">
      <g>
       <use style="stroke:#000000;stroke-width:0.8;" x="271.929293" xlink:href="#mbd8d7c98f5" y="252"/>
      </g>
     </g>
     <g id="text_3">
      <!-- 200 -->
      <defs>
       <path d="M 35.9375 50.390625 
Q 35.9375 57.421875 32.8125 61.125 
Q 29.6875 64.84375 23.4375 64.84375 
Q 18.75 64.84375 15.421875 62.296875 
Q 12.109375 59.765625 12.109375 55.859375 
Q 12.109375 53.515625 13.46875 51.953125 
Q 14.84375 50.390625 14.84375 48.828125 
Q 14.84375 46.875 13.859375 45.890625 
Q 12.890625 44.921875 10.9375 44.921875 
Q 8.59375 44.921875 7.21875 46.28125 
Q 5.859375 47.65625 5.859375 50.78125 
Q 5.859375 58.984375 11.71875 63.28125 
Q 17.578125 67.578125 24.21875 67.578125 
Q 33.59375 67.578125 38.078125 62.890625 
Q 42.578125 58.203125 42.578125 51.171875 
Q 42.578125 46.484375 40.421875 41.796875 
Q 38.28125 37.109375 33.59375 32.8125 
Q 22.265625 21.875 16.203125 15.03125 
Q 10.15625 8.203125 8.984375 5.859375 
L 32.03125 5.859375 
Q 35.546875 5.859375 37.890625 8.59375 
Q 40.234375 11.328125 41.015625 16.796875 
L 43.359375 16.796875 
L 41.015625 0 
L 4.6875 0 
L 4.6875 5.078125 
Q 6.640625 8.59375 11.125 14.0625 
Q 15.625 19.53125 23.046875 26.953125 
Q 29.6875 33.59375 32.8125 39.453125 
Q 35.9375 45.3125 35.9375 50.390625 
z
" id="FangSong-32"/>
      </defs>
      <g transform="translate(264.429293 265.992188)scale(0.1 -0.1)">
       <use xlink:href="#FangSong-32"/>
       <use x="50" xlink:href="#FangSong-30"/>
       <use x="100" xlink:href="#FangSong-30"/>
      </g>
     </g>
    </g>
    <g id="xtick_4">
     <g id="line2d_4">
      <g>
       <use style="stroke:#000000;stroke-width:0.8;" x="350.212121" xlink:href="#mbd8d7c98f5" y="252"/>
      </g>
     </g>
     <g id="text_4">
      <!-- 300 -->
      <defs>
       <path d="M 43.359375 17.96875 
Q 43.359375 10.546875 37.890625 4.875 
Q 32.421875 -0.78125 22.65625 -0.78125 
Q 15.625 -0.78125 10.546875 3.125 
Q 5.46875 7.03125 5.46875 12.109375 
Q 5.46875 14.453125 7.03125 16.203125 
Q 8.59375 17.96875 10.15625 17.96875 
Q 12.5 17.96875 13.46875 16.203125 
Q 14.453125 14.453125 14.453125 13.28125 
Q 14.453125 11.328125 13.671875 9.953125 
Q 12.890625 8.59375 12.890625 7.421875 
Q 12.890625 5.078125 15.8125 3.515625 
Q 18.75 1.953125 22.265625 1.953125 
Q 29.296875 1.953125 32.8125 6.046875 
Q 36.328125 10.15625 36.328125 18.75 
Q 36.328125 25.78125 32.609375 30.078125 
Q 28.90625 34.375 18.75 34.375 
L 18.75 37.109375 
Q 26.5625 37.109375 30.265625 40.8125 
Q 33.984375 44.53125 33.984375 51.171875 
Q 33.984375 56.640625 31.046875 60.734375 
Q 28.125 64.84375 21.875 64.84375 
Q 19.140625 64.84375 16.015625 63.46875 
Q 12.890625 62.109375 12.890625 58.984375 
Q 12.890625 55.859375 13.671875 55.078125 
Q 14.453125 54.296875 14.453125 53.125 
Q 14.453125 51.171875 13.671875 50 
Q 12.890625 48.828125 10.9375 48.828125 
Q 9.375 48.828125 8 50 
Q 6.640625 51.171875 6.640625 54.296875 
Q 6.640625 60.15625 11.71875 63.859375 
Q 16.796875 67.578125 23.4375 67.578125 
Q 31.25 67.578125 35.9375 62.6875 
Q 40.625 57.8125 40.625 52.34375 
Q 40.625 46.484375 37.6875 42.375 
Q 34.765625 38.28125 28.515625 36.328125 
Q 37.109375 33.203125 40.234375 28.125 
Q 43.359375 23.046875 43.359375 17.96875 
z
" id="FangSong-33"/>
      </defs>
      <g transform="translate(342.712121 265.992188)scale(0.1 -0.1)">
       <use xlink:href="#FangSong-33"/>
       <use x="50" xlink:href="#FangSong-30"/>
       <use x="100" xlink:href="#FangSong-30"/>
      </g>
     </g>
    </g>
    <g id="xtick_5">
     <g id="line2d_5">
      <g>
       <use style="stroke:#000000;stroke-width:0.8;" x="428.494949" xlink:href="#mbd8d7c98f5" y="252"/>
      </g>
     </g>
     <g id="text_5">
      <!-- 400 -->
      <defs>
       <path d="M 35.546875 7.421875 
Q 35.546875 4.6875 37.109375 3.515625 
Q 38.671875 2.34375 41.40625 2.34375 
L 44.921875 2.34375 
L 44.921875 0 
L 19.140625 0 
L 19.140625 2.34375 
L 23.4375 2.34375 
Q 26.5625 2.34375 27.921875 3.515625 
Q 29.296875 4.6875 29.296875 7.421875 
L 29.296875 20.3125 
L 3.125 20.3125 
L 3.125 22.265625 
L 31.640625 67.578125 
L 35.546875 67.578125 
L 35.546875 22.65625 
L 46.09375 22.65625 
L 46.09375 20.3125 
L 35.546875 20.3125 
z
M 28.90625 57.8125 
L 6.640625 22.65625 
L 29.296875 22.65625 
L 29.296875 57.8125 
z
" id="FangSong-34"/>
      </defs>
      <g transform="translate(420.994949 265.992188)scale(0.1 -0.1)">
       <use xlink:href="#FangSong-34"/>
       <use x="50" xlink:href="#FangSong-30"/>
       <use x="100" xlink:href="#FangSong-30"/>
      </g>
     </g>
    </g>
    <g id="xtick_6">
     <g id="line2d_6">
      <g>
       <use style="stroke:#000000;stroke-width:0.8;" x="506.777778" xlink:href="#mbd8d7c98f5" y="252"/>
      </g>
     </g>
     <g id="text_6">
      <!-- 500 -->
      <defs>
       <path d="M 26.5625 42.96875 
Q 33.984375 42.96875 38.671875 37.296875 
Q 43.359375 31.640625 43.359375 22.265625 
Q 43.359375 11.71875 38.46875 5.46875 
Q 33.59375 -0.78125 23.4375 -0.78125 
Q 16.40625 -0.78125 10.9375 3.3125 
Q 5.46875 7.421875 5.46875 13.28125 
Q 5.46875 15.625 6.828125 17.375 
Q 8.203125 19.140625 10.546875 19.140625 
Q 12.890625 19.140625 13.671875 17.578125 
Q 14.453125 16.015625 14.453125 14.84375 
Q 14.453125 12.5 13.28125 11.125 
Q 12.109375 9.765625 12.109375 8.203125 
Q 12.109375 5.078125 15.8125 3.515625 
Q 19.53125 1.953125 23.828125 1.953125 
Q 30.078125 1.953125 33.390625 7.03125 
Q 36.71875 12.109375 36.71875 21.484375 
Q 36.71875 29.296875 33.78125 34.171875 
Q 30.859375 39.0625 25 39.0625 
Q 20.703125 39.0625 17.578125 37.5 
Q 14.453125 35.9375 11.71875 30.859375 
L 8.203125 31.25 
L 10.15625 66.796875 
L 42.1875 66.796875 
L 41.015625 60.9375 
L 12.890625 60.9375 
L 11.328125 35.15625 
Q 15.234375 40.625 18.9375 41.796875 
Q 22.65625 42.96875 26.5625 42.96875 
z
" id="FangSong-35"/>
      </defs>
      <g transform="translate(499.277778 265.992188)scale(0.1 -0.1)">
       <use xlink:href="#FangSong-35"/>
       <use x="50" xlink:href="#FangSong-30"/>
       <use x="100" xlink:href="#FangSong-30"/>
      </g>
     </g>
    </g>
    <g id="xtick_7">
     <g id="line2d_7">
      <g>
       <use style="stroke:#000000;stroke-width:0.8;" x="585.060606" xlink:href="#mbd8d7c98f5" y="252"/>
      </g>
     </g>
     <g id="text_7">
      <!-- 600 -->
      <defs>
       <path d="M 11.71875 26.5625 
Q 11.71875 14.84375 15.8125 8.390625 
Q 19.921875 1.953125 25.78125 1.953125 
Q 31.640625 1.953125 34.765625 6.25 
Q 37.890625 10.546875 37.890625 22.265625 
Q 37.890625 30.078125 34.5625 34.375 
Q 31.25 38.671875 26.5625 38.671875 
Q 22.265625 38.671875 18.546875 36.125 
Q 14.84375 33.59375 11.71875 26.5625 
z
M 26.953125 42.578125 
Q 36.328125 42.578125 40.421875 36.328125 
Q 44.53125 30.078125 44.53125 22.265625 
Q 44.53125 10.546875 38.859375 4.875 
Q 33.203125 -0.78125 25.78125 -0.78125 
Q 15.234375 -0.78125 9.765625 7.21875 
Q 4.296875 15.234375 4.296875 30.46875 
Q 4.296875 48.4375 10.9375 58 
Q 17.578125 67.578125 28.90625 67.578125 
Q 34.375 67.578125 37.6875 64.453125 
Q 41.015625 61.328125 41.015625 58.984375 
Q 41.015625 56.640625 40.03125 55.46875 
Q 39.0625 54.296875 36.71875 54.296875 
Q 34.765625 54.296875 33.78125 55.265625 
Q 32.8125 56.25 32.8125 58.203125 
Q 32.8125 58.984375 33 59.765625 
Q 33.203125 60.546875 33.203125 61.328125 
Q 33.203125 62.890625 32.03125 63.859375 
Q 30.859375 64.84375 27.734375 64.84375 
Q 21.09375 64.84375 16.40625 58.78125 
Q 11.71875 52.734375 11.71875 32.421875 
Q 14.0625 37.5 18.15625 40.03125 
Q 22.265625 42.578125 26.953125 42.578125 
z
" id="FangSong-36"/>
      </defs>
      <g transform="translate(577.560606 265.992188)scale(0.1 -0.1)">
       <use xlink:href="#FangSong-36"/>
       <use x="50" xlink:href="#FangSong-30"/>
       <use x="100" xlink:href="#FangSong-30"/>
      </g>
     </g>
    </g>
    <g id="text_8">
     <!-- 时间序列 -->
     <defs>
      <path d="M 18.75 11.328125 
Q 19.140625 -0.78125 17.1875 1.953125 
L 13.671875 8.59375 
Q 15.625 11.328125 15.234375 17.578125 
L 15.234375 52.34375 
Q 15.234375 60.15625 14.0625 68.359375 
L 15.234375 68.75 
L 17.96875 61.328125 
L 35.546875 64.0625 
L 37.5 67.578125 
L 42.1875 64.0625 
L 39.453125 60.546875 
Q 39.453125 22.265625 38.46875 13.078125 
Q 37.5 3.90625 36.328125 5.265625 
Q 35.15625 6.640625 34.375 13.28125 
L 18.75 11.328125 
z
M 18.75 15.234375 
Q 30.078125 16.40625 30.859375 17.1875 
L 34.765625 13.28125 
Q 35.546875 25.390625 35.546875 33.984375 
L 35.546875 59.765625 
L 18.75 57.421875 
L 18.75 39.453125 
Q 29.296875 40.625 31.640625 42.1875 
L 35.15625 37.5 
Q 29.6875 37.109375 18.75 35.546875 
z
M 67.578125 82.03125 
L 74.609375 76.171875 
Q 72.265625 74.609375 72.65625 67.1875 
L 72.65625 48.4375 
Q 88.28125 50.390625 88.28125 51.953125 
L 93.75 47.265625 
Q 87.890625 46.875 72.65625 44.921875 
L 72.65625 6.640625 
Q 73.046875 -5.46875 69.921875 -10.546875 
Q 66.015625 -5.078125 53.125 4.296875 
L 53.90625 5.859375 
L 68.359375 -2.34375 
Q 69.140625 2.34375 69.140625 6.640625 
L 69.140625 44.53125 
Q 48.4375 41.796875 45.3125 40.625 
L 39.84375 45.3125 
Q 46.875 45.3125 69.140625 48.046875 
L 69.140625 68.75 
Q 69.53125 76.953125 66.40625 80.859375 
z
M 55.078125 19.921875 
Q 51.953125 28.90625 47.65625 38.28125 
L 48.828125 39.0625 
Q 53.515625 32.8125 58.203125 26.171875 
Q 57.03125 23.4375 55.078125 19.921875 
z
" id="FangSong-65f6"/>
      <path d="M 64.84375 22.65625 
L 39.453125 20.3125 
Q 39.84375 12.5 38.28125 14.0625 
L 34.765625 19.921875 
Q 35.9375 21.875 35.9375 25.78125 
L 35.9375 44.921875 
Q 36.328125 50.390625 34.375 55.078125 
L 35.546875 55.859375 
L 39.0625 50.390625 
L 58.59375 53.125 
L 60.9375 56.25 
L 65.625 51.953125 
L 62.890625 49.21875 
L 62.109375 25.78125 
z
M 78.125 76.953125 
L 83.203125 73.046875 
L 80.859375 69.921875 
L 80.859375 7.03125 
Q 80.859375 -5.078125 77.734375 -10.15625 
Q 73.4375 -3.515625 62.109375 7.8125 
L 63.28125 8.984375 
L 76.171875 -1.171875 
Q 76.953125 -1.171875 77.34375 6.640625 
L 77.34375 69.921875 
Q 48.046875 66.796875 45.703125 66.40625 
L 39.84375 69.921875 
Q 45.703125 69.53125 76.171875 73.4375 
z
M 58.984375 49.21875 
L 39.453125 46.875 
L 39.453125 37.109375 
Q 50.390625 38.671875 51.5625 39.84375 
L 55.46875 35.9375 
Q 51.5625 35.9375 39.453125 33.984375 
L 39.453125 23.828125 
L 58.203125 25.78125 
z
M 21.875 -3.515625 
Q 22.265625 -10.546875 20.703125 -8.59375 
L 16.796875 -2.734375 
Q 18.359375 -0.390625 18.359375 5.46875 
L 18.359375 54.296875 
Q 18.359375 60.9375 16.015625 66.015625 
L 17.1875 66.796875 
L 23.046875 60.546875 
Q 21.875 58.203125 21.875 52.734375 
z
M 22.265625 80.859375 
Q 30.46875 73.828125 34.375 70.703125 
Q 33.203125 66.796875 32.03125 63.671875 
Q 29.296875 69.140625 21.09375 79.6875 
z
" id="FangSong-95f4"/>
      <path d="M 85.546875 39.453125 
L 90.234375 35.546875 
Q 86.71875 33.59375 77.34375 21.484375 
L 75.390625 22.265625 
L 81.640625 32.421875 
L 57.8125 30.078125 
L 62.890625 26.953125 
Q 60.9375 25 61.71875 21.875 
L 61.71875 0.78125 
Q 61.71875 -6.25 58.59375 -10.9375 
Q 55.46875 -6.25 43.75 2.34375 
L 44.53125 3.515625 
L 57.421875 -3.125 
Q 58.203125 0.390625 58.203125 5.078125 
L 58.203125 21.484375 
Q 57.8125 27.34375 57.03125 30.078125 
Q 36.71875 27.34375 35.15625 26.5625 
L 29.6875 30.859375 
Q 35.9375 30.859375 61.328125 33.984375 
Q 58.203125 37.109375 48.4375 44.140625 
L 49.21875 45.703125 
L 58.984375 41.015625 
L 67.96875 51.953125 
Q 44.921875 49.21875 42.1875 48.828125 
L 37.5 52.734375 
Q 42.96875 52.34375 70.703125 55.859375 
L 72.65625 59.375 
L 78.125 54.6875 
Q 75 53.125 70.3125 49.015625 
Q 65.625 44.921875 60.9375 39.84375 
L 64.0625 38.671875 
Q 63.671875 36.328125 62.5 33.984375 
L 82.8125 36.328125 
z
M 58.203125 67.1875 
Q 57.03125 69.53125 46.875 80.078125 
L 47.65625 81.640625 
Q 55.859375 76.5625 60.15625 73.828125 
Q 59.375 70.703125 58.59375 67.1875 
Q 82.8125 69.53125 84.765625 70.703125 
L 89.84375 66.015625 
Q 85.546875 66.015625 28.515625 60.9375 
Q 28.125 43.75 27.140625 34.171875 
Q 26.171875 24.609375 21.875 14.0625 
Q 17.578125 3.515625 7.8125 -7.03125 
L 6.640625 -5.859375 
Q 15.234375 5.46875 18.546875 15.234375 
Q 21.875 25 23.046875 32.21875 
Q 24.21875 39.453125 24.609375 53.125 
Q 25 66.796875 23.4375 72.65625 
L 25 73.046875 
L 28.515625 64.84375 
z
" id="FangSong-5e8f"/>
      <path d="M 84.375 5.859375 
Q 84.765625 -3.90625 81.25 -10.15625 
Q 75.78125 -3.125 64.453125 5.859375 
L 65.234375 6.640625 
L 79.6875 -1.5625 
Q 80.859375 3.90625 80.859375 8.59375 
L 80.859375 66.796875 
Q 81.25 77.34375 77.34375 80.859375 
L 78.515625 81.640625 
L 85.546875 76.171875 
Q 83.984375 75 84.375 67.578125 
z
M 48.046875 50.78125 
L 50.390625 54.6875 
L 55.46875 49.609375 
L 52.34375 47.65625 
Q 46.484375 28.125 36.328125 14.25 
Q 26.171875 0.390625 9.765625 -9.375 
L 9.375 -7.421875 
Q 23.828125 1.953125 33.390625 16.015625 
Q 42.96875 30.078125 48.046875 46.875 
Q 34.375 44.921875 33.203125 43.75 
L 28.90625 46.484375 
Q 26.171875 42.1875 23.4375 37.5 
Q 31.25 33.203125 34.375 30.859375 
Q 33.984375 27.34375 32.421875 23.4375 
Q 28.90625 30.078125 22.265625 35.9375 
Q 18.359375 29.296875 10.9375 21.484375 
L 9.765625 22.265625 
Q 19.140625 35.15625 25 47.65625 
Q 30.859375 60.15625 31.640625 66.015625 
Q 20.3125 64.453125 17.578125 63.671875 
L 12.890625 67.96875 
Q 19.140625 67.96875 35.34375 69.921875 
Q 51.5625 71.875 54.6875 73.046875 
L 58.59375 68.359375 
Q 50.78125 68.359375 33.984375 66.015625 
L 36.71875 61.71875 
Q 35.15625 62.5 29.296875 48.4375 
z
M 67.1875 28.515625 
Q 67.578125 18.359375 65.625 20.3125 
L 61.71875 26.953125 
Q 63.671875 28.515625 63.671875 33.203125 
L 63.671875 52.734375 
Q 63.671875 58.984375 61.328125 62.5 
L 62.5 63.28125 
L 68.75 57.421875 
Q 66.796875 56.640625 67.1875 50.390625 
z
" id="FangSong-5217"/>
     </defs>
     <g transform="translate(341 282.429688)scale(0.14 -0.14)">
      <use xlink:href="#FangSong-65f6"/>
      <use x="100" xlink:href="#FangSong-95f4"/>
      <use x="200" xlink:href="#FangSong-5e8f"/>
      <use x="300" xlink:href="#FangSong-5217"/>
     </g>
    </g>
   </g>
   <g id="matplotlib.axis_2">
    <g id="ytick_1">
     <g id="line2d_8">
      <defs>
       <path d="M 0 0 
L -3.5 0 
" id="m7eeb6d1132" style="stroke:#000000;stroke-width:0.8;"/>
      </defs>
      <g>
       <use style="stroke:#000000;stroke-width:0.8;" x="90" xlink:href="#m7eeb6d1132" y="242.359957"/>
      </g>
     </g>
     <g id="text_9">
      <!-- 0.0 -->
      <defs>
       <path d="M 17.578125 4.296875 
Q 17.578125 1.953125 16.015625 0.390625 
Q 14.453125 -1.171875 12.109375 -1.171875 
Q 9.765625 -1.171875 8.203125 0.390625 
Q 6.640625 1.953125 6.640625 4.296875 
Q 6.640625 6.640625 8.203125 8.203125 
Q 9.765625 9.765625 12.109375 9.765625 
Q 14.453125 9.765625 16.015625 8.203125 
Q 17.578125 6.640625 17.578125 4.296875 
z
" id="FangSong-2e"/>
      </defs>
      <g transform="translate(68 245.856051)scale(0.1 -0.1)">
       <use xlink:href="#FangSong-30"/>
       <use x="50" xlink:href="#FangSong-2e"/>
       <use x="100" xlink:href="#FangSong-30"/>
      </g>
     </g>
    </g>
    <g id="ytick_2">
     <g id="line2d_9">
      <g>
       <use style="stroke:#000000;stroke-width:0.8;" x="90" xlink:href="#m7eeb6d1132" y="217.252576"/>
      </g>
     </g>
     <g id="text_10">
      <!-- 0.1 -->
      <g transform="translate(68 220.74867)scale(0.1 -0.1)">
       <use xlink:href="#FangSong-30"/>
       <use x="50" xlink:href="#FangSong-2e"/>
       <use x="100" xlink:href="#FangSong-31"/>
      </g>
     </g>
    </g>
    <g id="ytick_3">
     <g id="line2d_10">
      <g>
       <use style="stroke:#000000;stroke-width:0.8;" x="90" xlink:href="#m7eeb6d1132" y="192.145195"/>
      </g>
     </g>
     <g id="text_11">
      <!-- 0.2 -->
      <g transform="translate(68 195.641288)scale(0.1 -0.1)">
       <use xlink:href="#FangSong-30"/>
       <use x="50" xlink:href="#FangSong-2e"/>
       <use x="100" xlink:href="#FangSong-32"/>
      </g>
     </g>
    </g>
    <g id="ytick_4">
     <g id="line2d_11">
      <g>
       <use style="stroke:#000000;stroke-width:0.8;" x="90" xlink:href="#m7eeb6d1132" y="167.037813"/>
      </g>
     </g>
     <g id="text_12">
      <!-- 0.3 -->
      <g transform="translate(68 170.533907)scale(0.1 -0.1)">
       <use xlink:href="#FangSong-30"/>
       <use x="50" xlink:href="#FangSong-2e"/>
       <use x="100" xlink:href="#FangSong-33"/>
      </g>
     </g>
    </g>
    <g id="ytick_5">
     <g id="line2d_12">
      <g>
       <use style="stroke:#000000;stroke-width:0.8;" x="90" xlink:href="#m7eeb6d1132" y="141.930432"/>
      </g>
     </g>
     <g id="text_13">
      <!-- 0.4 -->
      <g transform="translate(68 145.426526)scale(0.1 -0.1)">
       <use xlink:href="#FangSong-30"/>
       <use x="50" xlink:href="#FangSong-2e"/>
       <use x="100" xlink:href="#FangSong-34"/>
      </g>
     </g>
    </g>
    <g id="ytick_6">
     <g id="line2d_13">
      <g>
       <use style="stroke:#000000;stroke-width:0.8;" x="90" xlink:href="#m7eeb6d1132" y="116.823051"/>
      </g>
     </g>
     <g id="text_14">
      <!-- 0.5 -->
      <g transform="translate(68 120.319145)scale(0.1 -0.1)">
       <use xlink:href="#FangSong-30"/>
       <use x="50" xlink:href="#FangSong-2e"/>
       <use x="100" xlink:href="#FangSong-35"/>
      </g>
     </g>
    </g>
    <g id="ytick_7">
     <g id="line2d_14">
      <g>
       <use style="stroke:#000000;stroke-width:0.8;" x="90" xlink:href="#m7eeb6d1132" y="91.715669"/>
      </g>
     </g>
     <g id="text_15">
      <!-- 0.6 -->
      <g transform="translate(68 95.211763)scale(0.1 -0.1)">
       <use xlink:href="#FangSong-30"/>
       <use x="50" xlink:href="#FangSong-2e"/>
       <use x="100" xlink:href="#FangSong-36"/>
      </g>
     </g>
    </g>
    <g id="ytick_8">
     <g id="line2d_15">
      <g>
       <use style="stroke:#000000;stroke-width:0.8;" x="90" xlink:href="#m7eeb6d1132" y="66.608288"/>
      </g>
     </g>
     <g id="text_16">
      <!-- 0.7 -->
      <defs>
       <path d="M 43.75 64.0625 
Q 35.546875 50.78125 30.65625 38.078125 
Q 25.78125 25.390625 25.78125 16.015625 
Q 25.78125 14.453125 25.96875 11.515625 
Q 26.171875 8.59375 26.171875 4.6875 
Q 26.171875 1.5625 25.1875 0.390625 
Q 24.21875 -0.78125 21.875 -0.78125 
Q 19.921875 -0.78125 18.546875 0.578125 
Q 17.1875 1.953125 17.1875 5.46875 
Q 17.1875 12.890625 20.5 23.828125 
Q 23.828125 34.765625 38.28125 60.9375 
L 18.75 60.9375 
Q 14.453125 60.9375 11.90625 58.203125 
Q 9.375 55.46875 8.203125 50 
L 5.859375 50.390625 
L 8.59375 66.796875 
L 43.75 66.796875 
z
" id="FangSong-37"/>
      </defs>
      <g transform="translate(68 70.104382)scale(0.1 -0.1)">
       <use xlink:href="#FangSong-30"/>
       <use x="50" xlink:href="#FangSong-2e"/>
       <use x="100" xlink:href="#FangSong-37"/>
      </g>
     </g>
    </g>
    <g id="ytick_9">
     <g id="line2d_16">
      <g>
       <use style="stroke:#000000;stroke-width:0.8;" x="90" xlink:href="#m7eeb6d1132" y="41.500907"/>
      </g>
     </g>
     <g id="text_17">
      <!-- 0.8 -->
      <defs>
       <path d="M 9.375 16.015625 
Q 9.375 9.765625 13.46875 5.859375 
Q 17.578125 1.953125 23.828125 1.953125 
Q 31.25 1.953125 34.5625 5.859375 
Q 37.890625 9.765625 37.890625 15.625 
Q 37.890625 20.703125 33.203125 25.390625 
Q 28.515625 30.078125 19.140625 33.984375 
Q 14.453125 30.859375 11.90625 26.171875 
Q 9.375 21.484375 9.375 16.015625 
z
M 43.75 16.796875 
Q 43.75 9.375 38.28125 4.296875 
Q 32.8125 -0.78125 23.828125 -0.78125 
Q 15.625 -0.78125 9.765625 4.296875 
Q 3.90625 9.375 3.90625 16.015625 
Q 3.90625 22.65625 7.21875 27.34375 
Q 10.546875 32.03125 16.796875 35.546875 
Q 11.328125 38.28125 8.390625 42.375 
Q 5.46875 46.484375 5.46875 51.5625 
Q 5.46875 58.203125 10.546875 62.890625 
Q 15.625 67.578125 24.609375 67.578125 
Q 32.8125 67.578125 37.890625 62.890625 
Q 42.96875 58.203125 42.96875 51.5625 
Q 42.96875 46.875 40.03125 42.765625 
Q 37.109375 38.671875 30.859375 35.546875 
Q 37.5 31.640625 40.625 26.953125 
Q 43.75 22.265625 43.75 16.796875 
z
M 37.5 51.171875 
Q 37.5 56.640625 34.375 60.734375 
Q 31.25 64.84375 24.609375 64.84375 
Q 17.1875 64.84375 14.0625 60.9375 
Q 10.9375 57.03125 10.9375 52.734375 
Q 10.9375 48.4375 15.421875 44.328125 
Q 19.921875 40.234375 28.125 37.109375 
Q 32.8125 39.453125 35.15625 42.96875 
Q 37.5 46.484375 37.5 51.171875 
z
" id="FangSong-38"/>
      </defs>
      <g transform="translate(68 44.997001)scale(0.1 -0.1)">
       <use xlink:href="#FangSong-30"/>
       <use x="50" xlink:href="#FangSong-2e"/>
       <use x="100" xlink:href="#FangSong-38"/>
      </g>
     </g>
    </g>
    <g id="text_18">
     <!-- 归一化数值 -->
     <defs>
      <path d="M 46.09375 62.890625 
Q 54.6875 62.890625 82.03125 66.40625 
L 84.375 69.53125 
L 89.0625 66.015625 
L 86.71875 62.890625 
L 80.46875 12.890625 
L 84.765625 8.984375 
Q 53.515625 6.640625 47.65625 5.46875 
L 41.796875 9.375 
Q 51.953125 9.375 76.171875 12.5 
L 82.421875 62.5 
Q 57.03125 59.765625 51.5625 58.59375 
z
M 42.578125 75.78125 
Q 41.015625 75 41.015625 71.875 
Q 41.015625 68.75 40.8125 53.90625 
Q 40.625 39.0625 38.859375 29.09375 
Q 37.109375 19.140625 31.640625 9.5625 
Q 26.171875 0 12.890625 -10.546875 
L 12.109375 -8.984375 
Q 25 2.34375 30.265625 13.859375 
Q 35.546875 25.390625 36.328125 40.421875 
Q 37.109375 55.46875 37.109375 66.015625 
Q 37.109375 76.953125 34.765625 79.6875 
L 35.9375 80.859375 
L 42.578125 75.78125 
z
M 22.265625 61.328125 
Q 19.921875 60.15625 20.703125 53.90625 
L 20.703125 21.875 
Q 21.09375 13.671875 18.75 16.015625 
L 15.234375 22.265625 
Q 17.1875 24.21875 17.1875 29.296875 
L 17.1875 56.25 
Q 17.1875 63.28125 15.234375 66.796875 
L 16.40625 67.578125 
L 22.265625 61.328125 
z
M 76.953125 37.109375 
Q 70.3125 37.109375 62.6875 36.125 
Q 55.078125 35.15625 51.5625 34.375 
L 46.09375 38.28125 
Q 52.34375 38.28125 61.328125 39.453125 
Q 70.3125 40.625 72.65625 41.796875 
z
" id="FangSong-5f52"/>
      <path d="M 91.796875 40.234375 
Q 82.421875 39.84375 52.53125 37.5 
Q 22.65625 35.15625 15.625 34.375 
L 8.203125 38.28125 
Q 23.046875 38.671875 51.171875 41.015625 
Q 79.296875 43.359375 84.375 44.921875 
z
" id="FangSong-4e00"/>
      <path d="M 57.8125 7.8125 
Q 57.8125 0.390625 68.359375 0 
L 79.296875 0 
Q 85.15625 0 86.125 2.53125 
Q 87.109375 5.078125 87.109375 21.09375 
L 89.0625 21.09375 
Q 89.0625 15.625 89.640625 8.78125 
Q 90.234375 1.953125 92.578125 -2.34375 
Q 87.890625 -3.90625 79.296875 -3.90625 
L 68.359375 -3.90625 
Q 54.296875 -3.90625 54.296875 6.25 
L 54.296875 30.46875 
Q 46.484375 24.21875 35.546875 18.75 
L 34.765625 20.703125 
Q 45.3125 26.5625 54.296875 34.375 
L 54.296875 66.796875 
Q 54.296875 76.171875 51.953125 80.078125 
L 52.734375 80.859375 
L 60.15625 73.828125 
Q 57.421875 72.65625 57.8125 66.015625 
L 57.8125 36.71875 
Q 66.015625 42.96875 73.046875 50.390625 
Q 80.078125 57.8125 79.296875 61.71875 
L 80.46875 61.71875 
L 83.203125 53.125 
Q 82.421875 53.90625 74.609375 46.671875 
Q 66.796875 39.453125 57.8125 32.8125 
z
M 32.03125 -4.6875 
Q 32.03125 -10.9375 30.46875 -8.59375 
L 26.5625 -1.171875 
Q 28.90625 -0.390625 28.515625 4.6875 
L 28.90625 52.34375 
Q 21.875 42.96875 7.8125 31.25 
L 7.03125 32.8125 
Q 21.875 47.65625 31.640625 62.5 
Q 41.40625 77.34375 39.453125 80.46875 
L 40.625 80.859375 
L 44.921875 72.65625 
Q 43.359375 73.4375 40.03125 68.75 
Q 36.71875 64.0625 32.421875 57.421875 
z
" id="FangSong-5316"/>
      <path d="M 77.34375 42.96875 
Q 76.171875 41.796875 74.015625 35.34375 
Q 71.875 28.90625 68.359375 20.3125 
Q 76.171875 4.6875 79.484375 0.578125 
Q 82.8125 -3.515625 93.75 -3.515625 
L 93.75 -5.46875 
L 76.953125 -6.640625 
Q 77.34375 -5.078125 74.796875 0.578125 
Q 72.265625 6.25 66.40625 17.1875 
Q 56.25 0.78125 40.234375 -10.546875 
L 39.0625 -8.984375 
Q 53.125 1.5625 64.0625 20.3125 
Q 57.8125 33.59375 55.46875 36.71875 
Q 53.125 32.03125 50.78125 28.515625 
L 49.21875 29.296875 
Q 53.125 37.890625 55.859375 45.890625 
Q 58.59375 53.90625 61.71875 66.015625 
Q 64.84375 78.125 62.890625 79.6875 
L 64.0625 80.46875 
L 69.140625 75 
Q 67.96875 74.21875 66.984375 70.3125 
Q 66.015625 66.40625 60.9375 50 
Q 83.203125 52.734375 85.546875 54.296875 
L 90.234375 50 
Q 84.765625 49.609375 73.4375 48.046875 
z
M 46.484375 7.03125 
Q 46.875 3.515625 46.875 0.390625 
Q 42.1875 3.125 35.546875 6.25 
Q 25.78125 -3.90625 8.59375 -9.765625 
L 7.8125 -8.203125 
Q 23.046875 -1.171875 31.640625 7.421875 
Q 26.171875 8.984375 19.921875 10.9375 
L 25 21.484375 
Q 15.625 20.3125 12.890625 19.53125 
L 8.203125 23.828125 
Q 12.890625 23.828125 26.5625 25.390625 
Q 28.125 29.296875 28.515625 31.828125 
Q 28.90625 34.375 28.515625 36.71875 
L 29.296875 37.109375 
L 33.59375 31.25 
Q 32.421875 30.859375 30.46875 25.78125 
L 42.578125 26.953125 
Q 43.359375 28.90625 42.96875 32.421875 
L 44.140625 32.8125 
L 48.828125 26.5625 
Q 47.65625 26.5625 45.3125 21.671875 
Q 42.96875 16.796875 38.28125 8.984375 
Q 41.40625 8.203125 46.484375 7.03125 
z
M 36.71875 56.25 
L 41.40625 56.640625 
Q 45.3125 64.84375 46.671875 69.328125 
Q 48.046875 73.828125 47.65625 77.34375 
L 48.828125 78.125 
L 53.125 71.484375 
Q 51.953125 71.09375 50.1875 67.765625 
Q 48.4375 64.453125 43.75 56.640625 
Q 51.171875 58.203125 51.5625 58.59375 
L 55.078125 54.296875 
Q 50.78125 54.296875 36.71875 52.734375 
L 36.71875 50.390625 
Q 43.75 47.265625 50.390625 44.53125 
Q 50.390625 41.40625 50 37.5 
Q 44.53125 42.96875 36.71875 48.046875 
L 36.71875 37.109375 
Q 36.71875 32.03125 35.15625 34.375 
L 31.640625 39.0625 
Q 33.59375 41.015625 33.203125 44.53125 
L 33.203125 50 
Q 21.09375 35.9375 7.421875 27.734375 
L 6.25 29.296875 
Q 18.75 37.890625 29.6875 51.953125 
Q 16.40625 50.390625 15.625 49.609375 
L 10.546875 54.296875 
Q 16.40625 53.90625 33.203125 55.859375 
L 33.203125 69.921875 
Q 33.203125 77.734375 31.25 80.859375 
L 32.421875 81.640625 
L 38.28125 76.953125 
Q 36.71875 75.78125 36.71875 68.75 
z
M 59.375 38.28125 
Q 59.765625 35.9375 61.71875 31.640625 
L 65.625 24.21875 
Q 67.578125 28.125 70.109375 37.109375 
Q 72.65625 46.09375 71.875 47.65625 
L 59.375 46.09375 
Q 57.8125 42.1875 56.25 38.671875 
z
M 33.984375 10.15625 
Q 39.0625 16.796875 41.796875 23.828125 
L 29.296875 21.875 
L 24.609375 12.5 
z
M 25.390625 57.03125 
Q 23.046875 62.5 17.1875 70.703125 
L 18.359375 71.875 
Q 23.046875 67.96875 28.515625 62.890625 
Q 26.953125 59.765625 25.390625 57.03125 
z
" id="FangSong-6570"/>
      <path d="M 74.21875 55.078125 
L 78.90625 50.390625 
L 76.171875 47.65625 
L 75.390625 3.125 
Q 87.109375 3.90625 89.0625 5.078125 
L 92.96875 0.390625 
Q 87.109375 0.78125 62.6875 -1.359375 
Q 38.28125 -3.515625 34.375 -4.296875 
L 30.078125 0 
Q 35.9375 0 44.921875 0.78125 
L 44.140625 43.359375 
Q 44.140625 48.4375 42.1875 52.734375 
L 43.359375 53.515625 
L 47.65625 47.65625 
L 56.640625 48.828125 
L 57.03125 59.765625 
Q 41.40625 57.8125 38.28125 57.03125 
L 33.984375 60.9375 
Q 40.234375 60.9375 57.421875 63.671875 
L 57.8125 70.3125 
Q 58.203125 76.953125 55.859375 80.46875 
L 57.03125 81.640625 
L 63.671875 75.390625 
Q 61.328125 75.390625 61.328125 69.53125 
L 60.9375 64.0625 
Q 79.6875 66.796875 82.8125 67.96875 
L 87.5 63.671875 
Q 82.8125 63.671875 60.546875 60.15625 
L 60.15625 49.21875 
L 72.265625 50.78125 
z
M 47.65625 36.71875 
Q 62.109375 38.671875 66.796875 40.234375 
L 69.53125 35.9375 
Q 64.0625 35.546875 48.046875 33.203125 
L 48.046875 25.390625 
Q 64.453125 27.34375 66.015625 28.125 
L 69.921875 24.609375 
Q 64.453125 24.21875 48.046875 21.875 
L 48.4375 14.453125 
Q 65.234375 15.625 67.1875 16.796875 
L 69.921875 12.890625 
Q 64.84375 12.890625 48.4375 10.9375 
L 48.4375 0.78125 
L 71.875 2.734375 
L 72.65625 47.265625 
L 47.65625 44.140625 
z
M 27.34375 -3.515625 
Q 27.34375 -10.546875 25.78125 -7.03125 
L 22.265625 -0.78125 
Q 24.21875 1.953125 23.828125 4.6875 
L 24.609375 53.90625 
Q 16.796875 42.96875 7.421875 34.765625 
L 6.25 35.9375 
Q 17.1875 47.265625 25.578125 60.9375 
Q 33.984375 74.609375 33.203125 79.296875 
L 34.375 79.296875 
L 38.671875 73.046875 
Q 37.109375 72.265625 34.765625 69.140625 
Q 32.03125 65.234375 28.125 58.984375 
L 27.34375 -3.515625 
z
" id="FangSong-503c"/>
     </defs>
     <g transform="translate(61.976562 178.28)rotate(-90)scale(0.14 -0.14)">
      <use xlink:href="#FangSong-5f52"/>
      <use x="100" xlink:href="#FangSong-4e00"/>
      <use x="200" xlink:href="#FangSong-5316"/>
      <use x="300" xlink:href="#FangSong-6570"/>
      <use x="400" xlink:href="#FangSong-503c"/>
     </g>
    </g>
   </g>
   <g id="line2d_17">
    <path clip-path="url(#p1b911a0eda)" d="M 115.363636 242.018874 
L 116.146465 195.825535 
L 116.929293 187.947686 
L 117.712121 188.003062 
L 118.494949 180.860632 
L 119.277778 178.784618 
L 120.060606 168.785245 
L 120.843434 163.1993 
L 121.626263 156.128337 
L 123.191919 148.145063 
L 124.757576 140.618257 
L 126.323232 129.839649 
L 127.106061 126.391509 
L 127.888889 121.000429 
L 128.671717 117.469746 
L 129.454545 117.336784 
L 130.237374 110.422309 
L 132.585859 100.048227 
L 133.368687 97.309723 
L 134.151515 95.049533 
L 134.934343 92.280643 
L 135.717172 104.575735 
L 136.5 113.619667 
L 137.282828 110.296731 
L 138.065657 89.54332 
L 138.848485 82.518976 
L 139.631313 79.860521 
L 140.414141 78.526919 
L 141.19697 76.958776 
L 141.979798 75.777654 
L 143.545455 72.592721 
L 146.676768 66.067513 
L 148.242424 64.294234 
L 149.025253 63.027043 
L 149.808081 62.275852 
L 152.156566 58.829517 
L 152.939394 58.277941 
L 153.722222 58.303571 
L 154.505051 57.95901 
L 155.287879 59.728614 
L 156.070707 55.184083 
L 156.853535 56.285289 
L 157.636364 65.092858 
L 158.419192 60.107286 
L 159.20202 52.600404 
L 159.984848 52.89003 
L 162.333333 54.422231 
L 163.116162 54.669313 
L 163.89899 56.469203 
L 164.681818 55.851798 
L 165.464646 54.963097 
L 166.247475 57.257881 
L 167.030303 62.391609 
L 167.813131 63.003592 
L 168.59596 55.989376 
L 169.378788 57.301091 
L 172.510101 61.189016 
L 173.292929 61.757323 
L 174.075758 62.635314 
L 174.858586 63.782474 
L 175.641414 65.24923 
L 176.424242 67.750564 
L 177.207071 69.795806 
L 177.989899 71.014948 
L 178.772727 71.065525 
L 179.555556 72.933955 
L 180.338384 75.602522 
L 181.121212 76.675038 
L 181.90404 78.0754 
L 183.469697 82.975368 
L 184.252525 84.496842 
L 185.818182 88.26595 
L 186.60101 91.36074 
L 189.732323 100.805871 
L 190.515152 103.659466 
L 191.29798 105.776582 
L 196.777778 126.879169 
L 199.126263 137.821351 
L 201.474747 151.798813 
L 203.040404 160.005119 
L 204.606061 169.649864 
L 206.954545 184.773214 
L 211.651515 220.999691 
L 213.217172 230.435536 
L 215.565657 241.066443 
L 216.348485 241.922782 
L 217.131313 242.105047 
L 217.914141 241.97794 
L 218.69697 195.923517 
L 219.479798 187.127952 
L 220.262626 181.363968 
L 221.045455 176.97457 
L 221.828283 175.414867 
L 222.611111 165.878927 
L 224.959596 150.970202 
L 225.742424 144.627095 
L 226.525253 139.372645 
L 227.308081 152.765884 
L 228.090909 144.838327 
L 228.873737 131.549727 
L 229.656566 135.23215 
L 230.439394 126.473329 
L 231.222222 127.025063 
L 232.005051 114.44817 
L 232.787879 126.812343 
L 233.570707 117.215197 
L 234.353535 129.062255 
L 235.136364 117.594393 
L 235.919192 103.88239 
L 236.70202 120.465045 
L 237.484848 123.37567 
L 238.267677 95.153032 
L 239.050505 88.39463 
L 239.833333 92.131206 
L 240.616162 97.218315 
L 241.39899 84.86467 
L 242.181818 86.399101 
L 242.964646 83.758175 
L 243.747475 76.990559 
L 244.530303 99.140249 
L 245.313131 126.864591 
L 246.878788 72.608804 
L 247.661616 86.846661 
L 248.444444 87.42741 
L 249.227273 74.927305 
L 250.010101 65.566447 
L 250.792929 75.393161 
L 251.575758 108.702493 
L 252.358586 122.775563 
L 253.141414 72.738415 
L 253.924242 56.129732 
L 254.707071 48.399602 
L 255.489899 62.041261 
L 256.272727 99.748173 
L 257.055556 99.299099 
L 257.838384 77.72758 
L 258.621212 128.253552 
L 259.40404 73.965657 
L 260.186869 51.205149 
L 260.969697 45.994515 
L 261.752525 67.374437 
L 262.535354 61.272557 
L 263.318182 62.531566 
L 264.10101 76.542034 
L 264.883838 87.927876 
L 265.666667 88.213776 
L 266.449495 102.151273 
L 267.232323 118.81252 
L 268.015152 83.102352 
L 268.79798 61.995124 
L 269.580808 81.061484 
L 270.363636 83.167415 
L 271.146465 60.101914 
L 271.929293 95.849487 
L 272.712121 44.443636 
L 273.494949 54.162477 
L 274.277778 54.905251 
L 275.060606 58.059017 
L 275.843434 60.745729 
L 276.626263 66.123944 
L 277.409091 64.438498 
L 278.191919 70.213081 
L 278.974747 69.208156 
L 279.757576 69.660839 
L 280.540404 73.151631 
L 281.323232 91.300982 
L 282.106061 74.034512 
L 282.888889 75.041732 
L 283.671717 76.957046 
L 284.454545 79.633048 
L 285.237374 81.566108 
L 287.585859 89.018388 
L 289.934343 97.041736 
L 291.5 99.646753 
L 295.414141 113.502762 
L 296.979798 120.495156 
L 297.762626 146.64289 
L 298.545455 134.422158 
L 299.328283 136.729134 
L 300.111111 153.687392 
L 300.893939 154.120042 
L 302.459596 184.652667 
L 303.242424 141.895468 
L 304.025253 145.955749 
L 305.590909 156.249166 
L 307.939394 175.33479 
L 309.505051 186.400416 
L 311.853535 203.878126 
L 312.636364 211.36233 
L 313.419192 226.5261 
L 314.20202 226.022191 
L 314.984848 234.453046 
L 315.767677 239.935215 
L 316.550505 238.554317 
L 317.333333 239.605717 
L 318.116162 241.392978 
L 318.89899 241.869017 
L 319.681818 242.008478 
L 320.464646 241.990432 
L 321.247475 198.816888 
L 322.030303 190.437079 
L 322.813131 184.534132 
L 325.161616 169.062572 
L 325.944444 162.467876 
L 327.510101 151.221508 
L 329.075758 144.842177 
L 329.858586 160.469927 
L 330.641414 139.747343 
L 331.424242 141.459799 
L 332.989899 128.477507 
L 333.772727 124.735001 
L 334.555556 121.958186 
L 336.121212 115.670738 
L 337.686869 110.505834 
L 339.252525 104.244663 
L 340.035354 101.449986 
L 340.818182 97.889108 
L 341.60101 105.170105 
L 342.383838 93.626203 
L 343.166667 115.897512 
L 343.949495 92.415859 
L 344.732323 88.555476 
L 345.515152 82.378653 
L 346.29798 82.661942 
L 347.080808 96.350586 
L 347.863636 95.350335 
L 348.646465 77.291195 
L 349.429293 82.321839 
L 350.212121 83.033762 
L 350.994949 76.045293 
L 351.777778 76.553343 
L 352.560606 79.602861 
L 353.343434 74.062902 
L 354.126263 73.256777 
L 354.909091 71.571464 
L 355.691919 69.5684 
L 356.474747 68.028498 
L 357.257576 67.669501 
L 358.040404 66.622581 
L 359.606061 65.718512 
L 360.388889 65.685797 
L 361.171717 66.256333 
L 361.954545 65.778669 
L 362.737374 65.934824 
L 363.520202 65.844364 
L 364.30303 63.944551 
L 365.085859 62.858729 
L 365.868687 70.140084 
L 366.651515 58.159124 
L 367.434343 60.989684 
L 368.217172 62.936366 
L 369 64.050362 
L 369.782828 64.290741 
L 370.565657 65.78464 
L 371.348485 65.072135 
L 372.131313 65.149639 
L 372.914141 64.204489 
L 373.69697 65.16662 
L 374.479798 65.52718 
L 375.262626 66.097965 
L 376.045455 66.173191 
L 376.828283 67.09509 
L 377.611111 69.461142 
L 378.393939 72.190814 
L 379.176768 72.694208 
L 379.959596 72.108919 
L 380.742424 72.376857 
L 381.525253 74.195358 
L 382.308081 76.935974 
L 383.090909 78.25785 
L 383.873737 79.903896 
L 384.656566 80.658995 
L 386.222222 86.975574 
L 387.787879 89.453591 
L 388.570707 90.042955 
L 389.353535 92.081893 
L 390.136364 95.034847 
L 390.919192 96.905655 
L 391.70202 97.859969 
L 392.484848 99.498747 
L 393.267677 101.483266 
L 394.833333 107.770889 
L 395.616162 110.029816 
L 396.39899 113.193494 
L 397.964646 118.471785 
L 398.747475 121.740668 
L 400.313131 126.380174 
L 403.444444 139.717306 
L 409.707071 174.633216 
L 411.272727 184.022211 
L 414.40404 206.61395 
L 415.969697 218.415031 
L 416.752525 223.667851 
L 418.318182 232.577185 
L 419.10101 236.120992 
L 419.883838 239.103531 
L 420.666667 240.955332 
L 421.449495 241.760423 
L 422.232323 242.116364 
L 423.015152 242.115239 
L 423.79798 193.054284 
L 424.580808 186.765297 
L 428.494949 160.60234 
L 429.277778 156.207238 
L 430.060606 152.769235 
L 430.843434 148.039559 
L 433.191919 136.700918 
L 435.540404 126.657983 
L 436.323232 125.167244 
L 437.106061 122.895744 
L 437.888889 116.981853 
L 438.671717 114.154727 
L 441.020202 107.661078 
L 441.80303 104.717762 
L 442.585859 102.35581 
L 443.368687 100.950501 
L 444.151515 98.593463 
L 444.934343 95.450841 
L 446.5 91.104594 
L 447.282828 89.350308 
L 450.414141 80.534407 
L 451.19697 78.763256 
L 452.762626 76.405537 
L 454.328283 74.286018 
L 455.111111 72.787362 
L 455.893939 72.111397 
L 456.676768 71.050873 
L 458.242424 69.629638 
L 459.025253 69.215807 
L 459.808081 69.104607 
L 460.590909 68.241451 
L 462.156566 67.861814 
L 463.722222 66.530059 
L 464.505051 66.875451 
L 465.287879 67.702831 
L 466.070707 66.72159 
L 466.853535 66.213224 
L 467.636364 67.382287 
L 468.419192 67.734232 
L 469.20202 67.897939 
L 469.984848 68.328701 
L 470.767677 68.436059 
L 471.550505 67.698424 
L 472.333333 67.978203 
L 473.116162 68.759165 
L 473.89899 70.946076 
L 474.681818 70.776232 
L 475.464646 70.119394 
L 477.030303 71.293015 
L 478.59596 73.500932 
L 479.378788 73.64453 
L 480.161616 74.389584 
L 480.944444 75.800407 
L 481.727273 76.882486 
L 482.510101 78.80126 
L 483.292929 81.464688 
L 484.075758 81.445644 
L 484.858586 80.057823 
L 485.641414 80.006215 
L 486.424242 81.022283 
L 487.207071 82.911535 
L 487.989899 85.779534 
L 488.772727 87.643789 
L 489.555556 88.873076 
L 491.121212 92.739447 
L 491.90404 96.306928 
L 492.686869 98.412326 
L 493.469697 99.785661 
L 494.252525 102.10077 
L 495.035354 105.052086 
L 495.818182 108.767332 
L 496.60101 111.624503 
L 497.383838 113.569139 
L 498.166667 114.821012 
L 498.949495 116.963841 
L 499.732323 119.540401 
L 501.29798 126.488106 
L 502.080808 130.219019 
L 502.863636 133.040166 
L 504.429293 166.513803 
L 505.212121 169.590597 
L 505.994949 155.435615 
L 506.777778 174.822768 
L 507.560606 160.022981 
L 509.909091 172.984492 
L 510.691919 176.835773 
L 511.474747 182.567239 
L 512.257576 187.154131 
L 513.823232 195.337464 
L 514.606061 204.119432 
L 515.388889 206.030152 
L 516.954545 217.276763 
L 517.737374 228.2208 
L 518.520202 226.528069 
L 519.30303 236.124218 
L 520.085859 236.490135 
L 520.868687 240.06441 
L 522.434343 241.474235 
L 523.217172 241.878772 
L 524 242.032263 
L 524.782828 241.956285 
L 525.565657 201.694362 
L 526.348485 204.766333 
L 527.131313 193.775292 
L 527.914141 196.02431 
L 528.69697 207.911743 
L 529.479798 191.481043 
L 530.262626 204.234254 
L 531.045455 205.538596 
L 531.828283 202.742451 
L 532.611111 204.980513 
L 533.393939 195.121155 
L 534.176768 195.970107 
L 534.959596 180.301085 
L 535.742424 185.725054 
L 536.525253 197.553875 
L 537.308081 195.484858 
L 538.090909 181.057045 
L 538.873737 128.116423 
L 539.656566 112.442146 
L 540.439394 88.425066 
L 541.222222 91.850196 
L 542.005051 109.241636 
L 542.787879 105.983016 
L 543.570707 118.581871 
L 544.353535 134.988287 
L 545.136364 137.27824 
L 545.919192 133.807631 
L 546.70202 117.093727 
L 547.484848 96.333588 
L 548.267677 92.709476 
L 549.050505 96.683205 
L 549.833333 83.00642 
L 550.616162 128.064307 
L 551.39899 138.641754 
L 552.181818 74.498222 
L 552.964646 87.295886 
L 553.747475 69.839215 
L 554.530303 93.942173 
L 555.313131 110.004602 
L 556.09596 166.161659 
L 556.878788 148.674893 
L 557.661616 146.795927 
L 558.444444 158.706776 
L 559.227273 154.370708 
L 560.010101 116.683363 
L 560.792929 120.588194 
L 561.575758 107.311046 
L 562.358586 122.405415 
L 563.141414 125.730704 
L 563.924242 135.376115 
L 564.707071 127.790282 
L 565.489899 108.69421 
L 566.272727 101.608886 
L 567.055556 102.269175 
L 567.838384 96.939068 
L 568.621212 148.946872 
L 569.40404 157.750001 
L 570.186869 159.362342 
L 570.969697 162.466271 
L 571.752525 157.138384 
L 572.535354 157.524765 
L 573.318182 145.132443 
L 574.10101 155.977769 
L 574.883838 165.112269 
L 575.666667 159.375648 
L 576.449495 157.342406 
L 577.232323 160.19497 
L 578.015152 159.011545 
L 578.79798 159.677939 
L 579.580808 169.518839 
L 580.363636 161.366013 
L 581.146465 162.283746 
L 581.929293 171.49276 
L 582.712121 167.859754 
L 583.494949 158.115933 
L 584.277778 156.379701 
L 585.060606 157.741227 
L 585.843434 122.871753 
L 586.626263 178.265332 
L 587.409091 192.233705 
L 588.191919 191.6207 
L 588.974747 186.904155 
L 589.757576 184.481102 
L 591.323232 176.366537 
L 592.106061 176.595199 
L 592.888889 185.833485 
L 593.671717 178.703267 
L 594.454545 177.451161 
L 595.237374 162.96939 
L 596.020202 154.234111 
L 596.80303 175.641388 
L 597.585859 165.050615 
L 598.368687 163.361243 
L 599.934343 190.245307 
L 600.717172 190.993707 
L 601.5 196.884771 
L 602.282828 201.099951 
L 603.065657 200.425691 
L 603.848485 199.021725 
L 604.631313 198.818243 
L 605.414141 202.079725 
L 606.19697 203.244693 
L 606.979798 199.662721 
L 607.762626 204.917449 
L 608.545455 212.879343 
L 610.893939 222.967421 
L 611.676768 224.294298 
L 612.459596 224.333339 
L 613.242424 224.968847 
L 614.025253 226.228599 
L 614.808081 229.903031 
L 616.373737 231.939346 
L 617.156566 234.950173 
L 617.939394 237.130341 
L 618.722222 237.610367 
L 619.505051 238.567173 
L 620.287879 240.329888 
L 621.070707 241.050019 
L 621.853535 241.424995 
L 622.636364 241.590052 
L 622.636364 241.590052 
" style="fill:none;stroke:#000000;stroke-linecap:square;stroke-width:1.5;"/>
   </g>
   <g id="line2d_18">
    <path clip-path="url(#p1b911a0eda)" d="M 115.363636 211.828373 
L 116.146465 158.338849 
L 116.929293 165.964411 
L 117.712121 170.925117 
L 118.494949 174.345976 
L 119.277778 175.913938 
L 120.060606 178.153897 
L 120.843434 178.040524 
L 121.626263 183.550861 
L 122.409091 190.00974 
L 123.974747 194.045406 
L 124.757576 195.172966 
L 126.323232 199.522441 
L 127.106061 200.801958 
L 127.888889 201.276426 
L 128.671717 200.549363 
L 129.454545 201.340438 
L 130.237374 202.314058 
L 131.80303 205.155405 
L 134.151515 206.273571 
L 134.934343 207.033283 
L 135.717172 207.557263 
L 137.282828 207.235145 
L 138.065657 207.407008 
L 139.631313 208.504453 
L 140.414141 208.757749 
L 141.19697 208.834149 
L 141.979798 209.342453 
L 142.762626 210.032536 
L 144.328283 210.303752 
L 145.111111 209.844012 
L 145.893939 210.034917 
L 146.676768 210.885427 
L 147.459596 211.250661 
L 148.242424 211.025752 
L 149.025253 211.036033 
L 149.808081 211.624607 
L 150.590909 211.968856 
L 151.373737 212.019583 
L 152.156566 212.229742 
L 152.939394 212.860947 
L 153.722222 213.001536 
L 154.505051 213.910799 
L 155.287879 214.158382 
L 156.070707 214.178472 
L 157.636364 214.98439 
L 158.419192 214.794493 
L 159.20202 215.026868 
L 159.984848 214.998662 
L 160.767677 214.779415 
L 161.550505 215.826145 
L 162.333333 216.088284 
L 163.116162 215.457063 
L 163.89899 215.831142 
L 164.681818 216.872454 
L 165.464646 216.448538 
L 166.247475 216.492846 
L 167.030303 216.217853 
L 167.813131 216.871241 
L 168.59596 216.901272 
L 169.378788 216.453855 
L 170.944444 216.624077 
L 171.727273 217.252316 
L 172.510101 217.418158 
L 173.292929 216.777156 
L 175.641414 217.082858 
L 176.424242 216.810754 
L 177.989899 217.217404 
L 178.772727 216.578537 
L 179.555556 216.116234 
L 180.338384 216.835091 
L 181.121212 217.999721 
L 181.90404 217.626199 
L 182.686869 217.121206 
L 184.252525 218.226134 
L 185.035354 217.837567 
L 185.818182 217.66308 
L 186.60101 218.131432 
L 187.383838 218.171286 
L 188.166667 218.639123 
L 188.949495 217.966486 
L 189.732323 218.110769 
L 190.515152 219.087758 
L 191.29798 218.5437 
L 192.080808 217.451176 
L 192.863636 218.077471 
L 193.646465 218.069653 
L 194.429293 217.542705 
L 195.212121 218.299947 
L 195.994949 218.40906 
L 196.777778 218.036546 
L 197.560606 218.075131 
L 198.343434 218.532373 
L 199.909091 218.163023 
L 200.691919 217.35549 
L 201.474747 217.278541 
L 202.257576 217.67209 
L 203.040404 217.72453 
L 203.823232 218.269838 
L 204.606061 218.152569 
L 205.388889 217.916716 
L 206.171717 216.781116 
L 206.954545 216.915735 
L 208.520202 216.533783 
L 209.30303 216.13177 
L 210.085859 215.973928 
L 211.651515 215.93348 
L 212.434343 215.827312 
L 213.217172 215.409924 
L 214 214.731419 
L 214.782828 214.600856 
L 215.565657 214.584915 
L 217.914141 213.13011 
L 218.69697 148.499362 
L 219.479798 155.255467 
L 220.262626 160.001639 
L 221.045455 162.638891 
L 221.828283 165.903091 
L 222.611111 167.948408 
L 223.393939 167.662924 
L 224.176768 172.18782 
L 224.959596 177.531929 
L 226.525253 183.726254 
L 227.308081 184.92278 
L 228.090909 185.665 
L 228.873737 187.136026 
L 230.439394 188.850464 
L 231.222222 188.211435 
L 232.005051 188.144736 
L 232.787879 188.812315 
L 233.570707 188.670774 
L 234.353535 189.698315 
L 235.136364 187.958113 
L 235.919192 188.463648 
L 236.70202 189.769497 
L 237.484848 189.958109 
L 238.267677 190.82636 
L 239.050505 192.618137 
L 239.833333 193.683455 
L 240.616162 193.29282 
L 241.39899 194.55916 
L 242.181818 195.145009 
L 242.964646 195.06104 
L 243.747475 196.769868 
L 244.530303 197.267446 
L 246.09596 197.280582 
L 246.878788 198.783895 
L 247.661616 200.662592 
L 248.444444 201.169092 
L 249.227273 202.003844 
L 250.010101 203.149518 
L 250.792929 203.868701 
L 251.575758 204.349362 
L 252.358586 203.450912 
L 253.141414 203.258249 
L 253.924242 205.325913 
L 254.707071 205.547758 
L 255.489899 206.075269 
L 256.272727 205.644271 
L 257.055556 204.445772 
L 257.838384 204.529169 
L 258.621212 207.006728 
L 259.40404 206.500158 
L 260.969697 206.637699 
L 261.752525 207.147898 
L 262.535354 206.92607 
L 263.318182 208.131431 
L 264.883838 209.619925 
L 265.666667 208.664987 
L 266.449495 210.196713 
L 267.232323 209.555746 
L 268.015152 211.254034 
L 268.79798 210.64843 
L 269.580808 210.429493 
L 270.363636 210.532747 
L 271.146465 211.661699 
L 271.929293 212.204845 
L 272.712121 214.548409 
L 273.494949 213.356865 
L 274.277778 213.248183 
L 275.060606 213.87064 
L 275.843434 214.960831 
L 276.626263 213.730378 
L 277.409091 214.713665 
L 278.191919 216.258608 
L 278.974747 216.199695 
L 279.757576 217.981889 
L 280.540404 216.033399 
L 281.323232 214.873554 
L 282.106061 214.077331 
L 282.888889 215.063365 
L 283.671717 215.491208 
L 284.454545 216.088712 
L 285.237374 216.175587 
L 286.020202 216.68986 
L 286.80303 217.449395 
L 287.585859 217.018527 
L 288.368687 216.12605 
L 293.065657 215.587628 
L 293.848485 216.515024 
L 294.631313 215.707861 
L 295.414141 216.562447 
L 296.19697 216.921623 
L 296.979798 216.734471 
L 297.762626 217.027437 
L 298.545455 217.623058 
L 300.111111 216.317397 
L 300.893939 215.898627 
L 301.676768 215.862379 
L 302.459596 216.078406 
L 303.242424 216.418059 
L 304.808081 216.826914 
L 305.590909 216.316159 
L 306.373737 216.393909 
L 307.156566 215.97535 
L 308.722222 215.490452 
L 310.287879 215.403817 
L 311.853535 214.394697 
L 313.419192 213.027372 
L 314.984848 212.463231 
L 315.767677 211.95457 
L 317.333333 211.308104 
L 318.89899 210.161834 
L 319.681818 209.248056 
L 320.464646 208.532671 
L 321.247475 145.131734 
L 322.030303 160.285614 
L 322.813131 167.083804 
L 323.59596 167.700902 
L 324.378788 167.080935 
L 326.727273 175.679796 
L 327.510101 176.941931 
L 328.292929 179.476687 
L 329.075758 183.501801 
L 329.858586 188.345958 
L 330.641414 191.447626 
L 331.424242 193.832259 
L 332.207071 193.620817 
L 332.989899 193.23645 
L 335.338384 201.832978 
L 336.121212 201.866848 
L 336.90404 205.310365 
L 338.469697 207.46467 
L 340.035354 208.560649 
L 340.818182 208.94251 
L 341.60101 209.07305 
L 342.383838 208.313229 
L 343.166667 209.902976 
L 343.949495 210.5017 
L 344.732323 211.286967 
L 345.515152 210.93092 
L 346.29798 211.635286 
L 347.080808 212.922377 
L 347.863636 212.474585 
L 348.646465 212.372093 
L 349.429293 213.094619 
L 350.212121 212.858938 
L 350.994949 212.991291 
L 351.777778 214.03743 
L 352.560606 213.931509 
L 353.343434 214.235234 
L 354.126263 213.73973 
L 354.909091 213.687833 
L 355.691919 214.231246 
L 356.474747 213.898509 
L 357.257576 214.398559 
L 358.040404 215.085399 
L 358.823232 214.738593 
L 359.606061 214.798518 
L 361.954545 216.369225 
L 362.737374 216.975318 
L 363.520202 216.928554 
L 364.30303 215.514553 
L 365.085859 215.397107 
L 365.868687 215.81643 
L 366.651515 215.893386 
L 367.434343 216.194962 
L 368.217172 215.519868 
L 369.782828 216.045343 
L 370.565657 216.549868 
L 371.348485 216.245761 
L 372.131313 216.483798 
L 373.69697 216.429612 
L 374.479798 216.675665 
L 375.262626 216.679206 
L 376.045455 216.290476 
L 377.611111 216.95456 
L 378.393939 217.518282 
L 379.176768 218.247327 
L 379.959596 218.460569 
L 380.742424 218.136577 
L 381.525253 217.523504 
L 382.308081 218.10465 
L 383.873737 218.392791 
L 384.656566 217.853324 
L 385.439394 217.944869 
L 386.222222 219.09078 
L 387.005051 218.653593 
L 387.787879 218.978018 
L 389.353535 218.424927 
L 390.136364 218.024248 
L 390.919192 218.747794 
L 391.70202 217.732746 
L 392.484848 217.149051 
L 393.267677 217.703153 
L 394.833333 217.876557 
L 395.616162 217.678087 
L 396.39899 218.142055 
L 397.181818 217.895313 
L 397.964646 217.386434 
L 398.747475 217.849669 
L 399.530303 217.970146 
L 400.313131 217.347404 
L 401.09596 217.634885 
L 401.878788 216.976562 
L 405.792929 216.349445 
L 406.575758 216.759036 
L 407.358586 216.864361 
L 408.924242 217.864969 
L 409.707071 216.601994 
L 411.272727 215.968079 
L 412.055556 216.124811 
L 412.838384 215.927166 
L 414.40404 214.889537 
L 415.186869 214.737678 
L 415.969697 214.711867 
L 417.535354 214.077745 
L 418.318182 214.235232 
L 419.10101 213.769138 
L 421.449495 211.782361 
L 422.232323 210.523944 
L 423.015152 208.82916 
L 423.79798 201.557934 
L 424.580808 202.186994 
L 425.363636 202.338145 
L 426.146465 202.804637 
L 426.929293 203.68553 
L 427.712121 205.134016 
L 428.494949 204.955145 
L 429.277778 205.237893 
L 430.060606 205.841246 
L 430.843434 206.018519 
L 432.409091 207.282559 
L 433.974747 209.32478 
L 434.757576 209.298092 
L 435.540404 210.054037 
L 436.323232 210.310145 
L 437.106061 210.271893 
L 437.888889 211.218606 
L 438.671717 210.920352 
L 439.454545 211.750199 
L 440.237374 212.293905 
L 441.020202 211.806446 
L 441.80303 211.744083 
L 442.585859 211.909897 
L 444.934343 215.399463 
L 445.717172 216.41514 
L 446.5 216.330307 
L 447.282828 216.935075 
L 448.065657 216.937087 
L 448.848485 217.705758 
L 450.414141 218.344897 
L 451.19697 217.865496 
L 451.979798 218.243004 
L 452.762626 218.800437 
L 454.328283 218.982963 
L 455.111111 219.03447 
L 455.893939 219.423526 
L 456.676768 219.462658 
L 457.459596 219.669714 
L 458.242424 220.07043 
L 459.025253 220.597529 
L 460.590909 220.775301 
L 462.156566 221.703333 
L 462.939394 221.87171 
L 463.722222 222.759371 
L 464.505051 222.650746 
L 465.287879 221.980581 
L 466.070707 222.204778 
L 466.853535 222.043229 
L 467.636364 222.363791 
L 468.419192 222.491155 
L 469.20202 221.779432 
L 469.984848 222.036358 
L 470.767677 222.146701 
L 471.550505 221.71993 
L 472.333333 221.813373 
L 473.116162 222.460768 
L 473.89899 222.576265 
L 474.681818 222.419454 
L 475.464646 222.02295 
L 476.247475 222.001777 
L 477.030303 222.865952 
L 477.813131 222.645277 
L 478.59596 222.882546 
L 479.378788 222.756761 
L 480.161616 222.80163 
L 480.944444 223.230897 
L 482.510101 222.600783 
L 483.292929 222.887344 
L 484.075758 222.693019 
L 484.858586 221.536138 
L 485.641414 222.137127 
L 486.424242 221.729848 
L 487.207071 221.769842 
L 487.989899 222.362892 
L 488.772727 222.412865 
L 490.338384 221.849788 
L 491.121212 221.702154 
L 491.90404 221.913953 
L 492.686869 221.738158 
L 493.469697 222.201793 
L 494.252525 221.979126 
L 495.818182 221.96545 
L 497.383838 221.730884 
L 498.166667 221.88703 
L 500.515152 221.496831 
L 501.29798 221.504607 
L 502.080808 221.758103 
L 502.863636 221.691983 
L 503.646465 221.933175 
L 504.429293 221.724361 
L 505.212121 221.349381 
L 505.994949 221.121949 
L 509.909091 220.925642 
L 510.691919 220.580594 
L 514.606061 219.717626 
L 515.388889 219.803229 
L 516.954545 219.551763 
L 517.737374 219.338961 
L 518.520202 219.004427 
L 519.30303 218.830932 
L 521.651515 217.864543 
L 524 216.344824 
L 524.782828 216.19743 
L 525.565657 118.696273 
L 526.348485 120.221866 
L 528.69697 130.356821 
L 529.479798 129.241977 
L 530.262626 130.5559 
L 531.045455 129.557308 
L 531.828283 129.808968 
L 533.393939 131.257182 
L 534.176768 131.977722 
L 534.959596 131.887155 
L 535.742424 133.053061 
L 536.525253 133.091271 
L 537.308081 131.85889 
L 538.090909 132.207068 
L 538.873737 133.664017 
L 539.656566 138.059478 
L 540.439394 139.572612 
L 541.222222 142.648301 
L 542.005051 143.900891 
L 542.787879 144.167302 
L 543.570707 147.266506 
L 544.353535 146.183233 
L 545.136364 144.758087 
L 545.919192 144.587346 
L 546.70202 146.419722 
L 547.484848 148.982621 
L 548.267677 150.767483 
L 549.050505 152.168369 
L 549.833333 153.299287 
L 550.616162 157.913357 
L 551.39899 155.418022 
L 552.181818 155.818053 
L 552.964646 160.234859 
L 553.747475 160.100056 
L 554.530303 161.444647 
L 555.313131 161.517231 
L 556.09596 161.812772 
L 556.878788 161.385157 
L 557.661616 162.170234 
L 558.444444 162.250511 
L 559.227273 161.430268 
L 560.010101 162.169825 
L 560.792929 166.151919 
L 561.575758 167.177593 
L 562.358586 167.674896 
L 563.141414 167.598973 
L 563.924242 166.111269 
L 564.707071 168.538634 
L 565.489899 169.871067 
L 566.272727 170.061742 
L 567.055556 171.235116 
L 567.838384 173.108669 
L 568.621212 172.794143 
L 569.40404 172.660723 
L 570.186869 173.228031 
L 570.969697 172.48202 
L 571.752525 173.699607 
L 572.535354 173.195501 
L 573.318182 173.4181 
L 574.10101 174.627841 
L 574.883838 175.361093 
L 575.666667 174.938535 
L 576.449495 174.056227 
L 577.232323 172.88301 
L 578.79798 175.480027 
L 579.580808 174.43814 
L 580.363636 174.980717 
L 581.146465 174.866151 
L 581.929293 175.228828 
L 582.712121 176.38476 
L 583.494949 176.441903 
L 584.277778 176.186034 
L 585.843434 177.899793 
L 586.626263 177.749047 
L 587.409091 178.510955 
L 588.191919 176.396047 
L 589.757576 176.555375 
L 590.540404 175.97191 
L 591.323232 177.598436 
L 592.106061 177.837202 
L 593.671717 177.515603 
L 594.454545 177.460625 
L 595.237374 178.676876 
L 597.585859 179.560609 
L 598.368687 178.666236 
L 599.151515 179.477697 
L 599.934343 179.285169 
L 600.717172 178.126653 
L 601.5 177.621108 
L 602.282828 176.746842 
L 603.065657 176.38733 
L 605.414141 176.796902 
L 606.19697 175.810356 
L 606.979798 174.523696 
L 607.762626 174.003293 
L 608.545455 173.717674 
L 609.328283 172.943967 
L 610.111111 172.864119 
L 610.893939 172.005172 
L 611.676768 172.485312 
L 612.459596 172.431992 
L 613.242424 171.753005 
L 615.590909 170.708487 
L 616.373737 169.552816 
L 617.156566 166.872147 
L 617.939394 164.721763 
L 618.722222 163.846472 
L 620.287879 162.921656 
L 621.070707 163.045153 
L 621.853535 162.541219 
L 622.636364 161.358457 
L 622.636364 161.358457 
" style="fill:none;stroke:#000000;stroke-dasharray:1.5,2.475;stroke-dashoffset:0;stroke-width:1.5;"/>
   </g>
   <g id="patch_3">
    <path d="M 90 252 
L 90 34.56 
" style="fill:none;stroke:#000000;stroke-linecap:square;stroke-linejoin:miter;stroke-width:0.8;"/>
   </g>
   <g id="patch_4">
    <path d="M 648 252 
L 648 34.56 
" style="fill:none;stroke:#000000;stroke-linecap:square;stroke-linejoin:miter;stroke-width:0.8;"/>
   </g>
   <g id="patch_5">
    <path d="M 90 252 
L 648 252 
" style="fill:none;stroke:#000000;stroke-linecap:square;stroke-linejoin:miter;stroke-width:0.8;"/>
   </g>
   <g id="patch_6">
    <path d="M 90 34.56 
L 648 34.56 
" style="fill:none;stroke:#000000;stroke-linecap:square;stroke-linejoin:miter;stroke-width:0.8;"/>
   </g>
   <g id="legend_1">
    <g id="patch_7">
     <path d="M 509.4 85.845937 
L 638.2 85.845937 
Q 641 85.845937 641 83.045937 
L 641 44.36 
Q 641 41.56 638.2 41.56 
L 509.4 41.56 
Q 506.6 41.56 506.6 44.36 
L 506.6 83.045937 
Q 506.6 85.845937 509.4 85.845937 
z
" style="fill:#ffffff;opacity:0.8;stroke:#cccccc;stroke-linejoin:miter;"/>
    </g>
    <g id="line2d_19">
     <path d="M 512.2 53.252187 
L 540.2 53.252187 
" style="fill:none;stroke:#000000;stroke-linecap:square;stroke-width:1.5;"/>
    </g>
    <g id="line2d_20"/>
    <g id="text_19">
     <!-- 光伏出力功率 -->
     <defs>
      <path d="M 52.34375 41.40625 
Q 82.421875 43.75 84.375 45.3125 
L 90.234375 40.234375 
Q 81.25 40.234375 54.6875 37.890625 
L 59.375 34.765625 
Q 57.421875 33.984375 57.8125 28.515625 
L 57.8125 5.46875 
Q 57.421875 -1.5625 66.796875 -1.953125 
L 75.78125 -1.953125 
Q 84.765625 -1.953125 85.34375 0 
Q 85.9375 1.953125 85.9375 15.234375 
L 87.5 15.234375 
Q 87.890625 9.765625 88.671875 4.875 
Q 89.453125 0 91.40625 -3.90625 
Q 86.71875 -5.46875 75.78125 -5.859375 
L 66.796875 -5.859375 
Q 53.90625 -6.25 54.296875 5.078125 
L 54.296875 30.859375 
Q 54.6875 36.71875 53.515625 37.5 
L 41.796875 36.71875 
L 45.703125 33.59375 
Q 44.53125 33.59375 42.96875 28.3125 
Q 41.40625 23.046875 38.859375 17.375 
Q 36.328125 11.71875 29.484375 4.484375 
Q 22.65625 -2.734375 9.375 -9.375 
L 8.984375 -7.421875 
Q 36.328125 5.859375 40.625 37.109375 
Q 21.484375 35.15625 18.359375 34.375 
L 12.890625 38.671875 
Q 20.3125 38.671875 48.828125 41.015625 
L 49.21875 69.53125 
Q 50 76.5625 46.875 80.859375 
L 48.046875 81.640625 
L 55.078125 75.390625 
Q 52.34375 73.828125 52.734375 68.359375 
z
M 60.15625 46.875 
Q 65.234375 55.078125 68.75 62.6875 
Q 72.265625 70.3125 71.484375 72.65625 
L 72.65625 73.046875 
L 77.34375 65.625 
Q 75.78125 66.015625 71.484375 59.765625 
Q 67.1875 53.515625 61.71875 46.484375 
z
M 37.890625 46.09375 
Q 35.15625 52.34375 25 65.625 
L 26.171875 67.1875 
Q 35.9375 57.8125 40.625 53.125 
Q 39.453125 49.609375 37.890625 46.09375 
z
" id="FangSong-5149"/>
      <path d="M 73.828125 -5.859375 
Q 73.828125 -0.390625 70.109375 10.546875 
Q 66.40625 21.484375 59.765625 42.96875 
L 56.25 42.578125 
Q 49.609375 7.03125 28.125 -9.765625 
L 27.34375 -8.59375 
Q 47.65625 11.71875 52.34375 42.1875 
Q 39.453125 40.625 39.453125 39.84375 
L 33.984375 44.53125 
Q 38.28125 44.140625 53.125 46.09375 
Q 54.296875 58.59375 55.078125 67.96875 
Q 55.859375 77.34375 53.125 80.46875 
L 54.296875 81.25 
L 60.9375 75 
Q 58.984375 75 58.390625 66.40625 
Q 57.8125 57.8125 56.640625 46.484375 
Q 79.6875 48.828125 83.59375 50 
L 87.109375 45.703125 
Q 82.03125 45.703125 62.5 43.359375 
Q 69.53125 21.484375 73.046875 12.5 
Q 76.5625 3.515625 78.703125 0.578125 
Q 80.859375 -2.34375 92.1875 -3.125 
L 92.1875 -5.078125 
L 73.828125 -5.859375 
z
M 24.609375 48.4375 
Q 17.578125 38.671875 8.203125 29.296875 
L 7.03125 30.859375 
Q 17.1875 42.96875 27.140625 60.15625 
Q 37.109375 77.34375 34.375 80.078125 
L 35.9375 80.859375 
L 40.625 72.65625 
Q 39.453125 73.046875 35.546875 67.1875 
Q 31.640625 60.546875 28.125 54.6875 
L 26.953125 -5.078125 
Q 27.34375 -10.546875 25.78125 -8.984375 
L 21.875 -0.78125 
Q 24.21875 0.390625 23.4375 7.421875 
z
M 67.1875 71.484375 
Q 74.609375 65.234375 78.90625 62.109375 
Q 77.734375 58.203125 76.171875 55.078125 
Q 72.65625 61.71875 66.015625 69.921875 
z
" id="FangSong-4f0f"/>
      <path d="M 79.296875 28.90625 
L 85.546875 23.4375 
Q 83.984375 24.21875 83.203125 18.15625 
Q 82.421875 12.109375 81.4375 5.65625 
Q 80.46875 -0.78125 79.6875 -4.09375 
Q 78.90625 -7.421875 77.734375 -7.8125 
Q 76.5625 -8.203125 76.5625 -0.78125 
L 23.4375 -4.296875 
L 20.703125 -7.03125 
L 16.796875 -1.953125 
L 19.921875 -0.78125 
L 19.53125 16.40625 
Q 19.140625 21.875 16.796875 24.21875 
L 17.578125 25.390625 
L 24.609375 20.3125 
Q 22.65625 18.75 23.046875 12.890625 
L 23.4375 -0.78125 
L 48.4375 0.78125 
L 48.828125 34.765625 
L 28.125 32.8125 
L 25.390625 30.46875 
L 21.484375 35.15625 
L 24.21875 36.71875 
L 23.828125 53.515625 
Q 24.21875 59.765625 21.09375 63.28125 
L 21.875 64.453125 
L 28.90625 59.375 
Q 27.34375 58.59375 27.34375 53.515625 
L 27.734375 36.328125 
L 48.828125 38.28125 
L 49.21875 67.1875 
Q 49.609375 76.953125 46.484375 79.6875 
L 47.65625 80.859375 
L 55.078125 74.21875 
Q 52.34375 72.65625 52.734375 66.796875 
L 52.34375 38.671875 
L 74.609375 40.625 
Q 76.171875 51.171875 77.140625 57.8125 
Q 78.125 64.453125 76.171875 66.015625 
L 77.34375 66.796875 
L 82.421875 61.71875 
Q 81.25 60.9375 80.46875 55.46875 
Q 79.6875 50 78.703125 43.359375 
Q 77.734375 36.71875 76.953125 33.984375 
Q 76.171875 31.25 75.390625 31.4375 
Q 74.609375 31.640625 74.21875 37.109375 
L 52.34375 35.15625 
L 51.953125 1.171875 
L 76.953125 2.734375 
Q 78.90625 13.671875 79.6875 19.921875 
Q 80.46875 26.171875 78.515625 28.125 
z
" id="FangSong-51fa"/>
      <path d="M 48.4375 82.421875 
L 56.25 76.171875 
Q 54.296875 76.171875 53.703125 71.671875 
Q 53.125 67.1875 50.78125 52.34375 
L 76.171875 54.6875 
L 78.90625 58.59375 
L 83.59375 53.515625 
L 80.46875 51.171875 
Q 73.4375 0.390625 65.234375 -10.15625 
Q 59.375 -1.171875 49.609375 9.765625 
L 50.78125 10.9375 
L 64.84375 -2.34375 
Q 70.3125 8.203125 76.171875 50.78125 
L 50.390625 48.4375 
Q 39.0625 8.59375 9.375 -8.984375 
L 8.203125 -7.421875 
Q 36.71875 12.109375 46.09375 48.046875 
Q 26.5625 46.09375 23.046875 44.921875 
L 17.578125 50 
Q 25.390625 49.609375 46.484375 51.953125 
Q 48.828125 64.84375 49.40625 71.28125 
Q 50 77.734375 47.265625 81.640625 
z
" id="FangSong-529b"/>
      <path d="M 59.765625 6.25 
L 71.875 -2.34375 
Q 76.953125 10.15625 81.640625 48.4375 
L 63.671875 46.09375 
Q 60.15625 25.390625 53.515625 12.5 
Q 46.875 -0.390625 31.640625 -9.765625 
L 30.46875 -8.203125 
Q 42.96875 0.78125 49.796875 12.6875 
Q 56.640625 24.609375 59.765625 45.703125 
Q 50.78125 44.53125 49.21875 42.96875 
L 43.75 47.65625 
Q 48.4375 47.265625 60.546875 49.21875 
Q 62.109375 60.9375 62.6875 70.3125 
Q 63.28125 79.6875 60.546875 81.25 
L 61.71875 82.421875 
L 69.140625 76.953125 
Q 67.1875 76.953125 66.59375 69.140625 
Q 66.015625 61.328125 64.0625 49.609375 
L 80.859375 51.953125 
L 83.59375 56.25 
L 88.28125 51.953125 
L 85.546875 49.21875 
Q 82.8125 28.90625 79.875 13.078125 
Q 76.953125 -2.734375 72.265625 -10.15625 
Q 66.015625 -0.78125 58.59375 5.078125 
z
M 46.875 56.25 
Q 42.1875 56.25 28.90625 53.90625 
L 33.984375 50.78125 
Q 32.03125 49.21875 32.421875 43.75 
L 32.03125 21.875 
L 49.609375 28.125 
L 50 26.171875 
Q 17.578125 12.890625 13.28125 10.546875 
L 8.59375 15.234375 
Q 13.671875 14.84375 28.125 20.703125 
L 28.515625 46.875 
Q 28.515625 51.171875 27.734375 53.515625 
Q 19.53125 52.34375 17.1875 50.78125 
L 11.328125 55.078125 
Q 16.015625 55.078125 27.921875 57.03125 
Q 39.84375 58.984375 42.578125 60.546875 
z
" id="FangSong-529f"/>
      <path d="M 58.59375 32.8125 
L 46.484375 30.46875 
L 53.515625 26.953125 
Q 51.5625 25.78125 51.5625 23.046875 
L 51.5625 21.484375 
Q 83.59375 23.828125 86.71875 24.609375 
L 91.015625 20.3125 
Q 83.984375 20.3125 51.5625 17.96875 
L 51.171875 -5.859375 
Q 51.171875 -10.546875 50 -10.15625 
L 45.3125 -3.515625 
Q 47.65625 -1.5625 47.65625 2.34375 
L 48.046875 17.578125 
Q 17.96875 15.234375 15.234375 14.84375 
L 9.765625 19.140625 
Q 17.578125 18.359375 48.046875 21.09375 
L 48.046875 23.4375 
Q 48.046875 27.34375 46.484375 30.078125 
Q 37.890625 28.515625 35.9375 27.34375 
L 32.03125 32.03125 
L 37.109375 33.203125 
Q 39.84375 36.328125 49.21875 46.484375 
Q 38.671875 44.140625 36.328125 42.578125 
L 32.8125 48.046875 
L 36.328125 48.046875 
Q 39.84375 52.34375 46.09375 62.890625 
Q 25 60.546875 22.65625 59.765625 
L 16.796875 64.453125 
Q 25.78125 64.0625 51.359375 66.59375 
Q 76.953125 69.140625 78.515625 70.3125 
L 83.59375 65.625 
Q 76.953125 66.015625 46.875 62.5 
L 51.171875 59.765625 
Q 49.609375 59.375 46.671875 55.859375 
Q 43.75 52.34375 39.84375 48.046875 
L 51.171875 49.21875 
Q 53.90625 51.953125 54.6875 53.515625 
Q 55.46875 55.078125 55.46875 57.421875 
L 57.03125 57.8125 
L 59.375 50.78125 
Q 57.8125 50.78125 52.53125 45.109375 
Q 47.265625 39.453125 41.015625 32.8125 
L 57.421875 35.15625 
L 53.515625 41.015625 
L 54.6875 42.1875 
Q 60.546875 37.109375 64.453125 33.203125 
Q 63.671875 30.46875 61.71875 26.953125 
z
M 80.46875 37.109375 
Q 80.46875 33.203125 79.296875 30.46875 
Q 75.390625 35.15625 61.328125 45.703125 
Q 64.84375 48.828125 69.71875 54.09375 
Q 74.609375 59.375 74.21875 62.890625 
L 75.78125 62.890625 
L 78.125 55.46875 
Q 76.5625 55.46875 73.046875 52.734375 
Q 69.53125 50 64.453125 45.703125 
Q 75.390625 39.453125 80.46875 37.109375 
z
M 32.8125 41.015625 
Q 18.75 30.078125 17.96875 28.125 
L 11.328125 31.25 
Q 15.625 32.421875 32.03125 42.578125 
z
M 26.171875 44.140625 
Q 23.4375 48.046875 15.234375 55.46875 
L 16.015625 57.03125 
Q 23.828125 53.125 27.34375 51.171875 
Q 27.34375 48.4375 26.171875 44.140625 
z
M 49.609375 67.1875 
Q 48.046875 72.265625 42.1875 80.859375 
L 43.359375 82.03125 
Q 50 76.171875 52.34375 73.4375 
Q 51.5625 70.703125 49.609375 67.1875 
z
" id="FangSong-7387"/>
     </defs>
     <g transform="translate(551.4 58.152187)scale(0.14 -0.14)">
      <use xlink:href="#FangSong-5149"/>
      <use x="100" xlink:href="#FangSong-4f0f"/>
      <use x="200" xlink:href="#FangSong-51fa"/>
      <use x="300" xlink:href="#FangSong-529b"/>
      <use x="400" xlink:href="#FangSong-529f"/>
      <use x="500" xlink:href="#FangSong-7387"/>
     </g>
    </g>
    <g id="line2d_21">
     <path d="M 512.2 73.3225 
L 540.2 73.3225 
" style="fill:none;stroke:#000000;stroke-dasharray:1.5,2.475;stroke-dashoffset:0;stroke-width:1.5;"/>
    </g>
    <g id="line2d_22"/>
    <g id="text_20">
     <!-- 环境湿度 -->
     <defs>
      <path d="M 89.453125 68.359375 
Q 85.546875 68.75 64.84375 66.40625 
L 68.359375 62.890625 
Q 66.796875 62.109375 65.8125 59.953125 
Q 64.84375 57.8125 62.109375 52.34375 
L 66.40625 48.4375 
Q 64.0625 48.828125 64.453125 41.015625 
L 64.453125 -1.171875 
Q 64.84375 -10.9375 62.5 -8.203125 
L 58.984375 -0.78125 
Q 61.328125 0.78125 60.9375 8.59375 
L 60.9375 48.046875 
Q 55.46875 39.0625 49.796875 30.65625 
Q 44.140625 22.265625 30.46875 10.15625 
L 29.296875 12.109375 
Q 42.1875 23.828125 50.1875 37.296875 
Q 58.203125 50.78125 63.671875 66.40625 
Q 48.4375 64.453125 46.484375 63.671875 
L 41.796875 67.578125 
Q 48.4375 67.96875 66.015625 70.109375 
Q 83.59375 72.265625 84.375 73.4375 
z
M 41.015625 26.5625 
Q 13.671875 12.5 11.328125 10.15625 
L 6.640625 14.84375 
Q 10.546875 15.234375 25 21.484375 
L 25.390625 43.75 
Q 17.1875 42.578125 15.625 41.796875 
L 10.9375 46.09375 
Q 15.625 46.09375 25.390625 47.65625 
L 25.78125 65.625 
Q 16.015625 64.453125 14.0625 63.28125 
L 9.375 67.578125 
Q 16.015625 67.96875 26.5625 69.53125 
Q 37.109375 71.09375 40.625 72.65625 
L 45.703125 68.359375 
Q 39.84375 67.96875 29.296875 66.40625 
L 28.90625 48.4375 
Q 38.28125 50 39.84375 50.78125 
L 44.53125 46.484375 
Q 39.84375 46.484375 28.90625 44.53125 
L 28.515625 23.046875 
L 40.234375 27.734375 
z
M 70.3125 43.359375 
Q 83.984375 31.25 90.625 25 
Q 90.234375 21.484375 89.453125 16.796875 
Q 82.421875 27.734375 69.140625 42.1875 
z
" id="FangSong-73af"/>
      <path d="M 78.515625 47.65625 
L 82.8125 43.75 
L 80.078125 40.625 
L 77.734375 26.5625 
L 80.46875 23.4375 
L 64.453125 21.875 
L 69.921875 17.578125 
Q 67.578125 18.359375 67.96875 12.109375 
L 67.96875 2.734375 
Q 68.359375 -3.515625 74.21875 -3.125 
L 79.6875 -3.125 
Q 87.5 -3.515625 88.078125 1.171875 
Q 88.671875 5.859375 88.671875 14.84375 
L 90.625 14.84375 
Q 90.625 8.203125 91.203125 2.921875 
Q 91.796875 -2.34375 93.75 -4.296875 
Q 89.0625 -6.25 83.984375 -6.640625 
L 73.828125 -6.640625 
Q 64.84375 -6.640625 64.453125 0 
L 64.453125 15.625 
Q 64.84375 18.75 63.28125 21.875 
L 55.46875 21.09375 
L 58.984375 17.1875 
Q 57.8125 17.578125 54.875 10.9375 
Q 51.953125 4.296875 44.53125 -1.359375 
Q 37.109375 -7.03125 25 -10.546875 
L 24.609375 -8.984375 
Q 35.9375 -4.6875 43.75 2.140625 
Q 51.5625 8.984375 54.296875 21.09375 
L 48.4375 19.921875 
Q 48.4375 16.40625 47.265625 16.796875 
L 43.75 21.484375 
Q 44.53125 23.4375 44.53125 25.78125 
L 44.140625 37.109375 
Q 44.140625 43.359375 42.96875 46.484375 
L 44.53125 46.875 
L 47.65625 42.1875 
L 76.5625 44.921875 
z
M 67.578125 54.6875 
Q 85.546875 56.640625 88.28125 57.421875 
L 92.96875 53.515625 
Q 86.71875 53.515625 65.625 50.96875 
Q 44.53125 48.4375 42.578125 47.65625 
L 36.71875 51.953125 
Q 41.40625 51.171875 54.6875 53.125 
Q 53.125 58.203125 50.390625 64.0625 
Q 45.3125 63.671875 43.359375 62.890625 
L 38.28125 66.796875 
Q 45.703125 66.796875 62.890625 68.9375 
Q 80.078125 71.09375 82.421875 72.65625 
L 86.71875 67.96875 
Q 80.46875 67.96875 70.3125 66.796875 
L 73.828125 62.890625 
Q 73.046875 63.671875 71.09375 60.734375 
Q 69.140625 57.8125 67.578125 54.6875 
z
M 24.21875 80.46875 
L 30.859375 74.609375 
Q 28.515625 73.4375 28.90625 66.40625 
L 28.515625 48.4375 
Q 34.765625 49.609375 35.15625 50.390625 
L 39.453125 46.484375 
Q 36.71875 46.484375 28.515625 44.921875 
L 28.125 23.828125 
L 40.625 30.078125 
L 41.40625 28.515625 
Q 16.015625 13.28125 14.0625 10.546875 
L 7.8125 14.0625 
Q 12.5 15.234375 24.609375 22.265625 
L 25 44.53125 
Q 15.625 42.578125 14.84375 41.796875 
L 9.765625 46.484375 
Q 15.234375 46.09375 25 48.046875 
L 25.390625 67.1875 
Q 25.78125 76.5625 23.4375 79.296875 
z
M 48.046875 33.203125 
Q 67.578125 35.15625 69.53125 35.9375 
L 73.828125 32.421875 
Q 67.96875 32.421875 48.046875 29.296875 
L 48.4375 23.828125 
L 74.21875 26.5625 
L 76.5625 41.40625 
L 47.65625 38.28125 
z
M 64.453125 54.296875 
Q 65.625 56.25 67.578125 60.734375 
Q 69.53125 65.234375 69.140625 66.40625 
L 51.953125 64.453125 
Q 54.6875 61.328125 57.8125 58.59375 
Q 56.640625 55.46875 55.078125 53.125 
L 64.453125 54.296875 
z
M 57.03125 81.640625 
Q 63.671875 77.34375 66.015625 75.390625 
Q 65.234375 73.046875 63.28125 69.921875 
Q 60.15625 75.390625 56.25 80.859375 
z
" id="FangSong-5883"/>
      <path d="M 80.859375 78.90625 
L 85.546875 75 
L 82.421875 71.875 
L 79.296875 47.265625 
L 83.203125 43.75 
L 46.09375 40.625 
Q 46.09375 36.328125 44.53125 38.28125 
L 41.015625 42.96875 
Q 42.578125 44.53125 42.1875 49.609375 
L 41.40625 67.578125 
Q 41.015625 73.828125 39.453125 78.90625 
L 40.625 79.6875 
L 44.921875 72.265625 
L 77.734375 75 
z
M 45.3125 58.984375 
Q 69.140625 60.9375 70.703125 61.71875 
L 75.78125 57.8125 
Q 71.875 57.8125 45.703125 55.078125 
L 46.09375 44.53125 
L 75.78125 46.875 
L 78.515625 71.484375 
L 44.921875 68.75 
L 45.3125 58.984375 
z
M 65.234375 26.171875 
Q 65.625 38.28125 63.28125 40.625 
L 64.453125 41.40625 
L 70.703125 35.9375 
Q 68.359375 35.9375 68.75 28.515625 
L 68.359375 9.375 
Q 75.390625 18.75 79.875 25.96875 
Q 84.375 33.203125 82.8125 34.765625 
L 83.984375 35.546875 
L 87.890625 28.515625 
Q 87.109375 28.90625 81.640625 22.265625 
Q 76.171875 15.234375 69.921875 8.203125 
L 68.359375 8.984375 
L 68.359375 0 
Q 88.671875 1.953125 87.890625 2.734375 
L 92.96875 -1.5625 
Q 89.84375 -1.5625 63.28125 -3.515625 
Q 36.71875 -5.46875 33.59375 -5.859375 
L 28.90625 -1.5625 
Q 38.28125 -1.953125 51.953125 -0.78125 
L 52.34375 24.21875 
Q 52.734375 34.375 50.78125 37.109375 
L 51.5625 37.890625 
L 57.421875 32.421875 
Q 55.46875 31.25 55.859375 24.21875 
L 55.46875 -0.78125 
L 64.84375 0 
z
M 8.59375 11.71875 
L 18.75 4.296875 
L 35.15625 55.46875 
L 36.71875 54.6875 
Q 25.78125 13.28125 20.3125 -5.078125 
Q 17.578125 -0.78125 7.8125 10.15625 
z
M 8.59375 52.34375 
Q 16.015625 47.65625 22.65625 43.75 
Q 22.65625 40.234375 21.09375 35.9375 
Q 15.625 43.359375 7.8125 50.390625 
z
M 49.609375 14.0625 
Q 48.046875 10.9375 46.484375 7.421875 
Q 42.1875 17.578125 35.546875 27.734375 
L 36.71875 28.90625 
Q 42.96875 21.484375 49.609375 14.0625 
z
M 31.640625 68.359375 
Q 31.25 64.453125 30.078125 61.328125 
Q 25.390625 67.96875 16.015625 76.5625 
L 17.1875 77.734375 
Q 24.609375 73.046875 31.640625 68.359375 
z
" id="FangSong-6e7f"/>
      <path d="M 62.109375 50.78125 
Q 63.28125 58.203125 62.5 61.71875 
L 63.28125 62.5 
L 68.359375 58.59375 
Q 66.796875 57.03125 66.015625 51.171875 
Q 77.734375 52.34375 80.859375 53.125 
L 85.15625 49.21875 
Q 80.859375 49.21875 65.234375 47.265625 
L 64.0625 38.28125 
L 66.40625 34.765625 
L 46.09375 32.8125 
Q 46.09375 28.90625 44.53125 29.6875 
L 41.015625 33.984375 
Q 42.1875 35.546875 42.578125 37.890625 
L 42.578125 44.921875 
Q 35.15625 44.140625 31.640625 42.96875 
L 28.125 45.703125 
Q 27.34375 28.515625 21.875 14.640625 
Q 16.40625 0.78125 8.203125 -8.59375 
L 6.640625 -7.421875 
Q 14.0625 3.515625 17.765625 12.890625 
Q 21.484375 22.265625 22.84375 30.65625 
Q 24.21875 39.0625 24.609375 52.140625 
Q 25 65.234375 23.828125 71.875 
L 25.390625 71.875 
L 28.125 63.671875 
Q 79.6875 67.96875 80.859375 69.53125 
L 85.546875 64.84375 
Q 81.640625 65.625 43.359375 61.328125 
L 47.265625 57.421875 
Q 46.484375 55.46875 46.09375 53.125 
L 46.09375 49.21875 
L 62.109375 50.78125 
z
M 74.21875 -10.546875 
Q 71.875 -8.203125 67.96875 -4.6875 
Q 64.0625 -1.171875 54.296875 6.25 
Q 39.0625 -5.859375 20.3125 -9.375 
L 19.921875 -7.8125 
Q 41.40625 -0.390625 51.171875 8.59375 
Q 47.265625 12.5 43.9375 14.84375 
Q 40.625 17.1875 38.671875 16.796875 
L 38.28125 17.96875 
L 44.140625 19.921875 
Q 44.140625 18.359375 47.265625 15.8125 
Q 50.390625 13.28125 53.90625 10.546875 
Q 61.328125 18.359375 64.0625 23.4375 
Q 41.796875 21.484375 38.671875 20.3125 
L 34.765625 24.609375 
Q 41.796875 24.609375 66.015625 27.34375 
L 67.96875 29.6875 
L 73.046875 25.78125 
L 69.921875 23.4375 
Q 64.0625 16.015625 57.03125 8.203125 
Q 65.625 1.171875 69.53125 -1.5625 
Q 73.4375 -4.296875 76.953125 -5.078125 
Q 80.46875 -5.859375 91.40625 -5.46875 
L 91.40625 -7.03125 
L 74.21875 -10.546875 
z
M 28.125 47.265625 
Q 33.203125 47.65625 42.578125 48.4375 
L 42.578125 54.296875 
Q 42.1875 58.203125 41.40625 61.328125 
L 28.515625 60.15625 
L 28.125 47.265625 
z
M 60.15625 38.28125 
L 61.328125 46.875 
L 46.09375 45.3125 
L 46.09375 36.71875 
z
M 55.078125 67.96875 
Q 51.171875 74.21875 46.09375 81.25 
L 47.265625 82.421875 
Q 52.734375 78.125 57.8125 74.21875 
Q 57.03125 71.09375 55.078125 67.96875 
z
" id="FangSong-5ea6"/>
     </defs>
     <g transform="translate(551.4 78.2225)scale(0.14 -0.14)">
      <use xlink:href="#FangSong-73af"/>
      <use x="100" xlink:href="#FangSong-5883"/>
      <use x="200" xlink:href="#FangSong-6e7f"/>
      <use x="300" xlink:href="#FangSong-5ea6"/>
     </g>
    </g>
   </g>
  </g>
 </g>
 <defs>
  <clipPath id="p1b911a0eda">
   <rect height="217.44" width="558" x="90" y="34.56"/>
  </clipPath>
 </defs>
</svg>
