<?xml version="1.0" encoding="utf-8" standalone="no"?>
<!DOCTYPE svg PUBLIC "-//W3C//DTD SVG 1.1//EN"
  "http://www.w3.org/Graphics/SVG/1.1/DTD/svg11.dtd">
<!-- Created with matplotlib (http://matplotlib.org/) -->
<svg height="288pt" version="1.1" viewBox="0 0 720 288" width="720pt" xmlns="http://www.w3.org/2000/svg" xmlns:xlink="http://www.w3.org/1999/xlink">
 <defs>
  <style type="text/css">
*{stroke-linecap:butt;stroke-linejoin:round;}
  </style>
 </defs>
 <g id="figure_1">
  <g id="patch_1">
   <path d="M 0 288 
L 720 288 
L 720 0 
L 0 0 
z
" style="fill:#ffffff;"/>
  </g>
  <g id="axes_1">
   <g id="patch_2">
    <path d="M 90 252 
L 648 252 
L 648 34.56 
L 90 34.56 
z
" style="fill:#ffffff;"/>
   </g>
   <g id="matplotlib.axis_1">
    <g id="xtick_1">
     <g id="line2d_1">
      <defs>
       <path d="M 0 0 
L 0 3.5 
" id="m26efe542e5" style="stroke:#000000;stroke-width:0.8;"/>
      </defs>
      <g>
       <use style="stroke:#000000;stroke-width:0.8;" x="115.363636" xlink:href="#m26efe542e5" y="252"/>
      </g>
     </g>
     <g id="text_1">
      <!-- 0 -->
      <defs>
       <path d="M 24.609375 64.453125 
Q 19.140625 64.453125 15.421875 56.046875 
Q 11.71875 47.65625 11.71875 33.59375 
Q 11.71875 18.75 15.421875 10.546875 
Q 19.140625 2.34375 24.609375 2.34375 
Q 30.46875 2.34375 33.78125 10.546875 
Q 37.109375 18.75 37.109375 33.59375 
Q 37.109375 47.65625 33.984375 56.046875 
Q 30.859375 64.453125 24.609375 64.453125 
z
M 24.609375 -0.78125 
Q 16.015625 -0.78125 10.15625 8.203125 
Q 4.296875 17.1875 4.296875 33.59375 
Q 4.296875 48.828125 9.953125 58.203125 
Q 15.625 67.578125 24.609375 67.578125 
Q 33.203125 67.578125 38.859375 58.59375 
Q 44.53125 49.609375 44.53125 33.59375 
Q 44.53125 17.578125 38.859375 8.390625 
Q 33.203125 -0.78125 24.609375 -0.78125 
z
" id="FangSong-30"/>
      </defs>
      <g transform="translate(112.863636 265.992188)scale(0.1 -0.1)">
       <use xlink:href="#FangSong-30"/>
      </g>
     </g>
    </g>
    <g id="xtick_2">
     <g id="line2d_2">
      <g>
       <use style="stroke:#000000;stroke-width:0.8;" x="193.646465" xlink:href="#m26efe542e5" y="252"/>
      </g>
     </g>
     <g id="text_2">
      <!-- 100 -->
      <defs>
       <path d="M 28.125 67.96875 
L 28.125 8.59375 
Q 28.125 5.46875 30.078125 3.90625 
Q 32.03125 2.34375 35.546875 2.34375 
L 39.453125 2.34375 
L 39.453125 0 
L 10.9375 0 
L 10.9375 2.34375 
L 14.453125 2.34375 
Q 18.359375 2.34375 20.109375 3.90625 
Q 21.875 5.46875 21.875 8.59375 
L 21.875 55.859375 
Q 21.875 57.421875 20.890625 58.390625 
Q 19.921875 59.375 17.96875 59.375 
L 10.9375 59.375 
L 10.9375 61.71875 
L 14.453125 61.71875 
Q 19.140625 61.71875 22.0625 63.28125 
Q 25 64.84375 26.5625 67.96875 
z
" id="FangSong-31"/>
      </defs>
      <g transform="translate(186.146465 265.992188)scale(0.1 -0.1)">
       <use xlink:href="#FangSong-31"/>
       <use x="50" xlink:href="#FangSong-30"/>
       <use x="100" xlink:href="#FangSong-30"/>
      </g>
     </g>
    </g>
    <g id="xtick_3">
     <g id="line2d_3">
      <g>
       <use style="stroke:#000000;stroke-width:0.8;" x="271.929293" xlink:href="#m26efe542e5" y="252"/>
      </g>
     </g>
     <g id="text_3">
      <!-- 200 -->
      <defs>
       <path d="M 35.9375 50.390625 
Q 35.9375 57.421875 32.8125 61.125 
Q 29.6875 64.84375 23.4375 64.84375 
Q 18.75 64.84375 15.421875 62.296875 
Q 12.109375 59.765625 12.109375 55.859375 
Q 12.109375 53.515625 13.46875 51.953125 
Q 14.84375 50.390625 14.84375 48.828125 
Q 14.84375 46.875 13.859375 45.890625 
Q 12.890625 44.921875 10.9375 44.921875 
Q 8.59375 44.921875 7.21875 46.28125 
Q 5.859375 47.65625 5.859375 50.78125 
Q 5.859375 58.984375 11.71875 63.28125 
Q 17.578125 67.578125 24.21875 67.578125 
Q 33.59375 67.578125 38.078125 62.890625 
Q 42.578125 58.203125 42.578125 51.171875 
Q 42.578125 46.484375 40.421875 41.796875 
Q 38.28125 37.109375 33.59375 32.8125 
Q 22.265625 21.875 16.203125 15.03125 
Q 10.15625 8.203125 8.984375 5.859375 
L 32.03125 5.859375 
Q 35.546875 5.859375 37.890625 8.59375 
Q 40.234375 11.328125 41.015625 16.796875 
L 43.359375 16.796875 
L 41.015625 0 
L 4.6875 0 
L 4.6875 5.078125 
Q 6.640625 8.59375 11.125 14.0625 
Q 15.625 19.53125 23.046875 26.953125 
Q 29.6875 33.59375 32.8125 39.453125 
Q 35.9375 45.3125 35.9375 50.390625 
z
" id="FangSong-32"/>
      </defs>
      <g transform="translate(264.429293 265.992188)scale(0.1 -0.1)">
       <use xlink:href="#FangSong-32"/>
       <use x="50" xlink:href="#FangSong-30"/>
       <use x="100" xlink:href="#FangSong-30"/>
      </g>
     </g>
    </g>
    <g id="xtick_4">
     <g id="line2d_4">
      <g>
       <use style="stroke:#000000;stroke-width:0.8;" x="350.212121" xlink:href="#m26efe542e5" y="252"/>
      </g>
     </g>
     <g id="text_4">
      <!-- 300 -->
      <defs>
       <path d="M 43.359375 17.96875 
Q 43.359375 10.546875 37.890625 4.875 
Q 32.421875 -0.78125 22.65625 -0.78125 
Q 15.625 -0.78125 10.546875 3.125 
Q 5.46875 7.03125 5.46875 12.109375 
Q 5.46875 14.453125 7.03125 16.203125 
Q 8.59375 17.96875 10.15625 17.96875 
Q 12.5 17.96875 13.46875 16.203125 
Q 14.453125 14.453125 14.453125 13.28125 
Q 14.453125 11.328125 13.671875 9.953125 
Q 12.890625 8.59375 12.890625 7.421875 
Q 12.890625 5.078125 15.8125 3.515625 
Q 18.75 1.953125 22.265625 1.953125 
Q 29.296875 1.953125 32.8125 6.046875 
Q 36.328125 10.15625 36.328125 18.75 
Q 36.328125 25.78125 32.609375 30.078125 
Q 28.90625 34.375 18.75 34.375 
L 18.75 37.109375 
Q 26.5625 37.109375 30.265625 40.8125 
Q 33.984375 44.53125 33.984375 51.171875 
Q 33.984375 56.640625 31.046875 60.734375 
Q 28.125 64.84375 21.875 64.84375 
Q 19.140625 64.84375 16.015625 63.46875 
Q 12.890625 62.109375 12.890625 58.984375 
Q 12.890625 55.859375 13.671875 55.078125 
Q 14.453125 54.296875 14.453125 53.125 
Q 14.453125 51.171875 13.671875 50 
Q 12.890625 48.828125 10.9375 48.828125 
Q 9.375 48.828125 8 50 
Q 6.640625 51.171875 6.640625 54.296875 
Q 6.640625 60.15625 11.71875 63.859375 
Q 16.796875 67.578125 23.4375 67.578125 
Q 31.25 67.578125 35.9375 62.6875 
Q 40.625 57.8125 40.625 52.34375 
Q 40.625 46.484375 37.6875 42.375 
Q 34.765625 38.28125 28.515625 36.328125 
Q 37.109375 33.203125 40.234375 28.125 
Q 43.359375 23.046875 43.359375 17.96875 
z
" id="FangSong-33"/>
      </defs>
      <g transform="translate(342.712121 265.992188)scale(0.1 -0.1)">
       <use xlink:href="#FangSong-33"/>
       <use x="50" xlink:href="#FangSong-30"/>
       <use x="100" xlink:href="#FangSong-30"/>
      </g>
     </g>
    </g>
    <g id="xtick_5">
     <g id="line2d_5">
      <g>
       <use style="stroke:#000000;stroke-width:0.8;" x="428.494949" xlink:href="#m26efe542e5" y="252"/>
      </g>
     </g>
     <g id="text_5">
      <!-- 400 -->
      <defs>
       <path d="M 35.546875 7.421875 
Q 35.546875 4.6875 37.109375 3.515625 
Q 38.671875 2.34375 41.40625 2.34375 
L 44.921875 2.34375 
L 44.921875 0 
L 19.140625 0 
L 19.140625 2.34375 
L 23.4375 2.34375 
Q 26.5625 2.34375 27.921875 3.515625 
Q 29.296875 4.6875 29.296875 7.421875 
L 29.296875 20.3125 
L 3.125 20.3125 
L 3.125 22.265625 
L 31.640625 67.578125 
L 35.546875 67.578125 
L 35.546875 22.65625 
L 46.09375 22.65625 
L 46.09375 20.3125 
L 35.546875 20.3125 
z
M 28.90625 57.8125 
L 6.640625 22.65625 
L 29.296875 22.65625 
L 29.296875 57.8125 
z
" id="FangSong-34"/>
      </defs>
      <g transform="translate(420.994949 265.992188)scale(0.1 -0.1)">
       <use xlink:href="#FangSong-34"/>
       <use x="50" xlink:href="#FangSong-30"/>
       <use x="100" xlink:href="#FangSong-30"/>
      </g>
     </g>
    </g>
    <g id="xtick_6">
     <g id="line2d_6">
      <g>
       <use style="stroke:#000000;stroke-width:0.8;" x="506.777778" xlink:href="#m26efe542e5" y="252"/>
      </g>
     </g>
     <g id="text_6">
      <!-- 500 -->
      <defs>
       <path d="M 26.5625 42.96875 
Q 33.984375 42.96875 38.671875 37.296875 
Q 43.359375 31.640625 43.359375 22.265625 
Q 43.359375 11.71875 38.46875 5.46875 
Q 33.59375 -0.78125 23.4375 -0.78125 
Q 16.40625 -0.78125 10.9375 3.3125 
Q 5.46875 7.421875 5.46875 13.28125 
Q 5.46875 15.625 6.828125 17.375 
Q 8.203125 19.140625 10.546875 19.140625 
Q 12.890625 19.140625 13.671875 17.578125 
Q 14.453125 16.015625 14.453125 14.84375 
Q 14.453125 12.5 13.28125 11.125 
Q 12.109375 9.765625 12.109375 8.203125 
Q 12.109375 5.078125 15.8125 3.515625 
Q 19.53125 1.953125 23.828125 1.953125 
Q 30.078125 1.953125 33.390625 7.03125 
Q 36.71875 12.109375 36.71875 21.484375 
Q 36.71875 29.296875 33.78125 34.171875 
Q 30.859375 39.0625 25 39.0625 
Q 20.703125 39.0625 17.578125 37.5 
Q 14.453125 35.9375 11.71875 30.859375 
L 8.203125 31.25 
L 10.15625 66.796875 
L 42.1875 66.796875 
L 41.015625 60.9375 
L 12.890625 60.9375 
L 11.328125 35.15625 
Q 15.234375 40.625 18.9375 41.796875 
Q 22.65625 42.96875 26.5625 42.96875 
z
" id="FangSong-35"/>
      </defs>
      <g transform="translate(499.277778 265.992188)scale(0.1 -0.1)">
       <use xlink:href="#FangSong-35"/>
       <use x="50" xlink:href="#FangSong-30"/>
       <use x="100" xlink:href="#FangSong-30"/>
      </g>
     </g>
    </g>
    <g id="xtick_7">
     <g id="line2d_7">
      <g>
       <use style="stroke:#000000;stroke-width:0.8;" x="585.060606" xlink:href="#m26efe542e5" y="252"/>
      </g>
     </g>
     <g id="text_7">
      <!-- 600 -->
      <defs>
       <path d="M 11.71875 26.5625 
Q 11.71875 14.84375 15.8125 8.390625 
Q 19.921875 1.953125 25.78125 1.953125 
Q 31.640625 1.953125 34.765625 6.25 
Q 37.890625 10.546875 37.890625 22.265625 
Q 37.890625 30.078125 34.5625 34.375 
Q 31.25 38.671875 26.5625 38.671875 
Q 22.265625 38.671875 18.546875 36.125 
Q 14.84375 33.59375 11.71875 26.5625 
z
M 26.953125 42.578125 
Q 36.328125 42.578125 40.421875 36.328125 
Q 44.53125 30.078125 44.53125 22.265625 
Q 44.53125 10.546875 38.859375 4.875 
Q 33.203125 -0.78125 25.78125 -0.78125 
Q 15.234375 -0.78125 9.765625 7.21875 
Q 4.296875 15.234375 4.296875 30.46875 
Q 4.296875 48.4375 10.9375 58 
Q 17.578125 67.578125 28.90625 67.578125 
Q 34.375 67.578125 37.6875 64.453125 
Q 41.015625 61.328125 41.015625 58.984375 
Q 41.015625 56.640625 40.03125 55.46875 
Q 39.0625 54.296875 36.71875 54.296875 
Q 34.765625 54.296875 33.78125 55.265625 
Q 32.8125 56.25 32.8125 58.203125 
Q 32.8125 58.984375 33 59.765625 
Q 33.203125 60.546875 33.203125 61.328125 
Q 33.203125 62.890625 32.03125 63.859375 
Q 30.859375 64.84375 27.734375 64.84375 
Q 21.09375 64.84375 16.40625 58.78125 
Q 11.71875 52.734375 11.71875 32.421875 
Q 14.0625 37.5 18.15625 40.03125 
Q 22.265625 42.578125 26.953125 42.578125 
z
" id="FangSong-36"/>
      </defs>
      <g transform="translate(577.560606 265.992188)scale(0.1 -0.1)">
       <use xlink:href="#FangSong-36"/>
       <use x="50" xlink:href="#FangSong-30"/>
       <use x="100" xlink:href="#FangSong-30"/>
      </g>
     </g>
    </g>
    <g id="text_8">
     <!-- 时间序列 -->
     <defs>
      <path d="M 18.75 11.328125 
Q 19.140625 -0.78125 17.1875 1.953125 
L 13.671875 8.59375 
Q 15.625 11.328125 15.234375 17.578125 
L 15.234375 52.34375 
Q 15.234375 60.15625 14.0625 68.359375 
L 15.234375 68.75 
L 17.96875 61.328125 
L 35.546875 64.0625 
L 37.5 67.578125 
L 42.1875 64.0625 
L 39.453125 60.546875 
Q 39.453125 22.265625 38.46875 13.078125 
Q 37.5 3.90625 36.328125 5.265625 
Q 35.15625 6.640625 34.375 13.28125 
L 18.75 11.328125 
z
M 18.75 15.234375 
Q 30.078125 16.40625 30.859375 17.1875 
L 34.765625 13.28125 
Q 35.546875 25.390625 35.546875 33.984375 
L 35.546875 59.765625 
L 18.75 57.421875 
L 18.75 39.453125 
Q 29.296875 40.625 31.640625 42.1875 
L 35.15625 37.5 
Q 29.6875 37.109375 18.75 35.546875 
z
M 67.578125 82.03125 
L 74.609375 76.171875 
Q 72.265625 74.609375 72.65625 67.1875 
L 72.65625 48.4375 
Q 88.28125 50.390625 88.28125 51.953125 
L 93.75 47.265625 
Q 87.890625 46.875 72.65625 44.921875 
L 72.65625 6.640625 
Q 73.046875 -5.46875 69.921875 -10.546875 
Q 66.015625 -5.078125 53.125 4.296875 
L 53.90625 5.859375 
L 68.359375 -2.34375 
Q 69.140625 2.34375 69.140625 6.640625 
L 69.140625 44.53125 
Q 48.4375 41.796875 45.3125 40.625 
L 39.84375 45.3125 
Q 46.875 45.3125 69.140625 48.046875 
L 69.140625 68.75 
Q 69.53125 76.953125 66.40625 80.859375 
z
M 55.078125 19.921875 
Q 51.953125 28.90625 47.65625 38.28125 
L 48.828125 39.0625 
Q 53.515625 32.8125 58.203125 26.171875 
Q 57.03125 23.4375 55.078125 19.921875 
z
" id="FangSong-65f6"/>
      <path d="M 64.84375 22.65625 
L 39.453125 20.3125 
Q 39.84375 12.5 38.28125 14.0625 
L 34.765625 19.921875 
Q 35.9375 21.875 35.9375 25.78125 
L 35.9375 44.921875 
Q 36.328125 50.390625 34.375 55.078125 
L 35.546875 55.859375 
L 39.0625 50.390625 
L 58.59375 53.125 
L 60.9375 56.25 
L 65.625 51.953125 
L 62.890625 49.21875 
L 62.109375 25.78125 
z
M 78.125 76.953125 
L 83.203125 73.046875 
L 80.859375 69.921875 
L 80.859375 7.03125 
Q 80.859375 -5.078125 77.734375 -10.15625 
Q 73.4375 -3.515625 62.109375 7.8125 
L 63.28125 8.984375 
L 76.171875 -1.171875 
Q 76.953125 -1.171875 77.34375 6.640625 
L 77.34375 69.921875 
Q 48.046875 66.796875 45.703125 66.40625 
L 39.84375 69.921875 
Q 45.703125 69.53125 76.171875 73.4375 
z
M 58.984375 49.21875 
L 39.453125 46.875 
L 39.453125 37.109375 
Q 50.390625 38.671875 51.5625 39.84375 
L 55.46875 35.9375 
Q 51.5625 35.9375 39.453125 33.984375 
L 39.453125 23.828125 
L 58.203125 25.78125 
z
M 21.875 -3.515625 
Q 22.265625 -10.546875 20.703125 -8.59375 
L 16.796875 -2.734375 
Q 18.359375 -0.390625 18.359375 5.46875 
L 18.359375 54.296875 
Q 18.359375 60.9375 16.015625 66.015625 
L 17.1875 66.796875 
L 23.046875 60.546875 
Q 21.875 58.203125 21.875 52.734375 
z
M 22.265625 80.859375 
Q 30.46875 73.828125 34.375 70.703125 
Q 33.203125 66.796875 32.03125 63.671875 
Q 29.296875 69.140625 21.09375 79.6875 
z
" id="FangSong-95f4"/>
      <path d="M 85.546875 39.453125 
L 90.234375 35.546875 
Q 86.71875 33.59375 77.34375 21.484375 
L 75.390625 22.265625 
L 81.640625 32.421875 
L 57.8125 30.078125 
L 62.890625 26.953125 
Q 60.9375 25 61.71875 21.875 
L 61.71875 0.78125 
Q 61.71875 -6.25 58.59375 -10.9375 
Q 55.46875 -6.25 43.75 2.34375 
L 44.53125 3.515625 
L 57.421875 -3.125 
Q 58.203125 0.390625 58.203125 5.078125 
L 58.203125 21.484375 
Q 57.8125 27.34375 57.03125 30.078125 
Q 36.71875 27.34375 35.15625 26.5625 
L 29.6875 30.859375 
Q 35.9375 30.859375 61.328125 33.984375 
Q 58.203125 37.109375 48.4375 44.140625 
L 49.21875 45.703125 
L 58.984375 41.015625 
L 67.96875 51.953125 
Q 44.921875 49.21875 42.1875 48.828125 
L 37.5 52.734375 
Q 42.96875 52.34375 70.703125 55.859375 
L 72.65625 59.375 
L 78.125 54.6875 
Q 75 53.125 70.3125 49.015625 
Q 65.625 44.921875 60.9375 39.84375 
L 64.0625 38.671875 
Q 63.671875 36.328125 62.5 33.984375 
L 82.8125 36.328125 
z
M 58.203125 67.1875 
Q 57.03125 69.53125 46.875 80.078125 
L 47.65625 81.640625 
Q 55.859375 76.5625 60.15625 73.828125 
Q 59.375 70.703125 58.59375 67.1875 
Q 82.8125 69.53125 84.765625 70.703125 
L 89.84375 66.015625 
Q 85.546875 66.015625 28.515625 60.9375 
Q 28.125 43.75 27.140625 34.171875 
Q 26.171875 24.609375 21.875 14.0625 
Q 17.578125 3.515625 7.8125 -7.03125 
L 6.640625 -5.859375 
Q 15.234375 5.46875 18.546875 15.234375 
Q 21.875 25 23.046875 32.21875 
Q 24.21875 39.453125 24.609375 53.125 
Q 25 66.796875 23.4375 72.65625 
L 25 73.046875 
L 28.515625 64.84375 
z
" id="FangSong-5e8f"/>
      <path d="M 84.375 5.859375 
Q 84.765625 -3.90625 81.25 -10.15625 
Q 75.78125 -3.125 64.453125 5.859375 
L 65.234375 6.640625 
L 79.6875 -1.5625 
Q 80.859375 3.90625 80.859375 8.59375 
L 80.859375 66.796875 
Q 81.25 77.34375 77.34375 80.859375 
L 78.515625 81.640625 
L 85.546875 76.171875 
Q 83.984375 75 84.375 67.578125 
z
M 48.046875 50.78125 
L 50.390625 54.6875 
L 55.46875 49.609375 
L 52.34375 47.65625 
Q 46.484375 28.125 36.328125 14.25 
Q 26.171875 0.390625 9.765625 -9.375 
L 9.375 -7.421875 
Q 23.828125 1.953125 33.390625 16.015625 
Q 42.96875 30.078125 48.046875 46.875 
Q 34.375 44.921875 33.203125 43.75 
L 28.90625 46.484375 
Q 26.171875 42.1875 23.4375 37.5 
Q 31.25 33.203125 34.375 30.859375 
Q 33.984375 27.34375 32.421875 23.4375 
Q 28.90625 30.078125 22.265625 35.9375 
Q 18.359375 29.296875 10.9375 21.484375 
L 9.765625 22.265625 
Q 19.140625 35.15625 25 47.65625 
Q 30.859375 60.15625 31.640625 66.015625 
Q 20.3125 64.453125 17.578125 63.671875 
L 12.890625 67.96875 
Q 19.140625 67.96875 35.34375 69.921875 
Q 51.5625 71.875 54.6875 73.046875 
L 58.59375 68.359375 
Q 50.78125 68.359375 33.984375 66.015625 
L 36.71875 61.71875 
Q 35.15625 62.5 29.296875 48.4375 
z
M 67.1875 28.515625 
Q 67.578125 18.359375 65.625 20.3125 
L 61.71875 26.953125 
Q 63.671875 28.515625 63.671875 33.203125 
L 63.671875 52.734375 
Q 63.671875 58.984375 61.328125 62.5 
L 62.5 63.28125 
L 68.75 57.421875 
Q 66.796875 56.640625 67.1875 50.390625 
z
" id="FangSong-5217"/>
     </defs>
     <g transform="translate(341 282.429688)scale(0.14 -0.14)">
      <use xlink:href="#FangSong-65f6"/>
      <use x="100" xlink:href="#FangSong-95f4"/>
      <use x="200" xlink:href="#FangSong-5e8f"/>
      <use x="300" xlink:href="#FangSong-5217"/>
     </g>
    </g>
   </g>
   <g id="matplotlib.axis_2">
    <g id="ytick_1">
     <g id="line2d_8">
      <defs>
       <path d="M 0 0 
L -3.5 0 
" id="mfa43be95a1" style="stroke:#000000;stroke-width:0.8;"/>
      </defs>
      <g>
       <use style="stroke:#000000;stroke-width:0.8;" x="90" xlink:href="#mfa43be95a1" y="242.359957"/>
      </g>
     </g>
     <g id="text_9">
      <!-- 0.0 -->
      <defs>
       <path d="M 17.578125 4.296875 
Q 17.578125 1.953125 16.015625 0.390625 
Q 14.453125 -1.171875 12.109375 -1.171875 
Q 9.765625 -1.171875 8.203125 0.390625 
Q 6.640625 1.953125 6.640625 4.296875 
Q 6.640625 6.640625 8.203125 8.203125 
Q 9.765625 9.765625 12.109375 9.765625 
Q 14.453125 9.765625 16.015625 8.203125 
Q 17.578125 6.640625 17.578125 4.296875 
z
" id="FangSong-2e"/>
      </defs>
      <g transform="translate(68 245.856051)scale(0.1 -0.1)">
       <use xlink:href="#FangSong-30"/>
       <use x="50" xlink:href="#FangSong-2e"/>
       <use x="100" xlink:href="#FangSong-30"/>
      </g>
     </g>
    </g>
    <g id="ytick_2">
     <g id="line2d_9">
      <g>
       <use style="stroke:#000000;stroke-width:0.8;" x="90" xlink:href="#mfa43be95a1" y="217.252576"/>
      </g>
     </g>
     <g id="text_10">
      <!-- 0.1 -->
      <g transform="translate(68 220.74867)scale(0.1 -0.1)">
       <use xlink:href="#FangSong-30"/>
       <use x="50" xlink:href="#FangSong-2e"/>
       <use x="100" xlink:href="#FangSong-31"/>
      </g>
     </g>
    </g>
    <g id="ytick_3">
     <g id="line2d_10">
      <g>
       <use style="stroke:#000000;stroke-width:0.8;" x="90" xlink:href="#mfa43be95a1" y="192.145195"/>
      </g>
     </g>
     <g id="text_11">
      <!-- 0.2 -->
      <g transform="translate(68 195.641288)scale(0.1 -0.1)">
       <use xlink:href="#FangSong-30"/>
       <use x="50" xlink:href="#FangSong-2e"/>
       <use x="100" xlink:href="#FangSong-32"/>
      </g>
     </g>
    </g>
    <g id="ytick_4">
     <g id="line2d_11">
      <g>
       <use style="stroke:#000000;stroke-width:0.8;" x="90" xlink:href="#mfa43be95a1" y="167.037813"/>
      </g>
     </g>
     <g id="text_12">
      <!-- 0.3 -->
      <g transform="translate(68 170.533907)scale(0.1 -0.1)">
       <use xlink:href="#FangSong-30"/>
       <use x="50" xlink:href="#FangSong-2e"/>
       <use x="100" xlink:href="#FangSong-33"/>
      </g>
     </g>
    </g>
    <g id="ytick_5">
     <g id="line2d_12">
      <g>
       <use style="stroke:#000000;stroke-width:0.8;" x="90" xlink:href="#mfa43be95a1" y="141.930432"/>
      </g>
     </g>
     <g id="text_13">
      <!-- 0.4 -->
      <g transform="translate(68 145.426526)scale(0.1 -0.1)">
       <use xlink:href="#FangSong-30"/>
       <use x="50" xlink:href="#FangSong-2e"/>
       <use x="100" xlink:href="#FangSong-34"/>
      </g>
     </g>
    </g>
    <g id="ytick_6">
     <g id="line2d_13">
      <g>
       <use style="stroke:#000000;stroke-width:0.8;" x="90" xlink:href="#mfa43be95a1" y="116.823051"/>
      </g>
     </g>
     <g id="text_14">
      <!-- 0.5 -->
      <g transform="translate(68 120.319145)scale(0.1 -0.1)">
       <use xlink:href="#FangSong-30"/>
       <use x="50" xlink:href="#FangSong-2e"/>
       <use x="100" xlink:href="#FangSong-35"/>
      </g>
     </g>
    </g>
    <g id="ytick_7">
     <g id="line2d_14">
      <g>
       <use style="stroke:#000000;stroke-width:0.8;" x="90" xlink:href="#mfa43be95a1" y="91.715669"/>
      </g>
     </g>
     <g id="text_15">
      <!-- 0.6 -->
      <g transform="translate(68 95.211763)scale(0.1 -0.1)">
       <use xlink:href="#FangSong-30"/>
       <use x="50" xlink:href="#FangSong-2e"/>
       <use x="100" xlink:href="#FangSong-36"/>
      </g>
     </g>
    </g>
    <g id="ytick_8">
     <g id="line2d_15">
      <g>
       <use style="stroke:#000000;stroke-width:0.8;" x="90" xlink:href="#mfa43be95a1" y="66.608288"/>
      </g>
     </g>
     <g id="text_16">
      <!-- 0.7 -->
      <defs>
       <path d="M 43.75 64.0625 
Q 35.546875 50.78125 30.65625 38.078125 
Q 25.78125 25.390625 25.78125 16.015625 
Q 25.78125 14.453125 25.96875 11.515625 
Q 26.171875 8.59375 26.171875 4.6875 
Q 26.171875 1.5625 25.1875 0.390625 
Q 24.21875 -0.78125 21.875 -0.78125 
Q 19.921875 -0.78125 18.546875 0.578125 
Q 17.1875 1.953125 17.1875 5.46875 
Q 17.1875 12.890625 20.5 23.828125 
Q 23.828125 34.765625 38.28125 60.9375 
L 18.75 60.9375 
Q 14.453125 60.9375 11.90625 58.203125 
Q 9.375 55.46875 8.203125 50 
L 5.859375 50.390625 
L 8.59375 66.796875 
L 43.75 66.796875 
z
" id="FangSong-37"/>
      </defs>
      <g transform="translate(68 70.104382)scale(0.1 -0.1)">
       <use xlink:href="#FangSong-30"/>
       <use x="50" xlink:href="#FangSong-2e"/>
       <use x="100" xlink:href="#FangSong-37"/>
      </g>
     </g>
    </g>
    <g id="ytick_9">
     <g id="line2d_16">
      <g>
       <use style="stroke:#000000;stroke-width:0.8;" x="90" xlink:href="#mfa43be95a1" y="41.500907"/>
      </g>
     </g>
     <g id="text_17">
      <!-- 0.8 -->
      <defs>
       <path d="M 9.375 16.015625 
Q 9.375 9.765625 13.46875 5.859375 
Q 17.578125 1.953125 23.828125 1.953125 
Q 31.25 1.953125 34.5625 5.859375 
Q 37.890625 9.765625 37.890625 15.625 
Q 37.890625 20.703125 33.203125 25.390625 
Q 28.515625 30.078125 19.140625 33.984375 
Q 14.453125 30.859375 11.90625 26.171875 
Q 9.375 21.484375 9.375 16.015625 
z
M 43.75 16.796875 
Q 43.75 9.375 38.28125 4.296875 
Q 32.8125 -0.78125 23.828125 -0.78125 
Q 15.625 -0.78125 9.765625 4.296875 
Q 3.90625 9.375 3.90625 16.015625 
Q 3.90625 22.65625 7.21875 27.34375 
Q 10.546875 32.03125 16.796875 35.546875 
Q 11.328125 38.28125 8.390625 42.375 
Q 5.46875 46.484375 5.46875 51.5625 
Q 5.46875 58.203125 10.546875 62.890625 
Q 15.625 67.578125 24.609375 67.578125 
Q 32.8125 67.578125 37.890625 62.890625 
Q 42.96875 58.203125 42.96875 51.5625 
Q 42.96875 46.875 40.03125 42.765625 
Q 37.109375 38.671875 30.859375 35.546875 
Q 37.5 31.640625 40.625 26.953125 
Q 43.75 22.265625 43.75 16.796875 
z
M 37.5 51.171875 
Q 37.5 56.640625 34.375 60.734375 
Q 31.25 64.84375 24.609375 64.84375 
Q 17.1875 64.84375 14.0625 60.9375 
Q 10.9375 57.03125 10.9375 52.734375 
Q 10.9375 48.4375 15.421875 44.328125 
Q 19.921875 40.234375 28.125 37.109375 
Q 32.8125 39.453125 35.15625 42.96875 
Q 37.5 46.484375 37.5 51.171875 
z
" id="FangSong-38"/>
      </defs>
      <g transform="translate(68 44.997001)scale(0.1 -0.1)">
       <use xlink:href="#FangSong-30"/>
       <use x="50" xlink:href="#FangSong-2e"/>
       <use x="100" xlink:href="#FangSong-38"/>
      </g>
     </g>
    </g>
    <g id="text_18">
     <!-- 归一化数值 -->
     <defs>
      <path d="M 46.09375 62.890625 
Q 54.6875 62.890625 82.03125 66.40625 
L 84.375 69.53125 
L 89.0625 66.015625 
L 86.71875 62.890625 
L 80.46875 12.890625 
L 84.765625 8.984375 
Q 53.515625 6.640625 47.65625 5.46875 
L 41.796875 9.375 
Q 51.953125 9.375 76.171875 12.5 
L 82.421875 62.5 
Q 57.03125 59.765625 51.5625 58.59375 
z
M 42.578125 75.78125 
Q 41.015625 75 41.015625 71.875 
Q 41.015625 68.75 40.8125 53.90625 
Q 40.625 39.0625 38.859375 29.09375 
Q 37.109375 19.140625 31.640625 9.5625 
Q 26.171875 0 12.890625 -10.546875 
L 12.109375 -8.984375 
Q 25 2.34375 30.265625 13.859375 
Q 35.546875 25.390625 36.328125 40.421875 
Q 37.109375 55.46875 37.109375 66.015625 
Q 37.109375 76.953125 34.765625 79.6875 
L 35.9375 80.859375 
L 42.578125 75.78125 
z
M 22.265625 61.328125 
Q 19.921875 60.15625 20.703125 53.90625 
L 20.703125 21.875 
Q 21.09375 13.671875 18.75 16.015625 
L 15.234375 22.265625 
Q 17.1875 24.21875 17.1875 29.296875 
L 17.1875 56.25 
Q 17.1875 63.28125 15.234375 66.796875 
L 16.40625 67.578125 
L 22.265625 61.328125 
z
M 76.953125 37.109375 
Q 70.3125 37.109375 62.6875 36.125 
Q 55.078125 35.15625 51.5625 34.375 
L 46.09375 38.28125 
Q 52.34375 38.28125 61.328125 39.453125 
Q 70.3125 40.625 72.65625 41.796875 
z
" id="FangSong-5f52"/>
      <path d="M 91.796875 40.234375 
Q 82.421875 39.84375 52.53125 37.5 
Q 22.65625 35.15625 15.625 34.375 
L 8.203125 38.28125 
Q 23.046875 38.671875 51.171875 41.015625 
Q 79.296875 43.359375 84.375 44.921875 
z
" id="FangSong-4e00"/>
      <path d="M 57.8125 7.8125 
Q 57.8125 0.390625 68.359375 0 
L 79.296875 0 
Q 85.15625 0 86.125 2.53125 
Q 87.109375 5.078125 87.109375 21.09375 
L 89.0625 21.09375 
Q 89.0625 15.625 89.640625 8.78125 
Q 90.234375 1.953125 92.578125 -2.34375 
Q 87.890625 -3.90625 79.296875 -3.90625 
L 68.359375 -3.90625 
Q 54.296875 -3.90625 54.296875 6.25 
L 54.296875 30.46875 
Q 46.484375 24.21875 35.546875 18.75 
L 34.765625 20.703125 
Q 45.3125 26.5625 54.296875 34.375 
L 54.296875 66.796875 
Q 54.296875 76.171875 51.953125 80.078125 
L 52.734375 80.859375 
L 60.15625 73.828125 
Q 57.421875 72.65625 57.8125 66.015625 
L 57.8125 36.71875 
Q 66.015625 42.96875 73.046875 50.390625 
Q 80.078125 57.8125 79.296875 61.71875 
L 80.46875 61.71875 
L 83.203125 53.125 
Q 82.421875 53.90625 74.609375 46.671875 
Q 66.796875 39.453125 57.8125 32.8125 
z
M 32.03125 -4.6875 
Q 32.03125 -10.9375 30.46875 -8.59375 
L 26.5625 -1.171875 
Q 28.90625 -0.390625 28.515625 4.6875 
L 28.90625 52.34375 
Q 21.875 42.96875 7.8125 31.25 
L 7.03125 32.8125 
Q 21.875 47.65625 31.640625 62.5 
Q 41.40625 77.34375 39.453125 80.46875 
L 40.625 80.859375 
L 44.921875 72.65625 
Q 43.359375 73.4375 40.03125 68.75 
Q 36.71875 64.0625 32.421875 57.421875 
z
" id="FangSong-5316"/>
      <path d="M 77.34375 42.96875 
Q 76.171875 41.796875 74.015625 35.34375 
Q 71.875 28.90625 68.359375 20.3125 
Q 76.171875 4.6875 79.484375 0.578125 
Q 82.8125 -3.515625 93.75 -3.515625 
L 93.75 -5.46875 
L 76.953125 -6.640625 
Q 77.34375 -5.078125 74.796875 0.578125 
Q 72.265625 6.25 66.40625 17.1875 
Q 56.25 0.78125 40.234375 -10.546875 
L 39.0625 -8.984375 
Q 53.125 1.5625 64.0625 20.3125 
Q 57.8125 33.59375 55.46875 36.71875 
Q 53.125 32.03125 50.78125 28.515625 
L 49.21875 29.296875 
Q 53.125 37.890625 55.859375 45.890625 
Q 58.59375 53.90625 61.71875 66.015625 
Q 64.84375 78.125 62.890625 79.6875 
L 64.0625 80.46875 
L 69.140625 75 
Q 67.96875 74.21875 66.984375 70.3125 
Q 66.015625 66.40625 60.9375 50 
Q 83.203125 52.734375 85.546875 54.296875 
L 90.234375 50 
Q 84.765625 49.609375 73.4375 48.046875 
z
M 46.484375 7.03125 
Q 46.875 3.515625 46.875 0.390625 
Q 42.1875 3.125 35.546875 6.25 
Q 25.78125 -3.90625 8.59375 -9.765625 
L 7.8125 -8.203125 
Q 23.046875 -1.171875 31.640625 7.421875 
Q 26.171875 8.984375 19.921875 10.9375 
L 25 21.484375 
Q 15.625 20.3125 12.890625 19.53125 
L 8.203125 23.828125 
Q 12.890625 23.828125 26.5625 25.390625 
Q 28.125 29.296875 28.515625 31.828125 
Q 28.90625 34.375 28.515625 36.71875 
L 29.296875 37.109375 
L 33.59375 31.25 
Q 32.421875 30.859375 30.46875 25.78125 
L 42.578125 26.953125 
Q 43.359375 28.90625 42.96875 32.421875 
L 44.140625 32.8125 
L 48.828125 26.5625 
Q 47.65625 26.5625 45.3125 21.671875 
Q 42.96875 16.796875 38.28125 8.984375 
Q 41.40625 8.203125 46.484375 7.03125 
z
M 36.71875 56.25 
L 41.40625 56.640625 
Q 45.3125 64.84375 46.671875 69.328125 
Q 48.046875 73.828125 47.65625 77.34375 
L 48.828125 78.125 
L 53.125 71.484375 
Q 51.953125 71.09375 50.1875 67.765625 
Q 48.4375 64.453125 43.75 56.640625 
Q 51.171875 58.203125 51.5625 58.59375 
L 55.078125 54.296875 
Q 50.78125 54.296875 36.71875 52.734375 
L 36.71875 50.390625 
Q 43.75 47.265625 50.390625 44.53125 
Q 50.390625 41.40625 50 37.5 
Q 44.53125 42.96875 36.71875 48.046875 
L 36.71875 37.109375 
Q 36.71875 32.03125 35.15625 34.375 
L 31.640625 39.0625 
Q 33.59375 41.015625 33.203125 44.53125 
L 33.203125 50 
Q 21.09375 35.9375 7.421875 27.734375 
L 6.25 29.296875 
Q 18.75 37.890625 29.6875 51.953125 
Q 16.40625 50.390625 15.625 49.609375 
L 10.546875 54.296875 
Q 16.40625 53.90625 33.203125 55.859375 
L 33.203125 69.921875 
Q 33.203125 77.734375 31.25 80.859375 
L 32.421875 81.640625 
L 38.28125 76.953125 
Q 36.71875 75.78125 36.71875 68.75 
z
M 59.375 38.28125 
Q 59.765625 35.9375 61.71875 31.640625 
L 65.625 24.21875 
Q 67.578125 28.125 70.109375 37.109375 
Q 72.65625 46.09375 71.875 47.65625 
L 59.375 46.09375 
Q 57.8125 42.1875 56.25 38.671875 
z
M 33.984375 10.15625 
Q 39.0625 16.796875 41.796875 23.828125 
L 29.296875 21.875 
L 24.609375 12.5 
z
M 25.390625 57.03125 
Q 23.046875 62.5 17.1875 70.703125 
L 18.359375 71.875 
Q 23.046875 67.96875 28.515625 62.890625 
Q 26.953125 59.765625 25.390625 57.03125 
z
" id="FangSong-6570"/>
      <path d="M 74.21875 55.078125 
L 78.90625 50.390625 
L 76.171875 47.65625 
L 75.390625 3.125 
Q 87.109375 3.90625 89.0625 5.078125 
L 92.96875 0.390625 
Q 87.109375 0.78125 62.6875 -1.359375 
Q 38.28125 -3.515625 34.375 -4.296875 
L 30.078125 0 
Q 35.9375 0 44.921875 0.78125 
L 44.140625 43.359375 
Q 44.140625 48.4375 42.1875 52.734375 
L 43.359375 53.515625 
L 47.65625 47.65625 
L 56.640625 48.828125 
L 57.03125 59.765625 
Q 41.40625 57.8125 38.28125 57.03125 
L 33.984375 60.9375 
Q 40.234375 60.9375 57.421875 63.671875 
L 57.8125 70.3125 
Q 58.203125 76.953125 55.859375 80.46875 
L 57.03125 81.640625 
L 63.671875 75.390625 
Q 61.328125 75.390625 61.328125 69.53125 
L 60.9375 64.0625 
Q 79.6875 66.796875 82.8125 67.96875 
L 87.5 63.671875 
Q 82.8125 63.671875 60.546875 60.15625 
L 60.15625 49.21875 
L 72.265625 50.78125 
z
M 47.65625 36.71875 
Q 62.109375 38.671875 66.796875 40.234375 
L 69.53125 35.9375 
Q 64.0625 35.546875 48.046875 33.203125 
L 48.046875 25.390625 
Q 64.453125 27.34375 66.015625 28.125 
L 69.921875 24.609375 
Q 64.453125 24.21875 48.046875 21.875 
L 48.4375 14.453125 
Q 65.234375 15.625 67.1875 16.796875 
L 69.921875 12.890625 
Q 64.84375 12.890625 48.4375 10.9375 
L 48.4375 0.78125 
L 71.875 2.734375 
L 72.65625 47.265625 
L 47.65625 44.140625 
z
M 27.34375 -3.515625 
Q 27.34375 -10.546875 25.78125 -7.03125 
L 22.265625 -0.78125 
Q 24.21875 1.953125 23.828125 4.6875 
L 24.609375 53.90625 
Q 16.796875 42.96875 7.421875 34.765625 
L 6.25 35.9375 
Q 17.1875 47.265625 25.578125 60.9375 
Q 33.984375 74.609375 33.203125 79.296875 
L 34.375 79.296875 
L 38.671875 73.046875 
Q 37.109375 72.265625 34.765625 69.140625 
Q 32.03125 65.234375 28.125 58.984375 
L 27.34375 -3.515625 
z
" id="FangSong-503c"/>
     </defs>
     <g transform="translate(61.976562 178.28)rotate(-90)scale(0.14 -0.14)">
      <use xlink:href="#FangSong-5f52"/>
      <use x="100" xlink:href="#FangSong-4e00"/>
      <use x="200" xlink:href="#FangSong-5316"/>
      <use x="300" xlink:href="#FangSong-6570"/>
      <use x="400" xlink:href="#FangSong-503c"/>
     </g>
    </g>
   </g>
   <g id="line2d_17">
    <path clip-path="url(#pe3416f0059)" d="M 115.363636 242.018874 
L 116.146465 195.825535 
L 116.929293 187.947686 
L 117.712121 188.003062 
L 118.494949 180.860632 
L 119.277778 178.784618 
L 120.060606 168.785245 
L 120.843434 163.1993 
L 121.626263 156.128337 
L 123.191919 148.145063 
L 124.757576 140.618257 
L 126.323232 129.839649 
L 127.106061 126.391509 
L 127.888889 121.000429 
L 128.671717 117.469746 
L 129.454545 117.336784 
L 130.237374 110.422309 
L 132.585859 100.048227 
L 133.368687 97.309723 
L 134.151515 95.049533 
L 134.934343 92.280643 
L 135.717172 104.575735 
L 136.5 113.619667 
L 137.282828 110.296731 
L 138.065657 89.54332 
L 138.848485 82.518976 
L 139.631313 79.860521 
L 140.414141 78.526919 
L 141.19697 76.958776 
L 141.979798 75.777654 
L 143.545455 72.592721 
L 146.676768 66.067513 
L 148.242424 64.294234 
L 149.025253 63.027043 
L 149.808081 62.275852 
L 152.156566 58.829517 
L 152.939394 58.277941 
L 153.722222 58.303571 
L 154.505051 57.95901 
L 155.287879 59.728614 
L 156.070707 55.184083 
L 156.853535 56.285289 
L 157.636364 65.092858 
L 158.419192 60.107286 
L 159.20202 52.600404 
L 159.984848 52.89003 
L 162.333333 54.422231 
L 163.116162 54.669313 
L 163.89899 56.469203 
L 164.681818 55.851798 
L 165.464646 54.963097 
L 166.247475 57.257881 
L 167.030303 62.391609 
L 167.813131 63.003592 
L 168.59596 55.989376 
L 169.378788 57.301091 
L 172.510101 61.189016 
L 173.292929 61.757323 
L 174.075758 62.635314 
L 174.858586 63.782474 
L 175.641414 65.24923 
L 176.424242 67.750564 
L 177.207071 69.795806 
L 177.989899 71.014948 
L 178.772727 71.065525 
L 179.555556 72.933955 
L 180.338384 75.602522 
L 181.121212 76.675038 
L 181.90404 78.0754 
L 183.469697 82.975368 
L 184.252525 84.496842 
L 185.818182 88.26595 
L 186.60101 91.36074 
L 189.732323 100.805871 
L 190.515152 103.659466 
L 191.29798 105.776582 
L 196.777778 126.879169 
L 199.126263 137.821351 
L 201.474747 151.798813 
L 203.040404 160.005119 
L 204.606061 169.649864 
L 206.954545 184.773214 
L 211.651515 220.999691 
L 213.217172 230.435536 
L 215.565657 241.066443 
L 216.348485 241.922782 
L 217.131313 242.105047 
L 217.914141 241.97794 
L 218.69697 195.923517 
L 219.479798 187.127952 
L 220.262626 181.363968 
L 221.045455 176.97457 
L 221.828283 175.414867 
L 222.611111 165.878927 
L 224.959596 150.970202 
L 225.742424 144.627095 
L 226.525253 139.372645 
L 227.308081 152.765884 
L 228.090909 144.838327 
L 228.873737 131.549727 
L 229.656566 135.23215 
L 230.439394 126.473329 
L 231.222222 127.025063 
L 232.005051 114.44817 
L 232.787879 126.812343 
L 233.570707 117.215197 
L 234.353535 129.062255 
L 235.136364 117.594393 
L 235.919192 103.88239 
L 236.70202 120.465045 
L 237.484848 123.37567 
L 238.267677 95.153032 
L 239.050505 88.39463 
L 239.833333 92.131206 
L 240.616162 97.218315 
L 241.39899 84.86467 
L 242.181818 86.399101 
L 242.964646 83.758175 
L 243.747475 76.990559 
L 244.530303 99.140249 
L 245.313131 126.864591 
L 246.878788 72.608804 
L 247.661616 86.846661 
L 248.444444 87.42741 
L 249.227273 74.927305 
L 250.010101 65.566447 
L 250.792929 75.393161 
L 251.575758 108.702493 
L 252.358586 122.775563 
L 253.141414 72.738415 
L 253.924242 56.129732 
L 254.707071 48.399602 
L 255.489899 62.041261 
L 256.272727 99.748173 
L 257.055556 99.299099 
L 257.838384 77.72758 
L 258.621212 128.253552 
L 259.40404 73.965657 
L 260.186869 51.205149 
L 260.969697 45.994515 
L 261.752525 67.374437 
L 262.535354 61.272557 
L 263.318182 62.531566 
L 264.10101 76.542034 
L 264.883838 87.927876 
L 265.666667 88.213776 
L 266.449495 102.151273 
L 267.232323 118.81252 
L 268.015152 83.102352 
L 268.79798 61.995124 
L 269.580808 81.061484 
L 270.363636 83.167415 
L 271.146465 60.101914 
L 271.929293 95.849487 
L 272.712121 44.443636 
L 273.494949 54.162477 
L 274.277778 54.905251 
L 275.060606 58.059017 
L 275.843434 60.745729 
L 276.626263 66.123944 
L 277.409091 64.438498 
L 278.191919 70.213081 
L 278.974747 69.208156 
L 279.757576 69.660839 
L 280.540404 73.151631 
L 281.323232 91.300982 
L 282.106061 74.034512 
L 282.888889 75.041732 
L 283.671717 76.957046 
L 284.454545 79.633048 
L 285.237374 81.566108 
L 287.585859 89.018388 
L 289.934343 97.041736 
L 291.5 99.646753 
L 295.414141 113.502762 
L 296.979798 120.495156 
L 297.762626 146.64289 
L 298.545455 134.422158 
L 299.328283 136.729134 
L 300.111111 153.687392 
L 300.893939 154.120042 
L 302.459596 184.652667 
L 303.242424 141.895468 
L 304.025253 145.955749 
L 305.590909 156.249166 
L 307.939394 175.33479 
L 309.505051 186.400416 
L 311.853535 203.878126 
L 312.636364 211.36233 
L 313.419192 226.5261 
L 314.20202 226.022191 
L 314.984848 234.453046 
L 315.767677 239.935215 
L 316.550505 238.554317 
L 317.333333 239.605717 
L 318.116162 241.392978 
L 318.89899 241.869017 
L 319.681818 242.008478 
L 320.464646 241.990432 
L 321.247475 198.816888 
L 322.030303 190.437079 
L 322.813131 184.534132 
L 325.161616 169.062572 
L 325.944444 162.467876 
L 327.510101 151.221508 
L 329.075758 144.842177 
L 329.858586 160.469927 
L 330.641414 139.747343 
L 331.424242 141.459799 
L 332.989899 128.477507 
L 333.772727 124.735001 
L 334.555556 121.958186 
L 336.121212 115.670738 
L 337.686869 110.505834 
L 339.252525 104.244663 
L 340.035354 101.449986 
L 340.818182 97.889108 
L 341.60101 105.170105 
L 342.383838 93.626203 
L 343.166667 115.897512 
L 343.949495 92.415859 
L 344.732323 88.555476 
L 345.515152 82.378653 
L 346.29798 82.661942 
L 347.080808 96.350586 
L 347.863636 95.350335 
L 348.646465 77.291195 
L 349.429293 82.321839 
L 350.212121 83.033762 
L 350.994949 76.045293 
L 351.777778 76.553343 
L 352.560606 79.602861 
L 353.343434 74.062902 
L 354.126263 73.256777 
L 354.909091 71.571464 
L 355.691919 69.5684 
L 356.474747 68.028498 
L 357.257576 67.669501 
L 358.040404 66.622581 
L 359.606061 65.718512 
L 360.388889 65.685797 
L 361.171717 66.256333 
L 361.954545 65.778669 
L 362.737374 65.934824 
L 363.520202 65.844364 
L 364.30303 63.944551 
L 365.085859 62.858729 
L 365.868687 70.140084 
L 366.651515 58.159124 
L 367.434343 60.989684 
L 368.217172 62.936366 
L 369 64.050362 
L 369.782828 64.290741 
L 370.565657 65.78464 
L 371.348485 65.072135 
L 372.131313 65.149639 
L 372.914141 64.204489 
L 373.69697 65.16662 
L 374.479798 65.52718 
L 375.262626 66.097965 
L 376.045455 66.173191 
L 376.828283 67.09509 
L 377.611111 69.461142 
L 378.393939 72.190814 
L 379.176768 72.694208 
L 379.959596 72.108919 
L 380.742424 72.376857 
L 381.525253 74.195358 
L 382.308081 76.935974 
L 383.090909 78.25785 
L 383.873737 79.903896 
L 384.656566 80.658995 
L 386.222222 86.975574 
L 387.787879 89.453591 
L 388.570707 90.042955 
L 389.353535 92.081893 
L 390.136364 95.034847 
L 390.919192 96.905655 
L 391.70202 97.859969 
L 392.484848 99.498747 
L 393.267677 101.483266 
L 394.833333 107.770889 
L 395.616162 110.029816 
L 396.39899 113.193494 
L 397.964646 118.471785 
L 398.747475 121.740668 
L 400.313131 126.380174 
L 403.444444 139.717306 
L 409.707071 174.633216 
L 411.272727 184.022211 
L 414.40404 206.61395 
L 415.969697 218.415031 
L 416.752525 223.667851 
L 418.318182 232.577185 
L 419.10101 236.120992 
L 419.883838 239.103531 
L 420.666667 240.955332 
L 421.449495 241.760423 
L 422.232323 242.116364 
L 423.015152 242.115239 
L 423.79798 193.054284 
L 424.580808 186.765297 
L 428.494949 160.60234 
L 429.277778 156.207238 
L 430.060606 152.769235 
L 430.843434 148.039559 
L 433.191919 136.700918 
L 435.540404 126.657983 
L 436.323232 125.167244 
L 437.106061 122.895744 
L 437.888889 116.981853 
L 438.671717 114.154727 
L 441.020202 107.661078 
L 441.80303 104.717762 
L 442.585859 102.35581 
L 443.368687 100.950501 
L 444.151515 98.593463 
L 444.934343 95.450841 
L 446.5 91.104594 
L 447.282828 89.350308 
L 450.414141 80.534407 
L 451.19697 78.763256 
L 452.762626 76.405537 
L 454.328283 74.286018 
L 455.111111 72.787362 
L 455.893939 72.111397 
L 456.676768 71.050873 
L 458.242424 69.629638 
L 459.025253 69.215807 
L 459.808081 69.104607 
L 460.590909 68.241451 
L 462.156566 67.861814 
L 463.722222 66.530059 
L 464.505051 66.875451 
L 465.287879 67.702831 
L 466.070707 66.72159 
L 466.853535 66.213224 
L 467.636364 67.382287 
L 468.419192 67.734232 
L 469.20202 67.897939 
L 469.984848 68.328701 
L 470.767677 68.436059 
L 471.550505 67.698424 
L 472.333333 67.978203 
L 473.116162 68.759165 
L 473.89899 70.946076 
L 474.681818 70.776232 
L 475.464646 70.119394 
L 477.030303 71.293015 
L 478.59596 73.500932 
L 479.378788 73.64453 
L 480.161616 74.389584 
L 480.944444 75.800407 
L 481.727273 76.882486 
L 482.510101 78.80126 
L 483.292929 81.464688 
L 484.075758 81.445644 
L 484.858586 80.057823 
L 485.641414 80.006215 
L 486.424242 81.022283 
L 487.207071 82.911535 
L 487.989899 85.779534 
L 488.772727 87.643789 
L 489.555556 88.873076 
L 491.121212 92.739447 
L 491.90404 96.306928 
L 492.686869 98.412326 
L 493.469697 99.785661 
L 494.252525 102.10077 
L 495.035354 105.052086 
L 495.818182 108.767332 
L 496.60101 111.624503 
L 497.383838 113.569139 
L 498.166667 114.821012 
L 498.949495 116.963841 
L 499.732323 119.540401 
L 501.29798 126.488106 
L 502.080808 130.219019 
L 502.863636 133.040166 
L 504.429293 166.513803 
L 505.212121 169.590597 
L 505.994949 155.435615 
L 506.777778 174.822768 
L 507.560606 160.022981 
L 509.909091 172.984492 
L 510.691919 176.835773 
L 511.474747 182.567239 
L 512.257576 187.154131 
L 513.823232 195.337464 
L 514.606061 204.119432 
L 515.388889 206.030152 
L 516.954545 217.276763 
L 517.737374 228.2208 
L 518.520202 226.528069 
L 519.30303 236.124218 
L 520.085859 236.490135 
L 520.868687 240.06441 
L 522.434343 241.474235 
L 523.217172 241.878772 
L 524 242.032263 
L 524.782828 241.956285 
L 525.565657 201.694362 
L 526.348485 204.766333 
L 527.131313 193.775292 
L 527.914141 196.02431 
L 528.69697 207.911743 
L 529.479798 191.481043 
L 530.262626 204.234254 
L 531.045455 205.538596 
L 531.828283 202.742451 
L 532.611111 204.980513 
L 533.393939 195.121155 
L 534.176768 195.970107 
L 534.959596 180.301085 
L 535.742424 185.725054 
L 536.525253 197.553875 
L 537.308081 195.484858 
L 538.090909 181.057045 
L 538.873737 128.116423 
L 539.656566 112.442146 
L 540.439394 88.425066 
L 541.222222 91.850196 
L 542.005051 109.241636 
L 542.787879 105.983016 
L 543.570707 118.581871 
L 544.353535 134.988287 
L 545.136364 137.27824 
L 545.919192 133.807631 
L 546.70202 117.093727 
L 547.484848 96.333588 
L 548.267677 92.709476 
L 549.050505 96.683205 
L 549.833333 83.00642 
L 550.616162 128.064307 
L 551.39899 138.641754 
L 552.181818 74.498222 
L 552.964646 87.295886 
L 553.747475 69.839215 
L 554.530303 93.942173 
L 555.313131 110.004602 
L 556.09596 166.161659 
L 556.878788 148.674893 
L 557.661616 146.795927 
L 558.444444 158.706776 
L 559.227273 154.370708 
L 560.010101 116.683363 
L 560.792929 120.588194 
L 561.575758 107.311046 
L 562.358586 122.405415 
L 563.141414 125.730704 
L 563.924242 135.376115 
L 564.707071 127.790282 
L 565.489899 108.69421 
L 566.272727 101.608886 
L 567.055556 102.269175 
L 567.838384 96.939068 
L 568.621212 148.946872 
L 569.40404 157.750001 
L 570.186869 159.362342 
L 570.969697 162.466271 
L 571.752525 157.138384 
L 572.535354 157.524765 
L 573.318182 145.132443 
L 574.10101 155.977769 
L 574.883838 165.112269 
L 575.666667 159.375648 
L 576.449495 157.342406 
L 577.232323 160.19497 
L 578.015152 159.011545 
L 578.79798 159.677939 
L 579.580808 169.518839 
L 580.363636 161.366013 
L 581.146465 162.283746 
L 581.929293 171.49276 
L 582.712121 167.859754 
L 583.494949 158.115933 
L 584.277778 156.379701 
L 585.060606 157.741227 
L 585.843434 122.871753 
L 586.626263 178.265332 
L 587.409091 192.233705 
L 588.191919 191.6207 
L 588.974747 186.904155 
L 589.757576 184.481102 
L 591.323232 176.366537 
L 592.106061 176.595199 
L 592.888889 185.833485 
L 593.671717 178.703267 
L 594.454545 177.451161 
L 595.237374 162.96939 
L 596.020202 154.234111 
L 596.80303 175.641388 
L 597.585859 165.050615 
L 598.368687 163.361243 
L 599.934343 190.245307 
L 600.717172 190.993707 
L 601.5 196.884771 
L 602.282828 201.099951 
L 603.065657 200.425691 
L 603.848485 199.021725 
L 604.631313 198.818243 
L 605.414141 202.079725 
L 606.19697 203.244693 
L 606.979798 199.662721 
L 607.762626 204.917449 
L 608.545455 212.879343 
L 610.893939 222.967421 
L 611.676768 224.294298 
L 612.459596 224.333339 
L 613.242424 224.968847 
L 614.025253 226.228599 
L 614.808081 229.903031 
L 616.373737 231.939346 
L 617.156566 234.950173 
L 617.939394 237.130341 
L 618.722222 237.610367 
L 619.505051 238.567173 
L 620.287879 240.329888 
L 621.070707 241.050019 
L 621.853535 241.424995 
L 622.636364 241.590052 
L 622.636364 241.590052 
" style="fill:none;stroke:#000000;stroke-linecap:square;stroke-width:1.5;"/>
   </g>
   <g id="line2d_18">
    <path clip-path="url(#pe3416f0059)" d="M 115.363636 239.700965 
L 116.146465 234.035125 
L 117.712121 232.282032 
L 118.494949 231.594884 
L 119.277778 230.604353 
L 120.060606 229.810018 
L 120.843434 229.449945 
L 121.626263 228.806272 
L 122.409091 227.29202 
L 123.191919 226.563935 
L 123.974747 226.809538 
L 124.757576 226.494136 
L 126.323232 223.717657 
L 127.106061 221.757771 
L 127.888889 218.472743 
L 128.671717 216.874879 
L 129.454545 216.834823 
L 130.237374 215.629406 
L 131.020202 215.327481 
L 131.80303 212.987004 
L 132.585859 212.252752 
L 133.368687 212.605596 
L 134.151515 213.130443 
L 134.934343 212.722852 
L 136.5 208.755654 
L 137.282828 212.518696 
L 138.065657 217.459304 
L 138.848485 218.371744 
L 139.631313 218.602064 
L 141.19697 217.251305 
L 141.979798 218.136702 
L 142.762626 218.853457 
L 143.545455 219.013023 
L 144.328283 219.046846 
L 145.111111 219.826849 
L 145.893939 222.076458 
L 146.676768 222.775181 
L 147.459596 222.895201 
L 148.242424 222.301726 
L 149.025253 222.644135 
L 149.808081 223.419433 
L 150.590909 222.704703 
L 151.373737 222.280139 
L 152.156566 222.644841 
L 152.939394 221.941979 
L 153.722222 221.896392 
L 154.505051 220.713834 
L 155.287879 218.330335 
L 156.853535 212.28902 
L 157.636364 208.118964 
L 158.419192 208.752904 
L 159.20202 211.40271 
L 159.984848 213.390139 
L 160.767677 214.292264 
L 162.333333 214.550844 
L 163.116162 214.367913 
L 163.89899 217.626347 
L 166.247475 216.947818 
L 167.813131 211.564328 
L 169.378788 212.605886 
L 170.161616 215.260785 
L 170.944444 215.472204 
L 171.727273 216.045222 
L 172.510101 215.752236 
L 173.292929 215.746843 
L 174.075758 215.986484 
L 175.641414 216.921929 
L 177.207071 218.589546 
L 177.989899 216.089075 
L 178.772727 214.241255 
L 179.555556 218.525879 
L 180.338384 221.579048 
L 181.121212 220.442078 
L 181.90404 221.448312 
L 182.686869 220.599011 
L 183.469697 222.380643 
L 185.035354 222.613938 
L 185.818182 221.288772 
L 186.60101 222.831918 
L 187.383838 222.206708 
L 188.166667 222.600228 
L 188.949495 223.257476 
L 189.732323 223.622273 
L 190.515152 224.501828 
L 191.29798 223.520935 
L 192.080808 224.213132 
L 192.863636 224.042496 
L 194.429293 224.407485 
L 195.212121 223.331903 
L 195.994949 222.667416 
L 196.777778 224.165265 
L 197.560606 223.843566 
L 198.343434 222.612531 
L 199.126263 223.272836 
L 200.691919 225.852425 
L 201.474747 227.126127 
L 202.257576 226.456991 
L 203.040404 226.27499 
L 203.823232 227.334799 
L 204.606061 227.862296 
L 205.388889 228.542795 
L 206.171717 229.422441 
L 206.954545 229.938649 
L 207.737374 230.089514 
L 208.520202 230.588334 
L 209.30303 230.534441 
L 210.085859 230.775556 
L 210.868687 230.128161 
L 211.651515 232.002368 
L 212.434343 233.541229 
L 214 235.657619 
L 214.782828 236.618845 
L 215.565657 238.051235 
L 216.348485 238.91295 
L 217.131313 239.577551 
L 217.914141 240.422583 
L 218.69697 231.089895 
L 219.479798 230.614191 
L 221.045455 229.351289 
L 221.828283 227.974881 
L 222.611111 226.017589 
L 223.393939 224.483847 
L 224.176768 223.37895 
L 224.959596 217.317522 
L 225.742424 221.018142 
L 226.525253 218.473696 
L 227.308081 217.414574 
L 228.090909 217.996682 
L 228.873737 217.567837 
L 229.656566 216.221737 
L 230.439394 215.44164 
L 231.222222 208.473795 
L 232.005051 199.689303 
L 232.787879 194.061724 
L 233.570707 192.746989 
L 234.353535 193.101552 
L 235.136364 194.08258 
L 235.919192 187.061366 
L 236.70202 183.9363 
L 237.484848 192.01835 
L 238.267677 205.361799 
L 239.050505 207.722697 
L 239.833333 201.521567 
L 240.616162 194.165236 
L 241.39899 192.524709 
L 242.964646 177.941275 
L 243.747475 171.822267 
L 244.530303 160.753147 
L 245.313131 155.505803 
L 246.09596 163.140775 
L 246.878788 163.10896 
L 247.661616 149.862812 
L 248.444444 140.089726 
L 249.227273 139.047651 
L 250.010101 138.533625 
L 250.792929 142.167368 
L 251.575758 138.029843 
L 252.358586 119.80755 
L 253.141414 124.797388 
L 254.707071 154.100199 
L 255.489899 162.812206 
L 256.272727 139.121589 
L 257.055556 110.611285 
L 257.838384 109.402329 
L 258.621212 111.100199 
L 259.40404 128.502383 
L 260.186869 151.364088 
L 260.969697 170.023258 
L 261.752525 174.926244 
L 262.535354 170.644184 
L 263.318182 163.473291 
L 264.10101 148.070116 
L 264.883838 143.369295 
L 265.666667 135.938438 
L 266.449495 144.250694 
L 267.232323 137.536587 
L 268.015152 157.96372 
L 268.79798 159.033094 
L 269.580808 160.854151 
L 270.363636 164.854926 
L 271.146465 152.448459 
L 271.929293 148.726192 
L 272.712121 168.07968 
L 273.494949 190.827067 
L 274.277778 200.650924 
L 275.060606 206.916595 
L 275.843434 207.161369 
L 276.626263 205.880687 
L 277.409091 206.860356 
L 278.191919 206.887628 
L 278.974747 206.301898 
L 279.757576 207.550332 
L 280.540404 202.592885 
L 281.323232 202.598286 
L 282.106061 202.932642 
L 282.888889 209.566163 
L 283.671717 213.076007 
L 284.454545 218.404964 
L 285.237374 220.000827 
L 286.020202 222.098777 
L 286.80303 222.953912 
L 287.585859 221.520774 
L 288.368687 221.388916 
L 289.151515 222.469137 
L 289.934343 222.000719 
L 290.717172 220.864677 
L 291.5 220.354678 
L 292.282828 223.134367 
L 293.065657 223.63364 
L 293.848485 223.052674 
L 294.631313 222.816175 
L 295.414141 223.157786 
L 296.979798 224.508509 
L 297.762626 223.295864 
L 298.545455 223.078446 
L 299.328283 220.725894 
L 300.111111 221.485652 
L 300.893939 221.726127 
L 301.676768 222.428818 
L 303.242424 220.015016 
L 304.025253 216.4108 
L 304.808081 214.351756 
L 305.590909 211.826912 
L 306.373737 215.128713 
L 307.939394 222.771569 
L 309.505051 227.062455 
L 310.287879 227.924501 
L 311.070707 229.132968 
L 311.853535 228.973096 
L 312.636364 228.440842 
L 314.20202 232.095494 
L 315.767677 235.667861 
L 316.550505 236.501975 
L 317.333333 237.13426 
L 318.89899 238.952507 
L 320.464646 240.51766 
L 321.247475 234.457867 
L 322.030303 233.988334 
L 322.813131 233.387753 
L 323.59596 232.488866 
L 324.378788 231.85779 
L 325.161616 230.735367 
L 325.944444 229.053736 
L 326.727273 226.616898 
L 327.510101 223.472811 
L 328.292929 225.539811 
L 329.075758 227.008933 
L 329.858586 226.204787 
L 330.641414 226.48674 
L 331.424242 226.326572 
L 332.207071 225.471917 
L 332.989899 224.845801 
L 333.772727 225.474019 
L 334.555556 225.709794 
L 335.338384 225.023495 
L 336.121212 222.836267 
L 336.90404 222.746545 
L 337.686869 223.42114 
L 338.469697 223.427399 
L 339.252525 221.34136 
L 340.035354 219.604945 
L 340.818182 215.198864 
L 341.60101 208.353773 
L 342.383838 204.715482 
L 343.166667 206.605393 
L 343.949495 215.495142 
L 344.732323 210.874604 
L 345.515152 203.307875 
L 347.080808 213.225037 
L 347.863636 211.95142 
L 348.646465 209.677967 
L 349.429293 209.93744 
L 350.212121 203.991873 
L 350.994949 216.395591 
L 351.777778 220.104349 
L 352.560606 219.946161 
L 353.343434 220.161751 
L 354.126263 219.966888 
L 354.909091 221.298908 
L 355.691919 221.32619 
L 356.474747 220.595113 
L 357.257576 222.215457 
L 358.823232 221.027829 
L 359.606061 221.247104 
L 360.388889 221.10656 
L 361.171717 220.679054 
L 361.954545 220.023006 
L 362.737374 220.114179 
L 363.520202 219.899392 
L 364.30303 216.442772 
L 365.085859 216.724471 
L 365.868687 213.341604 
L 366.651515 206.309578 
L 367.434343 213.214557 
L 368.217172 216.767667 
L 369.782828 217.655774 
L 370.565657 218.489714 
L 371.348485 217.464516 
L 372.131313 217.799371 
L 372.914141 216.235457 
L 373.69697 216.129098 
L 374.479798 214.917773 
L 376.045455 213.611325 
L 376.828283 214.448172 
L 377.611111 214.794118 
L 379.176768 216.904473 
L 379.959596 215.675631 
L 380.742424 214.914568 
L 381.525253 214.466253 
L 382.308081 217.052323 
L 383.090909 216.501344 
L 383.873737 215.483219 
L 384.656566 214.919907 
L 385.439394 219.60041 
L 386.222222 220.49528 
L 387.005051 219.491233 
L 387.787879 220.881973 
L 388.570707 220.069217 
L 389.353535 220.733227 
L 390.136364 222.009838 
L 390.919192 221.681161 
L 391.70202 218.739529 
L 392.484848 220.427829 
L 393.267677 221.151603 
L 394.050505 222.783637 
L 394.833333 223.856024 
L 395.616162 222.793375 
L 396.39899 224.800249 
L 397.181818 222.786994 
L 397.964646 223.228014 
L 398.747475 225.198949 
L 399.530303 223.322481 
L 400.313131 222.932099 
L 401.09596 224.138512 
L 401.878788 223.870767 
L 402.661616 223.382228 
L 403.444444 223.300993 
L 404.227273 224.077711 
L 405.010101 225.055365 
L 405.792929 226.230897 
L 406.575758 226.870636 
L 407.358586 226.849883 
L 408.141414 228.230507 
L 409.707071 228.221661 
L 410.489899 227.287007 
L 412.838384 230.075905 
L 413.621212 230.744145 
L 414.40404 229.54149 
L 415.186869 229.761784 
L 415.969697 231.438623 
L 418.318182 234.960886 
L 419.10101 235.681986 
L 419.883838 236.1475 
L 421.449495 238.013669 
L 422.232323 238.682422 
L 423.015152 239.126108 
L 423.79798 232.897238 
L 424.580808 232.121339 
L 425.363636 231.556653 
L 426.146465 230.698105 
L 427.712121 230.008109 
L 428.494949 228.75091 
L 429.277778 229.085061 
L 430.843434 228.008582 
L 431.626263 227.222246 
L 432.409091 226.843183 
L 433.191919 226.239319 
L 433.974747 226.170414 
L 435.540404 224.951199 
L 436.323232 223.611631 
L 437.106061 223.499979 
L 437.888889 222.225698 
L 438.671717 221.326204 
L 439.454545 221.09686 
L 440.237374 221.979919 
L 441.020202 222.130836 
L 441.80303 220.290287 
L 442.585859 220.389698 
L 443.368687 219.076544 
L 444.151515 218.025081 
L 444.934343 219.032693 
L 445.717172 218.969094 
L 446.5 219.192657 
L 447.282828 219.772841 
L 448.065657 219.519872 
L 448.848485 219.114436 
L 449.631313 219.050823 
L 450.414141 218.349843 
L 451.979798 222.787165 
L 452.762626 222.013492 
L 453.545455 221.404571 
L 454.328283 221.671805 
L 455.111111 221.580019 
L 455.893939 222.453758 
L 456.676768 222.279912 
L 457.459596 223.213669 
L 458.242424 222.693885 
L 459.025253 222.712998 
L 460.590909 221.172854 
L 461.373737 222.213381 
L 462.156566 221.782052 
L 462.939394 221.037534 
L 463.722222 221.355336 
L 464.505051 220.983093 
L 465.287879 220.277597 
L 466.070707 219.085188 
L 466.853535 218.570696 
L 467.636364 219.905507 
L 468.419192 219.319953 
L 469.20202 217.90345 
L 469.984848 217.730102 
L 470.767677 217.416775 
L 471.550505 216.687619 
L 472.333333 218.246594 
L 473.116162 218.860008 
L 473.89899 218.852618 
L 474.681818 217.158906 
L 475.464646 214.263925 
L 476.247475 215.450449 
L 477.030303 215.831604 
L 477.813131 214.733697 
L 478.59596 214.532297 
L 479.378788 214.1074 
L 480.161616 214.722465 
L 480.944444 214.81194 
L 481.727273 215.782862 
L 482.510101 216.565355 
L 483.292929 218.642924 
L 484.858586 213.302231 
L 485.641414 215.089281 
L 486.424242 213.879001 
L 487.207071 216.416266 
L 487.989899 219.794716 
L 488.772727 218.043405 
L 490.338384 218.564987 
L 491.121212 218.46346 
L 491.90404 219.500554 
L 492.686869 220.347535 
L 493.469697 219.534859 
L 494.252525 219.884101 
L 495.818182 222.358011 
L 496.60101 221.442345 
L 497.383838 219.874649 
L 498.166667 220.410753 
L 498.949495 219.919791 
L 499.732323 221.118681 
L 500.515152 222.827162 
L 501.29798 222.943082 
L 502.080808 223.89373 
L 502.863636 222.581676 
L 503.646465 222.804045 
L 504.429293 221.296683 
L 505.212121 220.583302 
L 505.994949 220.594051 
L 506.777778 221.076912 
L 507.560606 223.800729 
L 508.343434 224.046942 
L 509.126263 225.034234 
L 509.909091 224.033759 
L 510.691919 223.388012 
L 511.474747 224.361682 
L 512.257576 225.907008 
L 513.040404 225.801191 
L 513.823232 226.45092 
L 514.606061 227.825168 
L 515.388889 228.588305 
L 516.171717 227.334397 
L 517.737374 231.368678 
L 518.520202 232.755495 
L 519.30303 234.528123 
L 521.651515 237.780991 
L 522.434343 238.052321 
L 523.217172 238.862974 
L 524.782828 240.712645 
L 525.565657 203.953455 
L 526.348485 200.442255 
L 527.131313 194.345809 
L 527.914141 192.544829 
L 528.69697 192.054366 
L 529.479798 187.134914 
L 531.045455 179.278967 
L 531.828283 172.380452 
L 532.611111 170.162682 
L 533.393939 173.189332 
L 534.176768 181.645767 
L 534.959596 185.060613 
L 535.742424 181.944232 
L 536.525253 179.676363 
L 537.308081 180.353761 
L 538.090909 177.729428 
L 539.656566 152.42135 
L 540.439394 148.827375 
L 541.222222 148.111449 
L 542.005051 151.472331 
L 542.787879 148.587066 
L 543.570707 141.629194 
L 544.353535 137.378282 
L 545.136364 129.617443 
L 545.919192 127.5765 
L 546.70202 134.017227 
L 547.484848 136.868285 
L 548.267677 135.403794 
L 549.050505 125.984524 
L 549.833333 111.964814 
L 550.616162 89.654927 
L 551.39899 86.695821 
L 552.181818 100.185197 
L 552.964646 99.610769 
L 553.747475 97.658891 
L 554.530303 97.5231 
L 555.313131 100.485747 
L 556.09596 107.023488 
L 556.878788 105.516863 
L 557.661616 101.200709 
L 558.444444 103.917535 
L 559.227273 101.239757 
L 560.010101 80.356547 
L 560.792929 78.450897 
L 561.575758 78.312085 
L 562.358586 81.086529 
L 563.141414 79.860085 
L 563.924242 84.171074 
L 564.707071 78.868375 
L 565.489899 79.851867 
L 566.272727 89.461159 
L 567.055556 84.445852 
L 567.838384 61.347692 
L 568.621212 69.295965 
L 569.40404 72.641578 
L 570.186869 78.908408 
L 570.969697 86.573262 
L 571.752525 84.492751 
L 572.535354 86.469957 
L 573.318182 88.786879 
L 574.10101 95.529748 
L 574.883838 97.241132 
L 575.666667 92.183853 
L 576.449495 94.169787 
L 577.232323 93.662702 
L 578.015152 92.580161 
L 578.79798 96.319873 
L 579.580808 105.211831 
L 580.363636 99.215555 
L 581.146465 101.213747 
L 581.929293 107.605929 
L 582.712121 104.201029 
L 583.494949 93.683006 
L 584.277778 97.961347 
L 585.060606 97.579658 
L 585.843434 90.131648 
L 586.626263 124.133396 
L 587.409091 145.773703 
L 588.191919 148.040662 
L 588.974747 140.943122 
L 589.757576 136.96153 
L 590.540404 131.388266 
L 591.323232 126.815006 
L 592.106061 123.718669 
L 592.888889 134.980913 
L 593.671717 129.455782 
L 594.454545 127.111863 
L 596.020202 114.86917 
L 596.80303 128.818093 
L 598.368687 120.694483 
L 599.151515 131.134691 
L 599.934343 145.979946 
L 600.717172 148.878194 
L 602.282828 161.845743 
L 603.065657 163.61951 
L 603.848485 163.366775 
L 604.631313 160.763656 
L 606.19697 168.336764 
L 606.979798 166.993609 
L 607.762626 171.979776 
L 608.545455 181.613232 
L 610.893939 201.646357 
L 611.676768 205.025017 
L 612.459596 205.644005 
L 613.242424 206.775684 
L 614.025253 208.853551 
L 615.590909 217.137858 
L 616.373737 219.390226 
L 617.156566 224.323268 
L 617.939394 228.34897 
L 618.722222 229.787106 
L 619.505051 231.81241 
L 620.287879 235.407855 
L 621.070707 237.205805 
L 621.853535 237.945572 
L 622.636364 238.489523 
L 622.636364 238.489523 
" style="fill:none;stroke:#000000;stroke-dasharray:1.5,2.475;stroke-dashoffset:0;stroke-width:1.5;"/>
   </g>
   <g id="patch_3">
    <path d="M 90 252 
L 90 34.56 
" style="fill:none;stroke:#000000;stroke-linecap:square;stroke-linejoin:miter;stroke-width:0.8;"/>
   </g>
   <g id="patch_4">
    <path d="M 648 252 
L 648 34.56 
" style="fill:none;stroke:#000000;stroke-linecap:square;stroke-linejoin:miter;stroke-width:0.8;"/>
   </g>
   <g id="patch_5">
    <path d="M 90 252 
L 648 252 
" style="fill:none;stroke:#000000;stroke-linecap:square;stroke-linejoin:miter;stroke-width:0.8;"/>
   </g>
   <g id="patch_6">
    <path d="M 90 34.56 
L 648 34.56 
" style="fill:none;stroke:#000000;stroke-linecap:square;stroke-linejoin:miter;stroke-width:0.8;"/>
   </g>
   <g id="legend_1">
    <g id="patch_7">
     <path d="M 495.4 85.900625 
L 638.2 85.900625 
Q 641 85.900625 641 83.100625 
L 641 44.36 
Q 641 41.56 638.2 41.56 
L 495.4 41.56 
Q 492.6 41.56 492.6 44.36 
L 492.6 83.100625 
Q 492.6 85.900625 495.4 85.900625 
z
" style="fill:#ffffff;opacity:0.8;stroke:#cccccc;stroke-linejoin:miter;"/>
    </g>
    <g id="line2d_19">
     <path d="M 498.2 53.252187 
L 526.2 53.252187 
" style="fill:none;stroke:#000000;stroke-linecap:square;stroke-width:1.5;"/>
    </g>
    <g id="line2d_20"/>
    <g id="text_19">
     <!-- 光伏出力功率 -->
     <defs>
      <path d="M 52.34375 41.40625 
Q 82.421875 43.75 84.375 45.3125 
L 90.234375 40.234375 
Q 81.25 40.234375 54.6875 37.890625 
L 59.375 34.765625 
Q 57.421875 33.984375 57.8125 28.515625 
L 57.8125 5.46875 
Q 57.421875 -1.5625 66.796875 -1.953125 
L 75.78125 -1.953125 
Q 84.765625 -1.953125 85.34375 0 
Q 85.9375 1.953125 85.9375 15.234375 
L 87.5 15.234375 
Q 87.890625 9.765625 88.671875 4.875 
Q 89.453125 0 91.40625 -3.90625 
Q 86.71875 -5.46875 75.78125 -5.859375 
L 66.796875 -5.859375 
Q 53.90625 -6.25 54.296875 5.078125 
L 54.296875 30.859375 
Q 54.6875 36.71875 53.515625 37.5 
L 41.796875 36.71875 
L 45.703125 33.59375 
Q 44.53125 33.59375 42.96875 28.3125 
Q 41.40625 23.046875 38.859375 17.375 
Q 36.328125 11.71875 29.484375 4.484375 
Q 22.65625 -2.734375 9.375 -9.375 
L 8.984375 -7.421875 
Q 36.328125 5.859375 40.625 37.109375 
Q 21.484375 35.15625 18.359375 34.375 
L 12.890625 38.671875 
Q 20.3125 38.671875 48.828125 41.015625 
L 49.21875 69.53125 
Q 50 76.5625 46.875 80.859375 
L 48.046875 81.640625 
L 55.078125 75.390625 
Q 52.34375 73.828125 52.734375 68.359375 
z
M 60.15625 46.875 
Q 65.234375 55.078125 68.75 62.6875 
Q 72.265625 70.3125 71.484375 72.65625 
L 72.65625 73.046875 
L 77.34375 65.625 
Q 75.78125 66.015625 71.484375 59.765625 
Q 67.1875 53.515625 61.71875 46.484375 
z
M 37.890625 46.09375 
Q 35.15625 52.34375 25 65.625 
L 26.171875 67.1875 
Q 35.9375 57.8125 40.625 53.125 
Q 39.453125 49.609375 37.890625 46.09375 
z
" id="FangSong-5149"/>
      <path d="M 73.828125 -5.859375 
Q 73.828125 -0.390625 70.109375 10.546875 
Q 66.40625 21.484375 59.765625 42.96875 
L 56.25 42.578125 
Q 49.609375 7.03125 28.125 -9.765625 
L 27.34375 -8.59375 
Q 47.65625 11.71875 52.34375 42.1875 
Q 39.453125 40.625 39.453125 39.84375 
L 33.984375 44.53125 
Q 38.28125 44.140625 53.125 46.09375 
Q 54.296875 58.59375 55.078125 67.96875 
Q 55.859375 77.34375 53.125 80.46875 
L 54.296875 81.25 
L 60.9375 75 
Q 58.984375 75 58.390625 66.40625 
Q 57.8125 57.8125 56.640625 46.484375 
Q 79.6875 48.828125 83.59375 50 
L 87.109375 45.703125 
Q 82.03125 45.703125 62.5 43.359375 
Q 69.53125 21.484375 73.046875 12.5 
Q 76.5625 3.515625 78.703125 0.578125 
Q 80.859375 -2.34375 92.1875 -3.125 
L 92.1875 -5.078125 
L 73.828125 -5.859375 
z
M 24.609375 48.4375 
Q 17.578125 38.671875 8.203125 29.296875 
L 7.03125 30.859375 
Q 17.1875 42.96875 27.140625 60.15625 
Q 37.109375 77.34375 34.375 80.078125 
L 35.9375 80.859375 
L 40.625 72.65625 
Q 39.453125 73.046875 35.546875 67.1875 
Q 31.640625 60.546875 28.125 54.6875 
L 26.953125 -5.078125 
Q 27.34375 -10.546875 25.78125 -8.984375 
L 21.875 -0.78125 
Q 24.21875 0.390625 23.4375 7.421875 
z
M 67.1875 71.484375 
Q 74.609375 65.234375 78.90625 62.109375 
Q 77.734375 58.203125 76.171875 55.078125 
Q 72.65625 61.71875 66.015625 69.921875 
z
" id="FangSong-4f0f"/>
      <path d="M 79.296875 28.90625 
L 85.546875 23.4375 
Q 83.984375 24.21875 83.203125 18.15625 
Q 82.421875 12.109375 81.4375 5.65625 
Q 80.46875 -0.78125 79.6875 -4.09375 
Q 78.90625 -7.421875 77.734375 -7.8125 
Q 76.5625 -8.203125 76.5625 -0.78125 
L 23.4375 -4.296875 
L 20.703125 -7.03125 
L 16.796875 -1.953125 
L 19.921875 -0.78125 
L 19.53125 16.40625 
Q 19.140625 21.875 16.796875 24.21875 
L 17.578125 25.390625 
L 24.609375 20.3125 
Q 22.65625 18.75 23.046875 12.890625 
L 23.4375 -0.78125 
L 48.4375 0.78125 
L 48.828125 34.765625 
L 28.125 32.8125 
L 25.390625 30.46875 
L 21.484375 35.15625 
L 24.21875 36.71875 
L 23.828125 53.515625 
Q 24.21875 59.765625 21.09375 63.28125 
L 21.875 64.453125 
L 28.90625 59.375 
Q 27.34375 58.59375 27.34375 53.515625 
L 27.734375 36.328125 
L 48.828125 38.28125 
L 49.21875 67.1875 
Q 49.609375 76.953125 46.484375 79.6875 
L 47.65625 80.859375 
L 55.078125 74.21875 
Q 52.34375 72.65625 52.734375 66.796875 
L 52.34375 38.671875 
L 74.609375 40.625 
Q 76.171875 51.171875 77.140625 57.8125 
Q 78.125 64.453125 76.171875 66.015625 
L 77.34375 66.796875 
L 82.421875 61.71875 
Q 81.25 60.9375 80.46875 55.46875 
Q 79.6875 50 78.703125 43.359375 
Q 77.734375 36.71875 76.953125 33.984375 
Q 76.171875 31.25 75.390625 31.4375 
Q 74.609375 31.640625 74.21875 37.109375 
L 52.34375 35.15625 
L 51.953125 1.171875 
L 76.953125 2.734375 
Q 78.90625 13.671875 79.6875 19.921875 
Q 80.46875 26.171875 78.515625 28.125 
z
" id="FangSong-51fa"/>
      <path d="M 48.4375 82.421875 
L 56.25 76.171875 
Q 54.296875 76.171875 53.703125 71.671875 
Q 53.125 67.1875 50.78125 52.34375 
L 76.171875 54.6875 
L 78.90625 58.59375 
L 83.59375 53.515625 
L 80.46875 51.171875 
Q 73.4375 0.390625 65.234375 -10.15625 
Q 59.375 -1.171875 49.609375 9.765625 
L 50.78125 10.9375 
L 64.84375 -2.34375 
Q 70.3125 8.203125 76.171875 50.78125 
L 50.390625 48.4375 
Q 39.0625 8.59375 9.375 -8.984375 
L 8.203125 -7.421875 
Q 36.71875 12.109375 46.09375 48.046875 
Q 26.5625 46.09375 23.046875 44.921875 
L 17.578125 50 
Q 25.390625 49.609375 46.484375 51.953125 
Q 48.828125 64.84375 49.40625 71.28125 
Q 50 77.734375 47.265625 81.640625 
z
" id="FangSong-529b"/>
      <path d="M 59.765625 6.25 
L 71.875 -2.34375 
Q 76.953125 10.15625 81.640625 48.4375 
L 63.671875 46.09375 
Q 60.15625 25.390625 53.515625 12.5 
Q 46.875 -0.390625 31.640625 -9.765625 
L 30.46875 -8.203125 
Q 42.96875 0.78125 49.796875 12.6875 
Q 56.640625 24.609375 59.765625 45.703125 
Q 50.78125 44.53125 49.21875 42.96875 
L 43.75 47.65625 
Q 48.4375 47.265625 60.546875 49.21875 
Q 62.109375 60.9375 62.6875 70.3125 
Q 63.28125 79.6875 60.546875 81.25 
L 61.71875 82.421875 
L 69.140625 76.953125 
Q 67.1875 76.953125 66.59375 69.140625 
Q 66.015625 61.328125 64.0625 49.609375 
L 80.859375 51.953125 
L 83.59375 56.25 
L 88.28125 51.953125 
L 85.546875 49.21875 
Q 82.8125 28.90625 79.875 13.078125 
Q 76.953125 -2.734375 72.265625 -10.15625 
Q 66.015625 -0.78125 58.59375 5.078125 
z
M 46.875 56.25 
Q 42.1875 56.25 28.90625 53.90625 
L 33.984375 50.78125 
Q 32.03125 49.21875 32.421875 43.75 
L 32.03125 21.875 
L 49.609375 28.125 
L 50 26.171875 
Q 17.578125 12.890625 13.28125 10.546875 
L 8.59375 15.234375 
Q 13.671875 14.84375 28.125 20.703125 
L 28.515625 46.875 
Q 28.515625 51.171875 27.734375 53.515625 
Q 19.53125 52.34375 17.1875 50.78125 
L 11.328125 55.078125 
Q 16.015625 55.078125 27.921875 57.03125 
Q 39.84375 58.984375 42.578125 60.546875 
z
" id="FangSong-529f"/>
      <path d="M 58.59375 32.8125 
L 46.484375 30.46875 
L 53.515625 26.953125 
Q 51.5625 25.78125 51.5625 23.046875 
L 51.5625 21.484375 
Q 83.59375 23.828125 86.71875 24.609375 
L 91.015625 20.3125 
Q 83.984375 20.3125 51.5625 17.96875 
L 51.171875 -5.859375 
Q 51.171875 -10.546875 50 -10.15625 
L 45.3125 -3.515625 
Q 47.65625 -1.5625 47.65625 2.34375 
L 48.046875 17.578125 
Q 17.96875 15.234375 15.234375 14.84375 
L 9.765625 19.140625 
Q 17.578125 18.359375 48.046875 21.09375 
L 48.046875 23.4375 
Q 48.046875 27.34375 46.484375 30.078125 
Q 37.890625 28.515625 35.9375 27.34375 
L 32.03125 32.03125 
L 37.109375 33.203125 
Q 39.84375 36.328125 49.21875 46.484375 
Q 38.671875 44.140625 36.328125 42.578125 
L 32.8125 48.046875 
L 36.328125 48.046875 
Q 39.84375 52.34375 46.09375 62.890625 
Q 25 60.546875 22.65625 59.765625 
L 16.796875 64.453125 
Q 25.78125 64.0625 51.359375 66.59375 
Q 76.953125 69.140625 78.515625 70.3125 
L 83.59375 65.625 
Q 76.953125 66.015625 46.875 62.5 
L 51.171875 59.765625 
Q 49.609375 59.375 46.671875 55.859375 
Q 43.75 52.34375 39.84375 48.046875 
L 51.171875 49.21875 
Q 53.90625 51.953125 54.6875 53.515625 
Q 55.46875 55.078125 55.46875 57.421875 
L 57.03125 57.8125 
L 59.375 50.78125 
Q 57.8125 50.78125 52.53125 45.109375 
Q 47.265625 39.453125 41.015625 32.8125 
L 57.421875 35.15625 
L 53.515625 41.015625 
L 54.6875 42.1875 
Q 60.546875 37.109375 64.453125 33.203125 
Q 63.671875 30.46875 61.71875 26.953125 
z
M 80.46875 37.109375 
Q 80.46875 33.203125 79.296875 30.46875 
Q 75.390625 35.15625 61.328125 45.703125 
Q 64.84375 48.828125 69.71875 54.09375 
Q 74.609375 59.375 74.21875 62.890625 
L 75.78125 62.890625 
L 78.125 55.46875 
Q 76.5625 55.46875 73.046875 52.734375 
Q 69.53125 50 64.453125 45.703125 
Q 75.390625 39.453125 80.46875 37.109375 
z
M 32.8125 41.015625 
Q 18.75 30.078125 17.96875 28.125 
L 11.328125 31.25 
Q 15.625 32.421875 32.03125 42.578125 
z
M 26.171875 44.140625 
Q 23.4375 48.046875 15.234375 55.46875 
L 16.015625 57.03125 
Q 23.828125 53.125 27.34375 51.171875 
Q 27.34375 48.4375 26.171875 44.140625 
z
M 49.609375 67.1875 
Q 48.046875 72.265625 42.1875 80.859375 
L 43.359375 82.03125 
Q 50 76.171875 52.34375 73.4375 
Q 51.5625 70.703125 49.609375 67.1875 
z
" id="FangSong-7387"/>
     </defs>
     <g transform="translate(537.4 58.152187)scale(0.14 -0.14)">
      <use xlink:href="#FangSong-5149"/>
      <use x="100" xlink:href="#FangSong-4f0f"/>
      <use x="200" xlink:href="#FangSong-51fa"/>
      <use x="300" xlink:href="#FangSong-529b"/>
      <use x="400" xlink:href="#FangSong-529f"/>
      <use x="500" xlink:href="#FangSong-7387"/>
     </g>
    </g>
    <g id="line2d_21">
     <path d="M 498.2 73.377187 
L 526.2 73.377187 
" style="fill:none;stroke:#000000;stroke-dasharray:1.5,2.475;stroke-dashoffset:0;stroke-width:1.5;"/>
    </g>
    <g id="line2d_22"/>
    <g id="text_20">
     <!-- 漫反射水平辐射 -->
     <defs>
      <path d="M 39.84375 28.515625 
Q 39.453125 25 37.890625 25.78125 
L 35.15625 30.46875 
Q 36.328125 32.421875 36.328125 35.546875 
L 36.328125 42.578125 
Q 36.328125 46.09375 35.546875 49.609375 
L 36.71875 50 
L 39.453125 45.3125 
L 78.515625 49.21875 
L 80.859375 52.34375 
L 85.15625 48.4375 
L 82.421875 45.703125 
L 80.46875 35.9375 
L 83.59375 32.8125 
L 39.84375 28.515625 
z
M 76.953125 56.25 
L 45.3125 52.734375 
Q 45.703125 48.828125 43.75 50.78125 
L 40.234375 55.46875 
Q 42.1875 57.421875 41.796875 65.625 
Q 42.1875 73.828125 40.625 79.296875 
L 42.1875 80.078125 
L 45.3125 74.21875 
L 71.09375 76.5625 
L 73.4375 80.46875 
L 78.125 76.5625 
L 75 73.828125 
L 73.4375 58.984375 
z
M 78.125 -10.15625 
Q 78.125 -8.984375 73.046875 -5.078125 
Q 67.96875 -1.171875 58.984375 5.078125 
Q 43.359375 -6.25 24.21875 -10.546875 
L 23.828125 -8.59375 
Q 42.1875 -3.125 54.6875 7.03125 
Q 51.953125 9.375 48.828125 11.515625 
Q 45.703125 13.671875 43.359375 13.28125 
L 42.96875 14.84375 
L 48.4375 16.796875 
Q 47.65625 16.015625 50.1875 14.25 
Q 52.734375 12.5 57.03125 9.375 
Q 63.28125 14.84375 67.578125 21.484375 
Q 45.703125 18.75 43.359375 18.359375 
L 38.28125 22.265625 
Q 46.484375 22.265625 69.140625 25.78125 
L 71.875 28.515625 
L 76.5625 24.21875 
L 73.046875 22.265625 
Q 69.140625 15.625 60.9375 7.421875 
Q 72.265625 -0.390625 75 -1.75 
Q 77.734375 -3.125 80.265625 -4.09375 
Q 82.8125 -5.078125 93.75 -3.515625 
L 93.75 -5.859375 
L 78.125 -10.15625 
z
M 71.484375 73.046875 
L 45.3125 70.3125 
L 45.3125 65.625 
Q 61.328125 67.1875 65.625 68.359375 
L 68.359375 64.0625 
Q 64.453125 64.453125 45.3125 61.71875 
L 45.3125 56.640625 
L 69.921875 58.984375 
z
M 9.765625 11.328125 
L 18.359375 5.078125 
L 31.640625 49.21875 
L 33.203125 48.4375 
Q 25.390625 15.625 20.3125 -5.078125 
Q 17.96875 -1.171875 8.984375 10.15625 
z
M 78.515625 45.3125 
L 66.40625 44.140625 
L 66.40625 34.765625 
L 76.5625 35.546875 
z
M 62.890625 43.75 
L 53.125 42.96875 
L 53.125 33.59375 
L 62.890625 34.375 
z
M 49.609375 42.578125 
L 39.84375 41.40625 
L 39.84375 32.421875 
L 49.609375 33.203125 
z
M 21.09375 35.15625 
Q 17.96875 39.0625 8.203125 48.4375 
L 8.984375 49.609375 
Q 17.1875 45.3125 22.265625 42.578125 
Q 22.265625 38.28125 21.09375 35.15625 
z
M 30.078125 68.75 
Q 30.078125 64.453125 28.90625 61.328125 
Q 25.390625 66.40625 17.1875 75 
L 17.96875 76.171875 
Q 26.953125 71.09375 30.078125 68.75 
z
" id="FangSong-6f2b"/>
      <path d="M 29.296875 77.734375 
L 32.8125 68.359375 
Q 50 71.09375 61.328125 74.609375 
Q 72.65625 78.125 72.65625 80.078125 
L 73.4375 80.46875 
L 79.296875 75 
Q 74.21875 74.21875 61.515625 71.09375 
Q 48.828125 67.96875 32.421875 65.234375 
Q 32.421875 57.8125 31.640625 48.828125 
Q 37.5 48.828125 66.015625 53.125 
L 68.75 57.03125 
L 74.21875 51.953125 
L 70.703125 49.609375 
Q 65.234375 34.765625 56.640625 21.484375 
Q 67.1875 9.765625 71.671875 5.078125 
Q 76.171875 0.390625 79.296875 -1.75 
Q 82.421875 -3.90625 93.75 -3.90625 
L 93.75 -5.859375 
L 75.78125 -7.8125 
Q 76.5625 -4.6875 54.6875 18.359375 
Q 37.890625 -2.34375 18.75 -10.15625 
L 17.96875 -8.984375 
Q 39.0625 3.125 52.34375 21.875 
Q 48.828125 26.953125 43.75 32.609375 
Q 38.671875 38.28125 35.9375 39.0625 
L 35.9375 40.625 
L 42.96875 41.015625 
Q 43.359375 39.0625 46.484375 34.5625 
Q 49.609375 30.078125 54.296875 24.21875 
Q 62.109375 36.328125 66.40625 49.609375 
Q 39.0625 46.484375 35.9375 44.921875 
L 31.640625 46.484375 
Q 30.859375 33.984375 26.171875 19.921875 
Q 21.484375 5.859375 8.203125 -9.375 
L 7.03125 -8.203125 
Q 21.09375 10.15625 24.40625 25.578125 
Q 27.734375 41.015625 28.3125 56.25 
Q 28.90625 71.484375 27.734375 77.34375 
z
" id="FangSong-53cd"/>
      <path d="M 42.96875 -2.34375 
Q 43.75 -1.171875 43.75 5.46875 
L 43.75 28.515625 
Q 27.34375 8.203125 7.421875 -2.734375 
L 6.25 -1.171875 
Q 24.21875 10.546875 38.28125 28.125 
Q 16.40625 24.21875 14.84375 23.046875 
L 10.546875 27.34375 
Q 15.625 27.734375 22.265625 28.515625 
L 22.265625 55.46875 
Q 21.875 62.5 20.703125 67.578125 
L 21.875 68.359375 
L 25.390625 62.890625 
L 28.515625 63.28125 
Q 30.859375 69.140625 32.03125 74.015625 
Q 33.203125 78.90625 32.421875 81.640625 
L 33.59375 82.03125 
L 38.28125 75.78125 
Q 37.5 76.5625 35.34375 72.453125 
Q 33.203125 68.359375 30.859375 63.671875 
L 43.359375 65.234375 
L 46.09375 68.359375 
L 50 64.453125 
L 47.265625 60.9375 
L 47.265625 5.078125 
Q 47.65625 -4.6875 44.53125 -10.15625 
Q 40.234375 -5.078125 31.640625 2.734375 
L 32.421875 4.296875 
L 42.96875 -2.34375 
z
M 71.484375 -2.34375 
Q 72.65625 1.5625 73.046875 5.46875 
L 73.046875 44.53125 
Q 55.46875 42.578125 53.125 41.796875 
L 48.828125 45.703125 
Q 54.6875 45.703125 73.046875 48.046875 
L 73.046875 66.796875 
Q 73.046875 74.21875 70.3125 79.6875 
L 71.09375 80.46875 
L 78.515625 74.609375 
Q 76.171875 74.21875 76.5625 65.625 
L 76.5625 48.4375 
Q 87.890625 49.609375 89.453125 50.78125 
L 93.75 46.484375 
Q 88.671875 46.484375 76.5625 44.921875 
L 76.5625 3.90625 
Q 76.5625 -4.296875 73.046875 -10.546875 
Q 67.96875 -4.296875 58.203125 3.515625 
L 58.984375 5.078125 
L 71.484375 -2.34375 
z
M 25.78125 51.171875 
Q 36.328125 52.734375 38.28125 53.90625 
L 41.015625 49.609375 
Q 34.375 49.21875 25.78125 47.65625 
L 25.78125 40.625 
Q 36.71875 42.1875 38.671875 42.96875 
L 42.1875 39.0625 
Q 38.28125 38.671875 25.78125 37.109375 
L 25.78125 29.296875 
L 43.75 32.03125 
L 43.75 61.328125 
L 25.78125 58.984375 
z
M 64.453125 28.515625 
Q 63.671875 25.390625 61.71875 22.265625 
Q 59.375 28.90625 55.078125 39.0625 
L 56.25 39.453125 
Q 60.9375 33.59375 64.453125 28.515625 
z
" id="FangSong-5c04"/>
      <path d="M 76.5625 5.078125 
Q 77.734375 6.25 71.28125 17.375 
Q 64.84375 28.515625 52.34375 50.390625 
L 52.34375 1.5625 
Q 52.34375 -6.640625 49.21875 -10.546875 
Q 44.921875 -4.296875 33.984375 5.078125 
L 34.765625 6.25 
L 48.046875 -1.953125 
Q 49.21875 2.34375 48.828125 7.03125 
L 48.828125 68.359375 
Q 49.21875 76.953125 46.875 80.859375 
L 48.046875 81.640625 
L 54.296875 75.78125 
Q 51.953125 75 52.34375 68.359375 
L 52.34375 56.25 
Q 57.8125 46.09375 61.328125 40.625 
Q 69.921875 48.046875 73.828125 52.53125 
Q 77.734375 57.03125 77.34375 59.765625 
L 78.515625 59.765625 
L 80.859375 51.5625 
Q 80.078125 52.34375 75.390625 48.4375 
Q 70.3125 44.140625 62.890625 37.890625 
Q 73.046875 20.703125 75.578125 16.984375 
Q 78.125 13.28125 80.265625 11.125 
Q 82.421875 8.984375 93.359375 8.203125 
L 93.359375 6.25 
L 76.5625 5.078125 
z
M 42.1875 51.953125 
L 47.265625 47.65625 
L 43.75 44.140625 
Q 30.859375 14.0625 7.421875 -2.34375 
L 6.25 -1.171875 
Q 28.90625 18.75 39.453125 44.140625 
Q 21.484375 41.40625 19.53125 40.625 
L 14.0625 44.53125 
Q 20.703125 44.53125 40.234375 48.4375 
z
" id="FangSong-6c34"/>
      <path d="M 48.828125 69.53125 
Q 27.734375 67.578125 25.390625 66.796875 
L 21.09375 71.484375 
Q 28.515625 71.09375 52.734375 73.234375 
Q 76.953125 75.390625 77.34375 76.171875 
L 82.03125 71.484375 
Q 72.65625 71.484375 52.34375 69.53125 
L 51.953125 37.109375 
Q 87.5 39.84375 87.890625 40.625 
L 93.359375 35.9375 
Q 86.71875 36.71875 51.953125 33.59375 
L 51.5625 -1.5625 
Q 51.953125 -10.546875 50.390625 -9.765625 
L 46.09375 -1.953125 
Q 48.4375 -1.5625 48.046875 6.25 
L 48.4375 33.203125 
Q 13.28125 30.859375 12.5 29.6875 
L 6.640625 34.375 
Q 12.890625 33.984375 48.4375 36.71875 
L 48.828125 69.53125 
z
M 76.5625 60.9375 
Q 75.78125 61.71875 71.671875 55.078125 
Q 67.578125 48.4375 62.109375 40.234375 
L 60.546875 41.015625 
Q 65.625 50.390625 68.9375 57.609375 
Q 72.265625 64.84375 70.3125 67.1875 
L 71.484375 67.96875 
z
M 38.671875 46.875 
Q 37.890625 44.921875 35.546875 41.015625 
Q 30.859375 51.171875 25.78125 60.15625 
L 26.5625 60.9375 
Q 32.8125 54.296875 38.671875 46.875 
z
" id="FangSong-5e73"/>
      <path d="M 51.953125 -3.90625 
Q 51.953125 -9.765625 50.96875 -8.984375 
Q 50 -8.203125 46.484375 -2.34375 
Q 48.046875 0 48.046875 3.90625 
L 47.65625 23.046875 
Q 47.265625 28.90625 46.484375 33.203125 
L 47.65625 33.984375 
L 50.78125 29.6875 
L 83.984375 32.421875 
L 86.328125 36.328125 
L 91.796875 31.640625 
L 88.671875 28.90625 
Q 87.890625 17.1875 87.109375 9.765625 
Q 86.328125 2.34375 85.546875 -3.515625 
Q 84.765625 -9.375 83.59375 -8.390625 
Q 82.421875 -7.421875 81.25 -1.5625 
L 51.953125 -3.90625 
z
M 30.46875 37.890625 
L 30.859375 42.96875 
Q 31.25 49.609375 29.296875 52.734375 
L 30.078125 53.515625 
L 36.328125 48.4375 
Q 34.375 48.4375 34.375 43.359375 
L 33.984375 38.671875 
Q 42.578125 40.234375 42.578125 41.015625 
L 46.484375 36.71875 
Q 44.140625 36.71875 33.984375 35.15625 
L 33.59375 22.65625 
L 44.140625 26.171875 
L 44.53125 24.21875 
L 33.59375 19.921875 
L 33.203125 -5.078125 
Q 33.203125 -11.71875 31.640625 -8.984375 
L 27.734375 -2.734375 
Q 29.296875 -1.5625 29.6875 3.125 
L 30.078125 18.75 
Q 14.453125 12.890625 12.109375 11.71875 
L 7.421875 16.015625 
Q 10.546875 15.625 30.078125 21.875 
L 30.46875 34.375 
L 18.75 32.421875 
L 16.796875 30.46875 
L 12.5 35.9375 
L 16.015625 36.71875 
L 24.21875 58.203125 
Q 16.015625 57.03125 14.84375 56.640625 
L 10.546875 60.546875 
Q 15.234375 60.546875 25.78125 62.109375 
Q 27.734375 67.578125 28.90625 72.84375 
Q 30.078125 78.125 28.125 80.078125 
L 29.6875 80.859375 
L 34.765625 73.828125 
Q 33.203125 73.4375 32.21875 70.890625 
Q 31.25 68.359375 29.296875 62.5 
Q 41.015625 64.0625 43.75 64.84375 
L 47.265625 60.546875 
Q 41.40625 60.9375 28.125 58.59375 
L 19.53125 36.328125 
z
M 57.421875 36.71875 
L 56.25 36.328125 
L 52.34375 41.015625 
Q 53.90625 43.359375 53.515625 50.1875 
Q 53.125 57.03125 51.953125 61.328125 
L 53.125 62.109375 
L 55.859375 57.8125 
L 78.515625 59.765625 
L 80.859375 63.671875 
L 85.9375 59.375 
L 82.421875 56.25 
L 81.640625 46.09375 
L 84.765625 42.578125 
L 57.03125 40.234375 
z
M 78.90625 56.25 
L 56.640625 54.296875 
L 57.03125 43.75 
L 78.125 45.703125 
z
M 81.640625 -1.171875 
Q 83.203125 6.25 83.984375 14.453125 
Q 78.125 14.0625 69.140625 12.890625 
L 68.75 1.171875 
Q 73.828125 1.5625 78.125 2.34375 
z
M 69.140625 16.40625 
Q 76.5625 17.1875 79.6875 18.359375 
L 83.984375 16.015625 
L 84.765625 28.90625 
L 69.53125 27.734375 
z
M 66.015625 27.34375 
L 50.78125 25.78125 
L 51.171875 14.84375 
Q 54.296875 14.84375 65.625 16.015625 
z
M 51.171875 13.28125 
L 51.5625 -0.390625 
L 65.234375 0.78125 
L 65.625 12.5 
Q 57.8125 11.71875 54.296875 10.9375 
z
M 91.40625 70.3125 
Q 83.984375 70.703125 68.546875 69.328125 
Q 53.125 67.96875 48.828125 67.1875 
L 44.921875 71.484375 
Q 51.5625 71.09375 67.765625 72.453125 
Q 83.984375 73.828125 86.328125 75 
z
" id="FangSong-8f90"/>
     </defs>
     <g transform="translate(537.4 78.277187)scale(0.14 -0.14)">
      <use xlink:href="#FangSong-6f2b"/>
      <use x="100" xlink:href="#FangSong-53cd"/>
      <use x="200" xlink:href="#FangSong-5c04"/>
      <use x="300" xlink:href="#FangSong-6c34"/>
      <use x="400" xlink:href="#FangSong-5e73"/>
      <use x="500" xlink:href="#FangSong-8f90"/>
      <use x="600" xlink:href="#FangSong-5c04"/>
     </g>
    </g>
   </g>
  </g>
 </g>
 <defs>
  <clipPath id="pe3416f0059">
   <rect height="217.44" width="558" x="90" y="34.56"/>
  </clipPath>
 </defs>
</svg>
