<?xml version="1.0" encoding="utf-8" standalone="no"?>
<!DOCTYPE svg PUBLIC "-//W3C//DTD SVG 1.1//EN"
  "http://www.w3.org/Graphics/SVG/1.1/DTD/svg11.dtd">
<!-- Created with matplotlib (http://matplotlib.org/) -->
<svg height="288pt" version="1.1" viewBox="0 0 720 288" width="720pt" xmlns="http://www.w3.org/2000/svg" xmlns:xlink="http://www.w3.org/1999/xlink">
 <defs>
  <style type="text/css">
*{stroke-linecap:butt;stroke-linejoin:round;}
  </style>
 </defs>
 <g id="figure_1">
  <g id="patch_1">
   <path d="M 0 288 
L 720 288 
L 720 0 
L 0 0 
z
" style="fill:#ffffff;"/>
  </g>
  <g id="axes_1">
   <g id="patch_2">
    <path d="M 90 252 
L 648 252 
L 648 34.56 
L 90 34.56 
z
" style="fill:#ffffff;"/>
   </g>
   <g id="matplotlib.axis_1">
    <g id="xtick_1">
     <g id="line2d_1">
      <defs>
       <path d="M 0 0 
L 0 3.5 
" id="md1c8348329" style="stroke:#000000;stroke-width:0.8;"/>
      </defs>
      <g>
       <use style="stroke:#000000;stroke-width:0.8;" x="145.893939" xlink:href="#md1c8348329" y="252"/>
      </g>
     </g>
     <g id="text_1">
      <!-- 300 -->
      <defs>
       <path d="M 43.359375 17.96875 
Q 43.359375 10.546875 37.890625 4.875 
Q 32.421875 -0.78125 22.65625 -0.78125 
Q 15.625 -0.78125 10.546875 3.125 
Q 5.46875 7.03125 5.46875 12.109375 
Q 5.46875 14.453125 7.03125 16.203125 
Q 8.59375 17.96875 10.15625 17.96875 
Q 12.5 17.96875 13.46875 16.203125 
Q 14.453125 14.453125 14.453125 13.28125 
Q 14.453125 11.328125 13.671875 9.953125 
Q 12.890625 8.59375 12.890625 7.421875 
Q 12.890625 5.078125 15.8125 3.515625 
Q 18.75 1.953125 22.265625 1.953125 
Q 29.296875 1.953125 32.8125 6.046875 
Q 36.328125 10.15625 36.328125 18.75 
Q 36.328125 25.78125 32.609375 30.078125 
Q 28.90625 34.375 18.75 34.375 
L 18.75 37.109375 
Q 26.5625 37.109375 30.265625 40.8125 
Q 33.984375 44.53125 33.984375 51.171875 
Q 33.984375 56.640625 31.046875 60.734375 
Q 28.125 64.84375 21.875 64.84375 
Q 19.140625 64.84375 16.015625 63.46875 
Q 12.890625 62.109375 12.890625 58.984375 
Q 12.890625 55.859375 13.671875 55.078125 
Q 14.453125 54.296875 14.453125 53.125 
Q 14.453125 51.171875 13.671875 50 
Q 12.890625 48.828125 10.9375 48.828125 
Q 9.375 48.828125 8 50 
Q 6.640625 51.171875 6.640625 54.296875 
Q 6.640625 60.15625 11.71875 63.859375 
Q 16.796875 67.578125 23.4375 67.578125 
Q 31.25 67.578125 35.9375 62.6875 
Q 40.625 57.8125 40.625 52.34375 
Q 40.625 46.484375 37.6875 42.375 
Q 34.765625 38.28125 28.515625 36.328125 
Q 37.109375 33.203125 40.234375 28.125 
Q 43.359375 23.046875 43.359375 17.96875 
z
" id="FangSong-33"/>
       <path d="M 24.609375 64.453125 
Q 19.140625 64.453125 15.421875 56.046875 
Q 11.71875 47.65625 11.71875 33.59375 
Q 11.71875 18.75 15.421875 10.546875 
Q 19.140625 2.34375 24.609375 2.34375 
Q 30.46875 2.34375 33.78125 10.546875 
Q 37.109375 18.75 37.109375 33.59375 
Q 37.109375 47.65625 33.984375 56.046875 
Q 30.859375 64.453125 24.609375 64.453125 
z
M 24.609375 -0.78125 
Q 16.015625 -0.78125 10.15625 8.203125 
Q 4.296875 17.1875 4.296875 33.59375 
Q 4.296875 48.828125 9.953125 58.203125 
Q 15.625 67.578125 24.609375 67.578125 
Q 33.203125 67.578125 38.859375 58.59375 
Q 44.53125 49.609375 44.53125 33.59375 
Q 44.53125 17.578125 38.859375 8.390625 
Q 33.203125 -0.78125 24.609375 -0.78125 
z
" id="FangSong-30"/>
      </defs>
      <g transform="translate(138.393939 265.992188)scale(0.1 -0.1)">
       <use xlink:href="#FangSong-33"/>
       <use x="50" xlink:href="#FangSong-30"/>
       <use x="100" xlink:href="#FangSong-30"/>
      </g>
     </g>
    </g>
    <g id="xtick_2">
     <g id="line2d_2">
      <g>
       <use style="stroke:#000000;stroke-width:0.8;" x="224.176768" xlink:href="#md1c8348329" y="252"/>
      </g>
     </g>
     <g id="text_2">
      <!-- 400 -->
      <defs>
       <path d="M 35.546875 7.421875 
Q 35.546875 4.6875 37.109375 3.515625 
Q 38.671875 2.34375 41.40625 2.34375 
L 44.921875 2.34375 
L 44.921875 0 
L 19.140625 0 
L 19.140625 2.34375 
L 23.4375 2.34375 
Q 26.5625 2.34375 27.921875 3.515625 
Q 29.296875 4.6875 29.296875 7.421875 
L 29.296875 20.3125 
L 3.125 20.3125 
L 3.125 22.265625 
L 31.640625 67.578125 
L 35.546875 67.578125 
L 35.546875 22.65625 
L 46.09375 22.65625 
L 46.09375 20.3125 
L 35.546875 20.3125 
z
M 28.90625 57.8125 
L 6.640625 22.65625 
L 29.296875 22.65625 
L 29.296875 57.8125 
z
" id="FangSong-34"/>
      </defs>
      <g transform="translate(216.676768 265.992188)scale(0.1 -0.1)">
       <use xlink:href="#FangSong-34"/>
       <use x="50" xlink:href="#FangSong-30"/>
       <use x="100" xlink:href="#FangSong-30"/>
      </g>
     </g>
    </g>
    <g id="xtick_3">
     <g id="line2d_3">
      <g>
       <use style="stroke:#000000;stroke-width:0.8;" x="302.459596" xlink:href="#md1c8348329" y="252"/>
      </g>
     </g>
     <g id="text_3">
      <!-- 500 -->
      <defs>
       <path d="M 26.5625 42.96875 
Q 33.984375 42.96875 38.671875 37.296875 
Q 43.359375 31.640625 43.359375 22.265625 
Q 43.359375 11.71875 38.46875 5.46875 
Q 33.59375 -0.78125 23.4375 -0.78125 
Q 16.40625 -0.78125 10.9375 3.3125 
Q 5.46875 7.421875 5.46875 13.28125 
Q 5.46875 15.625 6.828125 17.375 
Q 8.203125 19.140625 10.546875 19.140625 
Q 12.890625 19.140625 13.671875 17.578125 
Q 14.453125 16.015625 14.453125 14.84375 
Q 14.453125 12.5 13.28125 11.125 
Q 12.109375 9.765625 12.109375 8.203125 
Q 12.109375 5.078125 15.8125 3.515625 
Q 19.53125 1.953125 23.828125 1.953125 
Q 30.078125 1.953125 33.390625 7.03125 
Q 36.71875 12.109375 36.71875 21.484375 
Q 36.71875 29.296875 33.78125 34.171875 
Q 30.859375 39.0625 25 39.0625 
Q 20.703125 39.0625 17.578125 37.5 
Q 14.453125 35.9375 11.71875 30.859375 
L 8.203125 31.25 
L 10.15625 66.796875 
L 42.1875 66.796875 
L 41.015625 60.9375 
L 12.890625 60.9375 
L 11.328125 35.15625 
Q 15.234375 40.625 18.9375 41.796875 
Q 22.65625 42.96875 26.5625 42.96875 
z
" id="FangSong-35"/>
      </defs>
      <g transform="translate(294.959596 265.992188)scale(0.1 -0.1)">
       <use xlink:href="#FangSong-35"/>
       <use x="50" xlink:href="#FangSong-30"/>
       <use x="100" xlink:href="#FangSong-30"/>
      </g>
     </g>
    </g>
    <g id="xtick_4">
     <g id="line2d_4">
      <g>
       <use style="stroke:#000000;stroke-width:0.8;" x="380.742424" xlink:href="#md1c8348329" y="252"/>
      </g>
     </g>
     <g id="text_4">
      <!-- 600 -->
      <defs>
       <path d="M 11.71875 26.5625 
Q 11.71875 14.84375 15.8125 8.390625 
Q 19.921875 1.953125 25.78125 1.953125 
Q 31.640625 1.953125 34.765625 6.25 
Q 37.890625 10.546875 37.890625 22.265625 
Q 37.890625 30.078125 34.5625 34.375 
Q 31.25 38.671875 26.5625 38.671875 
Q 22.265625 38.671875 18.546875 36.125 
Q 14.84375 33.59375 11.71875 26.5625 
z
M 26.953125 42.578125 
Q 36.328125 42.578125 40.421875 36.328125 
Q 44.53125 30.078125 44.53125 22.265625 
Q 44.53125 10.546875 38.859375 4.875 
Q 33.203125 -0.78125 25.78125 -0.78125 
Q 15.234375 -0.78125 9.765625 7.21875 
Q 4.296875 15.234375 4.296875 30.46875 
Q 4.296875 48.4375 10.9375 58 
Q 17.578125 67.578125 28.90625 67.578125 
Q 34.375 67.578125 37.6875 64.453125 
Q 41.015625 61.328125 41.015625 58.984375 
Q 41.015625 56.640625 40.03125 55.46875 
Q 39.0625 54.296875 36.71875 54.296875 
Q 34.765625 54.296875 33.78125 55.265625 
Q 32.8125 56.25 32.8125 58.203125 
Q 32.8125 58.984375 33 59.765625 
Q 33.203125 60.546875 33.203125 61.328125 
Q 33.203125 62.890625 32.03125 63.859375 
Q 30.859375 64.84375 27.734375 64.84375 
Q 21.09375 64.84375 16.40625 58.78125 
Q 11.71875 52.734375 11.71875 32.421875 
Q 14.0625 37.5 18.15625 40.03125 
Q 22.265625 42.578125 26.953125 42.578125 
z
" id="FangSong-36"/>
      </defs>
      <g transform="translate(373.242424 265.992188)scale(0.1 -0.1)">
       <use xlink:href="#FangSong-36"/>
       <use x="50" xlink:href="#FangSong-30"/>
       <use x="100" xlink:href="#FangSong-30"/>
      </g>
     </g>
    </g>
    <g id="xtick_5">
     <g id="line2d_5">
      <g>
       <use style="stroke:#000000;stroke-width:0.8;" x="459.025253" xlink:href="#md1c8348329" y="252"/>
      </g>
     </g>
     <g id="text_5">
      <!-- 700 -->
      <defs>
       <path d="M 43.75 64.0625 
Q 35.546875 50.78125 30.65625 38.078125 
Q 25.78125 25.390625 25.78125 16.015625 
Q 25.78125 14.453125 25.96875 11.515625 
Q 26.171875 8.59375 26.171875 4.6875 
Q 26.171875 1.5625 25.1875 0.390625 
Q 24.21875 -0.78125 21.875 -0.78125 
Q 19.921875 -0.78125 18.546875 0.578125 
Q 17.1875 1.953125 17.1875 5.46875 
Q 17.1875 12.890625 20.5 23.828125 
Q 23.828125 34.765625 38.28125 60.9375 
L 18.75 60.9375 
Q 14.453125 60.9375 11.90625 58.203125 
Q 9.375 55.46875 8.203125 50 
L 5.859375 50.390625 
L 8.59375 66.796875 
L 43.75 66.796875 
z
" id="FangSong-37"/>
      </defs>
      <g transform="translate(451.525253 265.992188)scale(0.1 -0.1)">
       <use xlink:href="#FangSong-37"/>
       <use x="50" xlink:href="#FangSong-30"/>
       <use x="100" xlink:href="#FangSong-30"/>
      </g>
     </g>
    </g>
    <g id="xtick_6">
     <g id="line2d_6">
      <g>
       <use style="stroke:#000000;stroke-width:0.8;" x="537.308081" xlink:href="#md1c8348329" y="252"/>
      </g>
     </g>
     <g id="text_6">
      <!-- 800 -->
      <defs>
       <path d="M 9.375 16.015625 
Q 9.375 9.765625 13.46875 5.859375 
Q 17.578125 1.953125 23.828125 1.953125 
Q 31.25 1.953125 34.5625 5.859375 
Q 37.890625 9.765625 37.890625 15.625 
Q 37.890625 20.703125 33.203125 25.390625 
Q 28.515625 30.078125 19.140625 33.984375 
Q 14.453125 30.859375 11.90625 26.171875 
Q 9.375 21.484375 9.375 16.015625 
z
M 43.75 16.796875 
Q 43.75 9.375 38.28125 4.296875 
Q 32.8125 -0.78125 23.828125 -0.78125 
Q 15.625 -0.78125 9.765625 4.296875 
Q 3.90625 9.375 3.90625 16.015625 
Q 3.90625 22.65625 7.21875 27.34375 
Q 10.546875 32.03125 16.796875 35.546875 
Q 11.328125 38.28125 8.390625 42.375 
Q 5.46875 46.484375 5.46875 51.5625 
Q 5.46875 58.203125 10.546875 62.890625 
Q 15.625 67.578125 24.609375 67.578125 
Q 32.8125 67.578125 37.890625 62.890625 
Q 42.96875 58.203125 42.96875 51.5625 
Q 42.96875 46.875 40.03125 42.765625 
Q 37.109375 38.671875 30.859375 35.546875 
Q 37.5 31.640625 40.625 26.953125 
Q 43.75 22.265625 43.75 16.796875 
z
M 37.5 51.171875 
Q 37.5 56.640625 34.375 60.734375 
Q 31.25 64.84375 24.609375 64.84375 
Q 17.1875 64.84375 14.0625 60.9375 
Q 10.9375 57.03125 10.9375 52.734375 
Q 10.9375 48.4375 15.421875 44.328125 
Q 19.921875 40.234375 28.125 37.109375 
Q 32.8125 39.453125 35.15625 42.96875 
Q 37.5 46.484375 37.5 51.171875 
z
" id="FangSong-38"/>
      </defs>
      <g transform="translate(529.808081 265.992188)scale(0.1 -0.1)">
       <use xlink:href="#FangSong-38"/>
       <use x="50" xlink:href="#FangSong-30"/>
       <use x="100" xlink:href="#FangSong-30"/>
      </g>
     </g>
    </g>
    <g id="xtick_7">
     <g id="line2d_7">
      <g>
       <use style="stroke:#000000;stroke-width:0.8;" x="615.590909" xlink:href="#md1c8348329" y="252"/>
      </g>
     </g>
     <g id="text_7">
      <!-- 900 -->
      <defs>
       <path d="M 10.546875 46.09375 
Q 10.546875 37.5 13.859375 33 
Q 17.1875 28.515625 22.265625 28.515625 
Q 28.125 28.515625 32.421875 33.984375 
Q 36.71875 39.453125 36.71875 44.140625 
Q 36.71875 53.515625 33.59375 59.171875 
Q 30.46875 64.84375 23.4375 64.84375 
Q 16.796875 64.84375 13.671875 59.5625 
Q 10.546875 54.296875 10.546875 46.09375 
z
M 21.09375 25 
Q 13.28125 25 8.59375 29.875 
Q 3.90625 34.765625 3.90625 45.703125 
Q 3.90625 55.078125 8.984375 61.328125 
Q 14.0625 67.578125 23.4375 67.578125 
Q 33.203125 67.578125 38.671875 59.765625 
Q 44.140625 51.953125 44.140625 37.109375 
Q 44.140625 20.703125 37.6875 9.953125 
Q 31.25 -0.78125 19.921875 -0.78125 
Q 14.84375 -0.78125 11.125 1.5625 
Q 7.421875 3.90625 7.421875 7.8125 
Q 7.421875 9.375 8.390625 10.9375 
Q 9.375 12.5 11.71875 12.5 
Q 14.0625 12.5 14.84375 10.734375 
Q 15.625 8.984375 15.625 6.640625 
Q 15.625 5.078125 16.015625 4.09375 
Q 16.40625 3.125 16.796875 2.734375 
Q 17.1875 2.34375 18.15625 2.140625 
Q 19.140625 1.953125 20.3125 1.953125 
Q 27.34375 1.953125 31.640625 9.765625 
Q 35.9375 17.578125 36.71875 35.9375 
Q 34.765625 31.25 30.859375 28.125 
Q 26.953125 25 21.09375 25 
z
" id="FangSong-39"/>
      </defs>
      <g transform="translate(608.090909 265.992188)scale(0.1 -0.1)">
       <use xlink:href="#FangSong-39"/>
       <use x="50" xlink:href="#FangSong-30"/>
       <use x="100" xlink:href="#FangSong-30"/>
      </g>
     </g>
    </g>
    <g id="text_8">
     <!-- 时间序列 -->
     <defs>
      <path d="M 18.75 11.328125 
Q 19.140625 -0.78125 17.1875 1.953125 
L 13.671875 8.59375 
Q 15.625 11.328125 15.234375 17.578125 
L 15.234375 52.34375 
Q 15.234375 60.15625 14.0625 68.359375 
L 15.234375 68.75 
L 17.96875 61.328125 
L 35.546875 64.0625 
L 37.5 67.578125 
L 42.1875 64.0625 
L 39.453125 60.546875 
Q 39.453125 22.265625 38.46875 13.078125 
Q 37.5 3.90625 36.328125 5.265625 
Q 35.15625 6.640625 34.375 13.28125 
L 18.75 11.328125 
z
M 18.75 15.234375 
Q 30.078125 16.40625 30.859375 17.1875 
L 34.765625 13.28125 
Q 35.546875 25.390625 35.546875 33.984375 
L 35.546875 59.765625 
L 18.75 57.421875 
L 18.75 39.453125 
Q 29.296875 40.625 31.640625 42.1875 
L 35.15625 37.5 
Q 29.6875 37.109375 18.75 35.546875 
z
M 67.578125 82.03125 
L 74.609375 76.171875 
Q 72.265625 74.609375 72.65625 67.1875 
L 72.65625 48.4375 
Q 88.28125 50.390625 88.28125 51.953125 
L 93.75 47.265625 
Q 87.890625 46.875 72.65625 44.921875 
L 72.65625 6.640625 
Q 73.046875 -5.46875 69.921875 -10.546875 
Q 66.015625 -5.078125 53.125 4.296875 
L 53.90625 5.859375 
L 68.359375 -2.34375 
Q 69.140625 2.34375 69.140625 6.640625 
L 69.140625 44.53125 
Q 48.4375 41.796875 45.3125 40.625 
L 39.84375 45.3125 
Q 46.875 45.3125 69.140625 48.046875 
L 69.140625 68.75 
Q 69.53125 76.953125 66.40625 80.859375 
z
M 55.078125 19.921875 
Q 51.953125 28.90625 47.65625 38.28125 
L 48.828125 39.0625 
Q 53.515625 32.8125 58.203125 26.171875 
Q 57.03125 23.4375 55.078125 19.921875 
z
" id="FangSong-65f6"/>
      <path d="M 64.84375 22.65625 
L 39.453125 20.3125 
Q 39.84375 12.5 38.28125 14.0625 
L 34.765625 19.921875 
Q 35.9375 21.875 35.9375 25.78125 
L 35.9375 44.921875 
Q 36.328125 50.390625 34.375 55.078125 
L 35.546875 55.859375 
L 39.0625 50.390625 
L 58.59375 53.125 
L 60.9375 56.25 
L 65.625 51.953125 
L 62.890625 49.21875 
L 62.109375 25.78125 
z
M 78.125 76.953125 
L 83.203125 73.046875 
L 80.859375 69.921875 
L 80.859375 7.03125 
Q 80.859375 -5.078125 77.734375 -10.15625 
Q 73.4375 -3.515625 62.109375 7.8125 
L 63.28125 8.984375 
L 76.171875 -1.171875 
Q 76.953125 -1.171875 77.34375 6.640625 
L 77.34375 69.921875 
Q 48.046875 66.796875 45.703125 66.40625 
L 39.84375 69.921875 
Q 45.703125 69.53125 76.171875 73.4375 
z
M 58.984375 49.21875 
L 39.453125 46.875 
L 39.453125 37.109375 
Q 50.390625 38.671875 51.5625 39.84375 
L 55.46875 35.9375 
Q 51.5625 35.9375 39.453125 33.984375 
L 39.453125 23.828125 
L 58.203125 25.78125 
z
M 21.875 -3.515625 
Q 22.265625 -10.546875 20.703125 -8.59375 
L 16.796875 -2.734375 
Q 18.359375 -0.390625 18.359375 5.46875 
L 18.359375 54.296875 
Q 18.359375 60.9375 16.015625 66.015625 
L 17.1875 66.796875 
L 23.046875 60.546875 
Q 21.875 58.203125 21.875 52.734375 
z
M 22.265625 80.859375 
Q 30.46875 73.828125 34.375 70.703125 
Q 33.203125 66.796875 32.03125 63.671875 
Q 29.296875 69.140625 21.09375 79.6875 
z
" id="FangSong-95f4"/>
      <path d="M 85.546875 39.453125 
L 90.234375 35.546875 
Q 86.71875 33.59375 77.34375 21.484375 
L 75.390625 22.265625 
L 81.640625 32.421875 
L 57.8125 30.078125 
L 62.890625 26.953125 
Q 60.9375 25 61.71875 21.875 
L 61.71875 0.78125 
Q 61.71875 -6.25 58.59375 -10.9375 
Q 55.46875 -6.25 43.75 2.34375 
L 44.53125 3.515625 
L 57.421875 -3.125 
Q 58.203125 0.390625 58.203125 5.078125 
L 58.203125 21.484375 
Q 57.8125 27.34375 57.03125 30.078125 
Q 36.71875 27.34375 35.15625 26.5625 
L 29.6875 30.859375 
Q 35.9375 30.859375 61.328125 33.984375 
Q 58.203125 37.109375 48.4375 44.140625 
L 49.21875 45.703125 
L 58.984375 41.015625 
L 67.96875 51.953125 
Q 44.921875 49.21875 42.1875 48.828125 
L 37.5 52.734375 
Q 42.96875 52.34375 70.703125 55.859375 
L 72.65625 59.375 
L 78.125 54.6875 
Q 75 53.125 70.3125 49.015625 
Q 65.625 44.921875 60.9375 39.84375 
L 64.0625 38.671875 
Q 63.671875 36.328125 62.5 33.984375 
L 82.8125 36.328125 
z
M 58.203125 67.1875 
Q 57.03125 69.53125 46.875 80.078125 
L 47.65625 81.640625 
Q 55.859375 76.5625 60.15625 73.828125 
Q 59.375 70.703125 58.59375 67.1875 
Q 82.8125 69.53125 84.765625 70.703125 
L 89.84375 66.015625 
Q 85.546875 66.015625 28.515625 60.9375 
Q 28.125 43.75 27.140625 34.171875 
Q 26.171875 24.609375 21.875 14.0625 
Q 17.578125 3.515625 7.8125 -7.03125 
L 6.640625 -5.859375 
Q 15.234375 5.46875 18.546875 15.234375 
Q 21.875 25 23.046875 32.21875 
Q 24.21875 39.453125 24.609375 53.125 
Q 25 66.796875 23.4375 72.65625 
L 25 73.046875 
L 28.515625 64.84375 
z
" id="FangSong-5e8f"/>
      <path d="M 84.375 5.859375 
Q 84.765625 -3.90625 81.25 -10.15625 
Q 75.78125 -3.125 64.453125 5.859375 
L 65.234375 6.640625 
L 79.6875 -1.5625 
Q 80.859375 3.90625 80.859375 8.59375 
L 80.859375 66.796875 
Q 81.25 77.34375 77.34375 80.859375 
L 78.515625 81.640625 
L 85.546875 76.171875 
Q 83.984375 75 84.375 67.578125 
z
M 48.046875 50.78125 
L 50.390625 54.6875 
L 55.46875 49.609375 
L 52.34375 47.65625 
Q 46.484375 28.125 36.328125 14.25 
Q 26.171875 0.390625 9.765625 -9.375 
L 9.375 -7.421875 
Q 23.828125 1.953125 33.390625 16.015625 
Q 42.96875 30.078125 48.046875 46.875 
Q 34.375 44.921875 33.203125 43.75 
L 28.90625 46.484375 
Q 26.171875 42.1875 23.4375 37.5 
Q 31.25 33.203125 34.375 30.859375 
Q 33.984375 27.34375 32.421875 23.4375 
Q 28.90625 30.078125 22.265625 35.9375 
Q 18.359375 29.296875 10.9375 21.484375 
L 9.765625 22.265625 
Q 19.140625 35.15625 25 47.65625 
Q 30.859375 60.15625 31.640625 66.015625 
Q 20.3125 64.453125 17.578125 63.671875 
L 12.890625 67.96875 
Q 19.140625 67.96875 35.34375 69.921875 
Q 51.5625 71.875 54.6875 73.046875 
L 58.59375 68.359375 
Q 50.78125 68.359375 33.984375 66.015625 
L 36.71875 61.71875 
Q 35.15625 62.5 29.296875 48.4375 
z
M 67.1875 28.515625 
Q 67.578125 18.359375 65.625 20.3125 
L 61.71875 26.953125 
Q 63.671875 28.515625 63.671875 33.203125 
L 63.671875 52.734375 
Q 63.671875 58.984375 61.328125 62.5 
L 62.5 63.28125 
L 68.75 57.421875 
Q 66.796875 56.640625 67.1875 50.390625 
z
" id="FangSong-5217"/>
     </defs>
     <g transform="translate(341 282.429688)scale(0.14 -0.14)">
      <use xlink:href="#FangSong-65f6"/>
      <use x="100" xlink:href="#FangSong-95f4"/>
      <use x="200" xlink:href="#FangSong-5e8f"/>
      <use x="300" xlink:href="#FangSong-5217"/>
     </g>
    </g>
   </g>
   <g id="matplotlib.axis_2">
    <g id="ytick_1">
     <g id="line2d_8">
      <defs>
       <path d="M 0 0 
L -3.5 0 
" id="mf08f086d2b" style="stroke:#000000;stroke-width:0.8;"/>
      </defs>
      <g>
       <use style="stroke:#000000;stroke-width:0.8;" x="90" xlink:href="#mf08f086d2b" y="242.359957"/>
      </g>
     </g>
     <g id="text_9">
      <!-- 0.0 -->
      <defs>
       <path d="M 17.578125 4.296875 
Q 17.578125 1.953125 16.015625 0.390625 
Q 14.453125 -1.171875 12.109375 -1.171875 
Q 9.765625 -1.171875 8.203125 0.390625 
Q 6.640625 1.953125 6.640625 4.296875 
Q 6.640625 6.640625 8.203125 8.203125 
Q 9.765625 9.765625 12.109375 9.765625 
Q 14.453125 9.765625 16.015625 8.203125 
Q 17.578125 6.640625 17.578125 4.296875 
z
" id="FangSong-2e"/>
      </defs>
      <g transform="translate(68 245.856051)scale(0.1 -0.1)">
       <use xlink:href="#FangSong-30"/>
       <use x="50" xlink:href="#FangSong-2e"/>
       <use x="100" xlink:href="#FangSong-30"/>
      </g>
     </g>
    </g>
    <g id="ytick_2">
     <g id="line2d_9">
      <g>
       <use style="stroke:#000000;stroke-width:0.8;" x="90" xlink:href="#mf08f086d2b" y="217.252576"/>
      </g>
     </g>
     <g id="text_10">
      <!-- 0.1 -->
      <defs>
       <path d="M 28.125 67.96875 
L 28.125 8.59375 
Q 28.125 5.46875 30.078125 3.90625 
Q 32.03125 2.34375 35.546875 2.34375 
L 39.453125 2.34375 
L 39.453125 0 
L 10.9375 0 
L 10.9375 2.34375 
L 14.453125 2.34375 
Q 18.359375 2.34375 20.109375 3.90625 
Q 21.875 5.46875 21.875 8.59375 
L 21.875 55.859375 
Q 21.875 57.421875 20.890625 58.390625 
Q 19.921875 59.375 17.96875 59.375 
L 10.9375 59.375 
L 10.9375 61.71875 
L 14.453125 61.71875 
Q 19.140625 61.71875 22.0625 63.28125 
Q 25 64.84375 26.5625 67.96875 
z
" id="FangSong-31"/>
      </defs>
      <g transform="translate(68 220.74867)scale(0.1 -0.1)">
       <use xlink:href="#FangSong-30"/>
       <use x="50" xlink:href="#FangSong-2e"/>
       <use x="100" xlink:href="#FangSong-31"/>
      </g>
     </g>
    </g>
    <g id="ytick_3">
     <g id="line2d_10">
      <g>
       <use style="stroke:#000000;stroke-width:0.8;" x="90" xlink:href="#mf08f086d2b" y="192.145195"/>
      </g>
     </g>
     <g id="text_11">
      <!-- 0.2 -->
      <defs>
       <path d="M 35.9375 50.390625 
Q 35.9375 57.421875 32.8125 61.125 
Q 29.6875 64.84375 23.4375 64.84375 
Q 18.75 64.84375 15.421875 62.296875 
Q 12.109375 59.765625 12.109375 55.859375 
Q 12.109375 53.515625 13.46875 51.953125 
Q 14.84375 50.390625 14.84375 48.828125 
Q 14.84375 46.875 13.859375 45.890625 
Q 12.890625 44.921875 10.9375 44.921875 
Q 8.59375 44.921875 7.21875 46.28125 
Q 5.859375 47.65625 5.859375 50.78125 
Q 5.859375 58.984375 11.71875 63.28125 
Q 17.578125 67.578125 24.21875 67.578125 
Q 33.59375 67.578125 38.078125 62.890625 
Q 42.578125 58.203125 42.578125 51.171875 
Q 42.578125 46.484375 40.421875 41.796875 
Q 38.28125 37.109375 33.59375 32.8125 
Q 22.265625 21.875 16.203125 15.03125 
Q 10.15625 8.203125 8.984375 5.859375 
L 32.03125 5.859375 
Q 35.546875 5.859375 37.890625 8.59375 
Q 40.234375 11.328125 41.015625 16.796875 
L 43.359375 16.796875 
L 41.015625 0 
L 4.6875 0 
L 4.6875 5.078125 
Q 6.640625 8.59375 11.125 14.0625 
Q 15.625 19.53125 23.046875 26.953125 
Q 29.6875 33.59375 32.8125 39.453125 
Q 35.9375 45.3125 35.9375 50.390625 
z
" id="FangSong-32"/>
      </defs>
      <g transform="translate(68 195.641288)scale(0.1 -0.1)">
       <use xlink:href="#FangSong-30"/>
       <use x="50" xlink:href="#FangSong-2e"/>
       <use x="100" xlink:href="#FangSong-32"/>
      </g>
     </g>
    </g>
    <g id="ytick_4">
     <g id="line2d_11">
      <g>
       <use style="stroke:#000000;stroke-width:0.8;" x="90" xlink:href="#mf08f086d2b" y="167.037813"/>
      </g>
     </g>
     <g id="text_12">
      <!-- 0.3 -->
      <g transform="translate(68 170.533907)scale(0.1 -0.1)">
       <use xlink:href="#FangSong-30"/>
       <use x="50" xlink:href="#FangSong-2e"/>
       <use x="100" xlink:href="#FangSong-33"/>
      </g>
     </g>
    </g>
    <g id="ytick_5">
     <g id="line2d_12">
      <g>
       <use style="stroke:#000000;stroke-width:0.8;" x="90" xlink:href="#mf08f086d2b" y="141.930432"/>
      </g>
     </g>
     <g id="text_13">
      <!-- 0.4 -->
      <g transform="translate(68 145.426526)scale(0.1 -0.1)">
       <use xlink:href="#FangSong-30"/>
       <use x="50" xlink:href="#FangSong-2e"/>
       <use x="100" xlink:href="#FangSong-34"/>
      </g>
     </g>
    </g>
    <g id="ytick_6">
     <g id="line2d_13">
      <g>
       <use style="stroke:#000000;stroke-width:0.8;" x="90" xlink:href="#mf08f086d2b" y="116.823051"/>
      </g>
     </g>
     <g id="text_14">
      <!-- 0.5 -->
      <g transform="translate(68 120.319145)scale(0.1 -0.1)">
       <use xlink:href="#FangSong-30"/>
       <use x="50" xlink:href="#FangSong-2e"/>
       <use x="100" xlink:href="#FangSong-35"/>
      </g>
     </g>
    </g>
    <g id="ytick_7">
     <g id="line2d_14">
      <g>
       <use style="stroke:#000000;stroke-width:0.8;" x="90" xlink:href="#mf08f086d2b" y="91.715669"/>
      </g>
     </g>
     <g id="text_15">
      <!-- 0.6 -->
      <g transform="translate(68 95.211763)scale(0.1 -0.1)">
       <use xlink:href="#FangSong-30"/>
       <use x="50" xlink:href="#FangSong-2e"/>
       <use x="100" xlink:href="#FangSong-36"/>
      </g>
     </g>
    </g>
    <g id="ytick_8">
     <g id="line2d_15">
      <g>
       <use style="stroke:#000000;stroke-width:0.8;" x="90" xlink:href="#mf08f086d2b" y="66.608288"/>
      </g>
     </g>
     <g id="text_16">
      <!-- 0.7 -->
      <g transform="translate(68 70.104382)scale(0.1 -0.1)">
       <use xlink:href="#FangSong-30"/>
       <use x="50" xlink:href="#FangSong-2e"/>
       <use x="100" xlink:href="#FangSong-37"/>
      </g>
     </g>
    </g>
    <g id="ytick_9">
     <g id="line2d_16">
      <g>
       <use style="stroke:#000000;stroke-width:0.8;" x="90" xlink:href="#mf08f086d2b" y="41.500907"/>
      </g>
     </g>
     <g id="text_17">
      <!-- 0.8 -->
      <g transform="translate(68 44.997001)scale(0.1 -0.1)">
       <use xlink:href="#FangSong-30"/>
       <use x="50" xlink:href="#FangSong-2e"/>
       <use x="100" xlink:href="#FangSong-38"/>
      </g>
     </g>
    </g>
    <g id="text_18">
     <!-- 归一化数值 -->
     <defs>
      <path d="M 46.09375 62.890625 
Q 54.6875 62.890625 82.03125 66.40625 
L 84.375 69.53125 
L 89.0625 66.015625 
L 86.71875 62.890625 
L 80.46875 12.890625 
L 84.765625 8.984375 
Q 53.515625 6.640625 47.65625 5.46875 
L 41.796875 9.375 
Q 51.953125 9.375 76.171875 12.5 
L 82.421875 62.5 
Q 57.03125 59.765625 51.5625 58.59375 
z
M 42.578125 75.78125 
Q 41.015625 75 41.015625 71.875 
Q 41.015625 68.75 40.8125 53.90625 
Q 40.625 39.0625 38.859375 29.09375 
Q 37.109375 19.140625 31.640625 9.5625 
Q 26.171875 0 12.890625 -10.546875 
L 12.109375 -8.984375 
Q 25 2.34375 30.265625 13.859375 
Q 35.546875 25.390625 36.328125 40.421875 
Q 37.109375 55.46875 37.109375 66.015625 
Q 37.109375 76.953125 34.765625 79.6875 
L 35.9375 80.859375 
L 42.578125 75.78125 
z
M 22.265625 61.328125 
Q 19.921875 60.15625 20.703125 53.90625 
L 20.703125 21.875 
Q 21.09375 13.671875 18.75 16.015625 
L 15.234375 22.265625 
Q 17.1875 24.21875 17.1875 29.296875 
L 17.1875 56.25 
Q 17.1875 63.28125 15.234375 66.796875 
L 16.40625 67.578125 
L 22.265625 61.328125 
z
M 76.953125 37.109375 
Q 70.3125 37.109375 62.6875 36.125 
Q 55.078125 35.15625 51.5625 34.375 
L 46.09375 38.28125 
Q 52.34375 38.28125 61.328125 39.453125 
Q 70.3125 40.625 72.65625 41.796875 
z
" id="FangSong-5f52"/>
      <path d="M 91.796875 40.234375 
Q 82.421875 39.84375 52.53125 37.5 
Q 22.65625 35.15625 15.625 34.375 
L 8.203125 38.28125 
Q 23.046875 38.671875 51.171875 41.015625 
Q 79.296875 43.359375 84.375 44.921875 
z
" id="FangSong-4e00"/>
      <path d="M 57.8125 7.8125 
Q 57.8125 0.390625 68.359375 0 
L 79.296875 0 
Q 85.15625 0 86.125 2.53125 
Q 87.109375 5.078125 87.109375 21.09375 
L 89.0625 21.09375 
Q 89.0625 15.625 89.640625 8.78125 
Q 90.234375 1.953125 92.578125 -2.34375 
Q 87.890625 -3.90625 79.296875 -3.90625 
L 68.359375 -3.90625 
Q 54.296875 -3.90625 54.296875 6.25 
L 54.296875 30.46875 
Q 46.484375 24.21875 35.546875 18.75 
L 34.765625 20.703125 
Q 45.3125 26.5625 54.296875 34.375 
L 54.296875 66.796875 
Q 54.296875 76.171875 51.953125 80.078125 
L 52.734375 80.859375 
L 60.15625 73.828125 
Q 57.421875 72.65625 57.8125 66.015625 
L 57.8125 36.71875 
Q 66.015625 42.96875 73.046875 50.390625 
Q 80.078125 57.8125 79.296875 61.71875 
L 80.46875 61.71875 
L 83.203125 53.125 
Q 82.421875 53.90625 74.609375 46.671875 
Q 66.796875 39.453125 57.8125 32.8125 
z
M 32.03125 -4.6875 
Q 32.03125 -10.9375 30.46875 -8.59375 
L 26.5625 -1.171875 
Q 28.90625 -0.390625 28.515625 4.6875 
L 28.90625 52.34375 
Q 21.875 42.96875 7.8125 31.25 
L 7.03125 32.8125 
Q 21.875 47.65625 31.640625 62.5 
Q 41.40625 77.34375 39.453125 80.46875 
L 40.625 80.859375 
L 44.921875 72.65625 
Q 43.359375 73.4375 40.03125 68.75 
Q 36.71875 64.0625 32.421875 57.421875 
z
" id="FangSong-5316"/>
      <path d="M 77.34375 42.96875 
Q 76.171875 41.796875 74.015625 35.34375 
Q 71.875 28.90625 68.359375 20.3125 
Q 76.171875 4.6875 79.484375 0.578125 
Q 82.8125 -3.515625 93.75 -3.515625 
L 93.75 -5.46875 
L 76.953125 -6.640625 
Q 77.34375 -5.078125 74.796875 0.578125 
Q 72.265625 6.25 66.40625 17.1875 
Q 56.25 0.78125 40.234375 -10.546875 
L 39.0625 -8.984375 
Q 53.125 1.5625 64.0625 20.3125 
Q 57.8125 33.59375 55.46875 36.71875 
Q 53.125 32.03125 50.78125 28.515625 
L 49.21875 29.296875 
Q 53.125 37.890625 55.859375 45.890625 
Q 58.59375 53.90625 61.71875 66.015625 
Q 64.84375 78.125 62.890625 79.6875 
L 64.0625 80.46875 
L 69.140625 75 
Q 67.96875 74.21875 66.984375 70.3125 
Q 66.015625 66.40625 60.9375 50 
Q 83.203125 52.734375 85.546875 54.296875 
L 90.234375 50 
Q 84.765625 49.609375 73.4375 48.046875 
z
M 46.484375 7.03125 
Q 46.875 3.515625 46.875 0.390625 
Q 42.1875 3.125 35.546875 6.25 
Q 25.78125 -3.90625 8.59375 -9.765625 
L 7.8125 -8.203125 
Q 23.046875 -1.171875 31.640625 7.421875 
Q 26.171875 8.984375 19.921875 10.9375 
L 25 21.484375 
Q 15.625 20.3125 12.890625 19.53125 
L 8.203125 23.828125 
Q 12.890625 23.828125 26.5625 25.390625 
Q 28.125 29.296875 28.515625 31.828125 
Q 28.90625 34.375 28.515625 36.71875 
L 29.296875 37.109375 
L 33.59375 31.25 
Q 32.421875 30.859375 30.46875 25.78125 
L 42.578125 26.953125 
Q 43.359375 28.90625 42.96875 32.421875 
L 44.140625 32.8125 
L 48.828125 26.5625 
Q 47.65625 26.5625 45.3125 21.671875 
Q 42.96875 16.796875 38.28125 8.984375 
Q 41.40625 8.203125 46.484375 7.03125 
z
M 36.71875 56.25 
L 41.40625 56.640625 
Q 45.3125 64.84375 46.671875 69.328125 
Q 48.046875 73.828125 47.65625 77.34375 
L 48.828125 78.125 
L 53.125 71.484375 
Q 51.953125 71.09375 50.1875 67.765625 
Q 48.4375 64.453125 43.75 56.640625 
Q 51.171875 58.203125 51.5625 58.59375 
L 55.078125 54.296875 
Q 50.78125 54.296875 36.71875 52.734375 
L 36.71875 50.390625 
Q 43.75 47.265625 50.390625 44.53125 
Q 50.390625 41.40625 50 37.5 
Q 44.53125 42.96875 36.71875 48.046875 
L 36.71875 37.109375 
Q 36.71875 32.03125 35.15625 34.375 
L 31.640625 39.0625 
Q 33.59375 41.015625 33.203125 44.53125 
L 33.203125 50 
Q 21.09375 35.9375 7.421875 27.734375 
L 6.25 29.296875 
Q 18.75 37.890625 29.6875 51.953125 
Q 16.40625 50.390625 15.625 49.609375 
L 10.546875 54.296875 
Q 16.40625 53.90625 33.203125 55.859375 
L 33.203125 69.921875 
Q 33.203125 77.734375 31.25 80.859375 
L 32.421875 81.640625 
L 38.28125 76.953125 
Q 36.71875 75.78125 36.71875 68.75 
z
M 59.375 38.28125 
Q 59.765625 35.9375 61.71875 31.640625 
L 65.625 24.21875 
Q 67.578125 28.125 70.109375 37.109375 
Q 72.65625 46.09375 71.875 47.65625 
L 59.375 46.09375 
Q 57.8125 42.1875 56.25 38.671875 
z
M 33.984375 10.15625 
Q 39.0625 16.796875 41.796875 23.828125 
L 29.296875 21.875 
L 24.609375 12.5 
z
M 25.390625 57.03125 
Q 23.046875 62.5 17.1875 70.703125 
L 18.359375 71.875 
Q 23.046875 67.96875 28.515625 62.890625 
Q 26.953125 59.765625 25.390625 57.03125 
z
" id="FangSong-6570"/>
      <path d="M 74.21875 55.078125 
L 78.90625 50.390625 
L 76.171875 47.65625 
L 75.390625 3.125 
Q 87.109375 3.90625 89.0625 5.078125 
L 92.96875 0.390625 
Q 87.109375 0.78125 62.6875 -1.359375 
Q 38.28125 -3.515625 34.375 -4.296875 
L 30.078125 0 
Q 35.9375 0 44.921875 0.78125 
L 44.140625 43.359375 
Q 44.140625 48.4375 42.1875 52.734375 
L 43.359375 53.515625 
L 47.65625 47.65625 
L 56.640625 48.828125 
L 57.03125 59.765625 
Q 41.40625 57.8125 38.28125 57.03125 
L 33.984375 60.9375 
Q 40.234375 60.9375 57.421875 63.671875 
L 57.8125 70.3125 
Q 58.203125 76.953125 55.859375 80.46875 
L 57.03125 81.640625 
L 63.671875 75.390625 
Q 61.328125 75.390625 61.328125 69.53125 
L 60.9375 64.0625 
Q 79.6875 66.796875 82.8125 67.96875 
L 87.5 63.671875 
Q 82.8125 63.671875 60.546875 60.15625 
L 60.15625 49.21875 
L 72.265625 50.78125 
z
M 47.65625 36.71875 
Q 62.109375 38.671875 66.796875 40.234375 
L 69.53125 35.9375 
Q 64.0625 35.546875 48.046875 33.203125 
L 48.046875 25.390625 
Q 64.453125 27.34375 66.015625 28.125 
L 69.921875 24.609375 
Q 64.453125 24.21875 48.046875 21.875 
L 48.4375 14.453125 
Q 65.234375 15.625 67.1875 16.796875 
L 69.921875 12.890625 
Q 64.84375 12.890625 48.4375 10.9375 
L 48.4375 0.78125 
L 71.875 2.734375 
L 72.65625 47.265625 
L 47.65625 44.140625 
z
M 27.34375 -3.515625 
Q 27.34375 -10.546875 25.78125 -7.03125 
L 22.265625 -0.78125 
Q 24.21875 1.953125 23.828125 4.6875 
L 24.609375 53.90625 
Q 16.796875 42.96875 7.421875 34.765625 
L 6.25 35.9375 
Q 17.1875 47.265625 25.578125 60.9375 
Q 33.984375 74.609375 33.203125 79.296875 
L 34.375 79.296875 
L 38.671875 73.046875 
Q 37.109375 72.265625 34.765625 69.140625 
Q 32.03125 65.234375 28.125 58.984375 
L 27.34375 -3.515625 
z
" id="FangSong-503c"/>
     </defs>
     <g transform="translate(61.976562 178.28)rotate(-90)scale(0.14 -0.14)">
      <use xlink:href="#FangSong-5f52"/>
      <use x="100" xlink:href="#FangSong-4e00"/>
      <use x="200" xlink:href="#FangSong-5316"/>
      <use x="300" xlink:href="#FangSong-6570"/>
      <use x="400" xlink:href="#FangSong-503c"/>
     </g>
    </g>
   </g>
   <g id="line2d_17">
    <path clip-path="url(#pe6ad46993e)" d="M 115.363636 242.018874 
L 116.146465 195.825535 
L 116.929293 187.947686 
L 117.712121 188.003062 
L 118.494949 180.860632 
L 119.277778 178.784618 
L 120.060606 168.785245 
L 120.843434 163.1993 
L 121.626263 156.128337 
L 123.191919 148.145063 
L 124.757576 140.618257 
L 126.323232 129.839649 
L 127.106061 126.391509 
L 127.888889 121.000429 
L 128.671717 117.469746 
L 129.454545 117.336784 
L 130.237374 110.422309 
L 132.585859 100.048227 
L 133.368687 97.309723 
L 134.151515 95.049533 
L 134.934343 92.280643 
L 135.717172 104.575735 
L 136.5 113.619667 
L 137.282828 110.296731 
L 138.065657 89.54332 
L 138.848485 82.518976 
L 139.631313 79.860521 
L 140.414141 78.526919 
L 141.19697 76.958776 
L 141.979798 75.777654 
L 143.545455 72.592721 
L 146.676768 66.067513 
L 148.242424 64.294234 
L 149.025253 63.027043 
L 149.808081 62.275852 
L 152.156566 58.829517 
L 152.939394 58.277941 
L 153.722222 58.303571 
L 154.505051 57.95901 
L 155.287879 59.728614 
L 156.070707 55.184083 
L 156.853535 56.285289 
L 157.636364 65.092858 
L 158.419192 60.107286 
L 159.20202 52.600404 
L 159.984848 52.89003 
L 162.333333 54.422231 
L 163.116162 54.669313 
L 163.89899 56.469203 
L 164.681818 55.851798 
L 165.464646 54.963097 
L 166.247475 57.257881 
L 167.030303 62.391609 
L 167.813131 63.003592 
L 168.59596 55.989376 
L 169.378788 57.301091 
L 172.510101 61.189016 
L 173.292929 61.757323 
L 174.075758 62.635314 
L 174.858586 63.782474 
L 175.641414 65.24923 
L 176.424242 67.750564 
L 177.207071 69.795806 
L 177.989899 71.014948 
L 178.772727 71.065525 
L 179.555556 72.933955 
L 180.338384 75.602522 
L 181.121212 76.675038 
L 181.90404 78.0754 
L 183.469697 82.975368 
L 184.252525 84.496842 
L 185.818182 88.26595 
L 186.60101 91.36074 
L 189.732323 100.805871 
L 190.515152 103.659466 
L 191.29798 105.776582 
L 196.777778 126.879169 
L 199.126263 137.821351 
L 201.474747 151.798813 
L 203.040404 160.005119 
L 204.606061 169.649864 
L 206.954545 184.773214 
L 211.651515 220.999691 
L 213.217172 230.435536 
L 215.565657 241.066443 
L 216.348485 241.922782 
L 217.131313 242.105047 
L 217.914141 241.97794 
L 218.69697 195.923517 
L 219.479798 187.127952 
L 220.262626 181.363968 
L 221.045455 176.97457 
L 221.828283 175.414867 
L 222.611111 165.878927 
L 224.959596 150.970202 
L 225.742424 144.627095 
L 226.525253 139.372645 
L 227.308081 152.765884 
L 228.090909 144.838327 
L 228.873737 131.549727 
L 229.656566 135.23215 
L 230.439394 126.473329 
L 231.222222 127.025063 
L 232.005051 114.44817 
L 232.787879 126.812343 
L 233.570707 117.215197 
L 234.353535 129.062255 
L 235.136364 117.594393 
L 235.919192 103.88239 
L 236.70202 120.465045 
L 237.484848 123.37567 
L 238.267677 95.153032 
L 239.050505 88.39463 
L 239.833333 92.131206 
L 240.616162 97.218315 
L 241.39899 84.86467 
L 242.181818 86.399101 
L 242.964646 83.758175 
L 243.747475 76.990559 
L 244.530303 99.140249 
L 245.313131 126.864591 
L 246.878788 72.608804 
L 247.661616 86.846661 
L 248.444444 87.42741 
L 249.227273 74.927305 
L 250.010101 65.566447 
L 250.792929 75.393161 
L 251.575758 108.702493 
L 252.358586 122.775563 
L 253.141414 72.738415 
L 253.924242 56.129732 
L 254.707071 48.399602 
L 255.489899 62.041261 
L 256.272727 99.748173 
L 257.055556 99.299099 
L 257.838384 77.72758 
L 258.621212 128.253552 
L 259.40404 73.965657 
L 260.186869 51.205149 
L 260.969697 45.994515 
L 261.752525 67.374437 
L 262.535354 61.272557 
L 263.318182 62.531566 
L 264.10101 76.542034 
L 264.883838 87.927876 
L 265.666667 88.213776 
L 266.449495 102.151273 
L 267.232323 118.81252 
L 268.015152 83.102352 
L 268.79798 61.995124 
L 269.580808 81.061484 
L 270.363636 83.167415 
L 271.146465 60.101914 
L 271.929293 95.849487 
L 272.712121 44.443636 
L 273.494949 54.162477 
L 274.277778 54.905251 
L 275.060606 58.059017 
L 275.843434 60.745729 
L 276.626263 66.123944 
L 277.409091 64.438498 
L 278.191919 70.213081 
L 278.974747 69.208156 
L 279.757576 69.660839 
L 280.540404 73.151631 
L 281.323232 91.300982 
L 282.106061 74.034512 
L 282.888889 75.041732 
L 283.671717 76.957046 
L 284.454545 79.633048 
L 285.237374 81.566108 
L 287.585859 89.018388 
L 289.934343 97.041736 
L 291.5 99.646753 
L 295.414141 113.502762 
L 296.979798 120.495156 
L 297.762626 146.64289 
L 298.545455 134.422158 
L 299.328283 136.729134 
L 300.111111 153.687392 
L 300.893939 154.120042 
L 302.459596 184.652667 
L 303.242424 141.895468 
L 304.025253 145.955749 
L 305.590909 156.249166 
L 307.939394 175.33479 
L 309.505051 186.400416 
L 311.853535 203.878126 
L 312.636364 211.36233 
L 313.419192 226.5261 
L 314.20202 226.022191 
L 314.984848 234.453046 
L 315.767677 239.935215 
L 316.550505 238.554317 
L 317.333333 239.605717 
L 318.116162 241.392978 
L 318.89899 241.869017 
L 319.681818 242.008478 
L 320.464646 241.990432 
L 321.247475 198.816888 
L 322.030303 190.437079 
L 322.813131 184.534132 
L 325.161616 169.062572 
L 325.944444 162.467876 
L 327.510101 151.221508 
L 329.075758 144.842177 
L 329.858586 160.469927 
L 330.641414 139.747343 
L 331.424242 141.459799 
L 332.989899 128.477507 
L 333.772727 124.735001 
L 334.555556 121.958186 
L 336.121212 115.670738 
L 337.686869 110.505834 
L 339.252525 104.244663 
L 340.035354 101.449986 
L 340.818182 97.889108 
L 341.60101 105.170105 
L 342.383838 93.626203 
L 343.166667 115.897512 
L 343.949495 92.415859 
L 344.732323 88.555476 
L 345.515152 82.378653 
L 346.29798 82.661942 
L 347.080808 96.350586 
L 347.863636 95.350335 
L 348.646465 77.291195 
L 349.429293 82.321839 
L 350.212121 83.033762 
L 350.994949 76.045293 
L 351.777778 76.553343 
L 352.560606 79.602861 
L 353.343434 74.062902 
L 354.126263 73.256777 
L 354.909091 71.571464 
L 355.691919 69.5684 
L 356.474747 68.028498 
L 357.257576 67.669501 
L 358.040404 66.622581 
L 359.606061 65.718512 
L 360.388889 65.685797 
L 361.171717 66.256333 
L 361.954545 65.778669 
L 362.737374 65.934824 
L 363.520202 65.844364 
L 364.30303 63.944551 
L 365.085859 62.858729 
L 365.868687 70.140084 
L 366.651515 58.159124 
L 367.434343 60.989684 
L 368.217172 62.936366 
L 369 64.050362 
L 369.782828 64.290741 
L 370.565657 65.78464 
L 371.348485 65.072135 
L 372.131313 65.149639 
L 372.914141 64.204489 
L 373.69697 65.16662 
L 374.479798 65.52718 
L 375.262626 66.097965 
L 376.045455 66.173191 
L 376.828283 67.09509 
L 377.611111 69.461142 
L 378.393939 72.190814 
L 379.176768 72.694208 
L 379.959596 72.108919 
L 380.742424 72.376857 
L 381.525253 74.195358 
L 382.308081 76.935974 
L 383.090909 78.25785 
L 383.873737 79.903896 
L 384.656566 80.658995 
L 386.222222 86.975574 
L 387.787879 89.453591 
L 388.570707 90.042955 
L 389.353535 92.081893 
L 390.136364 95.034847 
L 390.919192 96.905655 
L 391.70202 97.859969 
L 392.484848 99.498747 
L 393.267677 101.483266 
L 394.833333 107.770889 
L 395.616162 110.029816 
L 396.39899 113.193494 
L 397.964646 118.471785 
L 398.747475 121.740668 
L 400.313131 126.380174 
L 403.444444 139.717306 
L 409.707071 174.633216 
L 411.272727 184.022211 
L 414.40404 206.61395 
L 415.969697 218.415031 
L 416.752525 223.667851 
L 418.318182 232.577185 
L 419.10101 236.120992 
L 419.883838 239.103531 
L 420.666667 240.955332 
L 421.449495 241.760423 
L 422.232323 242.116364 
L 423.015152 242.115239 
L 423.79798 193.054284 
L 424.580808 186.765297 
L 428.494949 160.60234 
L 429.277778 156.207238 
L 430.060606 152.769235 
L 430.843434 148.039559 
L 433.191919 136.700918 
L 435.540404 126.657983 
L 436.323232 125.167244 
L 437.106061 122.895744 
L 437.888889 116.981853 
L 438.671717 114.154727 
L 441.020202 107.661078 
L 441.80303 104.717762 
L 442.585859 102.35581 
L 443.368687 100.950501 
L 444.151515 98.593463 
L 444.934343 95.450841 
L 446.5 91.104594 
L 447.282828 89.350308 
L 450.414141 80.534407 
L 451.19697 78.763256 
L 452.762626 76.405537 
L 454.328283 74.286018 
L 455.111111 72.787362 
L 455.893939 72.111397 
L 456.676768 71.050873 
L 458.242424 69.629638 
L 459.025253 69.215807 
L 459.808081 69.104607 
L 460.590909 68.241451 
L 462.156566 67.861814 
L 463.722222 66.530059 
L 464.505051 66.875451 
L 465.287879 67.702831 
L 466.070707 66.72159 
L 466.853535 66.213224 
L 467.636364 67.382287 
L 468.419192 67.734232 
L 469.20202 67.897939 
L 469.984848 68.328701 
L 470.767677 68.436059 
L 471.550505 67.698424 
L 472.333333 67.978203 
L 473.116162 68.759165 
L 473.89899 70.946076 
L 474.681818 70.776232 
L 475.464646 70.119394 
L 477.030303 71.293015 
L 478.59596 73.500932 
L 479.378788 73.64453 
L 480.161616 74.389584 
L 480.944444 75.800407 
L 481.727273 76.882486 
L 482.510101 78.80126 
L 483.292929 81.464688 
L 484.075758 81.445644 
L 484.858586 80.057823 
L 485.641414 80.006215 
L 486.424242 81.022283 
L 487.207071 82.911535 
L 487.989899 85.779534 
L 488.772727 87.643789 
L 489.555556 88.873076 
L 491.121212 92.739447 
L 491.90404 96.306928 
L 492.686869 98.412326 
L 493.469697 99.785661 
L 494.252525 102.10077 
L 495.035354 105.052086 
L 495.818182 108.767332 
L 496.60101 111.624503 
L 497.383838 113.569139 
L 498.166667 114.821012 
L 498.949495 116.963841 
L 499.732323 119.540401 
L 501.29798 126.488106 
L 502.080808 130.219019 
L 502.863636 133.040166 
L 504.429293 166.513803 
L 505.212121 169.590597 
L 505.994949 155.435615 
L 506.777778 174.822768 
L 507.560606 160.022981 
L 509.909091 172.984492 
L 510.691919 176.835773 
L 511.474747 182.567239 
L 512.257576 187.154131 
L 513.823232 195.337464 
L 514.606061 204.119432 
L 515.388889 206.030152 
L 516.954545 217.276763 
L 517.737374 228.2208 
L 518.520202 226.528069 
L 519.30303 236.124218 
L 520.085859 236.490135 
L 520.868687 240.06441 
L 522.434343 241.474235 
L 523.217172 241.878772 
L 524 242.032263 
L 524.782828 241.956285 
L 525.565657 201.694362 
L 526.348485 204.766333 
L 527.131313 193.775292 
L 527.914141 196.02431 
L 528.69697 207.911743 
L 529.479798 191.481043 
L 530.262626 204.234254 
L 531.045455 205.538596 
L 531.828283 202.742451 
L 532.611111 204.980513 
L 533.393939 195.121155 
L 534.176768 195.970107 
L 534.959596 180.301085 
L 535.742424 185.725054 
L 536.525253 197.553875 
L 537.308081 195.484858 
L 538.090909 181.057045 
L 538.873737 128.116423 
L 539.656566 112.442146 
L 540.439394 88.425066 
L 541.222222 91.850196 
L 542.005051 109.241636 
L 542.787879 105.983016 
L 543.570707 118.581871 
L 544.353535 134.988287 
L 545.136364 137.27824 
L 545.919192 133.807631 
L 546.70202 117.093727 
L 547.484848 96.333588 
L 548.267677 92.709476 
L 549.050505 96.683205 
L 549.833333 83.00642 
L 550.616162 128.064307 
L 551.39899 138.641754 
L 552.181818 74.498222 
L 552.964646 87.295886 
L 553.747475 69.839215 
L 554.530303 93.942173 
L 555.313131 110.004602 
L 556.09596 166.161659 
L 556.878788 148.674893 
L 557.661616 146.795927 
L 558.444444 158.706776 
L 559.227273 154.370708 
L 560.010101 116.683363 
L 560.792929 120.588194 
L 561.575758 107.311046 
L 562.358586 122.405415 
L 563.141414 125.730704 
L 563.924242 135.376115 
L 564.707071 127.790282 
L 565.489899 108.69421 
L 566.272727 101.608886 
L 567.055556 102.269175 
L 567.838384 96.939068 
L 568.621212 148.946872 
L 569.40404 157.750001 
L 570.186869 159.362342 
L 570.969697 162.466271 
L 571.752525 157.138384 
L 572.535354 157.524765 
L 573.318182 145.132443 
L 574.10101 155.977769 
L 574.883838 165.112269 
L 575.666667 159.375648 
L 576.449495 157.342406 
L 577.232323 160.19497 
L 578.015152 159.011545 
L 578.79798 159.677939 
L 579.580808 169.518839 
L 580.363636 161.366013 
L 581.146465 162.283746 
L 581.929293 171.49276 
L 582.712121 167.859754 
L 583.494949 158.115933 
L 584.277778 156.379701 
L 585.060606 157.741227 
L 585.843434 122.871753 
L 586.626263 178.265332 
L 587.409091 192.233705 
L 588.191919 191.6207 
L 588.974747 186.904155 
L 589.757576 184.481102 
L 591.323232 176.366537 
L 592.106061 176.595199 
L 592.888889 185.833485 
L 593.671717 178.703267 
L 594.454545 177.451161 
L 595.237374 162.96939 
L 596.020202 154.234111 
L 596.80303 175.641388 
L 597.585859 165.050615 
L 598.368687 163.361243 
L 599.934343 190.245307 
L 600.717172 190.993707 
L 601.5 196.884771 
L 602.282828 201.099951 
L 603.065657 200.425691 
L 603.848485 199.021725 
L 604.631313 198.818243 
L 605.414141 202.079725 
L 606.19697 203.244693 
L 606.979798 199.662721 
L 607.762626 204.917449 
L 608.545455 212.879343 
L 610.893939 222.967421 
L 611.676768 224.294298 
L 612.459596 224.333339 
L 613.242424 224.968847 
L 614.025253 226.228599 
L 614.808081 229.903031 
L 616.373737 231.939346 
L 617.156566 234.950173 
L 617.939394 237.130341 
L 618.722222 237.610367 
L 619.505051 238.567173 
L 620.287879 240.329888 
L 621.070707 241.050019 
L 621.853535 241.424995 
L 622.636364 241.590052 
L 622.636364 241.590052 
" style="fill:none;stroke:#000000;stroke-linecap:square;stroke-width:1.5;"/>
   </g>
   <g id="line2d_18">
    <path clip-path="url(#pe6ad46993e)" d="M 115.363636 241.241641 
L 116.146465 219.649109 
L 116.929293 216.607865 
L 117.712121 216.373859 
L 118.494949 212.324405 
L 119.277778 210.664452 
L 120.060606 204.87795 
L 120.843434 201.288152 
L 121.626263 196.766803 
L 123.191919 190.515857 
L 124.757576 185.213091 
L 126.323232 179.351645 
L 127.106061 176.870939 
L 127.888889 173.171371 
L 128.671717 170.859454 
L 129.454545 170.964152 
L 130.237374 167.814415 
L 131.020202 165.584535 
L 131.80303 162.587359 
L 133.368687 157.795952 
L 134.151515 156.230578 
L 134.934343 154.140954 
L 135.717172 160.677899 
L 136.5 165.757384 
L 137.282828 164.472895 
L 138.065657 152.920525 
L 138.848485 148.246128 
L 141.979798 141.099574 
L 144.328283 137.000446 
L 145.111111 135.801301 
L 145.893939 135.196718 
L 146.676768 134.229296 
L 148.242424 130.543728 
L 149.808081 128.487221 
L 150.590909 126.951436 
L 151.373737 125.744603 
L 152.156566 125.009072 
L 152.939394 123.891401 
L 153.722222 123.324696 
L 154.505051 122.068024 
L 155.287879 123.562053 
L 156.070707 120.551417 
L 156.853535 120.761216 
L 157.636364 127.219249 
L 158.419192 124.805257 
L 159.20202 118.218336 
L 159.984848 118.199196 
L 160.767677 117.830046 
L 161.550505 117.67014 
L 162.333333 117.730953 
L 163.116162 117.469246 
L 163.89899 118.913405 
L 164.681818 118.926926 
L 165.464646 119.165279 
L 167.030303 122.716888 
L 167.813131 121.795541 
L 168.59596 118.884561 
L 169.378788 120.220882 
L 170.161616 121.255504 
L 172.510101 123.481666 
L 174.858586 126.983907 
L 176.424242 129.712388 
L 177.207071 131.29694 
L 178.772727 132.57003 
L 179.555556 135.428912 
L 180.338384 137.640063 
L 181.121212 138.847466 
L 182.686869 142.192066 
L 183.469697 144.70055 
L 185.035354 147.785923 
L 185.818182 149.34056 
L 186.60101 151.870785 
L 187.383838 153.511557 
L 190.515152 162.180179 
L 191.29798 163.59951 
L 192.080808 165.947708 
L 192.863636 167.895874 
L 194.429293 172.520325 
L 195.212121 174.442492 
L 195.994949 176.764416 
L 196.777778 179.467631 
L 199.126263 186.287374 
L 201.474747 194.722379 
L 203.040404 199.335522 
L 208.520202 219.187829 
L 209.30303 221.785122 
L 210.085859 227.664771 
L 210.868687 236.161065 
L 211.651515 238.234484 
L 212.434343 238.953008 
L 214.782828 240.114516 
L 215.565657 240.657604 
L 217.914141 241.48735 
L 218.69697 220.449953 
L 219.479798 215.874635 
L 221.045455 210.034377 
L 221.828283 208.442353 
L 222.611111 202.593302 
L 224.176768 195.95355 
L 224.959596 191.222485 
L 225.742424 189.40175 
L 226.525253 185.591887 
L 227.308081 192.433351 
L 228.090909 187.901029 
L 228.873737 180.595051 
L 229.656566 181.864388 
L 230.439394 177.12038 
L 231.222222 176.025211 
L 232.005051 167.838499 
L 232.787879 175.68927 
L 233.570707 170.400716 
L 234.353535 175.900864 
L 235.136364 170.060798 
L 235.919192 161.792862 
L 236.70202 170.142066 
L 237.484848 172.726352 
L 238.267677 157.356941 
L 239.050505 152.76217 
L 239.833333 154.163691 
L 240.616162 156.118322 
L 241.39899 148.541667 
L 242.181818 148.028292 
L 242.964646 145.032659 
L 243.747475 140.308104 
L 244.530303 152.246954 
L 245.313131 168.241207 
L 246.09596 154.705789 
L 246.878788 137.253803 
L 247.661616 144.02831 
L 248.444444 144.004288 
L 250.010101 129.451578 
L 250.792929 134.008691 
L 251.575758 155.16204 
L 252.358586 163.720481 
L 253.141414 131.706021 
L 253.924242 119.108018 
L 254.707071 113.102365 
L 255.489899 122.569673 
L 256.272727 148.807625 
L 257.055556 145.240161 
L 257.838384 131.184341 
L 258.621212 163.269234 
L 259.40404 130.814819 
L 260.186869 113.956542 
L 260.969697 109.969457 
L 261.752525 124.466814 
L 262.535354 119.168762 
L 263.318182 121.189216 
L 264.10101 130.498527 
L 264.883838 137.91891 
L 265.666667 139.226813 
L 266.449495 148.347853 
L 267.232323 159.89293 
L 268.015152 138.464909 
L 268.79798 123.984031 
L 269.580808 137.019563 
L 270.363636 139.149917 
L 271.146465 122.584882 
L 271.929293 144.887916 
L 272.712121 111.160571 
L 273.494949 117.825803 
L 274.277778 118.872006 
L 275.060606 121.995546 
L 275.843434 124.041695 
L 276.626263 127.825163 
L 277.409091 127.449481 
L 278.191919 131.627954 
L 278.974747 131.352103 
L 279.757576 132.441629 
L 280.540404 133.835957 
L 281.323232 145.6702 
L 282.106061 135.651289 
L 283.671717 138.701757 
L 284.454545 141.371288 
L 286.020202 145.085791 
L 286.80303 146.540954 
L 288.368687 150.591543 
L 289.151515 153.084066 
L 289.934343 155.09465 
L 291.5 158.420718 
L 292.282828 161.217441 
L 295.414141 169.082266 
L 296.979798 173.771673 
L 297.762626 175.514208 
L 298.545455 177.724758 
L 299.328283 179.187465 
L 300.111111 189.981957 
L 300.893939 190.325693 
L 302.459596 209.150566 
L 303.242424 189.317797 
L 304.025253 190.944531 
L 305.590909 195.545256 
L 308.722222 210.522232 
L 310.287879 216.560457 
L 311.070707 219.575313 
L 311.853535 223.911702 
L 312.636364 233.558439 
L 313.419192 237.640521 
L 314.984848 239.116225 
L 315.767677 239.724209 
L 320.464646 241.518318 
L 321.247475 221.754117 
L 325.944444 202.430286 
L 326.727273 199.016945 
L 327.510101 195.027834 
L 329.075758 190.080841 
L 329.858586 197.59485 
L 330.641414 186.666174 
L 331.424242 187.01848 
L 332.989899 178.780338 
L 333.772727 176.382613 
L 334.555556 174.770213 
L 335.338384 173.936766 
L 340.035354 160.06368 
L 340.818182 157.045638 
L 341.60101 160.086722 
L 342.383838 152.128074 
L 343.166667 167.748812 
L 343.949495 154.345415 
L 344.732323 150.443614 
L 345.515152 143.882776 
L 346.29798 143.381195 
L 347.080808 153.212444 
L 347.863636 151.425256 
L 348.646465 138.803535 
L 349.429293 141.300681 
L 350.212121 142.30192 
L 350.994949 136.376136 
L 351.777778 136.096719 
L 352.560606 137.756228 
L 353.343434 133.426404 
L 354.126263 132.187337 
L 354.909091 131.429098 
L 355.691919 130.40392 
L 356.474747 129.083797 
L 357.257576 128.739955 
L 358.823232 126.555549 
L 361.954545 124.299897 
L 362.737374 124.070562 
L 363.520202 123.694652 
L 364.30303 122.409661 
L 365.085859 122.387752 
L 365.868687 127.230663 
L 366.651515 119.271338 
L 367.434343 121.341298 
L 368.217172 122.080343 
L 370.565657 123.739465 
L 371.348485 123.665816 
L 372.131313 124.263464 
L 372.914141 123.583954 
L 373.69697 124.150857 
L 374.479798 124.38569 
L 375.262626 125.125564 
L 376.045455 125.572865 
L 377.611111 127.378037 
L 379.176768 130.189034 
L 380.742424 132.000784 
L 381.525253 133.211738 
L 382.308081 135.293203 
L 383.873737 137.38212 
L 384.656566 138.58436 
L 385.439394 141.353334 
L 386.222222 143.005711 
L 387.005051 144.018158 
L 387.787879 145.920272 
L 388.570707 147.119979 
L 389.353535 149.036192 
L 390.136364 151.446647 
L 390.919192 153.085876 
L 391.70202 154.311073 
L 394.833333 163.931687 
L 395.616162 165.274958 
L 396.39899 167.833404 
L 397.181818 169.169428 
L 397.964646 171.339378 
L 398.747475 173.963047 
L 399.530303 175.420483 
L 400.313131 177.589833 
L 401.878788 182.505636 
L 403.444444 186.855726 
L 411.272727 212.696391 
L 412.838384 218.480342 
L 413.621212 222.109457 
L 414.40404 231.853395 
L 415.186869 237.186265 
L 415.969697 238.194089 
L 416.752525 238.709717 
L 417.535354 239.040086 
L 418.318182 238.763647 
L 419.10101 239.214383 
L 419.883838 239.973516 
L 422.232323 240.850844 
L 423.015152 241.033066 
L 423.79798 218.652187 
L 431.626263 188.832462 
L 433.974747 181.729766 
L 435.540404 177.25218 
L 436.323232 176.03858 
L 437.106061 175.933464 
L 437.888889 172.205767 
L 439.454545 167.434277 
L 441.020202 163.969671 
L 441.80303 161.376754 
L 444.934343 154.119905 
L 447.282828 149.674372 
L 448.848485 146.177135 
L 449.631313 144.666232 
L 450.414141 142.819242 
L 451.979798 140.806119 
L 453.545455 137.277863 
L 455.111111 134.669669 
L 455.893939 133.761867 
L 456.676768 132.517864 
L 457.459596 131.68298 
L 458.242424 130.422498 
L 459.025253 129.614078 
L 459.808081 128.301475 
L 460.590909 127.22131 
L 461.373737 127.048811 
L 462.939394 125.538401 
L 464.505051 125.059033 
L 465.287879 124.571527 
L 466.070707 123.771989 
L 466.853535 123.45099 
L 467.636364 123.848756 
L 469.20202 123.326247 
L 469.984848 123.500936 
L 471.550505 123.486868 
L 472.333333 124.536014 
L 473.89899 125.63586 
L 474.681818 125.31001 
L 475.464646 124.628933 
L 477.030303 126.41565 
L 477.813131 126.612057 
L 479.378788 127.968355 
L 482.510101 133.389317 
L 483.292929 135.568203 
L 484.075758 135.868943 
L 484.858586 136.358 
L 485.641414 138.398188 
L 486.424242 139.588229 
L 487.989899 144.201562 
L 488.772727 145.008158 
L 491.121212 150.13841 
L 491.90404 152.743091 
L 494.252525 158.155757 
L 495.818182 162.858145 
L 496.60101 164.604543 
L 497.383838 166.004231 
L 498.949495 169.667481 
L 502.080808 179.665647 
L 502.863636 181.50988 
L 503.646465 183.878823 
L 504.429293 185.674623 
L 505.994949 190.591537 
L 506.777778 203.721368 
L 507.560606 195.48804 
L 508.343434 197.71916 
L 509.126263 200.622182 
L 510.691919 204.851548 
L 511.474747 208.187973 
L 512.257576 210.983784 
L 513.040404 213.226497 
L 513.823232 215.826949 
L 514.606061 221.171888 
L 515.388889 224.933427 
L 516.171717 234.348878 
L 516.954545 236.84092 
L 517.737374 238.106872 
L 519.30303 239.339658 
L 520.085859 239.608283 
L 520.868687 240.171003 
L 521.651515 240.542151 
L 522.434343 240.643148 
L 524.782828 241.581108 
L 525.565657 219.943832 
L 526.348485 220.561216 
L 527.131313 215.478255 
L 527.914141 216.155617 
L 528.69697 220.662746 
L 529.479798 213.180011 
L 530.262626 217.810005 
L 531.045455 218.370869 
L 531.828283 215.332041 
L 532.611111 213.267475 
L 533.393939 212.902069 
L 534.176768 214.282176 
L 534.959596 207.74584 
L 535.742424 209.609042 
L 536.525253 214.268834 
L 537.308081 213.106761 
L 538.090909 205.961393 
L 538.873737 178.870675 
L 539.656566 168.227686 
L 540.439394 154.178725 
L 541.222222 154.22709 
L 542.005051 163.151175 
L 542.787879 161.100204 
L 543.570707 167.792819 
L 544.353535 176.100868 
L 545.136364 176.763253 
L 545.919192 174.401268 
L 546.70202 165.642732 
L 547.484848 153.626027 
L 548.267677 149.885159 
L 549.050505 150.7271 
L 549.833333 140.357898 
L 550.616162 163.740488 
L 551.39899 172.058157 
L 552.181818 137.287863 
L 552.964646 143.100743 
L 553.747475 132.064023 
L 554.530303 146.475541 
L 555.313131 155.356022 
L 556.09596 189.255117 
L 556.878788 181.581826 
L 557.661616 180.846092 
L 558.444444 187.818996 
L 559.227273 186.527705 
L 560.010101 162.916669 
L 560.792929 163.724192 
L 561.575758 154.729705 
L 562.358586 163.784503 
L 563.141414 165.645659 
L 563.924242 171.474843 
L 564.707071 167.461235 
L 565.489899 155.506415 
L 566.272727 150.847425 
L 567.055556 149.612685 
L 567.838384 144.607769 
L 568.621212 175.623697 
L 569.40404 181.026268 
L 570.186869 183.123493 
L 570.969697 186.709823 
L 571.752525 184.425963 
L 572.535354 184.886765 
L 573.318182 178.811631 
L 574.10101 184.961452 
L 574.883838 190.008789 
L 575.666667 186.573289 
L 576.449495 185.303614 
L 577.232323 187.384759 
L 578.015152 186.488663 
L 578.79798 186.891535 
L 579.580808 192.967316 
L 580.363636 188.441142 
L 581.146465 189.054345 
L 581.929293 194.432699 
L 582.712121 193.044817 
L 583.494949 187.282788 
L 584.277778 185.154373 
L 585.060606 185.703798 
L 585.843434 163.947534 
L 586.626263 197.005673 
L 587.409091 207.960114 
L 588.191919 208.37186 
L 588.974747 205.961465 
L 589.757576 204.5834 
L 590.540404 202.317573 
L 591.323232 199.381616 
L 592.106061 198.315036 
L 592.888889 204.055484 
L 593.671717 200.042868 
L 594.454545 199.464364 
L 595.237374 191.944405 
L 596.020202 186.25345 
L 596.80303 197.834071 
L 597.585859 192.636983 
L 598.368687 191.397893 
L 599.151515 198.268699 
L 599.934343 206.181378 
L 600.717172 207.197841 
L 601.5 210.948782 
L 602.282828 213.734342 
L 603.065657 213.780914 
L 603.848485 212.799148 
L 604.631313 212.436713 
L 605.414141 214.230563 
L 606.19697 214.957646 
L 606.979798 213.117736 
L 607.762626 215.88638 
L 608.545455 220.635789 
L 610.893939 227.88559 
L 611.676768 229.028559 
L 612.459596 229.217102 
L 613.242424 229.544766 
L 614.025253 230.360754 
L 615.590909 233.317875 
L 616.373737 234.095953 
L 617.156566 235.821923 
L 617.939394 237.234667 
L 618.722222 237.742188 
L 619.505051 238.462542 
L 620.287879 239.727937 
L 621.070707 240.348285 
L 622.636364 240.806882 
L 622.636364 240.806882 
" style="fill:none;stroke:#000000;stroke-dasharray:1.5,2.475;stroke-dashoffset:0;stroke-width:1.5;"/>
   </g>
   <g id="patch_3">
    <path d="M 90 252 
L 90 34.56 
" style="fill:none;stroke:#000000;stroke-linecap:square;stroke-linejoin:miter;stroke-width:0.8;"/>
   </g>
   <g id="patch_4">
    <path d="M 648 252 
L 648 34.56 
" style="fill:none;stroke:#000000;stroke-linecap:square;stroke-linejoin:miter;stroke-width:0.8;"/>
   </g>
   <g id="patch_5">
    <path d="M 90 252 
L 648 252 
" style="fill:none;stroke:#000000;stroke-linecap:square;stroke-linejoin:miter;stroke-width:0.8;"/>
   </g>
   <g id="patch_6">
    <path d="M 90 34.56 
L 648 34.56 
" style="fill:none;stroke:#000000;stroke-linecap:square;stroke-linejoin:miter;stroke-width:0.8;"/>
   </g>
   <g id="legend_1">
    <g id="patch_7">
     <path d="M 495.4 85.955312 
L 638.2 85.955312 
Q 641 85.955312 641 83.155312 
L 641 44.36 
Q 641 41.56 638.2 41.56 
L 495.4 41.56 
Q 492.6 41.56 492.6 44.36 
L 492.6 83.155312 
Q 492.6 85.955312 495.4 85.955312 
z
" style="fill:#ffffff;opacity:0.8;stroke:#cccccc;stroke-linejoin:miter;"/>
    </g>
    <g id="line2d_19">
     <path d="M 498.2 53.252187 
L 526.2 53.252187 
" style="fill:none;stroke:#000000;stroke-linecap:square;stroke-width:1.5;"/>
    </g>
    <g id="line2d_20"/>
    <g id="text_19">
     <!-- 光伏出力功率 -->
     <defs>
      <path d="M 52.34375 41.40625 
Q 82.421875 43.75 84.375 45.3125 
L 90.234375 40.234375 
Q 81.25 40.234375 54.6875 37.890625 
L 59.375 34.765625 
Q 57.421875 33.984375 57.8125 28.515625 
L 57.8125 5.46875 
Q 57.421875 -1.5625 66.796875 -1.953125 
L 75.78125 -1.953125 
Q 84.765625 -1.953125 85.34375 0 
Q 85.9375 1.953125 85.9375 15.234375 
L 87.5 15.234375 
Q 87.890625 9.765625 88.671875 4.875 
Q 89.453125 0 91.40625 -3.90625 
Q 86.71875 -5.46875 75.78125 -5.859375 
L 66.796875 -5.859375 
Q 53.90625 -6.25 54.296875 5.078125 
L 54.296875 30.859375 
Q 54.6875 36.71875 53.515625 37.5 
L 41.796875 36.71875 
L 45.703125 33.59375 
Q 44.53125 33.59375 42.96875 28.3125 
Q 41.40625 23.046875 38.859375 17.375 
Q 36.328125 11.71875 29.484375 4.484375 
Q 22.65625 -2.734375 9.375 -9.375 
L 8.984375 -7.421875 
Q 36.328125 5.859375 40.625 37.109375 
Q 21.484375 35.15625 18.359375 34.375 
L 12.890625 38.671875 
Q 20.3125 38.671875 48.828125 41.015625 
L 49.21875 69.53125 
Q 50 76.5625 46.875 80.859375 
L 48.046875 81.640625 
L 55.078125 75.390625 
Q 52.34375 73.828125 52.734375 68.359375 
z
M 60.15625 46.875 
Q 65.234375 55.078125 68.75 62.6875 
Q 72.265625 70.3125 71.484375 72.65625 
L 72.65625 73.046875 
L 77.34375 65.625 
Q 75.78125 66.015625 71.484375 59.765625 
Q 67.1875 53.515625 61.71875 46.484375 
z
M 37.890625 46.09375 
Q 35.15625 52.34375 25 65.625 
L 26.171875 67.1875 
Q 35.9375 57.8125 40.625 53.125 
Q 39.453125 49.609375 37.890625 46.09375 
z
" id="FangSong-5149"/>
      <path d="M 73.828125 -5.859375 
Q 73.828125 -0.390625 70.109375 10.546875 
Q 66.40625 21.484375 59.765625 42.96875 
L 56.25 42.578125 
Q 49.609375 7.03125 28.125 -9.765625 
L 27.34375 -8.59375 
Q 47.65625 11.71875 52.34375 42.1875 
Q 39.453125 40.625 39.453125 39.84375 
L 33.984375 44.53125 
Q 38.28125 44.140625 53.125 46.09375 
Q 54.296875 58.59375 55.078125 67.96875 
Q 55.859375 77.34375 53.125 80.46875 
L 54.296875 81.25 
L 60.9375 75 
Q 58.984375 75 58.390625 66.40625 
Q 57.8125 57.8125 56.640625 46.484375 
Q 79.6875 48.828125 83.59375 50 
L 87.109375 45.703125 
Q 82.03125 45.703125 62.5 43.359375 
Q 69.53125 21.484375 73.046875 12.5 
Q 76.5625 3.515625 78.703125 0.578125 
Q 80.859375 -2.34375 92.1875 -3.125 
L 92.1875 -5.078125 
L 73.828125 -5.859375 
z
M 24.609375 48.4375 
Q 17.578125 38.671875 8.203125 29.296875 
L 7.03125 30.859375 
Q 17.1875 42.96875 27.140625 60.15625 
Q 37.109375 77.34375 34.375 80.078125 
L 35.9375 80.859375 
L 40.625 72.65625 
Q 39.453125 73.046875 35.546875 67.1875 
Q 31.640625 60.546875 28.125 54.6875 
L 26.953125 -5.078125 
Q 27.34375 -10.546875 25.78125 -8.984375 
L 21.875 -0.78125 
Q 24.21875 0.390625 23.4375 7.421875 
z
M 67.1875 71.484375 
Q 74.609375 65.234375 78.90625 62.109375 
Q 77.734375 58.203125 76.171875 55.078125 
Q 72.65625 61.71875 66.015625 69.921875 
z
" id="FangSong-4f0f"/>
      <path d="M 79.296875 28.90625 
L 85.546875 23.4375 
Q 83.984375 24.21875 83.203125 18.15625 
Q 82.421875 12.109375 81.4375 5.65625 
Q 80.46875 -0.78125 79.6875 -4.09375 
Q 78.90625 -7.421875 77.734375 -7.8125 
Q 76.5625 -8.203125 76.5625 -0.78125 
L 23.4375 -4.296875 
L 20.703125 -7.03125 
L 16.796875 -1.953125 
L 19.921875 -0.78125 
L 19.53125 16.40625 
Q 19.140625 21.875 16.796875 24.21875 
L 17.578125 25.390625 
L 24.609375 20.3125 
Q 22.65625 18.75 23.046875 12.890625 
L 23.4375 -0.78125 
L 48.4375 0.78125 
L 48.828125 34.765625 
L 28.125 32.8125 
L 25.390625 30.46875 
L 21.484375 35.15625 
L 24.21875 36.71875 
L 23.828125 53.515625 
Q 24.21875 59.765625 21.09375 63.28125 
L 21.875 64.453125 
L 28.90625 59.375 
Q 27.34375 58.59375 27.34375 53.515625 
L 27.734375 36.328125 
L 48.828125 38.28125 
L 49.21875 67.1875 
Q 49.609375 76.953125 46.484375 79.6875 
L 47.65625 80.859375 
L 55.078125 74.21875 
Q 52.34375 72.65625 52.734375 66.796875 
L 52.34375 38.671875 
L 74.609375 40.625 
Q 76.171875 51.171875 77.140625 57.8125 
Q 78.125 64.453125 76.171875 66.015625 
L 77.34375 66.796875 
L 82.421875 61.71875 
Q 81.25 60.9375 80.46875 55.46875 
Q 79.6875 50 78.703125 43.359375 
Q 77.734375 36.71875 76.953125 33.984375 
Q 76.171875 31.25 75.390625 31.4375 
Q 74.609375 31.640625 74.21875 37.109375 
L 52.34375 35.15625 
L 51.953125 1.171875 
L 76.953125 2.734375 
Q 78.90625 13.671875 79.6875 19.921875 
Q 80.46875 26.171875 78.515625 28.125 
z
" id="FangSong-51fa"/>
      <path d="M 48.4375 82.421875 
L 56.25 76.171875 
Q 54.296875 76.171875 53.703125 71.671875 
Q 53.125 67.1875 50.78125 52.34375 
L 76.171875 54.6875 
L 78.90625 58.59375 
L 83.59375 53.515625 
L 80.46875 51.171875 
Q 73.4375 0.390625 65.234375 -10.15625 
Q 59.375 -1.171875 49.609375 9.765625 
L 50.78125 10.9375 
L 64.84375 -2.34375 
Q 70.3125 8.203125 76.171875 50.78125 
L 50.390625 48.4375 
Q 39.0625 8.59375 9.375 -8.984375 
L 8.203125 -7.421875 
Q 36.71875 12.109375 46.09375 48.046875 
Q 26.5625 46.09375 23.046875 44.921875 
L 17.578125 50 
Q 25.390625 49.609375 46.484375 51.953125 
Q 48.828125 64.84375 49.40625 71.28125 
Q 50 77.734375 47.265625 81.640625 
z
" id="FangSong-529b"/>
      <path d="M 59.765625 6.25 
L 71.875 -2.34375 
Q 76.953125 10.15625 81.640625 48.4375 
L 63.671875 46.09375 
Q 60.15625 25.390625 53.515625 12.5 
Q 46.875 -0.390625 31.640625 -9.765625 
L 30.46875 -8.203125 
Q 42.96875 0.78125 49.796875 12.6875 
Q 56.640625 24.609375 59.765625 45.703125 
Q 50.78125 44.53125 49.21875 42.96875 
L 43.75 47.65625 
Q 48.4375 47.265625 60.546875 49.21875 
Q 62.109375 60.9375 62.6875 70.3125 
Q 63.28125 79.6875 60.546875 81.25 
L 61.71875 82.421875 
L 69.140625 76.953125 
Q 67.1875 76.953125 66.59375 69.140625 
Q 66.015625 61.328125 64.0625 49.609375 
L 80.859375 51.953125 
L 83.59375 56.25 
L 88.28125 51.953125 
L 85.546875 49.21875 
Q 82.8125 28.90625 79.875 13.078125 
Q 76.953125 -2.734375 72.265625 -10.15625 
Q 66.015625 -0.78125 58.59375 5.078125 
z
M 46.875 56.25 
Q 42.1875 56.25 28.90625 53.90625 
L 33.984375 50.78125 
Q 32.03125 49.21875 32.421875 43.75 
L 32.03125 21.875 
L 49.609375 28.125 
L 50 26.171875 
Q 17.578125 12.890625 13.28125 10.546875 
L 8.59375 15.234375 
Q 13.671875 14.84375 28.125 20.703125 
L 28.515625 46.875 
Q 28.515625 51.171875 27.734375 53.515625 
Q 19.53125 52.34375 17.1875 50.78125 
L 11.328125 55.078125 
Q 16.015625 55.078125 27.921875 57.03125 
Q 39.84375 58.984375 42.578125 60.546875 
z
" id="FangSong-529f"/>
      <path d="M 58.59375 32.8125 
L 46.484375 30.46875 
L 53.515625 26.953125 
Q 51.5625 25.78125 51.5625 23.046875 
L 51.5625 21.484375 
Q 83.59375 23.828125 86.71875 24.609375 
L 91.015625 20.3125 
Q 83.984375 20.3125 51.5625 17.96875 
L 51.171875 -5.859375 
Q 51.171875 -10.546875 50 -10.15625 
L 45.3125 -3.515625 
Q 47.65625 -1.5625 47.65625 2.34375 
L 48.046875 17.578125 
Q 17.96875 15.234375 15.234375 14.84375 
L 9.765625 19.140625 
Q 17.578125 18.359375 48.046875 21.09375 
L 48.046875 23.4375 
Q 48.046875 27.34375 46.484375 30.078125 
Q 37.890625 28.515625 35.9375 27.34375 
L 32.03125 32.03125 
L 37.109375 33.203125 
Q 39.84375 36.328125 49.21875 46.484375 
Q 38.671875 44.140625 36.328125 42.578125 
L 32.8125 48.046875 
L 36.328125 48.046875 
Q 39.84375 52.34375 46.09375 62.890625 
Q 25 60.546875 22.65625 59.765625 
L 16.796875 64.453125 
Q 25.78125 64.0625 51.359375 66.59375 
Q 76.953125 69.140625 78.515625 70.3125 
L 83.59375 65.625 
Q 76.953125 66.015625 46.875 62.5 
L 51.171875 59.765625 
Q 49.609375 59.375 46.671875 55.859375 
Q 43.75 52.34375 39.84375 48.046875 
L 51.171875 49.21875 
Q 53.90625 51.953125 54.6875 53.515625 
Q 55.46875 55.078125 55.46875 57.421875 
L 57.03125 57.8125 
L 59.375 50.78125 
Q 57.8125 50.78125 52.53125 45.109375 
Q 47.265625 39.453125 41.015625 32.8125 
L 57.421875 35.15625 
L 53.515625 41.015625 
L 54.6875 42.1875 
Q 60.546875 37.109375 64.453125 33.203125 
Q 63.671875 30.46875 61.71875 26.953125 
z
M 80.46875 37.109375 
Q 80.46875 33.203125 79.296875 30.46875 
Q 75.390625 35.15625 61.328125 45.703125 
Q 64.84375 48.828125 69.71875 54.09375 
Q 74.609375 59.375 74.21875 62.890625 
L 75.78125 62.890625 
L 78.125 55.46875 
Q 76.5625 55.46875 73.046875 52.734375 
Q 69.53125 50 64.453125 45.703125 
Q 75.390625 39.453125 80.46875 37.109375 
z
M 32.8125 41.015625 
Q 18.75 30.078125 17.96875 28.125 
L 11.328125 31.25 
Q 15.625 32.421875 32.03125 42.578125 
z
M 26.171875 44.140625 
Q 23.4375 48.046875 15.234375 55.46875 
L 16.015625 57.03125 
Q 23.828125 53.125 27.34375 51.171875 
Q 27.34375 48.4375 26.171875 44.140625 
z
M 49.609375 67.1875 
Q 48.046875 72.265625 42.1875 80.859375 
L 43.359375 82.03125 
Q 50 76.171875 52.34375 73.4375 
Q 51.5625 70.703125 49.609375 67.1875 
z
" id="FangSong-7387"/>
     </defs>
     <g transform="translate(537.4 58.152187)scale(0.14 -0.14)">
      <use xlink:href="#FangSong-5149"/>
      <use x="100" xlink:href="#FangSong-4f0f"/>
      <use x="200" xlink:href="#FangSong-51fa"/>
      <use x="300" xlink:href="#FangSong-529b"/>
      <use x="400" xlink:href="#FangSong-529f"/>
      <use x="500" xlink:href="#FangSong-7387"/>
     </g>
    </g>
    <g id="line2d_21">
     <path d="M 498.2 73.431875 
L 526.2 73.431875 
" style="fill:none;stroke:#000000;stroke-dasharray:1.5,2.475;stroke-dashoffset:0;stroke-width:1.5;"/>
    </g>
    <g id="line2d_22"/>
    <g id="text_20">
     <!-- 全球水平辐照度 -->
     <defs>
      <path d="M 66.796875 37.5 
Q 62.5 37.5 50.78125 35.9375 
L 50.390625 21.875 
Q 64.453125 23.046875 66.796875 24.21875 
L 70.703125 19.53125 
Q 66.40625 20.3125 50.390625 18.359375 
L 50 0.390625 
Q 74.609375 1.5625 74.609375 3.125 
L 79.6875 -1.953125 
Q 73.046875 -1.5625 49.015625 -3.125 
Q 25 -4.6875 21.09375 -5.078125 
L 16.40625 -1.171875 
Q 24.21875 -1.5625 46.484375 0 
L 46.875 17.96875 
Q 36.328125 16.40625 33.59375 16.015625 
L 29.296875 20.3125 
Q 34.765625 20.3125 46.875 21.484375 
L 47.265625 35.546875 
Q 35.9375 34.375 33.984375 33.59375 
L 29.6875 37.5 
Q 37.109375 37.890625 48.234375 39.453125 
Q 59.375 41.015625 62.109375 42.1875 
z
M 49.609375 70.703125 
Q 62.109375 55.46875 68.75 48.4375 
Q 75.390625 41.40625 79.296875 38.28125 
Q 83.203125 35.15625 94.140625 35.546875 
L 94.140625 33.59375 
L 78.125 30.859375 
Q 79.296875 31.25 71.875 39.84375 
Q 64.0625 49.21875 48.046875 67.578125 
Q 31.640625 37.890625 9.375 23.046875 
L 8.984375 24.609375 
Q 18.75 33.203125 26.5625 42.1875 
Q 34.375 51.171875 41.59375 63.859375 
Q 48.828125 76.5625 47.65625 82.03125 
L 48.828125 82.421875 
L 53.515625 75 
Q 51.5625 74.21875 51.171875 73.4375 
Q 50.78125 72.65625 49.609375 70.703125 
z
" id="FangSong-5168"/>
      <path d="M 45.703125 6.25 
L 56.640625 -0.78125 
Q 57.8125 3.125 57.8125 8.203125 
L 58.203125 53.90625 
Q 42.578125 52.34375 41.796875 51.5625 
L 36.71875 55.859375 
Q 41.015625 55.46875 58.203125 57.421875 
L 58.59375 67.96875 
Q 58.984375 77.34375 56.25 80.859375 
L 57.03125 81.640625 
L 63.671875 76.5625 
Q 61.71875 75.390625 62.109375 68.359375 
L 61.71875 57.8125 
Q 79.296875 59.765625 81.640625 60.546875 
L 86.71875 56.640625 
Q 80.078125 56.640625 61.71875 54.296875 
L 61.71875 46.09375 
L 67.96875 33.59375 
Q 72.65625 37.5 76.171875 41.59375 
Q 79.6875 45.703125 78.515625 48.4375 
L 80.078125 48.828125 
L 82.8125 40.234375 
Q 82.03125 41.015625 78.3125 38.46875 
Q 74.609375 35.9375 69.140625 31.25 
Q 77.734375 14.0625 80.65625 10.9375 
Q 83.59375 7.8125 92.96875 7.421875 
L 92.96875 5.46875 
L 78.125 3.515625 
Q 77.34375 7.421875 73.625 15.03125 
Q 69.921875 22.65625 61.71875 40.234375 
L 61.328125 4.296875 
Q 60.9375 -4.6875 57.8125 -9.765625 
Q 53.90625 -3.515625 44.53125 5.078125 
z
M 40.625 25.390625 
Q 12.109375 7.8125 12.109375 6.640625 
L 7.03125 10.9375 
Q 10.15625 11.328125 22.65625 18.359375 
L 23.046875 39.0625 
Q 16.015625 38.28125 14.84375 37.5 
L 10.546875 41.796875 
Q 14.453125 41.796875 23.046875 42.96875 
L 23.4375 61.71875 
Q 15.234375 60.546875 13.671875 59.765625 
L 9.375 64.0625 
Q 15.234375 64.0625 24.40625 65.234375 
Q 33.59375 66.40625 37.109375 67.1875 
L 41.40625 62.890625 
Q 37.109375 62.890625 26.953125 61.71875 
L 26.5625 43.75 
Q 32.03125 44.140625 34.765625 45.3125 
L 37.5 41.015625 
Q 34.375 41.015625 26.5625 39.84375 
L 26.171875 19.921875 
L 39.453125 26.953125 
z
M 30.859375 7.03125 
Q 36.328125 8.984375 55.46875 32.421875 
L 56.640625 31.25 
Q 37.5 5.859375 35.9375 3.515625 
L 30.859375 7.03125 
z
M 51.171875 31.25 
Q 45.703125 38.671875 39.84375 45.3125 
L 40.625 46.484375 
Q 48.4375 41.015625 53.125 37.5 
Q 52.734375 34.765625 51.171875 31.25 
z
M 78.90625 69.53125 
Q 78.125 66.015625 76.5625 63.28125 
Q 73.4375 68.75 66.796875 75.390625 
L 67.96875 76.5625 
Q 75 72.265625 78.90625 69.53125 
z
" id="FangSong-7403"/>
      <path d="M 76.5625 5.078125 
Q 77.734375 6.25 71.28125 17.375 
Q 64.84375 28.515625 52.34375 50.390625 
L 52.34375 1.5625 
Q 52.34375 -6.640625 49.21875 -10.546875 
Q 44.921875 -4.296875 33.984375 5.078125 
L 34.765625 6.25 
L 48.046875 -1.953125 
Q 49.21875 2.34375 48.828125 7.03125 
L 48.828125 68.359375 
Q 49.21875 76.953125 46.875 80.859375 
L 48.046875 81.640625 
L 54.296875 75.78125 
Q 51.953125 75 52.34375 68.359375 
L 52.34375 56.25 
Q 57.8125 46.09375 61.328125 40.625 
Q 69.921875 48.046875 73.828125 52.53125 
Q 77.734375 57.03125 77.34375 59.765625 
L 78.515625 59.765625 
L 80.859375 51.5625 
Q 80.078125 52.34375 75.390625 48.4375 
Q 70.3125 44.140625 62.890625 37.890625 
Q 73.046875 20.703125 75.578125 16.984375 
Q 78.125 13.28125 80.265625 11.125 
Q 82.421875 8.984375 93.359375 8.203125 
L 93.359375 6.25 
L 76.5625 5.078125 
z
M 42.1875 51.953125 
L 47.265625 47.65625 
L 43.75 44.140625 
Q 30.859375 14.0625 7.421875 -2.34375 
L 6.25 -1.171875 
Q 28.90625 18.75 39.453125 44.140625 
Q 21.484375 41.40625 19.53125 40.625 
L 14.0625 44.53125 
Q 20.703125 44.53125 40.234375 48.4375 
z
" id="FangSong-6c34"/>
      <path d="M 48.828125 69.53125 
Q 27.734375 67.578125 25.390625 66.796875 
L 21.09375 71.484375 
Q 28.515625 71.09375 52.734375 73.234375 
Q 76.953125 75.390625 77.34375 76.171875 
L 82.03125 71.484375 
Q 72.65625 71.484375 52.34375 69.53125 
L 51.953125 37.109375 
Q 87.5 39.84375 87.890625 40.625 
L 93.359375 35.9375 
Q 86.71875 36.71875 51.953125 33.59375 
L 51.5625 -1.5625 
Q 51.953125 -10.546875 50.390625 -9.765625 
L 46.09375 -1.953125 
Q 48.4375 -1.5625 48.046875 6.25 
L 48.4375 33.203125 
Q 13.28125 30.859375 12.5 29.6875 
L 6.640625 34.375 
Q 12.890625 33.984375 48.4375 36.71875 
L 48.828125 69.53125 
z
M 76.5625 60.9375 
Q 75.78125 61.71875 71.671875 55.078125 
Q 67.578125 48.4375 62.109375 40.234375 
L 60.546875 41.015625 
Q 65.625 50.390625 68.9375 57.609375 
Q 72.265625 64.84375 70.3125 67.1875 
L 71.484375 67.96875 
z
M 38.671875 46.875 
Q 37.890625 44.921875 35.546875 41.015625 
Q 30.859375 51.171875 25.78125 60.15625 
L 26.5625 60.9375 
Q 32.8125 54.296875 38.671875 46.875 
z
" id="FangSong-5e73"/>
      <path d="M 51.953125 -3.90625 
Q 51.953125 -9.765625 50.96875 -8.984375 
Q 50 -8.203125 46.484375 -2.34375 
Q 48.046875 0 48.046875 3.90625 
L 47.65625 23.046875 
Q 47.265625 28.90625 46.484375 33.203125 
L 47.65625 33.984375 
L 50.78125 29.6875 
L 83.984375 32.421875 
L 86.328125 36.328125 
L 91.796875 31.640625 
L 88.671875 28.90625 
Q 87.890625 17.1875 87.109375 9.765625 
Q 86.328125 2.34375 85.546875 -3.515625 
Q 84.765625 -9.375 83.59375 -8.390625 
Q 82.421875 -7.421875 81.25 -1.5625 
L 51.953125 -3.90625 
z
M 30.46875 37.890625 
L 30.859375 42.96875 
Q 31.25 49.609375 29.296875 52.734375 
L 30.078125 53.515625 
L 36.328125 48.4375 
Q 34.375 48.4375 34.375 43.359375 
L 33.984375 38.671875 
Q 42.578125 40.234375 42.578125 41.015625 
L 46.484375 36.71875 
Q 44.140625 36.71875 33.984375 35.15625 
L 33.59375 22.65625 
L 44.140625 26.171875 
L 44.53125 24.21875 
L 33.59375 19.921875 
L 33.203125 -5.078125 
Q 33.203125 -11.71875 31.640625 -8.984375 
L 27.734375 -2.734375 
Q 29.296875 -1.5625 29.6875 3.125 
L 30.078125 18.75 
Q 14.453125 12.890625 12.109375 11.71875 
L 7.421875 16.015625 
Q 10.546875 15.625 30.078125 21.875 
L 30.46875 34.375 
L 18.75 32.421875 
L 16.796875 30.46875 
L 12.5 35.9375 
L 16.015625 36.71875 
L 24.21875 58.203125 
Q 16.015625 57.03125 14.84375 56.640625 
L 10.546875 60.546875 
Q 15.234375 60.546875 25.78125 62.109375 
Q 27.734375 67.578125 28.90625 72.84375 
Q 30.078125 78.125 28.125 80.078125 
L 29.6875 80.859375 
L 34.765625 73.828125 
Q 33.203125 73.4375 32.21875 70.890625 
Q 31.25 68.359375 29.296875 62.5 
Q 41.015625 64.0625 43.75 64.84375 
L 47.265625 60.546875 
Q 41.40625 60.9375 28.125 58.59375 
L 19.53125 36.328125 
z
M 57.421875 36.71875 
L 56.25 36.328125 
L 52.34375 41.015625 
Q 53.90625 43.359375 53.515625 50.1875 
Q 53.125 57.03125 51.953125 61.328125 
L 53.125 62.109375 
L 55.859375 57.8125 
L 78.515625 59.765625 
L 80.859375 63.671875 
L 85.9375 59.375 
L 82.421875 56.25 
L 81.640625 46.09375 
L 84.765625 42.578125 
L 57.03125 40.234375 
z
M 78.90625 56.25 
L 56.640625 54.296875 
L 57.03125 43.75 
L 78.125 45.703125 
z
M 81.640625 -1.171875 
Q 83.203125 6.25 83.984375 14.453125 
Q 78.125 14.0625 69.140625 12.890625 
L 68.75 1.171875 
Q 73.828125 1.5625 78.125 2.34375 
z
M 69.140625 16.40625 
Q 76.5625 17.1875 79.6875 18.359375 
L 83.984375 16.015625 
L 84.765625 28.90625 
L 69.53125 27.734375 
z
M 66.015625 27.34375 
L 50.78125 25.78125 
L 51.171875 14.84375 
Q 54.296875 14.84375 65.625 16.015625 
z
M 51.171875 13.28125 
L 51.5625 -0.390625 
L 65.234375 0.78125 
L 65.625 12.5 
Q 57.8125 11.71875 54.296875 10.9375 
z
M 91.40625 70.3125 
Q 83.984375 70.703125 68.546875 69.328125 
Q 53.125 67.96875 48.828125 67.1875 
L 44.921875 71.484375 
Q 51.5625 71.09375 67.765625 72.453125 
Q 83.984375 73.828125 86.328125 75 
z
" id="FangSong-8f90"/>
      <path d="M 21.09375 24.609375 
Q 21.484375 18.359375 19.53125 17.96875 
L 15.234375 25.390625 
Q 16.796875 25.78125 17.578125 32.421875 
L 17.578125 64.453125 
Q 16.796875 71.09375 16.015625 76.953125 
L 17.1875 77.734375 
L 20.703125 71.09375 
L 37.5 73.828125 
L 40.625 77.734375 
L 45.3125 73.828125 
L 42.1875 70.3125 
L 39.84375 30.859375 
L 44.140625 26.953125 
L 21.09375 24.609375 
z
M 73.828125 52.734375 
Q 75.78125 57.421875 79.6875 73.828125 
L 64.453125 71.875 
Q 60.546875 56.25 51.953125 46.875 
L 55.078125 41.015625 
L 76.953125 42.96875 
L 80.078125 47.265625 
L 84.765625 42.96875 
L 81.640625 39.84375 
L 79.296875 25.78125 
L 82.8125 21.875 
L 55.46875 19.921875 
Q 55.46875 17.1875 55.265625 16.203125 
Q 55.078125 15.234375 50 21.484375 
Q 51.171875 23.828125 51.171875 26.5625 
L 50.78125 45.3125 
Q 48.046875 42.1875 43.75 38.671875 
L 42.578125 40.234375 
Q 55.078125 52.34375 60.15625 71.484375 
Q 54.6875 70.703125 51.953125 69.921875 
L 47.265625 73.828125 
Q 55.46875 74.21875 78.90625 77.34375 
L 82.03125 81.25 
L 87.5 76.171875 
L 83.984375 73.828125 
Q 78.515625 51.953125 74.609375 44.53125 
Q 70.703125 50.390625 64.84375 57.421875 
L 65.625 58.59375 
L 73.828125 52.734375 
z
M 77.34375 39.0625 
L 54.6875 37.109375 
L 55.078125 23.828125 
L 75.390625 25.390625 
z
M 37.109375 48.4375 
Q 32.03125 48.4375 21.09375 46.875 
L 21.09375 28.515625 
L 35.9375 30.078125 
z
M 38.28125 69.921875 
L 21.09375 67.1875 
L 21.09375 50.390625 
Q 29.6875 51.953125 32.8125 53.125 
L 37.109375 48.828125 
z
M 86.71875 -6.640625 
Q 82.03125 2.34375 72.265625 15.234375 
L 74.21875 16.015625 
Q 83.984375 6.640625 90.234375 1.171875 
Q 89.0625 -2.734375 86.71875 -6.640625 
z
M 22.265625 16.015625 
Q 18.75 -2.734375 10.15625 -8.59375 
L 8.984375 -0.78125 
Q 14.84375 0.78125 20.3125 16.40625 
L 22.265625 16.015625 
z
M 61.328125 -5.859375 
Q 58.984375 1.5625 53.125 14.453125 
L 55.078125 15.234375 
Q 62.890625 5.46875 65.234375 0.390625 
Q 64.0625 -3.125 61.328125 -5.859375 
z
M 36.328125 15.234375 
Q 41.796875 5.859375 44.53125 -1.171875 
Q 42.578125 -3.90625 39.0625 -6.25 
Q 37.890625 3.125 34.765625 14.84375 
z
" id="FangSong-7167"/>
      <path d="M 62.109375 50.78125 
Q 63.28125 58.203125 62.5 61.71875 
L 63.28125 62.5 
L 68.359375 58.59375 
Q 66.796875 57.03125 66.015625 51.171875 
Q 77.734375 52.34375 80.859375 53.125 
L 85.15625 49.21875 
Q 80.859375 49.21875 65.234375 47.265625 
L 64.0625 38.28125 
L 66.40625 34.765625 
L 46.09375 32.8125 
Q 46.09375 28.90625 44.53125 29.6875 
L 41.015625 33.984375 
Q 42.1875 35.546875 42.578125 37.890625 
L 42.578125 44.921875 
Q 35.15625 44.140625 31.640625 42.96875 
L 28.125 45.703125 
Q 27.34375 28.515625 21.875 14.640625 
Q 16.40625 0.78125 8.203125 -8.59375 
L 6.640625 -7.421875 
Q 14.0625 3.515625 17.765625 12.890625 
Q 21.484375 22.265625 22.84375 30.65625 
Q 24.21875 39.0625 24.609375 52.140625 
Q 25 65.234375 23.828125 71.875 
L 25.390625 71.875 
L 28.125 63.671875 
Q 79.6875 67.96875 80.859375 69.53125 
L 85.546875 64.84375 
Q 81.640625 65.625 43.359375 61.328125 
L 47.265625 57.421875 
Q 46.484375 55.46875 46.09375 53.125 
L 46.09375 49.21875 
L 62.109375 50.78125 
z
M 74.21875 -10.546875 
Q 71.875 -8.203125 67.96875 -4.6875 
Q 64.0625 -1.171875 54.296875 6.25 
Q 39.0625 -5.859375 20.3125 -9.375 
L 19.921875 -7.8125 
Q 41.40625 -0.390625 51.171875 8.59375 
Q 47.265625 12.5 43.9375 14.84375 
Q 40.625 17.1875 38.671875 16.796875 
L 38.28125 17.96875 
L 44.140625 19.921875 
Q 44.140625 18.359375 47.265625 15.8125 
Q 50.390625 13.28125 53.90625 10.546875 
Q 61.328125 18.359375 64.0625 23.4375 
Q 41.796875 21.484375 38.671875 20.3125 
L 34.765625 24.609375 
Q 41.796875 24.609375 66.015625 27.34375 
L 67.96875 29.6875 
L 73.046875 25.78125 
L 69.921875 23.4375 
Q 64.0625 16.015625 57.03125 8.203125 
Q 65.625 1.171875 69.53125 -1.5625 
Q 73.4375 -4.296875 76.953125 -5.078125 
Q 80.46875 -5.859375 91.40625 -5.46875 
L 91.40625 -7.03125 
L 74.21875 -10.546875 
z
M 28.125 47.265625 
Q 33.203125 47.65625 42.578125 48.4375 
L 42.578125 54.296875 
Q 42.1875 58.203125 41.40625 61.328125 
L 28.515625 60.15625 
L 28.125 47.265625 
z
M 60.15625 38.28125 
L 61.328125 46.875 
L 46.09375 45.3125 
L 46.09375 36.71875 
z
M 55.078125 67.96875 
Q 51.171875 74.21875 46.09375 81.25 
L 47.265625 82.421875 
Q 52.734375 78.125 57.8125 74.21875 
Q 57.03125 71.09375 55.078125 67.96875 
z
" id="FangSong-5ea6"/>
     </defs>
     <g transform="translate(537.4 78.331875)scale(0.14 -0.14)">
      <use xlink:href="#FangSong-5168"/>
      <use x="100" xlink:href="#FangSong-7403"/>
      <use x="200" xlink:href="#FangSong-6c34"/>
      <use x="300" xlink:href="#FangSong-5e73"/>
      <use x="400" xlink:href="#FangSong-8f90"/>
      <use x="500" xlink:href="#FangSong-7167"/>
      <use x="600" xlink:href="#FangSong-5ea6"/>
     </g>
    </g>
   </g>
  </g>
 </g>
 <defs>
  <clipPath id="pe6ad46993e">
   <rect height="217.44" width="558" x="90" y="34.56"/>
  </clipPath>
 </defs>
</svg>
